<svg id="svg" version="1.1" xmlns="http://www.w3.org/2000/svg" xmlns:xlink="http://www.w3.org/1999/xlink"  viewBox="0 -10 512 512"><g id="svgg"><path id="path0" d="M270.500 0.295 C 269.345 0.376,268.400 0.612,268.400 0.821 C 268.400 1.029,267.781 1.200,267.024 1.200 C 266.267 1.200,265.536 1.380,265.400 1.600 C 265.264 1.820,264.623 2.000,263.976 2.000 C 263.329 2.000,262.800 2.180,262.800 2.400 C 262.800 2.620,262.260 2.800,261.600 2.800 C 260.940 2.800,260.400 2.980,260.400 3.200 C 260.400 3.420,259.950 3.600,259.400 3.600 C 258.850 3.600,258.400 3.780,258.400 4.000 C 258.400 4.220,257.961 4.400,257.424 4.400 C 256.887 4.400,256.336 4.580,256.200 4.800 C 256.064 5.020,255.603 5.200,255.176 5.200 C 254.749 5.200,254.400 5.380,254.400 5.600 C 254.400 5.820,254.085 5.999,253.700 5.997 C 252.925 5.993,246.278 9.214,246.067 9.696 C 245.993 9.863,245.601 10.000,245.195 10.000 C 244.789 10.000,244.219 10.228,243.929 10.506 C 243.638 10.784,242.545 11.459,241.500 12.005 C 240.455 12.552,239.600 13.134,239.600 13.299 C 239.600 13.465,239.280 13.600,238.888 13.600 C 238.497 13.600,237.917 13.960,237.600 14.400 C 237.283 14.840,236.838 15.200,236.612 15.201 C 236.385 15.201,235.570 15.741,234.800 16.400 C 234.030 17.059,233.241 17.599,233.047 17.599 C 232.853 17.600,232.403 17.915,232.047 18.300 C 231.691 18.685,230.589 19.623,229.600 20.385 C 228.610 21.147,227.734 21.930,227.654 22.124 C 227.499 22.497,223.249 26.700,221.307 28.400 C 220.679 28.950,219.730 30.030,219.198 30.800 C 218.666 31.570,217.729 32.677,217.115 33.260 C 216.502 33.844,216.000 34.474,216.000 34.660 C 215.999 34.847,215.549 35.523,215.000 36.162 C 214.450 36.801,214.000 37.448,214.000 37.600 C 214.000 37.752,213.550 38.399,213.000 39.038 C 212.451 39.677,212.001 40.425,212.000 40.700 C 212.000 40.975,211.838 41.200,211.640 41.200 C 211.441 41.200,210.946 42.009,210.540 42.999 C 210.133 43.988,209.665 44.798,209.500 44.799 C 209.335 44.799,209.200 45.070,209.200 45.400 C 209.200 45.730,209.020 46.000,208.800 46.000 C 208.580 46.000,208.400 46.270,208.400 46.600 C 208.400 46.930,208.220 47.200,208.000 47.200 C 207.780 47.200,207.600 47.560,207.600 48.000 C 207.600 48.440,207.420 48.800,207.200 48.800 C 206.980 48.800,206.800 49.072,206.800 49.405 C 206.800 49.993,206.633 50.418,205.662 52.295 C 205.408 52.787,205.200 53.462,205.200 53.795 C 205.200 54.128,205.020 54.400,204.800 54.400 C 204.580 54.400,204.400 54.760,204.400 55.200 C 204.400 55.640,204.220 56.000,204.000 56.000 C 203.780 56.000,203.600 56.540,203.600 57.200 C 203.600 57.860,203.420 58.400,203.200 58.400 C 202.980 58.400,202.800 58.839,202.800 59.376 C 202.800 59.913,202.620 60.464,202.400 60.600 C 202.180 60.736,202.000 61.287,202.000 61.824 C 202.000 62.361,201.820 62.800,201.600 62.800 C 201.380 62.800,201.200 63.520,201.200 64.400 C 201.200 65.280,201.020 66.000,200.800 66.000 C 200.580 66.000,200.400 66.799,200.400 67.776 C 200.400 68.753,200.220 69.664,200.000 69.800 C 199.780 69.936,199.600 71.117,199.600 72.424 C 199.600 73.741,199.422 74.800,199.200 74.800 C 198.945 74.800,198.801 77.965,198.803 83.500 L 198.806 92.200 199.883 92.700 C 201.202 93.313,210.400 93.400,210.400 92.800 C 210.400 92.571,211.600 92.400,213.200 92.400 C 214.740 92.400,216.000 92.246,216.000 92.058 C 216.000 91.869,217.374 91.612,219.053 91.485 C 220.732 91.358,222.298 91.062,222.533 90.827 C 222.768 90.592,223.464 90.400,224.080 90.400 C 224.696 90.400,225.200 90.220,225.200 90.000 C 225.200 89.780,225.740 89.600,226.400 89.600 C 227.060 89.600,227.600 89.420,227.600 89.200 C 227.600 88.980,227.836 88.800,228.125 88.800 C 228.616 88.800,231.329 87.654,232.895 86.785 C 233.277 86.573,233.862 86.400,234.195 86.400 C 234.528 86.400,234.800 86.220,234.800 86.000 C 234.800 85.780,235.036 85.600,235.325 85.600 C 235.613 85.600,236.236 85.240,236.708 84.800 C 237.180 84.360,237.720 84.000,237.908 84.000 C 238.096 84.000,238.598 83.685,239.025 83.300 C 239.451 82.915,240.316 82.333,240.948 82.007 C 241.579 81.681,242.794 80.736,243.648 79.907 C 244.502 79.078,245.350 78.400,245.532 78.400 C 246.545 78.400,258.800 66.189,258.800 65.179 C 258.800 64.936,259.520 64.046,260.400 63.200 C 261.280 62.354,262.000 61.451,262.000 61.192 C 262.000 60.933,262.540 60.217,263.200 59.600 C 263.860 58.983,264.400 58.281,264.400 58.040 C 264.400 57.798,264.550 57.600,264.732 57.600 C 264.915 57.600,265.320 57.105,265.632 56.500 C 265.945 55.895,266.515 55.051,266.900 54.625 C 267.285 54.198,267.600 53.696,267.600 53.508 C 267.600 53.320,267.960 52.780,268.400 52.308 C 268.840 51.836,269.200 51.213,269.200 50.925 C 269.200 50.636,269.380 50.400,269.600 50.400 C 269.820 50.400,270.000 50.040,270.000 49.600 C 270.000 49.160,270.180 48.800,270.400 48.800 C 270.620 48.800,270.800 48.440,270.800 48.000 C 270.800 47.560,270.935 47.199,271.100 47.197 C 271.459 47.193,272.400 45.256,272.400 44.520 C 272.400 44.234,272.580 44.000,272.800 44.000 C 273.020 44.000,273.200 43.640,273.200 43.200 C 273.200 42.760,273.380 42.400,273.600 42.400 C 273.820 42.400,274.000 42.151,274.000 41.846 C 274.000 41.541,274.269 40.776,274.598 40.146 C 274.926 39.516,275.196 38.595,275.198 38.100 C 275.199 37.605,275.380 37.200,275.600 37.200 C 275.820 37.200,276.000 36.660,276.000 36.000 C 276.000 35.340,276.180 34.800,276.400 34.800 C 276.620 34.800,276.800 34.271,276.800 33.624 C 276.800 32.977,276.980 32.336,277.200 32.200 C 277.420 32.064,277.600 31.434,277.600 30.800 C 277.600 30.166,277.780 29.536,278.000 29.400 C 278.220 29.264,278.400 28.443,278.400 27.576 C 278.400 26.709,278.580 26.000,278.800 26.000 C 279.020 26.000,279.200 25.100,279.200 24.000 C 279.200 22.900,279.380 22.000,279.600 22.000 C 279.835 22.000,280.000 20.600,280.000 18.600 C 280.000 16.600,280.165 15.200,280.400 15.200 C 280.653 15.200,280.800 12.400,280.800 7.600 L 280.800 0.000 276.700 0.074 C 274.445 0.115,271.655 0.214,270.500 0.295 M266.800 95.990 C 266.470 96.209,264.805 96.391,263.100 96.394 C 261.304 96.397,260.000 96.568,260.000 96.800 C 260.000 97.020,259.111 97.200,258.024 97.200 C 256.937 97.200,255.936 97.380,255.800 97.600 C 255.664 97.820,254.753 98.000,253.776 98.000 C 252.799 98.000,252.000 98.180,252.000 98.400 C 252.000 98.620,251.381 98.800,250.624 98.800 C 249.867 98.800,249.136 98.980,249.000 99.200 C 248.864 99.420,248.133 99.600,247.376 99.600 C 246.619 99.600,246.000 99.780,246.000 100.000 C 246.000 100.220,245.460 100.400,244.800 100.400 C 244.140 100.400,243.600 100.580,243.600 100.800 C 243.600 101.020,243.060 101.200,242.400 101.200 C 241.740 101.200,241.200 101.380,241.200 101.600 C 241.200 101.820,240.660 102.000,240.000 102.000 C 239.340 102.000,238.800 102.180,238.800 102.400 C 238.800 102.620,238.260 102.800,237.600 102.800 C 236.940 102.800,236.400 102.980,236.400 103.200 C 236.400 103.420,235.860 103.600,235.200 103.600 C 234.540 103.600,234.000 103.780,234.000 104.000 C 234.000 104.220,233.460 104.400,232.800 104.400 C 232.140 104.400,231.600 104.580,231.600 104.800 C 231.600 105.020,231.238 105.200,230.795 105.200 C 230.352 105.200,229.632 105.380,229.195 105.600 C 228.758 105.820,228.042 106.180,227.605 106.400 C 227.168 106.620,226.538 106.800,226.205 106.800 C 225.872 106.800,225.600 106.980,225.600 107.200 C 225.600 107.420,225.060 107.600,224.400 107.600 C 223.740 107.600,223.200 107.780,223.200 108.000 C 223.200 108.220,222.660 108.400,222.000 108.400 C 221.340 108.400,220.800 108.580,220.800 108.800 C 220.800 109.020,220.440 109.200,220.000 109.200 C 219.560 109.200,219.200 109.380,219.200 109.600 C 219.200 109.820,218.705 110.001,218.100 110.002 C 217.495 110.004,216.484 110.274,215.854 110.602 C 215.224 110.931,214.399 111.200,214.021 111.200 C 213.643 111.200,213.210 111.323,213.059 111.474 C 212.661 111.873,209.918 112.787,209.100 112.794 C 208.715 112.797,208.400 112.980,208.400 113.200 C 208.400 113.420,207.408 113.600,206.195 113.600 C 204.982 113.600,203.645 113.815,203.224 114.078 C 202.631 114.448,202.223 114.448,201.411 114.078 C 200.834 113.815,199.291 113.600,197.981 113.600 C 196.660 113.600,195.600 113.422,195.600 113.200 C 195.600 112.980,195.208 112.800,194.728 112.800 C 193.808 112.800,191.472 112.140,190.305 111.551 C 189.923 111.358,189.359 111.200,189.051 111.200 C 188.743 111.200,187.976 110.931,187.346 110.602 C 186.716 110.274,185.896 110.004,185.524 110.002 C 185.152 110.001,184.736 109.820,184.600 109.600 C 184.464 109.380,183.913 109.200,183.376 109.200 C 182.839 109.200,182.400 109.020,182.400 108.800 C 182.400 108.580,182.040 108.400,181.600 108.400 C 181.160 108.400,180.800 108.220,180.800 108.000 C 180.800 107.780,180.260 107.600,179.600 107.600 C 178.940 107.600,178.400 107.420,178.400 107.200 C 178.400 106.980,178.040 106.800,177.600 106.800 C 177.160 106.800,176.800 106.620,176.800 106.400 C 176.800 106.180,176.361 106.000,175.824 106.000 C 175.287 106.000,174.736 105.820,174.600 105.600 C 174.464 105.380,173.913 105.200,173.376 105.200 C 172.839 105.200,172.400 105.020,172.400 104.800 C 172.400 104.580,171.860 104.400,171.200 104.400 C 170.540 104.400,170.000 104.220,170.000 104.000 C 170.000 103.780,169.638 103.600,169.195 103.600 C 168.752 103.600,168.032 103.420,167.595 103.200 C 167.158 102.980,166.442 102.620,166.005 102.400 C 165.568 102.180,164.859 102.000,164.429 102.000 C 163.999 102.000,163.536 101.820,163.400 101.600 C 163.264 101.380,162.724 101.200,162.200 101.200 C 161.676 101.200,161.136 101.020,161.000 100.800 C 160.864 100.580,160.133 100.400,159.376 100.400 C 158.619 100.400,158.000 100.220,158.000 100.000 C 158.000 99.780,157.381 99.600,156.624 99.600 C 155.867 99.600,155.136 99.420,155.000 99.200 C 154.864 98.980,154.054 98.800,153.200 98.800 C 152.346 98.800,151.536 98.620,151.400 98.400 C 151.264 98.180,150.364 98.000,149.400 98.000 C 148.436 98.000,147.536 97.820,147.400 97.600 C 147.264 97.380,145.543 97.200,143.576 97.200 C 141.459 97.200,140.000 97.037,140.000 96.800 C 140.000 96.263,129.332 96.263,129.000 96.800 C 128.864 97.020,127.424 97.200,125.800 97.200 C 124.176 97.200,122.736 97.380,122.600 97.600 C 122.464 97.820,121.463 98.000,120.376 98.000 C 119.289 98.000,118.400 98.180,118.400 98.400 C 118.400 98.620,117.601 98.800,116.624 98.800 C 115.647 98.800,114.736 98.980,114.600 99.200 C 114.464 99.420,113.924 99.600,113.400 99.600 C 112.876 99.600,112.336 99.780,112.200 100.000 C 112.064 100.220,111.524 100.400,111.000 100.400 C 110.476 100.400,109.936 100.580,109.800 100.800 C 109.664 101.020,109.034 101.200,108.400 101.200 C 107.766 101.200,107.136 101.380,107.000 101.600 C 106.864 101.820,106.403 102.000,105.976 102.000 C 105.549 102.000,105.200 102.180,105.200 102.400 C 105.200 102.620,104.660 102.800,104.000 102.800 C 103.340 102.800,102.800 102.980,102.800 103.200 C 102.800 103.420,102.440 103.600,102.000 103.600 C 101.560 103.600,101.200 103.780,101.200 104.000 C 101.200 104.220,100.750 104.400,100.200 104.400 C 99.650 104.400,99.200 104.580,99.200 104.800 C 99.200 105.020,98.840 105.200,98.400 105.200 C 97.960 105.200,97.600 105.380,97.600 105.600 C 97.600 105.820,97.240 106.000,96.800 106.000 C 96.360 106.000,96.000 106.180,96.000 106.400 C 96.000 106.620,95.640 106.800,95.200 106.800 C 94.760 106.800,94.400 106.980,94.400 107.200 C 94.400 107.420,94.080 107.600,93.688 107.600 C 93.297 107.600,92.717 107.960,92.400 108.400 C 92.083 108.840,91.503 109.200,91.112 109.200 C 90.720 109.200,90.400 109.380,90.400 109.600 C 90.400 109.820,90.121 110.000,89.780 110.000 C 89.030 110.000,86.847 111.095,86.091 111.852 C 85.790 112.153,85.404 112.400,85.234 112.400 C 85.064 112.400,84.401 112.850,83.762 113.400 C 83.123 113.949,82.415 114.399,82.188 114.400 C 81.962 114.400,81.517 114.760,81.200 115.200 C 80.883 115.640,80.393 116.000,80.112 116.000 C 79.830 116.000,79.600 116.150,79.600 116.332 C 79.600 116.515,79.153 116.904,78.607 117.196 C 78.060 117.489,77.508 118.059,77.380 118.464 C 77.251 118.869,76.899 119.200,76.598 119.200 C 75.754 119.200,64.108 131.021,62.000 134.016 C 61.465 134.777,60.840 135.619,60.613 135.886 C 60.386 136.153,59.975 136.641,59.700 136.969 C 59.425 137.298,59.200 137.804,59.200 138.095 C 59.200 138.386,58.840 138.883,58.400 139.200 C 57.960 139.517,57.600 140.057,57.600 140.400 C 57.600 140.743,57.240 141.283,56.800 141.600 C 56.360 141.917,56.000 142.414,56.000 142.705 C 56.000 142.996,55.640 143.620,55.200 144.092 C 54.760 144.564,54.176 145.456,53.903 146.075 C 53.629 146.694,53.269 147.200,53.102 147.200 C 52.936 147.200,52.800 147.560,52.800 148.000 C 52.800 148.440,52.620 148.800,52.400 148.800 C 52.180 148.800,52.000 149.055,52.000 149.367 C 52.000 149.678,51.863 149.993,51.696 150.067 C 51.214 150.278,47.993 156.925,47.997 157.700 C 47.999 158.085,47.820 158.400,47.600 158.400 C 47.380 158.400,47.200 158.760,47.200 159.200 C 47.200 159.640,47.020 160.000,46.800 160.000 C 46.580 160.000,46.400 160.272,46.400 160.605 C 46.400 160.938,46.241 161.523,46.047 161.905 C 45.852 162.287,45.471 163.140,45.200 163.800 C 44.929 164.460,44.544 165.319,44.344 165.709 C 44.145 166.099,43.872 167.224,43.737 168.209 C 43.602 169.194,43.336 170.000,43.146 170.000 C 42.956 170.000,42.800 170.540,42.800 171.200 C 42.800 171.860,42.620 172.400,42.400 172.400 C 42.180 172.400,42.000 172.929,42.000 173.576 C 42.000 174.223,41.820 174.864,41.600 175.000 C 41.380 175.136,41.200 175.867,41.200 176.624 C 41.200 177.381,41.020 178.000,40.800 178.000 C 40.580 178.000,40.400 178.619,40.400 179.376 C 40.400 180.133,40.220 180.864,40.000 181.000 C 39.780 181.136,39.600 181.957,39.600 182.824 C 39.600 183.691,39.420 184.400,39.200 184.400 C 38.980 184.400,38.800 185.390,38.800 186.600 C 38.800 187.810,38.620 188.800,38.400 188.800 C 38.178 188.800,38.000 189.867,38.000 191.200 C 38.000 192.533,37.822 193.600,37.600 193.600 C 37.367 193.600,37.200 194.933,37.200 196.800 C 37.200 198.667,37.033 200.000,36.800 200.000 C 36.540 200.000,36.400 205.525,36.400 215.776 C 36.400 225.863,36.544 231.642,36.800 231.800 C 37.021 231.937,37.200 233.737,37.200 235.824 C 37.200 238.075,37.362 239.600,37.600 239.600 C 37.831 239.600,38.000 240.867,38.000 242.600 C 38.000 244.333,38.169 245.600,38.400 245.600 C 38.622 245.600,38.800 246.659,38.800 247.976 C 38.800 249.283,38.980 250.464,39.200 250.600 C 39.420 250.736,39.600 251.827,39.600 253.024 C 39.600 254.221,39.780 255.200,40.000 255.200 C 40.220 255.200,40.400 256.190,40.400 257.400 C 40.400 258.610,40.580 259.600,40.800 259.600 C 41.020 259.600,41.200 260.320,41.200 261.200 C 41.200 262.080,41.380 262.800,41.600 262.800 C 41.820 262.800,42.000 263.700,42.000 264.800 C 42.000 265.900,42.180 266.800,42.400 266.800 C 42.620 266.800,42.800 267.520,42.800 268.400 C 42.800 269.280,42.955 270.000,43.145 270.000 C 43.335 270.000,43.610 271.035,43.758 272.300 C 43.905 273.565,44.188 275.140,44.386 275.800 C 44.584 276.460,44.956 277.810,45.212 278.800 C 45.468 279.790,45.840 280.913,46.039 281.295 C 46.238 281.677,46.400 282.442,46.400 282.995 C 46.400 283.548,46.580 284.000,46.800 284.000 C 47.020 284.000,47.200 284.529,47.200 285.176 C 47.200 285.823,47.380 286.464,47.600 286.600 C 47.820 286.736,48.000 287.289,48.000 287.829 C 48.000 288.369,48.159 289.123,48.353 289.505 C 48.548 289.887,48.929 290.740,49.200 291.400 C 49.471 292.060,49.852 292.913,50.047 293.295 C 50.241 293.677,50.400 294.352,50.400 294.795 C 50.400 295.238,50.580 295.600,50.800 295.600 C 51.020 295.600,51.200 296.140,51.200 296.800 C 51.200 297.460,51.380 298.000,51.600 298.000 C 51.820 298.000,52.000 298.540,52.000 299.200 C 52.000 299.860,52.180 300.400,52.400 300.400 C 52.620 300.400,52.800 300.760,52.800 301.200 C 52.800 301.640,52.980 302.000,53.200 302.000 C 53.420 302.000,53.600 302.439,53.600 302.976 C 53.600 303.513,53.780 304.064,54.000 304.200 C 54.220 304.336,54.400 304.797,54.400 305.224 C 54.400 305.651,54.580 306.000,54.800 306.000 C 55.020 306.000,55.200 306.450,55.200 307.000 C 55.200 307.550,55.380 308.000,55.600 308.000 C 55.820 308.000,56.000 308.360,56.000 308.800 C 56.000 309.240,56.180 309.600,56.400 309.600 C 56.620 309.600,56.800 309.960,56.800 310.400 C 56.800 310.840,56.980 311.200,57.200 311.200 C 57.420 311.200,57.600 311.560,57.600 312.000 C 57.600 312.440,57.780 312.800,58.000 312.800 C 58.220 312.800,58.400 313.160,58.400 313.600 C 58.400 314.040,58.580 314.400,58.800 314.400 C 59.020 314.400,59.200 314.850,59.200 315.400 C 59.200 315.950,59.380 316.400,59.600 316.400 C 59.820 316.400,60.000 316.753,60.000 317.185 C 60.000 318.054,63.578 325.722,64.082 325.933 C 64.257 326.007,64.400 326.412,64.400 326.833 C 64.400 327.255,64.580 327.600,64.800 327.600 C 65.020 327.600,65.200 327.836,65.200 328.125 C 65.200 328.413,65.560 329.036,66.000 329.508 C 66.440 329.980,66.800 330.644,66.800 330.983 C 66.800 331.322,66.980 331.600,67.200 331.600 C 67.420 331.600,67.600 331.945,67.600 332.367 C 67.600 332.788,67.735 333.193,67.900 333.267 C 68.276 333.434,69.575 335.564,69.871 336.500 C 69.993 336.885,70.252 337.200,70.447 337.200 C 70.641 337.200,70.800 337.560,70.800 338.000 C 70.800 338.440,70.936 338.800,71.102 338.800 C 71.269 338.800,71.660 339.385,71.972 340.100 C 72.284 340.815,72.868 341.691,73.270 342.047 C 73.671 342.403,74.000 342.948,74.000 343.259 C 74.000 343.569,74.360 344.083,74.800 344.400 C 75.240 344.717,75.600 345.257,75.600 345.600 C 75.600 345.943,75.960 346.483,76.400 346.800 C 76.840 347.117,77.200 347.669,77.200 348.027 C 77.200 348.385,77.555 349.087,77.988 349.586 C 78.422 350.086,78.884 350.834,79.015 351.248 C 79.146 351.661,79.422 352.000,79.627 352.000 C 79.832 352.000,80.000 352.236,80.000 352.525 C 80.000 352.813,80.360 353.436,80.800 353.908 C 81.240 354.380,81.600 354.926,81.600 355.121 C 81.600 355.316,81.960 355.802,82.400 356.200 C 82.840 356.598,83.200 357.094,83.200 357.302 C 83.200 357.509,83.740 358.183,84.400 358.800 C 85.060 359.417,85.600 360.081,85.600 360.276 C 85.600 360.472,86.320 361.428,87.200 362.400 C 88.080 363.372,88.800 364.328,88.800 364.524 C 88.800 364.719,89.340 365.383,90.000 366.000 C 90.660 366.617,91.200 367.337,91.200 367.600 C 91.200 367.863,91.715 368.560,92.344 369.148 C 92.973 369.735,93.610 370.601,93.759 371.071 C 93.908 371.542,95.059 372.889,96.315 374.065 C 97.572 375.242,98.929 376.714,99.332 377.336 C 100.414 379.012,108.754 387.200,109.378 387.200 C 109.673 387.200,110.013 387.456,110.133 387.769 C 110.387 388.433,114.566 391.600,115.187 391.600 C 115.418 391.600,116.172 392.140,116.863 392.800 C 117.554 393.460,118.362 394.000,118.659 394.000 C 118.957 394.000,119.200 394.180,119.200 394.400 C 119.200 394.620,119.560 394.800,120.000 394.800 C 120.440 394.800,120.800 394.980,120.800 395.200 C 120.800 395.420,121.160 395.600,121.600 395.600 C 122.040 395.600,122.400 395.780,122.400 396.000 C 122.400 396.220,122.760 396.400,123.200 396.400 C 123.640 396.400,124.000 396.580,124.000 396.800 C 124.000 397.020,124.360 397.200,124.800 397.200 C 125.240 397.200,125.600 397.380,125.600 397.600 C 125.600 397.820,125.962 398.000,126.405 398.000 C 126.848 398.000,127.523 398.159,127.905 398.353 C 130.715 399.783,130.883 399.800,141.841 399.800 C 150.043 399.800,152.885 399.676,153.260 399.300 C 153.535 399.025,154.253 398.800,154.856 398.800 C 155.459 398.800,156.064 398.620,156.200 398.400 C 156.336 398.180,156.977 398.000,157.624 398.000 C 158.271 398.000,158.800 397.820,158.800 397.600 C 158.800 397.380,159.340 397.200,160.000 397.200 C 160.660 397.200,161.200 397.020,161.200 396.800 C 161.200 396.580,161.740 396.400,162.400 396.400 C 163.060 396.400,163.600 396.220,163.600 396.000 C 163.600 395.780,164.140 395.600,164.800 395.600 C 165.460 395.600,166.000 395.420,166.000 395.200 C 166.000 394.980,166.349 394.800,166.776 394.800 C 167.203 394.800,167.664 394.620,167.800 394.400 C 167.936 394.180,168.487 394.000,169.024 394.000 C 169.561 394.000,170.000 393.820,170.000 393.600 C 170.000 393.380,170.540 393.200,171.200 393.200 C 171.860 393.200,172.400 393.020,172.400 392.800 C 172.400 392.580,172.850 392.400,173.400 392.400 C 173.950 392.400,174.400 392.236,174.400 392.035 C 174.400 391.834,175.165 391.544,176.100 391.390 C 177.035 391.236,177.980 390.983,178.200 390.829 C 178.420 390.675,179.950 390.137,181.600 389.633 C 183.250 389.130,184.913 388.556,185.295 388.359 C 185.677 388.162,186.341 388.000,186.771 388.000 C 187.201 388.000,187.664 387.820,187.800 387.600 C 187.936 387.380,188.667 387.200,189.424 387.200 C 190.181 387.200,190.800 387.020,190.800 386.800 C 190.800 386.580,191.599 386.400,192.576 386.400 C 193.553 386.400,194.464 386.220,194.600 386.000 C 194.736 385.780,195.726 385.600,196.800 385.600 C 197.874 385.600,198.864 385.420,199.000 385.200 C 199.336 384.656,216.000 384.656,216.000 385.200 C 216.000 385.420,216.889 385.600,217.976 385.600 C 219.063 385.600,220.064 385.780,220.200 386.000 C 220.336 386.220,221.247 386.400,222.224 386.400 C 223.201 386.400,224.000 386.580,224.000 386.800 C 224.000 387.020,224.720 387.200,225.600 387.200 C 226.480 387.200,227.200 387.380,227.200 387.600 C 227.200 387.820,227.639 388.000,228.176 388.000 C 228.713 388.000,229.264 388.180,229.400 388.400 C 229.536 388.620,230.076 388.800,230.600 388.800 C 231.124 388.800,231.664 388.980,231.800 389.200 C 231.936 389.420,232.363 389.600,232.748 389.600 C 233.134 389.600,234.201 389.963,235.120 390.407 C 236.039 390.851,237.602 391.325,238.595 391.461 C 239.588 391.597,240.400 391.864,240.400 392.054 C 240.400 392.244,240.760 392.400,241.200 392.400 C 241.640 392.400,242.000 392.580,242.000 392.800 C 242.000 393.020,242.439 393.200,242.976 393.200 C 243.513 393.200,244.064 393.380,244.200 393.600 C 244.336 393.820,244.887 394.000,245.424 394.000 C 245.961 394.000,246.400 394.180,246.400 394.400 C 246.400 394.620,246.749 394.800,247.176 394.800 C 247.603 394.800,248.064 394.980,248.200 395.200 C 248.336 395.420,248.876 395.600,249.400 395.600 C 249.924 395.600,250.464 395.780,250.600 396.000 C 250.736 396.220,251.276 396.400,251.800 396.400 C 252.324 396.400,252.864 396.580,253.000 396.800 C 253.136 397.020,253.766 397.200,254.400 397.200 C 255.034 397.200,255.664 397.380,255.800 397.600 C 255.936 397.820,256.757 398.000,257.624 398.000 C 258.491 398.000,259.200 398.180,259.200 398.400 C 259.200 398.620,259.905 398.800,260.767 398.800 C 261.637 398.800,262.405 399.015,262.495 399.284 C 262.731 399.993,283.751 400.008,284.460 399.300 C 284.735 399.025,285.464 398.800,286.080 398.800 C 286.696 398.800,287.200 398.620,287.200 398.400 C 287.200 398.180,287.740 398.000,288.400 398.000 C 289.060 398.000,289.600 397.820,289.600 397.600 C 289.600 397.380,290.050 397.200,290.600 397.200 C 291.150 397.200,291.600 397.020,291.600 396.800 C 291.600 396.580,291.960 396.400,292.400 396.400 C 292.840 396.400,293.200 396.220,293.200 396.000 C 293.200 395.780,293.560 395.600,294.000 395.600 C 294.440 395.600,294.800 395.420,294.800 395.200 C 294.800 394.980,295.160 394.800,295.600 394.800 C 296.040 394.800,296.400 394.620,296.400 394.400 C 296.400 394.180,296.760 394.000,297.200 394.000 C 297.640 394.000,298.000 393.820,298.000 393.600 C 298.000 393.380,298.320 393.200,298.712 393.200 C 299.103 393.200,299.683 392.840,300.000 392.400 C 300.317 391.960,300.854 391.600,301.192 391.600 C 301.531 391.600,302.262 391.195,302.817 390.700 C 303.373 390.205,304.631 389.181,305.613 388.423 C 306.596 387.666,307.670 386.703,308.000 386.282 C 308.330 385.862,310.670 383.401,313.200 380.813 C 315.730 378.225,318.072 375.769,318.406 375.354 C 318.739 374.939,319.639 373.790,320.406 372.800 C 321.172 371.810,321.899 370.910,322.019 370.800 C 322.140 370.690,322.671 369.970,323.200 369.200 C 323.729 368.430,324.274 367.710,324.411 367.600 C 324.548 367.490,325.007 366.780,325.430 366.022 C 325.854 365.263,326.695 364.112,327.300 363.462 C 327.905 362.813,328.400 362.078,328.400 361.829 C 328.400 361.580,328.760 361.117,329.200 360.800 C 329.640 360.483,330.000 359.946,330.000 359.608 C 330.000 359.269,330.360 358.768,330.800 358.493 C 331.240 358.218,331.600 357.791,331.600 357.544 C 331.600 357.296,331.916 356.803,332.303 356.447 C 332.689 356.091,333.260 355.305,333.570 354.700 C 333.881 354.095,334.285 353.600,334.468 353.600 C 334.650 353.600,334.800 353.375,334.800 353.100 C 334.801 352.825,335.246 352.083,335.789 351.451 C 336.333 350.819,336.884 349.964,337.016 349.551 C 337.147 349.138,337.400 348.800,337.578 348.800 C 337.757 348.800,338.127 348.260,338.400 347.600 C 338.673 346.940,339.033 346.400,339.200 346.400 C 339.367 346.400,339.727 345.860,340.000 345.200 C 340.273 344.540,340.655 344.000,340.849 344.000 C 341.042 344.000,341.200 343.653,341.200 343.229 C 341.200 342.804,341.436 342.219,341.725 341.929 C 342.013 341.638,342.507 340.815,342.822 340.100 C 343.137 339.385,343.531 338.800,343.698 338.800 C 343.864 338.800,344.000 338.522,344.000 338.183 C 344.000 337.844,344.360 337.180,344.800 336.708 C 345.240 336.236,345.600 335.613,345.600 335.325 C 345.600 335.036,345.780 334.800,346.000 334.800 C 346.220 334.800,346.400 334.440,346.400 334.000 C 346.400 333.560,346.580 333.200,346.800 333.200 C 347.020 333.200,347.200 332.964,347.200 332.675 C 347.200 332.387,347.560 331.764,348.000 331.292 C 348.440 330.820,348.800 330.156,348.800 329.817 C 348.800 329.478,348.980 329.200,349.200 329.200 C 349.420 329.200,349.600 328.840,349.600 328.400 C 349.600 327.960,349.780 327.600,350.000 327.600 C 350.220 327.600,350.400 327.240,350.400 326.800 C 350.400 326.360,350.580 326.000,350.800 326.000 C 351.020 326.000,351.200 325.640,351.200 325.200 C 351.200 324.760,351.380 324.400,351.600 324.400 C 351.820 324.400,352.000 324.040,352.000 323.600 C 352.000 323.160,352.180 322.800,352.400 322.800 C 352.620 322.800,352.800 322.451,352.800 322.024 C 352.800 321.597,352.980 321.136,353.200 321.000 C 353.420 320.864,353.600 320.403,353.600 319.976 C 353.600 319.549,353.780 319.200,354.000 319.200 C 354.220 319.200,354.400 318.840,354.400 318.400 C 354.400 317.960,354.580 317.600,354.800 317.600 C 355.020 317.600,355.200 317.240,355.200 316.800 C 355.200 316.360,355.380 316.000,355.600 316.000 C 355.820 316.000,356.000 315.640,356.000 315.200 C 356.000 314.760,356.180 314.400,356.400 314.400 C 356.620 314.400,356.800 314.164,356.800 313.875 C 356.800 313.586,357.144 312.638,357.564 311.768 C 357.985 310.898,358.455 309.514,358.609 308.693 C 358.763 307.872,359.049 307.200,359.245 307.200 C 359.440 307.200,359.600 306.750,359.600 306.200 C 359.600 305.650,359.780 305.200,360.000 305.200 C 360.220 305.200,360.400 304.851,360.400 304.424 C 360.400 303.997,360.580 303.536,360.800 303.400 C 361.020 303.264,361.200 302.713,361.200 302.176 C 361.200 301.639,361.380 301.200,361.600 301.200 C 361.820 301.200,362.000 300.660,362.000 300.000 C 362.000 299.340,362.180 298.800,362.400 298.800 C 362.620 298.800,362.800 298.260,362.800 297.600 C 362.800 296.940,362.980 296.400,363.200 296.400 C 363.420 296.400,363.600 295.590,363.600 294.600 C 363.600 293.382,363.430 292.800,363.075 292.800 C 362.787 292.800,362.164 292.440,361.692 292.000 C 361.220 291.560,360.556 291.200,360.217 291.200 C 359.878 291.200,359.599 291.065,359.599 290.900 C 359.598 290.735,358.608 290.150,357.400 289.600 C 356.192 289.050,355.202 288.465,355.201 288.300 C 355.201 288.135,354.840 288.000,354.400 288.000 C 353.960 288.000,353.600 287.850,353.600 287.668 C 353.600 287.485,353.105 287.080,352.500 286.768 C 351.895 286.455,351.051 285.885,350.625 285.500 C 350.198 285.115,349.653 284.800,349.413 284.800 C 349.173 284.800,348.717 284.440,348.400 284.000 C 348.083 283.560,347.543 283.200,347.200 283.200 C 346.857 283.200,346.317 282.840,346.000 282.400 C 345.683 281.960,345.175 281.600,344.872 281.600 C 344.569 281.600,343.844 281.104,343.260 280.499 C 342.677 279.893,341.480 278.869,340.600 278.223 C 338.549 276.718,328.400 266.561,328.400 266.014 C 328.400 265.786,328.220 265.600,328.000 265.600 C 327.780 265.600,327.600 265.370,327.600 265.088 C 327.600 264.807,327.240 264.317,326.800 264.000 C 326.360 263.683,326.000 263.193,326.000 262.912 C 326.000 262.630,325.841 262.400,325.647 262.400 C 325.452 262.400,325.188 262.085,325.058 261.700 C 324.793 260.911,324.034 259.691,323.326 258.915 C 323.066 258.629,322.738 258.036,322.599 257.598 C 322.460 257.159,322.178 256.800,321.973 256.800 C 321.768 256.800,321.600 256.440,321.600 256.000 C 321.600 255.560,321.420 255.200,321.200 255.200 C 320.980 255.200,320.800 254.840,320.800 254.400 C 320.800 253.960,320.620 253.600,320.400 253.600 C 320.180 253.600,320.000 253.240,320.000 252.800 C 320.000 252.360,319.865 251.999,319.700 251.997 C 319.341 251.993,318.400 250.056,318.400 249.320 C 318.400 249.034,318.220 248.800,318.000 248.800 C 317.780 248.800,317.600 248.440,317.600 248.000 C 317.600 247.560,317.420 247.200,317.200 247.200 C 316.980 247.200,316.800 246.750,316.800 246.200 C 316.800 245.650,316.620 245.200,316.400 245.200 C 316.180 245.200,316.000 244.660,316.000 244.000 C 316.000 243.340,315.820 242.800,315.600 242.800 C 315.380 242.800,315.200 242.361,315.200 241.824 C 315.200 241.287,315.020 240.736,314.800 240.600 C 314.580 240.464,314.400 239.823,314.400 239.176 C 314.400 238.529,314.220 238.000,314.000 238.000 C 313.780 238.000,313.600 237.381,313.600 236.624 C 313.600 235.867,313.420 235.136,313.200 235.000 C 312.980 234.864,312.800 234.144,312.800 233.400 C 312.800 232.656,312.620 231.936,312.400 231.800 C 312.180 231.664,312.000 230.764,312.000 229.800 C 312.000 228.836,311.820 227.936,311.600 227.800 C 311.380 227.664,311.200 226.213,311.200 224.576 C 311.200 222.859,311.031 221.600,310.800 221.600 C 310.543 221.600,310.400 217.667,310.400 210.600 C 310.400 203.533,310.543 199.600,310.800 199.600 C 311.022 199.600,311.200 198.541,311.200 197.224 C 311.200 195.917,311.380 194.736,311.600 194.600 C 311.820 194.464,312.000 193.564,312.000 192.600 C 312.000 191.636,312.180 190.736,312.400 190.600 C 312.620 190.464,312.800 189.733,312.800 188.976 C 312.800 188.219,312.980 187.600,313.200 187.600 C 313.420 187.600,313.600 186.970,313.600 186.200 C 313.600 185.430,313.780 184.800,314.000 184.800 C 314.220 184.800,314.400 184.260,314.400 183.600 C 314.400 182.940,314.580 182.400,314.800 182.400 C 315.020 182.400,315.200 181.860,315.200 181.200 C 315.200 180.540,315.380 180.000,315.600 180.000 C 315.820 180.000,316.000 179.640,316.000 179.200 C 316.000 178.760,316.180 178.400,316.400 178.400 C 316.620 178.400,316.800 178.128,316.800 177.795 C 316.800 177.462,316.960 176.877,317.156 176.495 C 317.352 176.113,317.935 174.900,318.451 173.800 C 318.967 172.700,319.482 171.710,319.595 171.600 C 319.708 171.490,320.025 170.995,320.300 170.500 C 320.575 170.005,321.025 169.195,321.300 168.700 C 321.575 168.205,321.890 167.710,322.000 167.600 C 322.183 167.417,322.492 166.894,323.762 164.615 C 324.191 163.847,324.490 163.436,325.500 162.231 C 325.775 161.902,326.000 161.450,326.000 161.224 C 326.000 160.999,327.125 159.653,328.500 158.232 C 329.875 156.812,332.440 154.119,334.200 152.249 C 335.960 150.378,337.548 148.836,337.729 148.823 C 337.909 148.811,338.289 148.575,338.573 148.300 C 338.856 148.025,339.609 147.332,340.244 146.759 C 340.880 146.187,341.665 145.332,341.988 144.859 C 342.312 144.387,342.780 144.000,343.029 144.000 C 343.278 144.000,344.046 143.460,344.737 142.800 C 345.428 142.140,346.237 141.600,346.535 141.600 C 346.833 141.600,347.493 141.240,348.000 140.800 C 348.507 140.360,349.062 140.000,349.233 140.000 C 349.403 140.000,349.781 139.775,350.071 139.500 C 350.362 139.225,351.275 138.496,352.100 137.880 C 353.835 136.584,353.873 136.444,352.800 135.292 C 352.360 134.820,352.000 134.244,352.000 134.013 C 352.000 133.782,351.460 133.028,350.800 132.337 C 350.140 131.646,349.600 130.878,349.600 130.629 C 349.600 130.380,349.240 129.917,348.800 129.600 C 348.360 129.283,348.000 128.881,348.000 128.706 C 348.000 128.531,346.515 126.873,344.700 125.020 C 342.885 123.167,340.950 121.136,340.400 120.507 C 339.850 119.878,338.593 118.742,337.606 117.982 C 336.619 117.222,335.332 116.105,334.745 115.500 C 334.159 114.895,333.431 114.400,333.128 114.400 C 332.825 114.400,332.317 114.040,332.000 113.600 C 331.683 113.160,331.169 112.800,330.859 112.800 C 330.548 112.800,330.003 112.485,329.647 112.100 C 328.804 111.187,326.650 110.000,325.838 110.000 C 325.487 110.000,325.200 109.820,325.200 109.600 C 325.200 109.380,324.930 109.200,324.600 109.200 C 324.270 109.200,324.000 109.020,324.000 108.800 C 324.000 108.580,323.640 108.400,323.200 108.400 C 322.760 108.400,322.400 108.220,322.400 108.000 C 322.400 107.780,322.145 107.600,321.833 107.600 C 321.522 107.600,321.207 107.465,321.133 107.300 C 320.912 106.801,317.578 105.200,316.762 105.200 C 316.343 105.200,316.000 105.020,316.000 104.800 C 316.000 104.580,315.640 104.400,315.200 104.400 C 314.760 104.400,314.400 104.220,314.400 104.000 C 314.400 103.780,313.860 103.600,313.200 103.600 C 312.540 103.600,312.000 103.420,312.000 103.200 C 312.000 102.980,311.640 102.800,311.200 102.800 C 310.760 102.800,310.400 102.620,310.400 102.400 C 310.400 102.180,309.961 102.000,309.424 102.000 C 308.887 102.000,308.336 101.820,308.200 101.600 C 308.064 101.380,307.434 101.200,306.800 101.200 C 306.166 101.200,305.536 101.020,305.400 100.800 C 305.264 100.580,304.623 100.400,303.976 100.400 C 303.329 100.400,302.800 100.220,302.800 100.000 C 302.800 99.780,302.271 99.600,301.624 99.600 C 300.977 99.600,300.336 99.420,300.200 99.200 C 300.064 98.980,299.254 98.800,298.400 98.800 C 297.546 98.800,296.736 98.620,296.600 98.400 C 296.464 98.180,295.463 98.000,294.376 98.000 C 293.289 98.000,292.400 97.820,292.400 97.600 C 292.400 97.380,291.626 97.200,290.680 97.200 C 289.734 97.200,288.789 97.033,288.580 96.828 C 287.811 96.076,267.831 95.307,266.800 95.990 " stroke="none" fill="#040404" fill-rule="evenodd"></path><path id="path1" d="" stroke="none" fill="#080404" fill-rule="evenodd"></path><path id="path2" d="" stroke="none" fill="#080404" fill-rule="evenodd"></path><path id="path3" d="" stroke="none" fill="#080404" fill-rule="evenodd"></path><path id="path4" d="" stroke="none" fill="#080404" fill-rule="evenodd"></path><path id="path5" d="" stroke="none" fill="#080404" fill-rule="evenodd"></path><path id="path6" d="" stroke="none" fill="#080404" fill-rule="evenodd"></path><path id="path7" d="" stroke="none" fill="#080404" fill-rule="evenodd"></path></g></svg>
