<svg id="svg" version="1.1" xmlns="http://www.w3.org/2000/svg" xmlns:xlink="http://www.w3.org/1999/xlink"  viewBox="0 -10 512 512"><g id="svgg"><path id="path0" d="M18.100 0.288 C 17.385 0.378,16.800 0.619,16.800 0.825 C 16.800 1.031,16.457 1.200,16.038 1.200 C 15.131 1.200,12.000 2.808,12.000 3.274 C 12.000 3.453,11.732 3.600,11.403 3.600 C 11.075 3.600,10.582 3.960,10.307 4.400 C 10.032 4.840,9.597 5.200,9.340 5.200 C 8.695 5.200,5.200 8.651,5.200 9.289 C 5.200 9.574,4.840 10.032,4.400 10.307 C 3.960 10.582,3.600 11.075,3.600 11.403 C 3.600 11.732,3.453 12.000,3.274 12.000 C 2.817 12.000,1.200 15.122,1.200 16.004 C 1.200 16.405,0.975 16.808,0.700 16.900 C -0.036 17.145,-0.036 382.855,0.700 383.100 C 0.975 383.192,1.200 383.576,1.200 383.954 C 1.200 384.821,2.102 386.793,2.500 386.797 C 2.665 386.799,2.800 387.070,2.800 387.400 C 2.800 387.730,2.980 388.000,3.200 388.000 C 3.420 388.000,3.600 388.320,3.600 388.712 C 3.600 389.103,3.960 389.683,4.400 390.000 C 4.840 390.317,5.200 390.722,5.200 390.899 C 5.200 391.429,8.737 394.800,9.293 394.800 C 9.576 394.800,10.032 395.160,10.307 395.600 C 10.582 396.040,11.075 396.400,11.403 396.400 C 11.732 396.400,12.000 396.547,12.000 396.726 C 12.000 397.183,15.122 398.800,16.004 398.800 C 16.405 398.800,16.808 399.025,16.900 399.300 C 17.145 400.036,382.855 400.036,383.100 399.300 C 383.192 399.025,383.595 398.800,383.996 398.800 C 384.878 398.800,388.000 397.183,388.000 396.726 C 388.000 396.547,388.320 396.400,388.712 396.400 C 389.103 396.400,389.683 396.040,390.000 395.600 C 390.317 395.160,390.722 394.800,390.899 394.800 C 391.319 394.800,394.800 391.319,394.800 390.899 C 394.800 390.722,395.160 390.317,395.600 390.000 C 396.040 389.683,396.400 389.103,396.400 388.712 C 396.400 388.320,396.547 388.000,396.726 388.000 C 397.183 388.000,398.800 384.878,398.800 383.996 C 398.800 383.595,399.025 383.192,399.300 383.100 C 399.699 382.967,399.800 345.991,399.800 200.000 C 399.800 54.009,399.699 17.033,399.300 16.900 C 399.025 16.808,398.800 16.405,398.800 16.004 C 398.800 15.122,397.183 12.000,396.726 12.000 C 396.547 12.000,396.400 11.732,396.400 11.403 C 396.400 11.075,396.040 10.582,395.600 10.307 C 395.160 10.032,394.800 9.576,394.800 9.293 C 394.800 8.737,391.429 5.200,390.899 5.200 C 390.722 5.200,390.317 4.840,390.000 4.400 C 389.683 3.960,389.103 3.600,388.712 3.600 C 388.320 3.600,388.000 3.453,388.000 3.274 C 388.000 2.817,384.878 1.200,383.996 1.200 C 383.595 1.200,383.192 0.975,383.100 0.700 C 382.941 0.224,21.866 -0.183,18.100 0.288 M378.614 18.606 C 380.034 19.484,380.869 20.394,381.682 21.952 L 382.800 24.091 382.796 200.146 L 382.792 376.200 381.591 378.295 C 380.706 379.837,379.837 380.706,378.295 381.591 L 376.200 382.792 200.146 382.796 L 24.091 382.800 21.952 381.682 C 20.394 380.869,19.484 380.034,18.606 378.614 L 17.400 376.663 17.400 200.000 L 17.400 23.337 18.606 21.386 C 19.485 19.965,20.394 19.131,21.954 18.316 L 24.096 17.197 200.380 17.299 L 376.663 17.400 378.614 18.606 M109.944 70.549 C 108.248 71.162,106.745 72.562,105.608 74.586 C 104.802 76.020,104.800 76.371,104.800 200.000 L 104.800 323.976 105.629 325.488 C 106.839 327.694,108.576 329.078,111.027 329.791 C 112.962 330.353,119.830 330.403,176.494 330.263 C 239.105 330.108,241.530 330.058,247.400 328.788 C 248.500 328.550,249.987 328.256,250.704 328.134 C 251.421 328.012,252.106 327.751,252.227 327.556 C 252.348 327.360,252.876 327.200,253.400 327.200 C 253.924 327.200,254.464 327.020,254.600 326.800 C 254.736 326.580,255.109 326.400,255.428 326.400 C 260.685 326.400,276.227 315.090,282.675 306.571 C 286.171 301.954,288.593 297.787,290.681 292.800 C 291.003 292.030,291.432 291.087,291.634 290.705 C 291.835 290.323,292.000 289.659,292.000 289.229 C 292.000 288.799,292.159 288.349,292.354 288.229 C 292.549 288.108,292.807 287.513,292.929 286.905 C 293.051 286.297,293.353 284.990,293.601 284.000 C 294.829 279.087,294.961 276.891,294.980 261.000 C 294.994 249.683,294.850 243.856,294.516 242.200 C 294.250 240.880,293.870 238.990,293.672 238.000 C 291.430 226.801,281.930 211.918,272.600 204.988 C 271.720 204.335,270.762 203.575,270.472 203.300 C 270.181 203.025,269.146 202.333,268.172 201.762 C 265.929 200.448,265.941 199.691,268.226 198.247 C 280.081 190.757,291.040 175.146,293.672 162.000 C 293.870 161.010,294.250 159.120,294.516 157.800 C 294.850 156.144,294.994 150.317,294.980 139.000 C 294.961 123.109,294.829 120.913,293.601 116.000 C 293.353 115.010,293.051 113.703,292.929 113.095 C 292.807 112.487,292.549 111.892,292.354 111.771 C 292.159 111.651,292.000 111.201,292.000 110.771 C 292.000 110.341,291.835 109.677,291.634 109.295 C 291.432 108.913,290.982 107.925,290.634 107.100 C 289.233 103.784,288.572 102.473,286.856 99.600 C 280.835 89.526,272.183 81.480,261.800 76.301 C 257.154 73.984,256.296 73.600,255.757 73.600 C 255.445 73.600,254.877 73.442,254.495 73.249 C 253.639 72.817,251.280 72.141,245.800 70.758 C 242.781 69.996,112.029 69.795,109.944 70.549 M243.086 87.561 C 245.239 87.979,247.810 88.622,248.800 88.990 C 251.066 89.831,256.134 92.124,256.400 92.429 C 256.510 92.555,256.870 92.758,257.200 92.881 C 261.785 94.579,271.117 104.871,274.353 111.800 C 274.867 112.900,275.448 114.113,275.644 114.495 C 275.840 114.877,276.000 115.541,276.000 115.971 C 276.000 116.401,276.156 116.849,276.346 116.967 C 276.536 117.084,276.800 117.770,276.932 118.490 C 277.064 119.211,277.449 121.060,277.786 122.600 C 278.676 126.659,278.676 151.741,277.786 155.800 C 277.449 157.340,277.064 159.189,276.932 159.910 C 276.800 160.630,276.536 161.316,276.346 161.433 C 276.156 161.551,276.000 161.934,276.000 162.284 C 276.000 162.634,275.192 164.582,274.204 166.612 C 269.769 175.730,263.248 182.382,254.400 186.811 C 249.239 189.395,248.706 189.577,242.400 190.912 C 240.785 191.253,224.460 191.380,181.000 191.389 L 121.800 191.400 121.699 139.100 L 121.597 86.800 180.384 86.800 C 236.525 86.800,239.348 86.834,243.086 87.561 M240.976 208.837 C 243.345 209.264,245.174 209.699,248.000 210.509 C 256.153 212.847,265.191 219.460,270.432 226.924 C 272.500 229.867,276.000 236.674,276.000 237.750 C 276.000 238.081,276.160 238.452,276.356 238.573 C 276.551 238.694,276.804 239.379,276.916 240.096 C 277.029 240.813,277.408 242.660,277.760 244.200 C 278.537 247.599,278.700 273.259,277.968 276.869 C 275.731 287.901,269.746 297.947,261.791 304.019 C 259.816 305.526,257.222 307.200,256.861 307.200 C 256.644 307.200,256.407 307.344,256.333 307.520 C 256.158 307.940,251.009 310.400,250.305 310.400 C 250.005 310.400,249.589 310.557,249.380 310.749 C 248.678 311.394,242.238 312.785,238.058 313.195 C 233.595 313.631,123.351 313.786,122.233 313.357 C 121.572 313.104,121.209 209.324,121.867 208.667 C 122.345 208.188,238.296 208.354,240.976 208.837 " stroke="none" fill="#047cfc" fill-rule="evenodd"></path><path id="path1" d="M22.485 18.984 C 21.095 19.751,19.646 21.226,18.990 22.541 C 18.264 23.995,18.075 377.200,18.800 377.200 C 19.020 377.200,19.200 377.435,19.200 377.722 C 19.200 378.296,21.287 380.313,22.695 381.100 C 23.406 381.498,59.683 381.600,200.338 381.600 L 377.087 381.600 378.944 379.966 C 379.965 379.067,380.800 378.077,380.800 377.766 C 380.800 377.455,380.980 377.200,381.200 377.200 C 381.845 377.200,381.745 23.849,381.100 22.695 C 380.313 21.287,378.296 19.200,377.722 19.200 C 377.435 19.200,377.200 19.020,377.200 18.800 C 377.200 18.151,23.662 18.334,22.485 18.984 M243.800 69.600 C 243.936 69.820,244.926 70.000,246.000 70.000 C 247.074 70.000,248.064 70.180,248.200 70.400 C 248.336 70.620,249.056 70.800,249.800 70.800 C 250.544 70.800,251.264 70.980,251.400 71.200 C 251.536 71.420,252.177 71.600,252.824 71.600 C 253.471 71.600,254.000 71.780,254.000 72.000 C 254.000 72.220,254.362 72.400,254.805 72.400 C 255.248 72.400,255.923 72.559,256.305 72.753 C 256.687 72.948,257.450 73.286,258.000 73.504 C 259.541 74.117,264.575 76.557,264.800 76.800 C 264.910 76.919,265.502 77.237,266.115 77.506 C 266.728 77.776,267.448 78.178,267.715 78.400 C 267.982 78.621,269.178 79.458,270.374 80.259 C 274.804 83.226,284.800 93.217,284.800 94.678 C 284.800 94.965,284.946 95.200,285.124 95.200 C 285.877 95.200,291.600 105.845,291.600 107.247 C 291.600 107.635,291.780 108.064,292.000 108.200 C 292.220 108.336,292.400 108.797,292.400 109.224 C 292.400 109.651,292.580 110.000,292.800 110.000 C 293.020 110.000,293.200 110.529,293.200 111.176 C 293.200 111.823,293.380 112.464,293.600 112.600 C 293.820 112.736,294.000 113.366,294.000 114.000 C 294.000 114.634,294.180 115.264,294.400 115.400 C 294.620 115.536,294.800 116.346,294.800 117.200 C 294.800 118.054,294.980 118.864,295.200 119.000 C 295.420 119.136,295.600 120.396,295.600 121.800 C 295.600 123.204,295.780 124.464,296.000 124.600 C 296.517 124.919,296.548 152.887,296.032 153.420 C 295.830 153.629,295.568 154.970,295.450 156.400 C 295.092 160.723,294.739 162.800,294.360 162.800 C 294.162 162.800,294.000 163.419,294.000 164.176 C 294.000 164.933,293.820 165.664,293.600 165.800 C 293.380 165.936,293.200 166.399,293.200 166.829 C 293.200 167.259,293.041 167.923,292.847 168.305 C 292.652 168.687,292.317 169.450,292.102 170.000 C 291.135 172.469,289.314 176.362,288.303 178.118 C 287.697 179.172,287.200 180.207,287.200 180.418 C 287.200 180.628,287.032 180.800,286.827 180.800 C 286.622 180.800,286.340 181.159,286.201 181.598 C 286.062 182.036,285.734 182.626,285.474 182.908 C 285.213 183.189,284.372 184.225,283.606 185.210 C 281.240 188.246,281.070 188.441,278.555 190.994 C 277.210 192.359,275.411 193.999,274.557 194.638 C 273.704 195.277,272.622 196.174,272.153 196.631 C 271.684 197.089,270.469 197.989,269.451 198.631 C 267.193 200.058,267.193 199.942,269.451 201.369 C 270.469 202.011,271.684 202.911,272.153 203.369 C 272.622 203.826,273.704 204.723,274.557 205.362 C 281.234 210.362,288.296 220.278,292.102 230.000 C 292.317 230.550,292.652 231.313,292.847 231.695 C 293.041 232.077,293.200 232.842,293.200 233.395 C 293.200 233.948,293.380 234.400,293.600 234.400 C 293.820 234.400,294.000 235.019,294.000 235.776 C 294.000 236.533,294.180 237.264,294.400 237.400 C 294.620 237.536,294.800 238.346,294.800 239.200 C 294.800 240.054,294.980 240.864,295.200 241.000 C 295.420 241.136,295.600 242.396,295.600 243.800 C 295.600 245.204,295.780 246.464,296.000 246.600 C 296.254 246.757,296.400 251.996,296.400 261.000 C 296.400 270.004,296.254 275.243,296.000 275.400 C 295.780 275.536,295.600 276.796,295.600 278.200 C 295.600 279.604,295.420 280.864,295.200 281.000 C 294.980 281.136,294.800 281.946,294.800 282.800 C 294.800 283.654,294.620 284.464,294.400 284.600 C 294.180 284.736,294.000 285.467,294.000 286.224 C 294.000 286.981,293.820 287.600,293.600 287.600 C 293.380 287.600,293.200 288.140,293.200 288.800 C 293.200 289.460,293.020 290.000,292.800 290.000 C 292.580 290.000,292.400 290.349,292.400 290.776 C 292.400 291.203,292.220 291.664,292.000 291.800 C 291.780 291.936,291.600 292.399,291.600 292.829 C 291.600 293.259,291.427 293.923,291.216 294.305 C 291.005 294.687,290.287 296.139,289.621 297.531 C 288.116 300.676,284.270 306.616,282.856 307.980 C 282.274 308.541,281.328 309.630,280.754 310.400 C 279.277 312.381,277.735 313.935,275.200 315.998 C 273.990 316.983,272.910 317.881,272.800 317.995 C 271.263 319.574,266.262 322.652,261.800 324.766 C 260.260 325.496,258.687 326.252,258.305 326.446 C 257.923 326.641,257.338 326.800,257.005 326.800 C 256.672 326.800,256.400 326.980,256.400 327.200 C 256.400 327.420,255.860 327.600,255.200 327.600 C 254.540 327.600,254.000 327.780,254.000 328.000 C 254.000 328.220,253.471 328.400,252.824 328.400 C 252.177 328.400,251.536 328.580,251.400 328.800 C 251.264 329.020,250.544 329.200,249.800 329.200 C 249.056 329.200,248.336 329.380,248.200 329.600 C 248.064 329.820,247.074 330.000,246.000 330.000 C 244.926 330.000,243.936 330.180,243.800 330.400 C 243.637 330.664,220.867 330.800,176.789 330.800 L 110.024 330.800 108.520 329.955 C 106.875 329.031,105.201 327.289,105.200 326.500 C 105.200 326.225,105.064 326.000,104.897 326.000 C 103.623 326.000,103.600 323.796,103.600 200.000 C 103.600 76.204,103.623 74.000,104.897 74.000 C 105.064 74.000,105.200 73.775,105.200 73.500 C 105.201 72.770,106.790 71.087,108.400 70.113 L 109.800 69.266 176.676 69.233 C 220.865 69.211,243.637 69.336,243.800 69.600 M122.400 139.199 L 122.400 190.405 182.300 190.256 C 239.293 190.114,246.000 189.998,246.000 189.160 C 246.000 188.962,246.540 188.800,247.200 188.800 C 247.860 188.800,248.400 188.620,248.400 188.400 C 248.400 188.180,248.709 188.000,249.086 188.000 C 249.908 188.000,256.543 184.824,256.733 184.340 C 256.807 184.153,257.055 184.000,257.284 184.000 C 258.702 184.000,266.766 176.683,269.188 173.200 C 269.723 172.430,270.260 171.710,270.381 171.600 C 270.775 171.241,271.964 169.057,273.431 166.000 C 274.223 164.350,275.035 162.687,275.235 162.305 C 275.436 161.923,275.600 161.259,275.600 160.829 C 275.600 160.399,275.780 159.936,276.000 159.800 C 276.220 159.664,276.400 158.948,276.400 158.210 C 276.400 157.471,276.625 156.792,276.900 156.700 C 277.290 156.570,277.400 152.711,277.400 139.200 C 277.400 125.689,277.290 121.830,276.900 121.700 C 276.625 121.608,276.400 120.929,276.400 120.190 C 276.400 119.452,276.220 118.736,276.000 118.600 C 275.780 118.464,275.600 118.001,275.600 117.571 C 275.600 117.141,275.438 116.477,275.241 116.095 C 275.043 115.713,274.109 113.780,273.166 111.800 C 272.222 109.820,271.304 108.140,271.125 108.067 C 270.946 107.993,270.800 107.758,270.800 107.543 C 270.800 106.950,268.515 104.129,265.400 100.877 C 263.860 99.269,262.540 97.784,262.467 97.577 C 262.393 97.370,262.105 97.200,261.826 97.200 C 261.547 97.200,260.785 96.705,260.133 96.100 C 258.814 94.876,256.967 93.667,255.900 93.329 C 255.515 93.207,255.200 92.948,255.200 92.753 C 255.200 92.559,254.855 92.400,254.433 92.400 C 254.012 92.400,253.607 92.265,253.533 92.100 C 253.313 91.604,249.385 90.225,243.800 88.682 C 242.674 88.370,224.445 88.203,182.300 88.116 L 122.400 87.992 122.400 139.199 M122.400 261.000 L 122.400 312.400 180.100 312.378 C 224.944 312.361,238.513 312.242,241.000 311.845 C 244.732 311.248,249.741 309.933,249.933 309.500 C 250.007 309.335,250.502 309.200,251.033 309.200 C 251.565 309.200,252.000 309.020,252.000 308.800 C 252.000 308.580,252.360 308.400,252.800 308.400 C 253.240 308.400,253.600 308.220,253.600 308.000 C 253.600 307.780,253.960 307.600,254.400 307.600 C 254.840 307.600,255.200 307.441,255.200 307.247 C 255.200 307.052,255.515 306.793,255.900 306.671 C 258.985 305.693,270.764 294.485,270.793 292.500 C 270.797 292.225,270.980 292.000,271.200 292.000 C 271.420 292.000,271.604 291.775,271.609 291.500 C 271.614 291.225,271.970 290.550,272.400 290.000 C 272.830 289.450,273.186 288.685,273.191 288.300 C 273.196 287.915,273.380 287.600,273.600 287.600 C 273.820 287.600,274.000 287.328,274.000 286.995 C 274.000 286.662,274.180 286.032,274.400 285.595 C 274.620 285.158,274.980 284.442,275.200 284.005 C 275.420 283.568,275.600 282.859,275.600 282.429 C 275.600 281.999,275.780 281.536,276.000 281.400 C 276.220 281.264,276.400 280.659,276.400 280.056 C 276.400 279.453,276.625 278.735,276.900 278.460 C 277.285 278.075,277.400 273.977,277.400 260.713 C 277.400 247.272,277.290 243.430,276.900 243.300 C 276.625 243.208,276.400 242.529,276.400 241.790 C 276.400 241.052,276.220 240.336,276.000 240.200 C 275.780 240.064,275.600 239.601,275.600 239.171 C 275.600 238.741,275.443 238.077,275.250 237.695 C 273.752 234.720,273.200 233.447,273.200 232.962 C 273.200 232.653,273.041 232.400,272.847 232.400 C 272.652 232.400,272.393 232.085,272.271 231.700 C 272.042 230.977,270.768 228.753,270.381 228.400 C 270.260 228.290,269.730 227.570,269.202 226.800 C 267.972 225.004,262.621 219.647,260.800 218.389 C 260.030 217.857,259.051 217.102,258.625 216.711 C 258.198 216.320,257.628 216.000,257.358 216.000 C 257.088 216.000,256.807 215.863,256.733 215.696 C 256.522 215.214,249.875 211.993,249.100 211.997 C 248.715 211.999,248.400 211.820,248.400 211.600 C 248.400 211.380,247.860 211.200,247.200 211.200 C 246.540 211.200,246.000 211.020,246.000 210.800 C 246.000 210.580,245.291 210.400,244.424 210.400 C 243.557 210.400,242.736 210.220,242.600 210.000 C 242.437 209.736,221.929 209.600,182.376 209.600 L 122.400 209.600 122.400 261.000 " stroke="none" fill="#cce4fc" fill-rule="evenodd"></path><path id="path2" d="M112.900 17.500 C 160.805 17.556,239.195 17.556,287.100 17.500 C 335.005 17.444,295.810 17.398,200.000 17.398 C 104.190 17.398,64.995 17.444,112.900 17.500 M382.598 200.000 C 382.598 296.030,382.644 335.315,382.700 287.300 C 382.756 239.285,382.756 160.715,382.700 112.700 C 382.644 64.685,382.598 103.970,382.598 200.000 M17.398 200.000 C 17.398 295.590,17.444 334.695,17.500 286.900 C 17.556 239.105,17.556 160.895,17.500 113.100 C 17.444 65.305,17.398 104.410,17.398 200.000 M104.197 200.000 C 104.197 267.430,104.244 295.015,104.300 261.300 C 104.356 227.585,104.356 172.415,104.300 138.700 C 104.244 104.985,104.197 132.570,104.197 200.000 M237.700 87.476 C 238.085 87.576,238.715 87.576,239.100 87.476 C 239.485 87.375,239.170 87.293,238.400 87.293 C 237.630 87.293,237.315 87.375,237.700 87.476 M265.000 99.600 C 265.859 100.480,266.652 101.200,266.762 101.200 C 266.872 101.200,266.259 100.480,265.400 99.600 C 264.541 98.720,263.748 98.000,263.638 98.000 C 263.528 98.000,264.141 98.720,265.000 99.600 M295.776 138.800 C 295.776 145.070,295.832 147.635,295.899 144.500 C 295.967 141.365,295.967 136.235,295.899 133.100 C 295.832 129.965,295.776 132.530,295.776 138.800 M295.293 154.800 C 295.293 155.570,295.375 155.885,295.476 155.500 C 295.576 155.115,295.576 154.485,295.476 154.100 C 295.375 153.715,295.293 154.030,295.293 154.800 M295.293 245.200 C 295.293 245.970,295.375 246.285,295.476 245.900 C 295.576 245.515,295.576 244.885,295.476 244.500 C 295.375 244.115,295.293 244.430,295.293 245.200 M295.776 261.200 C 295.776 267.470,295.832 270.035,295.899 266.900 C 295.967 263.765,295.967 258.635,295.899 255.500 C 295.832 252.365,295.776 254.930,295.776 261.200 M265.200 300.200 C 264.228 301.190,263.523 302.000,263.633 302.000 C 263.743 302.000,264.628 301.190,265.600 300.200 C 266.572 299.210,267.277 298.400,267.167 298.400 C 267.057 298.400,266.172 299.210,265.200 300.200 M150.700 313.100 C 166.375 313.158,192.025 313.158,207.700 313.100 C 223.375 313.042,210.550 312.995,179.200 312.995 C 147.850 312.995,135.025 313.042,150.700 313.100 M143.700 330.700 C 161.025 330.758,189.375 330.758,206.700 330.700 C 224.025 330.642,209.850 330.595,175.200 330.595 C 140.550 330.595,126.375 330.642,143.700 330.700 M112.700 382.700 C 160.715 382.756,239.285 382.756,287.300 382.700 C 335.315 382.644,296.030 382.598,200.000 382.598 C 103.970 382.598,64.685 382.644,112.700 382.700 " stroke="none" fill="#81bdfc" fill-rule="evenodd"></path><path id="path3" d="M112.500 17.900 C 160.625 17.956,239.375 17.956,287.500 17.900 C 335.625 17.844,296.250 17.798,200.000 17.798 C 103.750 17.798,64.375 17.844,112.500 17.900 M17.798 200.000 C 17.798 296.250,17.844 335.625,17.900 287.500 C 17.956 239.375,17.956 160.625,17.900 112.500 C 17.844 64.375,17.798 103.750,17.798 200.000 M238.500 69.476 C 238.885 69.576,239.515 69.576,239.900 69.476 C 240.285 69.375,239.970 69.293,239.200 69.293 C 238.430 69.293,238.115 69.375,238.500 69.476 M150.700 87.500 C 166.375 87.558,192.025 87.558,207.700 87.500 C 223.375 87.442,210.550 87.395,179.200 87.395 C 147.850 87.395,135.025 87.442,150.700 87.500 M265.200 221.800 C 265.946 222.570,266.647 223.200,266.757 223.200 C 266.867 223.200,266.346 222.570,265.600 221.800 C 264.854 221.030,264.153 220.400,264.043 220.400 C 263.933 220.400,264.454 221.030,265.200 221.800 M150.900 312.700 C 166.685 312.758,192.515 312.758,208.300 312.700 C 224.085 312.642,211.170 312.595,179.600 312.595 C 148.030 312.595,135.115 312.642,150.900 312.700 " stroke="none" fill="#94ccfc" fill-rule="evenodd"></path><path id="path4" d="M382.198 200.000 C 382.198 295.810,382.244 335.005,382.300 287.100 C 382.356 239.195,382.356 160.805,382.300 112.900 C 382.244 64.995,382.198 104.190,382.198 200.000 M103.797 200.000 C 103.797 267.650,103.844 295.325,103.900 261.500 C 103.956 227.675,103.956 172.325,103.900 138.500 C 103.844 104.675,103.797 132.350,103.797 200.000 M122.198 139.400 L 122.200 191.000 179.200 191.002 L 236.200 191.004 179.302 190.901 L 122.403 190.797 122.299 139.299 L 122.195 87.800 122.198 139.400 M296.178 139.200 C 296.178 146.130,296.233 148.965,296.299 145.500 C 296.366 142.035,296.366 136.365,296.299 132.900 C 296.233 129.435,296.178 132.270,296.178 139.200 M277.429 152.229 C 277.281 152.815,277.238 153.372,277.332 153.466 C 277.427 153.560,277.624 153.158,277.771 152.571 C 277.919 151.985,277.962 151.428,277.868 151.334 C 277.773 151.240,277.576 151.642,277.429 152.229 M277.785 191.300 L 275.800 193.400 277.900 191.415 C 279.851 189.571,280.183 189.200,279.885 189.200 C 279.822 189.200,278.877 190.145,277.785 191.300 M237.105 190.683 C 237.602 190.779,238.322 190.775,238.705 190.675 C 239.087 190.575,238.680 190.496,237.800 190.501 C 236.920 190.505,236.607 190.587,237.105 190.683 M277.600 208.600 C 278.346 209.370,279.047 210.000,279.157 210.000 C 279.267 210.000,278.746 209.370,278.000 208.600 C 277.254 207.830,276.553 207.200,276.443 207.200 C 276.333 207.200,276.854 207.830,277.600 208.600 M122.185 209.300 C 122.080 209.575,122.041 232.930,122.099 261.200 L 122.203 312.600 122.302 260.890 L 122.400 209.179 180.700 209.290 C 212.765 209.350,238.190 209.278,237.200 209.130 C 233.603 208.589,122.392 208.754,122.185 209.300 M267.429 224.438 C 268.073 225.229,268.681 225.808,268.779 225.725 C 268.878 225.642,268.351 224.995,267.609 224.287 L 266.258 223.000 267.429 224.438 M277.256 246.800 C 277.256 247.130,277.411 247.760,277.600 248.200 C 277.817 248.704,277.944 248.778,277.944 248.400 C 277.944 248.070,277.789 247.440,277.600 247.000 C 277.383 246.496,277.256 246.422,277.256 246.800 M296.178 260.800 C 296.178 267.730,296.233 270.565,296.299 267.100 C 296.366 263.635,296.366 257.965,296.299 254.500 C 296.233 251.035,296.178 253.870,296.178 260.800 M264.778 300.300 L 263.400 301.800 264.900 300.422 C 266.296 299.138,266.584 298.800,266.278 298.800 C 266.212 298.800,265.537 299.475,264.778 300.300 M112.900 382.300 C 160.805 382.356,239.195 382.356,287.100 382.300 C 335.005 382.244,295.810 382.198,200.000 382.198 C 104.190 382.198,64.995 382.244,112.900 382.300 " stroke="none" fill="#b2d4fc" fill-rule="evenodd"></path><path id="path5" d="M21.952 18.318 C 19.403 19.649,17.617 22.204,17.378 24.860 L 17.222 26.600 17.585 24.931 C 18.486 20.786,20.899 18.483,25.400 17.472 C 26.014 17.335,25.955 17.282,25.146 17.246 C 24.566 17.221,23.129 17.703,21.952 18.318 M374.033 17.347 C 374.125 17.428,374.920 17.604,375.800 17.738 C 376.915 17.907,377.158 17.871,376.600 17.619 C 375.832 17.271,373.690 17.044,374.033 17.347 M378.684 18.977 C 379.390 19.558,380.443 20.610,381.024 21.316 C 381.606 22.022,381.943 22.330,381.775 22.000 C 380.993 20.469,379.966 19.339,378.738 18.661 L 377.400 17.922 378.684 18.977 M382.068 23.200 C 382.088 24.239,382.718 25.946,382.732 25.000 C 382.738 24.560,382.589 23.840,382.400 23.400 C 382.189 22.910,382.061 22.832,382.068 23.200 M110.538 69.906 C 110.284 70.068,140.064 70.200,176.716 70.200 C 213.368 70.200,242.826 70.086,242.178 69.947 C 240.511 69.590,111.099 69.549,110.538 69.906 M245.200 70.800 C 245.750 70.976,246.650 71.120,247.200 71.120 L 248.200 71.120 247.200 70.800 C 246.650 70.624,245.750 70.480,245.200 70.480 L 244.200 70.480 245.200 70.800 M106.928 72.102 C 105.532 73.652,105.405 74.265,106.768 72.868 C 107.484 72.135,107.994 71.461,107.903 71.369 C 107.811 71.278,107.373 71.607,106.928 72.102 M249.200 71.600 C 249.530 71.813,250.160 71.978,250.600 71.966 L 251.400 71.944 250.600 71.600 C 249.404 71.086,248.405 71.086,249.200 71.600 M252.000 72.400 C 252.330 72.613,252.870 72.788,253.200 72.788 C 253.733 72.788,253.733 72.745,253.200 72.400 C 252.870 72.187,252.330 72.012,252.000 72.012 C 251.467 72.012,251.467 72.055,252.000 72.400 M254.600 73.200 C 254.736 73.420,255.242 73.587,255.724 73.572 C 256.569 73.545,256.571 73.531,255.800 73.200 C 254.699 72.727,254.308 72.727,254.600 73.200 M262.000 76.141 C 262.000 76.408,265.690 78.443,265.863 78.271 C 265.940 78.193,265.103 77.639,264.002 77.040 C 262.901 76.440,262.000 76.036,262.000 76.141 M104.597 200.000 C 104.597 268.090,104.644 295.945,104.700 261.900 C 104.756 227.855,104.756 172.145,104.700 138.100 C 104.644 104.055,104.597 131.910,104.597 200.000 M266.400 78.501 C 266.400 78.607,267.112 79.165,267.982 79.741 C 268.853 80.317,271.058 81.985,272.882 83.449 C 274.707 84.912,275.767 85.638,275.237 85.062 C 273.719 83.411,266.400 77.976,266.400 78.501 M121.699 139.100 L 121.800 191.400 180.662 191.501 C 213.035 191.557,239.890 191.467,240.338 191.301 C 240.786 191.136,214.343 191.048,181.576 191.106 L 122.000 191.213 122.000 139.196 L 122.000 87.180 182.260 87.290 C 215.403 87.350,241.818 87.275,240.960 87.123 C 240.102 86.971,212.894 86.836,180.499 86.823 L 121.597 86.800 121.699 139.100 M244.400 88.057 C 245.170 88.292,246.596 88.735,247.568 89.041 C 248.540 89.347,249.407 89.527,249.494 89.440 C 249.707 89.226,246.142 88.109,244.400 87.843 L 243.000 87.629 244.400 88.057 M278.000 87.742 C 278.000 87.908,278.555 88.619,279.233 89.322 C 279.912 90.025,281.464 91.905,282.682 93.500 C 283.900 95.095,284.974 96.400,285.068 96.400 C 285.388 96.400,282.888 93.005,280.797 90.600 C 278.052 87.444,278.000 87.390,278.000 87.742 M250.400 89.888 C 250.730 90.012,252.215 90.720,253.700 91.462 C 255.185 92.203,256.394 92.673,256.386 92.505 C 256.371 92.156,250.808 89.566,250.200 89.625 C 249.980 89.646,250.070 89.764,250.400 89.888 M256.833 92.963 C 257.380 93.496,261.183 95.895,260.991 95.586 C 260.697 95.110,257.355 92.800,256.961 92.800 C 256.799 92.800,256.742 92.873,256.833 92.963 M264.055 98.436 C 265.516 99.846,267.577 102.080,268.637 103.400 C 270.939 106.270,271.440 106.823,270.988 106.000 C 269.675 103.608,264.710 98.204,262.200 96.436 C 261.760 96.126,262.595 97.026,264.055 98.436 M285.775 97.818 C 287.789 100.892,290.400 105.947,290.400 106.772 C 290.400 106.981,290.584 107.266,290.808 107.405 C 291.307 107.713,290.205 104.854,288.879 102.400 C 287.520 99.883,285.556 96.800,285.312 96.800 C 285.200 96.800,285.408 97.258,285.775 97.818 M273.100 110.266 C 274.145 112.282,275.073 113.859,275.162 113.770 C 275.383 113.550,272.956 108.838,271.984 107.600 C 271.552 107.050,272.054 108.250,273.100 110.266 M292.028 110.676 C 292.013 111.158,292.180 111.664,292.400 111.800 C 292.873 112.092,292.873 111.701,292.400 110.600 C 292.069 109.829,292.055 109.831,292.028 110.676 M292.806 113.033 C 292.809 113.455,292.995 114.070,293.218 114.400 C 293.515 114.838,293.552 114.676,293.356 113.800 C 293.027 112.329,292.798 112.010,292.806 113.033 M275.228 114.676 C 275.318 115.715,275.944 116.596,275.972 115.724 C 275.987 115.242,275.820 114.736,275.600 114.600 C 275.380 114.464,275.213 114.498,275.228 114.676 M293.634 116.200 C 293.622 116.640,293.787 117.270,294.000 117.600 C 294.514 118.395,294.514 117.396,294.000 116.200 L 293.656 115.400 293.634 116.200 M294.428 120.033 C 294.444 120.785,294.620 121.760,294.820 122.200 C 295.065 122.739,295.105 122.346,294.941 121.000 C 294.651 118.619,294.389 118.124,294.428 120.033 M277.062 120.600 C 277.196 121.480,277.372 122.275,277.453 122.367 C 277.756 122.710,277.529 120.568,277.181 119.800 C 276.929 119.242,276.893 119.485,277.062 120.600 M277.800 139.200 C 277.800 148.246,277.917 155.232,278.060 154.724 C 278.203 154.216,278.320 147.230,278.320 139.200 C 278.320 131.170,278.203 124.184,278.060 123.676 C 277.917 123.168,277.800 130.154,277.800 139.200 M295.381 139.000 C 295.381 147.140,295.434 150.413,295.500 146.274 C 295.565 142.134,295.565 135.474,295.499 131.474 C 295.434 127.473,295.381 130.860,295.381 139.000 M294.582 156.982 C 294.429 158.002,294.394 158.927,294.504 159.037 C 294.614 159.147,294.829 158.402,294.982 157.382 C 295.135 156.361,295.170 155.437,295.060 155.327 C 294.950 155.217,294.735 155.961,294.582 156.982 M277.249 156.600 C 277.216 157.040,277.096 157.850,276.983 158.400 L 276.777 159.400 277.206 158.419 C 277.442 157.879,277.561 157.069,277.472 156.619 C 277.313 155.821,277.307 155.821,277.249 156.600 M276.446 159.867 C 276.421 160.124,276.284 160.664,276.141 161.067 C 275.940 161.636,275.994 161.697,276.379 161.342 C 276.652 161.091,276.789 160.551,276.684 160.142 C 276.579 159.734,276.472 159.610,276.446 159.867 M293.849 160.615 C 293.712 160.973,293.616 161.656,293.636 162.133 C 293.662 162.747,293.785 162.608,294.059 161.656 C 294.457 160.272,294.294 159.458,293.849 160.615 M292.629 165.629 C 292.258 166.761,292.027 167.760,292.115 167.849 C 292.203 167.937,292.576 167.079,292.943 165.943 C 293.310 164.807,293.541 163.808,293.456 163.723 C 293.372 163.638,292.999 164.496,292.629 165.629 M274.278 165.805 C 273.912 166.572,273.695 167.200,273.796 167.200 C 274.070 167.200,275.284 164.751,275.101 164.568 C 275.014 164.481,274.644 165.038,274.278 165.805 M291.372 169.300 C 291.093 170.191,289.443 173.948,288.737 175.300 C 288.536 175.685,288.474 176.000,288.599 176.000 C 288.843 176.000,291.308 170.798,291.774 169.300 C 291.928 168.805,291.964 168.400,291.854 168.400 C 291.744 168.400,291.527 168.805,291.372 169.300 M270.527 172.317 C 267.966 176.187,263.093 181.088,259.418 183.488 C 256.185 185.601,255.266 186.360,257.000 185.487 C 261.934 183.002,273.993 170.660,272.725 169.392 C 272.639 169.305,271.650 170.622,270.527 172.317 M287.421 177.712 C 287.015 178.421,285.975 180.055,285.108 181.344 C 284.242 182.633,283.726 183.569,283.962 183.424 C 284.808 182.901,288.614 176.881,288.299 176.565 C 288.221 176.488,287.826 177.004,287.421 177.712 M282.744 184.700 C 281.475 186.232,281.019 186.942,281.481 186.665 C 281.993 186.358,283.769 184.000,283.489 184.000 C 283.398 184.000,283.063 184.315,282.744 184.700 M277.400 190.567 C 275.640 192.366,273.390 194.517,272.400 195.348 C 271.070 196.464,270.964 196.617,271.996 195.933 C 273.666 194.827,281.573 187.213,281.000 187.262 C 280.780 187.281,279.160 188.768,277.400 190.567 M246.600 189.600 L 245.800 189.944 246.600 189.966 C 247.040 189.978,247.670 189.813,248.000 189.600 C 248.795 189.086,247.796 189.086,246.600 189.600 M243.400 190.400 C 242.293 190.682,242.277 190.709,243.200 190.747 C 243.750 190.769,244.470 190.613,244.800 190.400 C 245.481 189.960,245.129 189.960,243.400 190.400 M268.307 198.126 C 266.238 199.519,265.907 200.533,267.300 201.208 C 268.112 201.602,268.132 201.589,267.500 201.078 C 266.441 200.221,266.633 199.753,268.600 198.400 C 269.590 197.719,270.400 197.080,270.400 196.981 C 270.400 196.719,270.380 196.730,268.307 198.126 M270.825 203.466 C 270.838 203.650,271.665 204.395,272.663 205.123 C 273.660 205.851,274.366 206.269,274.232 206.052 C 273.834 205.408,270.798 203.104,270.825 203.466 M274.800 206.485 C 274.800 206.808,280.098 212.035,280.261 211.872 C 280.325 211.808,279.122 210.511,277.589 208.989 C 276.055 207.467,274.800 206.340,274.800 206.485 M121.867 208.667 C 121.209 209.324,121.572 313.104,122.233 313.357 C 122.581 313.491,148.276 313.556,179.333 313.502 L 235.800 313.404 179.000 313.202 L 122.200 313.000 122.099 260.894 L 121.997 208.787 181.623 208.894 C 214.417 208.952,240.832 208.883,240.324 208.740 C 239.099 208.395,122.211 208.323,121.867 208.667 M241.633 209.344 C 241.725 209.424,242.610 209.606,243.600 209.750 C 244.858 209.933,245.219 209.891,244.800 209.612 C 244.260 209.253,241.232 208.997,241.633 209.344 M245.633 210.144 C 245.725 210.223,246.340 210.408,247.000 210.556 C 247.876 210.752,248.038 210.715,247.600 210.418 C 247.060 210.053,245.232 209.798,245.633 210.144 M249.000 211.200 C 250.101 211.673,250.492 211.673,250.200 211.200 C 250.064 210.980,249.558 210.813,249.076 210.828 C 248.231 210.855,248.229 210.869,249.000 211.200 M281.940 214.316 C 282.433 215.009,283.044 215.704,283.297 215.860 C 283.550 216.017,283.354 215.577,282.860 214.884 C 282.367 214.191,281.756 213.496,281.503 213.340 C 281.250 213.183,281.446 213.623,281.940 214.316 M256.200 214.292 C 256.420 214.503,257.959 215.601,259.620 216.733 C 263.572 219.424,267.875 223.748,270.477 227.641 C 271.626 229.360,272.637 230.696,272.724 230.609 C 273.531 229.802,264.984 220.131,260.600 216.891 C 258.365 215.240,255.300 213.429,256.200 214.292 M285.358 219.001 C 286.928 221.341,288.828 224.968,291.539 230.800 L 292.004 231.800 291.757 230.800 C 291.092 228.106,285.586 217.950,284.140 216.750 C 283.777 216.449,284.325 217.462,285.358 219.001 M293.646 238.000 C 293.627 238.550,293.787 239.270,294.000 239.600 C 294.494 240.364,294.494 239.542,294.000 238.000 L 293.680 237.000 293.646 238.000 M276.028 238.676 C 276.118 239.715,276.744 240.596,276.772 239.724 C 276.787 239.242,276.620 238.736,276.400 238.600 C 276.180 238.464,276.013 238.498,276.028 238.676 M294.487 241.800 C 294.483 242.460,294.624 243.450,294.800 244.000 L 295.120 245.000 295.113 244.000 C 295.109 243.450,294.968 242.460,294.800 241.800 L 294.495 240.600 294.487 241.800 M276.920 241.800 C 277.866 245.249,278.060 249.246,277.935 262.728 C 277.861 270.719,277.917 276.839,278.060 276.328 C 279.131 272.505,278.202 242.413,276.977 241.260 C 276.825 241.117,276.799 241.360,276.920 241.800 M295.381 261.000 C 295.381 269.140,295.434 272.413,295.500 268.274 C 295.565 264.134,295.565 257.474,295.499 253.474 C 295.434 249.473,295.381 252.860,295.381 261.000 M294.689 278.000 C 294.536 278.550,294.427 279.540,294.446 280.200 C 294.477 281.292,294.514 281.258,294.852 279.811 C 295.275 278.006,295.131 276.411,294.689 278.000 M277.260 278.467 C 277.227 279.054,277.096 279.864,276.970 280.267 C 276.752 280.960,276.765 280.961,277.195 280.290 C 277.446 279.899,277.577 279.089,277.486 278.490 L 277.320 277.400 277.260 278.467 M276.118 282.723 C 275.863 283.536,275.526 284.560,275.369 285.000 C 275.182 285.522,275.218 285.661,275.472 285.400 C 275.949 284.909,276.996 281.663,276.755 281.421 C 276.659 281.325,276.372 281.911,276.118 282.723 M293.849 282.615 C 293.712 282.973,293.616 283.656,293.636 284.133 C 293.662 284.747,293.785 284.608,294.059 283.656 C 294.457 282.272,294.294 281.458,293.849 282.615 M293.049 285.815 C 292.912 286.173,292.815 286.766,292.834 287.133 C 292.853 287.500,293.027 287.269,293.221 286.620 C 293.598 285.358,293.465 284.733,293.049 285.815 M274.255 287.455 C 273.876 288.249,273.648 288.981,273.749 289.082 C 273.849 289.183,274.241 288.614,274.618 287.818 C 274.996 287.022,275.223 286.290,275.124 286.191 C 275.025 286.091,274.633 286.660,274.255 287.455 M292.267 288.267 C 292.120 288.413,292.011 288.908,292.025 289.367 C 292.049 290.133,292.082 290.123,292.434 289.242 C 292.826 288.263,292.744 287.789,292.267 288.267 M291.345 291.100 C 291.087 291.882,290.342 293.647,289.318 295.900 C 288.624 297.428,286.977 300.347,285.775 302.182 C 285.408 302.742,285.200 303.200,285.312 303.200 C 285.945 303.200,290.901 294.036,291.616 291.545 C 291.967 290.319,291.730 289.930,291.345 291.100 M268.800 296.415 C 268.800 296.644,267.135 298.485,265.100 300.507 C 263.065 302.530,261.940 303.797,262.600 303.323 C 264.814 301.733,270.030 296.000,269.262 296.000 C 269.008 296.000,268.800 296.187,268.800 296.415 M282.648 306.700 C 281.390 308.405,280.925 309.170,281.613 308.400 C 282.946 306.909,285.341 303.600,285.086 303.600 C 285.003 303.600,283.905 304.995,282.648 306.700 M259.600 305.235 L 258.200 306.448 259.695 305.524 C 260.517 305.016,261.192 304.465,261.195 304.300 C 261.202 303.864,261.138 303.902,259.600 305.235 M252.400 309.200 C 250.970 309.848,250.020 310.383,250.288 310.389 C 250.867 310.402,255.200 308.461,255.200 308.188 C 255.200 307.925,255.278 307.896,252.400 309.200 M246.800 311.217 C 245.590 311.621,244.849 311.962,245.154 311.976 C 245.935 312.010,248.925 311.131,249.380 310.733 C 249.923 310.258,249.351 310.365,246.800 311.217 M277.383 312.560 C 276.494 313.462,274.784 315.075,273.583 316.145 C 272.278 317.309,272.043 317.606,273.000 316.885 C 275.373 315.096,279.430 311.312,279.200 311.103 C 279.090 311.002,278.272 311.658,277.383 312.560 M238.000 312.800 C 235.811 313.068,235.809 313.070,237.600 313.100 C 238.590 313.116,240.300 312.990,241.400 312.818 C 244.072 312.402,241.365 312.388,238.000 312.800 M268.600 319.782 C 267.280 320.725,264.895 322.166,263.300 322.986 C 261.705 323.806,260.400 324.544,260.400 324.625 C 260.400 325.344,270.302 319.530,270.999 318.402 C 271.353 317.830,271.264 317.881,268.600 319.782 M104.800 324.716 C 104.800 325.168,106.992 328.224,107.574 328.584 C 108.329 329.050,108.031 328.517,106.800 327.200 C 106.140 326.493,105.600 325.675,105.600 325.381 C 105.600 325.088,105.420 324.736,105.200 324.600 C 104.980 324.464,104.800 324.516,104.800 324.716 M257.600 325.624 C 256.830 326.030,255.896 326.370,255.524 326.381 C 255.152 326.391,254.724 326.599,254.574 326.843 C 254.385 327.147,254.597 327.193,255.250 326.988 C 256.937 326.458,260.219 324.865,259.600 324.876 C 259.270 324.882,258.370 325.218,257.600 325.624 M252.200 327.600 C 251.908 328.073,252.299 328.073,253.400 327.600 C 254.171 327.269,254.169 327.255,253.324 327.228 C 252.842 327.213,252.336 327.380,252.200 327.600 M249.200 328.400 C 248.405 328.914,249.404 328.914,250.600 328.400 L 251.400 328.056 250.600 328.034 C 250.160 328.022,249.530 328.187,249.200 328.400 M245.400 329.200 L 244.600 329.544 245.400 329.532 C 245.840 329.526,246.650 329.376,247.200 329.200 L 248.200 328.880 247.200 328.868 C 246.650 328.862,245.840 329.011,245.400 329.200 M110.400 330.000 C 110.730 330.213,111.360 330.378,111.800 330.366 L 112.600 330.344 111.800 330.000 C 110.604 329.486,109.605 329.486,110.400 330.000 M238.800 330.000 L 237.000 330.280 238.800 330.317 C 239.790 330.337,241.320 330.205,242.200 330.023 L 243.800 329.692 242.200 329.706 C 241.320 329.714,239.790 329.846,238.800 330.000 M17.228 374.633 C 17.244 375.275,17.416 376.160,17.610 376.600 C 17.847 377.134,17.886 376.802,17.727 375.600 C 17.446 373.480,17.188 372.980,17.228 374.633 M382.449 374.800 C 382.416 375.130,382.289 375.850,382.167 376.400 C 381.975 377.264,382.007 377.303,382.399 376.688 C 382.648 376.297,382.775 375.577,382.681 375.088 C 382.586 374.600,382.482 374.470,382.449 374.800 M18.661 378.738 C 19.339 379.966,20.469 380.993,22.000 381.775 C 22.330 381.943,22.022 381.606,21.316 381.024 C 20.610 380.443,19.558 379.390,18.977 378.684 L 17.922 377.400 18.661 378.738 M380.800 379.000 C 380.324 379.770,379.814 380.404,379.667 380.409 C 379.520 380.414,378.950 380.789,378.400 381.244 C 377.850 381.698,377.670 381.934,378.000 381.769 C 379.458 381.039,380.653 379.985,381.323 378.838 C 382.318 377.132,381.868 377.271,380.800 379.000 M23.400 382.400 C 23.840 382.589,24.560 382.738,25.000 382.732 C 25.643 382.723,25.604 382.657,24.800 382.400 C 23.432 381.962,22.381 381.962,23.400 382.400 M375.200 382.400 L 374.200 382.720 375.200 382.754 C 375.750 382.773,376.470 382.613,376.800 382.400 C 377.564 381.906,376.742 381.906,375.200 382.400 " stroke="none" fill="#5cacfc" fill-rule="evenodd"></path><path id="path6" d="M143.700 69.500 C 161.025 69.558,189.375 69.558,206.700 69.500 C 224.025 69.442,209.850 69.395,175.200 69.395 C 140.550 69.395,126.375 69.442,143.700 69.500 " stroke="none" fill="#94c4fc" fill-rule="evenodd"></path><path id="path7" d="M112.500 18.300 C 160.625 18.356,239.375 18.356,287.500 18.300 C 335.625 18.244,296.250 18.198,200.000 18.198 C 103.750 18.198,64.375 18.244,112.500 18.300 M378.400 19.325 C 378.400 19.394,378.985 19.979,379.700 20.625 L 381.000 21.800 379.825 20.500 C 378.730 19.288,378.400 19.016,378.400 19.325 M381.798 200.000 C 381.798 296.690,381.844 336.245,381.900 287.900 C 381.956 239.555,381.956 160.445,381.900 112.100 C 381.844 63.755,381.798 103.310,381.798 200.000 M18.198 200.000 C 18.198 296.250,18.244 335.625,18.300 287.500 C 18.356 239.375,18.356 160.625,18.300 112.500 C 18.244 64.375,18.198 103.750,18.198 200.000 M275.244 84.500 C 275.341 84.555,276.676 85.770,278.210 87.200 L 281.000 89.800 278.412 87.100 C 276.988 85.615,275.653 84.400,275.445 84.400 C 275.237 84.400,275.146 84.445,275.244 84.500 M151.931 87.900 C 168.284 87.958,194.924 87.958,211.131 87.900 C 227.339 87.842,213.960 87.795,181.400 87.795 C 148.840 87.795,135.579 87.842,151.931 87.900 M265.000 100.400 C 266.306 101.720,267.465 102.800,267.575 102.800 C 267.685 102.800,266.706 101.720,265.400 100.400 C 264.094 99.080,262.935 98.000,262.825 98.000 C 262.715 98.000,263.694 99.080,265.000 100.400 M295.952 125.687 C 296.137 126.798,296.193 126.855,296.319 126.054 C 296.401 125.533,296.303 124.943,296.101 124.741 C 295.879 124.519,295.821 124.893,295.952 125.687 M277.778 139.200 C 277.778 145.910,277.832 148.655,277.899 145.300 C 277.966 141.945,277.966 136.455,277.899 133.100 C 277.832 129.745,277.778 132.490,277.778 139.200 M264.778 178.300 L 263.400 179.800 264.900 178.422 C 266.296 177.138,266.584 176.800,266.278 176.800 C 266.212 176.800,265.537 177.475,264.778 178.300 M150.931 190.700 C 166.734 190.758,192.474 190.758,208.131 190.700 C 223.789 190.642,210.860 190.595,179.400 190.595 C 147.940 190.595,135.129 190.642,150.931 190.700 M275.288 206.213 C 275.886 206.843,276.447 207.277,276.535 207.179 C 276.623 207.080,276.133 206.565,275.447 206.034 L 274.200 205.069 275.288 206.213 M150.700 209.500 C 166.375 209.558,192.025 209.558,207.700 209.500 C 223.375 209.442,210.550 209.395,179.200 209.395 C 147.850 209.395,135.025 209.442,150.700 209.500 M263.238 220.500 C 263.332 220.555,264.127 221.230,265.004 222.000 L 266.600 223.400 265.222 221.900 C 264.463 221.075,263.668 220.400,263.455 220.400 C 263.241 220.400,263.144 220.445,263.238 220.500 M277.778 260.800 C 277.778 267.510,277.832 270.255,277.899 266.900 C 277.966 263.545,277.966 258.055,277.899 254.700 C 277.832 251.345,277.778 254.090,277.778 260.800 M296.054 273.667 C 296.025 274.034,295.884 274.664,295.741 275.067 C 295.541 275.633,295.595 275.696,295.975 275.346 C 296.246 275.097,296.387 274.467,296.288 273.946 C 296.190 273.426,296.084 273.300,296.054 273.667 M264.987 299.700 L 262.600 302.200 265.100 299.813 C 266.475 298.499,267.600 297.374,267.600 297.313 C 267.600 297.017,267.205 297.378,264.987 299.700 M277.888 313.062 C 276.396 314.518,275.231 315.764,275.299 315.832 C 275.441 315.974,278.536 313.095,279.970 311.487 C 281.660 309.592,280.695 310.322,277.888 313.062 M239.105 312.283 C 239.602 312.379,240.322 312.375,240.705 312.275 C 241.087 312.175,240.680 312.096,239.800 312.101 C 238.920 312.105,238.607 312.187,239.105 312.283 M19.200 378.525 C 19.200 378.594,19.785 379.179,20.500 379.825 L 21.800 381.000 20.625 379.700 C 19.530 378.488,19.200 378.216,19.200 378.525 M379.375 379.700 L 378.200 381.000 379.500 379.825 C 380.215 379.179,380.800 378.594,380.800 378.525 C 380.800 378.216,380.470 378.488,379.375 379.700 M112.100 381.900 C 160.445 381.956,239.555 381.956,287.900 381.900 C 336.245 381.844,296.690 381.798,200.000 381.798 C 103.310 381.798,63.755 381.844,112.100 381.900 " stroke="none" fill="#bedcfc" fill-rule="evenodd"></path></g></svg>
