<svg id="svg" version="1.1" xmlns="http://www.w3.org/2000/svg" xmlns:xlink="http://www.w3.org/1999/xlink"  viewBox="0 0 512 512"><g id="svgg"><path id="path0" d="M22.400 0.400 C 22.400 0.620,22.670 0.800,23.000 0.800 C 23.330 0.800,23.600 0.620,23.600 0.400 C 23.600 0.180,23.330 0.000,23.000 0.000 C 22.670 0.000,22.400 0.180,22.400 0.400 M26.500 0.293 C 25.785 0.380,25.200 0.619,25.200 0.825 C 25.200 1.031,24.840 1.200,24.400 1.200 C 23.802 1.200,23.592 1.477,23.568 2.300 C 23.551 2.905,23.446 3.175,23.335 2.900 C 23.070 2.242,21.600 2.252,21.600 2.912 C 21.600 3.193,21.960 3.683,22.400 4.000 C 23.238 4.604,23.487 5.600,22.800 5.600 C 22.580 5.600,22.400 5.330,22.400 5.000 C 22.400 4.670,22.223 4.400,22.008 4.400 C 21.792 4.400,21.502 3.950,21.364 3.400 C 21.028 2.061,19.700 2.061,19.364 3.400 C 19.226 3.950,18.953 4.400,18.757 4.400 C 18.560 4.400,18.400 4.670,18.400 5.000 C 18.400 5.330,18.220 5.600,18.000 5.600 C 17.780 5.600,17.600 5.870,17.600 6.200 C 17.600 6.619,18.022 6.800,19.000 6.800 C 19.770 6.800,20.400 6.983,20.400 7.208 C 20.400 7.443,19.977 7.509,19.400 7.364 C 18.644 7.174,18.400 7.270,18.400 7.757 C 18.400 8.110,18.228 8.400,18.018 8.400 C 17.808 8.400,17.518 9.030,17.374 9.800 C 17.153 10.978,16.944 11.201,16.055 11.205 C 13.762 11.217,11.738 12.741,13.900 12.828 C 14.497 12.852,14.482 12.905,13.800 13.190 C 13.360 13.374,12.595 13.432,12.100 13.319 C 11.056 13.080,10.789 14.268,11.800 14.655 C 12.130 14.782,12.400 15.226,12.400 15.643 C 12.400 16.741,11.730 16.572,11.436 15.400 C 11.298 14.850,11.008 14.400,10.792 14.400 C 10.577 14.400,10.400 14.130,10.400 13.800 C 10.400 13.154,10.034 13.059,9.033 13.443 C 8.229 13.751,8.203 14.800,9.000 14.800 C 9.330 14.800,9.600 14.955,9.600 15.145 C 9.600 15.334,9.174 15.408,8.653 15.308 C 7.913 15.167,7.653 15.335,7.467 16.075 C 7.110 17.499,7.576 18.734,8.541 18.923 C 9.228 19.057,9.180 19.102,8.300 19.146 C 7.613 19.180,7.200 19.425,7.200 19.800 C 7.200 20.130,7.020 20.400,6.800 20.400 C 6.580 20.400,6.400 20.670,6.400 21.000 C 6.400 21.330,6.220 21.600,6.000 21.600 C 5.280 21.600,5.581 19.790,6.400 19.200 C 6.840 18.883,7.200 18.393,7.200 18.112 C 7.200 17.283,5.677 17.527,5.400 18.400 C 5.233 18.926,4.795 19.200,4.120 19.200 C 3.155 19.200,3.107 19.294,3.309 20.800 C 3.471 22.009,3.387 22.400,2.962 22.400 C 2.629 22.400,2.400 22.808,2.400 23.400 C 2.400 23.950,2.220 24.400,2.000 24.400 C 1.780 24.400,1.600 24.220,1.600 24.000 C 1.600 23.780,1.330 23.600,1.000 23.600 C 0.670 23.600,0.400 23.870,0.400 24.200 C 0.400 24.530,0.577 24.800,0.792 24.800 C 1.008 24.800,1.295 25.240,1.430 25.777 C 1.573 26.347,2.034 26.824,2.538 26.923 C 3.251 27.062,3.215 27.100,2.329 27.146 C 1.677 27.179,1.187 27.474,1.076 27.900 C 0.902 28.567,0.891 28.567,0.846 27.900 C 0.821 27.515,0.623 27.200,0.407 27.200 C 0.151 27.200,0.011 91.971,0.004 213.600 L -0.007 400.000 199.996 400.000 L 400.000 400.000 400.000 199.997 L 400.000 -0.007 213.900 0.064 C 111.545 0.103,27.215 0.206,26.500 0.293 M29.200 1.200 C 29.200 1.701,28.776 1.701,28.000 1.200 C 27.515 0.886,27.572 0.811,28.300 0.806 C 28.795 0.803,29.200 0.980,29.200 1.200 M20.800 4.800 C 21.285 5.114,21.228 5.189,20.500 5.194 C 20.005 5.197,19.600 5.020,19.600 4.800 C 19.600 4.299,20.024 4.299,20.800 4.800 M15.600 5.800 C 15.600 6.133,15.956 6.400,16.400 6.400 C 16.844 6.400,17.200 6.133,17.200 5.800 C 17.200 5.467,16.844 5.200,16.400 5.200 C 15.956 5.200,15.600 5.467,15.600 5.800 M15.857 7.800 C 15.527 8.130,14.884 8.400,14.429 8.400 C 13.775 8.400,13.600 8.653,13.600 9.600 C 13.600 10.705,13.711 10.800,15.000 10.800 C 16.210 10.800,16.400 10.670,16.400 9.843 C 16.400 9.316,16.670 8.782,17.000 8.655 C 17.764 8.362,17.787 7.200,17.029 7.200 C 16.714 7.200,16.187 7.470,15.857 7.800 M11.600 11.000 C 11.600 11.333,11.956 11.600,12.400 11.600 C 12.844 11.600,13.200 11.333,13.200 11.000 C 13.200 10.667,12.844 10.400,12.400 10.400 C 11.956 10.400,11.600 10.667,11.600 11.000 M5.200 16.200 C 5.200 16.530,5.470 16.800,5.800 16.800 C 6.130 16.800,6.400 16.530,6.400 16.200 C 6.400 15.870,6.130 15.600,5.800 15.600 C 5.470 15.600,5.200 15.870,5.200 16.200 M1.200 21.800 C 1.200 22.130,1.470 22.400,1.800 22.400 C 2.130 22.400,2.400 22.130,2.400 21.800 C 2.400 21.470,2.130 21.200,1.800 21.200 C 1.470 21.200,1.200 21.470,1.200 21.800 M0.000 26.200 C 0.000 26.530,0.180 26.800,0.400 26.800 C 0.620 26.800,0.800 26.530,0.800 26.200 C 0.800 25.870,0.620 25.600,0.400 25.600 C 0.180 25.600,0.000 25.870,0.000 26.200 M297.000 67.072 C 300.400 67.771,302.983 68.493,303.380 68.854 C 303.589 69.044,303.981 69.200,304.252 69.200 C 306.722 69.200,315.931 75.112,320.433 79.587 C 324.832 83.959,330.800 93.223,330.800 95.677 C 330.800 95.987,330.955 96.411,331.144 96.620 C 331.449 96.957,331.903 98.720,333.224 104.706 C 333.771 107.185,333.728 292.093,333.179 294.869 C 332.175 299.954,331.387 302.796,330.179 305.681 C 328.832 308.901,326.336 313.587,325.492 314.480 C 325.221 314.766,324.513 315.653,323.917 316.451 C 322.523 318.318,318.319 322.523,316.451 323.917 C 315.653 324.513,314.664 325.304,314.252 325.674 C 311.313 328.324,302.252 331.843,294.976 333.161 C 291.856 333.726,107.258 333.787,104.706 333.224 C 98.720 331.903,96.957 331.449,96.620 331.144 C 96.411 330.955,96.019 330.800,95.748 330.800 C 94.445 330.800,86.419 326.465,84.871 324.926 C 84.581 324.637,84.162 324.400,83.941 324.400 C 83.445 324.400,75.600 316.516,75.600 316.017 C 75.600 315.819,75.363 315.419,75.074 315.129 C 73.535 313.581,69.200 305.555,69.200 304.252 C 69.200 303.981,69.044 303.589,68.854 303.380 C 68.494 302.983,67.774 300.408,67.071 297.000 C 66.794 295.659,66.658 263.612,66.656 199.800 C 66.654 103.526,66.703 99.968,68.027 98.620 C 68.232 98.411,68.400 97.837,68.400 97.344 C 68.400 96.851,68.580 96.336,68.800 96.200 C 69.020 96.064,69.200 95.695,69.200 95.379 C 69.200 94.563,70.529 91.600,70.894 91.600 C 71.062 91.600,71.200 91.301,71.200 90.935 C 71.200 89.721,75.779 83.209,79.041 79.783 C 83.096 75.525,92.807 69.200,95.291 69.200 C 95.607 69.200,95.990 69.077,96.141 68.926 C 96.671 68.396,99.423 67.601,101.600 67.348 C 102.810 67.208,104.070 66.942,104.400 66.758 C 105.297 66.256,294.537 66.565,297.000 67.072 M108.756 69.778 C 108.658 69.875,106.963 70.149,104.989 70.385 C 103.015 70.621,101.040 70.975,100.600 71.171 C 100.160 71.367,98.677 71.859,97.303 72.264 C 95.930 72.669,94.805 73.135,94.803 73.300 C 94.802 73.465,94.545 73.600,94.232 73.600 C 93.704 73.600,91.249 74.747,90.800 75.204 C 90.690 75.316,89.925 75.762,89.100 76.195 C 88.275 76.628,87.600 77.082,87.600 77.205 C 87.600 77.327,87.062 77.745,86.404 78.134 C 84.855 79.049,79.049 84.855,78.134 86.404 C 77.745 87.062,77.327 87.600,77.205 87.600 C 77.082 87.600,76.628 88.275,76.195 89.100 C 75.762 89.925,75.316 90.690,75.204 90.800 C 74.747 91.249,73.600 93.704,73.600 94.232 C 73.600 94.545,73.465 94.802,73.300 94.803 C 73.135 94.805,72.669 95.930,72.264 97.303 C 71.859 98.677,71.367 100.160,71.171 100.600 C 69.893 103.464,69.832 107.574,69.705 199.400 C 69.566 299.812,69.461 294.879,71.886 302.000 C 76.632 315.935,88.293 326.299,103.000 329.653 C 104.994 330.107,121.492 330.200,200.600 330.200 L 295.800 330.200 298.938 329.288 C 314.777 324.684,325.301 313.965,329.461 298.200 C 330.448 294.460,330.632 107.294,329.653 103.000 C 326.429 88.861,315.675 76.378,303.200 72.292 C 301.990 71.896,300.640 71.415,300.200 71.223 C 296.523 69.620,295.294 69.600,200.085 69.600 C 149.951 69.600,108.853 69.680,108.756 69.778 M218.000 121.124 C 221.223 121.546,223.612 122.092,225.400 122.814 C 225.840 122.992,226.715 123.250,227.344 123.388 C 228.416 123.622,230.302 124.380,233.600 125.904 C 241.801 129.694,250.892 139.781,252.627 147.016 C 252.783 147.667,253.043 148.380,253.205 148.600 C 253.515 149.021,253.756 150.140,254.453 154.400 C 254.995 157.712,254.721 167.839,254.072 168.488 C 253.813 168.747,253.597 169.329,253.594 169.780 C 253.561 174.517,246.393 185.563,240.600 189.804 C 239.720 190.449,238.661 191.287,238.246 191.668 C 237.831 192.049,236.976 192.473,236.346 192.612 C 235.716 192.750,235.200 192.987,235.200 193.137 C 235.200 193.479,232.198 194.800,231.421 194.800 C 231.105 194.800,230.736 194.980,230.600 195.200 C 230.464 195.420,229.834 195.600,229.200 195.600 C 228.566 195.600,227.936 195.780,227.800 196.000 C 227.651 196.241,228.188 196.400,229.153 196.400 C 230.033 196.400,230.864 196.580,231.000 196.800 C 231.136 197.020,231.680 197.200,232.210 197.200 C 233.102 197.200,235.924 197.994,237.800 198.772 C 238.240 198.955,239.410 199.436,240.400 199.841 C 241.390 200.246,242.290 200.675,242.400 200.793 C 242.510 200.911,243.275 201.362,244.100 201.795 C 244.925 202.228,245.600 202.677,245.600 202.793 C 245.600 202.910,246.101 203.226,246.712 203.497 C 250.605 205.220,256.448 212.312,259.980 219.600 C 260.140 219.930,260.586 221.280,260.972 222.600 C 261.357 223.920,261.860 225.450,262.090 226.000 C 262.694 227.447,262.964 240.495,262.454 243.600 C 261.752 247.874,261.514 248.980,261.206 249.400 C 261.045 249.620,260.795 250.430,260.651 251.200 C 260.342 252.859,256.452 260.800,255.949 260.800 C 255.757 260.800,255.600 260.988,255.600 261.217 C 255.600 261.446,255.419 261.851,255.197 262.117 C 251.961 265.993,251.474 266.502,248.400 269.225 C 247.211 270.279,240.939 274.396,240.504 274.409 C 240.337 274.414,239.120 274.950,237.800 275.600 C 236.480 276.250,235.115 276.786,234.767 276.791 C 234.418 276.796,234.010 276.923,233.859 277.074 C 233.404 277.529,230.714 278.361,228.800 278.639 C 227.810 278.783,226.820 279.038,226.600 279.205 C 226.380 279.373,225.480 279.613,224.600 279.740 C 223.720 279.866,221.740 280.147,220.200 280.364 C 218.537 280.599,202.823 280.767,181.500 280.779 L 145.600 280.800 145.600 200.867 C 145.600 156.903,145.722 120.811,145.871 120.662 C 146.337 120.196,214.239 120.631,218.000 121.124 M166.800 163.989 L 166.800 189.200 186.776 189.200 C 199.663 189.200,206.841 189.058,207.000 188.800 C 207.136 188.580,207.755 188.400,208.375 188.400 C 209.603 188.400,214.913 187.332,216.200 186.825 C 216.640 186.652,217.681 186.216,218.514 185.855 C 219.346 185.495,220.291 185.200,220.614 185.200 C 220.936 185.200,221.200 185.041,221.200 184.847 C 221.200 184.652,221.515 184.388,221.900 184.258 C 223.658 183.668,226.957 180.902,229.405 177.966 C 230.101 177.132,230.975 175.473,232.952 171.240 C 233.568 169.919,233.555 156.843,232.936 155.561 C 232.680 155.033,232.140 153.746,231.736 152.701 C 231.331 151.657,230.865 150.802,230.700 150.801 C 230.535 150.801,230.400 150.566,230.400 150.280 C 230.400 149.433,226.493 145.303,224.782 144.342 C 223.912 143.853,223.200 143.343,223.200 143.209 C 223.200 143.075,222.165 142.620,220.900 142.198 C 219.635 141.776,218.510 141.313,218.400 141.168 C 218.152 140.843,214.383 140.069,210.400 139.525 C 208.750 139.299,198.265 139.039,187.100 138.947 L 166.800 138.779 166.800 163.989 M166.697 208.891 C 166.588 209.611,166.468 221.950,166.429 236.312 L 166.358 262.424 190.879 262.270 C 214.931 262.120,218.480 261.940,221.600 260.712 C 221.930 260.582,223.323 260.144,224.697 259.738 C 226.070 259.332,227.195 258.865,227.197 258.700 C 227.198 258.535,227.393 258.400,227.630 258.400 C 230.711 258.400,238.152 250.565,239.785 245.600 C 240.184 244.390,240.710 242.968,240.955 242.439 C 241.222 241.863,241.400 238.981,241.400 235.239 C 241.400 229.093,241.139 227.337,239.748 224.140 C 239.447 223.446,239.200 222.681,239.200 222.440 C 239.200 222.198,239.064 222.000,238.898 222.000 C 238.731 222.000,238.339 221.415,238.025 220.700 C 237.446 219.379,232.773 214.400,232.112 214.400 C 231.914 214.400,231.399 214.085,230.970 213.700 C 229.857 212.703,226.036 210.843,224.492 210.547 C 223.772 210.410,223.086 210.140,222.968 209.948 C 222.850 209.757,222.343 209.600,221.843 209.600 C 221.343 209.600,220.800 209.465,220.637 209.300 C 219.590 208.239,212.633 207.882,190.147 207.734 L 166.894 207.581 166.697 208.891 " stroke="none" fill="#654295" fill-rule="evenodd"></path><path id="path1" d="M146.667 121.467 C 146.520 121.613,146.400 157.444,146.400 201.091 L 146.400 280.449 182.900 280.285 C 209.420 280.165,219.947 279.988,221.400 279.639 C 222.500 279.375,224.750 278.880,226.400 278.538 C 230.060 277.781,234.678 276.304,237.511 274.984 C 238.672 274.443,239.697 274.000,239.790 274.000 C 240.274 274.000,245.268 270.856,247.000 269.461 C 252.970 264.651,256.718 259.525,259.622 252.200 C 261.329 247.893,262.129 242.777,262.154 236.000 C 262.177 229.961,261.986 228.488,260.519 223.400 C 257.666 213.499,249.332 204.276,239.600 200.249 C 238.610 199.839,237.440 199.353,237.000 199.168 C 235.949 198.725,232.424 197.804,229.300 197.154 C 226.977 196.672,225.972 195.807,227.300 195.435 C 230.663 194.491,231.851 194.045,234.568 192.704 C 242.818 188.635,249.872 180.349,252.381 171.778 C 254.017 166.192,254.090 165.688,254.058 160.200 C 253.930 138.521,238.451 123.530,214.200 121.600 C 208.820 121.172,147.083 121.050,146.667 121.467 M212.271 138.993 C 223.499 140.980,230.758 146.435,233.306 154.800 C 237.247 167.739,232.128 180.385,220.800 185.691 C 212.906 189.389,208.234 189.934,184.100 189.972 L 166.000 190.000 166.000 164.200 L 166.000 138.400 187.500 138.407 C 204.459 138.413,209.691 138.537,212.271 138.993 M217.000 207.726 C 235.104 211.443,243.519 221.375,242.224 237.494 C 240.938 253.493,230.855 261.506,209.892 263.190 C 204.467 263.626,167.703 263.768,166.633 263.357 C 166.064 263.139,166.000 260.261,166.000 234.925 L 166.000 206.735 189.900 206.902 C 210.035 207.042,214.304 207.172,217.000 207.726 " stroke="none" fill="#fbfbfb" fill-rule="evenodd"></path><path id="path2" d="M110.000 67.200 C 109.670 67.413,108.106 67.591,106.524 67.594 C 104.942 67.597,103.549 67.759,103.429 67.953 C 103.309 68.147,102.039 68.431,100.606 68.585 C 99.173 68.738,98.000 69.029,98.000 69.232 C 98.000 69.434,97.651 69.600,97.224 69.600 C 96.797 69.600,96.346 69.764,96.222 69.965 C 96.097 70.166,95.277 70.452,94.398 70.600 C 93.519 70.749,92.798 70.989,92.795 71.135 C 92.793 71.281,92.028 71.755,91.095 72.189 C 89.521 72.921,86.459 74.728,86.000 75.196 C 85.890 75.308,84.900 76.112,83.800 76.981 C 78.314 81.319,70.400 92.081,70.400 95.205 C 70.400 95.554,70.257 96.011,70.082 96.220 C 69.081 97.415,68.032 102.229,67.559 107.800 C 66.950 114.974,67.278 295.293,67.900 295.500 C 68.199 295.600,68.400 296.376,68.400 297.433 C 68.400 298.405,68.559 299.200,68.754 299.200 C 68.949 299.200,69.232 300.190,69.383 301.400 C 69.534 302.610,69.825 303.600,70.029 303.600 C 70.233 303.600,70.400 303.960,70.400 304.400 C 70.400 304.840,70.557 305.200,70.749 305.200 C 70.941 305.200,71.213 305.920,71.354 306.800 C 71.494 307.680,71.787 308.400,72.005 308.400 C 72.222 308.400,72.400 308.670,72.400 309.000 C 72.400 309.330,72.577 309.600,72.792 309.600 C 73.008 309.600,73.298 310.050,73.436 310.600 C 73.574 311.150,73.847 311.600,74.043 311.600 C 74.240 311.600,74.400 311.879,74.400 312.219 C 74.400 312.560,74.850 313.255,75.400 313.765 C 75.950 314.275,76.400 314.819,76.400 314.974 C 76.400 315.130,76.625 315.508,76.900 315.815 C 77.769 316.783,78.346 317.385,78.881 317.881 C 79.166 318.145,79.632 318.640,79.916 318.981 C 80.488 319.668,81.200 319.804,81.200 319.227 C 81.200 319.022,80.840 318.740,80.400 318.600 C 79.960 318.460,79.600 318.063,79.600 317.716 C 79.600 317.370,79.060 316.571,78.400 315.940 C 77.740 315.309,77.200 314.567,77.200 314.291 C 77.200 314.016,76.750 313.452,76.200 313.039 C 75.650 312.626,75.200 311.953,75.200 311.544 C 75.200 311.135,75.020 310.800,74.800 310.800 C 74.580 310.800,74.400 310.530,74.400 310.200 C 74.400 309.870,74.228 309.600,74.018 309.600 C 73.808 309.600,73.518 308.970,73.374 308.200 C 73.229 307.430,72.951 306.800,72.755 306.800 C 72.560 306.800,72.400 306.530,72.400 306.200 C 72.400 305.870,72.222 305.600,72.005 305.600 C 71.787 305.600,71.494 304.880,71.354 304.000 C 71.213 303.120,70.941 302.400,70.749 302.400 C 70.557 302.400,70.400 301.785,70.400 301.033 C 70.400 300.282,70.205 299.602,69.966 299.522 C 69.704 299.435,69.444 297.452,69.308 294.489 C 69.184 291.800,68.923 289.600,68.729 289.600 C 67.937 289.600,68.769 106.126,69.577 102.600 C 69.830 101.500,70.138 100.105,70.263 99.500 C 70.388 98.895,70.650 98.400,70.845 98.400 C 71.040 98.400,71.200 98.044,71.200 97.608 C 71.200 96.739,72.382 93.519,72.819 93.200 C 72.969 93.090,73.228 92.564,73.395 92.032 C 73.696 91.068,76.288 86.781,76.800 86.400 C 76.948 86.290,77.233 85.902,77.434 85.539 C 78.169 84.211,83.760 78.671,86.205 76.848 C 87.685 75.745,91.224 73.647,92.032 73.395 C 92.564 73.228,93.090 72.981,93.200 72.846 C 93.672 72.266,95.281 71.596,96.783 71.356 C 97.672 71.214,98.400 70.961,98.400 70.794 C 98.400 70.627,98.895 70.388,99.500 70.263 C 100.105 70.138,101.500 69.830,102.600 69.578 C 106.191 68.757,290.400 67.924,290.400 68.729 C 290.400 68.926,292.418 69.182,294.885 69.299 C 297.638 69.430,299.428 69.683,299.519 69.956 C 299.600 70.200,300.282 70.400,301.033 70.400 C 301.785 70.400,302.400 70.557,302.400 70.749 C 302.400 70.941,303.120 71.213,304.000 71.354 C 304.880 71.494,305.600 71.787,305.600 72.005 C 305.600 72.222,305.960 72.400,306.400 72.400 C 306.840 72.400,307.200 72.566,307.200 72.768 C 307.200 72.971,307.740 73.255,308.400 73.400 C 309.060 73.545,309.600 73.829,309.600 74.032 C 309.600 74.234,309.960 74.400,310.400 74.400 C 310.840 74.400,311.200 74.560,311.200 74.757 C 311.200 74.953,311.638 75.223,312.173 75.358 C 312.709 75.492,313.261 75.961,313.400 76.401 C 313.540 76.840,313.937 77.200,314.284 77.200 C 314.630 77.200,315.429 77.740,316.060 78.400 C 316.691 79.060,317.409 79.600,317.657 79.600 C 317.904 79.600,318.442 79.988,318.853 80.461 C 319.264 80.935,319.600 81.123,319.600 80.880 C 319.600 80.279,315.683 76.400,315.076 76.400 C 314.809 76.400,314.252 75.950,313.839 75.400 C 313.426 74.850,312.753 74.400,312.344 74.400 C 311.935 74.400,311.600 74.220,311.600 74.000 C 311.600 73.780,311.330 73.600,311.000 73.600 C 310.670 73.600,310.400 73.423,310.400 73.208 C 310.400 72.992,309.950 72.702,309.400 72.564 C 308.850 72.426,308.400 72.153,308.400 71.957 C 308.400 71.760,308.130 71.600,307.800 71.600 C 307.470 71.600,307.200 71.440,307.200 71.245 C 307.200 71.050,306.390 70.769,305.400 70.621 C 304.410 70.472,303.600 70.182,303.600 69.975 C 303.600 69.769,303.165 69.600,302.633 69.600 C 302.102 69.600,301.607 69.425,301.533 69.211 C 301.460 68.997,300.095 68.701,298.500 68.554 C 296.905 68.406,295.600 68.131,295.600 67.943 C 295.600 67.754,294.160 67.600,292.400 67.600 C 290.533 67.600,289.200 67.433,289.200 67.200 C 289.200 66.657,110.840 66.657,110.000 67.200 M146.448 121.342 C 146.117 121.741,146.025 142.917,146.099 201.242 L 146.200 280.600 179.400 280.604 L 212.600 280.607 179.499 280.501 L 146.398 280.395 146.499 200.898 L 146.600 121.400 178.200 121.196 L 209.800 120.993 178.349 120.896 C 152.283 120.817,146.821 120.893,146.448 121.342 M212.300 121.489 C 213.015 121.578,214.185 121.578,214.900 121.489 C 215.615 121.401,215.030 121.328,213.600 121.328 C 212.170 121.328,211.585 121.401,212.300 121.489 M230.095 125.020 C 230.258 125.187,231.158 125.667,232.095 126.085 C 233.033 126.504,233.620 126.665,233.400 126.444 C 233.180 126.223,232.280 125.743,231.400 125.379 C 230.520 125.014,229.933 124.853,230.095 125.020 M176.900 138.700 C 183.005 138.762,192.995 138.762,199.100 138.700 C 205.205 138.638,200.210 138.587,188.000 138.587 C 175.790 138.587,170.795 138.638,176.900 138.700 M214.000 139.600 C 215.368 140.038,216.419 140.038,215.400 139.600 C 214.960 139.411,214.240 139.262,213.800 139.268 C 213.157 139.277,213.196 139.343,214.000 139.600 M223.000 142.607 C 223.440 142.966,224.160 143.435,224.600 143.651 L 225.400 144.044 224.600 143.393 C 224.160 143.034,223.440 142.565,223.000 142.349 L 222.200 141.956 223.000 142.607 M254.114 157.800 C 254.117 158.900,254.195 159.303,254.287 158.695 C 254.379 158.086,254.377 157.186,254.282 156.695 C 254.187 156.203,254.111 156.700,254.114 157.800 M234.101 160.200 C 234.105 161.080,234.187 161.393,234.283 160.895 C 234.379 160.398,234.375 159.678,234.275 159.295 C 234.175 158.913,234.096 159.320,234.101 160.200 M234.509 163.600 C 234.509 164.590,234.587 164.995,234.682 164.500 C 234.778 164.005,234.778 163.195,234.682 162.700 C 234.587 162.205,234.509 162.610,234.509 163.600 M254.093 163.600 C 254.093 164.370,254.175 164.685,254.276 164.300 C 254.376 163.915,254.376 163.285,254.276 162.900 C 254.175 162.515,254.093 162.830,254.093 163.600 M252.440 171.440 C 252.210 172.273,252.094 173.027,252.182 173.115 C 252.270 173.203,252.530 172.593,252.760 171.760 C 252.990 170.927,253.106 170.173,253.018 170.085 C 252.930 169.997,252.670 170.607,252.440 171.440 M227.586 180.700 L 225.400 183.000 227.700 180.814 C 228.965 179.611,230.000 178.576,230.000 178.514 C 230.000 178.217,229.618 178.563,227.586 180.700 M243.387 186.500 L 241.000 189.000 243.500 186.613 C 244.875 185.299,246.000 184.174,246.000 184.113 C 246.000 183.817,245.605 184.178,243.387 186.500 M206.100 189.476 C 206.485 189.576,207.115 189.576,207.500 189.476 C 207.885 189.375,207.570 189.293,206.800 189.293 C 206.030 189.293,205.715 189.375,206.100 189.476 M200.100 189.887 C 200.705 189.978,201.695 189.978,202.300 189.887 C 202.905 189.795,202.410 189.720,201.200 189.720 C 199.990 189.720,199.495 189.795,200.100 189.887 M227.067 195.467 C 226.648 195.886,226.755 196.800,227.224 196.800 C 227.457 196.800,227.524 196.600,227.372 196.355 C 227.221 196.111,227.346 195.753,227.649 195.561 C 227.952 195.369,228.005 195.209,227.767 195.206 C 227.528 195.203,227.213 195.320,227.067 195.467 M248.400 205.325 C 248.400 205.394,248.985 205.979,249.700 206.625 L 251.000 207.800 249.825 206.500 C 248.730 205.288,248.400 205.016,248.400 205.325 M206.500 207.087 C 207.105 207.178,208.095 207.178,208.700 207.087 C 209.305 206.995,208.810 206.920,207.600 206.920 C 206.390 206.920,205.895 206.995,206.500 207.087 M219.633 208.544 C 219.725 208.623,220.340 208.808,221.000 208.956 C 221.876 209.152,222.038 209.115,221.600 208.818 C 221.060 208.453,219.232 208.198,219.633 208.544 M241.044 226.600 C 241.373 228.071,241.602 228.390,241.594 227.367 C 241.591 226.945,241.405 226.330,241.182 226.000 C 240.885 225.562,240.848 225.724,241.044 226.600 M261.268 226.200 C 261.262 226.640,261.411 227.360,261.600 227.800 C 262.038 228.819,262.038 227.768,261.600 226.400 C 261.343 225.596,261.277 225.557,261.268 226.200 M242.137 235.000 C 242.139 236.760,242.209 237.430,242.293 236.489 C 242.378 235.549,242.377 234.109,242.291 233.289 C 242.205 232.470,242.136 233.240,242.137 235.000 M262.109 240.400 C 262.109 241.390,262.187 241.795,262.282 241.300 C 262.378 240.805,262.378 239.995,262.282 239.500 C 262.187 239.005,262.109 239.410,262.109 240.400 M260.446 249.267 C 260.421 249.634,260.296 250.264,260.170 250.667 C 259.952 251.362,259.963 251.363,260.397 250.687 C 260.648 250.296,260.773 249.666,260.673 249.287 C 260.511 248.668,260.488 248.666,260.446 249.267 M209.505 263.083 C 210.002 263.179,210.722 263.175,211.105 263.075 C 211.487 262.975,211.080 262.896,210.200 262.901 C 209.320 262.905,209.007 262.987,209.505 263.083 M176.700 263.500 C 182.255 263.562,191.345 263.562,196.900 263.500 C 202.455 263.437,197.910 263.386,186.800 263.386 C 175.690 263.386,171.145 263.437,176.700 263.500 M247.000 269.460 C 245.795 270.536,245.705 270.685,246.636 270.063 C 247.741 269.324,249.132 267.976,248.749 268.015 C 248.667 268.023,247.880 268.673,247.000 269.460 M215.300 280.276 C 215.685 280.376,216.315 280.376,216.700 280.276 C 217.085 280.175,216.770 280.093,216.000 280.093 C 215.230 280.093,214.915 280.175,215.300 280.276 " stroke="none" fill="#b4a4cd" fill-rule="evenodd"></path><path id="path3" d="M196.530 68.700 C 205.511 68.760,220.091 68.760,228.930 68.700 C 237.768 68.640,230.420 68.591,212.600 68.591 C 194.780 68.591,187.548 68.640,196.530 68.700 M245.700 68.676 C 246.085 68.776,246.715 68.776,247.100 68.676 C 247.485 68.575,247.170 68.493,246.400 68.493 C 245.630 68.493,245.315 68.575,245.700 68.676 M276.800 68.657 C 280.064 68.942,290.401 68.975,290.400 68.700 C 290.400 68.535,287.025 68.430,282.900 68.467 C 278.775 68.504,276.030 68.590,276.800 68.657 M318.078 79.422 C 317.522 80.052,318.522 81.611,319.107 81.026 C 319.256 80.878,319.117 80.596,318.800 80.400 C 318.483 80.204,318.363 79.904,318.533 79.733 C 318.930 79.337,319.649 80.442,319.414 81.086 C 319.316 81.353,320.038 82.432,321.018 83.485 C 321.998 84.537,322.800 85.609,322.800 85.866 C 322.800 86.123,322.956 86.393,323.146 86.467 C 323.501 86.603,327.384 92.514,327.246 92.707 C 327.204 92.766,327.428 93.396,327.744 94.107 C 328.060 94.818,328.632 96.390,329.014 97.600 C 329.396 98.810,329.849 100.160,330.020 100.600 C 331.355 104.037,331.389 106.542,331.395 200.200 C 331.400 294.653,331.372 296.635,329.967 299.295 C 329.765 299.677,329.601 300.307,329.602 300.695 C 329.605 301.616,328.287 305.361,327.900 305.533 C 327.735 305.607,327.600 305.849,327.600 306.073 C 327.600 306.533,326.361 309.294,326.017 309.600 C 325.893 309.710,325.438 310.475,325.005 311.300 C 324.572 312.125,324.091 312.800,323.936 312.800 C 323.781 312.800,323.538 313.164,323.397 313.609 C 323.100 314.546,315.063 322.800,314.448 322.800 C 314.222 322.800,313.586 323.250,313.036 323.800 C 312.486 324.350,311.758 324.800,311.418 324.800 C 311.078 324.800,310.800 324.980,310.800 325.200 C 310.800 325.420,310.530 325.600,310.200 325.600 C 309.870 325.600,309.600 325.772,309.600 325.982 C 309.600 326.192,308.970 326.482,308.200 326.626 C 307.430 326.771,306.800 327.049,306.800 327.245 C 306.800 327.440,306.530 327.600,306.200 327.600 C 305.870 327.600,305.600 327.780,305.600 328.000 C 305.600 328.220,305.195 328.401,304.700 328.402 C 304.205 328.404,303.284 328.674,302.654 329.002 C 302.024 329.331,301.115 329.600,300.634 329.600 C 300.153 329.600,299.569 329.791,299.335 330.025 C 299.101 330.259,296.860 330.553,294.355 330.678 C 291.850 330.804,289.589 331.074,289.330 331.277 C 288.773 331.717,111.606 331.637,111.000 331.197 C 110.780 331.037,108.463 330.806,105.850 330.684 C 103.238 330.561,100.907 330.267,100.670 330.030 C 100.434 329.794,99.837 329.600,99.344 329.600 C 98.851 329.600,98.350 329.443,98.232 329.252 C 98.114 329.060,97.429 328.786,96.711 328.642 C 95.134 328.327,93.200 327.503,93.200 327.146 C 93.200 327.003,92.747 326.773,92.193 326.634 C 91.084 326.356,86.679 323.663,86.467 323.133 C 86.393 322.950,86.107 322.800,85.830 322.800 C 85.553 322.800,84.115 321.613,82.635 320.161 C 81.155 318.710,79.827 317.640,79.684 317.783 C 79.440 318.026,80.084 318.591,81.000 318.939 C 81.220 319.022,81.291 319.209,81.157 319.355 C 80.761 319.786,79.648 319.182,79.400 318.400 C 79.273 318.001,78.881 317.563,78.528 317.428 C 77.971 317.214,77.958 317.275,78.434 317.891 C 79.889 319.779,81.399 321.098,81.889 320.910 C 82.196 320.793,82.382 320.923,82.316 321.210 C 82.164 321.878,87.522 326.031,90.367 327.451 C 91.595 328.064,92.690 328.692,92.801 328.846 C 92.911 329.000,93.678 329.253,94.505 329.409 C 95.332 329.564,96.107 329.850,96.228 330.045 C 96.349 330.240,96.872 330.400,97.390 330.400 C 97.909 330.400,98.393 330.578,98.467 330.796 C 98.540 331.014,99.725 331.310,101.100 331.453 C 102.475 331.597,103.600 331.868,103.600 332.057 C 103.600 332.246,105.004 332.400,106.720 332.400 C 108.436 332.400,110.021 332.581,110.242 332.802 C 110.798 333.358,288.121 333.048,292.800 332.483 C 298.679 331.773,301.261 331.178,303.651 329.981 C 304.009 329.801,304.954 329.532,305.751 329.383 C 306.548 329.233,307.200 328.951,307.200 328.755 C 307.200 328.560,307.470 328.400,307.800 328.400 C 308.130 328.400,308.400 328.234,308.400 328.032 C 308.400 327.829,308.940 327.545,309.600 327.400 C 310.260 327.255,310.800 327.001,310.800 326.836 C 310.800 326.670,311.295 326.285,311.900 325.980 C 316.132 323.843,323.843 316.132,325.980 311.900 C 326.285 311.295,326.670 310.800,326.836 310.800 C 327.001 310.800,327.255 310.260,327.400 309.600 C 327.545 308.940,327.829 308.400,328.032 308.400 C 328.234 308.400,328.400 308.130,328.400 307.800 C 328.400 307.470,328.560 307.200,328.755 307.200 C 328.951 307.200,329.233 306.548,329.383 305.751 C 329.532 304.954,329.801 304.009,329.981 303.651 C 331.178 301.261,331.773 298.679,332.483 292.800 C 333.041 288.181,333.368 111.313,332.821 110.200 C 332.604 109.760,332.350 108.050,332.255 106.400 C 332.039 102.638,331.093 98.423,329.998 96.349 C 329.809 95.991,329.532 95.046,329.383 94.249 C 329.233 93.452,328.996 92.798,328.855 92.795 C 328.715 92.793,328.250 92.028,327.822 91.095 C 327.395 90.163,326.450 88.545,325.722 87.499 C 324.995 86.454,324.400 85.516,324.400 85.416 C 324.400 85.317,323.682 84.462,322.805 83.517 C 321.928 82.573,321.208 81.679,321.205 81.531 C 321.201 81.294,318.849 78.776,318.669 78.815 C 318.631 78.824,318.365 79.097,318.078 79.422 M68.591 214.000 C 68.591 231.710,68.640 238.955,68.700 230.100 C 68.760 221.245,68.760 206.755,68.700 197.900 C 68.640 189.045,68.591 196.290,68.591 214.000 M68.472 282.500 C 68.432 286.405,68.535 289.600,68.700 289.601 C 68.865 289.601,68.951 287.216,68.892 284.301 C 68.716 275.643,68.549 274.929,68.472 282.500 M68.702 300.200 C 68.807 300.750,68.962 301.200,69.047 301.200 C 69.131 301.200,69.200 300.750,69.200 300.200 C 69.200 299.650,69.045 299.200,68.855 299.200 C 68.666 299.200,68.597 299.650,68.702 300.200 " stroke="none" fill="#b49cc7" fill-rule="evenodd"></path><path id="path4" d="M105.400 67.200 C 103.634 67.649,105.645 67.669,107.800 67.223 L 109.400 66.892 108.000 66.893 C 107.230 66.894,106.060 67.032,105.400 67.200 M291.200 67.200 C 291.750 67.376,292.920 67.517,293.800 67.513 C 295.322 67.506,295.342 67.490,294.200 67.200 C 292.460 66.757,289.818 66.757,291.200 67.200 M297.400 68.000 C 297.840 68.189,298.560 68.338,299.000 68.332 C 299.643 68.323,299.604 68.257,298.800 68.000 C 297.432 67.562,296.381 67.562,297.400 68.000 M99.400 68.400 C 98.381 68.838,99.432 68.838,100.800 68.400 C 101.604 68.143,101.643 68.077,101.000 68.068 C 100.560 68.062,99.840 68.211,99.400 68.400 M104.000 69.600 C 103.208 69.854,103.167 69.920,103.800 69.920 C 104.240 69.920,105.050 69.776,105.600 69.600 C 106.392 69.346,106.433 69.280,105.800 69.280 C 105.360 69.280,104.550 69.424,104.000 69.600 M294.600 69.600 C 295.260 69.768,296.340 69.906,297.000 69.907 C 298.009 69.908,297.945 69.855,296.600 69.577 C 294.574 69.158,292.937 69.177,294.600 69.600 M94.200 70.214 C 93.200 70.696,93.166 70.751,94.000 70.548 C 95.133 70.271,96.407 69.621,95.800 69.630 C 95.580 69.633,94.860 69.896,94.200 70.214 M304.144 69.909 C 304.278 70.127,304.854 70.394,305.424 70.503 C 306.647 70.736,306.221 70.217,304.850 69.802 C 304.258 69.623,303.992 69.663,304.144 69.909 M98.800 70.818 C 98.362 71.115,98.524 71.152,99.400 70.956 C 100.871 70.627,101.190 70.398,100.167 70.406 C 99.745 70.409,99.130 70.595,98.800 70.818 M307.200 70.984 C 307.200 71.094,307.920 71.551,308.800 72.000 C 309.680 72.449,310.400 72.726,310.400 72.616 C 310.400 72.506,309.680 72.049,308.800 71.600 C 307.920 71.151,307.200 70.874,307.200 70.984 M311.600 73.620 C 312.987 74.561,313.778 74.835,312.800 74.036 C 312.250 73.586,311.620 73.217,311.400 73.215 C 311.180 73.213,311.270 73.396,311.600 73.620 M313.936 77.600 C 315.688 78.920,318.435 81.395,320.040 83.100 C 321.645 84.805,322.581 85.660,322.119 85.000 C 320.958 83.341,315.828 78.478,313.346 76.685 C 310.011 74.274,310.473 74.991,313.936 77.600 M86.522 77.029 L 85.400 78.058 86.700 77.154 C 87.415 76.657,88.000 76.193,88.000 76.125 C 88.000 75.809,87.558 76.080,86.522 77.029 M75.944 84.300 C 74.793 85.689,74.306 86.400,74.504 86.400 C 74.614 86.400,75.186 85.770,75.773 85.000 C 76.863 83.571,76.995 83.032,75.944 84.300 M325.495 86.981 C 326.087 87.961,326.636 88.698,326.715 88.619 C 326.883 88.451,324.877 85.200,324.605 85.200 C 324.503 85.200,324.904 86.001,325.495 86.981 M77.123 86.300 C 76.418 87.121,75.890 88.000,76.101 88.000 C 76.183 88.000,76.649 87.460,77.137 86.800 C 78.101 85.496,78.092 85.172,77.123 86.300 M324.724 89.517 C 325.756 91.263,326.666 92.636,326.746 92.567 C 326.975 92.370,324.097 87.378,323.438 86.832 C 323.113 86.562,323.692 87.770,324.724 89.517 M327.930 91.196 C 328.298 92.074,328.739 92.794,328.908 92.796 C 329.078 92.798,328.849 92.080,328.400 91.200 C 327.348 89.138,327.064 89.136,327.930 91.196 M70.044 94.444 C 69.798 95.151,69.666 95.800,69.752 95.885 C 69.838 95.971,70.109 95.462,70.356 94.756 C 70.602 94.049,70.734 93.400,70.648 93.315 C 70.562 93.229,70.291 93.738,70.044 94.444 M329.497 94.576 C 329.606 95.146,329.873 95.722,330.091 95.856 C 330.337 96.008,330.377 95.742,330.198 95.150 C 329.783 93.779,329.264 93.353,329.497 94.576 M328.067 96.020 C 328.301 96.692,328.567 97.167,328.657 97.076 C 328.856 96.878,328.101 94.800,327.831 94.800 C 327.727 94.800,327.833 95.349,328.067 96.020 M328.828 98.276 C 328.918 99.315,329.544 100.196,329.572 99.324 C 329.587 98.842,329.420 98.336,329.200 98.200 C 328.980 98.064,328.813 98.098,328.828 98.276 M70.649 99.015 C 70.512 99.373,70.415 99.966,70.434 100.333 C 70.453 100.700,70.627 100.469,70.821 99.820 C 71.198 98.558,71.065 97.933,70.649 99.015 M68.200 100.000 C 68.048 100.691,68.007 101.341,68.109 101.442 C 68.211 101.544,68.409 101.053,68.550 100.350 C 68.691 99.647,68.731 98.998,68.641 98.908 C 68.550 98.817,68.352 99.309,68.200 100.000 M331.443 100.600 C 331.586 101.480,331.863 102.470,332.060 102.800 C 332.284 103.177,332.320 102.806,332.157 101.800 C 332.014 100.920,331.737 99.930,331.540 99.600 C 331.316 99.223,331.280 99.594,331.443 100.600 M329.855 102.000 C 330.402 105.167,330.777 106.261,330.541 104.000 C 330.414 102.790,330.154 101.530,329.962 101.200 C 329.743 100.823,329.704 101.121,329.855 102.000 M69.440 104.440 C 69.293 105.357,69.252 106.185,69.347 106.280 C 69.442 106.376,69.646 105.710,69.800 104.800 C 69.954 103.890,69.996 103.062,69.893 102.960 C 69.790 102.857,69.587 103.523,69.440 104.440 M67.000 106.800 C 66.844 108.147,66.801 109.334,66.905 109.438 C 67.009 109.542,67.219 108.522,67.371 107.171 C 67.524 105.821,67.567 104.634,67.467 104.533 C 67.366 104.433,67.156 105.453,67.000 106.800 M332.474 106.400 C 332.464 107.610,332.611 108.960,332.800 109.400 C 333.267 110.488,333.283 108.025,332.823 105.800 C 332.492 104.202,332.492 104.202,332.474 106.400 M330.800 201.907 C 330.800 282.304,330.726 293.902,330.193 296.433 C 329.677 298.884,329.641 300.879,330.144 299.157 C 331.389 294.891,331.401 293.776,331.254 201.800 C 331.174 151.640,331.039 110.525,330.954 110.433 C 330.869 110.342,330.800 151.505,330.800 201.907 M211.300 121.076 C 211.685 121.176,212.315 121.176,212.700 121.076 C 213.085 120.975,212.770 120.893,212.000 120.893 C 211.230 120.893,210.915 120.975,211.300 121.076 M166.188 164.000 C 166.188 177.970,166.239 183.685,166.300 176.700 C 166.361 169.715,166.361 158.285,166.300 151.300 C 166.239 144.315,166.188 150.030,166.188 164.000 M254.501 159.000 C 254.505 159.880,254.587 160.193,254.683 159.695 C 254.779 159.198,254.775 158.478,254.675 158.095 C 254.575 157.713,254.496 158.120,254.501 159.000 M254.493 162.800 C 254.493 163.570,254.575 163.885,254.676 163.500 C 254.776 163.115,254.776 162.485,254.676 162.100 C 254.575 161.715,254.493 162.030,254.493 162.800 M234.109 163.600 C 234.109 164.590,234.187 164.995,234.282 164.500 C 234.378 164.005,234.378 163.195,234.282 162.700 C 234.187 162.205,234.109 162.610,234.109 163.600 M202.500 189.476 C 202.885 189.576,203.515 189.576,203.900 189.476 C 204.285 189.375,203.970 189.293,203.200 189.293 C 202.430 189.293,202.115 189.375,202.500 189.476 M174.473 189.899 C 178.804 189.964,186.004 189.964,190.473 189.900 C 194.943 189.835,191.400 189.782,182.600 189.782 C 173.800 189.782,170.143 189.835,174.473 189.899 M176.100 207.100 C 181.325 207.163,189.875 207.163,195.100 207.100 C 200.325 207.036,196.050 206.985,185.600 206.985 C 175.150 206.985,170.875 207.036,176.100 207.100 M210.100 207.476 C 210.485 207.576,211.115 207.576,211.500 207.476 C 211.885 207.375,211.570 207.293,210.800 207.293 C 210.030 207.293,209.715 207.375,210.100 207.476 M166.196 235.200 L 166.200 263.000 186.900 263.005 L 207.600 263.011 187.003 262.902 L 166.405 262.793 166.299 235.096 L 166.192 207.400 166.196 235.200 M262.501 239.400 C 262.505 240.280,262.587 240.593,262.683 240.095 C 262.779 239.598,262.775 238.878,262.675 238.495 C 262.575 238.113,262.496 238.520,262.501 239.400 M332.700 289.733 C 332.535 290.136,332.420 291.576,332.444 292.933 L 332.488 295.400 332.851 293.600 C 333.284 291.459,333.171 288.582,332.700 289.733 M66.869 290.800 C 66.856 291.570,66.995 292.920,67.177 293.800 L 67.508 295.400 67.531 294.000 C 67.544 293.230,67.405 291.880,67.223 291.000 L 66.892 289.400 66.869 290.800 M69.270 294.200 C 69.257 294.640,69.395 295.720,69.577 296.600 C 69.855 297.945,69.908 298.009,69.907 297.000 C 69.905 295.599,69.308 292.970,69.270 294.200 M331.866 296.670 C 331.484 298.013,331.127 300.800,331.336 300.800 C 331.627 300.800,332.513 296.380,332.271 296.138 C 332.162 296.029,331.980 296.268,331.866 296.670 M67.668 297.200 C 67.688 298.239,68.318 299.946,68.332 299.000 C 68.338 298.560,68.189 297.840,68.000 297.400 C 67.789 296.910,67.661 296.832,67.668 297.200 M70.428 300.276 C 70.413 300.758,70.580 301.264,70.800 301.400 C 71.273 301.692,71.273 301.301,70.800 300.200 C 70.469 299.429,70.455 299.431,70.428 300.276 M328.669 302.306 C 328.320 303.372,327.918 304.549,327.775 304.922 C 327.632 305.295,327.669 305.600,327.857 305.600 C 328.269 305.600,329.827 300.894,329.518 300.585 C 329.399 300.466,329.017 301.241,328.669 302.306 M330.610 302.200 C 330.455 302.640,330.175 303.360,329.989 303.800 C 329.290 305.451,329.102 306.508,329.557 306.226 C 329.801 306.076,330.000 305.684,330.000 305.357 C 330.000 305.029,330.281 304.217,330.624 303.553 C 330.968 302.889,331.169 302.133,331.071 301.873 C 330.969 301.602,330.772 301.742,330.610 302.200 M69.802 304.850 C 70.217 306.221,70.736 306.647,70.503 305.424 C 70.394 304.854,70.127 304.278,69.909 304.144 C 69.663 303.992,69.623 304.258,69.802 304.850 M326.020 308.496 C 323.687 312.966,319.096 318.477,314.800 321.962 C 314.246 322.412,314.036 322.779,314.330 322.787 C 315.020 322.804,323.062 314.665,323.397 313.609 C 323.538 313.164,323.781 312.800,323.936 312.800 C 324.091 312.800,324.572 312.125,325.005 311.300 C 325.438 310.475,325.893 309.710,326.017 309.600 C 326.141 309.490,326.563 308.710,326.955 307.868 C 328.137 305.329,327.422 305.810,326.020 308.496 M71.600 308.800 C 72.049 309.680,72.506 310.400,72.616 310.400 C 72.726 310.400,72.449 309.680,72.000 308.800 C 71.551 307.920,71.094 307.200,70.984 307.200 C 70.874 307.200,71.151 307.920,71.600 308.800 M328.400 307.800 C 328.400 308.130,328.241 308.400,328.047 308.400 C 327.679 308.400,327.114 310.047,327.388 310.321 C 327.474 310.407,327.920 309.740,328.380 308.839 C 328.840 307.937,329.033 307.200,328.808 307.200 C 328.584 307.200,328.400 307.470,328.400 307.800 M73.149 311.400 C 73.365 311.840,73.834 312.560,74.193 313.000 L 74.844 313.800 74.451 313.000 C 74.235 312.560,73.766 311.840,73.407 311.400 L 72.756 310.600 73.149 311.400 M75.202 311.033 C 75.203 311.235,75.668 311.940,76.235 312.600 L 77.266 313.800 76.363 312.400 C 75.204 310.604,75.200 310.599,75.202 311.033 M325.980 311.900 C 323.843 316.132,316.132 323.843,311.900 325.980 C 311.295 326.285,310.800 326.695,310.800 326.891 C 310.800 327.336,311.100 327.162,314.800 324.564 C 318.367 322.060,322.403 317.991,324.882 314.400 C 327.154 311.108,327.326 310.800,326.891 310.800 C 326.695 310.800,326.285 311.295,325.980 311.900 M78.301 315.400 C 78.980 316.280,80.490 317.900,81.657 319.000 C 83.629 320.859,83.598 320.803,81.218 318.200 C 77.628 314.275,76.871 313.548,78.301 315.400 M76.736 316.700 C 77.398 317.525,79.161 319.370,80.654 320.800 C 82.855 322.909,82.710 322.704,79.884 319.714 C 77.968 317.687,76.400 315.842,76.400 315.614 C 76.400 315.386,76.205 315.200,75.966 315.200 C 75.728 315.200,76.074 315.875,76.736 316.700 M87.322 323.763 C 87.940 324.333,88.645 324.800,88.889 324.800 C 89.406 324.800,89.423 324.815,87.600 323.634 L 86.200 322.727 87.322 323.763 M312.200 323.834 C 311.540 324.363,311.205 324.797,311.456 324.798 C 312.041 324.801,313.864 323.332,313.600 323.070 C 313.490 322.961,312.860 323.305,312.200 323.834 M85.200 324.605 C 85.200 324.877,88.451 326.883,88.619 326.715 C 88.698 326.636,87.961 326.087,86.981 325.495 C 86.001 324.904,85.200 324.503,85.200 324.605 M89.600 325.159 C 89.600 325.472,92.415 326.918,92.622 326.712 C 92.689 326.644,92.037 326.201,91.172 325.728 C 90.308 325.254,89.600 324.998,89.600 325.159 M308.800 325.856 C 307.622 326.713,307.558 326.828,308.400 326.584 C 308.950 326.425,309.460 326.138,309.533 325.947 C 309.607 325.756,309.922 325.600,310.233 325.600 C 310.545 325.600,310.800 325.420,310.800 325.200 C 310.800 324.590,310.332 324.743,308.800 325.856 M89.600 327.422 C 89.600 327.511,90.320 327.951,91.200 328.400 C 92.080 328.849,92.798 329.078,92.796 328.908 C 92.794 328.739,92.074 328.298,91.196 327.930 C 90.318 327.561,89.600 327.332,89.600 327.422 M309.100 327.476 C 308.715 327.576,308.400 327.825,308.400 328.029 C 308.400 328.233,308.130 328.400,307.800 328.400 C 307.470 328.400,307.200 328.584,307.200 328.808 C 307.200 329.033,307.920 328.849,308.800 328.400 C 310.850 327.354,310.969 326.987,309.100 327.476 M94.800 327.831 C 94.800 328.101,96.878 328.856,97.076 328.657 C 97.167 328.567,96.692 328.301,96.020 328.067 C 95.349 327.833,94.800 327.727,94.800 327.831 M303.800 328.224 C 303.140 328.547,302.930 328.719,303.333 328.606 C 303.736 328.493,304.411 328.400,304.833 328.400 C 305.255 328.400,305.600 328.220,305.600 328.000 C 305.600 327.472,305.243 327.517,303.800 328.224 M300.800 329.200 C 300.312 329.515,300.364 329.589,301.076 329.594 C 301.558 329.597,302.064 329.420,302.200 329.200 C 302.515 328.691,301.588 328.691,300.800 329.200 M93.870 329.605 C 94.419 330.113,96.128 330.531,95.856 330.091 C 95.722 329.873,95.146 329.606,94.576 329.497 C 94.006 329.388,93.688 329.437,93.870 329.605 M305.200 329.461 C 304.870 329.570,304.240 329.809,303.800 329.993 C 303.360 330.177,302.659 330.438,302.243 330.573 C 301.826 330.708,301.569 330.902,301.671 331.005 C 301.879 331.212,305.852 329.882,306.268 329.465 C 306.567 329.167,306.099 329.165,305.200 329.461 M101.200 329.968 C 101.530 330.151,102.700 330.406,103.800 330.536 C 105.040 330.681,105.420 330.649,104.800 330.450 C 103.255 329.955,100.516 329.588,101.200 329.968 M296.400 330.220 L 294.200 330.751 296.600 330.530 C 297.920 330.408,299.171 330.149,299.380 329.954 C 299.876 329.492,299.151 329.557,296.400 330.220 M111.600 331.023 C 113.007 331.328,289.252 331.440,289.440 331.136 C 289.554 330.951,249.452 330.821,200.324 330.846 C 151.196 330.872,111.270 330.951,111.600 331.023 M99.600 331.540 C 99.930 331.737,100.920 332.014,101.800 332.157 C 102.806 332.320,103.177 332.284,102.800 332.060 C 102.470 331.863,101.480 331.586,100.600 331.443 C 99.594 331.280,99.223 331.316,99.600 331.540 M297.896 331.584 C 297.068 331.744,296.258 332.014,296.096 332.183 C 295.754 332.539,299.009 332.056,300.200 331.574 L 301.000 331.251 300.200 331.271 C 299.760 331.283,298.723 331.423,297.896 331.584 M105.800 332.823 C 108.025 333.283,110.488 333.267,109.400 332.800 C 108.960 332.611,107.610 332.464,106.400 332.474 C 104.202 332.492,104.202 332.492,105.800 332.823 M289.600 332.800 C 288.853 333.283,290.941 333.293,293.600 332.820 C 295.387 332.502,295.381 332.500,292.800 332.456 C 291.370 332.432,289.930 332.587,289.600 332.800 " stroke="none" fill="#a693c0" fill-rule="evenodd"></path><path id="path5" d="M108.000 67.200 L 106.600 67.495 108.076 67.547 C 108.888 67.576,109.664 67.420,109.800 67.200 C 110.068 66.766,110.061 66.766,108.000 67.200 M290.000 67.182 C 290.330 67.405,290.945 67.591,291.367 67.594 C 292.390 67.602,292.071 67.373,290.600 67.044 C 289.724 66.848,289.562 66.885,290.000 67.182 M102.200 68.000 C 101.429 68.331,101.431 68.345,102.276 68.372 C 102.758 68.387,103.264 68.220,103.400 68.000 C 103.692 67.527,103.301 67.527,102.200 68.000 M177.800 68.802 L 110.600 69.003 199.967 69.102 C 249.118 69.156,289.218 69.085,289.077 68.944 C 288.733 68.599,258.222 68.560,177.800 68.802 M100.800 70.006 C 100.378 70.282,100.615 70.323,101.600 70.142 C 103.325 69.825,103.651 69.598,102.367 69.606 C 101.835 69.609,101.130 69.789,100.800 70.006 M316.413 77.100 C 316.419 77.265,316.914 77.746,317.513 78.168 L 318.600 78.936 317.630 77.868 C 316.611 76.746,316.392 76.607,316.413 77.100 M69.849 101.015 C 69.712 101.373,69.615 101.966,69.634 102.333 C 69.653 102.700,69.827 102.469,70.021 101.820 C 70.398 100.558,70.265 99.933,69.849 101.015 M330.928 108.000 C 330.928 109.430,331.001 110.015,331.089 109.300 C 331.178 108.585,331.178 107.415,331.089 106.700 C 331.001 105.985,330.928 106.570,330.928 108.000 M67.060 108.890 C 66.921 110.051,66.849 151.230,66.900 200.400 L 66.992 289.800 67.196 198.400 C 67.308 148.130,67.381 106.951,67.357 106.890 C 67.333 106.830,67.200 107.730,67.060 108.890 M68.754 178.500 C 68.728 215.515,68.665 252.010,68.614 259.600 C 68.562 267.190,68.642 276.910,68.790 281.200 C 68.938 285.490,69.091 248.995,69.130 200.100 C 69.168 151.205,69.110 111.200,69.000 111.200 C 68.890 111.200,68.779 141.485,68.754 178.500 M331.324 113.400 C 331.326 114.720,331.401 115.212,331.490 114.493 C 331.579 113.774,331.577 112.694,331.486 112.093 C 331.395 111.492,331.322 112.080,331.324 113.400 M331.301 117.400 C 331.305 118.280,331.387 118.593,331.483 118.095 C 331.579 117.598,331.575 116.878,331.475 116.495 C 331.375 116.113,331.296 116.520,331.301 117.400 M331.293 144.000 C 331.293 144.770,331.375 145.085,331.476 144.700 C 331.576 144.315,331.576 143.685,331.476 143.300 C 331.375 142.915,331.293 143.230,331.293 144.000 M331.382 164.200 C 331.382 172.780,331.435 176.233,331.500 171.874 C 331.564 167.514,331.564 160.494,331.499 156.274 C 331.435 152.053,331.382 155.620,331.382 164.200 M331.337 183.000 C 331.339 184.760,331.409 185.430,331.493 184.489 C 331.578 183.549,331.577 182.109,331.491 181.289 C 331.405 180.470,331.336 181.240,331.337 183.000 M331.301 190.200 C 331.305 191.080,331.387 191.393,331.483 190.895 C 331.579 190.398,331.575 189.678,331.475 189.295 C 331.375 188.913,331.296 189.320,331.301 190.200 M331.388 215.800 C 331.388 229.000,331.438 234.342,331.500 227.671 C 331.561 221.001,331.561 210.201,331.500 203.671 C 331.438 197.142,331.388 202.600,331.388 215.800 M331.293 242.400 C 331.293 243.170,331.375 243.485,331.476 243.100 C 331.576 242.715,331.576 242.085,331.476 241.700 C 331.375 241.315,331.293 241.630,331.293 242.400 M331.293 245.600 C 331.293 246.370,331.375 246.685,331.476 246.300 C 331.576 245.915,331.576 245.285,331.476 244.900 C 331.375 244.515,331.293 244.830,331.293 245.600 M111.161 331.323 C 111.340 331.500,112.456 331.588,113.643 331.517 L 115.800 331.389 113.318 331.194 C 111.954 331.087,110.983 331.145,111.161 331.323 M116.705 331.483 C 117.202 331.579,117.922 331.575,118.305 331.475 C 118.687 331.375,118.280 331.296,117.400 331.301 C 116.520 331.305,116.207 331.387,116.705 331.483 M120.105 331.487 C 120.714 331.579,121.614 331.577,122.105 331.482 C 122.597 331.387,122.100 331.311,121.000 331.314 C 119.900 331.317,119.497 331.395,120.105 331.487 M142.700 331.482 C 143.195 331.578,144.005 331.578,144.500 331.482 C 144.995 331.387,144.590 331.309,143.600 331.309 C 142.610 331.309,142.205 331.387,142.700 331.482 M147.300 331.491 C 148.125 331.578,149.475 331.578,150.300 331.491 C 151.125 331.405,150.450 331.334,148.800 331.334 C 147.150 331.334,146.475 331.405,147.300 331.491 M159.274 331.499 C 162.945 331.565,169.065 331.565,172.874 331.499 C 176.683 331.434,173.680 331.380,166.200 331.380 C 158.720 331.379,155.603 331.433,159.274 331.499 M181.900 331.495 C 183.055 331.576,184.945 331.576,186.100 331.495 C 187.255 331.414,186.310 331.348,184.000 331.348 C 181.690 331.348,180.745 331.414,181.900 331.495 M203.729 331.500 C 211.170 331.561,223.230 331.561,230.529 331.500 C 237.828 331.439,231.740 331.389,217.000 331.389 C 202.260 331.389,196.288 331.439,203.729 331.500 M244.705 331.483 C 245.202 331.579,245.922 331.575,246.305 331.475 C 246.687 331.375,246.280 331.296,245.400 331.301 C 244.520 331.305,244.207 331.387,244.705 331.483 M248.105 331.487 C 248.714 331.579,249.614 331.577,250.105 331.482 C 250.597 331.387,250.100 331.311,249.000 331.314 C 247.900 331.317,247.497 331.395,248.105 331.487 " stroke="none" fill="#ac9bcc" fill-rule="evenodd"></path><path id="path6" d="M0.000 12.800 C 0.000 21.067,0.142 25.600,0.400 25.600 C 0.620 25.600,0.800 25.870,0.800 26.200 C 0.800 26.530,0.575 26.803,0.300 26.806 C -0.046 26.810,-0.064 26.903,0.240 27.106 C 0.482 27.268,0.783 27.670,0.908 28.000 C 1.090 28.478,1.143 28.458,1.168 27.900 C 1.190 27.425,1.553 27.182,2.300 27.146 C 3.185 27.102,3.231 27.058,2.538 26.923 C 2.034 26.824,1.573 26.347,1.430 25.777 C 1.295 25.240,1.008 24.800,0.792 24.800 C 0.577 24.800,0.400 24.530,0.400 24.200 C 0.400 23.870,0.670 23.600,1.000 23.600 C 1.330 23.600,1.600 23.780,1.600 24.000 C 1.600 24.220,1.780 24.400,2.000 24.400 C 2.220 24.400,2.400 23.950,2.400 23.400 C 2.400 22.808,2.629 22.400,2.962 22.400 C 3.387 22.400,3.471 22.009,3.309 20.800 C 3.107 19.294,3.155 19.200,4.120 19.200 C 4.795 19.200,5.233 18.926,5.400 18.400 C 5.677 17.527,7.200 17.283,7.200 18.112 C 7.200 18.393,6.840 18.883,6.400 19.200 C 5.581 19.790,5.280 21.600,6.000 21.600 C 6.220 21.600,6.400 21.330,6.400 21.000 C 6.400 20.670,6.580 20.400,6.800 20.400 C 7.020 20.400,7.200 20.130,7.200 19.800 C 7.200 19.425,7.613 19.180,8.300 19.146 C 9.185 19.102,9.231 19.058,8.538 18.923 C 7.577 18.735,7.103 17.459,7.470 16.052 C 7.657 15.339,7.928 15.169,8.656 15.309 C 9.175 15.408,9.600 15.334,9.600 15.145 C 9.600 14.955,9.330 14.800,9.000 14.800 C 8.203 14.800,8.229 13.751,9.033 13.443 C 10.034 13.059,10.400 13.154,10.400 13.800 C 10.400 14.130,10.577 14.400,10.792 14.400 C 11.008 14.400,11.298 14.850,11.436 15.400 C 11.730 16.572,12.400 16.741,12.400 15.643 C 12.400 15.226,12.130 14.782,11.800 14.655 C 10.789 14.268,11.056 13.080,12.100 13.319 C 12.595 13.432,13.360 13.374,13.800 13.190 C 14.482 12.905,14.497 12.852,13.900 12.828 C 11.738 12.741,13.762 11.217,16.055 11.205 C 16.944 11.201,17.153 10.978,17.374 9.800 C 17.518 9.030,17.808 8.400,18.018 8.400 C 18.228 8.400,18.400 8.110,18.400 7.757 C 18.400 7.270,18.644 7.174,19.400 7.364 C 19.977 7.509,20.400 7.443,20.400 7.208 C 20.400 6.983,19.770 6.800,19.000 6.800 C 18.022 6.800,17.600 6.619,17.600 6.200 C 17.600 5.870,17.780 5.600,18.000 5.600 C 18.220 5.600,18.400 5.330,18.400 5.000 C 18.400 4.670,18.560 4.400,18.757 4.400 C 18.953 4.400,19.226 3.950,19.364 3.400 C 19.520 2.779,19.899 2.400,20.364 2.400 C 20.830 2.400,21.208 2.779,21.364 3.400 C 21.502 3.950,21.792 4.400,22.008 4.400 C 22.223 4.400,22.400 4.670,22.400 5.000 C 22.400 5.330,22.580 5.600,22.800 5.600 C 23.487 5.600,23.238 4.604,22.400 4.000 C 21.960 3.683,21.600 3.193,21.600 2.912 C 21.600 2.252,23.070 2.242,23.335 2.900 C 23.446 3.175,23.551 2.905,23.568 2.300 C 23.592 1.477,23.802 1.200,24.400 1.200 C 24.840 1.200,25.200 1.031,25.200 0.825 C 25.200 0.619,25.785 0.378,26.500 0.289 C 27.391 0.179,27.139 0.108,25.700 0.064 C 24.524 0.028,23.600 0.176,23.600 0.400 C 23.600 0.620,23.330 0.800,23.000 0.800 C 22.670 0.800,22.400 0.620,22.400 0.400 C 22.400 0.143,18.400 0.000,11.200 0.000 L 0.000 0.000 0.000 12.800 M28.000 1.200 C 28.776 1.701,29.200 1.701,29.200 1.200 C 29.200 0.980,28.795 0.803,28.300 0.806 C 27.572 0.811,27.515 0.886,28.000 1.200 M19.600 4.800 C 19.600 5.020,20.005 5.197,20.500 5.194 C 21.228 5.189,21.285 5.114,20.800 4.800 C 20.024 4.299,19.600 4.299,19.600 4.800 M17.200 5.800 C 17.200 6.133,16.844 6.400,16.400 6.400 C 15.956 6.400,15.600 6.133,15.600 5.800 C 15.600 5.467,15.956 5.200,16.400 5.200 C 16.844 5.200,17.200 5.467,17.200 5.800 M17.600 7.813 C 17.600 8.149,17.330 8.529,17.000 8.655 C 16.670 8.782,16.400 9.316,16.400 9.843 C 16.400 10.670,16.210 10.800,15.000 10.800 C 13.711 10.800,13.600 10.705,13.600 9.600 C 13.600 8.653,13.775 8.400,14.429 8.400 C 14.884 8.400,15.527 8.130,15.857 7.800 C 16.634 7.023,17.600 7.030,17.600 7.813 M13.200 11.000 C 13.200 11.333,12.844 11.600,12.400 11.600 C 11.956 11.600,11.600 11.333,11.600 11.000 C 11.600 10.667,11.956 10.400,12.400 10.400 C 12.844 10.400,13.200 10.667,13.200 11.000 M6.400 16.200 C 6.400 16.530,6.130 16.800,5.800 16.800 C 5.470 16.800,5.200 16.530,5.200 16.200 C 5.200 15.870,5.470 15.600,5.800 15.600 C 6.130 15.600,6.400 15.870,6.400 16.200 M2.400 21.800 C 2.400 22.130,2.130 22.400,1.800 22.400 C 1.470 22.400,1.200 22.130,1.200 21.800 C 1.200 21.470,1.470 21.200,1.800 21.200 C 2.130 21.200,2.400 21.470,2.400 21.800 M104.427 66.775 C 104.069 67.001,104.820 67.054,106.427 66.915 C 107.842 66.792,109.075 66.626,109.167 66.546 C 109.541 66.219,104.956 66.440,104.427 66.775 M270.900 66.676 C 271.285 66.776,271.915 66.776,272.300 66.676 C 272.685 66.575,272.370 66.493,271.600 66.493 C 270.830 66.493,270.515 66.575,270.900 66.676 M277.600 66.674 C 283.807 66.953,295.487 66.975,295.064 66.706 C 294.809 66.544,290.190 66.445,284.800 66.484 C 279.410 66.524,276.170 66.609,277.600 66.674 M99.680 67.595 C 98.954 67.767,98.234 68.039,98.080 68.200 C 97.768 68.527,100.153 68.077,101.400 67.573 C 102.412 67.165,101.443 67.177,99.680 67.595 M298.200 67.600 C 298.640 67.789,299.270 67.944,299.600 67.944 C 299.978 67.944,299.904 67.817,299.400 67.600 C 298.960 67.411,298.330 67.256,298.000 67.256 C 297.622 67.256,297.696 67.383,298.200 67.600 M92.862 70.044 C 91.907 70.491,91.214 70.947,91.323 71.056 C 91.432 71.166,92.394 70.801,93.461 70.246 C 95.780 69.040,95.330 68.887,92.862 70.044 M104.261 70.019 C 103.194 70.198,102.225 70.442,102.107 70.560 C 101.846 70.820,105.650 70.428,107.600 69.993 L 109.000 69.680 107.600 69.687 C 106.830 69.691,105.327 69.841,104.261 70.019 M294.833 70.144 C 294.925 70.224,295.810 70.396,296.800 70.527 C 298.002 70.686,298.334 70.647,297.800 70.410 C 297.036 70.072,294.486 69.843,294.833 70.144 M99.200 71.200 C 98.712 71.515,98.764 71.589,99.476 71.594 C 99.958 71.597,100.464 71.420,100.600 71.200 C 100.915 70.691,99.988 70.691,99.200 71.200 M87.400 73.040 C 84.686 74.822,81.036 77.736,79.400 79.427 C 76.476 82.449,76.788 82.421,80.027 79.371 C 83.532 76.071,89.020 72.000,89.963 72.000 C 90.178 72.000,90.464 71.820,90.600 71.600 C 91.087 70.812,90.155 71.231,87.400 73.040 M96.600 72.214 C 95.600 72.696,95.566 72.751,96.400 72.548 C 97.533 72.271,98.807 71.621,98.200 71.630 C 97.980 71.633,97.260 71.896,96.600 72.214 M302.400 71.933 C 302.730 72.136,303.450 72.424,304.000 72.571 C 304.695 72.757,304.817 72.725,304.400 72.467 C 304.070 72.264,303.350 71.976,302.800 71.829 C 302.105 71.643,301.983 71.675,302.400 71.933 M86.200 77.857 L 85.000 78.885 86.300 78.156 C 87.015 77.755,87.600 77.286,87.600 77.114 C 87.600 76.675,87.546 76.703,86.200 77.857 M320.200 79.600 C 321.506 80.920,322.665 82.000,322.775 82.000 C 322.885 82.000,321.906 80.920,320.600 79.600 C 319.294 78.280,318.135 77.200,318.025 77.200 C 317.915 77.200,318.894 78.280,320.200 79.600 M316.400 80.200 C 317.146 80.970,317.847 81.600,317.957 81.600 C 318.067 81.600,317.546 80.970,316.800 80.200 C 316.054 79.430,315.353 78.800,315.243 78.800 C 315.133 78.800,315.654 79.430,316.400 80.200 M82.961 80.591 C 82.059 81.347,80.826 82.649,80.221 83.483 L 79.122 85.000 80.540 83.479 C 81.320 82.643,82.643 81.342,83.479 80.588 C 85.453 78.810,85.081 78.812,82.961 80.591 M319.600 83.400 C 320.346 84.170,321.047 84.800,321.157 84.800 C 321.267 84.800,320.746 84.170,320.000 83.400 C 319.254 82.630,318.553 82.000,318.443 82.000 C 318.333 82.000,318.854 82.630,319.600 83.400 M74.334 85.500 C 73.147 86.909,71.104 90.437,71.339 90.672 C 71.472 90.806,71.708 90.574,71.864 90.157 C 72.133 89.436,72.571 88.721,74.412 86.000 C 75.305 84.681,75.261 84.400,74.334 85.500 M77.663 86.400 C 77.175 87.060,76.923 87.600,77.102 87.600 C 77.281 87.600,77.746 87.060,78.136 86.400 C 78.526 85.740,78.779 85.200,78.698 85.200 C 78.617 85.200,78.151 85.740,77.663 86.400 M324.173 89.543 C 325.151 91.161,326.080 92.601,326.237 92.743 C 326.795 93.246,324.184 88.759,323.297 87.689 C 322.800 87.090,323.194 87.924,324.173 89.543 M69.875 93.247 C 68.900 95.497,69.242 95.608,70.319 93.391 C 70.798 92.406,71.054 91.600,70.889 91.600 C 70.724 91.600,70.268 92.341,69.875 93.247 M330.067 94.420 C 330.301 95.092,330.567 95.567,330.657 95.476 C 330.856 95.278,330.101 93.200,329.831 93.200 C 329.727 93.200,329.833 93.749,330.067 94.420 M72.044 96.844 C 71.798 97.551,71.666 98.200,71.752 98.285 C 71.838 98.371,72.109 97.862,72.356 97.156 C 72.602 96.449,72.734 95.800,72.648 95.715 C 72.562 95.629,72.291 96.138,72.044 96.844 M67.876 98.700 C 67.601 99.183,67.108 102.221,67.342 101.989 C 67.596 101.738,68.376 98.400,68.181 98.400 C 68.107 98.400,67.970 98.535,67.876 98.700 M71.246 99.067 C 71.221 99.324,71.084 99.864,70.941 100.267 C 70.740 100.836,70.794 100.897,71.179 100.542 C 71.452 100.291,71.589 99.751,71.484 99.342 C 71.379 98.934,71.272 98.810,71.246 99.067 M332.056 100.400 C 332.056 100.730,332.211 101.360,332.400 101.800 C 332.617 102.304,332.744 102.378,332.744 102.000 C 332.744 101.670,332.589 101.040,332.400 100.600 C 332.183 100.096,332.056 100.022,332.056 100.400 M329.256 101.600 C 329.256 101.930,329.411 102.560,329.600 103.000 C 329.817 103.504,329.944 103.578,329.944 103.200 C 329.944 102.870,329.789 102.240,329.600 101.800 C 329.383 101.296,329.256 101.222,329.256 101.600 M70.273 102.881 C 69.905 104.393,69.476 109.016,69.725 108.789 C 69.852 108.673,70.133 107.146,70.351 105.395 C 70.741 102.248,70.706 101.101,70.273 102.881 M66.649 104.615 C 66.512 104.973,66.425 106.196,66.455 107.333 L 66.509 109.400 66.809 106.800 C 67.120 104.103,67.076 103.503,66.649 104.615 M333.328 108.000 C 333.328 109.430,333.401 110.015,333.489 109.300 C 333.578 108.585,333.578 107.415,333.489 106.700 C 333.401 105.985,333.328 106.570,333.328 108.000 M330.597 200.800 C 330.597 251.290,330.643 271.945,330.700 246.700 C 330.757 221.455,330.757 180.145,330.700 154.900 C 330.643 129.655,330.597 150.310,330.597 200.800 M145.785 120.900 C 145.680 121.175,145.641 157.310,145.697 201.200 L 145.800 281.000 146.000 200.700 C 146.110 156.535,146.149 120.400,146.087 120.400 C 146.026 120.400,145.889 120.625,145.785 120.900 M209.800 120.603 C 210.685 120.911,215.172 121.029,214.704 120.732 C 214.427 120.556,213.120 120.424,211.800 120.438 C 210.480 120.452,209.580 120.526,209.800 120.603 M166.596 164.200 L 166.600 189.400 182.600 189.407 L 198.600 189.414 182.703 189.302 L 166.806 189.191 166.699 164.095 L 166.591 139.000 166.596 164.200 M207.400 139.180 C 208.161 139.526,211.117 139.764,210.767 139.451 C 210.675 139.369,209.700 139.193,208.600 139.059 C 207.254 138.895,206.861 138.935,207.400 139.180 M233.751 163.200 C 233.751 165.730,233.816 166.765,233.896 165.500 C 233.975 164.235,233.975 162.165,233.896 160.900 C 233.816 159.635,233.751 160.670,233.751 163.200 M333.293 162.400 C 333.293 163.170,333.375 163.485,333.476 163.100 C 333.576 162.715,333.576 162.085,333.476 161.700 C 333.375 161.315,333.293 161.630,333.293 162.400 M333.293 166.400 C 333.293 167.170,333.375 167.485,333.476 167.100 C 333.576 166.715,333.576 166.085,333.476 165.700 C 333.375 165.315,333.293 165.630,333.293 166.400 M333.395 232.800 C 333.395 266.350,333.442 280.075,333.500 263.300 C 333.558 246.525,333.558 219.075,333.500 202.300 C 333.442 185.525,333.395 199.250,333.395 232.800 M166.554 207.777 C 166.432 208.094,166.417 208.679,166.520 209.077 C 166.643 209.552,166.723 209.424,166.754 208.704 L 166.800 207.608 185.700 207.500 L 204.600 207.392 185.687 207.296 C 169.524 207.214,166.743 207.284,166.554 207.777 M241.737 235.000 C 241.739 236.760,241.809 237.430,241.893 236.489 C 241.978 235.549,241.977 234.109,241.891 233.289 C 241.805 232.470,241.736 233.240,241.737 235.000 M177.500 262.700 C 183.495 262.762,193.305 262.762,199.300 262.700 C 205.295 262.638,200.390 262.587,188.400 262.587 C 176.410 262.587,171.505 262.638,177.500 262.700 M66.484 282.400 C 66.445 289.110,66.544 294.808,66.706 295.063 C 66.974 295.486,66.950 278.971,66.673 272.800 C 66.609 271.370,66.524 275.690,66.484 282.400 M70.028 295.833 C 70.044 296.475,70.216 297.360,70.410 297.800 C 70.647 298.334,70.686 298.002,70.527 296.800 C 70.246 294.680,69.988 294.180,70.028 295.833 M67.256 298.000 C 67.256 298.330,67.411 298.960,67.600 299.400 C 67.817 299.904,67.944 299.978,67.944 299.600 C 67.944 299.270,67.789 298.640,67.600 298.200 C 67.383 297.696,67.256 297.622,67.256 298.000 M71.829 302.800 C 71.976 303.350,72.264 304.070,72.467 304.400 C 72.725 304.817,72.757 304.695,72.571 304.000 C 72.424 303.450,72.136 302.730,71.933 302.400 C 71.675 301.983,71.643 302.105,71.829 302.800 M325.814 313.435 C 325.441 314.004,325.205 314.538,325.289 314.622 C 325.373 314.707,325.758 314.241,326.144 313.588 C 327.006 312.128,326.748 312.009,325.814 313.435 M320.575 315.700 L 319.400 317.000 320.700 315.825 C 321.415 315.179,322.000 314.594,322.000 314.525 C 322.000 314.216,321.670 314.488,320.575 315.700 M80.000 316.600 C 80.746 317.370,81.447 318.000,81.557 318.000 C 81.667 318.000,81.146 317.370,80.400 316.600 C 79.654 315.830,78.953 315.200,78.843 315.200 C 78.733 315.200,79.254 315.830,80.000 316.600 M83.200 319.800 C 83.946 320.570,84.647 321.200,84.757 321.200 C 84.867 321.200,84.346 320.570,83.600 319.800 C 82.854 319.030,82.153 318.400,82.043 318.400 C 81.933 318.400,82.454 319.030,83.200 319.800 M78.400 319.325 C 78.400 319.394,78.985 319.979,79.700 320.625 L 81.000 321.800 79.825 320.500 C 78.730 319.288,78.400 319.016,78.400 319.325 M91.200 325.384 C 91.200 325.494,91.920 325.951,92.800 326.400 C 93.680 326.849,94.400 327.126,94.400 327.016 C 94.400 326.906,93.680 326.449,92.800 326.000 C 91.920 325.551,91.200 325.274,91.200 325.384 M313.200 326.036 C 312.536 326.579,312.469 326.715,313.000 326.440 C 314.305 325.766,315.028 325.212,314.600 325.215 C 314.380 325.217,313.750 325.586,313.200 326.036 M101.800 329.600 C 102.240 329.789,102.870 329.944,103.200 329.944 C 103.578 329.944,103.504 329.817,103.000 329.600 C 102.560 329.411,101.930 329.256,101.600 329.256 C 101.222 329.256,101.296 329.383,101.800 329.600 M154.900 330.700 C 180.145 330.757,221.455 330.757,246.700 330.700 C 271.945 330.643,251.290 330.597,200.800 330.597 C 150.310 330.597,129.655 330.643,154.900 330.700 M100.600 332.400 C 101.040 332.589,101.670 332.744,102.000 332.744 C 102.378 332.744,102.304 332.617,101.800 332.400 C 101.360 332.211,100.730 332.056,100.400 332.056 C 100.022 332.056,100.096 332.183,100.600 332.400 M105.000 333.220 C 105.440 333.398,106.880 333.542,108.200 333.540 C 111.216 333.536,110.658 333.322,107.000 333.081 C 105.373 332.974,104.535 333.032,105.000 333.220 M169.113 333.495 C 170.276 333.576,172.076 333.576,173.113 333.493 C 174.151 333.411,173.200 333.345,171.000 333.346 C 168.800 333.347,167.951 333.414,169.113 333.495 M204.700 333.500 C 221.035 333.558,247.765 333.558,264.100 333.500 C 280.435 333.442,267.070 333.395,234.400 333.395 C 201.730 333.395,188.365 333.442,204.700 333.500 " stroke="none" fill="#7e5ea5" fill-rule="evenodd"></path><path id="path7" d="M145.132 66.700 C 165.004 66.757,197.404 66.757,217.132 66.700 C 236.859 66.643,220.600 66.596,181.000 66.596 C 141.400 66.596,125.259 66.643,145.132 66.700 M255.513 66.695 C 256.676 66.776,258.476 66.776,259.513 66.693 C 260.551 66.611,259.600 66.545,257.400 66.546 C 255.200 66.547,254.351 66.614,255.513 66.695 M264.700 66.682 C 265.195 66.778,266.005 66.778,266.500 66.682 C 266.995 66.587,266.590 66.509,265.600 66.509 C 264.610 66.509,264.205 66.587,264.700 66.682 M101.400 67.610 C 100.866 67.847,101.198 67.886,102.400 67.727 C 103.390 67.596,104.275 67.424,104.367 67.344 C 104.714 67.043,102.164 67.272,101.400 67.610 M295.700 67.476 C 296.085 67.576,296.715 67.576,297.100 67.476 C 297.485 67.375,297.170 67.293,296.400 67.293 C 295.630 67.293,295.315 67.375,295.700 67.476 M300.200 68.400 C 300.640 68.589,301.270 68.744,301.600 68.744 C 301.978 68.744,301.904 68.617,301.400 68.400 C 300.960 68.211,300.330 68.056,300.000 68.056 C 299.622 68.056,299.696 68.183,300.200 68.400 M153.100 69.500 C 178.895 69.557,221.105 69.557,246.900 69.500 C 272.695 69.443,251.590 69.397,200.000 69.397 C 148.410 69.397,127.305 69.443,153.100 69.500 M101.400 70.400 C 100.896 70.617,100.822 70.744,101.200 70.744 C 101.530 70.744,102.160 70.589,102.600 70.400 C 103.104 70.183,103.178 70.056,102.800 70.056 C 102.470 70.056,101.840 70.211,101.400 70.400 M297.800 70.400 C 298.240 70.589,298.870 70.744,299.200 70.744 C 299.578 70.744,299.504 70.617,299.000 70.400 C 298.560 70.211,297.930 70.056,297.600 70.056 C 297.222 70.056,297.296 70.183,297.800 70.400 M85.058 75.018 C 84.036 75.798,83.200 76.534,83.200 76.652 C 83.200 76.833,85.727 75.013,86.980 73.929 C 88.046 73.006,86.675 73.783,85.058 75.018 M79.574 79.900 C 77.036 82.517,73.781 86.233,75.633 84.400 C 77.729 82.325,82.911 76.800,82.762 76.800 C 82.662 76.800,81.228 78.195,79.574 79.900 M317.200 76.910 C 317.200 76.971,318.595 78.366,320.300 80.010 L 323.400 83.000 320.410 79.900 C 317.633 77.021,317.200 76.617,317.200 76.910 M82.923 80.307 C 81.561 81.568,79.878 83.320,79.183 84.200 C 78.361 85.240,78.597 85.067,79.859 83.705 C 80.927 82.553,82.700 80.806,83.800 79.823 C 84.900 78.840,85.710 78.031,85.600 78.025 C 85.490 78.018,84.285 79.045,82.923 80.307 M318.615 82.000 C 320.152 83.650,321.913 85.630,322.530 86.400 C 323.501 87.612,323.485 87.554,322.411 85.974 C 321.729 84.969,319.967 82.989,318.495 81.574 L 315.821 79.000 318.615 82.000 M68.229 98.629 C 68.081 99.215,68.038 99.772,68.132 99.866 C 68.227 99.960,68.424 99.558,68.571 98.971 C 68.719 98.385,68.762 97.828,68.668 97.734 C 68.573 97.640,68.376 98.042,68.229 98.629 M67.456 101.684 C 67.321 102.188,67.228 103.050,67.249 103.600 C 67.272 104.189,67.431 103.871,67.636 102.825 C 68.003 100.952,67.873 100.127,67.456 101.684 M70.229 101.829 C 70.081 102.415,70.038 102.972,70.132 103.066 C 70.227 103.160,70.424 102.758,70.571 102.171 C 70.719 101.585,70.762 101.028,70.668 100.934 C 70.573 100.840,70.376 101.242,70.229 101.829 M330.509 107.600 C 330.509 108.590,330.587 108.995,330.682 108.500 C 330.778 108.005,330.778 107.195,330.682 106.700 C 330.587 106.205,330.509 106.610,330.509 107.600 M69.397 200.000 C 69.397 251.590,69.443 272.695,69.500 246.900 C 69.557 221.105,69.557 178.895,69.500 153.100 C 69.443 127.305,69.397 148.410,69.397 200.000 M66.596 179.600 C 66.596 218.430,66.643 234.315,66.700 214.900 C 66.757 195.485,66.757 163.715,66.700 144.300 C 66.643 124.885,66.596 140.770,66.596 179.600 M333.388 135.800 C 333.388 149.880,333.439 155.582,333.500 148.471 C 333.561 141.360,333.561 129.840,333.500 122.871 C 333.438 115.902,333.388 121.720,333.388 135.800 M146.262 120.700 C 146.094 120.972,168.651 120.969,198.400 120.693 C 204.670 120.635,195.546 120.545,178.124 120.494 C 160.702 120.442,146.364 120.535,146.262 120.700 M243.800 133.600 C 244.659 134.480,245.452 135.200,245.562 135.200 C 245.672 135.200,245.059 134.480,244.200 133.600 C 243.341 132.720,242.548 132.000,242.438 132.000 C 242.328 132.000,242.941 132.720,243.800 133.600 M245.178 185.100 L 243.800 186.600 245.300 185.222 C 246.696 183.938,246.984 183.600,246.678 183.600 C 246.612 183.600,245.937 184.275,245.178 185.100 M199.500 189.482 C 199.995 189.578,200.805 189.578,201.300 189.482 C 201.795 189.387,201.390 189.309,200.400 189.309 C 199.410 189.309,199.005 189.387,199.500 189.482 M205.491 207.489 C 206.201 207.577,207.461 207.579,208.291 207.492 C 209.121 207.405,208.540 207.333,207.000 207.331 C 205.460 207.329,204.781 207.400,205.491 207.489 M66.544 257.200 C 66.544 259.290,66.612 260.145,66.694 259.100 C 66.776 258.055,66.776 256.345,66.694 255.300 C 66.612 254.255,66.544 255.110,66.544 257.200 M210.705 262.683 C 211.202 262.779,211.922 262.775,212.305 262.675 C 212.687 262.575,212.280 262.496,211.400 262.501 C 210.520 262.505,210.207 262.587,210.705 262.683 M67.293 296.400 C 67.293 297.170,67.375 297.485,67.476 297.100 C 67.576 296.715,67.576 296.085,67.476 295.700 C 67.375 295.315,67.293 295.630,67.293 296.400 M70.056 297.600 C 70.056 297.930,70.211 298.560,70.400 299.000 C 70.617 299.504,70.744 299.578,70.744 299.200 C 70.744 298.870,70.589 298.240,70.400 297.800 C 70.183 297.296,70.056 297.222,70.056 297.600 M68.056 300.000 C 68.056 300.330,68.211 300.960,68.400 301.400 C 68.617 301.904,68.744 301.978,68.744 301.600 C 68.744 301.270,68.589 300.640,68.400 300.200 C 68.183 299.696,68.056 299.622,68.056 300.000 M77.191 313.588 C 77.657 314.241,78.242 314.902,78.491 315.056 C 78.741 315.211,78.441 314.676,77.825 313.868 C 76.488 312.115,75.984 311.892,77.191 313.588 M320.175 316.500 L 319.000 317.800 320.300 316.625 C 321.015 315.979,321.600 315.394,321.600 315.325 C 321.600 315.016,321.270 315.288,320.175 316.500 M81.400 318.400 C 82.706 319.720,83.865 320.800,83.975 320.800 C 84.085 320.800,83.106 319.720,81.800 318.400 C 80.494 317.080,79.335 316.000,79.225 316.000 C 79.115 316.000,80.094 317.080,81.400 318.400 M79.600 320.200 C 81.017 321.630,82.267 322.800,82.377 322.800 C 82.487 322.800,81.417 321.630,80.000 320.200 C 78.583 318.770,77.333 317.600,77.223 317.600 C 77.113 317.600,78.183 318.770,79.600 320.200 M320.386 319.900 L 318.200 322.200 320.500 320.014 C 322.637 317.982,322.983 317.600,322.686 317.600 C 322.624 317.600,321.589 318.635,320.386 319.900 M316.175 320.500 L 315.000 321.800 316.300 320.625 C 317.015 319.979,317.600 319.394,317.600 319.325 C 317.600 319.016,317.270 319.288,316.175 320.500 M85.446 322.072 C 87.219 323.411,87.562 323.517,86.216 322.311 C 85.547 321.712,84.841 321.217,84.646 321.211 C 84.451 321.205,84.811 321.592,85.446 322.072 M104.800 330.398 C 105.788 330.716,109.489 330.935,109.167 330.656 C 109.075 330.577,107.830 330.414,106.400 330.294 C 104.840 330.163,104.200 330.205,104.800 330.398 M122.300 333.500 C 128.955 333.561,139.845 333.561,146.500 333.500 C 153.155 333.438,147.710 333.388,134.400 333.388 C 121.090 333.388,115.645 333.438,122.300 333.500 " stroke="none" fill="#8c6caf" fill-rule="evenodd"></path></g></svg>
