<svg id="svg" version="1.1" xmlns="http://www.w3.org/2000/svg" xmlns:xlink="http://www.w3.org/1999/xlink"  viewBox="0 -10 512 512"><g id="svgg"><path id="path0" d="M182.789 0.137 C 182.673 0.257,180.913 0.390,178.880 0.431 C 176.846 0.472,175.085 0.662,174.967 0.853 C 174.849 1.044,173.604 1.200,172.200 1.200 C 170.796 1.200,169.536 1.380,169.400 1.600 C 169.264 1.820,168.173 2.000,166.976 2.000 C 165.779 2.000,164.800 2.163,164.800 2.361 C 164.800 2.560,163.900 2.830,162.800 2.961 C 161.700 3.093,159.900 3.307,158.800 3.439 C 157.700 3.570,156.800 3.840,156.800 4.039 C 156.800 4.237,155.990 4.400,155.000 4.400 C 154.010 4.400,153.200 4.580,153.200 4.800 C 153.200 5.020,152.581 5.200,151.824 5.200 C 151.067 5.200,150.336 5.380,150.200 5.600 C 150.064 5.820,149.344 6.000,148.600 6.000 C 147.856 6.000,147.136 6.180,147.000 6.400 C 146.864 6.620,146.223 6.800,145.576 6.800 C 144.929 6.800,144.400 6.980,144.400 7.200 C 144.400 7.420,143.871 7.600,143.224 7.600 C 142.577 7.600,141.936 7.780,141.800 8.000 C 141.664 8.220,141.059 8.400,140.456 8.400 C 139.853 8.400,139.189 8.552,138.980 8.737 C 138.575 9.097,133.800 10.631,133.800 10.401 C 133.800 10.326,133.383 10.488,132.874 10.760 C 132.365 11.033,131.645 11.320,131.274 11.399 C 130.679 11.525,129.150 12.085,124.000 14.062 C 123.230 14.358,122.510 14.698,122.400 14.817 C 122.290 14.936,121.435 15.280,120.500 15.581 C 119.565 15.882,118.800 16.279,118.800 16.464 C 118.800 16.649,118.350 16.800,117.800 16.800 C 117.250 16.800,116.800 16.980,116.800 17.200 C 116.800 17.420,116.440 17.600,116.000 17.600 C 115.560 17.600,115.200 17.780,115.200 18.000 C 115.200 18.220,114.840 18.400,114.400 18.400 C 113.960 18.400,113.600 18.580,113.600 18.800 C 113.600 19.020,113.375 19.200,113.100 19.199 C 112.470 19.197,109.046 20.897,108.867 21.300 C 108.793 21.465,108.433 21.604,108.067 21.609 C 107.700 21.614,106.950 21.970,106.400 22.400 C 105.850 22.830,105.175 23.186,104.900 23.191 C 104.625 23.196,104.400 23.380,104.400 23.600 C 104.400 23.820,104.040 24.000,103.600 24.000 C 103.160 24.000,102.800 24.180,102.800 24.400 C 102.800 24.620,102.522 24.800,102.183 24.800 C 101.844 24.800,101.180 25.160,100.708 25.600 C 100.236 26.040,99.613 26.400,99.325 26.400 C 99.036 26.400,98.800 26.560,98.800 26.757 C 98.800 26.953,98.395 27.220,97.900 27.350 C 97.405 27.480,95.470 28.579,93.600 29.793 C 91.730 31.006,89.885 32.102,89.500 32.227 C 89.115 32.352,88.800 32.622,88.800 32.827 C 88.800 33.032,88.564 33.200,88.275 33.200 C 87.987 33.200,87.396 33.515,86.962 33.900 C 85.317 35.359,82.834 37.200,82.512 37.200 C 82.327 37.200,81.917 37.560,81.600 38.000 C 81.283 38.440,80.837 38.800,80.610 38.800 C 80.382 38.800,79.431 39.520,78.497 40.400 C 77.563 41.280,76.619 42.000,76.400 42.000 C 76.180 42.000,75.259 42.720,74.352 43.600 C 73.445 44.480,72.537 45.200,72.334 45.200 C 72.131 45.200,71.478 45.656,70.883 46.214 C 70.287 46.772,69.000 47.897,68.023 48.714 C 65.810 50.565,50.771 65.622,48.600 68.161 C 47.720 69.190,46.415 70.697,45.700 71.511 C 44.985 72.325,44.400 73.146,44.400 73.335 C 44.400 73.524,43.860 74.183,43.200 74.800 C 42.540 75.417,42.000 76.118,42.000 76.360 C 42.000 76.601,41.280 77.563,40.400 78.497 C 39.520 79.431,38.800 80.378,38.800 80.602 C 38.800 80.825,38.440 81.232,38.000 81.507 C 37.560 81.782,37.200 82.275,37.200 82.603 C 37.200 82.932,37.059 83.200,36.886 83.200 C 36.714 83.200,36.279 83.695,35.921 84.300 C 35.563 84.905,34.804 85.940,34.235 86.600 C 33.666 87.260,33.201 88.025,33.200 88.300 C 33.200 88.575,33.032 88.800,32.827 88.800 C 32.622 88.800,32.342 89.151,32.206 89.580 C 32.070 90.010,31.081 91.705,30.009 93.348 C 28.936 94.991,27.471 97.430,26.753 98.767 C 26.035 100.105,25.301 101.200,25.123 101.200 C 24.946 101.200,24.800 101.560,24.800 102.000 C 24.800 102.440,24.620 102.800,24.400 102.800 C 24.180 102.800,24.000 103.160,24.000 103.600 C 24.000 104.040,23.820 104.400,23.600 104.400 C 23.380 104.400,23.200 104.678,23.200 105.017 C 23.200 105.356,22.840 106.020,22.400 106.492 C 21.960 106.964,21.600 107.662,21.600 108.042 C 21.600 108.422,21.465 108.793,21.300 108.867 C 20.892 109.048,18.387 114.076,18.394 114.700 C 18.397 114.975,18.220 115.200,18.000 115.200 C 17.780 115.200,17.600 115.560,17.600 116.000 C 17.600 116.440,17.420 116.800,17.200 116.800 C 16.980 116.800,16.800 117.250,16.800 117.800 C 16.800 118.350,16.640 118.800,16.444 118.800 C 16.248 118.800,15.849 119.610,15.557 120.600 C 15.265 121.590,14.885 122.400,14.713 122.400 C 14.541 122.400,14.400 122.672,14.400 123.005 C 14.400 123.338,14.241 123.923,14.047 124.305 C 13.430 125.517,11.503 130.482,11.370 131.200 C 11.350 131.310,11.135 131.876,10.893 132.457 C 10.650 133.039,10.330 134.166,10.181 134.962 C 10.031 135.758,9.750 136.507,9.555 136.628 C 9.360 136.749,9.200 137.276,9.200 137.800 C 9.200 138.324,9.020 138.864,8.800 139.000 C 8.580 139.136,8.400 139.867,8.400 140.624 C 8.400 141.381,8.220 142.000,8.000 142.000 C 7.780 142.000,7.600 142.540,7.600 143.200 C 7.600 143.860,7.420 144.400,7.200 144.400 C 6.980 144.400,6.800 144.929,6.800 145.576 C 6.800 146.223,6.620 146.864,6.400 147.000 C 6.180 147.136,6.000 147.867,6.000 148.624 C 6.000 149.381,5.820 150.000,5.600 150.000 C 5.380 150.000,5.200 150.720,5.200 151.600 C 5.200 152.480,5.020 153.200,4.800 153.200 C 4.580 153.200,4.400 154.010,4.400 155.000 C 4.400 155.990,4.220 156.800,4.000 156.800 C 3.780 156.800,3.600 157.599,3.600 158.576 C 3.600 159.553,3.420 160.464,3.200 160.600 C 2.980 160.736,2.800 161.636,2.800 162.600 C 2.800 163.564,2.620 164.464,2.400 164.600 C 2.180 164.736,2.000 165.917,2.000 167.224 C 2.000 168.541,1.822 169.600,1.600 169.600 C 1.371 169.600,1.200 170.800,1.200 172.400 C 1.200 173.940,1.044 175.200,0.853 175.200 C -0.105 175.200,-0.103 224.442,0.855 225.034 C 1.045 225.151,1.200 226.407,1.200 227.824 C 1.200 229.275,1.375 230.400,1.600 230.400 C 1.822 230.400,2.000 231.459,2.000 232.776 C 2.000 234.083,2.180 235.264,2.400 235.400 C 2.620 235.536,2.800 236.447,2.800 237.424 C 2.800 238.401,2.980 239.200,3.200 239.200 C 3.420 239.200,3.600 240.100,3.600 241.200 C 3.600 242.300,3.780 243.200,4.000 243.200 C 4.220 243.200,4.400 243.999,4.400 244.976 C 4.400 245.953,4.580 246.864,4.800 247.000 C 5.020 247.136,5.200 247.867,5.200 248.624 C 5.200 249.381,5.380 250.000,5.600 250.000 C 5.820 250.000,6.000 250.619,6.000 251.376 C 6.000 252.133,6.180 252.864,6.400 253.000 C 6.620 253.136,6.800 253.766,6.800 254.400 C 6.800 255.034,6.980 255.664,7.200 255.800 C 7.420 255.936,7.600 256.487,7.600 257.024 C 7.600 257.561,7.780 258.000,8.000 258.000 C 8.220 258.000,8.400 258.619,8.400 259.376 C 8.400 260.133,8.580 260.864,8.800 261.000 C 9.020 261.136,9.200 261.687,9.200 262.224 C 9.200 262.761,9.380 263.200,9.600 263.200 C 9.820 263.200,10.000 263.656,10.000 264.213 C 10.000 264.770,10.285 265.895,10.632 266.713 C 10.980 267.531,11.329 268.470,11.408 268.800 C 11.690 269.978,13.275 274.234,14.164 276.200 C 14.662 277.300,15.459 279.060,15.935 280.111 C 16.411 281.162,16.800 282.287,16.800 282.611 C 16.800 282.935,16.980 283.200,17.200 283.200 C 17.420 283.200,17.600 283.560,17.600 284.000 C 17.600 284.440,17.780 284.800,18.000 284.800 C 18.220 284.800,18.400 284.977,18.400 285.194 C 18.400 285.410,18.940 286.702,19.600 288.065 C 20.260 289.427,20.800 290.765,20.800 291.038 C 20.800 291.310,20.935 291.593,21.100 291.667 C 21.476 291.834,22.775 293.964,23.071 294.900 C 23.193 295.285,23.452 295.600,23.647 295.600 C 23.841 295.600,24.000 295.960,24.000 296.400 C 24.000 296.840,24.180 297.200,24.400 297.200 C 24.620 297.200,24.800 297.560,24.800 298.000 C 24.800 298.440,24.980 298.800,25.200 298.800 C 25.420 298.800,25.600 299.070,25.600 299.400 C 25.600 299.730,25.780 300.000,26.000 300.000 C 26.220 300.000,26.400 300.270,26.400 300.600 C 26.400 300.930,26.580 301.200,26.800 301.200 C 27.020 301.200,27.200 301.454,27.200 301.765 C 27.200 302.268,31.757 309.863,32.791 311.083 C 33.016 311.349,33.200 311.709,33.200 311.883 C 33.201 312.057,33.666 312.740,34.235 313.400 C 34.804 314.060,35.563 315.095,35.921 315.700 C 36.279 316.305,36.714 316.800,36.886 316.800 C 37.059 316.800,37.203 317.025,37.207 317.300 C 37.216 317.879,38.827 319.991,40.700 321.877 C 41.415 322.597,42.000 323.369,42.000 323.592 C 42.000 323.816,42.720 324.741,43.600 325.648 C 44.480 326.555,45.200 327.460,45.200 327.659 C 45.200 328.030,46.784 329.894,49.100 332.251 C 49.815 332.978,50.400 333.676,50.400 333.802 C 50.400 334.148,65.794 349.600,66.138 349.600 C 66.303 349.600,67.234 350.365,68.207 351.300 C 69.181 352.235,70.477 353.407,71.089 353.906 C 73.430 355.814,74.228 356.473,75.066 357.192 C 75.542 357.601,76.346 358.157,76.852 358.428 C 77.358 358.699,78.318 359.432,78.986 360.058 C 79.654 360.684,80.385 361.197,80.612 361.198 C 80.838 361.199,81.283 361.560,81.600 362.000 C 81.917 362.440,82.407 362.800,82.688 362.800 C 82.970 362.800,83.200 362.980,83.200 363.200 C 83.200 363.420,83.378 363.600,83.595 363.600 C 83.813 363.600,84.368 363.915,84.829 364.300 C 85.290 364.685,86.147 365.405,86.734 365.900 C 87.320 366.394,88.025 366.799,88.300 366.800 C 88.575 366.800,88.800 366.958,88.800 367.151 C 88.800 367.345,89.340 367.727,90.000 368.000 C 90.660 368.273,91.200 368.633,91.200 368.800 C 91.200 368.967,91.740 369.327,92.400 369.600 C 93.060 369.873,93.600 370.236,93.600 370.405 C 93.600 370.575,94.037 370.823,94.572 370.957 C 95.107 371.091,95.782 371.429,96.072 371.708 C 96.952 372.554,101.618 375.200,102.229 375.200 C 102.543 375.200,102.800 375.380,102.800 375.600 C 102.800 375.820,103.160 376.000,103.600 376.000 C 104.040 376.000,104.401 376.135,104.403 376.300 C 104.407 376.659,106.344 377.600,107.080 377.600 C 107.366 377.600,107.600 377.754,107.600 377.942 C 107.600 378.131,109.175 379.048,111.100 379.981 C 113.025 380.914,116.040 382.381,117.800 383.242 C 119.560 384.102,121.220 384.805,121.488 384.803 C 121.756 384.801,122.617 385.160,123.400 385.600 C 124.183 386.040,125.001 386.400,125.217 386.400 C 125.596 386.400,128.683 387.686,130.095 388.433 C 130.477 388.635,131.141 388.800,131.571 388.800 C 132.001 388.800,132.450 388.957,132.568 389.148 C 132.686 389.340,133.372 389.633,134.092 389.799 C 135.655 390.161,135.756 390.193,137.800 390.962 C 138.680 391.294,139.985 391.573,140.700 391.582 C 141.415 391.592,142.000 391.780,142.000 392.000 C 142.000 392.220,142.540 392.400,143.200 392.400 C 143.860 392.400,144.400 392.580,144.400 392.800 C 144.400 393.020,145.030 393.200,145.800 393.200 C 146.570 393.200,147.200 393.380,147.200 393.600 C 147.200 393.820,147.819 394.000,148.576 394.000 C 149.333 394.000,150.064 394.180,150.200 394.400 C 150.336 394.620,151.067 394.800,151.824 394.800 C 152.581 394.800,153.200 394.980,153.200 395.200 C 153.200 395.420,154.010 395.600,155.000 395.600 C 155.990 395.600,156.800 395.780,156.800 396.000 C 156.800 396.220,157.599 396.400,158.576 396.400 C 159.553 396.400,160.464 396.580,160.600 396.800 C 160.736 397.020,161.737 397.200,162.824 397.200 C 163.911 397.200,164.800 397.380,164.800 397.600 C 164.800 397.820,165.754 398.000,166.920 398.000 C 168.086 398.000,169.211 398.165,169.420 398.368 C 169.629 398.570,170.970 398.826,172.400 398.938 C 173.830 399.049,177.340 399.348,180.200 399.601 C 187.280 400.230,224.197 399.963,224.882 399.278 C 225.151 399.009,226.454 398.800,227.856 398.800 C 229.229 398.800,230.464 398.620,230.600 398.400 C 230.736 398.180,231.827 398.000,233.024 398.000 C 234.221 398.000,235.200 397.820,235.200 397.600 C 235.200 397.380,236.179 397.200,237.376 397.200 C 238.573 397.200,239.664 397.020,239.800 396.800 C 239.936 396.580,240.757 396.400,241.624 396.400 C 242.491 396.400,243.200 396.220,243.200 396.000 C 243.200 395.780,243.920 395.600,244.800 395.600 C 245.680 395.600,246.400 395.537,246.400 395.460 C 246.400 395.383,223.452 372.371,195.405 344.322 C 167.358 316.273,144.528 293.205,144.672 293.062 C 144.816 292.918,144.737 292.800,144.497 292.800 C 144.258 292.800,143.542 292.305,142.908 291.700 C 142.273 291.095,140.341 289.340,138.613 287.800 C 134.756 284.362,129.373 278.301,127.689 275.500 C 127.325 274.895,126.886 274.400,126.714 274.400 C 126.541 274.400,126.400 274.207,126.400 273.972 C 126.400 273.737,125.882 272.791,125.248 271.870 C 123.292 269.027,121.342 265.422,119.800 261.800 C 119.425 260.920,118.961 259.840,118.769 259.400 C 117.928 257.471,116.775 253.919,115.849 250.400 C 114.885 246.739,114.516 244.553,113.617 237.179 C 113.053 232.555,113.053 167.445,113.617 162.821 C 114.440 156.072,114.840 153.700,115.819 149.780 C 116.832 145.725,118.630 140.630,120.025 137.862 C 120.451 137.016,120.800 136.086,120.800 135.796 C 120.800 135.505,120.935 135.207,121.100 135.133 C 121.265 135.060,121.845 134.100,122.388 133.000 C 123.335 131.083,128.124 123.647,129.527 121.915 C 133.622 116.859,138.015 112.376,141.600 109.596 C 142.590 108.828,143.490 108.101,143.600 107.981 C 143.710 107.860,144.430 107.325,145.200 106.792 C 145.970 106.258,146.949 105.502,147.375 105.111 C 147.802 104.720,148.309 104.400,148.503 104.400 C 148.697 104.400,149.608 103.884,150.528 103.252 C 153.873 100.956,164.757 96.000,166.454 96.000 C 166.838 96.000,167.251 95.841,167.371 95.646 C 167.492 95.451,168.087 95.193,168.695 95.071 C 169.303 94.949,170.610 94.647,171.600 94.400 C 179.267 92.484,182.344 92.264,201.200 92.281 C 218.161 92.296,221.038 92.443,226.800 93.594 C 228.010 93.836,229.587 94.136,230.304 94.261 C 231.021 94.386,231.706 94.649,231.827 94.844 C 231.948 95.040,232.577 95.200,233.224 95.200 C 233.871 95.200,234.400 95.380,234.400 95.600 C 234.400 95.820,234.852 96.000,235.405 96.000 C 235.958 96.000,236.813 96.208,237.305 96.462 C 239.117 97.399,239.599 97.600,240.032 97.600 C 240.676 97.600,249.775 102.073,249.933 102.467 C 250.007 102.650,250.244 102.800,250.461 102.800 C 250.944 102.800,254.548 105.227,254.733 105.677 C 254.807 105.855,255.095 106.000,255.374 106.000 C 255.653 106.000,256.421 106.516,257.082 107.147 C 257.742 107.778,258.484 108.363,258.732 108.447 C 259.593 108.739,266.133 115.019,268.890 118.200 C 270.415 119.960,272.169 121.940,272.787 122.600 C 284.896 135.527,395.259 244.839,395.455 244.100 C 395.586 243.605,395.852 243.200,396.047 243.200 C 396.241 243.200,396.400 242.300,396.400 241.200 C 396.400 240.100,396.580 239.200,396.800 239.200 C 397.020 239.200,397.200 238.311,397.200 237.224 C 397.200 236.137,397.380 235.136,397.600 235.000 C 397.820 234.864,398.000 233.874,398.000 232.800 C 398.000 231.726,398.180 230.736,398.400 230.600 C 398.620 230.464,398.800 229.223,398.800 227.843 C 398.800 226.463,398.925 225.208,399.078 225.055 C 399.621 224.512,399.671 223.195,399.859 204.400 C 399.979 192.335,399.888 183.502,399.609 180.200 C 399.367 177.340,399.079 173.920,398.968 172.600 C 398.857 171.280,398.604 169.840,398.404 169.400 C 398.205 168.960,397.938 167.700,397.810 166.600 C 397.683 165.500,397.476 163.745,397.351 162.700 C 397.225 161.655,396.960 160.800,396.761 160.800 C 396.563 160.800,396.400 159.900,396.400 158.800 C 396.400 157.700,396.220 156.800,396.000 156.800 C 395.780 156.800,395.600 155.979,395.600 154.976 C 395.600 153.863,395.444 153.249,395.200 153.400 C 394.956 153.551,394.800 152.937,394.800 151.824 C 394.800 150.821,394.620 150.000,394.400 150.000 C 394.180 150.000,394.000 149.370,394.000 148.600 C 394.000 147.830,393.820 147.200,393.600 147.200 C 393.380 147.200,393.200 146.570,393.200 145.800 C 393.200 145.030,393.020 144.400,392.800 144.400 C 392.580 144.400,392.400 143.871,392.400 143.224 C 392.400 142.577,392.244 141.951,392.053 141.832 C 391.861 141.714,391.564 140.849,391.392 139.909 C 391.051 138.050,391.065 138.103,390.635 137.131 C 390.472 136.763,390.298 136.223,390.248 135.931 C 390.134 135.264,388.854 131.268,388.411 130.200 C 388.229 129.760,387.702 128.547,387.240 127.504 C 386.778 126.462,386.400 125.432,386.400 125.217 C 386.400 125.001,386.040 124.183,385.600 123.400 C 385.160 122.617,384.800 121.751,384.800 121.477 C 384.800 121.202,384.260 119.937,383.600 118.665 C 382.940 117.393,382.400 116.093,382.400 115.776 C 382.400 115.459,382.220 115.200,382.000 115.200 C 381.780 115.200,381.596 114.885,381.591 114.500 C 381.586 114.115,381.230 113.350,380.800 112.800 C 380.370 112.250,380.014 111.654,380.009 111.475 C 379.990 110.786,377.498 106.000,377.158 106.000 C 376.961 106.000,376.800 105.640,376.800 105.200 C 376.800 104.760,376.620 104.400,376.400 104.400 C 376.180 104.400,376.000 104.040,376.000 103.600 C 376.000 103.160,375.820 102.800,375.600 102.800 C 375.380 102.800,375.200 102.545,375.200 102.234 C 375.200 101.923,374.386 100.348,373.392 98.734 C 372.397 97.120,371.367 95.305,371.104 94.700 C 370.840 94.095,370.506 93.600,370.361 93.600 C 370.216 93.600,369.873 93.060,369.600 92.400 C 369.327 91.740,368.945 91.200,368.751 91.200 C 368.558 91.200,368.400 90.958,368.400 90.662 C 368.400 90.366,368.040 89.798,367.600 89.400 C 367.160 89.002,366.800 88.479,366.799 88.238 C 366.799 87.997,366.259 87.170,365.600 86.400 C 364.941 85.630,364.401 84.815,364.401 84.588 C 364.400 84.362,364.040 83.917,363.600 83.600 C 363.160 83.283,362.800 82.873,362.800 82.688 C 362.800 82.345,360.910 79.823,359.300 78.017 C 358.805 77.462,358.400 76.896,358.400 76.758 C 358.400 76.621,357.850 75.899,357.177 75.154 C 356.504 74.409,355.649 73.350,355.277 72.800 C 354.361 71.447,353.321 70.237,351.300 68.174 C 350.365 67.219,349.600 66.294,349.600 66.119 C 349.600 65.736,334.643 50.986,331.565 48.334 C 330.374 47.307,328.770 45.915,328.000 45.240 C 327.230 44.565,326.473 44.010,326.318 44.006 C 326.163 44.003,325.586 43.550,325.036 43.000 C 324.486 42.450,323.863 42.000,323.652 42.000 C 323.440 42.000,323.207 41.858,323.133 41.685 C 323.060 41.512,322.196 40.747,321.214 39.985 C 320.232 39.223,319.073 38.285,318.638 37.900 C 318.204 37.515,317.653 37.200,317.413 37.200 C 317.173 37.200,316.717 36.840,316.400 36.400 C 316.083 35.960,315.631 35.600,315.397 35.600 C 315.162 35.600,314.347 35.067,313.585 34.416 C 312.823 33.765,312.057 33.225,311.883 33.216 C 311.709 33.207,311.349 33.018,311.083 32.795 C 309.882 31.787,303.748 28.014,303.300 28.007 C 303.025 28.003,302.800 27.820,302.800 27.600 C 302.800 27.380,302.440 27.200,302.000 27.200 C 301.560 27.200,301.200 27.020,301.200 26.800 C 301.200 26.580,300.930 26.400,300.600 26.400 C 300.270 26.400,300.000 26.220,300.000 26.000 C 300.000 25.780,299.730 25.600,299.400 25.600 C 299.070 25.600,298.800 25.420,298.800 25.200 C 298.800 24.980,298.440 24.800,298.000 24.800 C 297.560 24.800,297.200 24.620,297.200 24.400 C 297.200 24.180,296.855 24.000,296.433 24.000 C 296.012 24.000,295.607 23.865,295.533 23.700 C 295.366 23.324,293.236 22.025,292.300 21.729 C 291.915 21.607,291.600 21.348,291.600 21.153 C 291.600 20.959,291.328 20.800,290.995 20.800 C 290.273 20.800,289.130 20.270,285.733 18.362 C 284.986 17.943,284.111 17.600,283.788 17.600 C 283.465 17.600,283.200 17.420,283.200 17.200 C 283.200 16.980,282.955 16.800,282.655 16.800 C 282.182 16.800,280.551 16.127,275.400 13.808 C 274.120 13.232,269.667 11.598,269.000 11.460 C 268.780 11.415,268.376 11.237,268.102 11.066 C 267.526 10.707,266.349 10.395,264.500 10.112 C 263.785 10.002,263.200 9.752,263.200 9.556 C 263.200 9.360,262.761 9.200,262.224 9.200 C 261.687 9.200,261.136 9.020,261.000 8.800 C 260.864 8.580,260.223 8.400,259.576 8.400 C 258.929 8.400,258.400 8.220,258.400 8.000 C 258.400 7.780,257.871 7.600,257.224 7.600 C 256.577 7.600,255.936 7.420,255.800 7.200 C 255.664 6.980,255.034 6.800,254.400 6.800 C 253.766 6.800,253.136 6.620,253.000 6.400 C 252.864 6.180,252.133 6.000,251.376 6.000 C 250.619 6.000,250.000 5.820,250.000 5.600 C 250.000 5.380,249.381 5.200,248.624 5.200 C 247.867 5.200,247.136 5.020,247.000 4.800 C 246.864 4.580,245.953 4.400,244.976 4.400 C 243.999 4.400,243.200 4.220,243.200 4.000 C 243.200 3.780,242.390 3.600,241.400 3.600 C 240.410 3.600,239.600 3.420,239.600 3.200 C 239.600 2.980,238.711 2.800,237.624 2.800 C 236.537 2.800,235.536 2.620,235.400 2.400 C 235.264 2.180,234.083 2.000,232.776 2.000 C 231.459 2.000,230.400 1.822,230.400 1.600 C 230.400 1.371,229.200 1.200,227.600 1.200 C 226.060 1.200,224.800 1.050,224.800 0.867 C 224.800 0.336,183.292 -0.385,182.789 0.137 " stroke="none" fill="#fb3333" fill-rule="evenodd"></path><path id="path1" d="M190.800 92.789 C 162.172 93.654,137.775 107.266,125.176 129.400 C 122.462 134.168,121.285 136.405,120.645 138.013 C 120.254 138.996,119.690 140.340,119.391 141.000 C 114.620 151.534,114.002 158.302,114.005 200.000 C 114.009 241.695,114.510 247.367,119.185 258.600 C 129.944 284.449,150.554 301.193,177.800 306.219 C 182.458 307.079,209.972 307.864,213.992 307.253 C 215.646 307.001,218.204 306.796,219.676 306.797 C 221.148 306.799,222.464 306.620,222.600 306.400 C 222.736 306.180,223.726 306.000,224.800 306.000 C 225.874 306.000,226.864 305.820,227.000 305.600 C 227.136 305.380,227.856 305.200,228.600 305.200 C 229.344 305.200,230.064 305.020,230.200 304.800 C 230.336 304.580,230.966 304.400,231.600 304.400 C 232.234 304.400,232.864 304.220,233.000 304.000 C 233.136 303.780,233.676 303.600,234.200 303.600 C 234.724 303.600,235.264 303.420,235.400 303.200 C 235.536 302.980,235.999 302.800,236.429 302.800 C 236.859 302.800,237.523 302.641,237.905 302.447 C 238.287 302.252,239.050 301.912,239.600 301.691 C 243.267 300.217,252.105 295.552,253.080 294.577 C 253.397 294.260,253.796 294.000,253.966 294.000 C 254.136 294.000,254.799 293.550,255.438 293.000 C 256.077 292.451,256.732 292.001,256.893 292.000 C 258.002 291.999,271.041 278.735,272.721 275.900 C 273.079 275.295,273.514 274.800,273.686 274.800 C 273.859 274.800,274.000 274.564,274.000 274.275 C 274.000 273.987,274.315 273.393,274.700 272.955 C 275.357 272.208,275.659 271.735,276.900 269.500 C 277.175 269.005,277.494 268.510,277.609 268.400 C 277.962 268.062,281.600 260.379,281.600 259.972 C 281.600 259.761,281.780 259.232,282.000 258.795 C 282.220 258.358,282.580 257.642,282.800 257.205 C 283.020 256.768,283.200 256.059,283.200 255.629 C 283.200 255.199,283.359 254.749,283.554 254.629 C 283.749 254.508,284.004 253.913,284.121 253.305 C 284.238 252.697,284.543 251.480,284.797 250.600 C 285.520 248.104,286.045 245.573,286.270 243.500 L 286.477 241.600 264.439 241.600 L 242.400 241.600 242.400 242.576 C 242.400 243.113,242.220 243.664,242.000 243.800 C 241.780 243.936,241.600 244.397,241.600 244.824 C 241.600 245.251,241.464 245.600,241.298 245.600 C 241.131 245.600,240.745 246.185,240.438 246.900 C 238.637 251.103,230.356 259.600,228.061 259.600 C 227.844 259.600,227.607 259.735,227.533 259.900 C 227.460 260.065,226.500 260.625,225.400 261.144 C 224.300 261.663,223.087 262.248,222.705 262.444 C 222.323 262.640,221.659 262.800,221.229 262.800 C 220.799 262.800,220.336 262.980,220.200 263.200 C 220.064 263.420,219.254 263.600,218.400 263.600 C 217.546 263.600,216.736 263.780,216.600 264.000 C 216.177 264.685,187.428 264.521,184.072 263.815 C 173.618 261.616,164.948 254.925,160.557 245.669 C 158.538 241.411,158.100 240.130,157.326 236.200 C 156.914 234.111,156.914 165.889,157.326 163.800 C 160.241 149.007,170.826 138.536,185.402 136.026 C 188.438 135.503,215.175 135.603,217.400 136.145 C 219.694 136.705,221.805 137.293,222.600 137.595 C 223.831 138.062,227.375 139.764,227.600 139.995 C 227.710 140.109,228.295 140.456,228.900 140.768 C 229.505 141.080,230.000 141.485,230.000 141.668 C 230.000 141.850,230.248 142.000,230.552 142.000 C 232.918 142.000,242.400 154.529,242.400 157.655 C 242.400 158.373,243.211 158.400,264.400 158.400 L 286.400 158.400 286.400 156.624 C 286.400 155.647,286.220 154.736,286.000 154.600 C 285.780 154.464,285.600 153.742,285.600 152.995 C 285.600 152.249,285.439 151.224,285.242 150.719 C 285.045 150.213,284.667 148.990,284.403 148.000 C 284.138 147.010,283.760 145.887,283.561 145.505 C 283.362 145.123,283.200 144.484,283.200 144.085 C 283.200 143.686,283.042 143.189,282.849 142.980 C 282.657 142.771,282.135 141.610,281.690 140.400 C 280.858 138.137,277.995 131.956,277.614 131.600 C 277.496 131.490,277.175 130.995,276.900 130.500 C 275.659 128.265,275.357 127.792,274.700 127.045 C 274.315 126.607,274.000 126.053,274.000 125.813 C 274.000 125.573,273.640 125.117,273.200 124.800 C 272.760 124.483,272.399 124.038,272.399 123.812 C 272.395 122.786,263.492 113.131,260.400 110.800 C 259.670 110.250,258.877 109.614,258.637 109.387 C 258.396 109.160,257.570 108.538,256.800 108.006 C 256.030 107.474,255.310 106.934,255.200 106.805 C 253.890 105.279,240.332 98.000,238.799 98.000 C 238.574 98.000,238.032 97.820,237.595 97.600 C 237.158 97.380,236.442 97.020,236.005 96.800 C 235.568 96.580,234.859 96.400,234.429 96.400 C 233.999 96.400,233.536 96.220,233.400 96.000 C 233.264 95.780,232.634 95.600,232.000 95.600 C 231.366 95.600,230.736 95.420,230.600 95.200 C 230.464 94.980,229.679 94.800,228.856 94.800 C 228.033 94.800,227.189 94.637,226.980 94.439 C 226.605 94.082,225.883 93.965,219.200 93.171 C 214.523 92.616,202.057 92.448,190.800 92.789 " stroke="none" fill="#eeeeee" fill-rule="evenodd"></path><path id="path2" d="M276.000 127.400 C 276.000 127.730,276.159 128.000,276.353 128.000 C 276.548 128.000,276.807 128.315,276.929 128.700 C 277.157 129.420,278.430 131.644,278.818 132.000 C 279.318 132.459,282.687 139.797,283.593 142.400 C 283.861 143.170,284.228 144.160,284.407 144.600 C 284.586 145.040,284.847 145.850,284.985 146.400 C 285.124 146.950,285.655 149.020,286.167 151.000 C 287.475 156.066,287.750 158.577,287.061 159.149 C 286.659 159.483,280.597 159.579,264.587 159.503 L 242.665 159.400 241.962 158.200 C 241.575 157.540,241.245 156.685,241.229 156.300 C 241.213 155.915,241.020 155.600,240.800 155.600 C 240.580 155.600,240.400 155.240,240.400 154.800 C 240.400 154.360,240.220 154.000,240.000 154.000 C 239.780 154.000,239.600 153.810,239.600 153.578 C 239.600 151.879,231.116 142.400,229.595 142.400 C 229.378 142.400,229.200 142.220,229.200 142.000 C 229.200 141.780,228.945 141.600,228.633 141.600 C 228.322 141.600,228.007 141.464,227.933 141.298 C 227.786 140.965,223.292 138.733,221.400 138.053 C 214.797 135.681,187.958 135.694,180.200 138.074 C 177.984 138.753,172.756 141.409,171.703 142.389 C 171.225 142.835,170.691 143.200,170.517 143.201 C 169.755 143.203,162.821 150.997,162.807 151.867 C 162.803 152.123,162.665 152.393,162.500 152.467 C 162.068 152.659,160.400 155.972,160.400 156.638 C 160.400 156.947,160.220 157.200,160.000 157.200 C 159.780 157.200,159.600 157.639,159.600 158.176 C 159.600 158.713,159.440 159.252,159.244 159.373 C 158.385 159.904,158.271 164.666,158.271 200.000 C 158.271 235.334,158.385 240.096,159.244 240.627 C 159.440 240.748,159.600 241.287,159.600 241.824 C 159.600 242.361,159.780 242.800,160.000 242.800 C 160.220 242.800,160.400 243.053,160.400 243.362 C 160.400 244.028,162.068 247.341,162.500 247.533 C 162.665 247.607,162.803 247.877,162.807 248.133 C 162.835 249.899,173.539 260.000,175.382 260.000 C 175.507 260.000,176.462 260.378,177.504 260.840 C 180.138 262.007,180.746 262.227,182.800 262.762 C 185.600 263.491,209.690 264.218,212.424 263.657 C 213.647 263.406,215.124 263.200,215.705 263.200 C 218.349 263.200,227.420 259.863,227.933 258.702 C 228.007 258.536,228.277 258.397,228.533 258.393 C 230.329 258.365,239.600 248.336,239.600 246.422 C 239.600 246.190,239.780 246.000,240.000 246.000 C 240.220 246.000,240.400 245.640,240.400 245.200 C 240.400 244.760,240.580 244.400,240.800 244.400 C 241.020 244.400,241.213 244.085,241.229 243.700 C 241.245 243.315,241.575 242.460,241.962 241.800 L 242.665 240.600 264.632 240.504 C 276.715 240.451,286.838 240.560,287.129 240.746 C 287.683 241.099,287.369 244.294,286.377 248.400 C 286.138 249.390,285.845 250.787,285.727 251.504 C 285.608 252.221,285.351 252.906,285.156 253.027 C 284.960 253.148,284.800 253.651,284.800 254.144 C 284.800 254.637,284.657 255.211,284.482 255.420 C 284.307 255.629,283.935 256.520,283.655 257.400 C 282.526 260.957,277.892 270.381,277.100 270.733 C 276.935 270.807,276.800 271.122,276.800 271.433 C 276.800 271.745,276.620 272.000,276.400 272.000 C 276.180 272.000,276.000 272.225,276.000 272.500 C 275.999 272.775,275.549 273.523,275.000 274.162 C 274.450 274.801,274.000 275.464,274.000 275.634 C 274.000 275.804,273.768 276.181,273.484 276.471 C 273.201 276.762,272.287 277.900,271.454 279.000 C 268.837 282.454,261.686 289.570,258.800 291.593 C 258.030 292.132,257.168 292.798,256.885 293.073 C 256.602 293.347,255.837 293.887,255.185 294.272 C 254.533 294.657,254.000 295.114,254.000 295.286 C 254.000 295.459,253.803 295.600,253.562 295.600 C 253.321 295.600,252.646 295.939,252.062 296.353 C 249.006 298.521,241.732 302.071,237.600 303.411 C 236.390 303.804,235.040 304.256,234.600 304.417 C 234.160 304.577,232.990 304.922,232.000 305.182 C 231.010 305.441,229.647 305.822,228.972 306.027 C 228.296 306.232,227.207 306.400,226.552 306.400 C 225.896 306.400,225.189 306.565,224.980 306.766 C 223.944 307.765,185.511 308.212,179.800 307.292 C 175.406 306.584,172.733 306.066,171.000 305.587 C 170.120 305.344,168.950 305.043,168.400 304.918 C 167.850 304.794,167.220 304.562,167.000 304.401 C 166.780 304.241,166.060 303.987,165.400 303.836 C 162.405 303.153,150.620 297.488,149.020 295.962 C 148.811 295.763,148.363 295.600,148.024 295.600 C 147.685 295.600,169.726 317.920,197.003 345.200 C 241.806 390.006,248.000 395.979,248.000 394.370 C 248.000 394.133,248.495 393.972,249.100 394.012 C 250.981 394.136,251.657 394.015,251.400 393.600 C 251.253 393.362,251.729 393.200,252.576 393.200 C 253.359 393.200,254.000 393.020,254.000 392.800 C 254.000 392.580,254.540 392.400,255.200 392.400 C 255.860 392.400,256.400 392.220,256.400 392.000 C 256.400 391.780,257.030 391.600,257.800 391.600 C 258.570 391.600,259.200 391.409,259.200 391.175 C 259.200 390.907,259.896 390.827,261.100 390.959 C 262.145 391.073,262.685 391.071,262.300 390.954 C 260.776 390.491,261.635 389.913,263.500 390.147 C 264.737 390.302,265.121 390.263,264.600 390.035 C 263.837 389.702,263.834 389.672,264.540 389.385 C 264.969 389.210,265.395 389.268,265.551 389.521 C 265.840 389.989,266.900 389.539,266.823 388.980 C 266.798 388.799,267.053 388.610,267.389 388.560 C 267.725 388.511,268.000 388.665,268.000 388.902 C 268.000 389.483,268.598 388.859,268.609 388.267 C 268.613 387.998,269.081 387.849,269.709 387.915 C 270.309 387.978,270.800 387.843,270.800 387.615 C 270.800 387.387,271.115 387.203,271.500 387.206 C 272.098 387.211,272.113 387.269,271.600 387.600 C 271.082 387.935,271.092 387.989,271.673 387.994 C 272.043 387.997,272.460 387.640,272.600 387.200 C 272.779 386.635,273.205 386.400,274.051 386.400 C 274.746 386.400,275.144 386.233,275.000 386.000 C 274.859 385.772,275.204 385.600,275.800 385.600 C 276.396 385.600,276.741 385.428,276.600 385.200 C 276.464 384.980,276.734 384.800,277.200 384.800 C 277.771 384.800,277.949 384.963,277.747 385.300 C 277.540 385.644,277.656 385.630,278.119 385.255 C 278.489 384.955,278.693 384.550,278.572 384.355 C 278.451 384.160,278.824 384.000,279.400 384.000 C 279.996 384.000,280.341 383.828,280.200 383.600 C 280.055 383.366,280.470 383.200,281.200 383.200 C 281.930 383.200,282.345 383.034,282.200 382.800 C 282.064 382.580,282.323 382.400,282.776 382.400 C 283.229 382.400,283.600 382.220,283.600 382.000 C 283.600 381.780,284.061 381.600,284.624 381.600 C 285.204 381.600,285.540 381.427,285.400 381.200 C 285.255 380.966,285.670 380.800,286.400 380.800 C 287.243 380.800,287.554 380.650,287.361 380.337 C 287.166 380.021,287.344 379.944,287.924 380.096 C 288.437 380.230,288.739 380.140,288.686 379.868 C 288.639 379.621,289.008 379.357,289.506 379.281 C 290.004 379.205,290.309 378.976,290.182 378.771 C 290.056 378.567,290.323 378.400,290.776 378.400 C 291.229 378.400,291.600 378.220,291.600 378.000 C 291.600 377.780,291.960 377.600,292.400 377.600 C 292.840 377.600,293.200 377.420,293.200 377.200 C 293.200 376.980,293.545 376.800,293.967 376.800 C 294.388 376.800,294.793 376.665,294.867 376.500 C 295.096 375.984,298.458 374.388,298.830 374.618 C 299.486 375.024,300.782 374.024,300.547 373.294 C 300.376 372.760,300.414 372.726,300.715 373.147 C 301.010 373.560,301.287 373.587,301.852 373.259 C 302.284 373.008,302.379 372.819,302.076 372.812 C 301.788 372.805,301.657 372.631,301.785 372.425 C 301.912 372.218,302.363 372.116,302.785 372.197 C 303.321 372.300,303.487 372.171,303.334 371.771 C 303.181 371.374,303.495 371.121,304.357 370.949 C 305.041 370.812,305.600 370.543,305.600 370.350 C 305.600 370.158,305.971 370.000,306.424 370.000 C 306.877 370.000,307.136 369.820,307.000 369.600 C 306.864 369.380,307.033 369.200,307.376 369.200 C 307.719 369.200,308.000 369.020,308.000 368.800 C 308.000 368.580,308.236 368.400,308.525 368.400 C 308.813 368.400,309.436 368.040,309.908 367.600 C 310.380 367.160,311.074 366.800,311.450 366.800 C 311.826 366.800,312.016 366.683,311.873 366.540 C 311.442 366.109,312.923 365.226,314.100 365.213 C 314.929 365.203,315.200 365.003,315.200 364.400 C 315.200 363.958,315.467 363.600,315.797 363.600 C 316.125 363.600,316.909 363.060,317.540 362.400 C 318.171 361.740,318.826 361.200,318.996 361.200 C 319.167 361.200,319.633 360.823,320.032 360.363 C 320.431 359.903,320.947 359.644,321.179 359.787 C 321.410 359.930,321.600 359.767,321.600 359.424 C 321.600 359.080,321.937 358.800,322.351 358.800 C 323.226 358.800,324.129 357.870,323.697 357.414 C 323.533 357.241,323.850 357.211,324.400 357.347 C 324.950 357.482,325.175 357.489,324.900 357.363 C 324.038 356.967,324.356 356.335,325.300 356.569 C 325.795 356.692,325.975 356.689,325.700 356.563 C 324.847 356.171,325.148 355.530,326.050 355.816 C 326.539 355.971,326.803 355.928,326.671 355.714 C 326.374 355.235,327.829 353.981,328.493 354.144 C 328.772 354.213,328.871 354.196,328.714 354.106 C 328.088 353.748,329.350 352.513,330.163 352.689 C 330.846 352.836,330.890 352.791,330.400 352.441 C 329.902 352.085,329.953 352.011,330.700 352.006 C 331.195 352.003,331.600 351.820,331.600 351.600 C 331.600 351.380,331.858 351.200,332.173 351.200 C 332.488 351.200,332.850 350.872,332.977 350.472 C 333.388 349.176,335.687 347.096,336.059 347.682 C 336.303 348.067,336.389 348.021,336.394 347.503 C 336.403 346.444,338.071 344.671,338.468 345.297 C 338.677 345.626,338.792 345.454,338.800 344.800 C 338.810 344.007,338.892 343.924,339.200 344.400 C 339.512 344.883,339.589 344.819,339.594 344.076 C 339.598 343.474,339.763 343.253,340.068 343.442 C 340.389 343.640,340.450 343.508,340.263 343.021 C 340.058 342.486,340.145 342.370,340.616 342.551 C 340.978 342.690,341.138 342.623,340.995 342.392 C 340.860 342.173,341.018 341.725,341.346 341.397 C 342.019 340.724,342.575 340.593,342.203 341.195 C 342.057 341.432,342.240 341.483,342.659 341.322 C 343.090 341.157,343.175 340.992,342.880 340.893 C 342.616 340.805,342.400 340.549,342.400 340.324 C 342.400 340.099,342.679 340.022,343.021 340.153 C 343.377 340.289,343.537 340.222,343.397 339.995 C 343.263 339.778,343.568 339.586,344.076 339.568 C 344.584 339.551,344.775 339.446,344.500 339.335 C 344.225 339.224,344.000 338.958,344.000 338.743 C 344.000 338.528,344.180 338.464,344.400 338.600 C 344.620 338.736,344.800 338.657,344.800 338.424 C 344.800 338.191,345.205 337.986,345.700 337.968 C 346.195 337.951,346.380 337.848,346.111 337.739 C 345.776 337.603,345.902 337.252,346.511 336.621 C 347.000 336.115,347.713 335.318,348.096 334.850 C 348.479 334.383,349.154 334.000,349.596 334.000 C 350.038 334.000,350.400 333.812,350.400 333.583 C 350.400 333.354,350.760 332.780,351.200 332.308 C 351.640 331.836,352.003 331.078,352.006 330.625 C 352.011 329.931,352.080 329.895,352.441 330.400 C 352.785 330.882,352.831 330.823,352.672 330.100 C 352.465 329.155,352.988 328.840,353.335 329.700 C 353.446 329.975,353.554 329.750,353.575 329.200 C 353.606 328.377,353.689 328.306,354.044 328.800 C 354.403 329.300,354.436 329.278,354.239 328.670 C 353.997 327.925,354.799 326.800,355.571 326.800 C 355.807 326.800,356.003 326.485,356.006 326.100 C 356.017 324.845,356.723 324.092,357.226 324.800 C 357.562 325.273,357.599 325.210,357.399 324.500 C 357.250 323.971,357.322 323.600,357.573 323.600 C 357.808 323.600,358.000 323.330,358.000 323.000 C 358.000 322.670,358.180 322.400,358.400 322.400 C 358.620 322.400,358.800 322.207,358.800 321.971 C 358.800 321.736,359.105 321.241,359.478 320.871 C 360.112 320.243,360.138 320.245,359.890 320.900 C 359.744 321.285,359.799 321.600,360.013 321.600 C 360.226 321.600,360.400 321.060,360.400 320.400 C 360.400 319.740,360.580 319.200,360.800 319.200 C 361.020 319.200,361.200 318.933,361.200 318.608 C 361.200 318.282,361.659 317.900,362.220 317.759 C 362.931 317.581,363.309 317.156,363.470 316.352 C 363.596 315.718,363.858 315.200,364.050 315.200 C 364.243 315.200,364.400 314.919,364.400 314.576 C 364.400 314.233,364.580 314.064,364.800 314.200 C 365.020 314.336,365.200 314.077,365.200 313.624 C 365.200 313.171,365.380 312.800,365.600 312.800 C 365.820 312.800,366.000 312.519,366.000 312.176 C 366.000 311.833,366.180 311.664,366.400 311.800 C 366.620 311.936,366.800 311.716,366.800 311.312 C 366.800 310.907,367.160 310.317,367.600 310.000 C 368.040 309.683,368.400 309.103,368.400 308.712 C 368.400 308.320,368.580 308.000,368.800 308.000 C 369.020 308.000,369.200 307.719,369.200 307.376 C 369.200 307.033,369.380 306.864,369.600 307.000 C 369.820 307.136,370.000 306.877,370.000 306.424 C 370.000 305.971,370.180 305.600,370.400 305.600 C 370.620 305.600,370.800 305.262,370.800 304.849 C 370.800 303.970,371.729 303.074,372.196 303.503 C 372.373 303.667,372.418 303.395,372.297 302.900 C 372.140 302.264,372.253 302.000,372.684 302.000 C 373.104 302.000,373.226 301.742,373.076 301.168 C 372.919 300.569,373.014 300.396,373.416 300.551 C 373.723 300.669,374.081 300.593,374.211 300.383 C 374.341 300.172,374.246 300.000,374.000 300.000 C 373.754 300.000,373.666 299.817,373.804 299.593 C 373.942 299.370,374.204 299.279,374.386 299.391 C 374.567 299.504,374.823 299.317,374.954 298.977 C 375.089 298.623,375.022 298.463,374.795 298.603 C 374.578 298.737,374.400 298.657,374.400 298.424 C 374.400 298.191,374.580 298.000,374.800 298.000 C 375.020 298.000,375.200 297.640,375.200 297.200 C 375.200 296.760,375.380 296.400,375.600 296.400 C 375.820 296.400,376.000 296.040,376.000 295.600 C 376.000 295.160,376.180 294.800,376.400 294.800 C 376.620 294.800,376.800 294.440,376.800 294.000 C 376.800 293.560,376.980 293.200,377.200 293.200 C 377.420 293.200,377.600 292.840,377.600 292.400 C 377.600 291.960,377.780 291.600,378.000 291.600 C 378.220 291.600,378.400 291.229,378.400 290.776 C 378.400 290.323,378.580 290.064,378.800 290.200 C 379.027 290.340,379.200 290.004,379.200 289.424 C 379.200 288.861,379.380 288.400,379.600 288.400 C 379.820 288.400,380.000 288.029,380.000 287.576 C 380.000 287.123,380.180 286.864,380.400 287.000 C 380.620 287.136,380.800 286.877,380.800 286.424 C 380.800 285.971,380.980 285.600,381.200 285.600 C 381.420 285.600,381.600 285.251,381.600 284.824 C 381.600 284.397,381.780 283.936,382.000 283.800 C 382.220 283.664,382.400 283.203,382.400 282.776 C 382.400 282.349,382.580 282.000,382.800 282.000 C 383.020 282.000,383.200 281.629,383.200 281.176 C 383.200 280.723,383.380 280.464,383.600 280.600 C 383.833 280.744,384.000 280.337,384.000 279.624 C 384.000 278.951,384.180 278.400,384.400 278.400 C 384.620 278.400,384.800 277.950,384.800 277.400 C 384.800 276.850,384.980 276.400,385.200 276.400 C 385.420 276.400,385.600 276.051,385.600 275.624 C 385.600 275.197,385.780 274.736,386.000 274.600 C 386.220 274.464,386.400 274.003,386.400 273.576 C 386.400 273.149,386.580 272.800,386.800 272.800 C 387.020 272.800,387.218 272.305,387.240 271.700 L 387.280 270.600 387.627 271.600 C 387.886 272.346,387.932 272.112,387.806 270.680 C 387.658 268.994,387.745 268.717,388.519 268.405 C 389.004 268.210,389.191 268.039,388.935 268.025 C 388.252 267.988,388.549 266.772,389.352 266.323 C 389.908 266.012,389.949 265.820,389.559 265.351 C 389.192 264.908,389.186 264.654,389.537 264.303 C 389.888 263.952,390.007 263.981,390.028 264.420 C 390.045 264.770,390.182 264.683,390.374 264.200 C 390.557 263.737,390.521 263.291,390.287 263.140 C 390.064 262.997,390.018 262.550,390.185 262.140 C 390.473 261.432,390.499 261.434,390.779 262.189 C 391.042 262.894,391.094 262.864,391.279 261.901 C 391.392 261.309,391.330 260.919,391.142 261.036 C 390.954 261.152,390.800 260.887,390.800 260.447 C 390.800 260.007,390.980 259.536,391.200 259.400 C 391.420 259.264,391.600 258.634,391.600 257.999 C 391.600 257.260,391.920 256.621,392.489 256.223 C 392.978 255.880,393.158 255.600,392.889 255.600 C 392.101 255.600,392.327 254.357,393.261 253.547 C 393.735 253.136,393.915 252.800,393.661 252.800 C 393.045 252.800,393.068 251.311,393.687 251.104 C 393.977 251.008,394.133 250.349,394.074 249.471 C 394.020 248.662,394.161 248.000,394.387 248.000 C 394.614 248.000,394.800 247.371,394.800 246.603 C 394.800 245.280,391.663 242.070,335.591 186.003 C 274.654 125.072,276.000 126.396,276.000 127.400 " stroke="none" fill="#c40404" fill-rule="evenodd"></path><path id="path3" d="M193.700 92.299 C 197.825 92.364,204.575 92.364,208.700 92.299 C 212.825 92.234,209.450 92.181,201.200 92.181 C 192.950 92.181,189.575 92.234,193.700 92.299 M179.505 93.083 C 180.002 93.179,180.722 93.175,181.105 93.075 C 181.487 92.975,181.080 92.896,180.200 92.901 C 179.320 92.905,179.007 92.987,179.505 93.083 M220.700 93.082 C 221.195 93.178,222.005 93.178,222.500 93.082 C 222.995 92.987,222.590 92.909,221.600 92.909 C 220.610 92.909,220.205 92.987,220.700 93.082 M174.000 94.018 C 173.562 94.315,173.724 94.352,174.600 94.156 C 176.071 93.827,176.390 93.598,175.367 93.606 C 174.945 93.609,174.330 93.795,174.000 94.018 M152.200 102.400 C 151.540 102.837,151.180 103.192,151.400 103.188 C 151.801 103.182,153.976 101.623,153.600 101.612 C 153.490 101.608,152.860 101.963,152.200 102.400 M138.975 112.100 L 137.800 113.400 139.100 112.225 C 140.312 111.130,140.584 110.800,140.275 110.800 C 140.206 110.800,139.621 111.385,138.975 112.100 M134.181 116.900 L 132.600 118.600 134.300 117.019 C 135.881 115.548,136.184 115.200,135.881 115.200 C 135.816 115.200,135.051 115.965,134.181 116.900 M123.814 130.635 C 123.441 131.204,123.205 131.738,123.289 131.822 C 123.373 131.907,123.758 131.441,124.144 130.788 C 125.006 129.328,124.748 129.209,123.814 130.635 M115.829 150.229 C 115.681 150.815,115.638 151.372,115.732 151.466 C 115.827 151.560,116.024 151.158,116.171 150.571 C 116.319 149.985,116.362 149.428,116.268 149.334 C 116.173 149.240,115.976 149.642,115.829 150.229 M115.049 153.415 C 114.912 153.773,114.815 154.366,114.834 154.733 C 114.853 155.100,115.027 154.869,115.221 154.220 C 115.598 152.958,115.465 152.333,115.049 153.415 M114.093 159.600 C 114.093 160.370,114.175 160.685,114.276 160.300 C 114.376 159.915,114.376 159.285,114.276 158.900 C 114.175 158.515,114.093 158.830,114.093 159.600 M113.792 200.000 C 113.792 219.910,113.840 228.055,113.900 218.100 C 113.959 208.145,113.959 191.855,113.900 181.900 C 113.840 171.945,113.792 180.090,113.792 200.000 M114.093 240.400 C 114.093 241.170,114.175 241.485,114.276 241.100 C 114.376 240.715,114.376 240.085,114.276 239.700 C 114.175 239.315,114.093 239.630,114.093 240.400 M114.806 245.433 C 114.809 245.855,114.995 246.470,115.218 246.800 C 115.515 247.238,115.552 247.076,115.356 246.200 C 115.027 244.729,114.798 244.410,114.806 245.433 M122.725 267.400 C 123.172 268.280,123.833 269.360,124.194 269.800 C 124.555 270.240,124.359 269.700,123.759 268.600 C 122.416 266.138,121.607 265.199,122.725 267.400 M138.000 286.925 C 138.000 286.994,138.585 287.579,139.300 288.225 L 140.600 289.400 139.425 288.100 C 138.330 286.888,138.000 286.616,138.000 286.925 " stroke="none" fill="#fa8484" fill-rule="evenodd"></path><path id="path4" d="M166.778 145.900 L 165.400 147.400 166.900 146.022 C 167.725 145.263,168.400 144.588,168.400 144.522 C 168.400 144.216,168.062 144.504,166.778 145.900 M267.375 282.900 L 266.200 284.200 267.500 283.025 C 268.215 282.379,268.800 281.794,268.800 281.725 C 268.800 281.416,268.470 281.688,267.375 282.900 M220.300 307.082 C 220.795 307.178,221.605 307.178,222.100 307.082 C 222.595 306.987,222.190 306.909,221.200 306.909 C 220.210 306.909,219.805 306.987,220.300 307.082 M203.721 307.898 C 205.877 307.971,209.297 307.970,211.321 307.898 C 213.344 307.825,211.580 307.766,207.400 307.767 C 203.220 307.767,201.564 307.826,203.721 307.898 " stroke="none" fill="#dc7472" fill-rule="evenodd"></path><path id="path5" d="M72.576 44.587 C 72.149 44.910,71.980 45.175,72.200 45.175 C 72.420 45.175,72.949 44.910,73.376 44.587 C 73.804 44.264,73.973 44.000,73.753 44.000 C 73.533 44.000,73.004 44.264,72.576 44.587 M349.600 66.167 C 349.600 66.588,350.805 67.728,351.021 67.512 C 351.122 67.411,350.844 67.002,350.402 66.602 C 349.961 66.203,349.600 66.007,349.600 66.167 M273.600 123.911 C 273.600 124.155,273.959 124.606,274.397 124.913 C 274.836 125.220,275.076 125.591,274.931 125.736 C 274.786 125.881,274.877 126.000,275.133 126.000 C 275.390 126.000,275.555 126.201,275.500 126.447 C 275.445 126.693,275.692 126.943,276.050 127.004 C 277.352 127.225,394.800 245.118,394.800 246.204 C 394.800 246.752,394.980 247.200,395.200 247.200 C 395.420 247.200,395.600 246.540,395.600 245.733 C 395.600 244.927,395.473 244.393,395.318 244.548 C 395.163 244.703,367.795 217.598,334.501 184.315 C 301.206 151.032,273.883 123.725,273.782 123.633 C 273.682 123.542,273.600 123.666,273.600 123.911 M194.925 136.299 C 198.404 136.366,203.984 136.366,207.325 136.299 C 210.666 136.232,207.820 136.178,201.000 136.178 C 194.180 136.178,191.446 136.233,194.925 136.299 M216.500 137.076 C 216.885 137.176,217.515 137.176,217.900 137.076 C 218.285 136.975,217.970 136.893,217.200 136.893 C 216.430 136.893,216.115 136.975,216.500 137.076 M286.006 151.633 C 286.009 152.165,286.189 152.870,286.406 153.200 C 286.682 153.622,286.723 153.385,286.542 152.400 C 286.225 150.675,285.998 150.349,286.006 151.633 M286.901 155.400 C 286.905 156.280,286.987 156.593,287.083 156.095 C 287.179 155.598,287.175 154.878,287.075 154.495 C 286.975 154.113,286.896 154.520,286.901 155.400 M286.953 158.807 C 286.685 159.075,279.054 159.177,264.511 159.107 C 252.392 159.048,242.560 159.135,242.662 159.300 C 243.061 159.945,286.659 159.652,287.200 159.000 C 287.761 158.325,287.578 158.182,286.953 158.807 M157.791 200.000 C 157.791 218.370,157.840 225.885,157.900 216.700 C 157.960 207.515,157.960 192.485,157.900 183.300 C 157.840 174.115,157.791 181.630,157.791 200.000 M242.662 240.700 C 242.560 240.865,252.382 240.952,264.489 240.893 C 280.511 240.816,286.651 240.911,287.051 241.242 C 287.390 241.524,287.600 241.543,287.600 241.292 C 287.600 241.068,287.315 240.776,286.967 240.643 C 286.045 240.289,242.881 240.345,242.662 240.700 M286.901 244.600 C 286.905 245.480,286.987 245.793,287.083 245.295 C 287.179 244.798,287.175 244.078,287.075 243.695 C 286.975 243.313,286.896 243.720,286.901 244.600 M286.156 247.371 C 286.035 247.685,286.004 248.360,286.086 248.871 C 286.195 249.554,286.288 249.404,286.437 248.300 C 286.647 246.747,286.536 246.381,286.156 247.371 M394.000 248.976 C 394.000 249.513,394.180 250.064,394.400 250.200 C 394.633 250.344,394.800 249.937,394.800 249.224 C 394.800 248.551,394.620 248.000,394.400 248.000 C 394.180 248.000,394.000 248.439,394.000 248.976 M393.200 252.000 C 393.200 252.440,393.380 252.800,393.600 252.800 C 393.820 252.800,394.000 252.440,394.000 252.000 C 394.000 251.560,393.820 251.200,393.600 251.200 C 393.380 251.200,393.200 251.560,393.200 252.000 M166.000 252.925 C 166.000 252.994,166.585 253.579,167.300 254.225 L 168.600 255.400 167.425 254.100 C 166.330 252.888,166.000 252.616,166.000 252.925 M392.400 254.800 C 392.400 255.240,392.580 255.600,392.800 255.600 C 393.020 255.600,393.200 255.240,393.200 254.800 C 393.200 254.360,393.020 254.000,392.800 254.000 C 392.580 254.000,392.400 254.360,392.400 254.800 M391.819 256.900 C 391.652 257.285,391.652 257.915,391.819 258.300 C 392.203 259.181,392.574 258.081,392.291 256.900 C 392.132 256.233,392.109 256.233,391.819 256.900 M391.100 259.431 C 390.935 259.597,390.800 260.099,390.800 260.547 C 390.800 261.135,390.921 261.239,391.238 260.922 C 391.478 260.682,391.613 260.180,391.538 259.807 C 391.462 259.433,391.265 259.264,391.100 259.431 M390.194 262.117 C 389.878 262.891,390.124 263.369,390.721 263.142 C 390.926 263.064,390.956 262.640,390.789 262.200 C 390.506 261.454,390.466 261.448,390.194 262.117 M212.800 263.600 C 211.996 263.857,211.957 263.923,212.600 263.932 C 213.040 263.938,213.760 263.789,214.200 263.600 C 215.219 263.162,214.168 263.162,212.800 263.600 M191.119 263.898 C 192.944 263.972,195.824 263.972,197.519 263.897 C 199.214 263.822,197.720 263.761,194.200 263.762 C 190.680 263.762,189.294 263.824,191.119 263.898 M389.555 264.000 C 389.243 265.091,389.385 265.904,389.856 265.723 C 390.155 265.608,390.397 265.399,390.394 265.257 C 390.385 264.896,389.625 263.756,389.555 264.000 M388.769 266.500 C 388.494 267.400,388.566 268.000,388.950 268.000 C 389.214 268.000,389.457 267.640,389.490 267.200 C 389.536 266.586,388.925 265.992,388.769 266.500 M387.949 268.500 C 387.724 268.941,387.772 270.400,388.012 270.400 C 388.324 270.400,388.800 269.415,388.800 268.767 C 388.800 268.449,388.089 268.225,387.949 268.500 M386.400 273.576 C 386.400 274.003,386.220 274.464,386.000 274.600 C 385.780 274.736,385.600 275.107,385.600 275.424 C 385.600 275.741,385.780 276.000,386.000 276.000 C 386.220 276.000,386.400 275.640,386.400 275.200 C 386.400 274.760,386.580 274.400,386.800 274.400 C 387.020 274.400,387.200 274.040,387.200 273.600 C 387.200 273.160,387.020 272.800,386.800 272.800 C 386.580 272.800,386.400 273.149,386.400 273.576 M384.800 277.367 C 384.800 277.898,384.599 278.400,384.354 278.482 C 384.109 278.564,384.000 278.984,384.112 279.415 C 384.303 280.151,384.333 280.144,384.604 279.300 C 384.763 278.805,385.052 278.400,385.247 278.400 C 385.441 278.400,385.600 277.950,385.600 277.400 C 385.600 276.850,385.420 276.400,385.200 276.400 C 384.980 276.400,384.800 276.835,384.800 277.367 M268.975 281.700 L 267.800 283.000 269.100 281.825 C 270.312 280.730,270.584 280.400,270.275 280.400 C 270.206 280.400,269.621 280.985,268.975 281.700 M382.400 282.776 C 382.400 283.203,382.220 283.664,382.000 283.800 C 381.780 283.936,381.600 284.397,381.600 284.824 C 381.600 285.251,381.420 285.600,381.200 285.600 C 380.980 285.600,380.800 285.960,380.800 286.400 C 380.800 286.840,380.980 287.200,381.200 287.200 C 381.420 287.200,381.600 286.928,381.600 286.595 C 381.600 286.007,381.767 285.582,382.738 283.705 C 383.306 282.606,383.328 282.000,382.800 282.000 C 382.580 282.000,382.400 282.349,382.400 282.776 M380.000 287.576 C 380.000 288.029,379.820 288.400,379.600 288.400 C 379.380 288.400,379.200 288.861,379.200 289.424 C 379.200 290.004,379.027 290.340,378.800 290.200 C 378.580 290.064,378.400 290.323,378.400 290.776 C 378.400 291.229,378.201 291.600,377.957 291.600 C 377.714 291.600,377.621 291.877,377.750 292.215 C 377.885 292.565,377.731 292.928,377.393 293.058 C 377.067 293.183,376.800 293.626,376.800 294.043 C 376.800 294.459,376.601 294.800,376.357 294.800 C 376.114 294.800,376.021 295.077,376.150 295.415 C 376.285 295.765,376.131 296.128,375.793 296.258 C 375.145 296.507,374.978 297.200,375.566 297.200 C 375.768 297.200,376.172 296.660,376.464 296.000 C 376.756 295.340,377.131 294.800,377.298 294.800 C 377.464 294.800,377.600 294.440,377.600 294.000 C 377.600 293.560,377.780 293.200,378.000 293.200 C 378.220 293.200,378.404 292.885,378.409 292.500 C 378.414 292.115,378.770 291.350,379.200 290.800 C 379.630 290.250,379.986 289.575,379.991 289.300 C 379.996 289.025,380.142 288.800,380.315 288.800 C 380.769 288.800,380.819 287.259,380.375 286.984 C 380.169 286.857,380.000 287.123,380.000 287.576 M145.734 294.613 C 146.911 295.860,148.889 296.314,148.185 295.176 C 148.069 294.988,147.681 294.948,147.322 295.085 C 146.939 295.232,146.770 295.172,146.914 294.939 C 147.211 294.458,145.824 293.200,144.996 293.200 C 144.610 293.200,144.868 293.694,145.734 294.613 M147.600 296.194 C 147.600 296.645,246.630 395.636,246.856 395.411 C 246.956 395.311,224.747 372.948,197.502 345.715 C 140.661 288.897,147.600 295.782,147.600 296.194 M27.600 303.320 C 27.600 303.704,29.645 306.800,29.899 306.800 C 30.078 306.800,29.441 305.719,28.139 303.811 C 27.842 303.377,27.600 303.156,27.600 303.320 M371.264 303.696 C 371.009 303.951,370.800 304.484,370.800 304.880 C 370.800 305.276,370.620 305.600,370.400 305.600 C 370.180 305.600,370.004 305.915,370.009 306.300 C 370.019 307.112,371.575 305.375,371.591 304.533 C 371.596 304.277,371.816 303.995,372.080 303.907 C 372.397 303.801,372.418 303.659,372.144 303.489 C 371.915 303.348,371.519 303.441,371.264 303.696 M369.200 307.343 C 369.200 307.668,368.975 308.014,368.700 308.112 C 368.425 308.210,368.306 308.406,368.436 308.548 C 368.565 308.689,368.982 308.462,369.362 308.042 C 369.814 307.543,369.905 307.188,369.626 307.016 C 369.392 306.871,369.200 307.018,369.200 307.343 M182.200 307.581 C 182.968 307.929,185.110 308.156,184.767 307.853 C 184.675 307.772,183.880 307.596,183.000 307.462 C 181.885 307.293,181.642 307.329,182.200 307.581 M367.260 310.242 C 366.531 311.066,367.000 311.457,367.781 310.676 C 368.121 310.336,368.400 309.954,368.400 309.829 C 368.400 309.409,367.806 309.624,367.260 310.242 M366.000 312.176 C 366.000 312.519,365.820 312.800,365.600 312.800 C 365.380 312.800,365.200 312.980,365.200 313.200 C 365.200 313.855,365.773 313.656,366.296 312.819 C 366.603 312.327,366.639 311.947,366.392 311.795 C 366.176 311.662,366.000 311.833,366.000 312.176 M364.400 314.487 C 364.400 314.842,364.175 315.214,363.900 315.312 C 363.625 315.410,363.490 315.590,363.601 315.713 C 363.711 315.835,364.151 315.679,364.579 315.366 C 365.183 314.924,365.250 314.690,364.879 314.319 C 364.507 313.947,364.400 313.985,364.400 314.487 M361.700 317.865 C 361.425 317.976,361.200 318.322,361.200 318.633 C 361.200 318.945,361.020 319.200,360.800 319.200 C 360.580 319.200,360.400 319.560,360.400 320.000 C 360.400 320.440,360.591 320.800,360.824 320.800 C 361.057 320.800,361.145 320.635,361.021 320.434 C 360.896 320.232,361.262 319.512,361.833 318.834 C 362.826 317.653,362.795 317.423,361.700 317.865 M359.300 321.023 C 359.025 321.322,358.800 321.754,358.800 321.983 C 358.800 322.212,358.620 322.400,358.400 322.400 C 358.180 322.400,358.000 322.655,358.000 322.967 C 358.000 323.278,357.775 323.616,357.500 323.717 C 357.120 323.856,357.111 324.019,357.463 324.393 C 357.886 324.843,358.816 323.936,358.686 323.200 C 358.666 323.090,358.979 322.499,359.379 321.888 C 360.166 320.688,360.115 320.138,359.300 321.023 M356.243 325.033 C 355.867 326.011,355.949 326.108,356.600 325.457 C 357.280 324.777,357.367 324.400,356.843 324.400 C 356.646 324.400,356.376 324.685,356.243 325.033 M44.000 326.247 C 44.000 326.467,44.264 326.996,44.587 327.424 C 44.910 327.851,45.175 328.020,45.175 327.800 C 45.175 327.580,44.910 327.051,44.587 326.624 C 44.264 326.196,44.000 326.027,44.000 326.247 M354.300 327.687 C 353.915 328.168,353.614 328.751,353.632 328.981 C 353.649 329.212,353.754 329.175,353.865 328.900 C 353.976 328.625,354.278 328.400,354.537 328.400 C 354.796 328.400,355.232 328.040,355.507 327.600 C 356.223 326.454,355.228 326.525,354.300 327.687 M348.096 334.850 C 347.713 335.318,346.987 336.128,346.482 336.650 C 345.977 337.173,345.714 337.600,345.899 337.600 C 346.083 337.600,347.028 336.790,348.000 335.800 C 348.972 334.810,349.547 334.000,349.279 334.000 C 349.011 334.000,348.479 334.383,348.096 334.850 M344.800 338.424 C 344.800 338.657,344.620 338.736,344.400 338.600 C 344.180 338.464,344.000 338.543,344.000 338.776 C 344.000 339.388,344.622 339.297,345.200 338.600 C 345.544 338.185,345.559 338.000,345.249 338.000 C 345.002 338.000,344.800 338.191,344.800 338.424 M341.651 341.151 C 340.763 342.005,340.148 342.815,340.285 342.951 C 340.637 343.304,341.284 343.261,341.066 342.900 C 340.824 342.501,343.428 339.961,343.749 340.283 C 343.887 340.421,344.000 340.323,344.000 340.067 C 344.000 339.242,343.304 339.563,341.651 341.151 M337.240 345.840 C 336.069 347.187,336.380 347.498,337.600 346.200 C 338.115 345.652,338.447 345.114,338.338 345.005 C 338.229 344.895,337.735 345.271,337.240 345.840 M335.190 347.733 C 334.367 348.364,332.800 350.421,332.800 350.870 C 332.800 351.069,333.052 350.999,333.360 350.716 C 333.667 350.432,333.862 350.140,333.792 350.066 C 333.722 349.992,334.235 349.421,334.932 348.799 C 336.175 347.688,336.387 346.814,335.190 347.733 M327.907 354.028 C 327.087 354.827,326.521 355.588,326.651 355.717 C 326.942 356.009,328.400 355.134,328.400 354.668 C 328.400 354.481,328.789 354.013,329.265 353.628 C 329.741 353.243,329.966 352.848,329.765 352.750 C 329.564 352.653,328.728 353.228,327.907 354.028 M324.486 356.624 C 323.983 357.161,323.690 357.600,323.835 357.600 C 323.980 357.600,323.851 357.899,323.549 358.265 C 323.051 358.870,323.084 358.886,323.911 358.445 C 324.412 358.178,324.737 357.822,324.633 357.653 C 324.528 357.484,324.793 357.093,325.221 356.785 C 326.000 356.224,326.266 355.578,325.700 355.624 C 325.535 355.638,324.989 356.088,324.486 356.624 M320.100 360.198 C 319.469 360.915,319.464 361.228,320.084 361.100 C 320.804 360.951,321.542 360.243,321.334 359.900 C 321.068 359.460,320.665 359.557,320.100 360.198 M317.621 362.212 C 317.083 362.742,316.736 363.269,316.850 363.384 C 316.965 363.498,317.574 363.054,318.204 362.396 C 319.561 360.979,319.040 360.815,317.621 362.212 M312.276 365.774 C 311.814 366.124,311.707 366.419,311.979 366.587 C 312.214 366.732,312.675 366.582,313.003 366.254 C 314.096 365.161,313.555 364.804,312.276 365.774 M309.830 367.624 C 309.359 368.098,309.254 368.400,309.559 368.400 C 310.063 368.400,311.200 367.450,311.200 367.029 C 311.200 366.590,310.594 366.853,309.830 367.624 M308.000 368.771 C 308.000 368.975,307.685 369.204,307.300 369.280 C 306.852 369.369,306.761 369.520,307.047 369.700 C 307.292 369.855,307.815 369.625,308.209 369.191 C 308.617 368.739,308.726 368.400,308.462 368.400 C 308.208 368.400,308.000 368.567,308.000 368.771 M305.600 370.400 C 305.600 370.620,305.253 370.800,304.829 370.800 C 304.404 370.800,303.742 371.115,303.357 371.500 C 302.972 371.885,302.524 372.200,302.362 372.200 C 301.742 372.200,301.592 372.711,302.150 372.925 C 302.471 373.049,302.837 372.879,302.964 372.549 C 303.091 372.219,303.376 372.061,303.597 372.198 C 303.819 372.335,304.000 372.257,304.000 372.024 C 304.000 371.791,304.225 371.596,304.500 371.591 C 305.363 371.576,307.133 370.019,306.300 370.009 C 305.915 370.004,305.600 370.180,305.600 370.400 M94.400 370.963 C 94.400 371.043,94.850 371.403,95.400 371.763 C 95.950 372.124,96.400 372.263,96.400 372.073 C 96.400 371.884,95.950 371.523,95.400 371.273 C 94.850 371.022,94.400 370.883,94.400 370.963 M295.700 375.744 C 294.722 376.228,294.500 376.808,295.300 376.787 C 295.870 376.773,297.200 375.841,297.200 375.456 C 297.200 375.122,296.803 375.198,295.700 375.744 M293.200 377.200 C 293.200 377.420,292.840 377.600,292.400 377.600 C 291.960 377.600,291.600 377.780,291.600 378.000 C 291.600 378.220,291.229 378.400,290.776 378.400 C 290.323 378.400,290.064 378.580,290.200 378.800 C 290.336 379.020,290.187 379.200,289.869 379.200 C 289.021 379.200,287.169 380.235,287.473 380.539 C 287.616 380.683,288.003 380.800,288.333 380.800 C 288.663 380.800,288.823 380.690,288.688 380.555 C 288.451 380.318,291.863 378.405,292.529 378.402 C 292.902 378.400,294.000 377.375,294.000 377.029 C 294.000 376.903,293.820 376.800,293.600 376.800 C 293.380 376.800,293.200 376.980,293.200 377.200 M285.400 381.200 C 285.540 381.427,285.204 381.600,284.624 381.600 C 284.061 381.600,283.600 381.780,283.600 382.000 C 283.600 382.584,284.880 382.465,285.759 381.800 C 286.176 381.484,286.671 381.320,286.859 381.436 C 287.047 381.552,287.200 381.457,287.200 381.224 C 287.200 380.991,286.739 380.800,286.176 380.800 C 285.596 380.800,285.260 380.973,285.400 381.200 M280.200 383.600 C 280.336 383.820,280.707 384.000,281.024 384.000 C 281.341 384.000,281.600 383.820,281.600 383.600 C 281.600 383.380,281.229 383.200,280.776 383.200 C 280.323 383.200,280.064 383.380,280.200 383.600 M278.720 384.480 C 279.093 384.853,279.307 384.853,279.680 384.480 C 280.053 384.107,279.947 384.000,279.200 384.000 C 278.453 384.000,278.347 384.107,278.720 384.480 M276.584 385.175 C 276.712 385.381,277.160 385.523,277.580 385.492 C 278.577 385.416,278.196 384.800,277.153 384.800 C 276.713 384.800,276.457 384.969,276.584 385.175 M272.800 386.800 C 272.800 387.020,273.160 387.200,273.600 387.200 C 274.040 387.200,274.400 387.020,274.400 386.800 C 274.400 386.580,274.040 386.400,273.600 386.400 C 273.160 386.400,272.800 386.580,272.800 386.800 M268.678 387.856 C 268.206 388.328,268.792 388.727,269.634 388.507 C 270.268 388.341,270.340 388.208,269.934 387.951 C 269.287 387.541,269.013 387.520,268.678 387.856 M266.559 388.867 C 266.445 389.050,266.408 389.214,266.476 389.231 C 267.559 389.499,268.000 389.441,268.000 389.031 C 268.000 388.475,266.880 388.347,266.559 388.867 M264.228 389.555 C 264.108 389.750,264.367 390.003,264.804 390.117 C 265.320 390.252,265.600 390.127,265.600 389.763 C 265.600 389.144,264.577 388.989,264.228 389.555 M261.600 390.353 C 261.600 390.969,263.135 391.145,263.362 390.556 C 263.508 390.174,263.266 390.000,262.587 390.000 C 262.044 390.000,261.600 390.159,261.600 390.353 M259.200 391.200 C 259.200 391.420,259.661 391.600,260.224 391.600 C 260.804 391.600,261.140 391.427,261.000 391.200 C 260.864 390.980,260.403 390.800,259.976 390.800 C 259.549 390.800,259.200 390.980,259.200 391.200 M256.400 392.006 C 256.400 392.230,256.940 392.372,257.600 392.321 C 258.260 392.271,258.800 392.088,258.800 391.915 C 258.800 391.742,258.260 391.600,257.600 391.600 C 256.940 391.600,256.400 391.783,256.400 392.006 M254.000 392.800 C 254.000 393.020,254.450 393.200,255.000 393.200 C 255.550 393.200,256.000 393.020,256.000 392.800 C 256.000 392.580,255.550 392.400,255.000 392.400 C 254.450 392.400,254.000 392.580,254.000 392.800 M251.400 393.600 C 251.536 393.820,251.986 394.000,252.400 394.000 C 252.814 394.000,253.264 393.820,253.400 393.600 C 253.545 393.366,253.130 393.200,252.400 393.200 C 251.670 393.200,251.255 393.366,251.400 393.600 M248.000 394.400 C 248.000 394.620,248.585 394.797,249.300 394.794 C 250.286 394.789,250.455 394.694,250.000 394.400 C 249.214 393.892,248.000 393.892,248.000 394.400 " stroke="none" fill="#e71c1c" fill-rule="evenodd"></path><path id="path6" d="M183.000 92.403 C 182.485 92.626,182.913 92.667,184.200 92.518 C 185.300 92.391,186.275 92.223,186.367 92.144 C 186.714 91.845,183.764 92.072,183.000 92.403 M216.833 92.143 C 216.925 92.221,217.630 92.401,218.400 92.542 C 219.385 92.723,219.622 92.682,219.200 92.406 C 218.658 92.050,216.437 91.803,216.833 92.143 M250.800 103.220 C 252.187 104.161,252.978 104.435,252.000 103.636 C 251.450 103.186,250.820 102.817,250.600 102.815 C 250.380 102.813,250.470 102.996,250.800 103.220 M135.389 115.300 L 132.600 118.200 135.500 115.411 C 138.194 112.820,138.583 112.400,138.289 112.400 C 138.228 112.400,136.923 113.705,135.389 115.300 M265.800 115.200 C 267.328 116.740,268.669 118.000,268.779 118.000 C 268.889 118.000,267.728 116.740,266.200 115.200 C 264.672 113.660,263.331 112.400,263.221 112.400 C 263.111 112.400,264.272 113.660,265.800 115.200 M186.900 136.276 C 187.285 136.376,187.915 136.376,188.300 136.276 C 188.685 136.175,188.370 136.093,187.600 136.093 C 186.830 136.093,186.515 136.175,186.900 136.276 M213.800 136.400 C 214.240 136.589,214.960 136.738,215.400 136.732 C 216.043 136.723,216.004 136.657,215.200 136.400 C 213.832 135.962,212.781 135.962,213.800 136.400 M286.905 157.600 L 287.000 158.600 264.800 158.805 L 242.600 159.010 264.651 159.105 C 288.253 159.207,288.348 159.199,287.237 157.321 C 286.862 156.688,286.822 156.721,286.905 157.600 M113.391 200.000 C 113.391 219.470,113.440 227.435,113.500 217.700 C 113.560 207.965,113.560 192.035,113.500 182.300 C 113.440 172.565,113.391 180.530,113.391 200.000 M157.391 200.000 C 157.391 218.150,157.440 225.575,157.500 216.500 C 157.560 207.425,157.560 192.575,157.500 183.500 C 157.440 174.425,157.391 181.850,157.391 200.000 M264.800 241.195 L 287.000 241.400 286.905 242.400 C 286.822 243.279,286.862 243.312,287.237 242.679 C 288.348 240.801,288.253 240.793,264.651 240.895 L 242.600 240.990 264.800 241.195 M240.229 245.661 C 239.883 246.355,239.600 247.025,239.600 247.150 C 239.600 247.497,240.633 245.894,240.921 245.100 C 241.336 243.955,240.906 244.304,240.229 245.661 M115.044 247.400 C 115.373 248.871,115.602 249.190,115.594 248.167 C 115.591 247.745,115.405 247.130,115.182 246.800 C 114.885 246.362,114.848 246.524,115.044 247.400 M232.575 255.700 L 231.400 257.000 232.700 255.825 C 233.415 255.179,234.000 254.594,234.000 254.525 C 234.000 254.216,233.670 254.488,232.575 255.700 M118.218 258.100 C 118.368 258.595,118.655 259.176,118.856 259.391 C 119.057 259.606,119.019 259.201,118.772 258.491 C 118.265 257.038,117.797 256.708,118.218 258.100 M135.400 284.800 C 136.928 286.340,138.269 287.600,138.379 287.600 C 138.489 287.600,137.328 286.340,135.800 284.800 C 134.272 283.260,132.931 282.000,132.821 282.000 C 132.711 282.000,133.872 283.260,135.400 284.800 M249.800 297.200 C 249.140 297.637,248.780 297.992,249.000 297.988 C 249.401 297.982,251.576 296.423,251.200 296.412 C 251.090 296.408,250.460 296.763,249.800 297.200 M188.921 307.898 C 191.077 307.971,194.497 307.970,196.521 307.898 C 198.544 307.825,196.780 307.766,192.600 307.767 C 188.420 307.767,186.764 307.826,188.921 307.898 M215.500 307.882 C 215.995 307.978,216.805 307.978,217.300 307.882 C 217.795 307.787,217.390 307.709,216.400 307.709 C 215.410 307.709,215.005 307.787,215.500 307.882 " stroke="none" fill="#e15c5c" fill-rule="evenodd"></path><path id="path7" d="M189.100 92.698 C 191.135 92.771,194.465 92.771,196.500 92.698 C 198.535 92.625,196.870 92.566,192.800 92.566 C 188.730 92.566,187.065 92.625,189.100 92.698 M215.600 92.800 C 216.150 92.976,217.410 93.117,218.400 93.114 L 220.200 93.108 218.600 92.777 C 216.382 92.318,214.149 92.335,215.600 92.800 M182.300 93.082 C 182.795 93.178,183.605 93.178,184.100 93.082 C 184.595 92.987,184.190 92.909,183.200 92.909 C 182.210 92.909,181.805 92.987,182.300 93.082 M222.800 93.577 C 223.339 93.946,226.768 94.210,226.367 93.851 C 226.275 93.769,225.300 93.582,224.200 93.435 C 222.780 93.245,222.374 93.286,222.800 93.577 M227.000 94.400 C 227.136 94.620,227.822 94.782,228.524 94.760 C 229.743 94.722,229.755 94.706,228.800 94.400 C 227.364 93.940,226.716 93.940,227.000 94.400 M230.600 95.200 C 230.736 95.420,231.242 95.587,231.724 95.572 C 232.569 95.545,232.571 95.531,231.800 95.200 C 230.699 94.727,230.308 94.727,230.600 95.200 M233.423 96.037 C 233.546 96.237,233.999 96.400,234.429 96.400 C 234.859 96.400,235.613 96.608,236.105 96.862 C 237.899 97.790,238.397 98.000,238.799 98.000 C 239.537 98.000,243.975 100.065,247.800 102.189 C 252.811 104.970,252.670 104.900,251.653 104.123 C 249.090 102.167,243.242 99.198,238.400 97.396 C 237.410 97.027,236.240 96.577,235.800 96.396 C 234.463 95.846,233.185 95.653,233.423 96.037 M252.974 105.158 C 253.123 105.399,253.616 105.795,254.071 106.038 C 254.662 106.354,254.820 106.356,254.626 106.042 C 254.477 105.801,253.984 105.405,253.529 105.162 C 252.938 104.846,252.780 104.844,252.974 105.158 M255.200 106.689 C 255.200 106.875,255.695 107.320,256.300 107.679 C 256.905 108.037,257.790 108.660,258.266 109.065 C 261.188 111.544,262.611 112.464,260.400 110.443 C 258.105 108.346,255.200 106.249,255.200 106.689 M139.775 111.700 L 138.600 113.000 139.900 111.825 C 141.112 110.730,141.384 110.400,141.075 110.400 C 141.006 110.400,140.421 110.985,139.775 111.700 M265.941 116.100 C 267.464 117.695,269.225 119.630,269.855 120.400 C 270.484 121.170,271.314 122.149,271.700 122.575 C 272.085 123.002,272.400 123.510,272.400 123.704 C 272.400 123.898,272.670 124.327,273.000 124.657 C 274.168 125.825,273.569 124.569,271.892 122.336 C 269.798 119.548,263.976 113.200,263.512 113.200 C 263.325 113.200,264.418 114.505,265.941 116.100 M132.975 118.500 L 131.800 119.800 133.100 118.625 C 133.815 117.979,134.400 117.394,134.400 117.325 C 134.400 117.016,134.070 117.288,132.975 118.500 M274.022 125.800 C 274.027 126.329,275.142 127.791,275.369 127.565 C 275.466 127.468,275.202 126.941,274.782 126.394 C 274.361 125.847,274.020 125.580,274.022 125.800 M275.609 128.300 C 275.614 128.465,275.985 129.050,276.433 129.600 L 277.248 130.600 276.614 129.300 C 276.011 128.065,275.589 127.645,275.609 128.300 M278.819 133.900 C 278.846 134.336,281.159 138.654,281.181 138.312 C 281.209 137.893,279.211 133.600,278.988 133.600 C 278.885 133.600,278.808 133.735,278.819 133.900 M188.800 135.873 C 194.937 136.148,216.685 136.174,216.263 135.906 C 216.008 135.744,209.140 135.645,201.000 135.684 C 192.860 135.724,187.370 135.809,188.800 135.873 M219.791 137.200 C 221.326 137.613,222.657 137.877,222.748 137.785 C 222.840 137.694,222.664 137.550,222.357 137.466 C 222.051 137.382,221.157 137.108,220.372 136.856 C 219.586 136.605,218.506 136.411,217.972 136.424 C 217.437 136.437,218.256 136.786,219.791 137.200 M176.493 138.580 C 175.247 139.268,174.856 139.706,175.812 139.343 C 177.303 138.775,178.599 138.005,178.000 138.042 C 177.670 138.062,176.992 138.304,176.493 138.580 M224.538 138.847 C 225.384 139.293,226.160 139.574,226.263 139.471 C 226.489 139.244,224.057 137.993,223.439 138.018 C 223.197 138.027,223.692 138.400,224.538 138.847 M281.407 139.650 C 281.567 140.172,282.037 141.309,282.449 142.175 C 282.862 143.041,283.200 143.989,283.200 144.281 C 283.200 144.572,283.362 145.123,283.561 145.505 C 283.760 145.887,284.139 147.010,284.403 148.000 C 285.119 150.675,285.600 151.696,285.345 150.000 C 285.230 149.230,284.995 148.240,284.823 147.800 C 284.651 147.360,284.294 146.280,284.029 145.400 C 283.536 143.762,282.979 142.336,282.353 141.105 C 282.159 140.723,282.000 140.149,282.000 139.829 C 282.000 139.509,281.801 139.124,281.557 138.974 C 281.253 138.786,281.206 138.998,281.407 139.650 M172.229 141.008 C 171.144 141.758,169.974 142.669,169.629 143.032 C 169.283 143.396,169.900 143.071,171.000 142.310 C 172.100 141.550,173.445 140.629,173.989 140.264 C 174.533 139.899,174.803 139.610,174.589 139.622 C 174.375 139.634,173.313 140.258,172.229 141.008 M228.856 141.166 C 229.375 141.587,229.877 141.855,229.971 141.761 C 230.176 141.557,228.744 140.431,228.256 140.413 C 228.066 140.406,228.336 140.745,228.856 141.166 M231.194 142.782 C 231.741 143.202,232.268 143.466,232.365 143.369 C 232.591 143.142,231.129 142.027,230.600 142.022 C 230.380 142.020,230.647 142.361,231.194 142.782 M166.406 145.794 C 165.663 146.561,165.132 147.250,165.227 147.325 C 165.322 147.400,166.006 146.773,166.746 145.931 C 168.429 144.018,168.212 143.931,166.406 145.794 M235.206 146.117 C 235.203 146.292,235.656 146.922,236.214 147.517 C 236.772 148.113,237.785 149.462,238.466 150.515 C 239.146 151.569,239.787 152.346,239.890 152.243 C 239.993 152.140,239.540 151.279,238.884 150.328 C 237.423 148.213,235.215 145.685,235.206 146.117 M285.600 152.910 C 285.600 153.703,285.791 154.471,286.026 154.616 C 286.315 154.795,286.362 154.388,286.172 153.339 C 285.803 151.297,285.600 151.145,285.600 152.910 M286.464 156.697 L 286.400 158.393 264.500 158.500 L 242.600 158.607 264.513 158.703 C 288.581 158.809,287.016 158.976,286.692 156.338 C 286.544 155.129,286.522 155.163,286.464 156.697 M157.849 161.015 C 157.712 161.373,157.618 162.056,157.641 162.533 C 157.667 163.081,157.803 162.886,158.010 162.003 C 158.360 160.516,158.265 159.933,157.849 161.015 M114.120 162.800 C 114.120 164.010,114.195 164.505,114.287 163.900 C 114.378 163.295,114.378 162.305,114.287 161.700 C 114.195 161.095,114.120 161.590,114.120 162.800 M157.052 165.300 C 156.718 166.546,156.792 234.038,157.128 234.885 C 157.278 235.262,157.400 219.557,157.400 199.985 C 157.400 180.413,157.376 164.400,157.347 164.400 C 157.317 164.400,157.185 164.805,157.052 165.300 M114.120 237.200 C 114.120 238.410,114.195 238.905,114.287 238.300 C 114.378 237.695,114.378 236.705,114.287 236.100 C 114.195 235.495,114.120 235.990,114.120 237.200 M157.606 237.633 C 157.609 238.165,157.789 238.870,158.006 239.200 C 158.282 239.622,158.323 239.385,158.142 238.400 C 157.825 236.675,157.598 236.349,157.606 237.633 M264.500 241.500 L 286.400 241.607 286.457 243.303 L 286.514 245.000 286.759 243.400 C 287.111 241.105,288.163 241.204,264.400 241.303 L 242.600 241.393 264.500 241.500 M285.849 245.815 C 285.712 246.173,285.618 246.946,285.640 247.533 C 285.673 248.391,285.752 248.295,286.046 247.040 C 286.422 245.439,286.295 244.653,285.849 245.815 M115.606 247.833 C 115.609 248.255,115.795 248.870,116.018 249.200 C 116.315 249.638,116.352 249.476,116.156 248.600 C 115.827 247.129,115.598 246.810,115.606 247.833 M238.321 249.694 C 237.551 250.852,235.994 252.746,234.861 253.902 C 232.307 256.507,232.125 257.222,234.637 254.783 C 236.623 252.855,240.214 248.081,239.909 247.776 C 239.806 247.672,239.091 248.536,238.321 249.694 M285.013 249.700 C 284.880 250.195,284.581 251.320,284.347 252.200 C 284.113 253.080,283.760 254.113,283.561 254.495 C 283.362 254.877,283.200 255.464,283.200 255.800 C 283.200 256.136,283.041 256.723,282.847 257.105 C 281.955 258.858,281.132 261.200,281.407 261.200 C 281.665 261.200,282.660 258.741,283.655 255.645 C 284.123 254.190,284.647 252.640,284.820 252.200 C 285.215 251.198,285.636 248.800,285.417 248.800 C 285.327 248.800,285.145 249.205,285.013 249.700 M163.191 250.388 C 163.657 251.041,164.242 251.702,164.491 251.856 C 164.741 252.011,164.441 251.476,163.825 250.668 C 162.488 248.915,161.984 248.692,163.191 250.388 M166.600 254.400 C 167.683 255.500,168.647 256.400,168.741 256.400 C 169.080 256.400,165.391 252.480,165.015 252.441 C 164.803 252.418,165.517 253.300,166.600 254.400 M230.038 258.040 C 227.452 259.907,227.671 260.130,230.328 258.335 C 232.643 256.771,232.568 256.833,232.367 256.640 C 232.275 256.552,231.227 257.182,230.038 258.040 M279.859 263.859 C 279.256 265.089,278.842 266.175,278.939 266.273 C 279.037 266.370,279.609 265.443,280.212 264.212 C 280.814 262.981,281.228 261.894,281.131 261.798 C 281.035 261.701,280.462 262.629,279.859 263.859 M221.400 262.400 C 220.629 262.731,220.631 262.745,221.476 262.772 C 221.958 262.787,222.464 262.620,222.600 262.400 C 222.892 261.927,222.501 261.927,221.400 262.400 M218.800 263.200 L 217.800 263.520 218.876 263.560 C 219.468 263.582,220.064 263.420,220.200 263.200 C 220.481 262.745,220.220 262.745,218.800 263.200 M213.800 264.000 L 212.200 264.286 214.276 264.343 C 215.418 264.374,216.464 264.220,216.600 264.000 C 216.870 263.563,216.242 263.563,213.800 264.000 M192.100 264.299 C 195.565 264.366,201.235 264.366,204.700 264.299 C 208.165 264.233,205.330 264.178,198.400 264.178 C 191.470 264.178,188.635 264.233,192.100 264.299 M276.222 270.622 C 275.845 271.198,275.616 271.749,275.714 271.847 C 275.812 271.945,276.200 271.554,276.578 270.978 C 276.955 270.402,277.184 269.851,277.086 269.753 C 276.988 269.655,276.600 270.046,276.222 270.622 M274.469 273.239 C 273.710 274.454,274.166 274.616,274.955 273.412 C 275.320 272.856,275.478 272.400,275.305 272.400 C 275.133 272.400,274.757 272.778,274.469 273.239 M272.492 276.229 C 271.997 276.983,271.672 277.600,271.769 277.600 C 272.047 277.600,273.704 275.171,273.539 275.006 C 273.457 274.924,272.986 275.474,272.492 276.229 M270.013 279.324 C 268.735 281.008,260.903 288.821,259.500 289.813 C 258.895 290.240,258.400 290.744,258.400 290.932 C 258.400 291.485,262.117 288.214,265.979 284.264 C 269.719 280.438,271.398 278.465,271.137 278.203 C 271.052 278.118,270.546 278.623,270.013 279.324 M132.629 281.238 C 133.273 282.029,133.881 282.608,133.979 282.525 C 134.078 282.442,133.551 281.795,132.809 281.087 L 131.458 279.800 132.629 281.238 M143.600 291.325 C 143.600 291.424,144.261 292.009,145.068 292.625 C 145.876 293.241,146.411 293.541,146.256 293.291 C 145.940 292.779,143.600 291.047,143.600 291.325 M255.829 292.609 C 255.405 292.929,255.138 293.271,255.235 293.369 C 255.332 293.466,255.859 293.202,256.406 292.782 C 256.953 292.361,257.220 292.020,257.000 292.022 C 256.780 292.024,256.253 292.288,255.829 292.609 M253.700 294.088 C 253.205 294.327,252.800 294.679,252.800 294.870 C 252.800 295.062,253.250 294.924,253.800 294.563 C 255.267 293.602,255.216 293.357,253.700 294.088 M249.600 296.800 C 249.050 297.230,248.780 297.582,249.000 297.582 C 249.220 297.582,249.850 297.230,250.400 296.800 C 250.950 296.370,251.220 296.018,251.000 296.018 C 250.780 296.018,250.150 296.370,249.600 296.800 M244.200 299.485 C 242.220 300.486,240.150 301.483,239.600 301.700 C 239.050 301.916,238.287 302.252,237.905 302.447 C 237.523 302.641,236.859 302.800,236.429 302.800 C 235.999 302.800,235.536 302.980,235.400 303.200 C 235.264 303.420,234.724 303.600,234.200 303.600 C 233.676 303.600,233.136 303.780,233.000 304.000 C 232.864 304.220,232.850 304.400,232.968 304.400 C 233.481 304.400,239.541 302.250,240.975 301.559 C 241.841 301.141,242.786 300.800,243.075 300.800 C 243.364 300.800,243.600 300.620,243.600 300.400 C 243.600 300.180,243.834 300.000,244.120 300.000 C 244.856 300.000,246.793 299.059,246.797 298.700 C 246.799 298.535,247.059 298.400,247.376 298.400 C 247.693 298.400,248.064 298.220,248.200 298.000 C 248.608 297.341,247.971 297.577,244.200 299.485 M170.000 304.800 C 171.368 305.238,172.419 305.238,171.400 304.800 C 170.960 304.611,170.240 304.462,169.800 304.468 C 169.157 304.477,169.196 304.543,170.000 304.800 M230.190 304.816 C 230.021 305.089,230.323 305.138,231.066 304.960 C 232.599 304.592,232.744 304.400,231.490 304.400 C 230.917 304.400,230.332 304.587,230.190 304.816 M226.990 305.616 C 226.821 305.889,227.123 305.938,227.866 305.760 C 229.399 305.392,229.544 305.200,228.290 305.200 C 227.717 305.200,227.132 305.387,226.990 305.616 M176.100 306.276 C 176.485 306.376,177.115 306.376,177.500 306.276 C 177.885 306.175,177.570 306.093,176.800 306.093 C 176.030 306.093,175.715 306.175,176.100 306.276 M222.584 306.426 C 222.405 306.715,222.812 306.762,223.861 306.572 C 225.903 306.203,226.055 306.000,224.290 306.000 C 223.497 306.000,222.729 306.191,222.584 306.426 M182.307 307.090 C 183.026 307.179,184.106 307.177,184.707 307.086 C 185.308 306.995,184.720 306.922,183.400 306.924 C 182.080 306.926,181.588 307.001,182.307 307.090 M214.400 307.200 C 213.006 307.493,213.008 307.495,214.800 307.524 C 215.790 307.541,217.320 307.405,218.200 307.223 L 219.800 306.892 217.800 306.899 C 216.700 306.902,215.170 307.038,214.400 307.200 M189.500 307.498 C 191.535 307.571,194.865 307.571,196.900 307.498 C 198.935 307.425,197.270 307.366,193.200 307.366 C 189.130 307.366,187.465 307.425,189.500 307.498 " stroke="none" fill="#e49c94" fill-rule="evenodd"></path></g></svg>
