<svg id="svg" version="1.1" xmlns="http://www.w3.org/2000/svg" xmlns:xlink="http://www.w3.org/1999/xlink"  viewBox="0 -10 512 512"><g id="svgg"><path id="path0" d="M20.800 48.399 C 20.800 48.620,20.178 48.800,19.419 48.800 C 18.659 48.800,17.534 49.002,16.919 49.250 C 16.303 49.497,15.440 49.842,15.000 50.016 C 12.266 51.098,11.600 51.428,11.600 51.698 C 11.600 51.864,11.330 52.000,11.000 52.000 C 10.670 52.000,10.400 52.180,10.400 52.400 C 10.400 52.620,10.217 52.800,9.993 52.800 C 9.395 52.800,4.400 57.895,4.400 58.504 C 4.400 58.790,4.040 59.283,3.600 59.600 C 3.160 59.917,2.800 60.407,2.800 60.688 C 2.800 60.970,2.620 61.200,2.400 61.200 C 2.180 61.200,2.000 61.549,2.000 61.976 C 2.000 62.403,1.820 62.864,1.600 63.000 C 1.380 63.136,1.200 63.582,1.200 63.990 C 1.200 64.399,0.975 64.808,0.700 64.900 C 0.308 65.030,0.174 70.720,0.081 91.133 L -0.038 117.200 179.557 117.200 C 298.856 117.200,359.236 117.334,359.400 117.600 C 359.560 117.858,366.811 118.000,379.845 118.000 L 400.042 118.000 399.921 91.333 C 399.826 70.442,399.692 64.630,399.300 64.500 C 399.025 64.408,398.800 63.988,398.800 63.567 C 398.800 63.145,398.620 62.800,398.400 62.800 C 398.180 62.800,398.000 62.440,398.000 62.000 C 398.000 61.560,397.820 61.200,397.600 61.200 C 397.380 61.200,397.200 60.930,397.200 60.600 C 397.200 60.270,397.020 60.000,396.800 60.000 C 396.580 60.000,396.400 59.748,396.400 59.441 C 396.400 58.904,390.711 52.800,390.211 52.800 C 390.076 52.800,389.580 52.440,389.108 52.000 C 388.636 51.560,388.013 51.200,387.725 51.200 C 387.436 51.200,387.200 51.020,387.200 50.800 C 387.200 50.580,386.851 50.400,386.424 50.400 C 385.997 50.400,385.536 50.220,385.400 50.000 C 385.264 49.780,384.713 49.600,384.176 49.600 C 383.639 49.600,383.200 49.438,383.200 49.240 C 383.200 49.042,382.345 48.748,381.300 48.585 C 378.260 48.113,20.800 47.928,20.800 48.399 M47.200 72.024 C 60.350 74.977,58.724 94.800,45.331 94.800 C 31.618 94.800,29.603 75.135,43.000 72.049 C 45.128 71.559,45.129 71.559,47.200 72.024 M82.800 72.237 C 92.739 75.689,93.890 89.315,84.600 93.547 C 83.940 93.847,83.087 94.252,82.705 94.447 C 81.793 94.911,77.382 94.902,76.495 94.434 C 76.113 94.232,75.162 93.791,74.382 93.454 C 62.013 88.103,70.063 67.813,82.800 72.237 M117.815 72.667 C 121.879 74.052,125.200 78.781,125.200 83.184 C 125.200 92.930,113.432 98.119,106.384 91.482 C 97.565 83.177,106.327 68.753,117.815 72.667 " stroke="none" fill="#688bd2" fill-rule="evenodd"></path><path id="path1" d="M0.095 226.667 C 0.179 313.170,0.302 335.367,0.700 335.500 C 0.975 335.592,1.200 336.012,1.200 336.433 C 1.200 336.855,1.380 337.200,1.600 337.200 C 1.820 337.200,2.000 337.560,2.000 338.000 C 2.000 338.440,2.136 338.800,2.302 338.800 C 2.469 338.800,2.841 339.334,3.130 339.988 C 3.716 341.311,9.303 347.200,9.973 347.200 C 10.208 347.200,10.400 347.380,10.400 347.600 C 10.400 347.820,10.670 348.000,11.000 348.000 C 11.330 348.000,11.601 348.135,11.603 348.300 C 11.607 348.659,13.544 349.600,14.280 349.600 C 14.566 349.600,14.800 349.780,14.800 350.000 C 14.800 350.220,15.250 350.400,15.800 350.400 C 16.350 350.400,16.800 350.580,16.800 350.800 C 16.800 351.020,17.599 351.200,18.576 351.200 C 19.553 351.200,20.464 351.380,20.600 351.600 C 20.764 351.866,80.996 352.000,200.000 352.000 C 319.004 352.000,379.236 351.866,379.400 351.600 C 379.536 351.380,380.346 351.200,381.200 351.200 C 382.054 351.200,382.864 351.020,383.000 350.800 C 383.136 350.580,383.777 350.400,384.424 350.400 C 385.071 350.400,385.600 350.220,385.600 350.000 C 385.600 349.780,385.960 349.600,386.400 349.600 C 386.840 349.600,387.200 349.420,387.200 349.200 C 387.200 348.980,387.436 348.800,387.725 348.800 C 388.013 348.800,388.636 348.440,389.108 348.000 C 389.580 347.560,390.073 347.200,390.203 347.200 C 390.452 347.200,395.311 342.297,396.500 340.845 C 396.885 340.375,397.200 339.723,397.200 339.395 C 397.200 339.068,397.380 338.800,397.600 338.800 C 397.820 338.800,398.000 338.440,398.000 338.000 C 398.000 337.560,398.180 337.200,398.400 337.200 C 398.620 337.200,398.800 336.855,398.800 336.433 C 398.800 336.012,399.025 335.592,399.300 335.500 C 399.698 335.367,399.821 313.223,399.904 226.933 L 400.009 118.532 369.704 118.266 C 353.037 118.120,263.033 118.000,169.695 118.000 L -0.010 118.000 0.095 226.667 M114.458 167.204 C 123.293 168.066,129.548 169.981,136.600 173.985 C 141.465 176.747,142.400 177.952,142.400 181.457 C 142.400 187.453,137.276 189.302,130.852 185.623 C 128.953 184.536,126.590 183.350,125.600 182.986 C 124.610 182.623,123.440 182.183,123.000 182.008 C 118.853 180.364,109.420 179.501,105.200 180.380 C 103.990 180.632,102.100 181.022,101.000 181.247 C 99.900 181.472,98.640 181.805,98.200 181.987 C 97.760 182.170,96.770 182.545,96.000 182.820 C 90.421 184.815,82.578 190.794,79.198 195.628 C 78.670 196.382,78.140 197.090,78.019 197.200 C 77.297 197.859,73.600 205.199,73.600 205.975 C 73.600 206.341,73.449 206.811,73.264 207.020 C 73.080 207.229,72.705 208.480,72.432 209.800 C 72.159 211.120,71.754 212.938,71.533 213.839 C 70.881 216.495,71.575 228.063,72.441 228.980 C 72.638 229.189,72.800 229.853,72.800 230.456 C 72.800 231.059,72.980 231.664,73.200 231.800 C 73.420 231.936,73.600 232.318,73.600 232.649 C 73.600 235.284,79.068 243.577,83.800 248.120 C 88.593 252.721,93.387 255.241,102.721 258.067 C 104.524 258.613,116.906 258.586,117.938 258.033 C 118.383 257.795,119.199 257.600,119.750 257.600 C 120.302 257.600,120.864 257.420,121.000 257.200 C 121.136 256.980,121.578 256.800,121.983 256.800 C 123.898 256.800,130.069 252.826,133.409 249.441 C 138.528 244.255,144.605 245.053,145.728 251.058 C 146.754 256.544,136.435 265.813,125.400 269.318 C 110.037 274.197,89.762 270.438,78.514 260.624 C 78.247 260.391,76.980 259.300,75.699 258.200 C 70.238 253.513,64.671 245.537,61.948 238.500 C 61.073 236.239,60.882 235.711,60.455 234.372 C 60.205 233.586,60.000 232.562,60.000 232.095 C 60.000 231.629,59.843 231.150,59.650 231.031 C 58.337 230.219,58.326 209.201,59.639 207.820 C 59.837 207.611,60.000 207.084,60.000 206.648 C 60.000 205.667,60.595 203.737,61.957 200.300 C 64.813 193.090,69.487 186.200,74.800 181.367 C 78.668 177.849,79.436 177.218,79.867 177.209 C 80.123 177.204,80.393 177.055,80.467 176.877 C 80.820 176.020,87.649 172.227,92.200 170.361 C 95.602 168.965,102.431 167.486,107.400 167.069 C 108.280 166.995,109.296 166.904,109.658 166.867 C 110.019 166.830,112.179 166.982,114.458 167.204 M204.316 167.231 C 206.452 167.467,209.280 167.934,210.600 168.267 C 211.920 168.601,213.497 168.968,214.105 169.083 C 214.713 169.198,215.308 169.451,215.429 169.646 C 215.549 169.841,215.952 170.004,216.324 170.008 C 216.696 170.013,218.800 170.933,221.000 172.052 C 223.200 173.171,225.404 174.292,225.897 174.543 C 226.390 174.794,226.795 175.135,226.797 175.300 C 226.799 175.465,227.025 175.600,227.300 175.600 C 227.575 175.601,228.340 176.066,229.000 176.635 C 229.660 177.204,230.403 177.789,230.651 177.935 C 232.698 179.139,233.680 182.758,232.635 185.251 C 230.663 189.959,225.777 190.509,220.633 186.602 C 217.576 184.281,211.108 181.615,205.587 180.401 C 190.257 177.029,176.699 189.435,183.568 200.548 C 184.838 202.603,185.794 203.290,189.700 204.959 C 190.525 205.312,191.875 205.888,192.700 206.241 C 193.525 206.593,194.560 207.019,195.000 207.187 C 197.047 207.969,197.923 208.347,199.538 209.143 C 200.494 209.614,201.441 210.000,201.642 210.000 C 201.844 210.000,202.772 210.348,203.704 210.773 C 204.637 211.197,206.300 211.840,207.400 212.202 C 208.500 212.563,209.940 213.087,210.600 213.367 C 211.260 213.646,213.148 214.447,214.795 215.147 C 223.416 218.807,230.746 225.188,233.698 231.600 C 237.506 239.874,236.340 250.842,230.930 257.638 C 225.409 264.573,219.962 268.107,210.800 270.700 C 207.669 271.586,195.715 271.550,191.634 270.643 C 177.586 267.519,164.000 258.157,164.000 251.600 C 164.000 248.759,165.666 246.000,167.381 246.000 C 167.695 246.000,168.064 245.820,168.200 245.600 C 169.060 244.209,172.717 245.430,175.545 248.052 C 178.131 250.450,182.810 253.755,185.303 254.945 C 187.142 255.822,188.844 256.411,194.308 258.062 C 196.152 258.620,207.958 258.602,208.518 258.042 C 208.761 257.799,209.260 257.600,209.626 257.600 C 209.993 257.600,211.603 256.944,213.205 256.143 C 217.711 253.889,220.715 250.533,222.749 245.481 C 224.765 240.477,220.817 232.731,214.534 229.362 C 213.690 228.910,212.640 228.348,212.200 228.114 C 210.336 227.121,206.866 225.647,204.400 224.800 C 202.707 224.218,201.240 223.629,200.305 223.153 C 199.923 222.959,199.426 222.800,199.201 222.800 C 198.976 222.800,198.028 222.459,197.096 222.042 C 196.163 221.625,193.960 220.708,192.200 220.004 C 180.685 215.399,179.397 214.693,175.700 210.968 C 173.885 209.139,172.400 207.363,172.400 207.021 C 172.400 206.679,172.264 206.400,172.098 206.400 C 171.931 206.400,171.556 205.815,171.264 205.100 C 170.972 204.385,170.586 203.440,170.407 203.000 C 169.127 199.861,169.000 199.101,169.000 194.600 C 169.000 188.211,170.272 183.966,173.459 179.716 C 179.459 171.716,187.113 167.993,199.916 166.846 C 200.199 166.821,202.179 166.994,204.316 167.231 M294.732 167.241 C 312.135 169.225,327.298 179.795,322.257 186.430 C 319.593 189.938,316.254 190.129,311.514 187.043 C 302.718 181.317,292.503 178.686,285.846 180.432 C 280.771 181.762,279.471 182.321,276.851 184.298 C 273.068 187.152,270.632 194.522,272.353 197.905 C 272.548 198.287,272.944 199.107,273.235 199.726 C 274.394 202.196,275.835 203.227,281.400 205.563 C 281.840 205.748,283.100 206.304,284.200 206.800 C 286.157 207.682,287.287 208.156,289.100 208.854 C 289.595 209.044,290.405 209.356,290.900 209.546 C 291.395 209.737,292.295 210.097,292.900 210.346 C 293.505 210.596,294.450 210.980,295.000 211.200 C 295.550 211.420,296.405 211.763,296.900 211.963 C 297.395 212.163,299.780 213.091,302.200 214.025 C 312.285 217.919,322.800 226.059,322.800 229.972 C 322.800 230.207,322.936 230.400,323.102 230.400 C 323.269 230.400,323.640 230.985,323.929 231.700 C 324.217 232.415,324.621 233.313,324.826 233.695 C 325.032 234.077,325.200 234.831,325.200 235.371 C 325.200 235.911,325.380 236.464,325.600 236.600 C 325.834 236.745,326.000 239.063,326.000 242.200 C 326.000 245.337,325.834 247.655,325.600 247.800 C 325.380 247.936,325.200 248.489,325.200 249.029 C 325.200 249.569,325.040 250.323,324.844 250.705 C 324.648 251.087,324.070 252.300,323.559 253.400 C 315.436 270.902,288.227 277.117,268.547 265.963 C 267.806 265.544,266.525 264.819,265.700 264.354 C 264.875 263.888,264.110 263.378,264.000 263.219 C 263.890 263.061,263.509 262.767,263.154 262.566 C 257.298 259.249,252.982 253.344,254.025 250.076 C 255.898 244.211,261.152 243.705,266.703 248.856 C 269.113 251.092,273.700 254.400,274.390 254.400 C 274.678 254.400,276.206 255.096,278.895 256.450 C 279.277 256.643,279.941 256.800,280.371 256.800 C 280.801 256.800,281.264 256.980,281.400 257.200 C 281.536 257.420,282.098 257.600,282.650 257.600 C 283.201 257.600,284.011 257.792,284.449 258.026 C 285.565 258.624,297.912 258.648,298.506 258.054 C 298.756 257.804,299.286 257.600,299.685 257.600 C 300.084 257.600,300.723 257.440,301.105 257.244 C 301.487 257.048,302.694 256.463,303.786 255.944 C 306.476 254.666,310.440 250.886,311.568 248.525 C 312.074 247.466,312.648 246.287,312.844 245.905 C 313.367 244.886,313.278 239.418,312.717 238.119 C 310.416 232.784,305.240 228.764,296.600 225.600 C 296.160 225.439,295.260 225.079,294.600 224.800 C 293.229 224.221,291.761 223.630,290.600 223.190 C 286.114 221.490,273.661 216.413,271.718 215.493 C 267.815 213.642,263.073 208.713,261.241 204.600 C 260.947 203.940,260.548 203.087,260.353 202.705 C 260.159 202.323,260.000 201.569,260.000 201.029 C 260.000 200.489,259.820 199.936,259.600 199.800 C 259.045 199.457,259.091 190.199,259.656 188.428 C 261.446 182.823,263.504 179.265,266.850 175.989 C 269.067 173.818,272.060 171.600,272.772 171.600 C 273.007 171.600,273.200 171.420,273.200 171.200 C 273.200 170.980,273.382 170.800,273.604 170.800 C 273.827 170.800,274.772 170.447,275.704 170.015 C 278.948 168.514,283.547 167.520,290.332 166.852 C 290.624 166.824,292.604 166.998,294.732 167.241 " stroke="none" fill="#d7e9fb" fill-rule="evenodd"></path><path id="path2" d="M101.200 168.627 C 97.138 169.437,93.356 170.568,90.500 171.827 C 86.813 173.452,85.968 173.906,83.200 175.747 C 78.146 179.109,73.018 183.626,70.400 187.022 C 59.967 200.557,56.263 218.213,60.796 232.800 C 60.967 233.350,61.340 234.610,61.625 235.600 C 65.486 249.033,76.731 260.804,92.200 267.608 C 104.828 273.162,123.811 271.420,135.324 263.651 C 145.468 256.806,148.015 250.417,141.861 247.250 C 139.138 245.848,137.508 246.422,133.588 250.165 C 125.687 257.708,115.137 261.095,105.531 259.174 C 104.359 258.940,102.410 258.549,101.200 258.307 C 99.990 258.064,98.820 257.748,98.600 257.605 C 98.380 257.461,97.390 257.095,96.400 256.791 C 94.653 256.253,94.075 255.975,90.511 253.957 C 85.479 251.106,77.236 243.264,77.207 241.300 C 77.203 241.025,77.041 240.800,76.847 240.800 C 76.652 240.800,76.390 240.485,76.264 240.100 C 76.138 239.715,75.611 238.680,75.093 237.800 C 70.318 229.691,69.243 217.142,72.458 207.045 C 73.294 204.418,75.603 199.486,76.098 199.267 C 76.264 199.193,76.400 198.956,76.400 198.739 C 76.400 197.995,78.798 194.859,81.799 191.678 C 94.610 178.100,115.106 175.436,131.600 185.206 C 136.980 188.392,141.872 186.632,141.971 181.474 C 142.010 179.429,139.959 176.000,138.697 176.000 C 138.503 176.000,137.592 175.493,136.672 174.873 C 134.559 173.449,130.938 171.773,127.400 170.580 C 119.948 168.066,108.344 167.202,101.200 168.627 M193.000 168.459 C 188.590 169.495,187.766 169.773,184.278 171.398 C 178.192 174.235,172.560 180.519,170.835 186.400 C 170.544 187.390,170.148 188.722,169.953 189.360 C 167.945 195.951,170.934 205.454,176.857 211.312 C 179.733 214.156,182.336 215.410,198.200 221.590 C 208.597 225.641,207.604 225.231,211.320 227.002 C 217.784 230.083,221.364 233.373,223.177 237.901 C 223.783 239.413,223.853 245.149,223.279 246.249 C 223.064 246.662,222.474 247.866,221.968 248.925 C 219.191 254.739,209.975 259.600,201.731 259.600 C 198.106 259.600,191.703 258.318,187.800 256.810 C 186.529 256.319,183.020 254.631,182.800 254.405 C 182.690 254.291,182.100 253.941,181.488 253.625 C 180.505 253.118,179.101 251.992,173.729 247.400 C 170.185 244.370,164.400 246.945,164.400 251.554 C 164.400 257.259,177.658 266.474,190.400 269.624 C 233.412 280.258,253.672 229.794,212.400 214.827 C 211.630 214.548,210.640 214.175,210.200 213.999 C 209.760 213.822,208.320 213.280,207.000 212.793 C 205.680 212.306,203.837 211.569,202.904 211.154 C 201.972 210.739,200.973 210.400,200.684 210.400 C 200.396 210.400,199.989 210.247,199.780 210.060 C 199.571 209.872,198.140 209.227,196.600 208.626 C 193.163 207.284,191.459 206.553,189.462 205.563 C 188.616 205.143,187.697 204.800,187.419 204.800 C 186.383 204.800,183.220 201.519,182.222 199.410 C 178.635 191.827,183.764 182.778,193.037 180.332 C 196.873 179.320,204.543 179.133,207.200 179.986 C 207.750 180.163,209.010 180.532,210.000 180.806 C 210.990 181.080,212.604 181.660,213.587 182.095 C 214.570 182.530,215.828 183.059,216.382 183.269 C 216.936 183.480,218.832 184.606,220.595 185.772 C 224.954 188.655,226.353 189.080,228.628 188.211 C 233.789 186.240,233.492 180.530,228.037 176.825 C 224.005 174.087,222.390 173.233,216.600 170.779 C 210.846 168.340,198.619 167.138,193.000 168.459 M284.600 168.191 C 284.380 168.262,282.850 168.623,281.200 168.994 C 278.252 169.656,272.384 172.187,270.705 173.521 C 259.312 182.574,256.404 195.906,263.404 207.000 C 265.299 210.004,270.438 214.800,271.762 214.800 C 271.882 214.800,273.109 215.315,274.490 215.945 C 275.870 216.575,280.510 218.483,284.800 220.186 C 292.340 223.178,293.240 223.536,295.400 224.400 C 295.950 224.620,296.850 224.980,297.400 225.200 C 297.950 225.420,298.805 225.756,299.300 225.946 C 315.428 232.155,318.823 245.300,306.795 254.962 C 305.374 256.103,301.621 258.000,300.783 258.000 C 300.378 258.000,299.951 258.156,299.833 258.347 C 299.225 259.331,289.901 259.705,285.800 258.910 C 280.919 257.964,281.223 258.047,278.200 256.820 C 273.157 254.772,267.124 250.782,264.036 247.452 C 260.828 243.992,254.800 246.730,254.800 251.646 L 254.800 254.065 258.100 257.381 C 276.189 275.558,308.266 275.258,320.804 256.794 C 330.350 242.736,324.945 225.812,308.189 217.293 C 306.330 216.348,295.586 212.000,295.110 212.000 C 294.935 212.000,293.938 211.622,292.896 211.160 C 290.818 210.240,289.478 209.677,288.100 209.146 C 285.772 208.250,285.283 208.049,283.600 207.292 C 281.378 206.293,279.468 205.469,277.466 204.644 C 272.101 202.434,269.538 194.184,272.482 188.600 C 277.836 178.445,293.327 176.367,307.593 183.890 C 309.459 184.875,311.619 186.176,312.393 186.783 C 315.224 189.003,318.334 189.182,320.541 187.250 C 323.315 184.822,322.848 179.631,319.703 177.948 C 319.206 177.682,318.800 177.315,318.800 177.132 C 318.800 176.950,318.530 176.800,318.200 176.800 C 317.870 176.800,317.600 176.653,317.600 176.474 C 317.600 175.127,304.396 169.564,298.576 168.460 C 296.446 168.056,285.668 167.849,284.600 168.191 " stroke="none" fill="#5c5555" fill-rule="evenodd"></path><path id="path3" d="M42.800 72.650 C 34.677 74.156,31.599 84.813,37.522 90.925 C 45.344 98.997,58.798 90.831,55.548 79.985 C 54.036 74.938,48.290 71.632,42.800 72.650 M77.200 72.655 C 69.093 74.204,65.953 84.427,71.676 90.637 C 78.277 97.797,90.400 93.123,90.400 83.417 C 90.400 76.393,84.180 71.322,77.200 72.655 " stroke="none" fill="#de9f7a" fill-rule="evenodd"></path><path id="path4" d="M110.130 72.655 C 102.423 75.386,100.351 85.800,106.384 91.482 C 111.918 96.694,121.137 94.765,124.241 87.746 C 128.174 78.853,119.330 69.395,110.130 72.655 M117.400 73.200 C 117.536 73.420,117.914 73.600,118.240 73.600 C 119.274 73.600,122.695 76.769,123.445 78.421 C 124.752 81.301,125.242 84.880,124.400 85.400 C 124.180 85.536,124.000 86.000,124.000 86.432 C 124.000 91.433,113.596 95.930,109.225 92.817 C 108.593 92.368,107.948 92.000,107.791 92.000 C 107.231 92.000,105.158 89.370,104.340 87.621 C 102.619 83.941,104.058 77.026,106.947 75.098 C 110.001 73.060,110.627 72.855,113.876 72.828 C 115.678 72.812,117.264 72.980,117.400 73.200 M0.000 117.600 C 0.000 117.866,60.208 118.000,179.824 118.000 C 299.604 118.000,359.565 117.866,359.400 117.600 C 359.057 117.045,0.000 117.045,0.000 117.600 " stroke="none" fill="#98b0d5" fill-rule="evenodd"></path><path id="path5" d="M43.000 72.049 C 29.603 75.135,31.618 94.800,45.331 94.800 C 58.724 94.800,60.350 74.977,47.200 72.024 C 45.129 71.559,45.128 71.559,43.000 72.049 M50.511 73.761 C 55.255 76.390,57.360 82.906,55.047 87.800 C 50.088 98.289,34.450 94.904,34.409 83.333 C 34.379 75.065,43.298 69.763,50.511 73.761 M68.101 83.400 C 68.105 84.280,68.187 84.593,68.283 84.095 C 68.379 83.598,68.375 82.878,68.275 82.495 C 68.175 82.113,68.096 82.520,68.101 83.400 M78.500 94.687 C 79.105 94.778,80.095 94.778,80.700 94.687 C 81.305 94.595,80.810 94.520,79.600 94.520 C 78.390 94.520,77.895 94.595,78.500 94.687 M106.000 167.600 C 104.888 167.773,106.569 167.882,110.400 167.886 C 114.784 167.891,116.014 167.802,114.600 167.582 C 112.201 167.208,108.470 167.216,106.000 167.600 M197.000 167.600 C 195.991 167.781,197.394 167.888,200.800 167.890 C 204.813 167.892,205.686 167.813,204.200 167.582 C 201.789 167.206,199.163 167.213,197.000 167.600 M287.000 167.600 C 285.988 167.781,287.384 167.889,290.800 167.893 C 294.719 167.898,295.706 167.812,294.400 167.580 C 292.251 167.197,289.202 167.206,287.000 167.600 M100.600 168.400 L 99.800 168.744 100.600 168.725 C 101.040 168.714,101.940 168.568,102.600 168.400 L 103.800 168.095 102.600 168.075 C 101.940 168.065,101.040 168.211,100.600 168.400 M118.600 168.400 C 119.260 168.568,120.160 168.714,120.600 168.725 L 121.400 168.744 120.600 168.400 C 120.160 168.211,119.260 168.065,118.600 168.075 L 117.400 168.095 118.600 168.400 M191.800 168.400 L 191.000 168.744 191.800 168.732 C 192.240 168.726,193.050 168.576,193.600 168.400 L 194.600 168.080 193.600 168.068 C 193.050 168.062,192.240 168.211,191.800 168.400 M207.800 168.400 C 208.460 168.568,209.360 168.714,209.800 168.725 L 210.600 168.744 209.800 168.400 C 209.360 168.211,208.460 168.065,207.800 168.075 L 206.600 168.095 207.800 168.400 M282.000 168.421 C 281.570 168.714,281.854 168.754,283.000 168.562 C 284.984 168.230,285.304 167.998,283.767 168.006 C 283.125 168.009,282.330 168.196,282.000 168.421 M298.000 168.400 C 298.550 168.576,299.360 168.726,299.800 168.732 L 300.600 168.744 299.800 168.400 C 299.360 168.211,298.550 168.062,298.000 168.068 L 297.000 168.080 298.000 168.400 M97.000 169.200 L 96.200 169.544 97.000 169.566 C 97.440 169.578,98.070 169.413,98.400 169.200 C 99.195 168.686,98.196 168.686,97.000 169.200 M122.800 169.200 C 123.130 169.413,123.760 169.578,124.200 169.566 L 125.000 169.544 124.200 169.200 C 123.004 168.686,122.005 168.686,122.800 169.200 M188.600 169.200 L 187.800 169.544 188.600 169.566 C 189.040 169.578,189.670 169.413,190.000 169.200 C 190.795 168.686,189.796 168.686,188.600 169.200 M211.800 169.200 C 212.240 169.389,212.870 169.544,213.200 169.544 C 213.578 169.544,213.504 169.417,213.000 169.200 C 212.560 169.011,211.930 168.856,211.600 168.856 C 211.222 168.856,211.296 168.983,211.800 169.200 M278.800 169.200 C 278.005 169.714,279.004 169.714,280.200 169.200 L 281.000 168.856 280.200 168.834 C 279.760 168.822,279.130 168.987,278.800 169.200 M302.000 169.200 C 302.330 169.413,302.870 169.588,303.200 169.588 C 303.733 169.588,303.733 169.545,303.200 169.200 C 302.870 168.987,302.330 168.812,302.000 168.812 C 301.467 168.812,301.467 168.855,302.000 169.200 M94.400 170.000 C 93.867 170.345,93.867 170.388,94.400 170.388 C 94.730 170.388,95.270 170.213,95.600 170.000 C 96.133 169.655,96.133 169.612,95.600 169.612 C 95.270 169.612,94.730 169.787,94.400 170.000 M125.600 170.000 C 125.930 170.213,126.470 170.388,126.800 170.388 C 127.333 170.388,127.333 170.345,126.800 170.000 C 126.470 169.787,125.930 169.612,125.600 169.612 C 125.067 169.612,125.067 169.655,125.600 170.000 M214.400 170.000 C 214.730 170.213,215.270 170.388,215.600 170.388 C 216.133 170.388,216.133 170.345,215.600 170.000 C 215.270 169.787,214.730 169.612,214.400 169.612 C 213.867 169.612,213.867 169.655,214.400 170.000 M304.400 170.000 C 304.730 170.213,305.270 170.388,305.600 170.388 C 306.133 170.388,306.133 170.345,305.600 170.000 C 305.270 169.787,304.730 169.612,304.400 169.612 C 303.867 169.612,303.867 169.655,304.400 170.000 M92.000 170.800 C 91.467 171.145,91.467 171.188,92.000 171.188 C 92.330 171.188,92.870 171.013,93.200 170.800 C 93.733 170.455,93.733 170.412,93.200 170.412 C 92.870 170.412,92.330 170.587,92.000 170.800 M128.000 170.800 C 128.330 171.013,128.870 171.188,129.200 171.188 C 129.733 171.188,129.733 171.145,129.200 170.800 C 128.870 170.587,128.330 170.412,128.000 170.412 C 127.467 170.412,127.467 170.455,128.000 170.800 M183.865 171.047 C 183.240 171.386,182.806 171.739,182.900 171.833 C 183.087 172.020,185.600 170.846,185.600 170.571 C 185.600 170.262,185.018 170.422,183.865 171.047 M273.461 171.446 C 272.394 172.001,271.600 172.533,271.695 172.629 C 271.791 172.724,272.843 172.265,274.034 171.608 C 276.658 170.162,276.186 170.029,273.461 171.446 M307.958 171.237 C 308.925 171.666,309.788 171.945,309.875 171.858 C 310.048 171.686,306.965 170.382,306.492 170.428 C 306.331 170.444,306.991 170.808,307.958 171.237 M89.200 172.000 C 88.430 172.422,87.913 172.774,88.051 172.783 C 88.465 172.811,91.200 171.605,91.200 171.395 C 91.200 171.046,90.625 171.220,89.200 172.000 M130.000 171.395 C 130.000 171.605,132.735 172.811,133.149 172.783 C 133.470 172.762,130.701 171.239,130.300 171.217 C 130.135 171.208,130.000 171.288,130.000 171.395 M218.400 171.395 C 218.400 171.605,221.135 172.811,221.549 172.783 C 221.870 172.762,219.101 171.239,218.700 171.217 C 218.535 171.208,218.400 171.288,218.400 171.395 M179.603 173.861 C 177.068 175.767,173.675 179.521,172.588 181.622 C 171.631 183.474,172.150 183.006,173.785 180.543 C 175.501 177.960,178.542 174.847,180.831 173.332 C 182.264 172.384,182.670 172.000,182.240 172.000 C 182.151 172.000,180.965 172.838,179.603 173.861 M222.800 173.567 C 223.763 174.352,224.400 174.608,224.400 174.210 C 224.400 174.106,223.815 173.735,223.100 173.386 L 221.800 172.752 222.800 173.567 M269.181 174.294 C 266.862 176.203,263.738 179.781,262.627 181.800 C 261.536 183.784,260.312 186.846,260.526 187.059 C 260.613 187.146,261.005 186.359,261.398 185.309 C 262.840 181.448,267.697 175.321,270.597 173.704 C 271.035 173.460,271.296 173.163,271.178 173.044 C 271.059 172.926,270.160 173.488,269.181 174.294 M81.970 176.082 C 70.970 183.323,61.304 197.456,59.866 208.400 C 59.608 210.365,59.800 209.874,60.882 205.800 C 62.613 199.284,65.811 192.975,70.400 187.022 C 73.054 183.579,78.573 178.754,83.700 175.394 C 85.746 174.053,86.294 173.600,85.870 173.600 C 85.799 173.600,84.044 174.717,81.970 176.082 M136.000 174.361 C 136.550 174.813,137.543 175.444,138.206 175.765 C 139.475 176.379,140.791 177.659,141.533 179.000 C 141.777 179.440,141.981 179.568,141.988 179.285 C 142.008 178.450,139.160 175.787,137.000 174.620 C 135.529 173.825,135.264 173.757,136.000 174.361 M314.400 174.364 C 314.950 174.814,315.580 175.183,315.800 175.185 C 316.228 175.188,315.505 174.634,314.200 173.960 C 313.669 173.685,313.736 173.821,314.400 174.364 M224.800 174.530 C 224.800 174.627,225.984 175.477,227.431 176.420 C 231.080 178.798,232.171 180.323,232.171 183.047 C 232.171 184.532,232.283 184.995,232.532 184.550 C 233.056 183.614,232.582 180.836,231.694 179.635 C 230.620 178.182,224.800 173.873,224.800 174.530 M319.624 177.857 C 322.884 179.881,323.362 184.782,320.541 187.250 C 318.344 189.174,315.247 189.004,312.400 186.806 C 310.823 185.587,305.915 182.798,305.362 182.805 C 305.163 182.807,306.170 183.458,307.600 184.251 C 309.030 185.043,311.010 186.266,312.000 186.967 C 316.217 189.954,319.643 189.690,321.900 186.202 C 323.879 183.143,321.894 177.118,318.938 177.211 C 318.752 177.216,319.061 177.508,319.624 177.857 M109.900 179.482 C 110.395 179.578,111.205 179.578,111.700 179.482 C 112.195 179.387,111.790 179.309,110.800 179.309 C 109.810 179.309,109.405 179.387,109.900 179.482 M200.100 179.476 C 200.485 179.576,201.115 179.576,201.500 179.476 C 201.885 179.375,201.570 179.293,200.800 179.293 C 200.030 179.293,199.715 179.375,200.100 179.476 M290.100 179.476 C 290.485 179.576,291.115 179.576,291.500 179.476 C 291.885 179.375,291.570 179.293,290.800 179.293 C 290.030 179.293,289.715 179.375,290.100 179.476 M103.000 180.000 C 101.936 180.457,103.603 180.457,105.400 180.000 L 106.600 179.695 105.200 179.675 C 104.430 179.665,103.440 179.811,103.000 180.000 M114.833 179.749 C 114.925 179.831,115.900 180.007,117.000 180.141 C 118.346 180.305,118.739 180.265,118.200 180.020 C 117.439 179.674,114.483 179.436,114.833 179.749 M194.400 180.021 C 193.970 180.314,194.254 180.354,195.400 180.162 C 197.384 179.830,197.704 179.598,196.167 179.606 C 195.525 179.609,194.730 179.796,194.400 180.021 M205.000 180.000 C 206.876 180.477,207.939 180.477,207.200 180.000 C 206.870 179.787,205.970 179.631,205.200 179.653 L 203.800 179.695 205.000 180.000 M284.400 180.012 C 283.981 180.291,284.342 180.333,285.600 180.150 C 287.841 179.825,288.160 179.598,286.367 179.606 C 285.615 179.609,284.730 179.792,284.400 180.012 M294.433 179.747 C 294.525 179.828,295.320 180.014,296.200 180.162 C 297.346 180.354,297.630 180.314,297.200 180.021 C 296.660 179.653,294.032 179.393,294.433 179.747 M142.101 181.400 C 142.105 182.280,142.187 182.593,142.283 182.095 C 142.379 181.598,142.375 180.878,142.275 180.495 C 142.175 180.113,142.096 180.520,142.101 181.400 M99.600 180.800 C 98.836 181.294,99.658 181.294,101.200 180.800 L 102.200 180.480 101.200 180.446 C 100.650 180.427,99.930 180.587,99.600 180.800 M120.200 180.800 C 121.396 181.314,122.395 181.314,121.600 180.800 C 121.270 180.587,120.640 180.422,120.200 180.434 L 119.400 180.456 120.200 180.800 M281.600 180.800 C 281.067 181.145,281.067 181.188,281.600 181.188 C 281.930 181.188,282.470 181.013,282.800 180.800 C 283.333 180.455,283.333 180.412,282.800 180.412 C 282.470 180.412,281.930 180.587,281.600 180.800 M299.000 180.800 C 300.196 181.314,301.195 181.314,300.400 180.800 C 300.070 180.587,299.440 180.422,299.000 180.434 L 298.200 180.456 299.000 180.800 M97.200 181.600 C 96.667 181.945,96.667 181.988,97.200 181.988 C 97.530 181.988,98.070 181.813,98.400 181.600 C 98.933 181.255,98.933 181.212,98.400 181.212 C 98.070 181.212,97.530 181.387,97.200 181.600 M189.100 181.829 C 187.549 182.670,187.725 182.961,189.300 182.159 C 190.808 181.393,191.075 181.194,190.567 181.216 C 190.365 181.225,189.705 181.501,189.100 181.829 M302.758 182.037 C 303.725 182.466,304.600 182.734,304.702 182.632 C 304.924 182.410,302.094 181.188,301.451 181.228 C 301.203 181.244,301.791 181.608,302.758 182.037 M216.134 183.621 C 217.858 184.495,220.063 185.756,221.034 186.424 C 222.006 187.092,222.800 187.536,222.800 187.411 C 222.800 187.033,217.533 183.768,215.449 182.855 C 212.369 181.505,212.710 181.887,216.134 183.621 M277.207 183.104 C 270.560 188.331,269.230 196.953,274.238 202.354 C 274.767 202.925,275.200 203.251,275.200 203.079 C 275.200 202.907,274.824 202.369,274.365 201.883 C 269.402 196.633,271.553 186.851,278.622 182.524 C 279.050 182.261,279.220 182.038,279.000 182.028 C 278.780 182.017,277.973 182.502,277.207 183.104 M91.180 184.324 C 87.526 186.459,84.535 188.762,82.200 191.238 C 80.241 193.317,80.255 193.310,82.906 190.888 C 85.769 188.272,90.400 185.014,92.900 183.857 C 94.322 183.199,94.772 182.800,94.094 182.800 C 93.925 182.800,92.614 183.486,91.180 184.324 M126.833 182.932 C 126.925 183.005,128.260 183.737,129.800 184.558 C 131.340 185.380,132.240 185.756,131.800 185.394 C 130.941 184.688,127.409 182.800,126.947 182.800 C 126.793 182.800,126.742 182.860,126.833 182.932 M185.744 184.100 C 184.277 185.385,182.000 188.582,182.000 189.357 C 182.000 189.577,182.549 188.866,183.220 187.778 C 183.891 186.690,185.196 185.125,186.120 184.301 C 187.044 183.477,187.671 182.802,187.514 182.801 C 187.357 182.800,186.560 183.385,185.744 184.100 M141.219 184.149 C 140.411 186.274,136.974 187.528,134.376 186.645 C 132.891 186.140,132.726 186.136,133.369 186.616 C 135.852 188.468,140.973 186.840,141.726 183.960 C 142.008 182.882,141.650 183.016,141.219 184.149 M170.600 185.600 C 170.450 186.073,170.417 186.550,170.527 186.660 C 170.637 186.770,170.850 186.473,171.000 186.000 C 171.150 185.527,171.183 185.050,171.073 184.940 C 170.963 184.830,170.750 185.127,170.600 185.600 M231.063 186.561 C 229.949 188.260,227.217 189.014,224.923 188.253 C 223.327 187.724,223.131 187.715,223.769 188.203 C 225.226 189.314,227.046 189.362,229.070 188.344 C 230.613 187.568,232.639 185.600,231.895 185.600 C 231.783 185.600,231.409 186.032,231.063 186.561 M169.800 188.400 C 169.648 189.091,169.614 189.747,169.724 189.857 C 169.834 189.967,170.048 189.491,170.200 188.800 C 170.352 188.109,170.386 187.453,170.276 187.343 C 170.166 187.233,169.952 187.709,169.800 188.400 M259.854 189.154 C 259.700 190.118,259.658 190.991,259.761 191.094 C 260.030 191.363,260.515 188.545,260.307 187.922 C 260.212 187.636,260.008 188.190,259.854 189.154 M181.449 190.615 C 181.312 190.973,181.216 191.656,181.236 192.133 C 181.262 192.747,181.385 192.608,181.659 191.656 C 182.057 190.272,181.894 189.458,181.449 190.615 M169.340 194.400 C 169.340 196.270,169.409 197.035,169.493 196.100 C 169.577 195.165,169.577 193.635,169.493 192.700 C 169.409 191.765,169.340 192.530,169.340 194.400 M259.331 194.200 C 259.333 195.740,259.405 196.321,259.492 195.491 C 259.579 194.661,259.577 193.401,259.489 192.691 C 259.400 191.981,259.329 192.660,259.331 194.200 M78.190 195.836 C 76.710 197.874,75.615 199.971,76.955 198.200 C 79.402 194.965,80.090 193.956,79.945 193.812 C 79.854 193.720,79.064 194.631,78.190 195.836 M181.234 196.600 C 181.222 197.040,181.387 197.670,181.600 198.000 C 182.114 198.795,182.114 197.796,181.600 196.600 L 181.256 195.800 181.234 196.600 M259.668 198.200 C 259.674 198.640,259.824 199.450,260.000 200.000 L 260.320 201.000 260.332 200.000 C 260.338 199.450,260.189 198.640,260.000 198.200 L 259.656 197.400 259.668 198.200 M169.656 199.200 C 169.656 199.530,169.811 200.160,170.000 200.600 C 170.217 201.104,170.344 201.178,170.344 200.800 C 170.344 200.470,170.189 199.840,170.000 199.400 C 169.783 198.896,169.656 198.822,169.656 199.200 M182.001 199.040 C 181.999 199.643,184.070 202.424,185.241 203.391 C 185.834 203.881,185.719 203.652,184.940 202.791 C 184.247 202.026,183.302 200.770,182.841 200.000 C 182.380 199.230,182.002 198.798,182.001 199.040 M74.524 201.910 C 69.095 213.358,69.327 228.008,75.093 237.800 C 75.611 238.680,76.138 239.715,76.264 240.100 C 76.390 240.485,76.673 240.800,76.893 240.800 C 77.112 240.800,76.966 240.305,76.567 239.700 C 69.640 229.191,69.172 212.363,75.489 200.900 C 76.004 199.965,76.285 199.205,76.113 199.210 C 75.941 199.216,75.226 200.431,74.524 201.910 M260.621 202.100 C 261.593 205.281,267.487 213.906,267.582 212.287 C 267.592 212.114,266.953 211.326,266.163 210.536 C 264.361 208.735,262.343 205.578,261.408 203.100 C 260.680 201.169,260.119 200.457,260.621 202.100 M170.412 202.000 C 170.412 202.330,170.587 202.870,170.800 203.200 C 171.145 203.733,171.188 203.733,171.188 203.200 C 171.188 202.870,171.013 202.330,170.800 202.000 C 170.455 201.467,170.412 201.467,170.412 202.000 M275.600 203.554 C 275.600 203.883,277.609 204.924,277.826 204.707 C 277.893 204.640,277.420 204.282,276.774 203.911 C 276.128 203.540,275.600 203.380,275.600 203.554 M188.400 204.971 C 188.400 205.229,190.860 206.402,191.361 206.383 C 191.603 206.374,191.170 206.022,190.400 205.600 C 189.006 204.837,188.400 204.646,188.400 204.971 M172.596 206.792 C 173.254 208.065,178.008 213.326,178.266 213.067 C 178.351 212.982,177.541 212.033,176.466 210.956 C 175.391 209.880,174.012 208.235,173.403 207.300 C 172.117 205.328,171.705 205.069,172.596 206.792 M192.200 206.689 C 192.420 206.903,194.130 207.673,196.000 208.400 C 197.870 209.127,199.571 209.875,199.780 210.061 C 199.989 210.248,200.396 210.400,200.684 210.400 C 200.973 210.400,201.972 210.739,202.904 211.154 C 203.837 211.569,205.680 212.303,207.000 212.786 C 208.320 213.269,209.713 213.830,210.095 214.032 C 210.477 214.234,210.983 214.400,211.221 214.400 C 211.458 214.400,213.019 215.031,214.690 215.803 C 216.360 216.575,217.805 217.128,217.901 217.032 C 218.081 216.852,214.862 215.329,212.400 214.430 C 211.073 213.946,210.397 213.683,208.300 212.837 C 206.147 211.968,192.594 206.586,192.217 206.450 C 191.939 206.350,191.934 206.430,192.200 206.689 M282.400 206.565 C 282.400 206.809,284.831 208.000,285.328 208.000 C 285.551 208.000,285.649 207.916,285.546 207.813 C 285.233 207.500,282.400 206.377,282.400 206.565 M286.174 208.357 C 286.324 208.601,286.786 208.800,287.200 208.800 C 287.614 208.800,288.064 208.980,288.200 209.200 C 288.336 209.420,288.752 209.593,289.124 209.584 C 289.608 209.573,289.516 209.416,288.800 209.034 C 287.228 208.194,285.854 207.840,286.174 208.357 M59.040 212.931 C 58.869 214.434,58.821 215.754,58.932 215.865 C 59.211 216.144,59.717 211.881,59.515 210.953 C 59.425 210.539,59.211 211.429,59.040 212.931 M292.000 210.567 C 292.000 210.833,293.418 211.452,295.354 212.030 C 296.861 212.481,296.360 211.989,294.693 211.380 C 293.982 211.120,293.085 210.774,292.700 210.611 C 292.315 210.448,292.000 210.428,292.000 210.567 M268.000 212.574 C 268.000 212.915,270.819 214.914,271.019 214.714 C 271.128 214.606,270.493 214.038,269.608 213.453 C 268.724 212.868,268.000 212.472,268.000 212.574 M299.600 213.661 C 305.302 215.979,306.598 216.456,306.200 216.089 C 305.712 215.640,297.559 212.388,297.000 212.419 C 296.780 212.431,297.950 212.990,299.600 213.661 M179.048 213.677 C 179.333 214.138,182.437 215.696,182.649 215.484 C 182.744 215.390,181.925 214.869,180.831 214.327 C 179.736 213.786,178.934 213.493,179.048 213.677 M272.938 215.647 C 273.784 216.093,274.568 216.365,274.681 216.252 C 274.876 216.057,272.180 214.780,271.651 214.818 C 271.513 214.827,272.092 215.200,272.938 215.647 M185.200 216.595 C 185.200 216.805,187.935 218.011,188.349 217.983 C 188.670 217.962,185.901 216.439,185.500 216.417 C 185.335 216.408,185.200 216.488,185.200 216.595 M306.833 216.549 C 307.245 216.917,309.600 218.000,309.600 217.821 C 309.600 217.590,307.382 216.400,306.953 216.400 C 306.796 216.400,306.742 216.467,306.833 216.549 M218.400 217.390 C 218.400 217.494,218.985 217.865,219.700 218.214 L 221.000 218.848 220.000 218.033 C 219.037 217.248,218.400 216.992,218.400 217.390 M277.400 217.491 C 277.987 218.066,295.259 224.874,295.505 224.628 C 295.620 224.513,295.374 224.308,294.957 224.173 C 294.541 224.038,293.840 223.780,293.400 223.600 C 291.986 223.023,277.849 217.405,277.417 217.250 C 277.139 217.150,277.134 217.231,277.400 217.491 M58.514 219.400 C 58.517 220.500,58.595 220.903,58.687 220.295 C 58.779 219.686,58.777 218.786,58.682 218.295 C 58.587 217.803,58.511 218.300,58.514 219.400 M310.000 218.129 C 310.000 218.216,310.990 218.944,312.201 219.748 C 318.614 224.006,324.680 232.078,324.828 236.553 C 324.844 237.019,325.023 237.760,325.227 238.200 C 325.842 239.528,325.188 235.673,324.521 234.041 C 322.219 228.405,319.193 224.406,314.698 221.057 C 311.927 218.993,310.000 217.792,310.000 218.129 M192.358 219.637 C 193.325 220.066,194.188 220.345,194.275 220.258 C 194.448 220.086,191.365 218.782,190.892 218.828 C 190.731 218.844,191.391 219.208,192.358 219.637 M222.000 219.585 C 222.550 220.046,223.360 220.610,223.800 220.838 C 224.346 221.122,224.282 220.987,223.600 220.415 C 223.050 219.954,222.240 219.390,221.800 219.162 C 221.254 218.878,221.318 219.013,222.000 219.585 M195.000 220.800 C 195.136 221.020,195.509 221.200,195.829 221.200 C 196.149 221.200,196.723 221.359,197.105 221.553 C 197.998 222.007,198.963 222.401,203.600 224.206 C 205.690 225.019,208.255 226.023,209.300 226.436 C 210.345 226.850,211.200 227.109,211.200 227.013 C 211.200 226.733,209.475 226.000,200.898 222.636 C 194.797 220.243,194.622 220.189,195.000 220.800 M224.800 221.333 C 224.800 221.502,225.797 222.560,227.015 223.684 C 228.234 224.808,229.971 226.872,230.875 228.270 C 231.780 229.669,232.599 230.734,232.696 230.637 C 233.047 230.286,229.613 225.742,227.236 223.413 C 225.896 222.099,224.800 221.164,224.800 221.333 M58.877 223.800 C 58.867 224.460,59.003 225.810,59.180 226.800 L 59.500 228.600 59.503 226.800 C 59.504 225.810,59.368 224.460,59.200 223.800 L 58.895 222.600 58.877 223.800 M302.000 227.392 C 302.000 227.497,302.765 227.973,303.700 228.450 C 304.635 228.926,305.985 229.761,306.700 230.305 C 307.415 230.850,308.000 231.130,308.000 230.928 C 308.000 230.726,306.738 229.804,305.195 228.880 C 302.413 227.214,302.000 227.022,302.000 227.392 M215.209 229.432 C 218.051 231.291,219.765 232.931,221.442 235.395 C 222.189 236.492,222.800 237.244,222.800 237.067 C 222.800 235.271,215.230 228.000,213.361 228.000 C 213.172 228.000,214.004 228.645,215.209 229.432 M59.668 229.400 C 59.674 229.840,59.824 230.650,60.000 231.200 L 60.320 232.200 60.332 231.200 C 60.338 230.650,60.189 229.840,60.000 229.400 L 59.656 228.600 59.668 229.400 M232.800 231.356 C 232.800 231.765,234.384 234.942,234.391 234.549 C 234.403 233.965,233.249 231.200,232.995 231.200 C 232.888 231.200,232.800 231.270,232.800 231.356 M308.416 231.233 C 308.407 231.362,309.108 232.234,309.974 233.172 C 315.135 238.762,314.768 246.170,309.025 252.333 C 307.691 253.765,307.061 254.637,307.625 254.271 C 312.968 250.806,315.467 242.311,312.802 236.679 C 312.009 235.006,308.459 230.597,308.416 231.233 M60.400 232.687 C 60.400 233.369,61.705 237.367,62.060 237.773 C 62.239 237.978,62.194 237.528,61.960 236.773 C 61.725 236.018,61.384 234.801,61.202 234.068 C 60.866 232.719,60.400 231.917,60.400 232.687 M234.434 235.600 C 234.446 235.930,234.611 236.560,234.800 237.000 L 235.144 237.800 235.166 237.000 C 235.178 236.560,235.013 235.930,234.800 235.600 C 234.455 235.067,234.415 235.067,234.434 235.600 M223.058 238.800 C 223.375 240.525,223.602 240.851,223.594 239.567 C 223.591 239.035,223.411 238.330,223.194 238.000 C 222.918 237.578,222.877 237.815,223.058 238.800 M62.410 238.681 C 62.388 239.765,66.581 247.235,69.040 250.494 C 72.338 254.866,81.600 263.526,81.600 262.237 C 81.600 262.121,80.565 261.271,79.300 260.350 C 73.688 256.262,67.111 248.115,63.839 241.200 C 63.058 239.550,62.415 238.416,62.410 238.681 M235.294 242.200 C 235.294 245.674,235.338 245.937,235.628 244.200 C 235.813 243.100,235.813 241.300,235.629 240.200 C 235.338 238.463,235.294 238.726,235.294 242.200 M325.734 242.400 C 325.734 244.050,325.805 244.725,325.891 243.900 C 325.978 243.075,325.978 241.725,325.891 240.900 C 325.805 240.075,325.734 240.750,325.734 242.400 M77.207 241.433 C 77.244 243.266,89.733 254.801,90.668 253.865 C 90.781 253.752,90.335 253.380,89.675 253.039 C 87.166 251.741,82.310 247.473,79.955 244.497 C 77.008 240.771,77.198 240.983,77.207 241.433 M223.254 244.467 C 223.225 244.834,223.084 245.464,222.941 245.867 C 222.741 246.433,222.795 246.496,223.175 246.146 C 223.446 245.897,223.587 245.267,223.488 244.746 C 223.390 244.226,223.284 244.100,223.254 244.467 M169.200 245.820 C 169.530 245.890,170.458 246.054,171.263 246.184 C 172.314 246.355,173.551 247.163,175.663 249.059 C 178.804 251.878,181.943 254.190,182.234 253.899 C 182.332 253.801,181.449 253.082,180.271 252.300 C 179.093 251.518,177.048 249.877,175.726 248.652 C 173.111 246.231,171.833 245.575,169.874 245.646 C 169.173 245.672,168.870 245.750,169.200 245.820 M258.200 245.884 C 257.341 246.090,254.800 248.338,254.800 248.892 C 254.800 249.076,255.427 248.599,256.194 247.833 C 257.092 246.935,258.124 246.351,259.094 246.193 C 261.631 245.778,261.855 245.693,260.400 245.693 C 259.630 245.693,258.640 245.779,258.200 245.884 M325.028 247.100 C 324.142 252.196,321.004 257.449,316.121 262.009 C 314.404 263.612,313.441 264.628,313.981 264.267 C 317.284 262.058,321.811 256.603,323.512 252.781 C 324.966 249.517,326.044 245.600,325.489 245.600 C 325.379 245.600,325.172 246.275,325.028 247.100 M137.200 246.742 C 136.430 247.132,134.714 248.537,133.387 249.864 C 132.059 251.191,129.941 252.962,128.681 253.799 C 127.420 254.636,126.468 255.401,126.566 255.499 C 126.900 255.833,130.571 253.045,133.588 250.165 C 138.084 245.873,142.407 245.453,144.240 249.131 C 144.806 250.265,145.200 250.655,145.200 250.081 C 145.200 247.507,139.985 245.330,137.200 246.742 M166.537 246.709 C 164.470 248.365,163.351 251.963,164.395 253.600 C 164.658 254.013,164.703 253.739,164.540 252.722 C 164.130 250.170,165.614 247.259,167.767 246.388 C 168.275 246.182,168.366 246.044,168.000 246.034 C 167.670 246.025,167.012 246.329,166.537 246.709 M262.400 246.295 C 262.730 246.423,264.249 247.665,265.775 249.055 C 267.301 250.446,268.620 251.513,268.705 251.428 C 268.849 251.284,266.588 249.087,264.060 246.912 C 263.477 246.411,262.730 246.015,262.400 246.032 C 261.867 246.060,261.867 246.089,262.400 246.295 M221.723 248.522 C 220.575 250.885,219.009 252.648,216.261 254.671 C 213.633 256.605,213.535 257.034,216.128 255.249 C 219.201 253.134,223.496 247.762,222.728 246.994 C 222.630 246.897,222.178 247.584,221.723 248.522 M234.309 249.038 C 233.949 250.331,233.714 251.447,233.787 251.520 C 234.018 251.751,235.272 247.616,235.114 247.142 C 235.031 246.893,234.668 247.746,234.309 249.038 M254.289 250.515 C 253.681 252.691,254.628 254.615,257.880 257.815 C 259.554 259.462,260.981 260.752,261.051 260.683 C 261.120 260.613,259.752 259.105,258.010 257.333 C 254.847 254.114,254.843 254.107,254.722 251.755 C 254.622 249.824,254.544 249.601,254.289 250.515 M145.309 252.400 C 145.309 253.390,145.387 253.795,145.482 253.300 C 145.578 252.805,145.578 251.995,145.482 251.500 C 145.387 251.005,145.309 251.410,145.309 252.400 M269.571 252.158 C 270.113 252.818,272.400 254.196,272.400 253.863 C 272.400 253.777,271.635 253.202,270.700 252.585 C 269.739 251.951,269.248 251.766,269.571 252.158 M232.678 253.405 C 232.312 254.172,232.095 254.800,232.196 254.800 C 232.470 254.800,233.684 252.351,233.501 252.168 C 233.414 252.081,233.044 252.638,232.678 253.405 M91.348 254.315 C 91.646 254.798,95.169 256.564,95.391 256.342 C 95.494 256.240,94.579 255.666,93.359 255.067 C 92.138 254.469,91.233 254.130,91.348 254.315 M182.807 254.304 C 182.816 254.666,186.764 256.569,187.005 256.328 C 187.100 256.233,186.193 255.673,184.989 255.082 C 183.785 254.492,182.803 254.142,182.807 254.304 M144.201 255.500 C 143.078 257.290,138.206 261.772,135.391 263.606 C 133.953 264.543,132.863 265.397,132.970 265.503 C 133.307 265.840,138.492 261.949,141.339 259.223 C 143.642 257.018,145.660 254.400,145.056 254.400 C 144.966 254.400,144.581 254.895,144.201 255.500 M164.800 254.756 C 164.800 255.688,173.216 262.760,176.100 264.252 C 178.142 265.308,177.219 264.516,173.900 262.364 C 172.085 261.188,169.295 258.923,167.700 257.332 C 166.105 255.741,164.800 254.581,164.800 254.756 M274.400 254.996 C 274.400 255.270,276.849 256.484,277.032 256.301 C 277.119 256.214,276.562 255.844,275.795 255.478 C 275.028 255.112,274.400 254.895,274.400 254.996 M305.194 255.618 C 304.647 256.039,304.380 256.380,304.600 256.378 C 305.129 256.373,306.591 255.258,306.365 255.031 C 306.268 254.934,305.741 255.198,305.194 255.618 M229.896 257.772 C 227.335 261.232,223.651 264.318,219.053 266.853 C 216.658 268.174,216.852 268.393,219.316 267.151 C 223.560 265.012,229.851 259.386,231.451 256.300 C 232.310 254.641,231.987 254.947,229.896 257.772 M187.707 256.624 C 188.116 257.054,190.842 257.994,191.600 257.966 C 191.930 257.954,191.570 257.712,190.800 257.429 C 188.430 256.558,187.386 256.286,187.707 256.624 M301.800 257.222 C 300.920 257.638,300.487 257.984,300.839 257.990 C 301.495 258.000,304.000 256.876,304.000 256.571 C 304.000 256.277,303.455 256.439,301.800 257.222 M98.600 257.600 C 98.736 257.820,99.242 257.987,99.724 257.972 C 100.569 257.945,100.571 257.931,99.800 257.600 C 98.699 257.127,98.308 257.127,98.600 257.600 M121.000 257.600 C 120.229 257.931,120.231 257.945,121.076 257.972 C 121.558 257.987,122.064 257.820,122.200 257.600 C 122.492 257.127,122.101 257.127,121.000 257.600 M280.190 257.584 C 280.332 257.813,280.917 258.000,281.490 258.000 C 282.744 258.000,282.599 257.808,281.066 257.440 C 280.323 257.262,280.021 257.311,280.190 257.584 M101.400 258.397 C 102.164 258.728,105.114 258.955,104.767 258.656 C 104.675 258.577,103.700 258.409,102.600 258.282 C 101.313 258.133,100.885 258.174,101.400 258.397 M117.600 258.400 L 116.200 258.695 117.600 258.741 C 118.370 258.767,119.270 258.613,119.600 258.400 C 120.327 257.930,119.833 257.930,117.600 258.400 M193.000 258.397 C 193.764 258.728,196.714 258.955,196.367 258.656 C 196.275 258.577,195.300 258.409,194.200 258.282 C 192.913 258.133,192.485 258.174,193.000 258.397 M206.600 258.661 C 204.800 259.038,202.514 259.181,200.200 259.062 C 198.101 258.954,197.017 259.011,197.600 259.199 C 199.909 259.941,208.903 259.231,209.907 258.227 C 210.204 257.929,209.917 257.967,206.600 258.661 M283.221 258.421 C 283.755 258.760,286.742 258.981,286.367 258.655 C 286.275 258.575,285.399 258.408,284.421 258.282 C 283.270 258.135,282.846 258.184,283.221 258.421 M298.200 258.400 L 297.000 258.705 298.276 258.753 C 298.978 258.779,299.664 258.620,299.800 258.400 C 300.074 257.957,299.940 257.957,298.200 258.400 M106.034 259.250 C 107.268 259.595,113.908 259.603,115.123 259.260 C 115.631 259.117,113.576 258.995,110.556 258.990 C 107.537 258.984,105.502 259.101,106.034 259.250 M287.600 259.240 C 288.892 259.602,295.194 259.626,296.083 259.272 C 296.459 259.122,294.479 258.991,291.683 258.980 C 288.888 258.969,287.050 259.086,287.600 259.240 M261.600 260.993 C 261.600 261.277,266.068 264.222,267.600 264.948 C 269.132 265.674,268.900 265.504,264.546 262.708 C 262.926 261.668,261.600 260.896,261.600 260.993 M82.600 262.996 C 83.494 263.739,86.028 265.109,85.400 264.510 C 85.180 264.300,84.280 263.724,83.400 263.230 C 82.520 262.735,82.160 262.630,82.600 262.996 M86.000 264.993 C 86.000 265.371,92.034 268.099,92.295 267.839 C 92.416 267.718,92.174 267.495,91.757 267.344 C 91.111 267.109,87.215 265.355,86.300 264.887 C 86.135 264.802,86.000 264.850,86.000 264.993 M177.859 265.219 C 178.471 265.831,185.625 268.858,186.092 268.703 C 186.310 268.630,184.760 267.886,182.646 267.049 C 180.532 266.213,178.702 265.364,178.578 265.164 C 178.454 264.964,178.147 264.800,177.896 264.800 C 177.578 264.800,177.567 264.927,177.859 265.219 M310.884 265.866 C 309.940 266.435,309.248 266.981,309.347 267.080 C 309.524 267.257,312.800 265.233,312.800 264.947 C 312.800 264.721,312.717 264.760,310.884 265.866 M130.800 266.400 C 130.030 266.822,129.544 267.174,129.720 267.183 C 130.144 267.205,132.400 266.032,132.400 265.790 C 132.400 265.528,132.377 265.537,130.800 266.400 M127.000 268.022 C 126.120 268.438,125.603 268.784,125.851 268.790 C 126.432 268.803,129.200 267.650,129.200 267.395 C 129.200 267.077,128.691 267.222,127.000 268.022 M93.200 268.400 C 93.530 268.613,94.070 268.788,94.400 268.788 C 94.933 268.788,94.933 268.745,94.400 268.400 C 94.070 268.187,93.530 268.012,93.200 268.012 C 92.667 268.012,92.667 268.055,93.200 268.400 M96.000 269.182 C 96.330 269.405,96.945 269.591,97.367 269.594 C 98.390 269.602,98.071 269.373,96.600 269.044 C 95.724 268.848,95.562 268.885,96.000 269.182 M123.400 269.200 L 122.600 269.544 123.400 269.566 C 123.840 269.578,124.470 269.413,124.800 269.200 C 125.595 268.686,124.596 268.686,123.400 269.200 M187.600 269.182 C 187.930 269.405,188.545 269.591,188.967 269.594 C 189.990 269.602,189.671 269.373,188.200 269.044 C 187.324 268.848,187.162 268.885,187.600 269.182 M213.400 269.200 C 212.629 269.531,212.631 269.545,213.476 269.572 C 213.958 269.587,214.464 269.420,214.600 269.200 C 214.892 268.727,214.501 268.727,213.400 269.200 M277.600 269.200 C 277.930 269.413,278.560 269.578,279.000 269.566 L 279.800 269.544 279.000 269.200 C 277.804 268.686,276.805 268.686,277.600 269.200 M302.792 269.375 C 299.784 270.484,295.738 270.905,289.766 270.730 C 285.802 270.614,284.337 270.672,285.400 270.905 C 289.584 271.821,303.645 270.489,305.095 269.038 C 305.487 268.647,304.296 268.821,302.792 269.375 M98.800 269.979 C 99.130 270.204,99.925 270.391,100.567 270.394 C 102.104 270.402,101.784 270.170,99.800 269.838 C 98.654 269.646,98.370 269.686,98.800 269.979 M120.200 270.000 L 119.000 270.305 120.200 270.347 C 120.860 270.369,121.670 270.213,122.000 270.000 C 122.743 269.520,122.087 269.520,120.200 270.000 M190.400 269.979 C 190.730 270.204,191.525 270.391,192.167 270.394 C 193.704 270.402,193.384 270.170,191.400 269.838 C 190.254 269.646,189.970 269.686,190.400 269.979 M210.400 270.000 L 209.400 270.320 210.400 270.354 C 210.950 270.373,211.670 270.213,212.000 270.000 C 212.764 269.506,211.942 269.506,210.400 270.000 M280.600 269.990 C 281.364 270.328,283.914 270.557,283.567 270.256 C 283.475 270.176,282.590 270.004,281.600 269.873 C 280.398 269.714,280.066 269.753,280.600 269.990 M103.023 270.853 C 103.670 270.992,106.990 271.105,110.400 271.105 C 113.810 271.105,117.130 270.992,117.777 270.853 C 118.425 270.714,115.105 270.600,110.400 270.600 C 105.695 270.600,102.375 270.714,103.023 270.853 M194.620 270.853 C 196.180 271.187,207.144 271.193,208.321 270.860 C 208.828 270.717,205.687 270.600,201.342 270.600 C 196.996 270.600,193.971 270.714,194.620 270.853 " stroke="none" fill="#979ca4" fill-rule="evenodd"></path><path id="path6" d="M76.816 72.354 C 76.275 72.505,77.527 72.629,79.600 72.629 C 81.673 72.629,82.925 72.505,82.384 72.354 C 81.843 72.203,80.590 72.080,79.600 72.080 C 78.610 72.080,77.357 72.203,76.816 72.354 M73.360 73.941 C 72.502 74.569,71.440 75.508,71.000 76.028 C 70.560 76.548,71.080 76.214,72.156 75.286 C 73.232 74.359,74.347 73.600,74.633 73.600 C 74.919 73.600,75.264 73.420,75.400 73.200 C 75.860 72.456,74.928 72.794,73.360 73.941 M83.800 73.200 C 83.936 73.420,84.318 73.600,84.650 73.600 C 84.981 73.600,86.179 74.545,87.313 75.700 C 88.731 77.146,89.081 77.384,88.434 76.464 C 87.132 74.612,82.777 71.545,83.800 73.200 M109.000 73.826 C 108.120 74.359,107.196 74.932,106.947 75.098 C 104.058 77.026,102.619 83.941,104.340 87.621 C 105.158 89.370,107.231 92.000,107.791 92.000 C 107.948 92.000,108.593 92.368,109.225 92.817 C 113.596 95.930,124.000 91.433,124.000 86.432 C 124.000 86.000,124.180 85.536,124.400 85.400 C 125.242 84.880,124.752 81.301,123.445 78.421 C 122.695 76.769,119.274 73.600,118.240 73.600 C 117.914 73.600,117.536 73.420,117.400 73.200 C 116.862 72.330,110.712 72.788,109.000 73.826 M69.381 78.437 C 69.029 79.118,68.812 79.745,68.899 79.832 C 68.986 79.919,69.356 79.362,69.722 78.595 C 70.544 76.870,70.259 76.738,69.381 78.437 M90.303 82.496 C 90.513 85.890,90.731 86.320,90.762 83.400 C 90.776 82.080,90.644 80.773,90.468 80.496 C 90.292 80.220,90.218 81.120,90.303 82.496 M68.524 83.400 C 68.526 84.720,68.601 85.212,68.690 84.493 C 68.779 83.774,68.777 82.694,68.686 82.093 C 68.595 81.492,68.522 82.080,68.524 83.400 M89.434 87.766 C 88.802 89.422,87.200 91.199,84.796 92.909 L 83.800 93.618 85.024 93.038 C 87.293 91.963,91.110 86.977,90.291 86.158 C 90.195 86.061,89.809 86.785,89.434 87.766 M69.600 88.456 C 69.600 88.909,71.576 91.264,72.638 92.076 C 73.355 92.624,73.044 92.128,71.827 90.782 C 70.742 89.582,69.797 88.525,69.727 88.433 C 69.657 88.342,69.600 88.352,69.600 88.456 M76.200 94.000 C 76.640 94.189,77.450 94.338,78.000 94.332 L 79.000 94.320 78.000 94.000 C 77.450 93.824,76.640 93.674,76.200 93.668 L 75.400 93.656 76.200 94.000 M81.200 94.000 C 80.408 94.254,80.367 94.320,81.000 94.320 C 81.440 94.320,82.250 94.176,82.800 94.000 C 83.592 93.746,83.633 93.680,83.000 93.680 C 82.560 93.680,81.750 93.824,81.200 94.000 M106.900 179.876 C 107.285 179.976,107.915 179.976,108.300 179.876 C 108.685 179.775,108.370 179.693,107.600 179.693 C 106.830 179.693,106.515 179.775,106.900 179.876 M168.893 194.400 C 168.893 195.170,168.975 195.485,169.076 195.100 C 169.176 194.715,169.176 194.085,169.076 193.700 C 168.975 193.315,168.893 193.630,168.893 194.400 M58.493 216.400 C 58.493 217.170,58.575 217.485,58.676 217.100 C 58.776 216.715,58.776 216.085,58.676 215.700 C 58.575 215.315,58.493 215.630,58.493 216.400 M70.914 219.400 C 70.917 220.500,70.995 220.903,71.087 220.295 C 71.179 219.686,71.177 218.786,71.082 218.295 C 70.987 217.803,70.911 218.300,70.914 219.400 M58.493 222.400 C 58.493 223.170,58.575 223.485,58.676 223.100 C 58.776 222.715,58.776 222.085,58.676 221.700 C 58.575 221.315,58.493 221.630,58.493 222.400 M223.314 242.200 C 223.317 243.300,223.395 243.703,223.487 243.095 C 223.579 242.486,223.577 241.586,223.482 241.095 C 223.387 240.603,223.311 241.100,223.314 242.200 " stroke="none" fill="#b6bbbc" fill-rule="evenodd"></path><path id="path7" d="M369.728 118.300 C 375.408 118.362,384.588 118.362,390.128 118.300 C 395.668 118.237,391.020 118.186,379.800 118.186 C 368.580 118.186,364.048 118.237,369.728 118.300 M109.500 167.082 C 109.995 167.178,110.805 167.178,111.300 167.082 C 111.795 166.987,111.390 166.909,110.400 166.909 C 109.410 166.909,109.005 166.987,109.500 167.082 M199.905 167.083 C 200.402 167.179,201.122 167.175,201.505 167.075 C 201.887 166.975,201.480 166.896,200.600 166.901 C 199.720 166.905,199.407 166.987,199.905 167.083 M290.305 167.083 C 290.802 167.179,291.522 167.175,291.905 167.075 C 292.287 166.975,291.880 166.896,291.000 166.901 C 290.120 166.905,289.807 166.987,290.305 167.083 M102.100 167.876 C 102.485 167.976,103.115 167.976,103.500 167.876 C 103.885 167.775,103.570 167.693,102.800 167.693 C 102.030 167.693,101.715 167.775,102.100 167.876 M117.700 167.876 C 118.085 167.976,118.715 167.976,119.100 167.876 C 119.485 167.775,119.170 167.693,118.400 167.693 C 117.630 167.693,117.315 167.775,117.700 167.876 M192.900 167.876 C 193.285 167.976,193.915 167.976,194.300 167.876 C 194.685 167.775,194.370 167.693,193.600 167.693 C 192.830 167.693,192.515 167.775,192.900 167.876 M206.900 167.876 C 207.285 167.976,207.915 167.976,208.300 167.876 C 208.685 167.775,208.370 167.693,207.600 167.693 C 206.830 167.693,206.515 167.775,206.900 167.876 M283.300 167.876 C 283.685 167.976,284.315 167.976,284.700 167.876 C 285.085 167.775,284.770 167.693,284.000 167.693 C 283.230 167.693,282.915 167.775,283.300 167.876 M297.300 167.876 C 297.685 167.976,298.315 167.976,298.700 167.876 C 299.085 167.775,298.770 167.693,298.000 167.693 C 297.230 167.693,296.915 167.775,297.300 167.876 M280.400 168.400 C 279.576 168.664,279.541 168.726,280.200 168.754 C 280.640 168.773,281.270 168.613,281.600 168.400 C 282.301 167.947,281.814 167.947,280.400 168.400 M176.585 176.100 L 174.600 178.200 176.700 176.215 C 177.855 175.123,178.800 174.178,178.800 174.115 C 178.800 173.817,178.429 174.149,176.585 176.100 M231.880 179.865 C 232.264 180.451,232.694 181.756,232.835 182.765 L 233.093 184.600 233.145 183.000 C 233.191 181.578,232.035 178.800,231.397 178.800 C 231.278 178.800,231.496 179.279,231.880 179.865 M109.907 179.890 C 110.626 179.979,111.706 179.977,112.307 179.886 C 112.908 179.795,112.320 179.722,111.000 179.724 C 109.680 179.726,109.188 179.801,109.907 179.890 M199.500 179.882 C 199.995 179.978,200.805 179.978,201.300 179.882 C 201.795 179.787,201.390 179.709,200.400 179.709 C 199.410 179.709,199.005 179.787,199.500 179.882 M289.705 179.887 C 290.314 179.979,291.214 179.977,291.705 179.882 C 292.197 179.787,291.700 179.711,290.600 179.714 C 289.500 179.717,289.097 179.795,289.705 179.887 M103.600 180.400 C 102.233 180.688,102.228 180.695,103.400 180.719 C 104.060 180.733,104.960 180.589,105.400 180.400 C 106.362 179.987,105.564 179.987,103.600 180.400 M116.200 180.381 C 116.968 180.729,119.110 180.956,118.767 180.653 C 118.675 180.572,117.880 180.396,117.000 180.262 C 115.885 180.093,115.642 180.129,116.200 180.381 M194.800 180.400 C 193.996 180.657,193.957 180.723,194.600 180.732 C 195.040 180.738,195.760 180.589,196.200 180.400 C 197.219 179.962,196.168 179.962,194.800 180.400 M284.800 180.400 C 283.996 180.657,283.957 180.723,284.600 180.732 C 285.040 180.738,285.760 180.589,286.200 180.400 C 287.219 179.962,286.168 179.962,284.800 180.400 M295.400 180.400 C 295.840 180.589,296.560 180.738,297.000 180.732 C 297.643 180.723,297.604 180.657,296.800 180.400 C 295.432 179.962,294.381 179.962,295.400 180.400 M277.360 183.541 C 276.502 184.169,275.440 185.112,275.000 185.636 C 274.560 186.160,274.922 185.961,275.804 185.194 C 276.686 184.427,277.856 183.494,278.404 183.121 C 278.952 182.748,279.292 182.433,279.160 182.421 C 279.028 182.409,278.218 182.914,277.360 183.541 M214.800 183.400 C 215.350 183.714,215.980 183.972,216.200 183.972 C 216.420 183.972,216.150 183.714,215.600 183.400 C 215.050 183.086,214.420 182.828,214.200 182.828 C 213.980 182.828,214.250 183.086,214.800 183.400 M185.055 185.583 C 184.035 186.673,183.200 187.693,183.200 187.850 C 183.200 188.006,183.257 188.058,183.327 187.967 C 183.397 187.875,184.322 186.855,185.382 185.700 C 186.442 184.545,187.219 183.600,187.109 183.600 C 186.999 183.600,186.075 184.492,185.055 185.583 M70.975 185.300 L 69.800 186.600 71.100 185.425 C 72.312 184.330,72.584 184.000,72.275 184.000 C 72.206 184.000,71.621 184.585,70.975 185.300 M90.700 185.029 C 89.205 185.840,89.296 186.178,90.800 185.400 C 91.460 185.059,92.000 184.694,92.000 184.590 C 92.000 184.332,91.957 184.347,90.700 185.029 M219.600 185.711 C 219.600 185.787,220.185 186.278,220.900 186.801 C 221.704 187.390,221.984 187.487,221.633 187.055 C 221.100 186.399,219.600 185.407,219.600 185.711 M69.144 187.500 C 67.993 188.889,67.506 189.600,67.704 189.600 C 67.814 189.600,68.386 188.970,68.973 188.200 C 70.063 186.771,70.195 186.232,69.144 187.500 M259.449 189.015 C 259.312 189.373,259.215 189.966,259.234 190.333 C 259.253 190.700,259.427 190.469,259.621 189.820 C 259.998 188.558,259.865 187.933,259.449 189.015 M182.046 190.467 C 182.021 190.834,181.896 191.464,181.770 191.867 C 181.552 192.562,181.563 192.563,181.997 191.887 C 182.248 191.496,182.373 190.866,182.273 190.487 C 182.111 189.868,182.088 189.866,182.046 190.467 M271.693 194.400 C 271.693 195.170,271.775 195.485,271.876 195.100 C 271.976 194.715,271.976 194.085,271.876 193.700 C 271.775 193.315,271.693 193.630,271.693 194.400 M181.656 196.400 C 181.656 196.730,181.811 197.360,182.000 197.800 C 182.217 198.304,182.344 198.378,182.344 198.000 C 182.344 197.670,182.189 197.040,182.000 196.600 C 181.783 196.096,181.656 196.022,181.656 196.400 M169.206 199.233 C 169.209 199.765,169.389 200.470,169.606 200.800 C 169.882 201.222,169.923 200.985,169.742 200.000 C 169.425 198.275,169.198 197.949,169.206 199.233 M59.467 207.867 C 59.320 208.013,59.211 208.508,59.225 208.967 C 59.249 209.733,59.282 209.723,59.634 208.842 C 60.026 207.863,59.944 207.389,59.467 207.867 M266.000 211.400 C 266.746 212.170,267.447 212.800,267.557 212.800 C 267.667 212.800,267.146 212.170,266.400 211.400 C 265.654 210.630,264.953 210.000,264.843 210.000 C 264.733 210.000,265.254 210.630,266.000 211.400 M58.649 212.215 C 58.512 212.573,58.420 213.436,58.444 214.133 C 58.482 215.237,58.533 215.171,58.836 213.625 C 59.193 211.805,59.094 211.057,58.649 212.215 M71.450 212.850 C 71.117 214.517,71.440 214.840,71.800 213.200 C 71.952 212.509,71.993 211.859,71.891 211.758 C 71.789 211.656,71.591 212.147,71.450 212.850 M273.200 216.200 C 273.750 216.514,274.380 216.772,274.600 216.772 C 274.820 216.772,274.550 216.514,274.000 216.200 C 273.450 215.886,272.820 215.628,272.600 215.628 C 272.380 215.628,272.650 215.886,273.200 216.200 M222.000 218.946 C 222.000 219.056,222.540 219.530,223.200 220.000 C 223.860 220.470,224.400 220.764,224.400 220.654 C 224.400 220.544,223.860 220.070,223.200 219.600 C 222.540 219.130,222.000 218.836,222.000 218.946 M312.800 219.325 C 312.800 219.424,313.461 220.009,314.268 220.625 C 315.076 221.241,315.611 221.541,315.456 221.291 C 315.140 220.779,312.800 219.047,312.800 219.325 M317.200 223.000 C 317.946 223.770,318.647 224.400,318.757 224.400 C 318.867 224.400,318.346 223.770,317.600 223.000 C 316.854 222.230,316.153 221.600,316.043 221.600 C 315.933 221.600,316.454 222.230,317.200 223.000 M58.428 224.633 C 58.444 225.275,58.616 226.160,58.810 226.600 C 59.047 227.134,59.086 226.802,58.927 225.600 C 58.646 223.480,58.388 222.980,58.428 224.633 M71.268 224.800 C 71.288 225.839,71.918 227.546,71.932 226.600 C 71.938 226.160,71.789 225.440,71.600 225.000 C 71.389 224.510,71.261 224.432,71.268 224.800 M59.228 229.876 C 59.213 230.358,59.380 230.864,59.600 231.000 C 60.073 231.292,60.073 230.901,59.600 229.800 C 59.269 229.029,59.255 229.031,59.228 229.876 M218.800 232.600 C 219.546 233.370,220.247 234.000,220.357 234.000 C 220.467 234.000,219.946 233.370,219.200 232.600 C 218.454 231.830,217.753 231.200,217.643 231.200 C 217.533 231.200,218.054 231.830,218.800 232.600 M325.228 236.676 C 325.318 237.715,325.944 238.596,325.972 237.724 C 325.987 237.242,325.820 236.736,325.600 236.600 C 325.380 236.464,325.213 236.498,325.228 236.676 M313.314 242.200 C 313.317 243.300,313.395 243.703,313.487 243.095 C 313.579 242.486,313.577 241.586,313.482 241.095 C 313.387 240.603,313.311 241.100,313.314 242.200 M79.600 243.858 C 79.600 244.074,80.185 244.779,80.900 245.425 L 82.200 246.600 81.000 245.202 C 80.340 244.433,79.755 243.728,79.700 243.635 C 79.645 243.543,79.600 243.643,79.600 243.858 M255.606 247.394 C 254.863 248.161,254.332 248.850,254.427 248.925 C 254.522 249.000,255.206 248.373,255.946 247.531 C 257.629 245.618,257.412 245.531,255.606 247.394 M263.200 246.073 C 267.097 249.609,267.780 250.152,266.200 248.455 C 265.320 247.510,264.240 246.547,263.800 246.314 C 263.360 246.082,263.090 245.973,263.200 246.073 M325.646 246.267 C 325.621 246.524,325.484 247.064,325.341 247.467 C 325.140 248.036,325.194 248.097,325.579 247.742 C 325.852 247.491,325.989 246.951,325.884 246.542 C 325.779 246.134,325.672 246.010,325.646 246.267 M67.600 249.200 C 68.070 249.860,68.544 250.400,68.654 250.400 C 68.764 250.400,68.470 249.860,68.000 249.200 C 67.530 248.540,67.056 248.000,66.946 248.000 C 66.836 248.000,67.130 248.540,67.600 249.200 M218.955 251.881 C 218.107 252.916,217.622 253.634,217.877 253.476 C 218.421 253.140,220.955 250.000,220.682 250.000 C 220.580 250.000,219.803 250.847,218.955 251.881 M179.273 251.426 C 179.643 251.852,180.543 252.541,181.273 252.957 C 182.839 253.850,182.426 253.407,180.200 251.804 C 179.269 251.134,178.882 250.976,179.273 251.426 M308.581 252.500 L 307.000 254.200 308.700 252.619 C 310.281 251.148,310.584 250.800,310.281 250.800 C 310.216 250.800,309.451 251.565,308.581 252.500 M233.078 253.405 C 232.712 254.172,232.495 254.800,232.596 254.800 C 232.870 254.800,234.084 252.351,233.901 252.168 C 233.814 252.081,233.444 252.638,233.078 253.405 M89.800 253.007 C 90.240 253.366,90.960 253.835,91.400 254.051 L 92.200 254.444 91.400 253.793 C 90.960 253.434,90.240 252.965,89.800 252.749 L 89.000 252.356 89.800 253.007 M70.400 252.925 C 70.400 252.994,70.985 253.579,71.700 254.225 L 73.000 255.400 71.825 254.100 C 70.730 252.888,70.400 252.616,70.400 252.925 M213.400 256.027 C 212.740 256.450,212.380 256.796,212.600 256.795 C 212.820 256.795,213.540 256.437,214.200 256.000 C 214.860 255.563,215.220 255.217,215.000 255.232 C 214.780 255.247,214.060 255.604,213.400 256.027 M256.976 257.491 C 258.063 258.641,259.038 259.496,259.143 259.391 C 259.247 259.286,259.255 259.155,259.159 259.100 C 259.063 259.045,258.088 258.190,256.993 257.200 L 255.000 255.400 256.976 257.491 M75.374 257.893 C 76.240 258.824,77.035 259.499,77.141 259.393 C 77.247 259.287,77.256 259.155,77.162 259.100 C 77.068 259.045,76.273 258.370,75.396 257.601 L 73.800 256.201 75.374 257.893 M320.575 257.868 C 319.959 258.676,319.659 259.211,319.909 259.056 C 320.421 258.740,322.153 256.400,321.875 256.400 C 321.776 256.400,321.191 257.061,320.575 257.868 M118.000 258.018 C 117.562 258.315,117.724 258.352,118.600 258.156 C 120.071 257.827,120.390 257.598,119.367 257.606 C 118.945 257.609,118.330 257.795,118.000 258.018 M167.600 258.125 C 167.600 258.194,168.185 258.779,168.900 259.425 L 170.200 260.600 169.025 259.300 C 167.930 258.088,167.600 257.816,167.600 258.125 M108.210 258.869 C 109.535 259.048,111.695 259.048,113.010 258.869 C 115.078 258.588,114.753 258.544,110.600 258.545 C 106.431 258.545,106.117 258.588,108.210 258.869 M199.740 258.868 C 201.247 259.053,203.317 259.059,204.340 258.881 C 205.813 258.624,205.243 258.554,201.600 258.544 C 197.235 258.531,197.140 258.548,199.740 258.868 M290.140 258.874 C 291.647 259.056,293.717 259.060,294.740 258.883 C 296.204 258.629,295.620 258.559,292.000 258.552 C 287.653 258.543,287.551 258.561,290.140 258.874 M227.188 261.500 L 224.600 264.200 227.300 261.612 C 229.808 259.207,230.183 258.800,229.888 258.800 C 229.827 258.800,228.612 260.015,227.188 261.500 M318.034 260.953 L 317.069 262.200 318.213 261.112 C 318.843 260.514,319.277 259.953,319.179 259.865 C 319.080 259.777,318.565 260.267,318.034 260.953 M223.000 265.035 L 221.800 266.066 223.100 265.206 C 223.815 264.733,224.400 264.268,224.400 264.173 C 224.400 263.873,224.231 263.978,223.000 265.035 M133.800 265.200 C 133.140 265.637,132.780 265.992,133.000 265.988 C 133.401 265.982,135.576 264.423,135.200 264.412 C 135.090 264.408,134.460 264.763,133.800 265.200 M311.497 265.966 C 309.853 267.019,309.625 267.391,311.075 266.654 C 311.776 266.297,312.461 265.824,312.598 265.603 C 312.919 265.084,312.823 265.115,311.497 265.966 M219.900 266.827 C 219.075 267.263,218.400 267.708,218.400 267.818 C 218.400 267.927,219.120 267.649,220.000 267.200 C 220.880 266.751,221.600 266.297,221.600 266.192 C 221.600 265.930,221.597 265.931,219.900 266.827 M180.800 267.000 C 180.800 267.206,182.887 268.125,184.435 268.602 C 184.966 268.766,185.310 268.802,185.200 268.683 C 184.893 268.351,180.800 266.786,180.800 267.000 M118.400 270.800 C 117.608 271.054,117.567 271.120,118.200 271.120 C 118.640 271.120,119.450 270.976,120.000 270.800 C 120.792 270.546,120.833 270.480,120.200 270.480 C 119.760 270.480,118.950 270.624,118.400 270.800 M209.000 270.800 C 208.496 271.017,208.422 271.144,208.800 271.144 C 209.130 271.144,209.760 270.989,210.200 270.800 C 210.704 270.583,210.778 270.456,210.400 270.456 C 210.070 270.456,209.440 270.611,209.000 270.800 M108.912 271.495 C 109.964 271.577,111.584 271.576,112.512 271.492 C 113.440 271.408,112.580 271.341,110.600 271.342 C 108.620 271.343,107.860 271.412,108.912 271.495 M200.112 271.495 C 201.164 271.577,202.784 271.576,203.712 271.492 C 204.640 271.408,203.780 271.341,201.800 271.342 C 199.820 271.343,199.060 271.412,200.112 271.495 M290.300 271.493 C 291.235 271.577,292.765 271.577,293.700 271.493 C 294.635 271.409,293.870 271.340,292.000 271.340 C 290.130 271.340,289.365 271.409,290.300 271.493 " stroke="none" fill="#182e59" fill-rule="evenodd"></path></g></svg>
