<svg id="svg" version="1.1" xmlns="http://www.w3.org/2000/svg" xmlns:xlink="http://www.w3.org/1999/xlink"  viewBox="0 -10 512 512"><g id="svgg"><path id="path0" d="M204.000 95.800 L 204.000 111.600 221.400 111.600 L 238.800 111.600 238.800 95.800 L 238.800 80.000 221.400 80.000 L 204.000 80.000 204.000 95.800 M115.071 121.462 C 114.686 121.848,114.745 151.695,115.132 152.304 C 115.384 152.700,119.153 152.786,132.626 152.704 L 149.800 152.600 149.800 137.000 L 149.800 121.400 132.571 121.296 C 123.095 121.238,115.220 121.313,115.071 121.462 M159.600 137.000 L 159.600 152.800 177.000 152.800 L 194.400 152.800 194.400 137.000 L 194.400 121.200 177.000 121.200 L 159.600 121.200 159.600 137.000 M204.000 137.000 L 204.000 152.800 221.400 152.800 L 238.800 152.800 238.800 137.000 L 238.800 121.200 221.400 121.200 L 204.000 121.200 204.000 137.000 M326.545 131.300 C 325.450 132.455,323.947 134.300,323.204 135.400 C 322.461 136.500,321.728 137.490,321.575 137.600 C 321.154 137.904,317.018 146.301,316.059 148.800 C 312.829 157.212,312.025 170.415,314.170 179.800 C 315.194 184.278,316.324 188.300,317.309 190.974 C 319.537 197.019,319.036 198.142,313.140 200.323 C 307.229 202.509,314.766 202.397,173.536 202.399 L 43.272 202.400 43.136 210.477 C 42.937 222.317,43.501 232.526,44.757 239.800 C 44.985 241.120,45.356 243.280,45.581 244.600 C 46.034 247.253,46.351 248.754,47.402 253.200 C 48.279 256.909,51.985 268.294,53.197 271.000 C 53.690 272.100,54.361 273.630,54.690 274.400 C 55.682 276.730,57.348 280.187,57.581 280.400 C 57.702 280.510,58.177 281.320,58.638 282.200 C 64.845 294.045,74.739 305.258,85.922 313.121 C 91.464 317.018,100.208 321.528,107.000 323.993 C 108.320 324.472,109.713 325.030,110.095 325.232 C 110.477 325.434,111.231 325.600,111.771 325.600 C 112.311 325.600,112.851 325.759,112.971 325.954 C 113.092 326.149,113.687 326.404,114.295 326.521 C 114.903 326.638,116.120 326.943,117.000 327.197 C 117.880 327.452,119.365 327.827,120.300 328.030 C 121.235 328.234,122.855 328.588,123.900 328.818 C 137.013 331.706,146.395 332.602,163.400 332.592 C 178.828 332.583,185.565 332.151,197.100 330.432 C 198.695 330.194,201.215 329.822,202.700 329.605 C 205.258 329.230,206.837 328.925,211.000 328.000 C 211.990 327.780,213.610 327.420,214.600 327.200 C 219.013 326.219,220.276 325.951,221.400 325.755 C 222.060 325.640,222.960 325.398,223.400 325.218 C 223.840 325.038,225.010 324.670,226.000 324.399 C 226.990 324.129,228.250 323.763,228.800 323.586 C 229.350 323.409,231.690 322.686,234.000 321.979 C 241.117 319.800,241.592 319.634,249.000 316.745 C 252.960 315.200,256.560 313.787,257.000 313.605 C 259.483 312.575,274.993 304.811,277.141 303.523 C 278.538 302.686,279.763 302.000,279.863 302.000 C 280.096 302.000,285.792 298.428,289.361 296.044 C 290.879 295.030,292.409 294.020,292.761 293.800 C 293.112 293.580,293.490 293.301,293.600 293.181 C 293.710 293.060,294.430 292.526,295.200 291.993 C 297.120 290.664,304.039 285.164,307.200 282.453 C 311.591 278.687,320.503 269.519,324.022 265.148 C 325.859 262.867,327.475 260.910,327.613 260.800 C 328.012 260.483,331.985 254.623,334.500 250.641 C 336.441 247.570,337.621 245.431,340.763 239.284 C 340.955 238.908,341.513 237.700,342.004 236.600 C 342.494 235.500,343.233 233.908,343.647 233.062 C 344.061 232.216,344.400 231.217,344.400 230.842 C 344.400 230.467,344.547 229.989,344.728 229.780 C 345.038 229.421,346.534 224.879,348.426 218.555 L 349.277 215.710 353.538 215.460 C 359.672 215.100,367.122 214.093,370.200 213.207 C 372.157 212.644,374.628 212.025,376.100 211.730 C 376.705 211.609,377.200 211.350,377.200 211.155 C 377.200 210.960,377.472 210.800,377.804 210.800 C 378.137 210.800,379.262 210.422,380.304 209.960 C 381.347 209.498,382.650 208.937,383.200 208.713 C 385.295 207.861,388.884 205.826,391.361 204.086 C 393.554 202.546,395.169 201.137,398.102 198.208 L 400.096 196.216 399.816 192.408 C 399.662 190.314,399.550 186.907,399.566 184.839 C 399.583 182.696,399.411 180.854,399.166 180.558 C 398.929 180.273,398.740 178.977,398.746 177.677 L 398.758 175.314 397.079 174.787 C 396.155 174.498,395.229 174.112,395.020 173.930 C 394.811 173.749,394.314 173.600,393.915 173.600 C 393.516 173.600,392.877 173.438,392.495 173.239 C 391.000 172.462,384.358 171.009,377.561 169.972 C 374.229 169.463,365.056 169.662,359.823 170.357 C 356.081 170.853,356.518 171.112,355.764 167.953 C 354.250 161.605,353.439 158.727,352.115 155.007 C 350.623 150.814,347.424 144.000,346.024 142.034 C 345.571 141.397,345.200 140.768,345.200 140.635 C 345.200 139.171,337.796 132.518,334.266 130.809 C 329.775 128.635,329.025 128.683,326.545 131.300 M70.583 162.901 C 70.477 163.177,70.437 170.242,70.495 178.601 L 70.600 193.800 87.900 193.904 L 105.200 194.008 105.200 178.204 L 105.200 162.400 87.987 162.400 C 74.563 162.400,70.733 162.510,70.583 162.901 M114.984 162.897 C 114.877 163.175,114.837 170.242,114.895 178.601 L 115.000 193.800 132.400 193.800 L 149.800 193.800 149.800 178.200 L 149.800 162.600 132.489 162.496 C 118.832 162.413,115.137 162.498,114.984 162.897 M159.600 178.200 L 159.600 194.000 177.000 194.000 L 194.400 194.000 194.400 178.200 L 194.400 162.400 177.000 162.400 L 159.600 162.400 159.600 178.200 M204.183 162.901 C 204.077 163.177,204.037 170.242,204.095 178.601 L 204.200 193.800 221.500 193.904 L 238.800 194.008 238.800 178.204 L 238.800 162.400 221.587 162.400 C 208.163 162.400,204.333 162.510,204.183 162.901 M248.800 178.200 L 248.800 194.008 266.100 193.904 L 283.400 193.800 283.400 178.200 L 283.400 162.600 266.100 162.496 L 248.800 162.392 248.800 178.200 " stroke="none" fill="#f3f3f3" fill-rule="evenodd"></path><path id="path1" d="M179.003 0.275 C 177.025 0.362,175.234 0.606,175.023 0.817 C 174.812 1.028,173.427 1.200,171.944 1.200 C 170.461 1.200,169.136 1.380,169.000 1.600 C 168.864 1.820,167.773 2.000,166.576 2.000 C 165.379 2.000,164.400 2.180,164.400 2.400 C 164.400 2.620,163.511 2.800,162.424 2.800 C 161.337 2.800,160.336 2.980,160.200 3.200 C 160.064 3.420,159.243 3.600,158.376 3.600 C 157.509 3.600,156.800 3.780,156.800 4.000 C 156.800 4.220,156.001 4.400,155.024 4.400 C 154.047 4.400,153.136 4.580,153.000 4.800 C 152.864 5.020,152.144 5.200,151.400 5.200 C 150.656 5.200,149.936 5.380,149.800 5.600 C 149.664 5.820,149.034 6.000,148.400 6.000 C 147.766 6.000,147.136 6.180,147.000 6.400 C 146.864 6.620,146.234 6.800,145.600 6.800 C 144.966 6.800,144.336 6.980,144.200 7.200 C 144.064 7.420,143.434 7.600,142.800 7.600 C 142.166 7.600,141.536 7.780,141.400 8.000 C 141.264 8.220,140.623 8.400,139.976 8.400 C 139.329 8.400,138.800 8.580,138.800 8.800 C 138.800 9.020,138.260 9.200,137.600 9.200 C 136.940 9.200,136.400 9.356,136.400 9.546 C 136.400 9.736,135.594 10.002,134.609 10.137 C 133.624 10.272,132.499 10.545,132.109 10.744 C 131.029 11.296,129.558 11.894,127.900 12.454 C 127.075 12.733,126.400 13.105,126.400 13.280 C 126.400 13.456,125.860 13.600,125.200 13.600 C 124.540 13.600,124.000 13.747,124.000 13.928 C 124.000 14.108,123.100 14.500,122.000 14.800 C 120.900 15.100,120.000 15.492,120.000 15.672 C 120.000 15.853,119.640 16.000,119.200 16.000 C 118.760 16.000,118.400 16.180,118.400 16.400 C 118.400 16.620,118.040 16.800,117.600 16.800 C 117.160 16.800,116.800 16.980,116.800 17.200 C 116.800 17.420,116.440 17.600,116.000 17.600 C 115.560 17.600,115.200 17.780,115.200 18.000 C 115.200 18.220,114.876 18.400,114.480 18.400 C 113.586 18.400,111.607 19.294,111.603 19.700 C 111.601 19.865,111.240 20.000,110.800 20.000 C 110.360 20.000,110.000 20.180,110.000 20.400 C 110.000 20.620,109.655 20.800,109.233 20.800 C 108.812 20.800,108.407 20.935,108.333 21.100 C 108.213 21.370,106.111 22.578,103.703 23.760 C 103.210 24.002,102.805 24.335,102.803 24.500 C 102.801 24.665,102.440 24.800,102.000 24.800 C 101.560 24.800,101.200 24.980,101.200 25.200 C 101.200 25.420,100.906 25.600,100.547 25.600 C 100.188 25.600,99.603 25.936,99.247 26.346 C 98.891 26.757,98.033 27.217,97.341 27.369 C 96.649 27.521,95.766 27.995,95.379 28.423 C 94.993 28.850,94.434 29.200,94.138 29.200 C 93.842 29.200,93.600 29.380,93.600 29.600 C 93.600 29.820,93.364 30.000,93.075 30.000 C 92.787 30.000,92.164 30.360,91.692 30.800 C 91.220 31.240,90.596 31.600,90.305 31.600 C 90.014 31.600,89.517 31.960,89.200 32.400 C 88.883 32.840,88.343 33.200,88.000 33.200 C 87.657 33.200,87.117 33.560,86.800 34.000 C 86.483 34.440,86.038 34.800,85.812 34.801 C 85.585 34.801,84.770 35.341,84.000 36.000 C 83.230 36.659,82.415 37.199,82.188 37.199 C 81.962 37.200,81.517 37.560,81.200 38.000 C 80.883 38.440,80.422 38.800,80.177 38.800 C 79.931 38.800,78.936 39.522,77.965 40.404 C 76.994 41.286,75.818 42.349,75.352 42.767 C 74.885 43.184,73.985 43.799,73.352 44.133 C 72.718 44.467,71.286 45.609,70.169 46.670 C 69.052 47.732,67.522 49.043,66.769 49.584 C 66.016 50.125,64.230 51.793,62.800 53.291 C 60.199 56.016,58.934 57.286,52.590 63.544 C 50.726 65.384,49.200 67.028,49.200 67.199 C 49.200 67.369,48.199 68.564,46.975 69.854 C 45.751 71.144,44.475 72.718,44.138 73.352 C 43.801 73.985,43.184 74.885,42.767 75.352 C 42.349 75.818,41.286 76.994,40.404 77.965 C 39.522 78.936,38.800 79.931,38.800 80.177 C 38.800 80.422,38.440 80.883,38.000 81.200 C 37.560 81.517,37.200 81.962,37.199 82.188 C 37.199 82.415,36.659 83.230,36.000 84.000 C 35.341 84.770,34.801 85.585,34.801 85.812 C 34.800 86.038,34.440 86.483,34.000 86.800 C 33.560 87.117,33.200 87.657,33.200 88.000 C 33.200 88.343,32.840 88.883,32.400 89.200 C 31.960 89.517,31.600 90.014,31.600 90.305 C 31.600 90.596,31.240 91.220,30.800 91.692 C 30.360 92.164,30.000 92.787,30.000 93.075 C 30.000 93.364,29.820 93.600,29.600 93.600 C 29.380 93.600,29.200 93.842,29.200 94.138 C 29.200 94.434,28.850 94.993,28.423 95.379 C 27.995 95.766,27.521 96.649,27.369 97.341 C 27.217 98.033,26.757 98.891,26.346 99.247 C 25.936 99.603,25.600 100.188,25.600 100.547 C 25.600 100.906,25.420 101.200,25.200 101.200 C 24.980 101.200,24.800 101.560,24.800 102.000 C 24.800 102.440,24.665 102.801,24.500 102.803 C 24.335 102.805,24.002 103.210,23.760 103.703 C 22.578 106.111,21.370 108.213,21.100 108.333 C 20.935 108.407,20.800 108.812,20.800 109.233 C 20.800 109.655,20.620 110.000,20.400 110.000 C 20.180 110.000,20.000 110.360,20.000 110.800 C 20.000 111.240,19.865 111.601,19.700 111.603 C 19.294 111.607,18.400 113.586,18.400 114.480 C 18.400 114.876,18.220 115.200,18.000 115.200 C 17.780 115.200,17.600 115.560,17.600 116.000 C 17.600 116.440,17.420 116.800,17.200 116.800 C 16.980 116.800,16.800 117.160,16.800 117.600 C 16.800 118.040,16.620 118.400,16.400 118.400 C 16.180 118.400,16.000 118.760,16.000 119.200 C 16.000 119.640,15.853 120.000,15.672 120.000 C 15.492 120.000,15.100 120.900,14.800 122.000 C 14.500 123.100,14.108 124.000,13.928 124.000 C 13.747 124.000,13.600 124.540,13.600 125.200 C 13.600 125.860,13.456 126.400,13.280 126.400 C 13.105 126.400,12.733 127.075,12.454 127.900 C 11.894 129.558,11.296 131.029,10.744 132.109 C 10.545 132.499,10.272 133.624,10.137 134.609 C 10.002 135.594,9.736 136.400,9.546 136.400 C 9.356 136.400,9.200 136.940,9.200 137.600 C 9.200 138.260,9.020 138.800,8.800 138.800 C 8.580 138.800,8.400 139.329,8.400 139.976 C 8.400 140.623,8.220 141.264,8.000 141.400 C 7.780 141.536,7.600 142.166,7.600 142.800 C 7.600 143.434,7.420 144.064,7.200 144.200 C 6.980 144.336,6.800 144.966,6.800 145.600 C 6.800 146.234,6.620 146.864,6.400 147.000 C 6.180 147.136,6.000 147.766,6.000 148.400 C 6.000 149.034,5.820 149.664,5.600 149.800 C 5.380 149.936,5.200 150.656,5.200 151.400 C 5.200 152.144,5.020 152.864,4.800 153.000 C 4.580 153.136,4.400 154.047,4.400 155.024 C 4.400 156.001,4.220 156.800,4.000 156.800 C 3.780 156.800,3.600 157.509,3.600 158.376 C 3.600 159.243,3.420 160.064,3.200 160.200 C 2.980 160.336,2.800 161.337,2.800 162.424 C 2.800 163.511,2.620 164.400,2.400 164.400 C 2.180 164.400,2.000 165.379,2.000 166.576 C 2.000 167.773,1.820 168.864,1.600 169.000 C 1.380 169.136,1.200 170.461,1.200 171.944 C 1.200 173.567,1.001 174.839,0.700 175.140 C -0.029 175.869,-0.029 224.131,0.700 224.860 C 1.001 225.161,1.200 226.433,1.200 228.056 C 1.200 229.539,1.380 230.864,1.600 231.000 C 1.820 231.136,2.000 232.227,2.000 233.424 C 2.000 234.621,2.180 235.600,2.400 235.600 C 2.620 235.600,2.800 236.590,2.800 237.800 C 2.800 239.010,2.980 240.000,3.200 240.000 C 3.420 240.000,3.600 240.720,3.600 241.600 C 3.600 242.480,3.780 243.200,4.000 243.200 C 4.220 243.200,4.400 243.999,4.400 244.976 C 4.400 245.953,4.580 246.864,4.800 247.000 C 5.020 247.136,5.200 247.957,5.200 248.824 C 5.200 249.691,5.380 250.400,5.600 250.400 C 5.820 250.400,6.000 250.929,6.000 251.576 C 6.000 252.223,6.180 252.864,6.400 253.000 C 6.620 253.136,6.800 253.867,6.800 254.624 C 6.800 255.381,6.980 256.000,7.200 256.000 C 7.420 256.000,7.600 256.529,7.600 257.176 C 7.600 257.823,7.780 258.464,8.000 258.600 C 8.220 258.736,8.400 259.377,8.400 260.024 C 8.400 260.671,8.580 261.200,8.800 261.200 C 9.020 261.200,9.200 261.740,9.200 262.400 C 9.200 263.060,9.356 263.600,9.546 263.600 C 9.736 263.600,10.003 264.412,10.139 265.405 C 10.275 266.398,10.749 267.961,11.193 268.880 C 11.637 269.799,12.000 270.753,12.000 271.000 C 12.000 271.247,12.360 272.195,12.800 273.106 C 13.240 274.016,13.600 275.040,13.600 275.381 C 13.600 275.721,13.747 276.000,13.928 276.000 C 14.108 276.000,14.500 276.900,14.800 278.000 C 15.100 279.100,15.492 280.000,15.672 280.000 C 15.853 280.000,16.000 280.360,16.000 280.800 C 16.000 281.240,16.180 281.600,16.400 281.600 C 16.620 281.600,16.800 281.960,16.800 282.400 C 16.800 282.840,16.980 283.200,17.200 283.200 C 17.420 283.200,17.600 283.560,17.600 284.000 C 17.600 284.440,17.780 284.800,18.000 284.800 C 18.220 284.800,18.400 285.143,18.400 285.562 C 18.400 286.378,20.001 289.712,20.500 289.933 C 20.665 290.007,20.800 290.412,20.800 290.833 C 20.800 291.255,20.980 291.600,21.200 291.600 C 21.420 291.600,21.600 291.945,21.600 292.367 C 21.600 292.788,21.735 293.193,21.900 293.267 C 22.276 293.434,23.575 295.564,23.871 296.500 C 23.993 296.885,24.252 297.200,24.447 297.200 C 24.641 297.200,24.800 297.560,24.800 298.000 C 24.800 298.440,24.980 298.800,25.200 298.800 C 25.420 298.800,25.600 299.094,25.600 299.453 C 25.600 299.812,25.931 300.397,26.336 300.753 C 26.741 301.109,27.200 301.919,27.357 302.553 C 27.645 303.717,30.666 308.487,31.272 308.733 C 31.453 308.807,31.600 309.172,31.600 309.545 C 31.600 309.918,31.960 310.483,32.400 310.800 C 32.840 311.117,33.200 311.657,33.200 312.000 C 33.200 312.343,33.560 312.883,34.000 313.200 C 34.440 313.517,34.800 313.962,34.801 314.188 C 34.801 314.415,35.341 315.230,36.000 316.000 C 36.659 316.770,37.199 317.585,37.199 317.812 C 37.200 318.038,37.560 318.483,38.000 318.800 C 38.440 319.117,38.800 319.572,38.800 319.810 C 38.800 320.049,39.385 320.902,40.100 321.706 C 42.213 324.081,43.513 325.706,44.572 327.295 C 45.121 328.118,46.386 329.607,47.385 330.606 C 48.383 331.604,49.200 332.580,49.200 332.773 C 49.200 332.967,51.085 334.988,53.388 337.263 C 58.024 341.843,58.637 342.454,63.758 347.615 C 65.715 349.587,67.474 351.200,67.667 351.200 C 67.860 351.200,69.007 352.190,70.217 353.400 C 71.427 354.610,72.571 355.600,72.758 355.600 C 72.946 355.600,73.787 356.230,74.628 357.000 C 75.469 357.770,76.279 358.400,76.428 358.400 C 76.577 358.400,77.387 359.030,78.228 359.800 C 79.069 360.570,79.951 361.200,80.190 361.200 C 80.428 361.200,80.883 361.560,81.200 362.000 C 81.517 362.440,81.962 362.800,82.188 362.801 C 82.415 362.801,83.230 363.341,84.000 364.000 C 84.770 364.659,85.585 365.199,85.812 365.199 C 86.038 365.200,86.483 365.560,86.800 366.000 C 87.117 366.440,87.657 366.800,88.000 366.800 C 88.343 366.800,88.883 367.160,89.200 367.600 C 89.517 368.040,90.097 368.400,90.488 368.400 C 90.880 368.400,91.200 368.550,91.200 368.732 C 91.200 368.915,91.695 369.320,92.300 369.632 C 92.905 369.945,93.723 370.491,94.118 370.846 C 94.512 371.202,95.682 371.919,96.718 372.441 C 97.753 372.962,98.690 373.502,98.800 373.639 C 99.159 374.087,101.546 375.200,102.147 375.200 C 102.469 375.200,102.793 375.335,102.867 375.500 C 103.034 375.876,105.164 377.175,106.100 377.471 C 106.485 377.593,106.800 377.852,106.800 378.047 C 106.800 378.241,107.160 378.400,107.600 378.400 C 108.040 378.400,108.400 378.580,108.400 378.800 C 108.400 379.020,108.760 379.200,109.200 379.200 C 109.640 379.200,110.000 379.380,110.000 379.600 C 110.000 379.820,110.360 380.000,110.800 380.000 C 111.240 380.000,111.601 380.135,111.603 380.300 C 111.607 380.706,113.586 381.600,114.480 381.600 C 114.876 381.600,115.200 381.780,115.200 382.000 C 115.200 382.220,115.560 382.400,116.000 382.400 C 116.440 382.400,116.800 382.580,116.800 382.800 C 116.800 383.020,117.160 383.200,117.600 383.200 C 118.040 383.200,118.400 383.380,118.400 383.600 C 118.400 383.820,118.760 384.000,119.200 384.000 C 119.640 384.000,120.000 384.180,120.000 384.400 C 120.000 384.620,120.349 384.800,120.776 384.800 C 121.203 384.800,121.664 384.980,121.800 385.200 C 121.936 385.420,122.487 385.600,123.024 385.600 C 123.561 385.600,124.000 385.780,124.000 386.000 C 124.000 386.220,124.279 386.400,124.619 386.400 C 124.960 386.400,125.984 386.760,126.894 387.200 C 127.805 387.640,128.861 388.000,129.242 388.000 C 129.622 388.000,129.993 388.140,130.067 388.312 C 130.254 388.750,139.033 391.600,140.196 391.600 C 140.722 391.600,141.264 391.780,141.400 392.000 C 141.536 392.220,142.166 392.400,142.800 392.400 C 143.434 392.400,144.064 392.580,144.200 392.800 C 144.336 393.020,144.966 393.200,145.600 393.200 C 146.234 393.200,146.864 393.380,147.000 393.600 C 147.136 393.820,147.777 394.000,148.424 394.000 C 149.071 394.000,149.600 394.180,149.600 394.400 C 149.600 394.620,150.309 394.800,151.176 394.800 C 152.043 394.800,152.864 394.980,153.000 395.200 C 153.136 395.420,154.047 395.600,155.024 395.600 C 156.001 395.600,156.800 395.780,156.800 396.000 C 156.800 396.220,157.520 396.400,158.400 396.400 C 159.280 396.400,160.000 396.580,160.000 396.800 C 160.000 397.020,160.990 397.200,162.200 397.200 C 163.410 397.200,164.400 397.380,164.400 397.600 C 164.400 397.820,165.379 398.000,166.576 398.000 C 167.773 398.000,168.864 398.180,169.000 398.400 C 169.136 398.620,170.461 398.800,171.944 398.800 C 173.567 398.800,174.839 398.999,175.140 399.300 C 175.871 400.031,224.857 400.031,225.100 399.300 C 225.212 398.965,226.171 398.800,228.010 398.800 C 229.518 398.800,230.864 398.620,231.000 398.400 C 231.136 398.180,232.227 398.000,233.424 398.000 C 234.621 398.000,235.600 397.820,235.600 397.600 C 235.600 397.380,236.590 397.200,237.800 397.200 C 239.010 397.200,240.000 397.020,240.000 396.800 C 240.000 396.580,240.720 396.400,241.600 396.400 C 242.480 396.400,243.200 396.220,243.200 396.000 C 243.200 395.780,243.999 395.600,244.976 395.600 C 245.953 395.600,246.864 395.420,247.000 395.200 C 247.136 394.980,247.957 394.800,248.824 394.800 C 249.691 394.800,250.400 394.620,250.400 394.400 C 250.400 394.180,250.929 394.000,251.576 394.000 C 252.223 394.000,252.864 393.820,253.000 393.600 C 253.136 393.380,253.867 393.200,254.624 393.200 C 255.381 393.200,256.000 393.020,256.000 392.800 C 256.000 392.580,256.630 392.400,257.400 392.400 C 258.170 392.400,258.800 392.220,258.800 392.000 C 258.800 391.780,259.241 391.600,259.780 391.600 C 260.960 391.600,269.744 388.755,269.933 388.312 C 270.007 388.140,270.414 388.000,270.839 388.000 C 271.263 388.000,271.968 387.820,272.405 387.600 C 272.842 387.380,273.558 387.020,273.995 386.800 C 274.432 386.580,275.062 386.400,275.395 386.400 C 275.728 386.400,276.000 386.220,276.000 386.000 C 276.000 385.780,276.439 385.600,276.976 385.600 C 277.513 385.600,278.064 385.420,278.200 385.200 C 278.336 384.980,278.797 384.800,279.224 384.800 C 279.651 384.800,280.000 384.620,280.000 384.400 C 280.000 384.180,280.360 384.000,280.800 384.000 C 281.240 384.000,281.600 383.820,281.600 383.600 C 281.600 383.380,281.960 383.200,282.400 383.200 C 282.840 383.200,283.200 383.020,283.200 382.800 C 283.200 382.580,283.560 382.400,284.000 382.400 C 284.440 382.400,284.800 382.220,284.800 382.000 C 284.800 381.780,285.143 381.600,285.562 381.600 C 286.378 381.600,289.712 379.999,289.933 379.500 C 290.007 379.335,290.412 379.200,290.833 379.200 C 291.255 379.200,291.600 379.020,291.600 378.800 C 291.600 378.580,291.945 378.400,292.367 378.400 C 292.788 378.400,293.193 378.265,293.267 378.100 C 293.434 377.724,295.564 376.425,296.500 376.129 C 296.885 376.007,297.200 375.748,297.200 375.553 C 297.200 375.359,297.479 375.200,297.820 375.200 C 298.442 375.200,300.825 374.102,301.200 373.644 C 301.310 373.509,301.940 373.134,302.600 372.810 C 304.261 371.995,308.571 369.127,308.733 368.728 C 308.807 368.547,309.172 368.400,309.545 368.400 C 309.918 368.400,310.483 368.040,310.800 367.600 C 311.117 367.160,311.657 366.800,312.000 366.800 C 312.343 366.800,312.883 366.440,313.200 366.000 C 313.517 365.560,313.962 365.200,314.188 365.199 C 314.415 365.199,315.230 364.659,316.000 364.000 C 316.770 363.341,317.585 362.801,317.812 362.801 C 318.038 362.800,318.483 362.440,318.800 362.000 C 319.117 361.560,319.572 361.200,319.810 361.200 C 320.049 361.200,320.931 360.570,321.772 359.800 C 322.613 359.030,323.423 358.400,323.572 358.400 C 323.721 358.400,324.531 357.770,325.372 357.000 C 326.213 356.230,327.054 355.600,327.242 355.600 C 327.429 355.600,328.573 354.610,329.783 353.400 C 330.993 352.190,332.157 351.200,332.371 351.200 C 332.584 351.200,334.703 349.230,337.079 346.821 C 342.316 341.514,341.514 342.316,346.821 337.079 C 349.230 334.703,351.200 332.584,351.200 332.371 C 351.200 332.157,352.190 330.993,353.400 329.783 C 354.610 328.573,355.600 327.429,355.600 327.242 C 355.600 327.054,356.230 326.213,357.000 325.372 C 357.770 324.531,358.400 323.721,358.400 323.572 C 358.400 323.423,359.030 322.613,359.800 321.772 C 360.570 320.931,361.200 320.049,361.200 319.810 C 361.200 319.572,361.560 319.117,362.000 318.800 C 362.440 318.483,362.800 318.038,362.801 317.812 C 362.801 317.585,363.341 316.770,364.000 316.000 C 364.659 315.230,365.199 314.415,365.199 314.188 C 365.200 313.962,365.560 313.517,366.000 313.200 C 366.440 312.883,366.800 312.343,366.800 312.000 C 366.800 311.657,367.160 311.117,367.600 310.800 C 368.040 310.483,368.400 309.918,368.400 309.545 C 368.400 309.172,368.547 308.807,368.728 308.733 C 369.127 308.571,371.995 304.261,372.810 302.600 C 373.134 301.940,373.509 301.310,373.644 301.200 C 374.091 300.835,375.200 298.449,375.200 297.853 C 375.200 297.531,375.335 297.207,375.500 297.133 C 375.876 296.966,377.175 294.836,377.471 293.900 C 377.593 293.515,377.852 293.200,378.047 293.200 C 378.241 293.200,378.400 292.840,378.400 292.400 C 378.400 291.960,378.580 291.600,378.800 291.600 C 379.020 291.600,379.200 291.255,379.200 290.833 C 379.200 290.412,379.335 290.007,379.500 289.933 C 379.999 289.712,381.600 286.378,381.600 285.562 C 381.600 285.143,381.780 284.800,382.000 284.800 C 382.220 284.800,382.400 284.440,382.400 284.000 C 382.400 283.560,382.580 283.200,382.800 283.200 C 383.020 283.200,383.200 282.840,383.200 282.400 C 383.200 281.960,383.380 281.600,383.600 281.600 C 383.820 281.600,384.000 281.240,384.000 280.800 C 384.000 280.360,384.180 280.000,384.400 280.000 C 384.620 280.000,384.800 279.651,384.800 279.224 C 384.800 278.797,384.980 278.336,385.200 278.200 C 385.420 278.064,385.600 277.513,385.600 276.976 C 385.600 276.439,385.780 276.000,386.000 276.000 C 386.220 276.000,386.400 275.728,386.400 275.395 C 386.400 275.062,386.580 274.432,386.800 273.995 C 387.020 273.558,387.380 272.842,387.600 272.405 C 387.820 271.968,388.000 271.263,388.000 270.839 C 388.000 270.414,388.140 270.007,388.312 269.933 C 388.755 269.744,391.600 260.960,391.600 259.780 C 391.600 259.241,391.780 258.800,392.000 258.800 C 392.220 258.800,392.400 258.170,392.400 257.400 C 392.400 256.630,392.580 256.000,392.800 256.000 C 393.020 256.000,393.200 255.381,393.200 254.624 C 393.200 253.867,393.380 253.136,393.600 253.000 C 393.820 252.864,394.000 252.223,394.000 251.576 C 394.000 250.929,394.180 250.400,394.400 250.400 C 394.620 250.400,394.800 249.691,394.800 248.824 C 394.800 247.957,394.980 247.136,395.200 247.000 C 395.420 246.864,395.600 245.953,395.600 244.976 C 395.600 243.999,395.780 243.200,396.000 243.200 C 396.220 243.200,396.400 242.480,396.400 241.600 C 396.400 240.720,396.580 240.000,396.800 240.000 C 397.020 240.000,397.200 239.010,397.200 237.800 C 397.200 236.590,397.380 235.600,397.600 235.600 C 397.820 235.600,398.000 234.621,398.000 233.424 C 398.000 232.227,398.180 231.136,398.400 231.000 C 398.620 230.864,398.800 229.539,398.800 228.056 C 398.800 226.573,398.995 225.165,399.233 224.927 C 399.517 224.643,399.746 219.895,399.897 211.151 L 400.127 197.808 397.284 200.439 C 394.571 202.951,388.842 207.190,388.135 207.209 C 387.951 207.214,387.350 207.570,386.800 208.000 C 386.250 208.430,385.485 208.786,385.100 208.791 C 384.715 208.796,384.400 208.980,384.400 209.200 C 384.400 209.420,383.950 209.600,383.400 209.600 C 382.850 209.600,382.400 209.780,382.400 210.000 C 382.400 210.220,382.051 210.400,381.624 210.400 C 381.197 210.400,380.736 210.580,380.600 210.800 C 380.464 211.020,379.913 211.200,379.376 211.200 C 378.839 211.200,378.400 211.380,378.400 211.600 C 378.400 211.820,378.051 212.000,377.624 212.000 C 377.197 212.000,376.736 212.180,376.600 212.400 C 376.464 212.620,375.733 212.800,374.976 212.800 C 374.219 212.800,373.600 212.980,373.600 213.200 C 373.600 213.420,372.981 213.600,372.224 213.600 C 371.467 213.600,370.748 213.761,370.626 213.958 C 370.505 214.155,369.729 214.419,368.903 214.546 C 368.076 214.673,366.230 214.968,364.800 215.202 C 363.370 215.436,359.770 215.802,356.800 216.016 C 349.863 216.516,349.600 216.580,349.600 217.784 C 349.600 218.317,349.420 218.864,349.200 219.000 C 348.980 219.136,348.800 219.867,348.800 220.624 C 348.800 221.381,348.620 222.000,348.400 222.000 C 348.180 222.000,348.000 222.529,348.000 223.176 C 348.000 223.823,347.820 224.464,347.600 224.600 C 347.380 224.736,347.200 225.276,347.200 225.800 C 347.200 226.324,347.020 226.864,346.800 227.000 C 346.580 227.136,346.400 227.687,346.400 228.224 C 346.400 228.761,346.220 229.200,346.000 229.200 C 345.780 229.200,345.600 229.562,345.600 230.005 C 345.600 230.448,345.392 231.213,345.138 231.705 C 344.167 233.582,344.000 234.007,344.000 234.595 C 344.000 234.928,343.820 235.200,343.600 235.200 C 343.380 235.200,343.200 235.453,343.200 235.762 C 343.200 236.071,342.855 237.016,342.434 237.862 C 342.013 238.708,340.730 241.290,339.582 243.600 C 338.434 245.910,337.249 248.084,336.948 248.431 C 336.646 248.779,336.400 249.196,336.400 249.359 C 336.400 249.522,335.860 250.441,335.200 251.400 C 334.540 252.359,334.000 253.337,334.000 253.572 C 334.000 253.807,333.862 254.000,333.694 254.000 C 333.526 254.000,332.944 254.720,332.400 255.600 C 331.856 256.480,331.274 257.200,331.106 257.200 C 330.938 257.200,330.800 257.436,330.800 257.725 C 330.800 258.013,330.480 258.598,330.089 259.025 C 329.698 259.451,328.942 260.430,328.408 261.200 C 327.875 261.970,327.151 262.870,326.800 263.200 C 326.449 263.530,325.729 264.430,325.200 265.200 C 324.671 265.970,323.959 266.870,323.619 267.200 C 323.279 267.530,321.920 269.050,320.600 270.578 C 318.170 273.391,311.923 279.576,309.012 282.050 C 308.138 282.792,306.920 283.872,306.305 284.450 C 305.690 285.027,303.795 286.554,302.093 287.842 C 300.392 289.131,298.709 290.504,298.353 290.893 C 297.997 291.282,297.547 291.600,297.353 291.601 C 297.159 291.601,296.370 292.141,295.600 292.800 C 294.830 293.459,294.041 293.999,293.847 293.999 C 293.653 294.000,293.203 294.316,292.847 294.703 C 292.491 295.089,291.705 295.660,291.100 295.970 C 290.495 296.281,290.000 296.685,290.000 296.868 C 290.000 297.050,289.812 297.200,289.582 297.200 C 289.352 297.200,287.843 298.091,286.229 299.180 C 284.615 300.269,282.643 301.529,281.847 301.980 C 281.051 302.431,279.725 303.193,278.900 303.674 C 275.369 305.732,257.762 314.400,257.112 314.400 C 256.720 314.400,256.400 314.580,256.400 314.800 C 256.400 315.020,256.128 315.200,255.795 315.200 C 255.462 315.200,254.832 315.380,254.395 315.600 C 253.958 315.820,253.242 316.180,252.805 316.400 C 252.368 316.620,251.826 316.800,251.601 316.800 C 251.376 316.800,250.428 317.139,249.496 317.554 C 248.563 317.969,246.720 318.706,245.400 319.193 C 244.080 319.680,242.640 320.229,242.200 320.413 C 241.760 320.597,240.770 320.938,240.000 321.170 C 239.230 321.403,237.739 321.865,236.686 322.197 C 235.633 322.529,234.506 322.800,234.181 322.800 C 233.855 322.800,233.277 322.959,232.895 323.154 C 231.658 323.784,226.919 325.200,226.047 325.200 C 225.581 325.200,225.200 325.380,225.200 325.600 C 225.200 325.820,224.480 326.000,223.600 326.000 C 222.720 326.000,222.000 326.180,222.000 326.400 C 222.000 326.620,221.291 326.800,220.424 326.800 C 219.557 326.800,218.736 326.980,218.600 327.200 C 218.464 327.420,217.654 327.600,216.800 327.600 C 215.946 327.600,215.136 327.780,215.000 328.000 C 214.864 328.220,214.054 328.400,213.200 328.400 C 212.346 328.400,211.536 328.580,211.400 328.800 C 211.264 329.020,210.454 329.200,209.600 329.200 C 208.746 329.200,207.936 329.380,207.800 329.600 C 207.664 329.820,206.789 330.000,205.856 330.000 C 204.923 330.000,203.989 330.165,203.780 330.368 C 203.571 330.570,202.230 330.835,200.800 330.958 C 194.805 331.470,193.359 331.654,192.600 332.001 C 192.160 332.202,190.630 332.465,189.200 332.584 C 170.187 334.173,152.525 334.106,139.400 332.396 C 137.640 332.166,135.210 331.878,134.000 331.754 C 132.790 331.631,131.629 331.365,131.420 331.165 C 131.211 330.964,130.187 330.800,129.144 330.800 C 128.101 330.800,127.136 330.620,127.000 330.400 C 126.864 330.180,125.953 330.000,124.976 330.000 C 123.999 330.000,123.200 329.820,123.200 329.600 C 123.200 329.380,122.491 329.200,121.624 329.200 C 120.757 329.200,119.936 329.020,119.800 328.800 C 119.664 328.580,118.944 328.400,118.200 328.400 C 117.456 328.400,116.736 328.220,116.600 328.000 C 116.464 327.780,115.823 327.600,115.176 327.600 C 114.529 327.600,114.000 327.420,114.000 327.200 C 114.000 326.980,113.471 326.800,112.824 326.800 C 112.177 326.800,111.536 326.620,111.400 326.400 C 111.264 326.180,110.724 326.000,110.200 326.000 C 109.676 326.000,109.136 325.820,109.000 325.600 C 108.864 325.380,108.401 325.200,107.971 325.200 C 107.541 325.200,106.877 325.041,106.495 324.847 C 105.642 324.413,104.248 323.843,102.400 323.173 C 100.190 322.372,92.565 318.575,92.000 317.995 C 91.890 317.882,90.945 317.358,89.900 316.832 C 88.855 316.305,88.000 315.723,88.000 315.537 C 88.000 315.352,87.764 315.200,87.475 315.200 C 87.187 315.200,86.564 314.840,86.092 314.400 C 85.620 313.960,85.138 313.600,85.021 313.600 C 84.808 313.600,83.564 312.630,82.584 311.700 C 82.294 311.425,81.930 311.200,81.775 311.200 C 81.621 311.200,81.203 310.883,80.847 310.496 C 80.491 310.108,79.570 309.323,78.800 308.751 C 77.322 307.653,71.294 301.770,69.600 299.771 C 65.285 294.683,61.377 289.235,60.367 286.900 C 60.058 286.185,59.669 285.600,59.502 285.600 C 59.336 285.600,59.200 285.330,59.200 285.000 C 59.200 284.670,59.054 284.400,58.875 284.400 C 58.696 284.400,58.302 283.770,58.000 283.000 C 57.698 282.230,57.304 281.600,57.125 281.600 C 56.946 281.600,56.800 281.255,56.800 280.833 C 56.800 280.412,56.665 280.007,56.500 279.933 C 56.208 279.804,55.237 277.883,53.600 274.200 C 53.160 273.210,52.417 271.545,51.949 270.500 C 50.202 266.598,47.476 257.970,46.353 252.791 C 45.901 250.706,45.356 248.190,45.142 247.200 C 44.583 244.615,44.028 240.972,43.772 238.200 C 43.650 236.880,43.387 235.440,43.186 235.000 C 42.406 233.284,41.655 205.275,42.350 203.800 C 42.558 203.360,42.826 202.690,42.947 202.311 C 43.154 201.661,50.645 201.614,174.683 201.489 C 280.867 201.381,306.547 201.256,308.000 200.838 C 308.990 200.552,310.520 200.116,311.400 199.869 C 316.479 198.438,319.508 195.227,317.152 193.770 C 316.959 193.651,316.800 193.149,316.800 192.656 C 316.800 192.163,316.652 191.589,316.472 191.380 C 316.081 190.927,314.756 186.650,313.617 182.164 C 311.404 173.450,312.104 154.722,314.836 149.505 C 315.036 149.123,315.200 148.620,315.200 148.386 C 315.200 148.152,315.560 147.216,316.000 146.306 C 316.440 145.395,316.800 144.429,316.800 144.158 C 316.800 143.888,316.935 143.607,317.100 143.533 C 317.265 143.460,317.844 142.500,318.387 141.400 C 322.289 133.493,329.200 126.136,330.600 128.400 C 330.736 128.620,331.261 128.800,331.767 128.800 C 334.526 128.800,345.600 137.591,345.600 139.780 C 345.600 140.121,345.750 140.400,345.932 140.400 C 346.115 140.400,346.520 140.895,346.832 141.500 C 347.144 142.105,347.494 142.690,347.610 142.800 C 347.970 143.141,351.886 151.320,352.397 152.800 C 352.663 153.570,353.030 154.560,353.212 155.000 C 354.286 157.595,356.387 165.570,356.395 167.081 C 356.404 168.766,357.272 170.080,358.176 169.779 C 361.768 168.583,381.113 168.488,381.838 169.662 C 381.953 169.848,382.746 170.000,383.600 170.000 C 384.454 170.000,385.264 170.180,385.400 170.400 C 385.536 170.620,386.346 170.800,387.200 170.800 C 388.054 170.800,388.864 170.980,389.000 171.200 C 389.136 171.420,389.766 171.600,390.400 171.600 C 391.034 171.600,391.664 171.780,391.800 172.000 C 391.936 172.220,392.476 172.400,393.000 172.400 C 393.524 172.400,394.064 172.580,394.200 172.800 C 394.336 173.020,394.887 173.200,395.424 173.200 C 395.961 173.200,396.400 173.380,396.400 173.600 C 396.400 173.820,396.940 174.000,397.600 174.000 L 398.800 174.000 398.800 171.600 C 398.800 170.267,398.622 169.200,398.400 169.200 C 398.178 169.200,398.000 168.133,398.000 166.800 C 398.000 165.467,397.822 164.400,397.600 164.400 C 397.380 164.400,397.200 163.500,397.200 162.400 C 397.200 161.300,397.020 160.400,396.800 160.400 C 396.580 160.400,396.400 159.601,396.400 158.624 C 396.400 157.647,396.220 156.736,396.000 156.600 C 395.780 156.464,395.600 155.733,395.600 154.976 C 395.600 154.219,395.455 153.600,395.278 153.600 C 395.101 153.600,394.912 152.835,394.857 151.900 C 394.802 150.965,394.587 150.029,394.379 149.820 C 394.170 149.611,394.000 148.857,394.000 148.144 C 394.000 147.431,393.820 146.736,393.600 146.600 C 393.380 146.464,393.200 145.924,393.200 145.400 C 393.200 144.876,393.020 144.336,392.800 144.200 C 392.580 144.064,392.400 143.423,392.400 142.776 C 392.400 142.129,392.220 141.600,392.000 141.600 C 391.780 141.600,391.600 141.064,391.600 140.408 C 391.600 139.224,389.938 133.632,389.191 132.305 C 388.976 131.923,388.800 131.336,388.800 131.000 C 388.800 130.664,388.635 130.077,388.433 129.695 C 387.533 127.993,386.400 125.156,386.400 124.604 C 386.400 124.272,386.220 124.000,386.000 124.000 C 385.780 124.000,385.600 123.561,385.600 123.024 C 385.600 122.487,385.420 121.936,385.200 121.800 C 384.980 121.664,384.800 121.203,384.800 120.776 C 384.800 120.349,384.620 120.000,384.400 120.000 C 384.180 120.000,384.000 119.640,384.000 119.200 C 384.000 118.760,383.820 118.400,383.600 118.400 C 383.380 118.400,383.200 118.040,383.200 117.600 C 383.200 117.160,383.020 116.800,382.800 116.800 C 382.580 116.800,382.400 116.528,382.400 116.195 C 382.400 115.862,382.232 115.277,382.026 114.895 C 381.821 114.513,381.417 113.615,381.129 112.900 C 380.840 112.185,380.469 111.600,380.302 111.600 C 380.136 111.600,380.000 111.240,380.000 110.800 C 380.000 110.360,379.820 110.000,379.600 110.000 C 379.380 110.000,379.200 109.640,379.200 109.200 C 379.200 108.760,379.020 108.400,378.800 108.400 C 378.580 108.400,378.400 108.040,378.400 107.600 C 378.400 107.160,378.220 106.800,378.000 106.800 C 377.780 106.800,377.600 106.480,377.600 106.088 C 377.600 105.697,377.240 105.117,376.800 104.800 C 376.360 104.483,376.000 103.903,376.000 103.512 C 376.000 103.120,375.820 102.800,375.600 102.800 C 375.380 102.800,375.200 102.474,375.200 102.076 C 375.200 101.679,374.570 100.307,373.800 99.028 C 373.030 97.749,372.400 96.627,372.400 96.535 C 372.400 96.442,372.040 95.980,371.600 95.508 C 371.160 95.036,370.800 94.413,370.800 94.125 C 370.800 93.836,370.620 93.600,370.400 93.600 C 370.180 93.600,370.000 93.280,370.000 92.888 C 370.000 92.497,369.640 91.917,369.200 91.600 C 368.760 91.283,368.400 90.743,368.400 90.400 C 368.400 90.057,368.040 89.517,367.600 89.200 C 367.160 88.883,366.800 88.369,366.800 88.059 C 366.800 87.748,366.484 87.203,366.097 86.847 C 365.711 86.491,365.140 85.705,364.830 85.100 C 364.519 84.495,364.115 84.000,363.932 84.000 C 363.750 84.000,363.600 83.757,363.600 83.459 C 363.600 83.162,363.060 82.354,362.400 81.663 C 361.740 80.972,361.200 80.226,361.200 80.004 C 361.200 79.782,361.020 79.600,360.800 79.600 C 360.580 79.600,360.400 79.370,360.400 79.088 C 360.400 78.807,360.040 78.317,359.600 78.000 C 359.160 77.683,358.800 77.225,358.800 76.983 C 358.800 76.741,357.990 75.698,357.000 74.665 C 356.010 73.631,355.200 72.631,355.200 72.441 C 355.200 72.252,354.525 71.394,353.700 70.536 C 352.875 69.678,351.676 68.280,351.035 67.429 C 350.394 66.579,348.528 64.581,346.887 62.989 C 345.247 61.398,343.341 59.528,342.652 58.833 C 341.964 58.139,339.443 55.598,337.050 53.186 C 334.658 50.774,332.544 48.800,332.352 48.800 C 332.161 48.800,331.074 47.890,329.938 46.777 C 328.802 45.665,327.316 44.468,326.636 44.118 C 325.956 43.767,325.165 43.148,324.877 42.740 C 324.590 42.333,324.185 42.000,323.978 42.000 C 323.771 42.000,322.859 41.280,321.952 40.400 C 321.045 39.520,320.095 38.800,319.840 38.800 C 319.585 38.800,319.117 38.440,318.800 38.000 C 318.483 37.560,318.038 37.200,317.812 37.199 C 317.585 37.199,316.770 36.659,316.000 36.000 C 315.230 35.341,314.415 34.801,314.188 34.801 C 313.962 34.800,313.517 34.440,313.200 34.000 C 312.883 33.560,312.343 33.200,312.000 33.200 C 311.657 33.200,311.117 32.840,310.800 32.400 C 310.483 31.960,309.918 31.600,309.545 31.600 C 309.172 31.600,308.807 31.453,308.733 31.272 C 308.487 30.666,303.717 27.645,302.553 27.357 C 301.919 27.200,301.109 26.741,300.753 26.336 C 300.397 25.931,299.812 25.600,299.453 25.600 C 299.094 25.600,298.800 25.420,298.800 25.200 C 298.800 24.980,298.440 24.800,298.000 24.800 C 297.560 24.800,297.200 24.620,297.200 24.400 C 297.200 24.180,296.922 24.000,296.583 24.000 C 296.244 24.000,295.580 23.640,295.108 23.200 C 294.636 22.760,294.013 22.400,293.725 22.400 C 293.436 22.400,293.200 22.220,293.200 22.000 C 293.200 21.780,292.840 21.600,292.400 21.600 C 291.960 21.600,291.600 21.420,291.600 21.200 C 291.600 20.980,291.255 20.800,290.833 20.800 C 290.412 20.800,290.007 20.665,289.933 20.500 C 289.712 20.001,286.378 18.400,285.562 18.400 C 285.143 18.400,284.800 18.220,284.800 18.000 C 284.800 17.780,284.440 17.600,284.000 17.600 C 283.560 17.600,283.200 17.420,283.200 17.200 C 283.200 16.980,282.840 16.800,282.400 16.800 C 281.960 16.800,281.600 16.620,281.600 16.400 C 281.600 16.180,281.240 16.000,280.800 16.000 C 280.360 16.000,280.000 15.820,280.000 15.600 C 280.000 15.380,279.460 15.200,278.800 15.200 C 278.140 15.200,277.600 15.020,277.600 14.800 C 277.600 14.580,277.240 14.400,276.800 14.400 C 276.360 14.400,276.000 14.220,276.000 14.000 C 276.000 13.780,275.728 13.600,275.395 13.600 C 275.062 13.600,274.387 13.392,273.895 13.138 C 272.016 12.166,271.593 12.000,271.000 12.000 C 270.664 12.000,270.032 11.820,269.595 11.600 C 269.158 11.380,268.436 11.016,267.991 10.791 C 267.546 10.566,266.376 10.272,265.391 10.137 C 264.406 10.002,263.600 9.736,263.600 9.546 C 263.600 9.356,263.060 9.200,262.400 9.200 C 261.740 9.200,261.200 9.020,261.200 8.800 C 261.200 8.580,260.570 8.400,259.800 8.400 C 259.030 8.400,258.400 8.220,258.400 8.000 C 258.400 7.780,257.860 7.600,257.200 7.600 C 256.540 7.600,256.000 7.420,256.000 7.200 C 256.000 6.980,255.280 6.800,254.400 6.800 C 253.520 6.800,252.800 6.620,252.800 6.400 C 252.800 6.180,252.271 6.000,251.624 6.000 C 250.977 6.000,250.336 5.820,250.200 5.600 C 250.064 5.380,249.333 5.200,248.576 5.200 C 247.819 5.200,247.200 5.020,247.200 4.800 C 247.200 4.580,246.300 4.400,245.200 4.400 C 244.100 4.400,243.200 4.220,243.200 4.000 C 243.200 3.780,242.491 3.600,241.624 3.600 C 240.757 3.600,239.936 3.420,239.800 3.200 C 239.664 2.980,238.663 2.800,237.576 2.800 C 236.489 2.800,235.600 2.620,235.600 2.400 C 235.600 2.178,234.533 2.000,233.200 2.000 C 231.867 2.000,230.800 1.822,230.800 1.600 C 230.800 1.373,229.627 1.200,228.080 1.200 C 226.483 1.200,225.160 1.000,224.875 0.715 C 224.394 0.234,187.860 -0.116,179.003 0.275 M239.400 95.600 L 239.400 112.200 221.882 112.304 C 210.260 112.373,204.100 112.268,203.582 111.990 C 202.617 111.474,202.333 80.227,203.284 79.276 C 203.651 78.909,208.060 78.817,221.584 78.896 L 239.400 79.000 239.400 95.600 M150.200 136.800 L 150.200 153.400 132.200 153.400 L 114.200 153.400 114.095 137.201 C 114.038 128.291,114.078 120.774,114.184 120.496 C 114.337 120.098,118.164 120.014,132.289 120.096 L 150.200 120.200 150.200 136.800 M194.950 121.250 C 195.276 122.882,195.276 150.722,194.949 152.354 L 194.698 153.608 176.649 153.504 L 158.600 153.400 158.495 137.247 C 158.420 125.655,158.519 120.939,158.844 120.547 C 159.215 120.100,162.523 120.000,176.999 120.000 L 194.700 120.000 194.950 121.250 M239.400 136.800 L 239.400 153.400 221.646 153.504 C 208.871 153.579,203.739 153.481,203.346 153.155 C 202.654 152.581,202.532 122.049,203.216 120.770 C 203.620 120.015,204.156 119.995,221.516 120.096 L 239.400 120.200 239.400 136.800 M105.800 178.200 L 105.800 194.600 87.600 194.600 L 69.400 194.600 69.295 178.601 C 69.238 169.801,69.278 162.374,69.384 162.097 C 69.537 161.698,73.402 161.614,87.689 161.696 L 105.800 161.800 105.800 178.200 M150.400 178.200 L 150.400 194.800 132.200 194.800 L 114.000 194.800 114.000 178.200 L 114.000 161.600 132.200 161.600 L 150.400 161.600 150.400 178.200 M194.948 162.500 C 195.263 163.677,195.262 192.727,194.947 193.904 L 194.705 194.808 176.652 194.704 L 158.600 194.600 158.495 178.601 C 158.438 169.801,158.477 162.376,158.583 162.101 C 158.733 161.710,162.724 161.600,176.741 161.600 L 194.707 161.600 194.948 162.500 M239.600 178.204 L 239.600 194.808 221.300 194.704 L 203.000 194.600 202.889 179.000 C 202.827 170.420,202.876 162.995,202.996 162.500 L 203.215 161.600 221.408 161.600 L 239.600 161.600 239.600 178.204 M284.204 162.500 C 284.324 162.995,284.373 170.420,284.311 179.000 L 284.200 194.600 266.000 194.600 L 247.800 194.600 247.695 178.601 C 247.638 169.801,247.677 162.376,247.783 162.101 C 247.933 161.710,251.932 161.600,265.980 161.600 L 283.985 161.600 284.204 162.500 " stroke="none" fill="#046cc4" fill-rule="evenodd"></path><path id="path2" d="M203.861 79.500 C 203.693 79.773,216.991 79.767,232.800 79.488 C 236.210 79.427,231.136 79.338,221.524 79.289 C 211.912 79.240,203.964 79.335,203.861 79.500 M123.700 120.700 C 128.485 120.763,136.315 120.763,141.100 120.700 C 145.885 120.636,141.970 120.584,132.400 120.584 C 122.830 120.584,118.915 120.636,123.700 120.700 M159.280 120.880 C 158.737 121.423,158.562 152.606,159.100 152.938 C 159.265 153.040,159.400 145.896,159.400 137.062 L 159.400 121.000 177.000 120.794 L 194.600 120.587 177.180 120.494 C 164.058 120.423,159.642 120.518,159.280 120.880 M203.862 120.700 C 203.760 120.865,211.652 121.000,221.400 121.000 C 231.148 121.000,239.040 120.865,238.938 120.700 C 238.696 120.308,204.104 120.308,203.862 120.700 M325.775 131.300 L 324.600 132.600 325.900 131.425 C 326.615 130.779,327.200 130.194,327.200 130.125 C 327.200 129.816,326.870 130.088,325.775 131.300 M341.183 135.300 C 342.841 137.066,343.200 137.384,343.200 137.083 C 343.200 137.019,342.345 136.164,341.300 135.183 L 339.400 133.400 341.183 135.300 M76.800 161.888 C 92.636 162.167,105.508 162.173,105.339 161.900 C 105.236 161.735,97.378 161.640,87.876 161.689 C 78.374 161.738,73.390 161.827,76.800 161.888 M123.700 161.900 C 128.485 161.963,136.315 161.963,141.100 161.900 C 145.885 161.836,141.970 161.784,132.400 161.784 C 122.830 161.784,118.915 161.836,123.700 161.900 M159.461 161.900 C 159.292 162.173,172.164 162.167,188.000 161.888 C 191.410 161.827,186.426 161.738,176.924 161.689 C 167.422 161.640,159.564 161.735,159.461 161.900 M210.400 161.888 C 226.236 162.167,239.108 162.173,238.939 161.900 C 238.836 161.735,230.978 161.640,221.476 161.689 C 211.974 161.738,206.990 161.827,210.400 161.888 M257.300 161.900 C 262.085 161.963,269.915 161.963,274.700 161.900 C 279.485 161.836,275.570 161.784,266.000 161.784 C 256.430 161.784,252.515 161.836,257.300 161.900 M248.182 178.200 C 248.182 187.000,248.235 190.543,248.300 186.073 C 248.364 181.604,248.364 174.404,248.299 170.073 C 248.235 165.743,248.182 169.400,248.182 178.200 M69.782 178.200 C 69.782 186.780,69.835 190.233,69.900 185.874 C 69.964 181.514,69.964 174.494,69.899 170.274 C 69.835 166.053,69.782 169.620,69.782 178.200 M158.982 178.200 C 158.982 186.780,159.035 190.233,159.100 185.874 C 159.164 181.514,159.164 174.494,159.099 170.274 C 159.035 166.053,158.982 169.620,158.982 178.200 M283.782 178.200 C 283.782 186.780,283.835 190.233,283.900 185.874 C 283.964 181.514,283.964 174.494,283.899 170.274 C 283.835 166.053,283.782 169.620,283.782 178.200 M365.100 169.482 C 365.595 169.578,366.405 169.578,366.900 169.482 C 367.395 169.387,366.990 169.309,366.000 169.309 C 365.010 169.309,364.605 169.387,365.100 169.482 M373.500 169.482 C 373.995 169.578,374.805 169.578,375.300 169.482 C 375.795 169.387,375.390 169.309,374.400 169.309 C 373.410 169.309,373.005 169.387,373.500 169.482 M194.400 193.933 C 194.400 194.280,189.912 194.425,176.900 194.496 L 159.400 194.591 176.776 194.700 C 193.127 194.802,195.603 194.669,194.673 193.740 C 194.523 193.590,194.400 193.677,194.400 193.933 M79.300 194.700 C 84.085 194.763,91.915 194.763,96.700 194.700 C 101.485 194.636,97.570 194.584,88.000 194.584 C 78.430 194.584,74.515 194.636,79.300 194.700 M123.700 194.700 C 128.485 194.763,136.315 194.763,141.100 194.700 C 145.885 194.636,141.970 194.584,132.400 194.584 C 122.830 194.584,118.915 194.636,123.700 194.700 M212.900 194.700 C 217.685 194.763,225.515 194.763,230.300 194.700 C 235.085 194.636,231.170 194.584,221.600 194.584 C 212.030 194.584,208.115 194.636,212.900 194.700 M257.300 194.700 C 262.085 194.763,269.915 194.763,274.700 194.700 C 279.485 194.636,275.570 194.584,266.000 194.584 C 256.430 194.584,252.515 194.636,257.300 194.700 M43.062 202.300 C 42.894 202.571,128.259 202.570,252.000 202.298 C 277.410 202.242,240.836 202.152,170.724 202.098 C 100.612 202.044,43.164 202.135,43.062 202.300 M42.524 208.200 C 42.526 209.520,42.601 210.012,42.690 209.293 C 42.779 208.574,42.777 207.494,42.686 206.893 C 42.595 206.292,42.522 206.880,42.524 208.200 M351.700 215.891 C 352.525 215.978,353.875 215.978,354.700 215.891 C 355.525 215.805,354.850 215.734,353.200 215.734 C 351.550 215.734,350.875 215.805,351.700 215.891 M42.493 222.400 C 42.493 223.170,42.575 223.485,42.676 223.100 C 42.776 222.715,42.776 222.085,42.676 221.700 C 42.575 221.315,42.493 221.630,42.493 222.400 M315.978 274.700 L 314.600 276.200 316.100 274.822 C 317.496 273.538,317.784 273.200,317.478 273.200 C 317.412 273.200,316.737 273.875,315.978 274.700 M70.800 300.525 C 70.800 300.594,71.385 301.179,72.100 301.825 L 73.400 303.000 72.225 301.700 C 71.130 300.488,70.800 300.216,70.800 300.525 M150.900 333.087 C 151.505 333.178,152.495 333.178,153.100 333.087 C 153.705 332.995,153.210 332.920,152.000 332.920 C 150.790 332.920,150.295 332.995,150.900 333.087 M174.705 333.083 C 175.202 333.179,175.922 333.175,176.305 333.075 C 176.687 332.975,176.280 332.896,175.400 332.901 C 174.520 332.905,174.207 332.987,174.705 333.083 M164.915 333.496 C 166.188 333.576,168.168 333.575,169.315 333.494 C 170.462 333.414,169.420 333.349,167.000 333.350 C 164.580 333.351,163.642 333.416,164.915 333.496 " stroke="none" fill="#559bd1" fill-rule="evenodd"></path><path id="path3" d="M221.295 79.898 L 238.791 80.008 238.902 95.904 L 239.014 111.800 239.007 95.800 L 239.000 79.800 221.400 79.794 L 203.800 79.787 221.295 79.898 M115.062 121.100 C 114.960 121.265,122.762 121.400,132.400 121.400 C 142.038 121.400,149.840 121.265,149.738 121.100 C 149.636 120.935,141.834 120.800,132.400 120.800 C 122.966 120.800,115.164 120.935,115.062 121.100 M159.383 121.301 C 159.277 121.576,159.238 128.821,159.295 137.401 L 159.400 153.000 176.800 153.006 L 194.200 153.013 176.900 152.902 L 159.600 152.792 159.600 137.000 L 159.600 121.208 177.100 121.100 L 194.600 120.991 177.087 120.896 C 163.357 120.821,159.533 120.908,159.383 121.301 M221.300 121.098 L 238.800 121.208 238.800 137.000 L 238.800 152.792 221.500 152.902 L 204.200 153.013 221.600 153.006 L 239.000 153.000 239.000 137.000 L 239.000 121.000 221.400 120.994 L 203.800 120.987 221.300 121.098 M326.400 131.000 C 325.205 132.210,324.349 133.200,324.498 133.200 C 324.646 133.200,325.600 132.311,326.617 131.223 C 327.703 130.063,328.906 129.179,329.533 129.083 L 330.600 128.920 329.586 128.860 C 328.845 128.816,327.989 129.391,326.400 131.000 M333.574 130.397 C 334.989 131.069,336.789 132.097,337.574 132.683 C 338.614 133.460,338.805 133.523,338.278 132.918 C 337.484 132.006,333.581 129.840,332.000 129.434 C 331.450 129.293,332.158 129.726,333.574 130.397 M341.180 135.800 C 344.151 139.110,344.659 139.595,343.695 138.200 C 343.238 137.540,342.001 136.190,340.945 135.200 L 339.025 133.400 341.180 135.800 M322.227 136.200 C 321.640 136.970,321.303 137.598,321.480 137.595 C 321.656 137.592,322.207 136.962,322.704 136.195 C 323.868 134.397,323.600 134.400,322.227 136.200 M317.800 144.000 C 317.459 144.660,317.269 145.200,317.379 145.200 C 317.489 145.200,317.859 144.660,318.200 144.000 C 318.541 143.340,318.731 142.800,318.621 142.800 C 318.511 142.800,318.141 143.340,317.800 144.000 M316.258 147.304 C 315.328 149.740,315.480 150.204,316.436 147.847 C 316.872 146.773,317.158 145.824,317.072 145.738 C 316.986 145.652,316.620 146.357,316.258 147.304 M114.903 152.400 C 115.082 153.056,149.011 153.549,149.656 152.904 C 149.823 152.737,142.197 152.649,132.709 152.708 C 119.111 152.794,115.382 152.709,115.098 152.308 C 114.827 151.925,114.779 151.947,114.903 152.400 M313.822 155.422 C 313.672 156.225,313.628 156.962,313.726 157.060 C 313.824 157.157,314.027 156.581,314.178 155.778 C 314.328 154.975,314.372 154.238,314.274 154.140 C 314.176 154.043,313.973 154.619,313.822 155.422 M313.000 160.400 C 312.843 161.966,312.800 163.333,312.904 163.437 C 313.008 163.542,313.220 162.344,313.375 160.775 C 313.530 159.206,313.573 157.839,313.471 157.738 C 313.369 157.636,313.157 158.834,313.000 160.400 M354.068 160.800 C 354.088 161.839,354.718 163.546,354.732 162.600 C 354.738 162.160,354.589 161.440,354.400 161.000 C 354.189 160.510,354.061 160.432,354.068 160.800 M70.480 162.480 C 69.923 163.037,69.783 193.038,70.332 193.904 C 70.584 194.300,74.393 194.386,88.026 194.304 L 105.400 194.200 105.407 178.500 L 105.414 162.800 105.302 178.404 L 105.191 194.008 87.895 193.904 L 70.600 193.800 70.600 178.200 L 70.600 162.600 88.000 162.394 L 105.400 162.187 88.180 162.094 C 75.214 162.023,70.841 162.119,70.480 162.480 M115.062 162.300 C 114.960 162.465,122.762 162.600,132.400 162.600 C 142.038 162.600,149.840 162.465,149.738 162.300 C 149.636 162.135,141.834 162.000,132.400 162.000 C 122.966 162.000,115.164 162.135,115.062 162.300 M159.383 162.501 C 159.277 162.776,159.238 170.021,159.295 178.601 L 159.400 194.200 176.800 194.206 L 194.200 194.213 176.900 194.102 L 159.600 193.992 159.600 178.200 L 159.600 162.408 177.100 162.300 L 194.600 162.191 177.087 162.096 C 163.357 162.021,159.533 162.108,159.383 162.501 M204.000 162.296 C 204.000 162.463,211.830 162.551,221.400 162.492 L 238.800 162.383 238.800 178.200 L 238.800 194.017 221.400 193.908 C 211.830 193.849,204.000 193.937,204.000 194.104 C 204.000 194.272,211.875 194.362,221.500 194.304 L 239.000 194.200 239.000 178.200 L 239.000 162.200 221.500 162.096 C 211.875 162.038,204.000 162.128,204.000 162.296 M248.667 162.267 C 248.520 162.413,248.400 169.703,248.400 178.467 L 248.400 194.400 266.000 194.400 C 275.680 194.400,283.600 194.265,283.600 194.100 C 283.600 193.935,275.770 193.849,266.200 193.908 L 248.800 194.017 248.800 178.200 L 248.800 162.383 266.162 162.492 C 275.711 162.551,283.440 162.465,283.338 162.300 C 283.109 161.929,249.037 161.897,248.667 162.267 M355.228 165.633 C 355.244 166.165,355.419 166.960,355.619 167.400 C 355.871 167.958,355.907 167.715,355.738 166.600 C 355.455 164.743,355.187 164.236,355.228 165.633 M312.520 167.200 C 312.520 168.410,312.595 168.905,312.687 168.300 C 312.778 167.695,312.778 166.705,312.687 166.100 C 312.595 165.495,312.520 165.990,312.520 167.200 M361.000 170.000 C 359.337 170.423,360.974 170.442,363.000 170.023 C 364.345 169.745,364.409 169.692,363.400 169.693 C 362.740 169.694,361.660 169.832,361.000 170.000 M377.400 170.000 C 378.060 170.168,379.140 170.306,379.800 170.307 C 380.809 170.308,380.745 170.255,379.400 169.977 C 377.374 169.558,375.737 169.577,377.400 170.000 M382.600 170.800 C 383.040 170.989,383.760 171.138,384.200 171.132 C 384.843 171.123,384.804 171.057,384.000 170.800 C 382.632 170.362,381.581 170.362,382.600 170.800 M312.888 172.400 C 312.878 173.170,313.010 174.700,313.182 175.800 C 313.434 177.418,313.497 177.533,313.512 176.400 C 313.522 175.630,313.390 174.100,313.218 173.000 C 312.966 171.382,312.903 171.267,312.888 172.400 M386.600 171.600 C 387.040 171.789,387.670 171.944,388.000 171.944 C 388.378 171.944,388.304 171.817,387.800 171.600 C 387.360 171.411,386.730 171.256,386.400 171.256 C 386.022 171.256,386.096 171.383,386.600 171.600 M390.000 172.400 C 390.330 172.613,390.870 172.788,391.200 172.788 C 391.733 172.788,391.733 172.745,391.200 172.400 C 390.870 172.187,390.330 172.012,390.000 172.012 C 389.467 172.012,389.467 172.055,390.000 172.400 M397.200 174.746 C 398.174 175.326,399.858 175.747,399.400 175.297 C 399.180 175.080,398.460 174.788,397.800 174.646 C 397.017 174.478,396.808 174.513,397.200 174.746 M398.758 176.900 C 398.673 178.701,398.876 180.209,399.257 180.600 C 399.510 180.860,399.615 180.127,399.557 178.500 C 399.474 176.162,398.851 174.915,398.758 176.900 M313.687 178.600 C 313.691 179.040,313.832 179.940,314.000 180.600 C 314.274 181.678,314.306 181.698,314.313 180.800 C 314.317 180.250,314.176 179.350,314.000 178.800 C 313.749 178.016,313.681 177.973,313.687 178.600 M314.468 182.400 C 314.488 183.439,315.118 185.146,315.132 184.200 C 315.138 183.760,314.989 183.040,314.800 182.600 C 314.589 182.110,314.461 182.032,314.468 182.400 M399.544 184.900 C 399.465 185.615,399.503 187.550,399.628 189.200 C 399.851 192.130,399.858 192.100,399.928 187.900 C 399.999 183.676,399.827 182.337,399.544 184.900 M315.618 186.854 C 315.608 187.214,315.863 188.114,316.184 188.854 C 316.940 190.594,316.958 189.873,316.212 187.800 C 315.895 186.920,315.627 186.494,315.618 186.854 M114.800 194.100 C 114.800 194.265,122.720 194.400,132.400 194.400 C 142.080 194.400,150.000 194.265,150.000 194.100 C 150.000 193.935,142.080 193.800,132.400 193.800 C 122.720 193.800,114.800 193.935,114.800 194.100 M316.011 198.620 C 314.184 199.909,314.813 199.892,316.714 198.600 C 317.523 198.050,318.009 197.609,317.793 197.620 C 317.577 197.630,316.775 198.080,316.011 198.620 M394.894 201.212 C 394.175 201.865,393.737 202.400,393.919 202.400 C 394.101 202.400,394.768 201.860,395.400 201.200 C 396.870 199.665,396.586 199.672,394.894 201.212 M309.200 201.218 C 308.762 201.515,308.924 201.552,309.800 201.356 C 311.271 201.027,311.590 200.798,310.567 200.806 C 310.145 200.809,309.530 200.995,309.200 201.218 M302.800 202.000 L 300.600 202.270 302.400 202.312 C 303.390 202.335,304.920 202.205,305.800 202.023 C 307.820 201.605,306.128 201.592,302.800 202.000 M42.747 211.300 C 42.653 215.535,42.676 220.890,42.797 223.200 C 42.934 225.789,43.050 222.837,43.101 215.500 C 43.147 208.955,43.124 203.600,43.050 203.600 C 42.977 203.600,42.840 207.065,42.747 211.300 M385.600 207.636 C 384.936 208.179,384.869 208.315,385.400 208.040 C 386.705 207.366,387.428 206.812,387.000 206.815 C 386.780 206.817,386.150 207.186,385.600 207.636 M364.000 214.400 C 362.656 214.831,364.108 214.831,365.800 214.400 C 366.878 214.126,366.898 214.094,366.000 214.087 C 365.450 214.083,364.550 214.224,364.000 214.400 M357.400 215.200 C 356.053 215.441,355.990 215.491,357.000 215.514 C 357.660 215.529,359.010 215.397,360.000 215.220 C 361.615 214.933,361.656 214.901,360.400 214.907 C 359.630 214.911,358.280 215.042,357.400 215.200 M347.829 220.229 C 347.681 220.815,347.638 221.372,347.732 221.466 C 347.827 221.560,348.024 221.158,348.171 220.571 C 348.319 219.985,348.362 219.428,348.268 219.334 C 348.173 219.240,347.976 219.642,347.829 220.229 M43.724 233.800 C 43.726 235.120,43.801 235.612,43.890 234.893 C 43.979 234.174,43.977 233.094,43.886 232.493 C 43.795 231.892,43.722 232.480,43.724 233.800 M44.272 238.600 C 44.399 239.700,44.569 240.675,44.651 240.767 C 44.932 241.082,44.720 238.599,44.380 237.600 C 44.151 236.926,44.116 237.251,44.272 238.600 M340.000 240.800 C 339.551 241.680,339.274 242.400,339.384 242.400 C 339.494 242.400,339.951 241.680,340.400 240.800 C 340.849 239.920,341.126 239.200,341.016 239.200 C 340.906 239.200,340.449 239.920,340.000 240.800 M45.072 243.400 C 45.199 244.500,45.369 245.475,45.451 245.567 C 45.732 245.882,45.520 243.399,45.180 242.400 C 44.951 241.726,44.916 242.051,45.072 243.400 M336.553 247.300 C 335.176 249.636,335.086 249.835,335.787 249.000 C 336.600 248.032,337.300 246.800,337.038 246.800 C 336.933 246.800,336.715 247.025,336.553 247.300 M333.400 252.400 C 333.059 253.060,332.869 253.600,332.979 253.600 C 333.089 253.600,333.459 253.060,333.800 252.400 C 334.141 251.740,334.331 251.200,334.221 251.200 C 334.111 251.200,333.741 251.740,333.400 252.400 M331.929 254.700 C 330.888 255.924,329.428 258.154,329.830 257.905 C 330.277 257.629,332.932 254.000,332.687 254.000 C 332.597 254.000,332.256 254.315,331.929 254.700 M49.048 260.200 C 49.191 260.860,49.466 261.670,49.659 262.000 C 49.884 262.384,49.918 262.168,49.752 261.400 C 49.609 260.740,49.334 259.930,49.141 259.600 C 48.916 259.216,48.882 259.432,49.048 260.200 M325.200 263.714 C 323.990 265.268,322.018 267.634,320.818 268.970 C 319.523 270.412,319.250 270.831,320.146 270.000 C 321.871 268.401,327.780 261.241,327.551 261.028 C 327.468 260.950,326.410 262.159,325.200 263.714 M314.294 275.811 C 312.366 277.675,310.930 279.200,311.103 279.200 C 311.276 279.200,312.940 277.670,314.800 275.800 C 319.161 271.416,318.834 271.423,314.294 275.811 M306.800 282.844 L 304.200 285.274 306.900 282.988 C 309.273 280.979,309.874 280.382,309.500 280.407 C 309.445 280.410,308.230 281.507,306.800 282.844 M301.800 286.844 C 298.755 289.303,298.266 289.986,301.125 287.786 C 303.334 286.086,304.334 285.167,303.924 285.214 C 303.856 285.222,302.900 285.955,301.800 286.844 M63.950 291.400 C 64.820 292.720,66.098 294.430,66.790 295.200 C 67.482 295.970,67.182 295.416,66.124 293.969 C 63.045 289.757,62.249 288.817,63.950 291.400 M285.300 298.626 C 284.365 299.187,283.600 299.740,283.600 299.855 C 283.600 300.071,286.299 298.538,286.980 297.936 C 287.667 297.328,287.027 297.591,285.300 298.626 M74.393 303.700 C 76.699 306.065,78.737 308.000,78.921 308.000 C 79.106 308.000,79.005 307.775,78.697 307.500 C 78.389 307.225,76.351 305.290,74.168 303.200 L 70.200 299.400 74.393 303.700 M278.400 302.836 C 277.736 303.379,277.669 303.515,278.200 303.240 C 279.505 302.566,280.228 302.012,279.800 302.015 C 279.580 302.017,278.950 302.386,278.400 302.836 M274.061 305.203 C 272.884 305.831,271.809 306.457,271.673 306.594 C 270.981 307.286,275.418 305.089,276.180 304.362 C 276.757 303.812,276.393 303.956,274.061 305.203 M89.600 315.779 C 89.600 315.889,90.140 316.259,90.800 316.600 C 91.460 316.941,92.000 317.131,92.000 317.021 C 92.000 316.911,91.460 316.541,90.800 316.200 C 90.140 315.859,89.600 315.669,89.600 315.779 M93.200 317.964 C 93.750 318.414,94.380 318.783,94.600 318.785 C 95.028 318.788,94.305 318.234,93.000 317.560 C 92.469 317.285,92.536 317.421,93.200 317.964 M241.200 319.669 C 239.990 320.108,238.910 320.557,238.801 320.666 C 238.446 321.020,240.954 320.293,242.600 319.564 C 244.743 318.616,243.931 318.677,241.200 319.669 M236.400 321.218 C 235.962 321.515,236.124 321.552,237.000 321.356 C 238.471 321.027,238.790 320.798,237.767 320.806 C 237.345 320.809,236.730 320.995,236.400 321.218 M100.854 321.787 C 101.190 322.123,104.000 323.216,104.000 323.011 C 104.000 322.901,103.348 322.538,102.551 322.205 C 101.075 321.589,100.518 321.451,100.854 321.787 M226.000 324.418 C 225.562 324.715,225.724 324.752,226.600 324.556 C 228.071 324.227,228.390 323.998,227.367 324.006 C 226.945 324.009,226.330 324.195,226.000 324.418 M111.800 326.000 C 112.901 326.473,113.292 326.473,113.000 326.000 C 112.864 325.780,112.358 325.613,111.876 325.628 C 111.031 325.655,111.029 325.669,111.800 326.000 M220.000 326.018 C 219.562 326.315,219.724 326.352,220.600 326.156 C 222.071 325.827,222.390 325.598,221.367 325.606 C 220.945 325.609,220.330 325.795,220.000 326.018 M216.400 326.818 C 215.962 327.115,216.124 327.152,217.000 326.956 C 218.471 326.627,218.790 326.398,217.767 326.406 C 217.345 326.409,216.730 326.595,216.400 326.818 M212.800 327.618 C 212.362 327.915,212.524 327.952,213.400 327.756 C 214.871 327.427,215.190 327.198,214.167 327.206 C 213.745 327.209,213.130 327.395,212.800 327.618 M120.033 328.144 C 120.125 328.223,120.740 328.408,121.400 328.556 C 122.276 328.752,122.438 328.715,122.000 328.418 C 121.460 328.053,119.632 327.798,120.033 328.144 M209.200 328.418 C 208.762 328.715,208.924 328.752,209.800 328.556 C 211.271 328.227,211.590 327.998,210.567 328.006 C 210.145 328.009,209.530 328.195,209.200 328.418 M123.633 328.944 C 123.725 329.023,124.340 329.208,125.000 329.356 C 125.876 329.552,126.038 329.515,125.600 329.218 C 125.060 328.853,123.232 328.598,123.633 328.944 M205.400 329.200 C 204.381 329.638,205.432 329.638,206.800 329.200 C 207.604 328.943,207.643 328.877,207.000 328.868 C 206.560 328.862,205.840 329.011,205.400 329.200 M128.400 330.000 C 129.768 330.438,130.819 330.438,129.800 330.000 C 129.360 329.811,128.640 329.662,128.200 329.668 C 127.557 329.677,127.596 329.743,128.400 330.000 M200.000 330.000 C 198.656 330.431,200.108 330.431,201.800 330.000 C 202.878 329.726,202.898 329.694,202.000 329.687 C 201.450 329.683,200.550 329.824,200.000 330.000 M132.800 330.800 C 133.350 330.976,134.160 331.120,134.600 331.120 C 135.233 331.120,135.192 331.054,134.400 330.800 C 133.850 330.624,133.040 330.480,132.600 330.480 C 131.967 330.480,132.008 330.546,132.800 330.800 M194.600 330.800 L 193.800 331.144 194.600 331.132 C 195.040 331.126,195.850 330.976,196.400 330.800 L 197.400 330.480 196.400 330.468 C 195.850 330.462,195.040 330.611,194.600 330.800 M138.600 331.600 C 139.260 331.768,140.250 331.905,140.800 331.905 C 141.692 331.905,141.670 331.872,140.600 331.600 C 139.940 331.432,138.950 331.295,138.400 331.295 C 137.508 331.295,137.530 331.328,138.600 331.600 M188.800 331.600 C 187.456 332.031,188.908 332.031,190.600 331.600 C 191.678 331.326,191.698 331.294,190.800 331.287 C 190.250 331.283,189.350 331.424,188.800 331.600 M145.800 332.418 C 148.547 332.846,150.831 332.812,148.400 332.380 C 147.410 332.203,145.970 332.070,145.200 332.083 C 144.055 332.103,144.165 332.164,145.800 332.418 M178.400 332.400 L 176.600 332.680 178.200 332.697 C 179.080 332.706,180.880 332.579,182.200 332.415 L 184.600 332.118 182.400 332.119 C 181.190 332.120,179.390 332.246,178.400 332.400 M163.119 333.098 C 164.944 333.172,167.824 333.172,169.519 333.097 C 171.214 333.022,169.720 332.961,166.200 332.962 C 162.680 332.962,161.294 333.024,163.119 333.098 " stroke="none" fill="#87b4dc" fill-rule="evenodd"></path><path id="path4" d="M203.382 95.600 C 203.382 104.290,203.435 107.845,203.500 103.500 C 203.564 99.155,203.564 92.045,203.500 87.700 C 203.435 83.355,203.382 86.910,203.382 95.600 M150.182 137.000 C 150.182 145.800,150.235 149.343,150.300 144.873 C 150.364 140.404,150.364 133.204,150.299 128.873 C 150.235 124.543,150.182 128.200,150.182 137.000 M203.382 137.000 C 203.382 145.580,203.435 149.033,203.500 144.674 C 203.564 140.314,203.564 133.294,203.499 129.074 C 203.435 124.853,203.382 128.420,203.382 137.000 M150.182 178.200 C 150.182 187.000,150.235 190.543,150.300 186.073 C 150.364 181.604,150.364 174.404,150.299 170.073 C 150.235 165.743,150.182 169.400,150.182 178.200 M203.382 178.200 C 203.382 186.780,203.435 190.233,203.500 185.874 C 203.564 181.514,203.564 174.494,203.499 170.274 C 203.435 166.053,203.382 169.620,203.382 178.200 M42.158 215.800 C 42.158 218.880,42.221 220.087,42.297 218.482 C 42.373 216.878,42.373 214.358,42.296 212.882 C 42.219 211.407,42.157 212.720,42.158 215.800 M356.500 215.876 C 356.885 215.976,357.515 215.976,357.900 215.876 C 358.285 215.775,357.970 215.693,357.200 215.693 C 356.430 215.693,356.115 215.775,356.500 215.876 M148.100 333.076 C 148.485 333.176,149.115 333.176,149.500 333.076 C 149.885 332.975,149.570 332.893,148.800 332.893 C 148.030 332.893,147.715 332.975,148.100 333.076 M177.505 333.083 C 178.002 333.179,178.722 333.175,179.105 333.075 C 179.487 332.975,179.080 332.896,178.200 332.901 C 177.320 332.905,177.007 332.987,177.505 333.083 M159.507 333.490 C 160.226 333.579,161.306 333.577,161.907 333.486 C 162.508 333.395,161.920 333.322,160.600 333.324 C 159.280 333.326,158.788 333.401,159.507 333.490 " stroke="none" fill="#3b8ccc" fill-rule="evenodd"></path><path id="path5" d="M203.793 96.000 L 203.800 111.800 221.400 111.806 L 239.000 111.813 221.505 111.702 L 204.009 111.592 203.898 95.896 L 203.786 80.200 203.793 96.000 M203.782 137.000 C 203.782 145.800,203.835 149.343,203.900 144.873 C 203.964 140.404,203.964 133.204,203.899 128.873 C 203.835 124.543,203.782 128.200,203.782 137.000 M114.582 137.000 C 114.582 145.580,114.635 149.033,114.700 144.674 C 114.764 140.314,114.764 133.294,114.699 129.074 C 114.635 124.853,114.582 128.420,114.582 137.000 M194.582 137.000 C 194.582 145.580,194.635 149.033,194.700 144.674 C 194.764 140.314,194.764 133.294,194.699 129.074 C 194.635 124.853,194.582 128.420,194.582 137.000 M114.582 178.200 C 114.582 186.780,114.635 190.233,114.700 185.874 C 114.764 181.514,114.764 174.494,114.699 170.274 C 114.635 166.053,114.582 169.620,114.582 178.200 M194.582 178.200 C 194.582 186.780,194.635 190.233,194.700 185.874 C 194.764 181.514,194.764 174.494,194.699 170.274 C 194.635 166.053,194.582 169.620,194.582 178.200 M203.782 178.200 C 203.782 186.780,203.835 190.233,203.900 185.874 C 203.964 181.514,203.964 174.494,203.899 170.274 C 203.835 166.053,203.782 169.620,203.782 178.200 M312.493 164.000 C 312.493 164.770,312.575 165.085,312.676 164.700 C 312.776 164.315,312.776 163.685,312.676 163.300 C 312.575 162.915,312.493 163.230,312.493 164.000 M312.501 170.600 C 312.505 171.480,312.587 171.793,312.683 171.295 C 312.779 170.798,312.775 170.078,312.675 169.695 C 312.575 169.313,312.496 169.720,312.501 170.600 M368.691 169.489 C 369.401 169.577,370.661 169.579,371.491 169.492 C 372.321 169.405,371.740 169.333,370.200 169.331 C 368.660 169.329,367.981 169.400,368.691 169.489 M396.581 200.100 L 395.000 201.800 396.700 200.219 C 398.281 198.748,398.584 198.400,398.281 198.400 C 398.216 198.400,397.451 199.165,396.581 200.100 M298.705 202.283 C 299.202 202.379,299.922 202.375,300.305 202.275 C 300.687 202.175,300.280 202.096,299.400 202.101 C 298.520 202.105,298.207 202.187,298.705 202.283 M42.531 213.000 C 42.533 214.540,42.605 215.121,42.692 214.291 C 42.779 213.461,42.777 212.201,42.689 211.491 C 42.600 210.781,42.529 211.460,42.531 213.000 M155.511 333.093 C 156.451 333.178,157.891 333.177,158.711 333.091 C 159.530 333.005,158.760 332.936,157.000 332.937 C 155.240 332.939,154.570 333.009,155.511 333.093 " stroke="none" fill="#7cb4dc" fill-rule="evenodd"></path><path id="path6" d="M239.382 95.600 C 239.382 104.510,239.435 108.155,239.500 103.700 C 239.564 99.245,239.564 91.955,239.500 87.500 C 239.435 83.045,239.382 86.690,239.382 95.600 M158.667 121.067 C 158.297 121.437,158.329 152.709,158.700 152.938 C 158.865 153.040,159.000 145.851,159.000 136.962 C 159.000 128.073,158.985 120.800,158.967 120.800 C 158.948 120.800,158.813 120.920,158.667 121.067 M114.182 137.000 C 114.182 145.800,114.235 149.343,114.300 144.873 C 114.364 140.404,114.364 133.204,114.299 128.873 C 114.235 124.543,114.182 128.200,114.182 137.000 M239.382 137.000 C 239.382 145.800,239.435 149.343,239.500 144.873 C 239.564 140.404,239.564 133.204,239.499 128.873 C 239.435 124.543,239.382 128.200,239.382 137.000 M123.700 153.500 C 128.485 153.563,136.315 153.563,141.100 153.500 C 145.885 153.436,141.970 153.384,132.400 153.384 C 122.830 153.384,118.915 153.436,123.700 153.500 M168.327 153.500 C 173.237 153.563,181.157 153.563,185.927 153.500 C 190.697 153.436,186.680 153.384,177.000 153.384 C 167.320 153.384,163.417 153.436,168.327 153.500 M212.727 153.500 C 217.637 153.563,225.557 153.563,230.327 153.500 C 235.097 153.436,231.080 153.384,221.400 153.384 C 211.720 153.384,207.817 153.436,212.727 153.500 M158.844 162.147 C 158.519 162.539,158.422 167.144,158.500 178.447 L 158.610 194.200 158.705 178.380 C 158.775 166.719,158.926 162.434,159.280 162.080 C 159.544 161.816,159.656 161.600,159.529 161.600 C 159.402 161.600,159.094 161.846,158.844 162.147 M114.088 178.276 C 114.040 187.118,114.135 194.436,114.300 194.539 C 114.573 194.708,114.567 182.787,114.287 168.000 C 114.226 164.810,114.137 169.434,114.088 178.276 M239.200 178.480 C 239.090 187.434,239.137 194.623,239.305 194.456 C 239.472 194.288,239.562 186.962,239.504 178.175 L 239.400 162.200 239.200 178.480 M247.782 178.200 C 247.782 186.780,247.835 190.233,247.900 185.874 C 247.964 181.514,247.964 174.494,247.899 170.274 C 247.835 166.053,247.782 169.620,247.782 178.200 M42.124 208.200 C 42.126 209.520,42.201 210.012,42.290 209.293 C 42.379 208.574,42.377 207.494,42.286 206.893 C 42.195 206.292,42.122 206.880,42.124 208.200 M358.900 215.876 C 359.285 215.976,359.915 215.976,360.300 215.876 C 360.685 215.775,360.370 215.693,359.600 215.693 C 358.830 215.693,358.515 215.775,358.900 215.876 M42.093 222.400 C 42.093 223.170,42.175 223.485,42.276 223.100 C 42.376 222.715,42.376 222.085,42.276 221.700 C 42.175 221.315,42.093 221.630,42.093 222.400 M145.700 333.076 C 146.085 333.176,146.715 333.176,147.100 333.076 C 147.485 332.975,147.170 332.893,146.400 332.893 C 145.630 332.893,145.315 332.975,145.700 333.076 M180.300 333.082 C 180.795 333.178,181.605 333.178,182.100 333.082 C 182.595 332.987,182.190 332.909,181.200 332.909 C 180.210 332.909,179.805 332.987,180.300 333.082 M155.300 333.487 C 155.905 333.578,156.895 333.578,157.500 333.487 C 158.105 333.395,157.610 333.320,156.400 333.320 C 155.190 333.320,154.695 333.395,155.300 333.487 " stroke="none" fill="#2f84cc" fill-rule="evenodd"></path><path id="path7" d="M203.280 79.280 C 202.737 79.823,202.562 111.405,203.100 111.738 C 203.265 111.840,203.400 104.606,203.400 95.662 L 203.400 79.400 221.462 79.400 C 231.396 79.400,239.440 79.265,239.338 79.100 C 239.005 78.561,203.823 78.737,203.280 79.280 M221.600 112.000 L 203.800 112.213 221.476 112.306 C 232.931 112.367,239.240 112.259,239.400 112.000 C 239.536 111.780,239.592 111.642,239.524 111.694 C 239.456 111.745,231.390 111.883,221.600 112.000 M114.267 120.267 C 114.120 120.413,114.003 120.728,114.006 120.967 C 114.010 121.218,114.148 121.187,114.335 120.892 C 114.589 120.491,118.412 120.406,132.491 120.492 C 142.299 120.551,150.240 120.465,150.138 120.300 C 149.909 119.929,114.637 119.897,114.267 120.267 M158.749 120.700 C 158.263 121.319,158.273 121.343,158.836 120.904 C 159.315 120.531,163.853 120.382,177.236 120.300 L 195.000 120.191 177.149 120.096 C 160.557 120.007,159.259 120.049,158.749 120.700 M203.216 120.770 C 202.404 122.288,202.669 152.603,203.500 153.232 C 204.096 153.682,204.125 153.678,203.700 153.201 C 203.174 152.610,202.932 122.364,203.443 121.033 C 203.737 120.265,238.958 120.046,239.337 120.810 C 239.449 121.036,239.494 120.990,239.437 120.710 C 239.238 119.727,203.743 119.786,203.216 120.770 M194.982 136.800 C 194.982 145.270,195.035 148.735,195.099 144.500 C 195.164 140.265,195.164 133.335,195.099 129.100 C 195.035 124.865,194.982 128.330,194.982 136.800 M312.901 157.000 C 312.905 157.880,312.987 158.193,313.083 157.695 C 313.179 157.198,313.175 156.478,313.075 156.095 C 312.975 155.713,312.896 156.120,312.901 157.000 M69.467 161.867 C 69.097 162.237,69.129 194.309,69.500 194.538 C 69.665 194.640,69.800 187.271,69.800 178.162 C 69.800 169.053,69.785 161.600,69.767 161.600 C 69.748 161.600,69.613 161.720,69.467 161.867 M203.043 162.233 C 202.689 163.154,202.744 194.319,203.100 194.538 C 203.265 194.640,203.400 187.271,203.400 178.162 C 203.400 169.053,203.374 161.600,203.343 161.600 C 203.311 161.600,203.176 161.885,203.043 162.233 M105.783 178.200 C 105.783 187.220,105.835 190.967,105.899 186.527 C 105.964 182.087,105.964 174.707,105.900 170.127 C 105.835 165.547,105.783 169.180,105.783 178.200 M284.000 178.480 C 283.890 187.434,283.937 194.623,284.105 194.456 C 284.272 194.288,284.362 186.962,284.304 178.175 L 284.200 162.200 284.000 178.480 M194.982 178.200 C 194.982 186.780,195.035 190.233,195.100 185.874 C 195.164 181.514,195.164 174.494,195.099 170.274 C 195.035 166.053,194.982 169.620,194.982 178.200 M312.093 167.200 C 312.093 167.970,312.175 168.285,312.276 167.900 C 312.376 167.515,312.376 166.885,312.276 166.500 C 312.175 166.115,312.093 166.430,312.093 167.200 M369.100 168.682 C 369.595 168.778,370.405 168.778,370.900 168.682 C 371.395 168.587,370.990 168.509,370.000 168.509 C 369.010 168.509,368.605 168.587,369.100 168.682 M373.300 169.076 C 373.685 169.176,374.315 169.176,374.700 169.076 C 375.085 168.975,374.770 168.893,374.000 168.893 C 373.230 168.893,372.915 168.975,373.300 169.076 M358.800 169.618 C 358.362 169.915,358.524 169.952,359.400 169.756 C 360.871 169.427,361.190 169.198,360.167 169.206 C 359.745 169.209,359.130 169.395,358.800 169.618 M312.901 178.200 C 312.905 179.080,312.987 179.393,313.083 178.895 C 313.179 178.398,313.175 177.678,313.075 177.295 C 312.975 176.913,312.896 177.320,312.901 178.200 M397.586 199.900 L 395.400 202.200 397.700 200.014 C 398.965 198.811,400.000 197.776,400.000 197.714 C 400.000 197.417,399.618 197.763,397.586 199.900 M300.300 201.489 C 301.015 201.578,302.185 201.578,302.900 201.489 C 303.615 201.401,303.030 201.328,301.600 201.328 C 300.170 201.328,299.585 201.401,300.300 201.489 M106.900 201.900 C 142.045 201.956,199.555 201.956,234.700 201.900 C 269.845 201.844,241.090 201.798,170.800 201.798 C 100.510 201.798,71.755 201.844,106.900 201.900 M42.267 203.867 C 42.120 204.013,42.015 204.598,42.034 205.167 C 42.068 206.181,42.075 206.179,42.421 205.020 C 42.785 203.803,42.731 203.402,42.267 203.867 M350.096 216.332 C 349.820 216.508,350.720 216.582,352.096 216.497 C 355.490 216.287,355.920 216.069,353.000 216.038 C 351.680 216.024,350.373 216.156,350.096 216.332 M42.006 224.833 C 42.009 225.585,42.192 226.470,42.412 226.800 C 42.691 227.219,42.733 226.858,42.550 225.600 C 42.225 223.359,41.998 223.040,42.006 224.833 M42.828 233.876 C 42.813 234.358,42.980 234.864,43.200 235.000 C 43.673 235.292,43.673 234.901,43.200 233.800 C 42.869 233.029,42.855 233.031,42.828 233.876 M319.178 271.900 L 317.800 273.400 319.300 272.022 C 320.696 270.738,320.984 270.400,320.678 270.400 C 320.612 270.400,319.937 271.075,319.178 271.900 M311.935 279.008 C 310.690 280.214,309.796 281.200,309.949 281.200 C 310.102 281.200,311.205 280.210,312.400 279.000 C 315.209 276.156,314.876 276.162,311.935 279.008 M279.800 302.800 C 279.140 303.237,278.780 303.592,279.000 303.588 C 279.401 303.582,281.576 302.023,281.200 302.012 C 281.090 302.008,280.460 302.363,279.800 302.800 M75.638 306.100 C 75.732 306.155,76.527 306.830,77.404 307.600 L 79.000 309.000 77.622 307.500 C 76.863 306.675,76.068 306.000,75.855 306.000 C 75.641 306.000,75.544 306.045,75.638 306.100 M202.600 330.400 C 201.829 330.731,201.831 330.745,202.676 330.772 C 203.158 330.787,203.664 330.620,203.800 330.400 C 204.092 329.927,203.701 329.927,202.600 330.400 M136.400 331.982 C 136.730 332.205,137.345 332.391,137.767 332.394 C 138.790 332.402,138.471 332.173,137.000 331.844 C 136.124 331.648,135.962 331.685,136.400 331.982 M142.400 332.805 C 142.730 333.016,143.525 333.191,144.167 333.194 C 145.714 333.202,145.377 332.971,143.400 332.668 C 142.310 332.501,141.991 332.545,142.400 332.805 M184.400 332.800 L 182.600 333.080 184.200 333.112 C 185.080 333.129,186.160 332.989,186.600 332.800 C 187.527 332.402,186.961 332.402,184.400 332.800 M151.900 333.482 C 152.395 333.578,153.205 333.578,153.700 333.482 C 154.195 333.387,153.790 333.309,152.800 333.309 C 151.810 333.309,151.405 333.387,151.900 333.482 M160.300 333.899 C 162.775 333.969,166.825 333.969,169.300 333.899 C 171.775 333.828,169.750 333.771,164.800 333.771 C 159.850 333.771,157.825 333.828,160.300 333.899 " stroke="none" fill="#147bc4" fill-rule="evenodd"></path></g></svg>
