<svg id="svg" version="1.1" xmlns="http://www.w3.org/2000/svg" xmlns:xlink="http://www.w3.org/1999/xlink"  viewBox="0 -10 512 512"><g id="svgg"><path id="path0" d="M45.600 200.000 L 45.600 240.400 52.800 240.400 C 56.760 240.400,60.040 240.355,60.089 240.300 C 60.138 240.245,60.273 232.370,60.389 222.800 L 60.600 205.400 79.600 205.400 L 98.600 205.400 98.800 222.800 L 99.000 240.200 106.300 240.309 L 113.600 240.418 113.600 200.000 L 113.600 159.582 106.300 159.691 L 99.000 159.800 98.800 176.200 L 98.600 192.600 79.600 192.600 L 60.600 192.600 60.389 176.200 C 60.273 167.180,60.138 159.755,60.089 159.700 C 60.040 159.645,56.760 159.600,52.800 159.600 L 45.600 159.600 45.600 200.000 M122.090 166.298 L 122.200 173.000 133.800 173.200 L 145.400 173.400 145.502 206.900 L 145.605 240.400 152.800 240.400 L 159.995 240.400 160.098 206.900 L 160.200 173.400 172.200 173.200 L 184.200 173.000 184.200 166.400 L 184.200 159.800 153.090 159.698 L 121.981 159.595 122.090 166.298 M192.987 160.094 C 192.881 160.372,192.840 178.510,192.897 200.400 L 193.000 240.200 200.334 240.309 L 207.668 240.418 207.424 211.509 C 207.289 195.609,207.084 180.395,206.966 177.700 C 206.731 172.300,207.331 170.996,208.346 174.700 C 208.633 175.745,209.020 176.960,209.207 177.400 C 209.394 177.840,209.761 178.920,210.023 179.800 C 210.284 180.680,210.656 181.713,210.849 182.095 C 211.042 182.477,211.200 183.064,211.200 183.400 C 211.200 183.736,211.375 184.323,211.588 184.705 C 211.801 185.087,212.772 187.750,213.746 190.622 C 214.719 193.495,216.255 197.647,217.158 199.850 C 218.061 202.052,218.800 203.979,218.800 204.132 C 218.800 204.284,219.139 205.172,219.554 206.104 C 219.969 207.037,220.717 208.880,221.216 210.200 C 221.716 211.520,222.277 212.771,222.462 212.980 C 222.648 213.189,222.800 213.596,222.800 213.884 C 222.800 214.173,223.178 215.262,223.640 216.304 C 224.675 218.641,224.312 217.740,229.205 230.100 L 233.284 240.400 239.998 240.400 L 246.712 240.400 248.322 236.300 C 249.208 234.045,251.851 227.250,254.197 221.200 C 256.543 215.150,258.628 209.795,258.831 209.300 C 259.034 208.805,259.356 207.995,259.546 207.500 C 259.737 207.005,260.121 206.060,260.400 205.400 C 260.679 204.740,261.046 203.840,261.216 203.400 C 264.858 193.968,267.448 186.690,269.403 180.400 C 269.915 178.750,270.668 176.334,271.074 175.031 C 272.425 170.706,272.890 171.607,272.636 178.056 C 272.512 181.215,272.302 196.535,272.169 212.100 L 271.928 240.400 279.366 240.400 L 286.804 240.400 286.702 200.100 L 286.600 159.800 274.371 159.694 L 262.141 159.589 261.671 160.594 C 261.412 161.147,261.020 162.050,260.800 162.600 C 260.580 163.150,260.238 164.005,260.040 164.500 C 259.843 164.995,259.464 166.030,259.200 166.800 C 258.936 167.570,258.533 168.650,258.306 169.200 C 258.079 169.750,257.737 170.605,257.546 171.100 C 257.356 171.595,257.038 172.405,256.840 172.900 C 256.643 173.395,256.264 174.430,256.000 175.200 C 255.736 175.970,255.333 177.050,255.106 177.600 C 254.560 178.922,254.236 179.769,253.271 182.400 C 252.827 183.610,251.718 186.551,250.806 188.936 C 248.468 195.052,246.190 201.471,244.538 206.600 C 243.759 209.020,242.959 211.313,242.761 211.695 C 242.562 212.077,242.400 212.664,242.400 213.000 C 242.400 213.336,242.235 213.923,242.033 214.305 C 241.832 214.687,241.365 216.035,240.996 217.300 C 239.954 220.874,239.613 220.341,236.005 209.500 C 232.652 199.429,231.962 197.484,230.038 192.700 C 229.839 192.205,229.102 190.270,228.400 188.400 C 227.698 186.530,226.961 184.595,226.762 184.100 C 226.563 183.605,226.237 182.795,226.037 182.300 C 225.376 180.662,220.899 169.077,219.119 164.400 L 217.369 159.800 205.274 159.694 C 195.814 159.611,193.137 159.698,192.987 160.094 M301.843 160.233 C 301.525 161.060,301.525 238.940,301.843 239.767 C 302.061 240.335,304.760 240.400,328.243 240.400 L 354.400 240.400 354.400 233.604 L 354.400 226.808 335.500 226.704 L 316.600 226.600 316.498 193.100 L 316.395 159.600 309.241 159.600 C 303.085 159.600,302.052 159.688,301.843 160.233 " stroke="none" fill="#fcf9fa" fill-rule="evenodd"></path><path id="path1" d="M179.003 0.275 C 177.025 0.362,175.234 0.606,175.023 0.817 C 174.812 1.028,173.427 1.200,171.944 1.200 C 170.461 1.200,169.136 1.380,169.000 1.600 C 168.864 1.820,167.773 2.000,166.576 2.000 C 165.379 2.000,164.400 2.180,164.400 2.400 C 164.400 2.620,163.511 2.800,162.424 2.800 C 161.337 2.800,160.336 2.980,160.200 3.200 C 160.064 3.420,159.243 3.600,158.376 3.600 C 157.509 3.600,156.800 3.780,156.800 4.000 C 156.800 4.220,156.001 4.400,155.024 4.400 C 154.047 4.400,153.136 4.580,153.000 4.800 C 152.864 5.020,152.144 5.200,151.400 5.200 C 150.656 5.200,149.936 5.380,149.800 5.600 C 149.664 5.820,149.034 6.000,148.400 6.000 C 147.766 6.000,147.136 6.180,147.000 6.400 C 146.864 6.620,146.234 6.800,145.600 6.800 C 144.966 6.800,144.336 6.980,144.200 7.200 C 144.064 7.420,143.434 7.600,142.800 7.600 C 142.166 7.600,141.536 7.780,141.400 8.000 C 141.264 8.220,140.623 8.400,139.976 8.400 C 139.329 8.400,138.800 8.580,138.800 8.800 C 138.800 9.020,138.260 9.200,137.600 9.200 C 136.940 9.200,136.400 9.356,136.400 9.546 C 136.400 9.736,135.594 10.002,134.609 10.137 C 133.624 10.272,132.454 10.566,132.009 10.791 C 131.564 11.016,130.842 11.380,130.405 11.600 C 129.968 11.820,129.420 12.000,129.186 12.000 C 128.952 12.000,128.016 12.360,127.106 12.800 C 126.195 13.240,125.124 13.600,124.725 13.600 C 124.326 13.600,124.000 13.747,124.000 13.928 C 124.000 14.108,123.100 14.500,122.000 14.800 C 120.900 15.100,120.000 15.492,120.000 15.672 C 120.000 15.853,119.640 16.000,119.200 16.000 C 118.760 16.000,118.400 16.180,118.400 16.400 C 118.400 16.620,118.040 16.800,117.600 16.800 C 117.160 16.800,116.800 16.980,116.800 17.200 C 116.800 17.420,116.528 17.600,116.195 17.600 C 115.862 17.600,115.277 17.768,114.895 17.974 C 114.513 18.179,113.615 18.583,112.900 18.871 C 112.185 19.160,111.600 19.531,111.600 19.698 C 111.600 19.864,111.240 20.000,110.800 20.000 C 110.360 20.000,110.000 20.180,110.000 20.400 C 110.000 20.620,109.655 20.800,109.233 20.800 C 108.812 20.800,108.407 20.935,108.333 21.100 C 108.213 21.370,106.111 22.578,103.703 23.760 C 103.210 24.002,102.805 24.335,102.803 24.500 C 102.801 24.665,102.440 24.800,102.000 24.800 C 101.560 24.800,101.200 24.980,101.200 25.200 C 101.200 25.420,100.906 25.600,100.547 25.600 C 100.188 25.600,99.603 25.936,99.247 26.346 C 98.891 26.757,98.033 27.217,97.341 27.369 C 96.649 27.521,95.766 27.995,95.379 28.423 C 94.993 28.850,94.434 29.200,94.138 29.200 C 93.842 29.200,93.600 29.380,93.600 29.600 C 93.600 29.820,93.364 30.000,93.075 30.000 C 92.787 30.000,92.164 30.360,91.692 30.800 C 91.220 31.240,90.596 31.600,90.305 31.600 C 90.014 31.600,89.517 31.960,89.200 32.400 C 88.883 32.840,88.343 33.200,88.000 33.200 C 87.657 33.200,87.117 33.560,86.800 34.000 C 86.483 34.440,86.038 34.800,85.812 34.801 C 85.585 34.801,84.770 35.341,84.000 36.000 C 83.230 36.659,82.415 37.199,82.188 37.199 C 81.962 37.200,81.517 37.560,81.200 38.000 C 80.883 38.440,80.420 38.800,80.171 38.800 C 79.590 38.800,77.200 41.074,77.200 41.627 C 77.200 41.858,77.038 41.947,76.841 41.825 C 76.643 41.703,75.902 42.120,75.195 42.752 C 73.177 44.555,72.896 44.763,72.721 44.587 C 72.630 44.497,71.363 45.570,69.905 46.972 C 68.447 48.374,67.177 49.443,67.082 49.349 C 66.988 49.255,65.401 50.708,63.556 52.579 C 59.327 56.865,56.865 59.327,52.579 63.556 C 50.708 65.401,49.255 66.988,49.349 67.082 C 49.443 67.177,48.374 68.447,46.972 69.905 C 45.570 71.363,44.497 72.630,44.587 72.721 C 44.759 72.892,44.532 73.196,42.702 75.249 C 42.097 75.927,41.703 76.643,41.825 76.841 C 41.947 77.038,41.858 77.200,41.627 77.200 C 41.074 77.200,38.800 79.590,38.800 80.171 C 38.800 80.420,38.440 80.883,38.000 81.200 C 37.560 81.517,37.200 81.962,37.199 82.188 C 37.199 82.415,36.659 83.230,36.000 84.000 C 35.341 84.770,34.801 85.585,34.801 85.812 C 34.800 86.038,34.440 86.483,34.000 86.800 C 33.560 87.117,33.200 87.657,33.200 88.000 C 33.200 88.343,32.840 88.883,32.400 89.200 C 31.960 89.517,31.600 90.014,31.600 90.305 C 31.600 90.596,31.240 91.220,30.800 91.692 C 30.360 92.164,30.000 92.787,30.000 93.075 C 30.000 93.364,29.820 93.600,29.600 93.600 C 29.380 93.600,29.200 93.842,29.200 94.138 C 29.200 94.434,28.850 94.993,28.423 95.379 C 27.995 95.766,27.521 96.649,27.369 97.341 C 27.217 98.033,26.757 98.891,26.346 99.247 C 25.936 99.603,25.600 100.188,25.600 100.547 C 25.600 100.906,25.420 101.200,25.200 101.200 C 24.980 101.200,24.800 101.560,24.800 102.000 C 24.800 102.440,24.665 102.801,24.500 102.803 C 24.335 102.805,24.002 103.210,23.760 103.703 C 22.578 106.111,21.370 108.213,21.100 108.333 C 20.935 108.407,20.800 108.812,20.800 109.233 C 20.800 109.655,20.620 110.000,20.400 110.000 C 20.180 110.000,20.000 110.360,20.000 110.800 C 20.000 111.240,19.864 111.600,19.698 111.600 C 19.531 111.600,19.160 112.185,18.871 112.900 C 18.583 113.615,18.179 114.513,17.974 114.895 C 17.768 115.277,17.600 115.862,17.600 116.195 C 17.600 116.528,17.420 116.800,17.200 116.800 C 16.980 116.800,16.800 117.160,16.800 117.600 C 16.800 118.040,16.620 118.400,16.400 118.400 C 16.180 118.400,16.000 118.760,16.000 119.200 C 16.000 119.640,15.853 120.000,15.672 120.000 C 15.492 120.000,15.100 120.900,14.800 122.000 C 14.500 123.100,14.108 124.000,13.928 124.000 C 13.747 124.000,13.600 124.326,13.600 124.725 C 13.600 125.124,13.240 126.195,12.800 127.106 C 12.360 128.016,12.000 128.952,12.000 129.186 C 12.000 129.420,11.820 129.968,11.600 130.405 C 11.380 130.842,11.016 131.564,10.791 132.009 C 10.566 132.454,10.272 133.624,10.137 134.609 C 10.002 135.594,9.736 136.400,9.546 136.400 C 9.356 136.400,9.200 136.940,9.200 137.600 C 9.200 138.260,9.020 138.800,8.800 138.800 C 8.580 138.800,8.400 139.329,8.400 139.976 C 8.400 140.623,8.220 141.264,8.000 141.400 C 7.780 141.536,7.600 142.166,7.600 142.800 C 7.600 143.434,7.420 144.064,7.200 144.200 C 6.980 144.336,6.800 144.966,6.800 145.600 C 6.800 146.234,6.620 146.864,6.400 147.000 C 6.180 147.136,6.000 147.766,6.000 148.400 C 6.000 149.034,5.820 149.664,5.600 149.800 C 5.380 149.936,5.200 150.656,5.200 151.400 C 5.200 152.144,5.020 152.864,4.800 153.000 C 4.580 153.136,4.400 154.047,4.400 155.024 C 4.400 156.001,4.220 156.800,4.000 156.800 C 3.780 156.800,3.600 157.509,3.600 158.376 C 3.600 159.243,3.420 160.064,3.200 160.200 C 2.980 160.336,2.800 161.337,2.800 162.424 C 2.800 163.511,2.620 164.400,2.400 164.400 C 2.180 164.400,2.000 165.379,2.000 166.576 C 2.000 167.773,1.820 168.864,1.600 169.000 C 1.380 169.136,1.200 170.461,1.200 171.944 C 1.200 173.567,1.001 174.839,0.700 175.140 C -0.029 175.869,-0.029 224.131,0.700 224.860 C 1.001 225.161,1.200 226.433,1.200 228.056 C 1.200 229.539,1.380 230.864,1.600 231.000 C 1.820 231.136,2.000 232.227,2.000 233.424 C 2.000 234.621,2.180 235.600,2.400 235.600 C 2.620 235.600,2.800 236.590,2.800 237.800 C 2.800 239.010,2.980 240.000,3.200 240.000 C 3.420 240.000,3.600 240.720,3.600 241.600 C 3.600 242.480,3.780 243.200,4.000 243.200 C 4.220 243.200,4.400 243.999,4.400 244.976 C 4.400 245.953,4.580 246.864,4.800 247.000 C 5.020 247.136,5.200 247.957,5.200 248.824 C 5.200 249.691,5.380 250.400,5.600 250.400 C 5.820 250.400,6.000 250.929,6.000 251.576 C 6.000 252.223,6.180 252.864,6.400 253.000 C 6.620 253.136,6.800 253.867,6.800 254.624 C 6.800 255.381,6.980 256.000,7.200 256.000 C 7.420 256.000,7.600 256.529,7.600 257.176 C 7.600 257.823,7.780 258.464,8.000 258.600 C 8.220 258.736,8.400 259.377,8.400 260.024 C 8.400 260.671,8.580 261.200,8.800 261.200 C 9.020 261.200,9.200 261.740,9.200 262.400 C 9.200 263.060,9.356 263.600,9.546 263.600 C 9.736 263.600,10.003 264.412,10.139 265.405 C 10.275 266.398,10.749 267.961,11.193 268.880 C 11.637 269.799,12.000 270.753,12.000 271.000 C 12.000 271.247,12.360 272.195,12.800 273.106 C 13.240 274.016,13.600 275.040,13.600 275.381 C 13.600 275.721,13.747 276.000,13.928 276.000 C 14.108 276.000,14.500 276.900,14.800 278.000 C 15.100 279.100,15.492 280.000,15.672 280.000 C 15.853 280.000,16.000 280.360,16.000 280.800 C 16.000 281.240,16.180 281.600,16.400 281.600 C 16.620 281.600,16.800 281.960,16.800 282.400 C 16.800 282.840,16.980 283.200,17.200 283.200 C 17.420 283.200,17.600 283.472,17.600 283.805 C 17.600 284.138,17.760 284.723,17.956 285.105 C 18.152 285.487,18.737 286.700,19.256 287.800 C 19.775 288.900,20.335 289.860,20.500 289.933 C 20.665 290.007,20.800 290.412,20.800 290.833 C 20.800 291.255,20.980 291.600,21.200 291.600 C 21.420 291.600,21.600 291.945,21.600 292.367 C 21.600 292.788,21.735 293.193,21.900 293.267 C 22.276 293.434,23.575 295.564,23.871 296.500 C 23.993 296.885,24.252 297.200,24.447 297.200 C 24.641 297.200,24.800 297.560,24.800 298.000 C 24.800 298.440,24.980 298.800,25.200 298.800 C 25.420 298.800,25.600 299.094,25.600 299.453 C 25.600 299.812,25.931 300.397,26.336 300.753 C 26.741 301.109,27.200 301.919,27.357 302.553 C 27.645 303.717,30.666 308.487,31.272 308.733 C 31.453 308.807,31.600 309.172,31.600 309.545 C 31.600 309.918,31.960 310.483,32.400 310.800 C 32.840 311.117,33.200 311.657,33.200 312.000 C 33.200 312.343,33.560 312.883,34.000 313.200 C 34.440 313.517,34.800 313.962,34.801 314.188 C 34.801 314.415,35.341 315.230,36.000 316.000 C 36.659 316.770,37.199 317.585,37.199 317.812 C 37.200 318.038,37.560 318.483,38.000 318.800 C 38.440 319.117,38.800 319.572,38.800 319.810 C 38.800 320.049,39.385 320.902,40.100 321.706 C 40.815 322.510,41.940 323.823,42.600 324.624 C 43.260 325.425,44.016 326.311,44.281 326.593 C 44.545 326.874,44.678 327.189,44.575 327.292 C 44.472 327.394,45.544 328.663,46.956 330.110 C 48.369 331.558,49.445 332.822,49.347 332.919 C 49.250 333.016,51.062 334.964,53.373 337.248 C 58.027 341.846,58.639 342.457,63.758 347.615 C 65.715 349.587,67.482 351.200,67.684 351.200 C 67.886 351.200,68.923 352.094,69.988 353.187 C 71.052 354.280,72.151 355.225,72.430 355.287 C 72.708 355.349,73.647 356.075,74.516 356.900 C 75.385 357.725,76.232 358.400,76.398 358.400 C 76.564 358.400,77.387 359.030,78.228 359.800 C 79.069 360.570,79.951 361.200,80.190 361.200 C 80.428 361.200,80.883 361.560,81.200 362.000 C 81.517 362.440,81.962 362.800,82.188 362.801 C 82.415 362.801,83.230 363.341,84.000 364.000 C 84.770 364.659,85.585 365.199,85.812 365.199 C 86.038 365.200,86.483 365.560,86.800 366.000 C 87.117 366.440,87.657 366.800,88.000 366.800 C 88.343 366.800,88.883 367.160,89.200 367.600 C 89.517 368.040,90.097 368.400,90.488 368.400 C 90.880 368.400,91.200 368.550,91.200 368.732 C 91.200 368.915,91.695 369.320,92.300 369.632 C 92.905 369.945,93.723 370.491,94.118 370.846 C 94.512 371.202,95.682 371.919,96.718 372.441 C 97.753 372.962,98.690 373.502,98.800 373.639 C 99.159 374.087,101.546 375.200,102.147 375.200 C 102.469 375.200,102.793 375.335,102.867 375.500 C 103.034 375.876,105.164 377.175,106.100 377.471 C 106.485 377.593,106.800 377.852,106.800 378.047 C 106.800 378.241,107.160 378.400,107.600 378.400 C 108.040 378.400,108.400 378.580,108.400 378.800 C 108.400 379.020,108.760 379.200,109.200 379.200 C 109.640 379.200,110.000 379.380,110.000 379.600 C 110.000 379.820,110.360 380.000,110.800 380.000 C 111.240 380.000,111.600 380.136,111.600 380.302 C 111.600 380.469,112.185 380.840,112.900 381.129 C 113.615 381.417,114.513 381.821,114.895 382.026 C 115.277 382.232,115.862 382.400,116.195 382.400 C 116.528 382.400,116.800 382.580,116.800 382.800 C 116.800 383.020,117.160 383.200,117.600 383.200 C 118.040 383.200,118.400 383.380,118.400 383.600 C 118.400 383.820,118.760 384.000,119.200 384.000 C 119.640 384.000,120.000 384.180,120.000 384.400 C 120.000 384.620,120.349 384.800,120.776 384.800 C 121.203 384.800,121.664 384.980,121.800 385.200 C 121.936 385.420,122.487 385.600,123.024 385.600 C 123.561 385.600,124.000 385.780,124.000 386.000 C 124.000 386.220,124.279 386.400,124.619 386.400 C 124.960 386.400,125.984 386.760,126.894 387.200 C 127.805 387.640,128.861 388.000,129.242 388.000 C 129.622 388.000,129.993 388.140,130.067 388.312 C 130.254 388.750,139.033 391.600,140.196 391.600 C 140.722 391.600,141.264 391.780,141.400 392.000 C 141.536 392.220,142.166 392.400,142.800 392.400 C 143.434 392.400,144.064 392.580,144.200 392.800 C 144.336 393.020,144.966 393.200,145.600 393.200 C 146.234 393.200,146.864 393.380,147.000 393.600 C 147.136 393.820,147.777 394.000,148.424 394.000 C 149.071 394.000,149.600 394.180,149.600 394.400 C 149.600 394.620,150.309 394.800,151.176 394.800 C 152.043 394.800,152.864 394.980,153.000 395.200 C 153.136 395.420,154.047 395.600,155.024 395.600 C 156.001 395.600,156.800 395.780,156.800 396.000 C 156.800 396.220,157.520 396.400,158.400 396.400 C 159.280 396.400,160.000 396.580,160.000 396.800 C 160.000 397.020,160.990 397.200,162.200 397.200 C 163.410 397.200,164.400 397.380,164.400 397.600 C 164.400 397.820,165.379 398.000,166.576 398.000 C 167.773 398.000,168.864 398.180,169.000 398.400 C 169.136 398.620,170.461 398.800,171.944 398.800 C 173.567 398.800,174.839 398.999,175.140 399.300 C 175.871 400.031,224.857 400.031,225.100 399.300 C 225.212 398.965,226.171 398.800,228.010 398.800 C 229.518 398.800,230.864 398.620,231.000 398.400 C 231.136 398.180,232.227 398.000,233.424 398.000 C 234.621 398.000,235.600 397.820,235.600 397.600 C 235.600 397.380,236.590 397.200,237.800 397.200 C 239.010 397.200,240.000 397.020,240.000 396.800 C 240.000 396.580,240.720 396.400,241.600 396.400 C 242.480 396.400,243.200 396.220,243.200 396.000 C 243.200 395.780,243.999 395.600,244.976 395.600 C 245.953 395.600,246.864 395.420,247.000 395.200 C 247.136 394.980,247.957 394.800,248.824 394.800 C 249.691 394.800,250.400 394.620,250.400 394.400 C 250.400 394.180,250.929 394.000,251.576 394.000 C 252.223 394.000,252.864 393.820,253.000 393.600 C 253.136 393.380,253.867 393.200,254.624 393.200 C 255.381 393.200,256.000 393.020,256.000 392.800 C 256.000 392.580,256.630 392.400,257.400 392.400 C 258.170 392.400,258.800 392.220,258.800 392.000 C 258.800 391.780,259.241 391.600,259.780 391.600 C 260.960 391.600,269.744 388.755,269.933 388.312 C 270.007 388.140,270.414 388.000,270.839 388.000 C 271.263 388.000,271.968 387.820,272.405 387.600 C 272.842 387.380,273.558 387.020,273.995 386.800 C 274.432 386.580,275.062 386.400,275.395 386.400 C 275.728 386.400,276.000 386.220,276.000 386.000 C 276.000 385.780,276.439 385.600,276.976 385.600 C 277.513 385.600,278.064 385.420,278.200 385.200 C 278.336 384.980,278.797 384.800,279.224 384.800 C 279.651 384.800,280.000 384.620,280.000 384.400 C 280.000 384.180,280.360 384.000,280.800 384.000 C 281.240 384.000,281.600 383.820,281.600 383.600 C 281.600 383.380,281.960 383.200,282.400 383.200 C 282.840 383.200,283.200 383.020,283.200 382.800 C 283.200 382.580,283.472 382.400,283.805 382.400 C 284.138 382.400,284.723 382.240,285.105 382.044 C 285.487 381.848,286.700 381.263,287.800 380.744 C 288.900 380.225,289.860 379.665,289.933 379.500 C 290.007 379.335,290.412 379.200,290.833 379.200 C 291.255 379.200,291.600 379.020,291.600 378.800 C 291.600 378.580,291.945 378.400,292.367 378.400 C 292.788 378.400,293.193 378.265,293.267 378.100 C 293.434 377.724,295.564 376.425,296.500 376.129 C 296.885 376.007,297.200 375.748,297.200 375.553 C 297.200 375.359,297.479 375.200,297.820 375.200 C 298.442 375.200,300.825 374.102,301.200 373.644 C 301.310 373.509,301.940 373.134,302.600 372.810 C 304.261 371.995,308.571 369.127,308.733 368.728 C 308.807 368.547,309.172 368.400,309.545 368.400 C 309.918 368.400,310.483 368.040,310.800 367.600 C 311.117 367.160,311.657 366.800,312.000 366.800 C 312.343 366.800,312.883 366.440,313.200 366.000 C 313.517 365.560,313.962 365.200,314.188 365.199 C 314.415 365.199,315.230 364.659,316.000 364.000 C 316.770 363.341,317.585 362.801,317.812 362.801 C 318.038 362.800,318.483 362.440,318.800 362.000 C 319.117 361.560,319.572 361.200,319.810 361.200 C 320.049 361.200,320.931 360.570,321.772 359.800 C 322.613 359.030,323.436 358.400,323.602 358.400 C 323.768 358.400,324.615 357.725,325.484 356.900 C 326.353 356.075,327.292 355.349,327.570 355.287 C 327.849 355.225,328.948 354.280,330.012 353.187 C 331.077 352.094,332.130 351.200,332.353 351.200 C 332.576 351.200,334.703 349.230,337.079 346.821 C 342.316 341.514,341.514 342.316,346.821 337.079 C 349.230 334.703,351.200 332.576,351.200 332.353 C 351.200 332.130,352.094 331.077,353.187 330.012 C 354.280 328.948,355.225 327.849,355.287 327.570 C 355.349 327.292,356.075 326.353,356.900 325.484 C 357.725 324.615,358.400 323.768,358.400 323.602 C 358.400 323.436,359.030 322.613,359.800 321.772 C 360.570 320.931,361.200 320.049,361.200 319.810 C 361.200 319.572,361.560 319.117,362.000 318.800 C 362.440 318.483,362.800 318.038,362.801 317.812 C 362.801 317.585,363.341 316.770,364.000 316.000 C 364.659 315.230,365.199 314.415,365.199 314.188 C 365.200 313.962,365.560 313.517,366.000 313.200 C 366.440 312.883,366.800 312.343,366.800 312.000 C 366.800 311.657,367.160 311.117,367.600 310.800 C 368.040 310.483,368.400 309.918,368.400 309.545 C 368.400 309.172,368.547 308.807,368.728 308.733 C 369.127 308.571,371.995 304.261,372.810 302.600 C 373.134 301.940,373.509 301.310,373.644 301.200 C 374.091 300.835,375.200 298.449,375.200 297.853 C 375.200 297.531,375.335 297.207,375.500 297.133 C 375.876 296.966,377.175 294.836,377.471 293.900 C 377.593 293.515,377.852 293.200,378.047 293.200 C 378.241 293.200,378.400 292.840,378.400 292.400 C 378.400 291.960,378.580 291.600,378.800 291.600 C 379.020 291.600,379.200 291.255,379.200 290.833 C 379.200 290.412,379.335 290.007,379.500 289.933 C 379.665 289.860,380.225 288.900,380.744 287.800 C 381.263 286.700,381.848 285.487,382.044 285.105 C 382.240 284.723,382.400 284.138,382.400 283.805 C 382.400 283.472,382.580 283.200,382.800 283.200 C 383.020 283.200,383.200 282.840,383.200 282.400 C 383.200 281.960,383.380 281.600,383.600 281.600 C 383.820 281.600,384.000 281.240,384.000 280.800 C 384.000 280.360,384.180 280.000,384.400 280.000 C 384.620 280.000,384.800 279.651,384.800 279.224 C 384.800 278.797,384.980 278.336,385.200 278.200 C 385.420 278.064,385.600 277.513,385.600 276.976 C 385.600 276.439,385.780 276.000,386.000 276.000 C 386.220 276.000,386.400 275.728,386.400 275.395 C 386.400 275.062,386.580 274.432,386.800 273.995 C 387.020 273.558,387.380 272.842,387.600 272.405 C 387.820 271.968,388.000 271.263,388.000 270.839 C 388.000 270.414,388.140 270.007,388.312 269.933 C 388.755 269.744,391.600 260.960,391.600 259.780 C 391.600 259.241,391.780 258.800,392.000 258.800 C 392.220 258.800,392.400 258.170,392.400 257.400 C 392.400 256.630,392.580 256.000,392.800 256.000 C 393.020 256.000,393.200 255.381,393.200 254.624 C 393.200 253.867,393.380 253.136,393.600 253.000 C 393.820 252.864,394.000 252.223,394.000 251.576 C 394.000 250.929,394.180 250.400,394.400 250.400 C 394.620 250.400,394.800 249.691,394.800 248.824 C 394.800 247.957,394.980 247.136,395.200 247.000 C 395.420 246.864,395.600 245.953,395.600 244.976 C 395.600 243.999,395.780 243.200,396.000 243.200 C 396.220 243.200,396.400 242.480,396.400 241.600 C 396.400 240.720,396.580 240.000,396.800 240.000 C 397.020 240.000,397.200 239.010,397.200 237.800 C 397.200 236.590,397.380 235.600,397.600 235.600 C 397.820 235.600,398.000 234.621,398.000 233.424 C 398.000 232.227,398.180 231.136,398.400 231.000 C 398.620 230.864,398.800 229.539,398.800 228.056 C 398.800 226.433,398.999 225.161,399.300 224.860 C 400.029 224.131,400.029 175.869,399.300 175.140 C 398.999 174.839,398.800 173.567,398.800 171.944 C 398.800 170.461,398.620 169.136,398.400 169.000 C 398.180 168.864,398.000 167.773,398.000 166.576 C 398.000 165.379,397.820 164.400,397.600 164.400 C 397.380 164.400,397.200 163.410,397.200 162.200 C 397.200 160.990,397.020 160.000,396.800 160.000 C 396.580 160.000,396.400 159.280,396.400 158.400 C 396.400 157.520,396.220 156.800,396.000 156.800 C 395.780 156.800,395.600 156.001,395.600 155.024 C 395.600 154.047,395.420 153.136,395.200 153.000 C 394.980 152.864,394.800 152.043,394.800 151.176 C 394.800 150.309,394.620 149.600,394.400 149.600 C 394.180 149.600,394.000 149.071,394.000 148.424 C 394.000 147.777,393.820 147.136,393.600 147.000 C 393.380 146.864,393.200 146.234,393.200 145.600 C 393.200 144.966,393.020 144.336,392.800 144.200 C 392.580 144.064,392.400 143.434,392.400 142.800 C 392.400 142.166,392.220 141.536,392.000 141.400 C 391.780 141.264,391.600 140.722,391.600 140.196 C 391.600 139.033,388.750 130.254,388.312 130.067 C 388.140 129.993,388.000 129.622,388.000 129.242 C 388.000 128.861,387.640 127.805,387.200 126.894 C 386.760 125.984,386.400 124.960,386.400 124.619 C 386.400 124.279,386.220 124.000,386.000 124.000 C 385.780 124.000,385.600 123.561,385.600 123.024 C 385.600 122.487,385.420 121.936,385.200 121.800 C 384.980 121.664,384.800 121.203,384.800 120.776 C 384.800 120.349,384.620 120.000,384.400 120.000 C 384.180 120.000,384.000 119.640,384.000 119.200 C 384.000 118.760,383.820 118.400,383.600 118.400 C 383.380 118.400,383.200 118.040,383.200 117.600 C 383.200 117.160,383.020 116.800,382.800 116.800 C 382.580 116.800,382.400 116.528,382.400 116.195 C 382.400 115.862,382.232 115.277,382.026 114.895 C 381.821 114.513,381.417 113.615,381.129 112.900 C 380.840 112.185,380.469 111.600,380.302 111.600 C 380.136 111.600,380.000 111.240,380.000 110.800 C 380.000 110.360,379.820 110.000,379.600 110.000 C 379.380 110.000,379.200 109.640,379.200 109.200 C 379.200 108.760,379.020 108.400,378.800 108.400 C 378.580 108.400,378.400 108.055,378.400 107.633 C 378.400 107.212,378.265 106.807,378.100 106.733 C 377.724 106.566,376.425 104.436,376.129 103.500 C 376.007 103.115,375.748 102.800,375.553 102.800 C 375.359 102.800,375.200 102.521,375.200 102.180 C 375.200 101.553,374.099 99.168,373.639 98.800 C 373.502 98.690,372.962 97.753,372.441 96.718 C 371.919 95.682,371.202 94.512,370.846 94.118 C 370.491 93.723,369.945 92.905,369.632 92.300 C 369.320 91.695,368.915 91.200,368.732 91.200 C 368.550 91.200,368.400 90.880,368.400 90.488 C 368.400 90.097,368.040 89.517,367.600 89.200 C 367.160 88.883,366.800 88.343,366.800 88.000 C 366.800 87.657,366.440 87.117,366.000 86.800 C 365.560 86.483,365.200 86.038,365.199 85.812 C 365.199 85.585,364.659 84.770,364.000 84.000 C 363.341 83.230,362.801 82.415,362.801 82.188 C 362.800 81.962,362.440 81.517,362.000 81.200 C 361.560 80.883,361.200 80.428,361.200 80.190 C 361.200 79.951,360.570 79.069,359.800 78.228 C 359.030 77.387,358.400 76.564,358.400 76.398 C 358.400 76.232,357.725 75.385,356.900 74.516 C 356.075 73.647,355.349 72.708,355.287 72.430 C 355.225 72.151,354.280 71.052,353.187 69.988 C 352.094 68.923,351.200 67.886,351.200 67.684 C 351.200 67.482,349.587 65.715,347.615 63.758 C 342.457 58.639,341.846 58.027,337.248 53.373 C 334.964 51.062,333.016 49.250,332.919 49.347 C 332.822 49.445,331.558 48.369,330.110 46.956 C 328.663 45.544,327.394 44.472,327.292 44.575 C 327.189 44.678,326.874 44.545,326.593 44.281 C 326.311 44.016,325.425 43.260,324.624 42.600 C 323.823 41.940,322.510 40.815,321.706 40.100 C 320.902 39.385,320.049 38.800,319.810 38.800 C 319.572 38.800,319.117 38.440,318.800 38.000 C 318.483 37.560,318.038 37.200,317.812 37.199 C 317.585 37.199,316.770 36.659,316.000 36.000 C 315.230 35.341,314.415 34.801,314.188 34.801 C 313.962 34.800,313.517 34.440,313.200 34.000 C 312.883 33.560,312.343 33.200,312.000 33.200 C 311.657 33.200,311.117 32.840,310.800 32.400 C 310.483 31.960,309.918 31.600,309.545 31.600 C 309.172 31.600,308.807 31.453,308.733 31.272 C 308.487 30.666,303.717 27.645,302.553 27.357 C 301.919 27.200,301.109 26.741,300.753 26.336 C 300.397 25.931,299.812 25.600,299.453 25.600 C 299.094 25.600,298.800 25.420,298.800 25.200 C 298.800 24.980,298.455 24.800,298.033 24.800 C 297.612 24.800,297.207 24.665,297.133 24.500 C 296.966 24.124,294.836 22.825,293.900 22.529 C 293.515 22.407,293.200 22.148,293.200 21.953 C 293.200 21.759,292.840 21.600,292.400 21.600 C 291.960 21.600,291.600 21.420,291.600 21.200 C 291.600 20.980,291.255 20.800,290.833 20.800 C 290.412 20.800,290.007 20.665,289.933 20.500 C 289.860 20.335,288.900 19.775,287.800 19.256 C 286.700 18.737,285.487 18.152,285.105 17.956 C 284.723 17.760,284.138 17.600,283.805 17.600 C 283.472 17.600,283.200 17.420,283.200 17.200 C 283.200 16.980,282.840 16.800,282.400 16.800 C 281.960 16.800,281.600 16.620,281.600 16.400 C 281.600 16.180,281.240 16.000,280.800 16.000 C 280.360 16.000,280.000 15.853,280.000 15.672 C 280.000 15.492,279.100 15.100,278.000 14.800 C 276.900 14.500,276.000 14.108,276.000 13.928 C 276.000 13.747,275.721 13.600,275.381 13.600 C 275.040 13.600,274.016 13.240,273.106 12.800 C 272.195 12.360,271.247 12.000,271.000 12.000 C 270.753 12.000,269.799 11.637,268.880 11.193 C 267.961 10.749,266.398 10.275,265.405 10.139 C 264.412 10.003,263.600 9.736,263.600 9.546 C 263.600 9.356,263.060 9.200,262.400 9.200 C 261.740 9.200,261.200 9.020,261.200 8.800 C 261.200 8.580,260.671 8.400,260.024 8.400 C 259.377 8.400,258.736 8.220,258.600 8.000 C 258.464 7.780,257.823 7.600,257.176 7.600 C 256.529 7.600,256.000 7.420,256.000 7.200 C 256.000 6.980,255.381 6.800,254.624 6.800 C 253.867 6.800,253.136 6.620,253.000 6.400 C 252.864 6.180,252.223 6.000,251.576 6.000 C 250.929 6.000,250.400 5.820,250.400 5.600 C 250.400 5.380,249.691 5.200,248.824 5.200 C 247.957 5.200,247.136 5.020,247.000 4.800 C 246.864 4.580,245.953 4.400,244.976 4.400 C 243.999 4.400,243.200 4.220,243.200 4.000 C 243.200 3.780,242.480 3.600,241.600 3.600 C 240.720 3.600,240.000 3.420,240.000 3.200 C 240.000 2.980,239.010 2.800,237.800 2.800 C 236.590 2.800,235.600 2.620,235.600 2.400 C 235.600 2.180,234.621 2.000,233.424 2.000 C 232.227 2.000,231.136 1.820,231.000 1.600 C 230.864 1.380,229.539 1.200,228.056 1.200 C 226.478 1.200,225.159 0.999,224.875 0.715 C 224.394 0.234,187.860 -0.116,179.003 0.275 M61.104 175.700 L 61.209 192.000 79.600 192.000 L 97.991 192.000 98.096 175.700 L 98.200 159.400 106.300 159.292 L 114.400 159.183 114.400 200.000 L 114.400 240.817 106.300 240.708 L 98.200 240.600 98.096 223.300 L 97.992 206.000 79.596 206.000 L 61.200 206.000 61.200 223.408 L 61.200 240.817 53.100 240.708 L 45.000 240.600 44.897 200.400 C 44.840 178.290,44.881 159.971,44.988 159.692 C 45.137 159.299,46.981 159.208,53.091 159.292 L 61.000 159.400 61.104 175.700 M185.348 160.100 C 185.662 161.270,185.662 171.530,185.348 172.700 L 185.107 173.600 173.156 173.600 L 161.205 173.600 161.102 207.100 L 161.000 240.600 152.800 240.600 L 144.600 240.600 144.498 207.106 L 144.395 173.612 132.898 173.506 L 121.400 173.400 121.290 166.815 C 121.229 163.194,121.268 159.999,121.377 159.715 C 121.536 159.301,127.792 159.200,153.341 159.200 L 185.107 159.200 185.348 160.100 M219.021 161.800 C 219.536 163.120,220.607 166.000,221.401 168.200 C 222.195 170.400,223.038 172.650,223.276 173.200 C 223.513 173.750,223.839 174.560,224.000 175.000 C 224.437 176.194,225.247 178.108,225.647 178.895 C 225.841 179.277,226.000 179.952,226.000 180.395 C 226.000 180.838,226.180 181.200,226.400 181.200 C 226.620 181.200,226.800 181.650,226.800 182.200 C 226.800 182.750,226.980 183.200,227.200 183.200 C 227.420 183.200,227.600 183.562,227.600 184.005 C 227.600 184.448,227.759 185.123,227.953 185.505 C 228.148 185.887,228.508 186.695,228.753 187.300 C 228.999 187.905,229.404 188.895,229.654 189.500 C 229.903 190.105,230.263 191.005,230.454 191.500 C 230.644 191.995,231.004 192.895,231.254 193.500 C 232.176 195.738,232.365 196.255,233.193 198.800 C 233.657 200.230,234.174 201.670,234.342 202.000 C 234.509 202.330,235.338 204.760,236.185 207.400 C 237.032 210.040,238.128 213.454,238.621 214.986 C 239.584 217.983,240.400 218.840,240.400 216.857 C 240.400 216.192,240.580 215.536,240.800 215.400 C 241.020 215.264,241.200 214.724,241.200 214.200 C 241.200 213.676,241.380 213.136,241.600 213.000 C 241.820 212.864,242.000 212.324,242.000 211.800 C 242.000 211.276,242.180 210.736,242.400 210.600 C 242.620 210.464,242.800 210.001,242.800 209.571 C 242.800 209.141,242.962 208.477,243.161 208.095 C 243.360 207.713,243.751 206.590,244.031 205.600 C 244.310 204.610,244.688 203.629,244.870 203.420 C 245.051 203.211,245.200 202.714,245.200 202.315 C 245.200 201.916,245.362 201.277,245.561 200.895 C 245.760 200.513,246.582 198.310,247.388 196.000 C 249.286 190.562,250.604 186.979,251.507 184.800 C 251.735 184.250,252.317 182.720,252.800 181.400 C 253.283 180.080,253.865 178.550,254.093 178.000 C 254.321 177.450,254.639 176.640,254.800 176.200 C 254.961 175.760,255.279 174.950,255.506 174.400 C 255.733 173.850,256.136 172.770,256.400 172.000 C 256.664 171.230,257.043 170.195,257.240 169.700 C 257.438 169.205,257.756 168.395,257.946 167.900 C 258.524 166.399,259.273 164.640,259.647 163.905 C 259.841 163.523,260.000 162.936,260.000 162.600 C 260.000 162.264,260.167 161.677,260.371 161.295 C 260.575 160.913,260.839 160.285,260.958 159.900 C 261.159 159.252,262.153 159.200,274.387 159.200 L 287.600 159.200 287.600 200.000 L 287.600 240.800 279.589 240.800 L 271.577 240.800 271.689 208.438 C 271.750 190.639,271.665 176.160,271.500 176.262 C 271.335 176.364,271.200 176.680,271.200 176.965 C 271.200 177.644,266.912 190.796,266.398 191.695 C 266.179 192.077,266.000 192.664,266.000 193.000 C 266.000 193.336,265.841 193.923,265.647 194.305 C 265.254 195.077,264.269 197.463,263.254 200.100 C 262.676 201.601,261.927 203.360,261.553 204.095 C 261.359 204.477,261.200 205.152,261.200 205.595 C 261.200 206.038,261.020 206.400,260.800 206.400 C 260.580 206.400,260.400 206.839,260.400 207.376 C 260.400 207.913,260.220 208.464,260.000 208.600 C 259.780 208.736,259.600 209.197,259.600 209.624 C 259.600 210.051,259.420 210.400,259.200 210.400 C 258.980 210.400,258.800 210.762,258.800 211.205 C 258.800 211.648,258.641 212.323,258.447 212.705 C 258.252 213.087,257.892 213.895,257.647 214.500 C 257.401 215.105,257.034 216.005,256.830 216.500 C 256.627 216.995,255.442 220.100,254.196 223.400 C 252.951 226.700,251.768 229.805,251.566 230.300 C 251.365 230.795,251.044 231.605,250.854 232.100 C 250.663 232.595,250.303 233.495,250.054 234.100 C 249.804 234.705,249.420 235.650,249.200 236.200 C 248.980 236.750,248.631 237.605,248.425 238.100 C 248.219 238.595,247.937 239.405,247.798 239.900 C 247.549 240.791,247.476 240.800,240.222 240.800 C 231.715 240.800,232.668 241.325,230.414 235.400 C 229.493 232.980,228.549 230.550,228.317 230.000 C 228.084 229.450,227.713 228.550,227.493 228.000 C 227.273 227.450,226.913 226.550,226.693 226.000 C 226.473 225.450,226.113 224.550,225.893 224.000 C 225.673 223.450,225.313 222.550,225.093 222.000 C 224.873 221.450,224.561 220.640,224.400 220.200 C 224.239 219.760,223.927 218.950,223.707 218.400 C 223.487 217.850,223.127 216.950,222.907 216.400 C 222.687 215.850,222.327 214.950,222.107 214.400 C 221.887 213.850,221.503 212.905,221.254 212.300 C 221.004 211.695,220.644 210.795,220.454 210.300 C 220.263 209.805,219.879 208.860,219.600 208.200 C 219.321 207.540,218.937 206.595,218.746 206.100 C 218.556 205.605,218.244 204.795,218.054 204.300 C 217.863 203.805,217.516 202.950,217.283 202.400 C 216.231 199.914,213.563 192.707,212.620 189.800 C 212.049 188.040,211.406 186.287,211.191 185.905 C 210.976 185.523,210.800 184.859,210.800 184.429 C 210.800 183.999,210.620 183.536,210.400 183.400 C 210.180 183.264,210.000 182.724,210.000 182.200 C 210.000 181.676,209.820 181.136,209.600 181.000 C 209.380 180.864,209.200 180.223,209.200 179.576 C 209.200 178.929,209.020 178.400,208.800 178.400 C 208.580 178.400,208.400 177.860,208.400 177.200 C 208.400 176.540,208.233 176.000,208.028 176.000 C 207.823 176.000,207.578 175.685,207.483 175.300 C 207.388 174.915,207.388 175.050,207.483 175.600 C 207.912 178.086,208.398 205.741,208.304 222.321 L 208.200 240.600 200.100 240.708 L 192.000 240.817 192.000 200.003 L 192.000 159.189 205.042 159.295 L 218.084 159.400 219.021 161.800 M317.502 192.900 L 317.605 226.400 336.402 226.400 L 355.200 226.400 355.200 233.603 L 355.200 240.806 328.100 240.703 L 301.000 240.600 300.897 200.400 C 300.840 178.290,300.881 159.971,300.988 159.692 C 301.137 159.299,303.021 159.208,309.291 159.292 L 317.400 159.400 317.502 192.900 " stroke="none" fill="#f43454" fill-rule="evenodd"></path><path id="path2" d="M45.393 200.000 C 45.393 222.330,45.441 231.465,45.500 220.300 C 45.559 209.135,45.559 190.865,45.500 179.700 C 45.441 168.535,45.393 177.670,45.393 200.000 M60.305 175.738 C 60.363 184.572,60.493 192.027,60.594 192.304 C 60.739 192.701,64.770 192.786,79.689 192.704 L 98.600 192.600 98.800 176.138 C 98.910 167.084,98.865 159.759,98.700 159.862 C 98.535 159.964,98.400 167.327,98.400 176.224 L 98.400 192.400 79.600 192.400 L 60.800 192.400 60.794 176.500 C 60.791 167.755,60.656 160.392,60.494 160.138 C 60.332 159.883,60.247 166.903,60.305 175.738 M113.793 200.000 C 113.793 222.330,113.841 231.465,113.900 220.300 C 113.959 209.135,113.959 190.865,113.900 179.700 C 113.841 168.535,113.793 177.670,113.793 200.000 M184.200 166.400 C 184.200 170.098,184.335 173.040,184.500 172.938 C 184.665 172.836,184.800 169.894,184.800 166.400 C 184.800 162.906,184.665 159.964,184.500 159.862 C 184.335 159.760,184.200 162.702,184.200 166.400 M192.400 200.000 C 192.400 222.220,192.535 240.400,192.700 240.400 C 192.865 240.400,193.000 222.220,193.000 200.000 C 193.000 177.780,192.865 159.600,192.700 159.600 C 192.535 159.600,192.400 177.780,192.400 200.000 M286.700 185.700 C 286.756 200.055,286.848 218.280,286.906 226.200 C 286.963 234.120,287.053 222.375,287.105 200.100 C 287.157 177.825,287.065 159.600,286.900 159.600 C 286.735 159.600,286.645 171.345,286.700 185.700 M316.494 192.876 C 316.442 211.288,316.535 226.436,316.700 226.538 C 316.972 226.706,316.969 202.747,316.693 171.400 C 316.635 164.800,316.546 174.464,316.494 192.876 M121.761 166.400 C 121.761 169.810,121.822 171.205,121.897 169.500 C 121.972 167.795,121.972 165.005,121.897 163.300 C 121.822 161.595,121.761 162.990,121.761 166.400 M220.821 168.590 C 220.791 169.151,222.899 174.435,223.080 174.253 C 223.163 174.170,222.694 172.774,222.036 171.151 C 221.379 169.528,220.832 168.376,220.821 168.590 M271.579 173.455 C 271.358 174.036,271.256 174.590,271.352 174.686 C 271.448 174.782,271.658 174.442,271.817 173.930 C 271.977 173.419,272.309 172.868,272.554 172.706 C 272.865 172.501,272.846 172.410,272.490 172.406 C 272.210 172.403,271.800 172.875,271.579 173.455 M206.886 177.500 L 206.971 182.200 207.099 177.685 C 207.177 174.911,207.376 173.261,207.613 173.408 C 207.826 173.540,208.000 173.457,208.000 173.224 C 208.000 172.991,207.730 172.800,207.400 172.800 C 206.896 172.800,206.814 173.551,206.886 177.500 M144.698 173.492 C 145.086 173.767,145.219 181.156,145.301 207.222 L 145.407 240.600 145.403 207.033 C 145.400 177.538,145.327 173.447,144.800 173.303 C 144.358 173.182,144.331 173.232,144.698 173.492 M160.184 173.700 C 160.079 173.975,160.041 189.140,160.099 207.400 L 160.205 240.600 160.302 207.133 C 160.379 180.808,160.507 173.624,160.900 173.465 C 161.292 173.307,161.289 173.256,160.887 173.232 C 160.606 173.214,160.289 173.425,160.184 173.700 M272.197 182.537 C 272.037 185.938,271.990 188.963,272.093 189.260 C 272.195 189.557,272.414 186.863,272.579 183.273 C 272.745 179.684,272.792 176.658,272.683 176.550 C 272.575 176.442,272.356 179.136,272.197 182.537 M207.334 185.200 C 207.334 186.850,207.405 187.525,207.491 186.700 C 207.578 185.875,207.578 184.525,207.491 183.700 C 207.405 182.875,207.334 183.550,207.334 185.200 M207.788 216.200 C 207.788 229.620,207.838 235.052,207.900 228.271 C 207.961 221.490,207.961 210.510,207.900 203.871 C 207.838 197.232,207.788 202.780,207.788 216.200 M247.425 197.091 C 247.046 198.141,246.545 199.501,246.314 200.113 C 246.082 200.725,245.971 201.305,246.068 201.401 C 246.164 201.497,246.725 200.198,247.314 198.514 C 247.904 196.830,248.325 195.392,248.251 195.317 C 248.176 195.243,247.805 196.041,247.425 197.091 M60.594 205.696 C 60.280 206.553,60.182 240.354,60.494 239.862 C 60.656 239.608,60.791 231.795,60.794 222.500 L 60.800 205.600 79.600 205.600 L 98.400 205.600 98.400 222.776 C 98.400 232.223,98.535 240.036,98.700 240.138 C 98.865 240.241,98.910 232.466,98.800 222.862 L 98.600 205.400 79.689 205.296 C 64.770 205.214,60.739 205.299,60.594 205.696 M255.080 218.880 C 254.476 220.439,254.046 221.780,254.126 221.860 C 254.206 221.940,254.770 220.734,255.380 219.180 C 255.990 217.626,256.419 216.285,256.334 216.200 C 256.249 216.115,255.684 217.321,255.080 218.880 M238.846 217.867 C 238.765 218.686,239.268 219.600,239.800 219.600 C 240.344 219.600,240.965 218.432,240.609 218.076 C 240.494 217.961,240.400 218.077,240.400 218.333 C 240.400 219.073,239.278 218.875,239.076 218.100 C 238.975 217.715,238.872 217.610,238.846 217.867 M354.565 233.600 C 354.565 237.450,354.625 239.025,354.698 237.100 C 354.771 235.175,354.771 232.025,354.698 230.100 C 354.625 228.175,354.565 229.750,354.565 233.600 M229.418 231.700 C 229.568 232.195,229.855 232.776,230.056 232.991 C 230.257 233.206,230.219 232.801,229.972 232.091 C 229.465 230.638,228.997 230.308,229.418 231.700 M230.415 233.800 C 230.388 234.355,232.869 240.465,233.048 240.285 C 233.128 240.205,232.573 238.623,231.814 236.770 C 231.056 234.916,230.426 233.580,230.415 233.800 " stroke="none" fill="#fc9cac" fill-rule="evenodd"></path><path id="path3" d="M48.000 159.474 C 54.363 159.762,60.710 159.775,60.539 159.500 C 60.437 159.335,56.988 159.235,52.876 159.278 C 48.764 159.321,46.570 159.410,48.000 159.474 M102.500 159.498 C 104.645 159.570,108.155 159.570,110.300 159.498 C 112.445 159.426,110.690 159.367,106.400 159.367 C 102.110 159.367,100.355 159.426,102.500 159.498 M137.500 159.500 C 146.135 159.560,160.265 159.560,168.900 159.500 C 177.535 159.440,170.470 159.390,153.200 159.390 C 135.930 159.390,128.865 159.440,137.500 159.500 M198.925 159.499 C 202.404 159.566,207.984 159.566,211.325 159.499 C 214.666 159.432,211.820 159.378,205.000 159.378 C 198.180 159.378,195.446 159.433,198.925 159.499 M268.100 159.499 C 271.565 159.566,277.235 159.566,280.700 159.499 C 284.165 159.433,281.330 159.378,274.400 159.378 C 267.470 159.378,264.635 159.433,268.100 159.499 M301.467 159.467 C 301.096 159.837,301.129 240.309,301.500 240.538 C 301.665 240.640,301.753 222.475,301.696 200.171 L 301.592 159.618 309.096 159.499 L 316.600 159.381 309.167 159.291 C 305.078 159.241,301.613 159.320,301.467 159.467 M316.991 193.000 C 316.991 211.480,317.040 218.982,317.100 209.670 C 317.160 200.359,317.160 185.239,317.100 176.070 C 317.040 166.902,316.991 174.520,316.991 193.000 M114.192 200.000 C 114.192 221.890,114.241 230.845,114.300 219.900 C 114.359 208.955,114.359 191.045,114.300 180.100 C 114.241 169.155,114.192 178.110,114.192 200.000 M184.961 166.400 C 184.961 169.810,185.022 171.205,185.097 169.500 C 185.172 167.795,185.172 165.005,185.097 163.300 C 185.022 161.595,184.961 162.990,184.961 166.400 M192.192 200.000 C 192.192 221.890,192.241 230.845,192.300 219.900 C 192.359 208.955,192.359 191.045,192.300 180.100 C 192.241 169.155,192.192 178.110,192.192 200.000 M144.991 206.600 C 144.991 224.860,145.040 232.388,145.100 223.330 C 145.160 214.271,145.160 199.331,145.100 190.130 C 145.040 180.928,144.991 188.340,144.991 206.600 M160.400 207.080 C 160.290 225.604,160.336 240.624,160.502 240.458 C 160.669 240.291,160.759 225.135,160.702 206.778 L 160.600 173.400 160.400 207.080 M272.093 180.000 C 272.093 180.770,272.175 181.085,272.276 180.700 C 272.376 180.315,272.376 179.685,272.276 179.300 C 272.175 178.915,272.093 179.230,272.093 180.000 M207.731 186.200 C 207.733 187.740,207.805 188.321,207.892 187.491 C 207.979 186.661,207.977 185.401,207.889 184.691 C 207.800 183.981,207.729 184.660,207.731 186.200 M271.692 214.276 C 271.642 228.618,271.735 240.436,271.900 240.538 C 272.172 240.707,272.169 221.989,271.892 197.600 C 271.833 192.430,271.743 199.934,271.692 214.276 M326.700 226.700 C 331.815 226.763,340.185 226.763,345.300 226.700 C 350.415 226.636,346.230 226.585,336.000 226.585 C 325.770 226.585,321.585 226.636,326.700 226.700 " stroke="none" fill="#f87e94" fill-rule="evenodd"></path><path id="path4" d="M287.392 200.000 C 287.392 221.890,287.441 230.845,287.500 219.900 C 287.559 208.955,287.559 191.045,287.500 180.100 C 287.441 169.155,287.392 178.110,287.392 200.000 M127.924 173.499 C 131.073 173.567,136.113 173.567,139.124 173.499 C 142.136 173.431,139.560 173.376,133.400 173.376 C 127.240 173.376,124.776 173.432,127.924 173.499 M166.924 173.499 C 170.183 173.567,175.403 173.566,178.524 173.499 C 181.646 173.431,178.980 173.376,172.600 173.377 C 166.220 173.377,163.666 173.432,166.924 173.499 M207.709 190.400 C 207.709 191.390,207.787 191.795,207.882 191.300 C 207.978 190.805,207.978 189.995,207.882 189.500 C 207.787 189.005,207.709 189.410,207.709 190.400 M240.000 240.400 L 233.000 240.629 239.876 240.714 C 244.124 240.767,246.847 240.647,247.000 240.400 C 247.136 240.180,247.192 240.039,247.124 240.086 C 247.056 240.133,243.850 240.274,240.000 240.400 M49.100 240.698 C 51.135 240.771,54.465 240.771,56.500 240.698 C 58.535 240.625,56.870 240.566,52.800 240.566 C 48.730 240.566,47.065 240.625,49.100 240.698 M102.480 240.698 C 104.394 240.771,107.634 240.771,109.680 240.698 C 111.726 240.626,110.160 240.566,106.200 240.565 C 102.240 240.565,100.566 240.624,102.480 240.698 M149.100 240.698 C 151.135 240.771,154.465 240.771,156.500 240.698 C 158.535 240.625,156.870 240.566,152.800 240.566 C 148.730 240.566,147.065 240.625,149.100 240.698 M196.700 240.698 C 198.735 240.771,202.065 240.771,204.100 240.698 C 206.135 240.625,204.470 240.566,200.400 240.566 C 196.330 240.566,194.665 240.625,196.700 240.698 M275.680 240.698 C 277.594 240.771,280.834 240.771,282.880 240.698 C 284.926 240.626,283.360 240.566,279.400 240.565 C 275.440 240.565,273.766 240.624,275.680 240.698 M315.129 240.700 C 322.460 240.761,334.340 240.761,341.529 240.700 C 348.718 240.639,342.720 240.589,328.200 240.589 C 313.680 240.589,307.798 240.639,315.129 240.700 " stroke="none" fill="#fc92a4" fill-rule="evenodd"></path><path id="path5" d="M301.067 159.467 C 300.696 159.837,300.729 240.309,301.100 240.538 C 301.265 240.640,301.400 222.381,301.400 199.962 C 301.400 177.543,301.385 159.200,301.367 159.200 C 301.348 159.200,301.213 159.320,301.067 159.467 M317.200 192.920 L 317.400 226.600 317.502 193.222 C 317.559 174.865,317.469 159.709,317.302 159.542 C 317.136 159.376,317.090 174.396,317.200 192.920 M98.183 175.800 C 98.183 184.820,98.235 188.567,98.299 184.127 C 98.364 179.687,98.364 172.307,98.300 167.727 C 98.235 163.147,98.183 166.780,98.183 175.800 M121.365 166.400 C 121.365 170.250,121.425 171.825,121.498 169.900 C 121.571 167.975,121.571 164.825,121.498 162.900 C 121.425 160.975,121.365 162.550,121.365 166.400 M185.361 166.400 C 185.361 169.810,185.422 171.205,185.497 169.500 C 185.572 167.795,185.572 165.005,185.497 163.300 C 185.422 161.595,185.361 162.990,185.361 166.400 M144.494 206.876 C 144.442 225.288,144.535 240.436,144.700 240.538 C 144.972 240.706,144.969 216.747,144.693 185.400 C 144.635 178.800,144.546 188.464,144.494 206.876 M272.000 174.376 C 272.000 174.803,271.820 175.264,271.600 175.400 C 271.380 175.536,271.200 175.827,271.200 176.047 C 271.200 176.267,271.366 176.344,271.570 176.219 C 271.773 176.093,272.022 176.307,272.123 176.695 C 272.224 177.083,272.328 176.545,272.354 175.500 C 272.379 174.455,272.310 173.600,272.200 173.600 C 272.090 173.600,272.000 173.949,272.000 174.376 M160.800 207.280 C 160.690 225.694,160.736 240.624,160.902 240.458 C 161.069 240.291,161.159 225.225,161.102 206.978 L 161.000 173.800 160.800 207.280 M207.449 175.815 C 207.312 176.173,207.215 176.766,207.234 177.133 C 207.253 177.500,207.427 177.269,207.621 176.620 C 207.998 175.358,207.865 174.733,207.449 175.815 M271.724 179.800 C 271.726 181.120,271.801 181.612,271.890 180.893 C 271.979 180.174,271.977 179.094,271.886 178.493 C 271.795 177.892,271.722 178.480,271.724 179.800 M207.709 179.600 C 207.709 180.590,207.787 180.995,207.882 180.500 C 207.978 180.005,207.978 179.195,207.882 178.700 C 207.787 178.205,207.709 178.610,207.709 179.600 M208.187 218.200 C 208.187 230.520,208.238 235.618,208.300 229.528 C 208.362 223.439,208.362 213.359,208.300 207.128 C 208.238 200.898,208.187 205.880,208.187 218.200 M79.596 205.898 L 97.992 206.008 98.102 223.204 L 98.213 240.400 98.206 223.100 L 98.200 205.800 79.700 205.794 L 61.200 205.788 79.596 205.898 " stroke="none" fill="#f4576f" fill-rule="evenodd"></path><path id="path6" d="M60.993 176.000 L 61.000 192.200 79.400 192.206 L 97.800 192.212 79.505 192.102 L 61.209 191.992 61.098 175.896 L 60.986 159.800 60.993 176.000 M44.992 200.000 C 44.992 221.890,45.041 230.845,45.100 219.900 C 45.159 208.955,45.159 191.045,45.100 180.100 C 45.041 169.155,44.992 178.110,44.992 200.000 M207.693 182.400 C 207.693 183.170,207.775 183.485,207.876 183.100 C 207.976 182.715,207.976 182.085,207.876 181.700 C 207.775 181.315,207.693 181.630,207.693 182.400 M271.740 185.200 C 271.740 187.070,271.809 187.835,271.893 186.900 C 271.977 185.965,271.977 184.435,271.893 183.500 C 271.809 182.565,271.740 183.330,271.740 185.200 M60.983 223.000 C 60.983 232.460,61.036 236.273,61.100 231.473 C 61.164 226.673,61.163 218.933,61.099 214.273 C 61.036 209.613,60.983 213.540,60.983 223.000 M354.964 233.800 C 354.963 237.540,355.023 239.124,355.097 237.320 C 355.171 235.515,355.172 232.455,355.098 230.520 C 355.025 228.584,354.964 230.060,354.964 233.800 " stroke="none" fill="#f45c7c" fill-rule="evenodd"></path></g></svg>
