<svg id="svg" version="1.1" xmlns="http://www.w3.org/2000/svg" xmlns:xlink="http://www.w3.org/1999/xlink" viewBox="0 -10 512 512"><g id="svgg"><path id="path0" d="M179.400 0.440 C 177.420 0.633,174.450 0.897,172.800 1.027 C 171.150 1.156,169.629 1.428,169.420 1.631 C 169.211 1.834,168.086 2.000,166.920 2.000 C 165.754 2.000,164.800 2.180,164.800 2.400 C 164.800 2.620,163.900 2.800,162.800 2.800 C 161.700 2.800,160.800 2.980,160.800 3.200 C 160.800 3.420,159.900 3.600,158.800 3.600 C 157.700 3.600,156.800 3.780,156.800 4.000 C 156.800 4.220,156.080 4.400,155.200 4.400 C 154.320 4.400,153.600 4.580,153.600 4.800 C 153.600 5.020,152.891 5.200,152.024 5.200 C 151.157 5.200,150.336 5.380,150.200 5.600 C 150.064 5.820,149.434 6.000,148.800 6.000 C 148.166 6.000,147.536 6.180,147.400 6.400 C 147.264 6.620,146.634 6.800,146.000 6.800 C 145.366 6.800,144.736 6.980,144.600 7.200 C 144.464 7.420,143.834 7.600,143.200 7.600 C 142.566 7.600,141.936 7.780,141.800 8.000 C 141.664 8.220,141.034 8.400,140.400 8.400 C 139.766 8.400,139.136 8.580,139.000 8.800 C 138.864 9.020,138.324 9.200,137.800 9.200 C 137.276 9.200,136.751 9.356,136.632 9.547 C 136.514 9.739,135.739 10.009,134.909 10.148 C 133.452 10.393,127.017 12.849,126.514 13.353 C 126.378 13.489,125.934 13.600,125.528 13.600 C 125.122 13.600,124.477 13.765,124.095 13.966 C 123.713 14.168,122.680 14.638,121.800 15.010 C 120.920 15.382,119.677 15.938,119.039 16.244 C 118.400 16.550,117.635 16.800,117.339 16.800 C 117.042 16.800,116.800 16.980,116.800 17.200 C 116.800 17.420,116.440 17.600,116.000 17.600 C 115.560 17.600,115.200 17.736,115.200 17.902 C 115.200 18.069,114.615 18.444,113.900 18.736 C 111.453 19.737,107.600 21.791,107.600 22.096 C 107.600 22.263,107.366 22.400,107.080 22.400 C 106.344 22.400,104.407 23.341,104.403 23.700 C 104.401 23.865,104.040 24.000,103.600 24.000 C 103.160 24.000,102.800 24.180,102.800 24.400 C 102.800 24.620,102.440 24.800,102.000 24.800 C 101.560 24.800,101.200 24.980,101.200 25.200 C 101.200 25.420,100.930 25.600,100.600 25.600 C 100.270 25.600,100.000 25.780,100.000 26.000 C 100.000 26.220,99.730 26.400,99.400 26.400 C 99.070 26.400,98.800 26.580,98.800 26.800 C 98.800 27.020,98.545 27.200,98.232 27.200 C 97.519 27.200,95.206 28.498,95.203 28.900 C 95.201 29.065,94.975 29.200,94.700 29.200 C 94.425 29.201,93.682 29.647,93.048 30.192 C 92.414 30.737,91.739 31.086,91.548 30.968 C 91.357 30.850,91.200 30.922,91.200 31.128 C 91.200 31.334,90.660 31.727,90.000 32.000 C 89.340 32.273,88.800 32.643,88.800 32.822 C 88.800 33.000,88.434 33.262,87.987 33.404 C 87.540 33.546,86.738 34.098,86.205 34.631 C 85.672 35.164,84.998 35.600,84.706 35.600 C 84.415 35.600,83.917 35.960,83.600 36.400 C 83.283 36.840,82.838 37.203,82.612 37.207 C 82.145 37.216,80.137 38.771,78.102 40.700 C 77.348 41.415,76.543 42.000,76.313 42.000 C 76.082 42.000,75.603 42.329,75.247 42.732 C 74.891 43.135,74.306 43.630,73.947 43.832 C 73.178 44.266,70.211 46.659,69.027 47.800 C 68.571 48.240,67.295 49.346,66.193 50.258 C 64.179 51.924,60.372 55.600,60.659 55.600 C 60.744 55.600,59.686 56.742,58.307 58.138 C 56.928 59.533,55.752 60.640,55.693 60.597 C 55.514 60.467,52.019 64.065,50.258 66.193 C 49.346 67.295,48.240 68.571,47.800 69.027 C 46.659 70.211,44.266 73.178,43.832 73.947 C 43.630 74.306,43.135 74.891,42.732 75.247 C 42.329 75.603,42.000 76.082,42.000 76.313 C 42.000 76.543,41.415 77.348,40.700 78.102 C 38.771 80.137,37.216 82.145,37.207 82.612 C 37.203 82.838,36.840 83.283,36.400 83.600 C 35.960 83.917,35.600 84.415,35.600 84.706 C 35.600 84.998,35.164 85.672,34.631 86.205 C 34.098 86.738,33.546 87.540,33.404 87.987 C 33.262 88.434,33.000 88.800,32.822 88.800 C 32.643 88.800,32.273 89.340,32.000 90.000 C 31.727 90.660,31.334 91.200,31.128 91.200 C 30.922 91.200,30.850 91.357,30.968 91.548 C 31.086 91.739,30.737 92.414,30.192 93.048 C 29.647 93.682,29.201 94.425,29.200 94.700 C 29.200 94.975,29.065 95.201,28.900 95.203 C 28.498 95.206,27.200 97.519,27.200 98.232 C 27.200 98.545,27.020 98.800,26.800 98.800 C 26.580 98.800,26.400 99.070,26.400 99.400 C 26.400 99.730,26.220 100.000,26.000 100.000 C 25.780 100.000,25.600 100.270,25.600 100.600 C 25.600 100.930,25.420 101.200,25.200 101.200 C 24.980 101.200,24.800 101.560,24.800 102.000 C 24.800 102.440,24.620 102.800,24.400 102.800 C 24.180 102.800,24.000 103.160,24.000 103.600 C 24.000 104.040,23.865 104.401,23.700 104.403 C 23.341 104.407,22.400 106.344,22.400 107.080 C 22.400 107.366,22.263 107.600,22.096 107.600 C 21.791 107.600,19.737 111.453,18.736 113.900 C 18.444 114.615,18.069 115.200,17.902 115.200 C 17.736 115.200,17.600 115.560,17.600 116.000 C 17.600 116.440,17.420 116.800,17.200 116.800 C 16.980 116.800,16.800 117.042,16.800 117.339 C 16.800 117.635,16.550 118.400,16.244 119.039 C 15.938 119.677,15.382 120.920,15.010 121.800 C 14.638 122.680,14.168 123.713,13.966 124.095 C 13.765 124.477,13.600 125.122,13.600 125.528 C 13.600 125.934,13.489 126.378,13.353 126.514 C 12.849 127.017,10.393 133.452,10.148 134.909 C 10.009 135.739,9.739 136.514,9.547 136.632 C 9.356 136.751,9.200 137.276,9.200 137.800 C 9.200 138.324,9.020 138.864,8.800 139.000 C 8.580 139.136,8.400 139.766,8.400 140.400 C 8.400 141.034,8.220 141.664,8.000 141.800 C 7.780 141.936,7.600 142.566,7.600 143.200 C 7.600 143.834,7.420 144.464,7.200 144.600 C 6.980 144.736,6.800 145.366,6.800 146.000 C 6.800 146.634,6.620 147.264,6.400 147.400 C 6.180 147.536,6.000 148.166,6.000 148.800 C 6.000 149.434,5.820 150.064,5.600 150.200 C 5.380 150.336,5.200 151.157,5.200 152.024 C 5.200 152.891,5.020 153.600,4.800 153.600 C 4.580 153.600,4.400 154.320,4.400 155.200 C 4.400 156.080,4.220 156.800,4.000 156.800 C 3.780 156.800,3.600 157.700,3.600 158.800 C 3.600 159.900,3.420 160.800,3.200 160.800 C 2.980 160.800,2.800 161.700,2.800 162.800 C 2.800 163.900,2.620 164.800,2.400 164.800 C 2.180 164.800,2.000 165.754,2.000 166.920 C 2.000 168.086,1.834 169.211,1.631 169.420 C 1.428 169.629,1.167 171.060,1.050 172.600 C 0.933 174.140,0.637 177.740,0.392 180.600 C -0.217 187.693,0.066 224.089,0.731 224.310 C 1.033 224.411,1.200 225.513,1.200 227.410 C 1.200 229.028,1.380 230.464,1.600 230.600 C 1.820 230.736,2.000 231.816,2.000 233.000 C 2.000 234.184,2.180 235.264,2.400 235.400 C 2.620 235.536,2.800 236.537,2.800 237.624 C 2.800 238.711,2.980 239.600,3.200 239.600 C 3.420 239.600,3.600 240.410,3.600 241.400 C 3.600 242.390,3.780 243.200,4.000 243.200 C 4.220 243.200,4.400 243.909,4.400 244.776 C 4.400 245.643,4.580 246.464,4.800 246.600 C 5.020 246.736,5.200 247.557,5.200 248.424 C 5.200 249.291,5.380 250.000,5.600 250.000 C 5.820 250.000,6.000 250.630,6.000 251.400 C 6.000 252.170,6.180 252.800,6.400 252.800 C 6.620 252.800,6.800 253.430,6.800 254.200 C 6.800 254.970,6.980 255.600,7.200 255.600 C 7.420 255.600,7.600 256.230,7.600 257.000 C 7.600 257.770,7.780 258.400,8.000 258.400 C 8.220 258.400,8.400 258.929,8.400 259.576 C 8.400 260.223,8.580 260.864,8.800 261.000 C 9.020 261.136,9.200 261.676,9.200 262.200 C 9.200 262.724,9.380 263.264,9.600 263.400 C 9.820 263.536,10.000 264.004,10.000 264.441 C 10.000 265.142,12.107 271.292,13.276 274.000 C 13.513 274.550,13.840 275.360,14.003 275.800 C 14.347 276.732,15.925 280.283,16.444 281.295 C 16.640 281.677,16.800 282.262,16.800 282.595 C 16.800 282.928,16.936 283.200,17.102 283.200 C 17.269 283.200,17.645 283.785,17.939 284.500 C 19.126 287.392,21.737 292.400,22.058 292.400 C 22.246 292.400,22.400 292.634,22.400 292.920 C 22.400 293.656,23.341 295.593,23.700 295.597 C 23.865 295.599,24.000 295.960,24.000 296.400 C 24.000 296.840,24.180 297.200,24.400 297.200 C 24.620 297.200,24.800 297.560,24.800 298.000 C 24.800 298.440,24.980 298.800,25.200 298.800 C 25.420 298.800,25.600 299.070,25.600 299.400 C 25.600 299.730,25.780 300.000,26.000 300.000 C 26.220 300.000,26.400 300.270,26.400 300.600 C 26.400 300.930,26.580 301.200,26.800 301.200 C 27.020 301.200,27.200 301.474,27.200 301.808 C 27.200 302.142,27.650 303.129,28.200 304.000 C 28.750 304.871,29.200 305.768,29.200 305.992 C 29.200 306.216,29.342 306.400,29.515 306.400 C 29.689 306.400,30.452 307.435,31.212 308.700 C 31.971 309.965,32.729 311.060,32.896 311.133 C 33.063 311.207,33.200 311.477,33.201 311.733 C 33.201 311.990,33.741 312.830,34.400 313.600 C 35.059 314.370,35.599 315.185,35.599 315.412 C 35.600 315.638,35.960 316.083,36.400 316.400 C 36.840 316.717,37.200 317.115,37.200 317.285 C 37.200 317.727,41.201 322.987,43.026 324.943 C 43.260 325.195,43.620 325.694,43.826 326.053 C 44.272 326.831,46.675 329.806,47.800 330.973 C 48.240 331.429,49.410 332.782,50.400 333.979 C 51.390 335.175,53.430 337.335,54.933 338.777 C 56.435 340.220,59.594 343.290,61.951 345.600 C 67.346 350.887,70.161 353.365,74.200 356.381 C 75.960 357.695,77.980 359.317,78.689 359.985 C 79.397 360.653,80.162 361.200,80.389 361.200 C 80.615 361.200,80.800 361.350,80.800 361.532 C 80.800 361.715,81.295 362.119,81.900 362.430 C 82.505 362.740,83.291 363.311,83.647 363.697 C 84.003 364.084,84.453 364.400,84.647 364.401 C 84.841 364.401,85.630 364.941,86.400 365.600 C 87.170 366.259,88.025 366.799,88.300 366.799 C 88.575 366.800,88.800 366.980,88.800 367.200 C 88.800 367.420,89.070 367.600,89.400 367.600 C 89.730 367.600,90.000 367.780,90.000 368.000 C 90.000 368.220,90.174 368.400,90.386 368.400 C 90.599 368.400,92.264 369.371,94.086 370.557 C 95.909 371.743,98.166 373.112,99.102 373.598 C 100.038 374.085,100.904 374.644,101.026 374.841 C 101.147 375.039,101.597 375.200,102.024 375.200 C 102.451 375.200,102.800 375.380,102.800 375.600 C 102.800 375.820,103.160 376.000,103.600 376.000 C 104.040 376.000,104.401 376.135,104.403 376.300 C 104.407 376.659,106.344 377.600,107.080 377.600 C 107.366 377.600,107.600 377.754,107.600 377.942 C 107.600 378.335,113.947 381.608,114.700 381.603 C 114.975 381.601,115.200 381.780,115.200 382.000 C 115.200 382.220,115.560 382.400,116.000 382.400 C 116.440 382.400,116.800 382.580,116.800 382.800 C 116.800 383.020,117.250 383.200,117.800 383.200 C 118.350 383.200,118.800 383.336,118.800 383.502 C 118.800 383.669,119.385 384.044,120.100 384.336 C 122.850 385.459,123.422 385.704,124.095 386.047 C 124.477 386.241,125.152 386.400,125.595 386.400 C 126.038 386.400,126.400 386.580,126.400 386.800 C 126.400 387.020,126.672 387.200,127.005 387.200 C 127.593 387.200,128.018 387.367,129.895 388.338 C 130.387 388.592,131.122 388.800,131.528 388.800 C 131.934 388.800,132.386 388.919,132.532 389.065 C 132.994 389.528,136.735 390.731,136.973 390.494 C 137.098 390.369,137.200 390.477,137.200 390.733 C 137.200 390.990,137.335 391.170,137.500 391.133 C 138.041 391.011,140.984 391.635,141.695 392.022 C 142.077 392.230,142.842 392.400,143.395 392.400 C 143.948 392.400,144.400 392.580,144.400 392.800 C 144.400 393.020,145.019 393.200,145.776 393.200 C 146.533 393.200,147.264 393.380,147.400 393.600 C 147.536 393.820,148.177 394.000,148.824 394.000 C 149.471 394.000,150.000 394.180,150.000 394.400 C 150.000 394.620,150.709 394.800,151.576 394.800 C 152.443 394.800,153.264 394.980,153.400 395.200 C 153.536 395.420,154.357 395.600,155.224 395.600 C 156.091 395.600,156.800 395.780,156.800 396.000 C 156.800 396.220,157.711 396.400,158.824 396.400 C 160.071 396.400,160.752 396.553,160.600 396.800 C 160.447 397.048,161.188 397.200,162.553 397.200 C 163.763 397.200,164.864 397.380,165.000 397.600 C 165.136 397.820,166.137 398.000,167.224 398.000 C 168.311 398.000,169.200 398.180,169.200 398.400 C 169.200 398.633,170.522 398.800,172.367 398.800 C 174.544 398.800,175.585 398.956,175.700 399.300 C 175.943 400.030,223.330 400.030,224.060 399.300 C 224.375 398.985,225.717 398.800,227.680 398.800 C 229.493 398.800,230.800 398.632,230.800 398.400 C 230.800 398.180,231.779 398.000,232.976 398.000 C 234.173 398.000,235.264 397.820,235.400 397.600 C 235.536 397.380,236.537 397.200,237.624 397.200 C 238.711 397.200,239.600 397.020,239.600 396.800 C 239.600 396.580,240.410 396.400,241.400 396.400 C 242.390 396.400,243.200 396.220,243.200 396.000 C 243.200 395.780,243.909 395.600,244.776 395.600 C 245.643 395.600,246.464 395.420,246.600 395.200 C 246.736 394.980,247.557 394.800,248.424 394.800 C 249.291 394.800,250.000 394.620,250.000 394.400 C 250.000 394.180,250.630 394.000,251.400 394.000 C 252.170 394.000,252.800 393.820,252.800 393.600 C 252.800 393.380,253.430 393.200,254.200 393.200 C 254.970 393.200,255.600 393.020,255.600 392.800 C 255.600 392.580,256.230 392.400,257.000 392.400 C 257.770 392.400,258.400 392.220,258.400 392.000 C 258.400 391.780,258.942 391.600,259.605 391.600 C 260.268 391.600,261.123 391.436,261.505 391.235 C 261.887 391.034,263.730 390.388,265.600 389.799 C 267.470 389.210,269.763 388.385,270.696 387.964 C 271.628 387.544,272.576 387.200,272.801 387.200 C 273.026 387.200,273.523 387.041,273.905 386.847 C 274.605 386.491,276.034 385.892,277.700 385.257 C 278.195 385.068,279.382 384.528,280.338 384.057 C 281.294 383.586,282.329 383.200,282.638 383.200 C 282.947 383.200,283.200 383.020,283.200 382.800 C 283.200 382.580,283.560 382.400,284.000 382.400 C 284.440 382.400,284.800 382.220,284.800 382.000 C 284.800 381.780,285.160 381.600,285.600 381.600 C 286.040 381.600,286.400 381.420,286.400 381.200 C 286.400 380.980,286.645 380.800,286.944 380.800 C 287.711 380.800,292.400 378.336,292.400 377.933 C 292.400 377.750,292.634 377.600,292.920 377.600 C 293.656 377.600,295.593 376.659,295.597 376.300 C 295.599 376.135,295.945 376.000,296.367 376.000 C 296.788 376.000,297.193 375.865,297.267 375.700 C 297.340 375.535,298.120 375.046,299.000 374.612 C 299.880 374.179,301.743 373.144,303.141 372.312 C 304.538 371.481,305.761 370.800,305.858 370.800 C 305.954 370.800,306.420 370.440,306.892 370.000 C 307.364 369.560,307.987 369.200,308.275 369.200 C 308.564 369.200,308.800 369.020,308.800 368.800 C 308.800 368.580,309.036 368.400,309.325 368.400 C 309.613 368.400,310.236 368.040,310.708 367.600 C 311.180 367.160,311.709 366.800,311.883 366.800 C 312.057 366.799,312.740 366.334,313.400 365.765 C 314.060 365.196,315.095 364.437,315.700 364.079 C 316.305 363.721,316.800 363.286,316.800 363.114 C 316.800 362.941,317.036 362.800,317.325 362.800 C 317.613 362.800,318.236 362.440,318.708 362.000 C 319.180 361.560,319.739 361.200,319.950 361.200 C 320.161 361.200,320.393 361.048,320.467 360.863 C 320.540 360.677,321.680 359.698,323.000 358.687 C 324.320 357.676,325.923 356.388,326.562 355.824 C 327.201 355.261,327.848 354.800,328.000 354.800 C 328.152 354.800,329.261 353.845,330.466 352.678 C 331.671 351.511,333.274 350.120,334.029 349.588 C 334.783 349.055,336.788 347.175,338.484 345.410 C 342.210 341.531,341.531 342.210,345.410 338.484 C 347.175 336.788,349.055 334.783,349.588 334.029 C 350.120 333.274,351.511 331.671,352.678 330.466 C 353.845 329.261,354.800 328.152,354.800 328.000 C 354.800 327.848,355.261 327.201,355.824 326.562 C 356.388 325.923,357.676 324.320,358.687 323.000 C 359.698 321.680,360.677 320.540,360.863 320.467 C 361.048 320.393,361.200 320.161,361.200 319.950 C 361.200 319.739,361.560 319.180,362.000 318.708 C 362.440 318.236,362.800 317.613,362.800 317.325 C 362.800 317.036,362.941 316.800,363.114 316.800 C 363.286 316.800,363.721 316.305,364.079 315.700 C 364.437 315.095,365.196 314.060,365.765 313.400 C 366.334 312.740,366.799 312.057,366.800 311.883 C 366.800 311.709,367.160 311.180,367.600 310.708 C 368.040 310.236,368.400 309.613,368.400 309.325 C 368.400 309.036,368.580 308.800,368.800 308.800 C 369.020 308.800,369.200 308.564,369.200 308.275 C 369.200 307.987,369.560 307.364,370.000 306.892 C 370.440 306.420,370.800 305.954,370.800 305.858 C 370.800 305.761,371.520 304.497,372.400 303.048 C 373.280 301.600,374.000 300.253,374.000 300.056 C 374.000 299.859,374.270 299.474,374.600 299.200 C 374.930 298.926,375.200 298.364,375.200 297.951 C 375.200 297.538,375.380 297.200,375.600 297.200 C 375.820 297.200,376.000 296.840,376.000 296.400 C 376.000 295.960,376.135 295.599,376.300 295.597 C 376.659 295.593,377.600 293.656,377.600 292.920 C 377.600 292.634,377.750 292.400,377.933 292.400 C 378.336 292.400,380.800 287.711,380.800 286.944 C 380.800 286.645,380.980 286.400,381.200 286.400 C 381.420 286.400,381.600 286.040,381.600 285.600 C 381.600 285.160,381.780 284.800,382.000 284.800 C 382.220 284.800,382.400 284.440,382.400 284.000 C 382.400 283.560,382.580 283.200,382.800 283.200 C 383.020 283.200,383.200 282.947,383.200 282.638 C 383.200 282.329,383.586 281.294,384.057 280.338 C 384.528 279.382,385.092 278.150,385.310 277.600 C 385.529 277.050,385.884 276.150,386.100 275.600 C 386.316 275.050,386.652 274.287,386.847 273.905 C 387.041 273.523,387.200 273.026,387.200 272.801 C 387.200 272.576,387.544 271.628,387.964 270.696 C 388.385 269.763,389.210 267.470,389.799 265.600 C 390.388 263.730,391.034 261.887,391.235 261.505 C 391.436 261.123,391.600 260.268,391.600 259.605 C 391.600 258.942,391.780 258.400,392.000 258.400 C 392.220 258.400,392.400 257.770,392.400 257.000 C 392.400 256.230,392.580 255.600,392.800 255.600 C 393.020 255.600,393.200 254.970,393.200 254.200 C 393.200 253.430,393.380 252.800,393.600 252.800 C 393.820 252.800,394.000 252.170,394.000 251.400 C 394.000 250.630,394.180 250.000,394.400 250.000 C 394.620 250.000,394.800 249.291,394.800 248.424 C 394.800 247.557,394.980 246.736,395.200 246.600 C 395.420 246.464,395.600 245.643,395.600 244.776 C 395.600 243.909,395.780 243.200,396.000 243.200 C 396.220 243.200,396.400 242.390,396.400 241.400 C 396.400 240.410,396.580 239.600,396.800 239.600 C 397.020 239.600,397.200 238.711,397.200 237.624 C 397.200 236.537,397.380 235.536,397.600 235.400 C 397.820 235.264,398.000 234.173,398.000 232.976 C 398.000 231.779,398.180 230.800,398.400 230.800 C 398.632 230.800,398.800 229.493,398.800 227.680 C 398.800 225.717,398.985 224.375,399.300 224.060 C 400.030 223.330,400.030 175.943,399.300 175.700 C 398.956 175.585,398.800 174.544,398.800 172.367 C 398.800 170.522,398.633 169.200,398.400 169.200 C 398.180 169.200,398.000 168.311,398.000 167.224 C 398.000 166.137,397.820 165.136,397.600 165.000 C 397.380 164.864,397.200 163.763,397.200 162.553 C 397.200 161.188,397.048 160.447,396.800 160.600 C 396.553 160.752,396.400 160.071,396.400 158.824 C 396.400 157.711,396.220 156.800,396.000 156.800 C 395.780 156.800,395.600 156.091,395.600 155.224 C 395.600 154.357,395.420 153.536,395.200 153.400 C 394.980 153.264,394.800 152.443,394.800 151.576 C 394.800 150.709,394.620 150.000,394.400 150.000 C 394.180 150.000,394.000 149.471,394.000 148.824 C 394.000 148.177,393.820 147.536,393.600 147.400 C 393.380 147.264,393.200 146.533,393.200 145.776 C 393.200 145.019,393.020 144.400,392.800 144.400 C 392.580 144.400,392.400 143.948,392.400 143.395 C 392.400 142.842,392.230 142.077,392.022 141.695 C 391.635 140.984,391.011 138.041,391.133 137.500 C 391.170 137.335,390.990 137.200,390.733 137.200 C 390.477 137.200,390.369 137.098,390.494 136.973 C 390.731 136.735,389.528 132.994,389.065 132.532 C 388.919 132.386,388.800 131.934,388.800 131.528 C 388.800 131.122,388.620 130.432,388.400 129.995 C 388.180 129.558,387.820 128.842,387.600 128.405 C 387.380 127.968,387.200 127.338,387.200 127.005 C 387.200 126.672,387.020 126.400,386.800 126.400 C 386.580 126.400,386.400 126.038,386.400 125.595 C 386.400 125.152,386.241 124.477,386.047 124.095 C 385.704 123.422,385.459 122.850,384.336 120.100 C 384.044 119.385,383.669 118.800,383.502 118.800 C 383.336 118.800,383.200 118.350,383.200 117.800 C 383.200 117.250,383.020 116.800,382.800 116.800 C 382.580 116.800,382.400 116.440,382.400 116.000 C 382.400 115.560,382.220 115.200,382.000 115.200 C 381.780 115.200,381.601 114.975,381.603 114.700 C 381.608 113.947,378.335 107.600,377.942 107.600 C 377.754 107.600,377.600 107.366,377.600 107.080 C 377.600 106.344,376.659 104.407,376.300 104.403 C 376.135 104.401,376.000 104.040,376.000 103.600 C 376.000 103.160,375.820 102.800,375.600 102.800 C 375.380 102.800,375.200 102.451,375.200 102.024 C 375.200 101.597,375.039 101.147,374.841 101.026 C 374.644 100.904,374.085 100.038,373.598 99.102 C 373.112 98.166,371.743 95.909,370.557 94.086 C 369.371 92.264,368.400 90.599,368.400 90.386 C 368.400 90.174,368.220 90.000,368.000 90.000 C 367.780 90.000,367.600 89.730,367.600 89.400 C 367.600 89.070,367.420 88.800,367.200 88.800 C 366.980 88.800,366.800 88.575,366.799 88.300 C 366.799 88.025,366.259 87.170,365.600 86.400 C 364.941 85.630,364.401 84.841,364.401 84.647 C 364.400 84.453,364.084 84.003,363.697 83.647 C 363.311 83.291,362.740 82.505,362.430 81.900 C 362.119 81.295,361.715 80.800,361.532 80.800 C 361.350 80.800,361.200 80.615,361.200 80.389 C 361.200 80.162,360.653 79.397,359.985 78.689 C 359.317 77.980,357.695 75.960,356.381 74.200 C 353.365 70.161,350.887 67.346,345.600 61.951 C 343.290 59.594,340.220 56.435,338.777 54.933 C 337.335 53.430,335.175 51.390,333.979 50.400 C 332.782 49.410,331.429 48.240,330.973 47.800 C 329.806 46.675,326.831 44.272,326.053 43.826 C 325.694 43.620,325.195 43.260,324.943 43.026 C 322.987 41.201,317.727 37.200,317.285 37.200 C 317.115 37.200,316.717 36.840,316.400 36.400 C 316.083 35.960,315.638 35.600,315.412 35.599 C 315.185 35.599,314.370 35.059,313.600 34.400 C 312.830 33.741,311.990 33.201,311.733 33.201 C 311.477 33.200,311.207 33.063,311.133 32.896 C 311.060 32.729,309.965 31.971,308.700 31.212 C 307.435 30.452,306.400 29.689,306.400 29.515 C 306.400 29.342,306.216 29.200,305.992 29.200 C 305.768 29.200,304.871 28.750,304.000 28.200 C 303.129 27.650,302.142 27.200,301.808 27.200 C 301.474 27.200,301.200 27.020,301.200 26.800 C 301.200 26.580,300.930 26.400,300.600 26.400 C 300.270 26.400,300.000 26.254,300.000 26.075 C 300.000 25.896,299.370 25.502,298.600 25.200 C 297.830 24.898,297.200 24.504,297.200 24.325 C 297.200 24.146,296.840 24.000,296.400 24.000 C 295.960 24.000,295.599 23.865,295.597 23.700 C 295.593 23.341,293.656 22.400,292.920 22.400 C 292.634 22.400,292.400 22.246,292.400 22.058 C 292.400 21.737,287.392 19.126,284.500 17.939 C 283.785 17.645,283.200 17.269,283.200 17.102 C 283.200 16.936,282.928 16.800,282.595 16.800 C 282.262 16.800,281.677 16.640,281.295 16.444 C 280.345 15.957,276.802 14.377,275.700 13.949 C 275.205 13.757,274.395 13.430,273.900 13.222 C 270.995 12.002,265.117 10.000,264.441 10.000 C 264.004 10.000,263.536 9.820,263.400 9.600 C 263.264 9.380,262.724 9.200,262.200 9.200 C 261.676 9.200,261.136 9.020,261.000 8.800 C 260.864 8.580,260.223 8.400,259.576 8.400 C 258.929 8.400,258.400 8.220,258.400 8.000 C 258.400 7.780,257.770 7.600,257.000 7.600 C 256.230 7.600,255.600 7.420,255.600 7.200 C 255.600 6.980,254.970 6.800,254.200 6.800 C 253.430 6.800,252.800 6.620,252.800 6.400 C 252.800 6.180,252.170 6.000,251.400 6.000 C 250.630 6.000,250.000 5.820,250.000 5.600 C 250.000 5.380,249.291 5.200,248.424 5.200 C 247.557 5.200,246.736 5.020,246.600 4.800 C 246.464 4.580,245.643 4.400,244.776 4.400 C 243.909 4.400,243.200 4.220,243.200 4.000 C 243.200 3.780,242.390 3.600,241.400 3.600 C 240.410 3.600,239.600 3.420,239.600 3.200 C 239.600 2.980,238.711 2.800,237.624 2.800 C 236.537 2.800,235.536 2.620,235.400 2.400 C 235.264 2.180,234.184 2.000,233.000 2.000 C 231.816 2.000,230.736 1.820,230.600 1.600 C 230.464 1.380,229.028 1.200,227.410 1.200 C 225.488 1.200,224.412 1.035,224.308 0.723 C 224.112 0.137,185.045 -0.109,179.400 0.440 M230.841 83.500 C 233.551 86.085,237.591 90.000,239.818 92.200 C 242.046 94.400,246.013 98.202,248.634 100.649 C 251.255 103.095,255.485 107.145,258.034 109.649 C 260.583 112.152,265.159 116.540,268.203 119.400 C 271.247 122.260,275.294 126.130,277.197 128.000 C 279.099 129.870,282.938 133.589,285.728 136.265 L 290.800 141.130 290.800 226.541 C 290.800 283.051,290.665 312.036,290.400 312.200 C 290.180 312.336,290.000 312.809,290.000 313.252 C 290.000 315.360,286.280 319.429,282.800 321.127 L 280.600 322.200 199.400 322.200 L 118.200 322.200 116.296 321.313 C 113.910 320.200,110.832 317.342,109.856 315.332 C 109.446 314.490,108.906 313.440,108.656 313.000 C 108.328 312.424,108.167 302.886,108.083 278.915 L 107.966 245.631 99.683 245.466 C 91.417 245.301,88.588 245.028,88.173 244.356 C 88.052 244.160,87.603 244.000,87.176 244.000 C 86.749 244.000,86.400 243.864,86.400 243.698 C 86.400 243.531,85.855 243.154,85.190 242.860 C 82.732 241.772,80.336 238.735,78.231 234.039 C 77.604 232.642,77.631 178.474,78.259 177.161 C 78.512 176.632,78.996 175.570,79.336 174.800 C 81.021 170.984,84.690 167.917,89.400 166.391 C 90.380 166.073,94.254 165.781,99.400 165.636 L 107.800 165.400 108.000 127.200 C 108.143 99.810,108.328 88.774,108.653 88.200 C 108.903 87.760,109.353 86.876,109.653 86.235 C 110.993 83.377,113.778 81.056,118.000 79.276 C 118.683 78.988,135.949 78.846,172.457 78.827 L 225.913 78.800 230.841 83.500 M132.100 191.476 C 132.485 191.576,133.115 191.576,133.500 191.476 C 133.885 191.375,133.570 191.293,132.800 191.293 C 132.030 191.293,131.715 191.375,132.100 191.476 M189.700 191.476 C 190.085 191.576,190.715 191.576,191.100 191.476 C 191.485 191.375,191.170 191.293,190.400 191.293 C 189.630 191.293,189.315 191.375,189.700 191.476 M152.828 191.800 C 152.828 192.020,153.086 192.650,153.400 193.200 C 153.714 193.750,153.972 194.020,153.972 193.800 C 153.972 193.580,153.714 192.950,153.400 192.400 C 153.086 191.850,152.828 191.580,152.828 191.800 M135.999 193.100 C 136.522 193.815,137.013 194.400,137.089 194.400 C 137.393 194.400,136.401 192.900,135.745 192.367 C 135.313 192.016,135.410 192.296,135.999 193.100 M108.573 203.000 C 108.573 208.500,108.630 210.805,108.699 208.123 C 108.768 205.441,108.768 200.941,108.699 198.123 C 108.630 195.305,108.574 197.500,108.573 203.000 M114.175 203.800 C 114.175 209.740,114.231 212.226,114.299 209.324 C 114.367 206.422,114.367 201.562,114.299 198.524 C 114.231 195.486,114.175 197.860,114.175 203.800 M182.313 203.781 C 181.942 204.781,181.717 205.600,181.814 205.600 C 182.093 205.600,183.231 202.694,183.103 202.309 C 183.039 202.118,182.684 202.780,182.313 203.781 M137.070 209.486 L 137.295 210.773 132.747 210.901 L 128.200 211.029 132.713 211.114 C 137.602 211.207,138.186 210.946,137.274 209.078 C 136.899 208.312,136.873 208.364,137.070 209.486 M185.734 210.000 C 185.801 211.022,194.317 211.840,195.248 210.914 C 195.421 210.741,193.425 210.655,190.812 210.723 C 186.129 210.844,186.059 210.833,185.865 209.923 C 185.684 209.069,185.674 209.074,185.734 210.000 M160.812 214.651 C 160.795 215.303,161.892 216.114,162.382 215.811 C 162.612 215.669,162.779 215.248,162.754 214.876 C 162.712 214.267,162.689 214.269,162.524 214.900 C 162.424 215.285,162.183 215.600,161.991 215.600 C 161.798 215.600,161.456 215.285,161.232 214.900 C 161.008 214.515,160.819 214.403,160.812 214.651 M132.572 215.500 C 136.817 215.581,139.153 215.784,139.572 216.111 C 140.126 216.542,140.135 216.517,139.651 215.900 C 139.163 215.278,138.384 215.210,132.651 215.289 L 126.200 215.378 132.572 215.500 M187.100 215.498 C 188.915 215.572,191.885 215.572,193.700 215.498 C 195.515 215.423,194.030 215.363,190.400 215.363 C 186.770 215.363,185.285 215.423,187.100 215.498 M105.800 218.027 C 105.140 218.450,104.805 218.797,105.056 218.798 C 105.306 218.799,105.936 218.446,106.456 218.013 C 107.645 217.023,107.359 217.029,105.800 218.027 M176.243 219.433 C 175.908 220.305,175.938 221.515,176.300 221.737 C 176.465 221.838,176.609 221.218,176.619 220.360 C 176.641 218.626,176.595 218.514,176.243 219.433 " stroke="none" fill="#d4dbbb" fill-rule="evenodd"></path><path id="path1" d="M171.600 79.600 L 118.200 79.800 116.276 80.755 C 114.015 81.878,111.050 84.717,110.250 86.524 C 109.940 87.226,109.531 88.160,109.343 88.600 C 109.154 89.040,108.910 106.680,108.800 127.800 L 108.600 166.200 99.600 166.450 C 94.650 166.588,90.055 166.879,89.389 167.097 C 84.306 168.761,80.481 172.569,79.005 177.434 C 78.091 180.446,78.120 231.360,79.037 234.000 C 80.724 238.857,83.753 241.935,88.800 243.918 C 89.770 244.299,92.963 244.535,99.200 244.684 C 105.201 244.828,108.298 245.050,108.494 245.350 C 108.656 245.598,108.791 260.507,108.794 278.481 C 108.798 301.738,108.930 311.485,109.250 312.281 C 110.220 314.695,110.632 315.454,111.747 316.881 C 113.122 318.642,115.333 320.172,117.688 320.992 C 120.813 322.080,278.815 321.883,281.744 320.787 C 285.948 319.214,288.951 315.588,289.950 310.880 C 290.275 309.350,290.400 285.552,290.400 225.222 L 290.400 141.683 281.506 133.141 C 276.614 128.444,270.179 122.234,267.206 119.343 C 264.233 116.452,260.013 112.402,257.828 110.343 C 255.643 108.284,250.873 103.695,247.228 100.144 C 243.583 96.594,239.970 93.105,239.200 92.392 C 238.430 91.680,235.041 88.465,231.669 85.248 C 228.298 82.032,225.418 79.400,225.269 79.400 C 225.121 79.400,200.970 79.490,171.600 79.600 M113.320 191.302 C 115.189 192.800,115.915 203.899,114.788 213.736 C 114.245 218.480,111.569 222.800,109.174 222.800 C 108.774 222.800,108.336 222.980,108.200 223.200 C 107.698 224.013,100.170 223.680,98.512 222.772 C 96.714 221.787,94.400 219.286,94.400 218.328 C 94.400 217.954,94.220 217.536,94.000 217.400 C 93.780 217.264,93.600 215.916,93.600 214.404 C 93.600 208.318,98.855 208.530,100.177 214.668 C 100.892 217.991,104.243 219.109,106.440 216.758 L 107.600 215.515 107.600 205.007 C 107.600 193.713,107.797 192.395,109.679 191.084 C 110.961 190.191,112.012 190.254,113.320 191.302 M134.518 190.991 C 135.950 191.590,137.600 193.458,137.600 194.482 C 137.600 194.789,137.753 195.211,137.940 195.420 C 138.128 195.629,138.773 197.060,139.374 198.600 C 139.975 200.140,140.741 202.030,141.074 202.800 C 141.892 204.684,142.447 206.037,142.800 207.000 C 142.961 207.440,143.273 208.250,143.493 208.800 C 143.713 209.350,144.121 210.340,144.400 211.000 C 144.679 211.660,145.039 212.560,145.200 213.000 C 145.361 213.440,145.721 214.340,146.000 215.000 C 148.665 221.308,148.272 223.600,144.523 223.600 C 142.421 223.600,141.564 222.636,139.900 218.400 C 138.991 216.085,139.372 216.200,132.605 216.200 L 126.296 216.200 125.671 218.200 C 124.434 222.155,123.493 223.385,121.595 223.525 C 117.127 223.857,117.076 220.394,121.404 210.600 C 121.696 209.940,122.236 208.590,122.604 207.600 C 123.278 205.791,123.615 204.933,124.454 202.900 C 124.703 202.295,125.087 201.350,125.307 200.800 C 125.527 200.250,125.887 199.350,126.107 198.800 C 126.327 198.250,126.663 197.395,126.854 196.900 C 129.006 191.308,131.210 189.609,134.518 190.991 M152.838 191.227 C 153.477 191.682,154.000 192.278,154.000 192.552 C 154.000 192.826,154.360 193.795,154.800 194.706 C 155.240 195.616,155.600 196.629,155.600 196.957 C 155.600 197.285,155.780 197.664,156.000 197.800 C 156.220 197.936,156.400 198.476,156.400 199.000 C 156.400 199.524,156.580 200.064,156.800 200.200 C 157.020 200.336,157.200 200.876,157.200 201.400 C 157.200 201.924,157.380 202.464,157.600 202.600 C 157.820 202.736,158.000 203.276,158.000 203.800 C 158.000 204.324,158.180 204.864,158.400 205.000 C 158.620 205.136,158.800 205.676,158.800 206.200 C 158.800 206.724,158.980 207.264,159.200 207.400 C 159.420 207.536,159.600 208.076,159.600 208.600 C 159.600 209.124,159.744 209.642,159.921 209.751 C 160.097 209.860,160.492 210.867,160.797 211.989 C 161.448 214.379,162.400 215.498,162.400 213.873 C 162.400 213.309,162.580 212.736,162.800 212.600 C 163.020 212.464,163.200 212.001,163.200 211.571 C 163.200 211.141,163.360 210.477,163.556 210.095 C 163.751 209.713,165.128 205.710,166.615 201.200 C 170.139 190.515,170.745 189.617,173.622 190.809 C 175.511 191.592,176.826 194.643,175.600 195.400 C 175.380 195.536,175.200 195.999,175.200 196.429 C 175.200 197.184,175.056 197.574,174.062 199.495 C 173.808 199.987,173.600 200.664,173.600 201.000 C 173.600 201.336,173.441 201.923,173.247 202.305 C 172.771 203.240,172.182 204.707,171.600 206.400 C 171.336 207.170,170.975 208.160,170.799 208.600 C 170.622 209.040,170.115 210.390,169.671 211.600 C 165.494 222.990,165.090 223.600,161.718 223.600 C 159.606 223.600,156.800 221.634,156.800 220.155 C 156.800 219.844,156.634 219.277,156.432 218.895 C 156.230 218.513,155.690 217.165,155.232 215.900 C 154.774 214.635,154.051 212.655,153.625 211.500 C 153.199 210.345,152.097 207.330,151.177 204.800 C 150.258 202.270,149.076 199.031,148.552 197.602 C 146.635 192.371,149.164 188.611,152.838 191.227 M192.127 190.995 C 193.524 191.579,195.600 193.819,195.600 194.743 C 195.600 195.000,195.759 195.523,195.953 195.905 C 196.323 196.632,197.091 198.435,197.613 199.800 C 197.781 200.240,198.188 201.230,198.518 202.000 C 198.847 202.770,199.962 205.560,200.996 208.200 C 202.029 210.840,203.113 213.540,203.404 214.200 C 206.305 220.769,205.974 223.600,202.304 223.600 C 200.139 223.600,199.516 222.961,197.986 219.166 L 196.710 216.000 190.428 216.000 L 184.146 216.000 183.472 218.100 C 182.172 222.150,181.211 223.383,179.243 223.525 C 176.351 223.734,174.628 221.099,175.953 218.495 C 176.148 218.113,176.484 217.350,176.700 216.800 C 177.389 215.046,178.083 213.421,178.447 212.705 C 178.641 212.323,178.800 211.826,178.800 211.601 C 178.800 211.376,179.178 210.338,179.640 209.296 C 180.700 206.902,180.672 206.973,183.441 199.800 C 186.071 192.986,186.761 191.797,188.537 191.019 C 190.192 190.294,190.444 190.292,192.127 190.995 M189.611 200.731 C 189.311 201.759,188.925 202.870,188.754 203.200 C 188.016 204.621,186.432 209.729,186.630 210.049 C 187.130 210.858,194.400 210.460,194.400 209.624 C 194.400 209.197,194.220 208.736,194.000 208.600 C 193.780 208.464,193.600 208.001,193.600 207.571 C 193.600 206.816,193.456 206.426,192.462 204.505 C 192.208 204.013,192.000 203.259,192.000 202.829 C 192.000 202.399,191.820 201.936,191.600 201.800 C 191.380 201.664,191.194 201.248,191.187 200.876 C 191.151 198.939,190.161 198.848,189.611 200.731 M131.634 201.681 C 131.146 203.066,130.401 205.100,129.978 206.200 C 128.456 210.155,128.474 210.183,132.564 210.316 C 137.134 210.466,137.052 210.656,134.934 204.800 C 132.692 198.598,132.713 198.618,131.634 201.681 " stroke="none" fill="#db6f26" fill-rule="evenodd"></path><path id="path2" d="M109.300 192.198 C 108.930 192.619,108.800 195.246,108.800 202.316 C 108.800 215.939,107.979 218.800,104.070 218.800 C 101.726 218.800,100.409 217.510,99.248 214.076 C 97.820 209.853,94.346 209.566,94.080 213.647 C 93.427 223.697,108.813 227.137,113.116 217.904 C 114.242 215.489,114.512 193.255,113.429 192.171 C 112.696 191.439,109.953 191.457,109.300 192.198 M129.941 192.300 C 129.212 193.176,127.491 196.821,126.400 199.800 C 125.963 200.994,125.153 202.908,124.753 203.695 C 124.559 204.077,124.400 204.574,124.400 204.799 C 124.400 205.024,124.060 205.972,123.644 206.904 C 118.274 218.953,117.664 223.200,121.304 223.200 C 122.319 223.200,124.000 221.475,124.000 220.433 C 124.000 220.189,124.180 219.632,124.400 219.195 C 124.620 218.758,124.980 218.042,125.200 217.605 C 125.420 217.168,125.600 216.542,125.600 216.213 C 125.600 215.310,126.851 215.160,133.357 215.285 C 139.773 215.409,139.357 215.260,140.400 217.800 C 140.671 218.460,141.052 219.313,141.247 219.695 C 141.441 220.077,141.600 220.570,141.600 220.792 C 141.600 221.663,143.378 223.200,144.372 223.187 C 146.702 223.158,147.549 220.941,146.400 217.879 C 145.611 215.778,145.330 215.056,144.854 213.900 C 144.604 213.295,144.196 212.305,143.946 211.700 C 143.697 211.095,143.355 210.240,143.186 209.800 C 143.018 209.360,142.502 208.147,142.040 207.104 C 141.578 206.062,141.200 205.115,141.200 205.000 C 141.200 204.885,140.822 203.938,140.360 202.896 C 139.069 199.981,138.601 198.826,137.570 196.000 C 136.078 191.914,131.936 189.905,129.941 192.300 M148.771 192.455 C 148.015 193.866,148.659 196.065,154.020 210.400 C 154.719 212.270,155.382 214.208,155.493 214.706 C 155.605 215.204,155.854 215.710,156.048 215.830 C 156.241 215.949,156.400 216.399,156.400 216.829 C 156.400 217.259,156.559 217.923,156.753 218.305 C 156.948 218.687,157.353 219.540,157.653 220.200 C 158.965 223.080,161.356 223.956,163.813 222.458 C 165.126 221.656,165.618 220.690,167.809 214.600 C 169.452 210.036,170.731 206.565,171.200 205.400 C 171.377 204.960,171.917 203.520,172.400 202.200 C 173.278 199.799,173.671 198.787,174.377 197.100 C 175.771 193.770,175.025 191.600,172.487 191.600 C 170.502 191.600,170.658 191.278,166.353 204.254 C 161.896 217.691,161.730 217.947,160.463 213.331 C 160.172 212.269,159.780 211.040,159.593 210.600 C 159.406 210.160,158.869 208.630,158.400 207.200 C 157.931 205.770,157.400 204.240,157.219 203.800 C 157.039 203.360,156.659 202.190,156.376 201.200 C 156.093 200.210,155.712 199.229,155.530 199.020 C 155.349 198.811,155.200 198.314,155.200 197.915 C 155.200 197.516,155.041 196.877,154.846 196.495 C 154.651 196.113,154.080 194.855,153.577 193.700 C 152.515 191.260,149.788 190.553,148.771 192.455 M187.653 192.543 C 186.909 193.336,183.215 201.591,183.204 202.488 C 183.202 202.647,182.750 203.760,182.200 204.963 C 181.650 206.165,181.200 207.268,181.200 207.414 C 181.200 207.560,180.912 208.336,180.559 209.140 C 179.749 210.985,179.174 212.379,178.800 213.400 C 178.404 214.481,177.575 216.462,177.203 217.215 C 175.775 220.107,176.620 223.200,178.838 223.200 C 180.458 223.200,180.848 222.737,182.201 219.200 C 183.847 214.899,183.231 215.200,190.387 215.200 C 197.450 215.200,197.413 215.186,198.383 218.268 C 199.746 222.605,201.721 224.180,203.793 222.586 C 205.360 221.380,203.073 213.947,196.752 199.704 C 196.339 198.772,196.000 197.824,196.000 197.599 C 196.000 197.374,195.841 196.877,195.647 196.495 C 195.452 196.113,195.047 195.260,194.747 194.600 C 193.331 191.493,189.644 190.424,187.653 192.543 M191.600 199.850 C 191.600 200.158,191.780 200.768,192.000 201.205 C 192.220 201.642,192.580 202.358,192.800 202.795 C 193.020 203.232,193.200 203.864,193.200 204.200 C 193.200 204.536,193.359 205.123,193.553 205.505 C 194.669 207.699,195.614 210.652,195.301 210.966 C 195.172 211.095,193.021 211.200,190.521 211.200 C 185.094 211.200,185.101 211.207,186.589 207.117 C 187.173 205.513,187.918 203.390,188.245 202.400 C 188.573 201.410,188.995 200.240,189.184 199.800 C 189.373 199.360,189.647 198.640,189.793 198.200 C 190.095 197.292,191.600 198.666,191.600 199.850 M135.306 203.600 C 136.404 206.570,137.324 209.450,137.351 210.000 L 137.400 211.000 132.805 211.000 C 127.823 211.000,127.319 210.735,128.332 208.647 C 128.742 207.803,130.287 203.522,131.496 199.883 C 132.470 196.949,133.058 197.523,135.306 203.600 " stroke="none" fill="#fcfbfb" fill-rule="evenodd"></path><path id="path3" d="M119.800 79.254 C 115.477 80.042,111.650 82.886,109.728 86.739 L 108.600 89.000 108.494 127.166 C 108.412 156.734,108.277 165.467,107.894 165.931 C 107.491 166.420,107.510 166.494,108.000 166.332 C 108.526 166.158,108.625 161.397,108.800 127.767 C 108.910 106.665,109.154 89.040,109.343 88.600 C 110.808 85.180,111.947 83.671,114.400 81.895 C 117.727 79.487,114.628 79.610,172.660 79.596 L 225.718 79.583 231.759 85.339 C 235.081 88.506,238.430 91.680,239.200 92.392 C 239.970 93.105,243.583 96.594,247.228 100.144 C 250.873 103.695,255.643 108.284,257.828 110.343 C 260.013 112.402,264.233 116.452,267.206 119.343 C 270.179 122.234,276.614 128.444,281.506 133.141 L 290.400 141.683 290.400 225.222 C 290.400 285.552,290.275 309.350,289.950 310.880 C 288.951 315.588,285.948 319.214,281.744 320.787 C 278.815 321.883,120.813 322.080,117.688 320.992 C 115.333 320.172,113.122 318.642,111.747 316.881 C 110.632 315.454,110.220 314.695,109.250 312.281 C 108.930 311.485,108.798 301.738,108.794 278.481 C 108.791 260.507,108.656 245.598,108.494 245.350 C 108.298 245.050,105.201 244.828,99.200 244.684 C 92.963 244.535,89.770 244.299,88.800 243.918 C 83.753 241.935,80.724 238.857,79.037 234.000 C 78.120 231.360,78.091 180.446,79.005 177.434 C 80.192 173.521,82.701 170.466,86.403 168.425 C 87.611 167.759,88.385 167.211,88.123 167.207 C 85.409 167.166,80.208 172.698,78.587 177.347 C 77.708 179.872,77.734 231.404,78.617 233.937 C 80.456 239.218,83.501 242.230,89.400 244.604 C 89.840 244.781,94.250 245.033,99.200 245.163 L 108.200 245.400 108.400 278.600 C 108.510 296.860,108.754 312.160,108.943 312.600 C 110.150 315.417,110.581 316.178,111.673 317.422 C 113.332 319.311,114.856 320.343,117.315 321.242 C 119.934 322.199,278.510 322.443,281.200 321.494 C 284.888 320.193,288.563 316.633,289.827 313.138 C 290.581 311.054,290.603 308.873,290.704 226.358 L 290.807 141.716 284.504 135.545 C 281.037 132.151,276.310 127.580,274.000 125.387 C 271.691 123.194,267.101 118.780,263.800 115.578 C 260.500 112.376,255.730 107.793,253.200 105.393 C 250.670 102.994,246.080 98.586,243.000 95.598 C 239.920 92.611,235.690 88.539,233.600 86.550 C 231.510 84.561,228.826 82.004,227.635 80.867 L 225.470 78.800 173.635 78.845 C 144.397 78.870,120.928 79.048,119.800 79.254 M89.200 166.803 C 88.790 167.070,89.235 167.114,90.600 166.941 C 91.700 166.801,92.675 166.623,92.767 166.544 C 93.164 166.201,89.741 166.450,89.200 166.803 M110.263 190.700 C 110.162 190.865,110.683 191.013,111.420 191.029 C 112.157 191.045,112.668 190.910,112.556 190.729 C 112.302 190.317,110.512 190.295,110.263 190.700 M131.726 190.714 C 131.465 190.880,131.977 191.034,132.869 191.057 C 133.911 191.085,134.292 190.978,133.942 190.756 C 133.273 190.332,132.354 190.314,131.726 190.714 M149.862 190.700 C 149.760 190.865,150.272 191.000,151.000 191.000 C 151.728 191.000,152.240 190.865,152.138 190.700 C 152.036 190.535,151.524 190.400,151.000 190.400 C 150.476 190.400,149.964 190.535,149.862 190.700 M170.952 191.164 C 169.864 191.827,168.503 194.236,168.958 194.692 C 169.047 194.781,169.336 194.200,169.599 193.402 C 170.283 191.330,172.161 190.449,173.936 191.367 C 174.631 191.726,175.200 191.931,175.200 191.821 C 175.200 191.579,172.972 190.399,172.520 190.401 C 172.344 190.402,171.639 190.745,170.952 191.164 M189.323 190.715 C 189.061 190.882,189.543 191.018,190.400 191.018 C 191.257 191.018,191.739 190.882,191.477 190.715 C 191.214 190.549,190.730 190.412,190.400 190.412 C 190.070 190.412,189.586 190.549,189.323 190.715 M113.728 191.856 C 113.908 192.127,114.208 192.855,114.393 193.474 C 114.667 194.387,114.738 194.438,114.766 193.744 C 114.785 193.274,114.485 192.545,114.100 192.125 C 113.715 191.706,113.547 191.584,113.728 191.856 M148.223 192.089 C 147.535 193.071,147.409 195.079,147.979 195.979 C 148.217 196.356,148.267 195.976,148.121 194.888 C 147.962 193.704,148.089 192.923,148.558 192.208 C 149.372 190.965,149.082 190.862,148.223 192.089 M186.667 192.500 C 186.131 193.215,185.576 194.250,185.432 194.800 C 185.286 195.362,185.529 195.100,185.988 194.200 C 186.438 193.320,187.184 192.285,187.647 191.900 C 188.110 191.515,188.298 191.200,188.065 191.200 C 187.831 191.200,187.202 191.785,186.667 192.500 M193.673 192.177 C 194.044 192.630,194.628 193.540,194.971 194.200 C 195.314 194.860,195.596 195.115,195.598 194.767 C 195.599 194.418,195.015 193.508,194.300 192.743 C 193.585 191.979,193.303 191.724,193.673 192.177 M175.400 194.000 C 175.400 194.838,175.535 195.440,175.700 195.338 C 175.865 195.236,176.000 194.634,176.000 194.000 C 176.000 193.366,175.865 192.764,175.700 192.662 C 175.535 192.560,175.400 193.162,175.400 194.000 M107.849 193.815 C 107.712 194.173,107.638 199.176,107.685 204.933 L 107.769 215.400 107.985 204.400 C 108.216 192.570,108.220 192.850,107.849 193.815 M114.970 203.200 C 114.970 207.930,115.028 209.865,115.098 207.500 C 115.169 205.135,115.169 201.265,115.098 198.900 C 115.028 196.535,114.970 198.470,114.970 203.200 M183.450 199.591 C 182.547 201.847,182.687 202.183,183.637 200.042 C 184.066 199.075,184.345 198.212,184.258 198.125 C 184.171 198.038,183.808 198.698,183.450 199.591 M132.289 198.644 C 132.130 198.803,132.003 199.218,132.006 199.567 C 132.011 200.114,132.063 200.120,132.386 199.610 C 132.690 199.128,132.831 199.201,133.154 200.010 C 133.375 200.564,133.560 200.726,133.575 200.376 C 133.608 199.555,132.658 198.275,132.289 198.644 M198.839 203.700 C 199.715 205.923,200.302 206.858,199.802 205.235 C 199.325 203.687,198.406 201.600,198.200 201.600 C 198.097 201.600,198.384 202.545,198.839 203.700 M165.800 203.200 C 165.650 203.673,165.617 204.150,165.727 204.260 C 165.837 204.370,166.050 204.073,166.200 203.600 C 166.350 203.127,166.383 202.650,166.273 202.540 C 166.163 202.430,165.950 202.727,165.800 203.200 M129.877 205.477 C 129.500 206.493,129.258 207.391,129.338 207.472 C 129.419 207.552,129.800 206.793,130.185 205.785 C 130.570 204.776,130.812 203.879,130.723 203.790 C 130.635 203.701,130.254 204.460,129.877 205.477 M136.250 208.400 C 136.383 208.950,136.516 209.580,136.546 209.800 C 136.579 210.042,135.103 210.200,132.800 210.200 L 129.000 210.200 129.088 209.000 C 129.161 207.995,129.117 207.930,128.816 208.600 C 127.881 210.681,128.085 210.800,132.576 210.800 C 137.188 210.800,137.494 210.642,136.614 208.722 C 136.194 207.804,136.082 207.706,136.250 208.400 M186.187 209.240 C 185.754 210.604,186.455 210.837,190.631 210.715 C 193.809 210.623,194.599 210.482,194.634 210.000 C 194.661 209.626,194.613 209.593,194.506 209.914 C 194.154 210.976,186.581 210.381,186.695 209.300 C 186.815 208.167,186.538 208.135,186.187 209.240 M200.846 208.600 C 200.853 208.820,201.206 209.720,201.629 210.600 C 202.052 211.480,202.286 211.750,202.149 211.200 C 201.867 210.067,200.825 207.988,200.846 208.600 M152.816 209.054 C 152.807 209.304,153.063 210.114,153.384 210.854 C 153.706 211.594,153.976 211.996,153.984 211.746 C 153.993 211.496,153.737 210.686,153.416 209.946 C 153.094 209.206,152.824 208.804,152.816 209.054 M95.462 210.300 C 95.360 210.465,95.872 210.600,96.600 210.600 C 97.328 210.600,97.840 210.465,97.738 210.300 C 97.636 210.135,97.124 210.000,96.600 210.000 C 96.076 210.000,95.564 210.135,95.462 210.300 M114.238 215.143 C 114.060 216.723,113.584 218.100,112.776 219.373 C 112.118 220.411,111.762 221.147,111.985 221.009 C 113.343 220.170,115.787 212.800,114.707 212.800 C 114.595 212.800,114.384 213.854,114.238 215.143 M119.650 215.050 C 119.173 216.296,118.850 217.384,118.933 217.466 C 119.015 217.549,119.473 216.596,119.950 215.350 C 120.427 214.104,120.750 213.016,120.667 212.934 C 120.585 212.851,120.127 213.804,119.650 215.050 M154.550 213.800 C 154.820 215.001,156.233 218.766,156.522 219.056 C 156.661 219.195,156.621 218.789,156.433 218.154 C 155.973 216.605,154.322 212.787,154.550 213.800 M100.002 215.258 C 99.990 218.577,105.624 219.371,107.259 216.279 C 107.569 215.694,107.315 215.834,106.502 216.700 C 104.500 218.828,101.973 218.441,100.620 215.800 C 100.267 215.111,100.004 214.880,100.002 215.258 M126.261 215.900 C 126.159 216.065,128.864 216.146,132.272 216.080 C 136.637 215.996,138.640 216.101,139.044 216.437 C 139.510 216.824,139.571 216.790,139.366 216.257 C 139.098 215.558,126.683 215.220,126.261 215.900 M183.738 216.217 C 183.608 216.557,183.613 216.947,183.751 217.084 C 183.888 217.221,184.000 217.033,184.000 216.667 C 184.000 215.514,196.642 215.673,197.010 216.830 C 197.154 217.287,197.361 217.572,197.469 217.464 C 197.577 217.357,197.464 216.893,197.218 216.434 C 196.621 215.319,184.160 215.118,183.738 216.217 M182.000 220.610 C 181.230 222.218,180.802 223.366,181.048 223.161 C 181.547 222.746,183.750 218.011,183.536 217.813 C 183.461 217.744,182.770 219.002,182.000 220.610 M94.425 218.600 C 94.425 218.820,94.690 219.349,95.013 219.776 C 95.336 220.204,95.600 220.373,95.600 220.153 C 95.600 219.933,95.336 219.404,95.013 218.976 C 94.690 218.549,94.425 218.380,94.425 218.600 M175.867 218.667 C 175.152 219.381,175.632 221.890,176.663 222.830 L 177.727 223.800 176.807 222.525 C 176.098 221.543,175.940 220.924,176.118 219.825 C 176.357 218.358,176.324 218.209,175.867 218.667 M204.981 220.367 C 204.991 221.221,205.135 221.838,205.300 221.737 C 205.691 221.497,205.675 219.938,205.275 219.307 C 205.094 219.023,204.970 219.473,204.981 220.367 M147.455 220.105 C 147.590 220.741,147.476 221.467,147.188 221.815 C 146.912 222.147,146.771 222.505,146.876 222.609 C 147.407 223.141,148.108 220.772,147.675 219.907 C 147.245 219.048,147.234 219.058,147.455 220.105 M156.827 220.000 C 156.826 220.330,157.090 220.949,157.413 221.376 C 158.160 222.364,158.152 221.715,157.400 220.400 C 157.068 219.820,156.828 219.652,156.827 220.000 M165.246 221.624 C 164.748 222.297,163.949 223.006,163.470 223.198 C 162.849 223.449,162.788 223.557,163.259 223.575 C 163.818 223.596,166.400 221.140,166.400 220.586 C 166.400 220.191,166.118 220.444,165.246 221.624 M110.056 222.034 C 109.536 222.455,109.266 222.794,109.456 222.787 C 109.944 222.769,111.376 221.643,111.171 221.439 C 111.077 221.345,110.575 221.613,110.056 222.034 M123.260 222.405 C 122.774 223.062,122.541 223.600,122.742 223.600 C 123.159 223.600,124.549 221.615,124.304 221.370 C 124.215 221.282,123.746 221.748,123.260 222.405 M141.200 221.464 C 141.200 221.682,141.695 222.297,142.300 222.830 L 143.400 223.800 142.400 222.600 C 141.850 221.940,141.355 221.325,141.300 221.233 C 141.245 221.142,141.200 221.245,141.200 221.464 " stroke="none" fill="#d9a17a" fill-rule="evenodd"></path><path id="path4" d="M118.400 79.212 C 117.981 79.491,118.342 79.533,119.600 79.350 C 121.841 79.025,122.160 78.798,120.367 78.806 C 119.615 78.809,118.730 78.992,118.400 79.212 M231.600 84.679 C 234.350 87.342,236.654 89.470,236.720 89.407 C 236.886 89.250,228.631 81.235,227.508 80.462 C 227.009 80.118,228.850 82.016,231.600 84.679 M112.174 82.907 L 110.600 84.599 112.196 83.199 C 113.073 82.430,113.868 81.755,113.962 81.700 C 114.056 81.645,114.047 81.513,113.941 81.407 C 113.835 81.301,113.040 81.976,112.174 82.907 M107.999 128.400 L 107.800 165.400 99.085 165.648 C 87.709 165.972,87.481 166.400,98.684 166.400 C 105.627 166.400,107.598 166.284,107.953 165.856 C 108.282 165.460,108.376 155.332,108.301 128.356 L 108.198 91.400 107.999 128.400 M245.486 97.999 C 246.633 99.189,247.631 100.080,247.703 99.981 C 247.776 99.881,246.837 98.908,245.618 97.818 L 243.400 95.836 245.486 97.999 M252.455 104.716 C 254.955 107.143,257.060 109.070,257.133 108.998 C 257.303 108.832,248.865 100.649,248.320 100.452 C 248.095 100.370,249.956 102.289,252.455 104.716 M269.977 121.460 C 274.060 125.453,277.466 128.656,277.547 128.579 C 277.696 128.438,276.103 126.854,270.753 121.824 C 263.334 114.850,263.113 114.746,269.977 121.460 M284.380 135.287 C 286.679 137.645,288.644 139.490,288.746 139.387 C 288.849 139.284,288.853 139.155,288.754 139.100 C 288.655 139.045,286.690 137.200,284.387 135.000 L 280.200 131.000 284.380 135.287 M289.200 139.755 C 289.200 139.908,289.560 140.420,290.000 140.892 C 290.440 141.364,290.800 141.565,290.800 141.337 C 290.800 141.110,290.440 140.598,290.000 140.200 C 289.560 139.802,289.200 139.601,289.200 139.755 M85.745 167.917 C 84.267 168.721,81.887 170.747,81.416 171.600 C 81.233 171.930,81.875 171.455,82.842 170.543 C 83.809 169.632,85.185 168.593,85.900 168.233 C 86.615 167.874,87.200 167.494,87.200 167.390 C 87.200 167.130,87.169 167.142,85.745 167.917 M77.788 205.600 C 77.788 219.130,77.838 224.665,77.900 217.900 C 77.961 211.135,77.961 200.065,77.900 193.300 C 77.838 186.535,77.788 192.070,77.788 205.600 M110.000 191.218 C 109.562 191.515,109.724 191.552,110.600 191.356 C 112.071 191.027,112.390 190.798,111.367 190.806 C 110.945 190.809,110.330 190.995,110.000 191.218 M149.738 191.106 C 149.484 191.268,150.052 191.400,151.000 191.400 C 151.948 191.400,152.516 191.268,152.262 191.106 C 152.008 190.944,151.440 190.812,151.000 190.812 C 150.560 190.812,149.992 190.944,149.738 191.106 M192.000 191.482 C 192.330 191.603,193.050 192.084,193.600 192.551 L 194.600 193.400 193.630 192.300 C 193.097 191.695,192.377 191.214,192.030 191.232 C 191.491 191.259,191.486 191.295,192.000 191.482 M108.173 203.800 C 108.173 209.080,108.230 211.185,108.299 208.477 C 108.368 205.769,108.368 201.449,108.299 198.877 C 108.229 196.305,108.172 198.520,108.173 203.800 M114.572 203.600 C 114.572 208.770,114.629 210.885,114.699 208.300 C 114.768 205.715,114.768 201.485,114.699 198.900 C 114.629 196.315,114.572 198.430,114.572 203.600 M180.577 222.838 C 180.428 223.078,179.623 223.210,178.787 223.130 C 177.951 223.050,177.353 223.124,177.457 223.293 C 177.794 223.837,180.286 223.619,180.800 223.000 C 181.074 222.670,181.197 222.400,181.073 222.400 C 180.949 222.400,180.726 222.597,180.577 222.838 M102.100 223.491 C 102.925 223.578,104.275 223.578,105.100 223.491 C 105.925 223.405,105.250 223.334,103.600 223.334 C 101.950 223.334,101.275 223.405,102.100 223.491 M120.500 223.476 C 120.885 223.576,121.515 223.576,121.900 223.476 C 122.285 223.375,121.970 223.293,121.200 223.293 C 120.430 223.293,120.115 223.375,120.500 223.476 M143.700 223.476 C 144.085 223.576,144.715 223.576,145.100 223.476 C 145.485 223.375,145.170 223.293,144.400 223.293 C 143.630 223.293,143.315 223.375,143.700 223.476 M160.900 223.476 C 161.285 223.576,161.915 223.576,162.300 223.476 C 162.685 223.375,162.370 223.293,161.600 223.293 C 160.830 223.293,160.515 223.375,160.900 223.476 M78.800 235.353 C 78.800 235.782,79.990 238.000,80.221 238.000 C 80.331 238.000,80.123 237.415,79.759 236.700 C 79.017 235.240,78.800 234.936,78.800 235.353 M81.230 239.482 C 82.700 241.122,82.937 241.352,83.802 241.979 C 84.241 242.297,83.707 241.622,82.615 240.479 C 80.556 238.323,79.527 237.582,81.230 239.482 M91.337 245.294 C 91.592 245.456,95.444 245.591,99.898 245.594 L 107.995 245.600 108.100 277.700 L 108.205 309.800 108.302 277.687 C 108.380 252.285,108.296 245.539,107.900 245.405 C 107.002 245.100,90.861 244.992,91.337 245.294 M290.454 310.467 C 290.425 310.834,290.284 311.464,290.141 311.867 C 289.941 312.433,289.995 312.496,290.375 312.146 C 290.646 311.897,290.787 311.267,290.688 310.746 C 290.590 310.226,290.484 310.100,290.454 310.467 M110.319 316.200 C 111.091 317.679,115.209 321.200,116.167 321.200 C 116.381 321.200,115.749 320.688,114.763 320.063 C 113.776 319.437,112.279 318.132,111.436 317.163 C 110.592 316.193,110.090 315.760,110.319 316.200 M286.400 318.113 C 285.410 319.044,284.150 320.125,283.600 320.515 L 282.600 321.223 283.600 320.746 C 285.025 320.066,287.123 318.354,287.822 317.300 C 288.640 316.066,288.474 316.161,286.400 318.113 M117.200 321.600 C 117.530 321.813,118.070 321.988,118.400 321.988 C 118.933 321.988,118.933 321.945,118.400 321.600 C 118.070 321.387,117.530 321.212,117.200 321.212 C 116.667 321.212,116.667 321.255,117.200 321.600 M159.932 322.300 C 181.784 322.357,217.424 322.357,239.132 322.300 C 260.839 322.243,242.960 322.196,199.400 322.196 C 155.840 322.196,138.079 322.243,159.932 322.300 " stroke="none" fill="#dcbc95" fill-rule="evenodd"></path></g></svg>
