<svg id="svg" version="1.1" xmlns="http://www.w3.org/2000/svg" xmlns:xlink="http://www.w3.org/1999/xlink"  viewBox="0 -10 512 512"><g id="svgg"><path id="path0" d="M166.288 48.601 C 156.093 51.184,150.800 58.655,150.800 70.462 C 150.800 77.560,151.407 78.932,155.020 80.000 C 159.671 81.375,162.400 77.486,162.400 69.484 C 162.400 65.162,162.827 63.991,165.183 61.863 C 170.704 56.875,180.000 61.060,180.000 68.533 C 180.000 73.387,186.139 75.861,189.600 72.400 C 191.189 70.811,191.200 70.779,191.200 67.728 C 191.200 55.283,178.476 45.514,166.288 48.601 M225.000 48.440 C 215.510 50.574,208.800 58.563,208.800 67.728 C 208.800 76.569,218.699 76.516,220.236 67.667 C 221.380 61.077,227.560 57.713,233.200 60.610 C 236.653 62.384,237.568 64.415,237.957 71.166 C 238.320 77.466,238.655 78.267,241.480 79.596 C 243.870 80.719,246.300 80.133,248.052 78.009 L 249.200 76.618 249.196 70.609 C 249.193 66.499,249.007 63.992,248.608 62.676 C 245.596 52.751,234.795 46.238,225.000 48.440 M190.200 178.874 C 179.721 180.780,173.629 182.906,164.362 187.889 C 162.266 189.016,156.717 192.628,155.254 193.818 C 154.894 194.111,153.520 195.210,152.200 196.260 C 148.048 199.564,142.792 204.629,139.602 208.401 C 138.394 209.830,137.298 211.090,137.167 211.200 C 136.165 212.043,128.379 222.989,126.869 225.676 C 126.433 226.454,125.833 227.520,125.538 228.045 C 125.242 228.570,124.910 229.090,124.800 229.200 C 122.780 231.220,114.606 249.897,111.583 259.400 C 110.883 261.600,110.151 263.713,109.955 264.095 C 109.760 264.477,109.600 265.231,109.600 265.771 C 109.600 266.311,109.440 266.852,109.244 266.973 C 109.049 267.094,108.792 267.779,108.673 268.496 C 108.555 269.213,108.254 270.610,108.004 271.600 C 107.755 272.590,107.460 273.940,107.348 274.600 C 107.237 275.260,106.992 276.160,106.803 276.600 C 106.615 277.040,106.358 278.120,106.232 279.000 C 106.107 279.880,105.821 281.500,105.598 282.600 C 104.691 287.075,104.168 290.769,103.107 300.200 C 102.194 308.318,102.417 333.432,103.400 333.260 C 117.224 330.846,131.342 339.015,142.699 356.000 C 145.370 359.994,148.467 365.762,149.572 368.800 C 149.852 369.570,150.218 370.560,150.385 371.000 C 151.381 373.620,151.651 375.165,151.660 378.290 C 151.671 382.109,152.016 383.200,153.214 383.200 C 153.646 383.200,154.000 383.355,154.000 383.545 C 154.000 383.734,154.448 383.803,154.995 383.699 C 155.668 383.570,156.070 383.717,156.238 384.154 C 156.374 384.509,156.916 384.800,157.443 384.800 C 157.969 384.800,158.400 384.994,158.400 385.232 C 158.400 385.503,158.845 385.566,159.600 385.400 C 160.458 385.212,160.863 385.300,161.020 385.709 C 161.163 386.081,161.602 386.212,162.272 386.084 C 162.968 385.951,163.425 386.102,163.674 386.546 C 163.929 387.003,164.341 387.130,165.017 386.960 C 165.659 386.799,166.065 386.904,166.204 387.267 C 166.350 387.647,166.913 387.772,168.008 387.668 C 169.270 387.547,169.600 387.650,169.600 388.163 C 169.600 388.693,169.887 388.763,171.193 388.555 C 172.400 388.362,172.842 388.443,173.013 388.889 C 173.185 389.337,173.716 389.433,175.220 389.289 C 176.731 389.143,177.200 389.229,177.200 389.652 C 177.200 390.065,177.836 390.205,179.700 390.203 C 181.257 390.201,182.171 390.361,182.124 390.628 C 182.074 390.912,183.033 390.999,184.976 390.888 C 186.846 390.781,188.002 390.880,188.175 391.160 C 188.568 391.795,212.000 391.778,212.000 391.143 C 212.000 390.820,212.933 390.750,215.172 390.903 C 217.795 391.083,218.386 391.014,218.581 390.505 C 218.770 390.013,219.262 389.936,221.031 390.118 C 222.803 390.301,223.293 390.224,223.482 389.730 C 223.671 389.239,224.115 389.165,225.660 389.370 C 227.307 389.589,227.600 389.527,227.600 388.961 C 227.600 388.414,227.888 388.333,229.200 388.509 C 230.466 388.679,230.800 388.595,230.800 388.109 C 230.800 387.623,231.134 387.540,232.400 387.709 C 233.657 387.878,234.000 387.794,234.000 387.317 C 234.000 386.841,234.300 386.767,235.400 386.974 C 236.546 387.189,236.800 387.115,236.800 386.568 C 236.800 386.044,237.050 385.950,237.964 386.133 C 238.804 386.301,239.194 386.192,239.368 385.740 C 239.536 385.300,239.902 385.189,240.604 385.365 C 241.361 385.555,241.600 385.458,241.600 384.961 C 241.600 384.482,241.863 384.357,242.580 384.494 C 243.207 384.614,243.641 384.470,243.785 384.095 C 243.929 383.721,244.363 383.576,244.985 383.695 C 245.574 383.808,246.041 383.670,246.165 383.347 C 246.283 383.041,246.649 382.921,247.025 383.065 C 248.066 383.464,248.364 382.473,248.365 378.606 C 248.370 365.230,264.306 342.958,279.137 335.600 C 283.459 333.455,287.179 332.706,292.645 332.879 L 297.490 333.033 297.754 325.616 C 298.231 312.266,296.886 294.892,294.418 282.500 C 294.188 281.345,293.831 279.545,293.625 278.500 C 293.419 277.455,293.067 275.880,292.843 275.000 C 291.843 271.065,291.528 269.715,291.327 268.496 C 291.208 267.779,290.951 267.094,290.756 266.973 C 290.560 266.852,290.400 266.311,290.400 265.771 C 290.400 265.231,290.236 264.477,290.036 264.095 C 289.836 263.713,289.178 261.780,288.575 259.800 C 285.374 249.296,278.026 232.884,273.953 227.138 C 273.539 226.554,273.200 225.963,273.200 225.825 C 273.200 225.615,271.552 223.144,266.800 216.226 C 256.650 201.451,238.778 187.542,223.200 182.294 C 217.413 180.344,216.016 179.994,209.376 178.826 C 206.501 178.321,193.057 178.354,190.200 178.874 " stroke="none" fill="#fbf3eb" fill-rule="evenodd"></path><path id="path1" d="M195.200 86.608 C 192.890 86.898,190.550 87.250,190.000 87.390 C 187.245 88.089,185.726 88.521,185.000 88.808 C 184.560 88.983,183.390 89.427,182.400 89.796 C 181.410 90.164,179.970 90.739,179.200 91.074 C 177.144 91.966,174.853 92.905,173.000 93.613 C 172.560 93.781,171.570 94.193,170.800 94.528 C 170.030 94.863,168.410 95.526,167.200 96.000 C 156.355 100.254,155.330 108.571,164.555 117.472 C 166.780 119.618,173.820 126.442,180.200 132.636 C 199.506 151.377,200.448 151.601,212.109 140.200 C 214.810 137.560,222.028 130.540,228.149 124.600 C 240.978 112.152,241.388 111.607,241.395 106.976 C 241.405 100.822,239.744 98.945,231.000 95.222 C 230.560 95.035,229.570 94.607,228.800 94.272 C 228.030 93.937,226.410 93.274,225.200 92.800 C 223.990 92.326,222.370 91.663,221.600 91.328 C 219.699 90.500,218.844 90.165,217.200 89.600 C 216.430 89.336,215.440 88.978,215.000 88.805 C 212.765 87.928,207.888 86.873,204.800 86.598 C 203.370 86.471,201.570 86.302,200.800 86.223 C 200.030 86.144,197.510 86.317,195.200 86.608 M104.619 333.251 C 102.471 333.754,97.955 335.403,96.019 336.390 C 95.146 336.836,93.885 337.200,93.216 337.200 C 92.547 337.200,92.000 337.380,92.000 337.600 C 92.000 337.820,91.680 338.000,91.288 338.000 C 90.897 338.000,90.317 338.360,90.000 338.800 C 89.683 339.240,89.190 339.600,88.904 339.600 C 88.043 339.600,78.449 348.990,77.578 350.685 C 77.263 351.298,76.733 352.070,76.400 352.400 C 76.067 352.730,75.540 353.495,75.230 354.100 C 74.919 354.705,74.515 355.200,74.332 355.200 C 74.150 355.200,74.000 355.436,74.000 355.725 C 74.000 356.013,73.640 356.636,73.200 357.108 C 72.760 357.580,72.400 358.244,72.400 358.583 C 72.400 358.922,72.250 359.200,72.068 359.200 C 71.885 359.200,71.480 359.695,71.168 360.300 C 70.856 360.905,70.510 361.490,70.398 361.600 C 69.848 362.142,67.600 367.007,67.600 367.656 C 67.600 368.065,67.420 368.400,67.200 368.400 C 66.980 368.400,66.800 368.839,66.800 369.376 C 66.800 369.913,66.620 370.464,66.400 370.600 C 66.180 370.736,66.000 371.362,66.000 371.990 C 66.000 372.619,65.810 373.197,65.577 373.274 C 64.987 373.471,64.972 382.924,65.562 383.121 C 65.803 383.201,66.000 383.612,66.000 384.033 C 66.000 384.455,66.180 384.800,66.400 384.800 C 66.620 384.800,66.800 385.056,66.800 385.369 C 66.800 386.200,72.268 391.600,73.109 391.600 C 73.502 391.600,74.083 391.960,74.400 392.400 C 74.717 392.840,75.282 393.200,75.655 393.200 C 76.028 393.200,76.393 393.335,76.467 393.500 C 76.540 393.665,77.500 394.225,78.600 394.744 C 79.700 395.263,80.913 395.848,81.295 396.044 C 81.677 396.240,82.262 396.400,82.595 396.400 C 82.928 396.400,83.200 396.580,83.200 396.800 C 83.200 397.020,83.729 397.200,84.376 397.200 C 85.023 397.200,85.664 397.380,85.800 397.600 C 85.936 397.820,86.667 398.000,87.424 398.000 C 88.181 398.000,88.800 398.180,88.800 398.400 C 88.800 398.620,89.484 398.800,90.320 398.800 C 91.156 398.800,92.065 399.025,92.340 399.300 C 92.723 399.683,96.583 399.800,108.887 399.800 C 121.369 399.800,124.970 399.689,125.100 399.300 C 125.196 399.013,125.936 398.800,126.833 398.800 C 127.695 398.800,128.400 398.620,128.400 398.400 C 128.400 398.180,129.120 398.000,130.000 398.000 C 130.880 398.000,131.600 397.820,131.600 397.600 C 131.600 397.380,132.140 397.200,132.800 397.200 C 133.460 397.200,134.000 397.020,134.000 396.800 C 134.000 396.580,134.439 396.400,134.976 396.400 C 135.513 396.400,136.064 396.220,136.200 396.000 C 136.336 395.780,136.797 395.600,137.224 395.600 C 137.651 395.600,138.000 395.420,138.000 395.200 C 138.000 394.980,138.360 394.800,138.800 394.800 C 139.240 394.800,139.600 394.620,139.600 394.400 C 139.600 394.180,139.960 394.000,140.400 394.000 C 140.840 394.000,141.200 393.820,141.200 393.600 C 141.200 393.380,141.430 393.200,141.712 393.200 C 141.993 393.200,142.483 392.840,142.800 392.400 C 143.117 391.960,143.688 391.600,144.069 391.600 C 144.913 391.600,150.400 386.272,150.400 385.453 C 150.400 385.130,150.590 384.803,150.823 384.726 C 152.627 384.124,151.449 373.274,148.976 367.710 C 138.905 345.055,119.286 329.814,104.619 333.251 M287.400 333.200 C 286.960 333.389,286.026 333.556,285.324 333.572 C 284.622 333.587,283.936 333.780,283.800 334.000 C 283.664 334.220,283.149 334.400,282.656 334.400 C 282.163 334.400,281.589 334.551,281.380 334.736 C 281.171 334.921,280.370 335.314,279.600 335.611 C 271.115 338.880,258.078 352.988,252.405 365.041 C 248.941 372.400,248.204 375.121,248.551 379.280 C 248.684 380.886,248.789 382.785,248.784 383.500 C 248.779 384.215,248.961 384.800,249.187 384.800 C 249.414 384.800,249.600 385.056,249.600 385.369 C 249.600 386.200,255.068 391.600,255.909 391.600 C 256.302 391.600,256.883 391.960,257.200 392.400 C 257.517 392.840,258.082 393.200,258.455 393.200 C 258.828 393.200,259.193 393.335,259.267 393.500 C 259.340 393.665,260.300 394.225,261.400 394.744 C 262.500 395.263,263.713 395.848,264.095 396.044 C 264.477 396.240,265.062 396.400,265.395 396.400 C 265.728 396.400,266.000 396.580,266.000 396.800 C 266.000 397.020,266.529 397.200,267.176 397.200 C 267.823 397.200,268.464 397.380,268.600 397.600 C 268.736 397.820,269.456 398.000,270.200 398.000 C 270.944 398.000,271.664 398.180,271.800 398.400 C 271.936 398.620,272.631 398.800,273.344 398.800 C 274.057 398.800,274.865 399.025,275.140 399.300 C 275.523 399.683,279.383 399.800,291.687 399.800 C 304.169 399.800,307.770 399.689,307.900 399.300 C 307.996 399.013,308.736 398.800,309.633 398.800 C 310.495 398.800,311.200 398.620,311.200 398.400 C 311.200 398.180,311.920 398.000,312.800 398.000 C 313.680 398.000,314.400 397.820,314.400 397.600 C 314.400 397.380,314.940 397.200,315.600 397.200 C 316.260 397.200,316.800 397.020,316.800 396.800 C 316.800 396.580,317.149 396.400,317.576 396.400 C 318.003 396.400,318.464 396.220,318.600 396.000 C 318.736 395.780,319.287 395.600,319.824 395.600 C 320.361 395.600,320.800 395.420,320.800 395.200 C 320.800 394.980,321.160 394.800,321.600 394.800 C 322.040 394.800,322.400 394.620,322.400 394.400 C 322.400 394.180,322.760 394.000,323.200 394.000 C 323.640 394.000,324.000 393.820,324.000 393.600 C 324.000 393.380,324.230 393.200,324.512 393.200 C 324.793 393.200,325.283 392.840,325.600 392.400 C 325.917 391.960,326.488 391.600,326.869 391.600 C 327.733 391.600,333.200 386.263,333.200 385.419 C 333.200 385.079,333.380 384.800,333.600 384.800 C 333.820 384.800,334.000 384.440,334.000 384.000 C 334.000 383.560,334.180 383.200,334.400 383.200 C 334.620 383.200,334.800 382.336,334.800 381.280 C 334.800 380.224,335.025 379.122,335.300 378.830 C 335.700 378.406,335.700 378.263,335.300 378.117 C 334.977 377.998,334.800 377.096,334.800 375.567 C 334.800 374.256,334.622 373.200,334.400 373.200 C 334.180 373.200,334.000 372.581,334.000 371.824 C 334.000 371.067,333.820 370.336,333.600 370.200 C 333.380 370.064,333.200 369.603,333.200 369.176 C 333.200 368.749,333.020 368.400,332.800 368.400 C 332.580 368.400,332.400 367.961,332.400 367.424 C 332.400 366.887,332.220 366.336,332.000 366.200 C 331.780 366.064,331.600 365.603,331.600 365.176 C 331.600 364.749,331.420 364.400,331.200 364.400 C 330.980 364.400,330.800 364.040,330.800 363.600 C 330.800 363.160,330.620 362.800,330.400 362.800 C 330.180 362.800,330.000 362.530,330.000 362.200 C 330.000 361.870,329.820 361.600,329.600 361.600 C 329.380 361.600,329.200 361.280,329.200 360.888 C 329.200 360.497,328.840 359.917,328.400 359.600 C 327.960 359.283,327.600 358.703,327.600 358.312 C 327.600 357.920,327.420 357.600,327.200 357.600 C 326.980 357.600,326.800 357.280,326.800 356.888 C 326.800 356.497,326.440 355.917,326.000 355.600 C 325.560 355.283,325.197 354.748,325.194 354.412 C 325.190 354.075,324.650 353.191,323.994 352.446 C 323.337 351.701,322.800 350.956,322.800 350.790 C 322.800 350.505,318.697 346.353,313.818 341.700 C 312.607 340.545,311.382 339.600,311.096 339.600 C 310.810 339.600,310.317 339.240,310.000 338.800 C 309.683 338.360,309.193 338.000,308.912 338.000 C 308.630 338.000,308.400 337.820,308.400 337.600 C 308.400 337.380,307.848 337.200,307.174 337.200 C 306.500 337.200,305.015 336.775,303.874 336.255 C 302.733 335.735,301.350 335.175,300.800 335.011 C 300.250 334.846,299.260 334.484,298.600 334.206 C 295.380 332.850,289.453 332.318,287.400 333.200 " stroke="none" fill="#fb9709" fill-rule="evenodd"></path><path id="path2" d="M186.800 0.274 C 185.590 0.369,184.429 0.616,184.220 0.823 C 184.011 1.030,183.257 1.200,182.544 1.200 C 181.831 1.200,181.136 1.380,181.000 1.600 C 180.864 1.820,180.133 2.000,179.376 2.000 C 178.619 2.000,178.000 2.180,178.000 2.400 C 178.000 2.620,177.460 2.800,176.800 2.800 C 176.140 2.800,175.600 2.980,175.600 3.200 C 175.600 3.420,175.060 3.600,174.400 3.600 C 173.740 3.600,173.200 3.780,173.200 4.000 C 173.200 4.220,172.840 4.400,172.400 4.400 C 171.960 4.400,171.600 4.580,171.600 4.800 C 171.600 5.020,171.161 5.200,170.624 5.200 C 170.087 5.200,169.536 5.380,169.400 5.600 C 169.264 5.820,168.803 6.000,168.376 6.000 C 167.949 6.000,167.600 6.180,167.600 6.400 C 167.600 6.620,167.240 6.800,166.800 6.800 C 166.360 6.800,166.000 6.980,166.000 7.200 C 166.000 7.420,165.640 7.600,165.200 7.600 C 164.760 7.600,164.400 7.780,164.400 8.000 C 164.400 8.220,164.040 8.400,163.600 8.400 C 163.160 8.400,162.800 8.580,162.800 8.800 C 162.800 9.020,162.519 9.200,162.176 9.200 C 161.833 9.200,161.650 9.358,161.770 9.551 C 161.889 9.745,161.495 10.002,160.894 10.124 C 160.292 10.246,159.403 10.717,158.917 11.173 C 158.431 11.628,157.891 12.000,157.717 12.000 C 157.543 12.001,156.877 12.451,156.238 13.000 C 155.599 13.550,154.930 14.000,154.751 14.000 C 154.573 14.000,153.797 14.630,153.027 15.400 C 152.257 16.170,151.452 16.800,151.238 16.800 C 150.608 16.800,142.000 25.665,142.000 26.314 C 142.000 26.502,141.595 27.023,141.100 27.471 C 139.837 28.614,138.800 29.938,138.800 30.405 C 138.800 30.622,138.650 30.800,138.468 30.800 C 138.285 30.800,137.881 31.295,137.570 31.900 C 137.260 32.505,136.689 33.291,136.303 33.647 C 135.916 34.003,135.600 34.573,135.600 34.914 C 135.600 35.254,135.465 35.593,135.300 35.667 C 134.924 35.834,133.625 37.964,133.329 38.900 C 133.207 39.285,132.948 39.600,132.753 39.600 C 132.559 39.600,132.400 39.960,132.400 40.400 C 132.400 40.840,132.220 41.200,132.000 41.200 C 131.780 41.200,131.600 41.560,131.600 42.000 C 131.600 42.440,131.420 42.800,131.200 42.800 C 130.980 42.800,130.800 43.072,130.800 43.405 C 130.800 43.738,130.620 44.368,130.400 44.805 C 130.180 45.242,129.820 45.958,129.600 46.395 C 129.380 46.832,129.200 47.428,129.200 47.719 C 129.200 48.011,128.843 48.988,128.408 49.890 C 127.972 50.792,127.497 52.536,127.353 53.765 C 127.208 54.994,126.935 56.000,126.745 56.000 C 126.555 56.000,126.400 56.799,126.400 57.776 C 126.400 58.753,126.220 59.664,126.000 59.800 C 125.780 59.936,125.600 61.027,125.600 62.224 C 125.600 63.421,125.420 64.400,125.200 64.400 C 124.944 64.400,124.800 68.059,124.800 74.576 C 124.800 80.929,124.650 84.846,124.400 85.000 C 124.180 85.136,124.000 86.767,124.000 88.624 C 124.000 90.608,123.835 92.000,123.600 92.000 C 123.380 92.000,123.200 92.709,123.200 93.576 C 123.200 94.443,123.020 95.264,122.800 95.400 C 122.580 95.536,122.400 96.166,122.400 96.800 C 122.400 97.434,122.220 98.064,122.000 98.200 C 121.780 98.336,121.600 99.077,121.600 99.847 C 121.600 100.679,121.438 101.147,121.200 101.000 C 120.974 100.860,120.800 101.188,120.800 101.753 C 120.800 102.303,120.620 102.864,120.400 103.000 C 120.180 103.136,120.000 103.687,120.000 104.224 C 120.000 104.761,119.820 105.200,119.600 105.200 C 119.380 105.200,119.200 105.650,119.200 106.200 C 119.200 106.750,119.065 107.201,118.900 107.203 C 118.549 107.207,117.600 109.137,117.600 109.846 C 117.600 110.114,117.465 110.393,117.300 110.467 C 116.924 110.634,115.625 112.764,115.329 113.700 C 115.207 114.085,114.948 114.400,114.753 114.400 C 114.559 114.400,114.400 114.720,114.400 115.112 C 114.400 115.503,114.040 116.083,113.600 116.400 C 113.160 116.717,112.800 117.214,112.800 117.505 C 112.800 117.796,112.425 118.431,111.966 118.917 C 111.507 119.403,110.869 120.303,110.547 120.918 C 110.224 121.533,109.070 122.946,107.980 124.058 C 106.891 125.171,106.000 126.333,106.000 126.641 C 106.000 126.948,105.833 127.200,105.629 127.200 C 105.424 127.200,105.019 127.425,104.728 127.700 C 104.437 127.975,103.389 128.850,102.399 129.645 C 101.410 130.440,99.993 131.658,99.251 132.352 C 98.509 133.045,97.384 133.919,96.751 134.293 C 96.118 134.667,95.600 135.114,95.600 135.286 C 95.600 135.459,95.402 135.600,95.160 135.600 C 94.919 135.600,94.217 136.140,93.600 136.800 C 92.983 137.460,92.263 138.000,92.000 138.000 C 91.737 138.000,91.017 138.540,90.400 139.200 C 89.783 139.860,89.031 140.400,88.728 140.400 C 88.425 140.400,87.917 140.760,87.600 141.200 C 87.283 141.640,86.838 142.000,86.612 142.000 C 86.212 142.001,85.783 142.327,82.007 145.495 C 77.347 149.406,61.591 165.781,60.467 167.880 C 60.175 168.428,59.410 169.425,58.767 170.097 C 58.125 170.769,57.600 171.474,57.600 171.663 C 57.600 171.852,57.060 172.572,56.400 173.263 C 55.740 173.954,55.200 174.722,55.200 174.971 C 55.200 175.220,54.840 175.683,54.400 176.000 C 53.960 176.317,53.600 176.807,53.600 177.088 C 53.600 177.370,53.450 177.600,53.268 177.600 C 53.085 177.600,52.681 178.095,52.370 178.700 C 52.060 179.305,51.489 180.091,51.103 180.447 C 50.716 180.803,50.400 181.348,50.400 181.659 C 50.400 181.969,50.040 182.483,49.600 182.800 C 49.160 183.117,48.800 183.697,48.800 184.088 C 48.800 184.480,48.650 184.800,48.468 184.800 C 48.285 184.800,47.880 185.295,47.568 185.900 C 47.256 186.505,46.911 187.090,46.801 187.200 C 46.405 187.594,45.146 189.813,44.929 190.500 C 44.807 190.885,44.548 191.200,44.353 191.200 C 44.159 191.200,44.000 191.547,44.000 191.971 C 44.000 192.396,43.730 193.013,43.400 193.343 C 43.070 193.673,42.800 194.136,42.800 194.371 C 42.800 194.607,42.620 194.800,42.400 194.800 C 42.180 194.800,42.000 195.160,42.000 195.600 C 42.000 196.040,41.820 196.400,41.600 196.400 C 41.380 196.400,41.200 196.760,41.200 197.200 C 41.200 197.640,41.020 198.000,40.800 198.000 C 40.580 198.000,40.400 198.360,40.400 198.800 C 40.400 199.240,40.220 199.600,40.000 199.600 C 39.780 199.600,39.600 199.971,39.600 200.424 C 39.600 200.877,39.420 201.136,39.200 201.000 C 38.980 200.864,38.800 201.033,38.800 201.376 C 38.800 201.719,38.620 202.000,38.400 202.000 C 38.180 202.000,38.000 202.360,38.000 202.800 C 38.000 203.240,37.820 203.600,37.600 203.600 C 37.380 203.600,37.200 203.960,37.200 204.400 C 37.200 204.840,37.020 205.200,36.800 205.200 C 36.580 205.200,36.400 205.661,36.400 206.224 C 36.400 206.804,36.227 207.140,36.000 207.000 C 35.780 206.864,35.600 207.028,35.600 207.364 C 35.600 207.701,35.240 208.617,34.800 209.400 C 34.360 210.183,34.000 211.089,34.000 211.412 C 34.000 211.735,33.820 212.000,33.600 212.000 C 33.380 212.000,33.200 212.360,33.200 212.800 C 33.200 213.240,33.020 213.600,32.800 213.600 C 32.580 213.600,32.400 213.836,32.400 214.125 C 32.400 214.414,32.040 215.395,31.600 216.306 C 31.160 217.216,30.800 218.240,30.800 218.581 C 30.800 218.921,30.620 219.200,30.400 219.200 C 30.180 219.200,30.000 219.560,30.000 220.000 C 30.000 220.440,29.820 220.800,29.600 220.800 C 29.380 220.800,29.200 221.340,29.200 222.000 C 29.200 222.660,29.020 223.200,28.800 223.200 C 28.580 223.200,28.400 223.549,28.400 223.976 C 28.400 224.403,28.220 224.864,28.000 225.000 C 27.780 225.136,27.599 225.642,27.598 226.124 C 27.596 226.606,27.326 227.516,26.998 228.146 C 26.669 228.776,26.400 229.631,26.400 230.046 C 26.400 230.461,26.220 230.800,26.000 230.800 C 25.780 230.800,25.600 231.340,25.600 232.000 C 25.600 232.660,25.420 233.200,25.200 233.200 C 24.980 233.200,24.800 233.560,24.800 234.000 C 24.800 234.440,24.620 234.800,24.400 234.800 C 24.180 234.800,24.000 235.340,24.000 236.000 C 24.000 236.660,23.820 237.200,23.600 237.200 C 23.380 237.200,23.200 237.740,23.200 238.400 C 23.200 239.060,23.020 239.600,22.800 239.600 C 22.580 239.600,22.400 240.140,22.400 240.800 C 22.400 241.460,22.220 242.000,22.000 242.000 C 21.780 242.000,21.600 242.540,21.600 243.200 C 21.600 243.860,21.420 244.400,21.200 244.400 C 20.980 244.400,20.800 245.030,20.800 245.800 C 20.800 246.570,20.620 247.200,20.400 247.200 C 20.180 247.200,20.000 247.740,20.000 248.400 C 20.000 249.060,19.820 249.600,19.600 249.600 C 19.380 249.600,19.200 250.320,19.200 251.200 C 19.200 252.080,19.020 252.800,18.800 252.800 C 18.580 252.800,18.400 253.340,18.400 254.000 C 18.400 254.660,18.220 255.200,18.000 255.200 C 17.474 255.200,17.474 261.075,18.000 261.400 C 18.220 261.536,18.400 262.020,18.400 262.477 C 18.400 262.933,18.727 263.597,19.128 263.953 C 19.528 264.309,19.972 264.915,20.115 265.300 C 20.258 265.685,20.611 266.000,20.899 266.000 C 21.187 266.000,21.683 266.360,22.000 266.800 C 22.317 267.240,22.897 267.600,23.288 267.600 C 23.680 267.600,24.000 267.780,24.000 268.000 C 24.000 268.237,25.459 268.400,27.576 268.400 C 29.543 268.400,31.264 268.220,31.400 268.000 C 31.536 267.780,31.957 267.600,32.335 267.600 C 32.714 267.600,33.283 267.240,33.600 266.800 C 33.917 266.360,34.380 266.000,34.629 266.000 C 34.878 266.000,35.646 265.460,36.337 264.800 C 37.028 264.140,37.748 263.600,37.937 263.600 C 38.126 263.600,38.846 263.060,39.537 262.400 C 40.228 261.740,40.908 261.200,41.049 261.200 C 41.191 261.200,41.597 260.885,41.953 260.500 C 42.309 260.115,43.230 259.454,44.000 259.030 C 44.770 258.607,45.490 258.155,45.600 258.027 C 45.710 257.898,46.474 257.344,47.297 256.796 C 48.121 256.248,48.796 255.665,48.797 255.500 C 48.799 255.335,49.043 255.200,49.341 255.200 C 49.638 255.200,50.446 254.660,51.137 254.000 C 51.828 253.340,52.548 252.800,52.737 252.800 C 52.926 252.800,53.646 252.260,54.337 251.600 C 55.028 250.940,55.729 250.400,55.896 250.400 C 56.199 250.399,57.604 249.292,59.707 247.397 C 60.316 246.849,61.008 246.400,61.246 246.400 C 61.484 246.400,62.183 245.860,62.800 245.200 C 63.417 244.540,64.137 244.000,64.400 244.000 C 64.663 244.000,65.383 243.460,66.000 242.800 C 66.617 242.140,67.331 241.600,67.587 241.600 C 67.844 241.600,68.671 241.129,69.427 240.553 L 70.800 239.505 70.800 241.953 C 70.800 243.318,70.623 244.400,70.400 244.400 C 70.160 244.400,70.000 246.008,70.000 248.424 C 70.000 250.814,69.848 252.354,69.626 252.216 C 69.399 252.076,69.238 255.753,69.214 261.593 C 69.189 267.944,69.315 271.200,69.588 271.200 C 69.843 271.200,70.000 272.722,70.000 275.200 C 70.000 277.600,70.160 279.200,70.400 279.200 C 70.626 279.200,70.800 280.341,70.800 281.824 C 70.800 283.471,70.949 284.355,71.200 284.200 C 71.450 284.046,71.600 284.863,71.600 286.376 C 71.600 287.725,71.777 288.800,72.000 288.800 C 72.220 288.800,72.400 289.430,72.400 290.200 C 72.400 290.970,72.580 291.600,72.800 291.600 C 73.020 291.600,73.200 292.500,73.200 293.600 C 73.200 294.700,73.380 295.600,73.600 295.600 C 73.820 295.600,74.000 296.140,74.000 296.800 C 74.000 297.460,74.180 298.000,74.400 298.000 C 74.620 298.000,74.800 298.619,74.800 299.376 C 74.800 300.133,74.980 300.864,75.200 301.000 C 75.420 301.136,75.600 301.597,75.600 302.024 C 75.600 302.451,75.742 302.800,75.915 302.800 C 76.088 302.800,76.274 303.378,76.328 304.084 C 76.382 304.791,76.578 305.466,76.764 305.584 C 76.950 305.703,77.230 306.564,77.386 307.498 C 77.542 308.432,77.834 309.297,78.035 309.422 C 78.236 309.546,78.400 309.997,78.400 310.424 C 78.400 310.851,78.580 311.200,78.800 311.200 C 79.020 311.200,79.200 311.740,79.200 312.400 C 79.200 313.060,79.380 313.600,79.600 313.600 C 79.820 313.600,80.000 313.960,80.000 314.400 C 80.000 314.840,80.180 315.200,80.400 315.200 C 80.620 315.200,80.800 315.560,80.800 316.000 C 80.800 316.440,80.980 316.800,81.200 316.800 C 81.420 316.800,81.599 317.025,81.597 317.300 C 81.593 317.933,84.888 324.554,85.296 324.733 C 85.463 324.807,85.600 325.122,85.600 325.433 C 85.600 325.745,85.780 326.000,86.000 326.000 C 86.220 326.000,86.400 326.360,86.400 326.800 C 86.400 327.240,86.580 327.600,86.800 327.600 C 87.020 327.600,87.200 327.836,87.200 328.125 C 87.200 328.413,87.560 329.036,88.000 329.508 C 88.440 329.980,88.800 330.604,88.800 330.895 C 88.800 331.186,89.160 331.683,89.600 332.000 C 90.040 332.317,90.400 332.897,90.400 333.288 C 90.400 333.680,90.550 334.000,90.732 334.000 C 90.915 334.000,91.320 334.495,91.632 335.100 C 92.606 336.990,93.035 337.049,96.000 335.699 C 96.770 335.349,98.351 334.688,99.513 334.231 L 101.626 333.400 101.773 318.000 C 101.929 301.527,102.055 299.955,104.414 285.000 C 104.845 282.264,105.403 279.414,106.019 276.800 C 106.253 275.810,106.600 274.280,106.792 273.400 C 106.983 272.520,107.350 271.080,107.607 270.200 C 107.864 269.320,108.168 268.013,108.281 267.296 C 108.395 266.579,108.649 265.894,108.844 265.773 C 109.040 265.652,109.200 265.111,109.200 264.571 C 109.200 264.031,109.362 263.277,109.559 262.895 C 109.756 262.513,110.329 260.850,110.831 259.200 C 111.333 257.550,111.892 256.029,112.072 255.820 C 112.252 255.611,112.400 255.114,112.400 254.715 C 112.400 254.316,112.559 253.677,112.753 253.295 C 113.183 252.450,113.639 251.339,114.843 248.200 C 115.349 246.880,115.995 245.350,116.279 244.800 C 116.563 244.250,116.796 243.675,116.798 243.522 C 116.802 243.052,121.939 232.725,123.225 230.600 C 123.891 229.500,124.538 228.285,124.664 227.900 C 124.790 227.515,125.031 227.200,125.200 227.200 C 125.369 227.200,125.607 226.885,125.729 226.500 C 125.985 225.692,127.128 223.788,128.000 222.716 C 128.330 222.310,128.960 221.373,129.400 220.634 C 130.402 218.950,134.484 213.271,135.466 212.196 C 135.870 211.754,136.893 210.532,137.740 209.480 C 141.141 205.257,150.498 196.340,154.400 193.604 C 155.170 193.064,156.149 192.302,156.575 191.911 C 157.002 191.520,157.587 191.200,157.875 191.200 C 158.164 191.200,158.400 191.050,158.400 190.868 C 158.400 190.685,158.895 190.280,159.500 189.968 C 160.105 189.656,160.690 189.296,160.800 189.166 C 161.463 188.388,170.278 183.948,173.978 182.529 C 177.569 181.151,178.357 180.897,183.100 179.585 C 192.727 176.923,206.088 176.901,217.000 179.530 C 219.224 180.065,225.315 182.038,225.800 182.380 C 226.020 182.535,227.039 182.972,228.065 183.351 C 232.132 184.852,242.815 190.912,244.000 192.389 C 244.110 192.526,244.830 193.071,245.600 193.600 C 246.370 194.129,247.090 194.661,247.200 194.783 C 247.310 194.905,248.120 195.535,249.000 196.184 C 251.740 198.204,260.903 207.605,264.287 211.868 C 267.645 216.098,272.800 223.315,272.800 223.785 C 272.800 223.934,273.310 224.808,273.933 225.728 C 274.556 226.648,275.182 227.670,275.324 228.000 C 275.466 228.330,276.121 229.500,276.780 230.600 C 280.786 237.286,285.839 248.865,288.823 258.200 C 289.527 260.400,290.234 262.560,290.396 263.000 C 291.158 265.077,291.600 266.731,291.600 267.505 C 291.600 267.971,291.760 268.452,291.956 268.573 C 292.151 268.694,292.412 269.379,292.534 270.096 C 292.656 270.813,292.946 272.255,293.178 273.300 C 293.410 274.345,293.780 276.010,294.000 277.000 C 294.824 280.707,295.215 282.672,295.634 285.200 C 295.870 286.630,296.238 288.790,296.452 290.000 C 298.149 299.619,299.166 320.915,298.400 330.773 L 298.200 333.346 300.400 334.209 C 301.610 334.684,303.468 335.472,304.530 335.960 C 306.893 337.046,307.629 336.938,308.359 335.395 C 308.670 334.738,309.076 334.140,309.262 334.067 C 309.448 333.993,309.600 333.628,309.600 333.255 C 309.600 332.882,309.960 332.317,310.400 332.000 C 310.840 331.683,311.200 331.103,311.200 330.712 C 311.200 330.320,311.380 330.000,311.600 330.000 C 311.820 330.000,312.000 329.680,312.000 329.288 C 312.000 328.897,312.360 328.317,312.800 328.000 C 313.240 327.683,313.600 327.103,313.600 326.712 C 313.600 326.320,313.780 326.000,314.000 326.000 C 314.220 326.000,314.400 325.730,314.400 325.400 C 314.400 325.070,314.580 324.800,314.800 324.800 C 315.020 324.800,315.200 324.440,315.200 324.000 C 315.200 323.560,315.380 323.200,315.600 323.200 C 315.820 323.200,316.000 322.840,316.000 322.400 C 316.000 321.960,316.180 321.600,316.400 321.600 C 316.620 321.600,316.800 321.240,316.800 320.800 C 316.800 320.360,316.935 319.999,317.100 319.997 C 317.459 319.993,318.400 318.056,318.400 317.320 C 318.400 317.034,318.580 316.800,318.800 316.800 C 319.020 316.800,319.200 316.440,319.200 316.000 C 319.200 315.560,319.380 315.200,319.600 315.200 C 319.820 315.200,320.000 314.840,320.000 314.400 C 320.000 313.960,320.180 313.600,320.400 313.600 C 320.620 313.600,320.800 313.060,320.800 312.400 C 320.800 311.740,320.980 311.200,321.200 311.200 C 321.420 311.200,321.600 310.840,321.600 310.400 C 321.600 309.960,321.780 309.600,322.000 309.600 C 322.220 309.600,322.400 309.161,322.400 308.624 C 322.400 308.087,322.580 307.536,322.800 307.400 C 323.020 307.264,323.200 306.801,323.200 306.371 C 323.200 305.941,323.380 305.232,323.600 304.795 C 323.820 304.358,324.178 303.646,324.395 303.214 C 324.612 302.781,324.907 301.431,325.050 300.214 C 325.193 298.996,325.465 298.000,325.655 298.000 C 325.845 298.000,326.000 297.381,326.000 296.624 C 326.000 295.867,326.180 295.136,326.400 295.000 C 326.620 294.864,326.800 294.043,326.800 293.176 C 326.800 292.309,326.980 291.600,327.200 291.600 C 327.420 291.600,327.600 290.970,327.600 290.200 C 327.600 289.430,327.780 288.800,328.000 288.800 C 328.220 288.800,328.400 287.821,328.400 286.624 C 328.400 285.427,328.580 284.336,328.800 284.200 C 329.020 284.064,329.200 282.883,329.200 281.576 C 329.200 280.259,329.378 279.200,329.600 279.200 C 329.840 279.200,330.000 277.600,330.000 275.200 C 330.000 272.800,330.160 271.200,330.400 271.200 C 330.656 271.200,330.800 267.733,330.800 261.600 C 330.800 255.467,330.656 252.000,330.400 252.000 C 330.162 252.000,330.000 250.475,330.000 248.224 C 330.000 246.137,329.821 244.337,329.600 244.200 C 329.121 243.904,329.056 239.600,329.530 239.600 C 329.712 239.600,330.283 240.050,330.800 240.600 C 331.317 241.150,331.996 241.600,332.309 241.600 C 332.623 241.600,333.383 242.140,334.000 242.800 C 334.617 243.460,335.369 244.000,335.672 244.000 C 335.975 244.000,336.483 244.360,336.800 244.800 C 337.117 245.240,337.707 245.600,338.112 245.600 C 338.516 245.600,338.736 245.780,338.600 246.000 C 338.464 246.220,338.545 246.400,338.780 246.400 C 339.015 246.400,339.772 246.940,340.463 247.600 C 341.154 248.260,341.922 248.800,342.171 248.800 C 342.420 248.800,342.883 249.160,343.200 249.600 C 343.517 250.040,343.927 250.400,344.110 250.400 C 344.293 250.400,345.019 250.939,345.722 251.598 C 346.425 252.257,347.137 252.797,347.304 252.798 C 347.471 252.799,348.172 253.340,348.863 254.000 C 349.554 254.660,350.280 255.200,350.478 255.200 C 350.675 255.200,351.286 255.650,351.836 256.200 C 352.386 256.750,352.981 257.200,353.157 257.200 C 353.439 257.200,354.051 257.647,355.883 259.193 C 356.149 259.417,356.604 259.600,356.895 259.600 C 357.186 259.600,357.683 259.960,358.000 260.400 C 358.317 260.840,358.762 261.200,358.990 261.200 C 359.217 261.200,359.912 261.740,360.535 262.400 C 361.158 263.060,361.834 263.600,362.038 263.600 C 362.241 263.600,362.972 264.140,363.663 264.800 C 364.354 265.460,365.122 266.000,365.371 266.000 C 365.620 266.000,366.083 266.360,366.400 266.800 C 366.717 267.240,367.286 267.600,367.665 267.600 C 368.043 267.600,368.464 267.780,368.600 268.000 C 368.736 268.220,370.457 268.400,372.424 268.400 C 374.541 268.400,376.000 268.237,376.000 268.000 C 376.000 267.780,376.320 267.600,376.712 267.600 C 377.103 267.600,377.683 267.240,378.000 266.800 C 378.317 266.360,378.797 266.000,379.066 266.000 C 379.335 266.000,379.874 265.460,380.264 264.800 C 380.654 264.140,381.114 263.600,381.286 263.600 C 381.459 263.600,381.600 263.150,381.600 262.600 C 381.600 262.050,381.780 261.600,382.000 261.600 C 382.233 261.600,382.400 260.267,382.400 258.400 C 382.400 256.533,382.233 255.200,382.000 255.200 C 381.780 255.200,381.600 254.671,381.600 254.024 C 381.600 253.377,381.420 252.736,381.200 252.600 C 380.980 252.464,380.800 251.733,380.800 250.976 C 380.800 250.219,380.620 249.600,380.400 249.600 C 380.180 249.600,380.000 249.060,380.000 248.400 C 380.000 247.740,379.820 247.200,379.600 247.200 C 379.380 247.200,379.200 246.570,379.200 245.800 C 379.200 245.030,379.020 244.400,378.800 244.400 C 378.580 244.400,378.400 243.860,378.400 243.200 C 378.400 242.540,378.220 242.000,378.000 242.000 C 377.780 242.000,377.600 241.460,377.600 240.800 C 377.600 240.140,377.420 239.600,377.200 239.600 C 376.980 239.600,376.800 239.060,376.800 238.400 C 376.800 237.740,376.620 237.200,376.400 237.200 C 376.180 237.200,376.000 236.660,376.000 236.000 C 376.000 235.340,375.831 234.800,375.625 234.800 C 375.418 234.800,375.127 233.988,374.978 232.995 C 374.829 232.002,374.548 231.092,374.354 230.971 C 374.159 230.851,374.000 230.437,374.000 230.052 C 374.000 229.666,373.640 228.605,373.200 227.694 C 372.760 226.784,372.400 225.760,372.400 225.419 C 372.400 225.079,372.220 224.800,372.000 224.800 C 371.780 224.800,371.600 224.451,371.600 224.024 C 371.600 223.597,371.420 223.136,371.200 223.000 C 370.980 222.864,370.800 222.313,370.800 221.776 C 370.800 221.239,370.620 220.800,370.400 220.800 C 370.180 220.800,370.000 220.440,370.000 220.000 C 370.000 219.560,369.820 219.200,369.600 219.200 C 369.380 219.200,369.200 218.761,369.200 218.224 C 369.200 217.687,369.020 217.136,368.800 217.000 C 368.580 216.864,368.400 216.403,368.400 215.976 C 368.400 215.549,368.220 215.200,368.000 215.200 C 367.780 215.200,367.600 214.840,367.600 214.400 C 367.600 213.960,367.420 213.600,367.200 213.600 C 366.980 213.600,366.800 213.240,366.800 212.800 C 366.800 212.360,366.620 212.000,366.400 212.000 C 366.180 212.000,366.000 211.640,366.000 211.200 C 366.000 210.760,365.820 210.400,365.600 210.400 C 365.380 210.400,365.200 209.950,365.200 209.400 C 365.200 208.850,365.020 208.400,364.800 208.400 C 364.580 208.400,364.400 208.040,364.400 207.600 C 364.400 207.160,364.220 206.800,364.000 206.800 C 363.780 206.800,363.600 206.440,363.600 206.000 C 363.600 205.560,363.420 205.200,363.200 205.200 C 362.980 205.200,362.800 204.840,362.800 204.400 C 362.800 203.960,362.620 203.600,362.400 203.600 C 362.180 203.600,362.000 203.240,362.000 202.800 C 362.000 202.360,361.820 202.000,361.600 202.000 C 361.380 202.000,361.200 201.719,361.200 201.376 C 361.200 200.991,361.009 200.863,360.700 201.041 C 360.425 201.199,360.330 201.184,360.489 201.008 C 360.748 200.722,359.772 198.512,359.162 198.000 C 359.030 197.890,358.795 197.277,358.639 196.639 C 358.482 196.000,357.824 194.707,357.177 193.767 C 356.530 192.826,356.000 191.863,356.000 191.628 C 356.000 191.393,355.820 191.200,355.600 191.200 C 355.380 191.200,355.200 190.840,355.200 190.400 C 355.200 189.960,355.042 189.600,354.849 189.600 C 354.655 189.600,354.273 189.060,354.000 188.400 C 353.727 187.740,353.345 187.200,353.151 187.200 C 352.958 187.200,352.800 186.880,352.800 186.488 C 352.800 186.097,352.440 185.517,352.000 185.200 C 351.560 184.883,351.200 184.303,351.200 183.912 C 351.200 183.520,351.050 183.200,350.868 183.200 C 350.685 183.200,350.280 182.705,349.968 182.100 C 349.655 181.495,349.085 180.651,348.700 180.225 C 348.315 179.798,348.000 179.253,348.000 179.013 C 348.000 178.773,347.640 178.317,347.200 178.000 C 346.760 177.683,346.400 177.233,346.400 177.000 C 346.400 176.767,346.040 176.317,345.600 176.000 C 345.160 175.683,344.800 175.175,344.800 174.872 C 344.800 174.569,344.260 173.817,343.600 173.200 C 342.940 172.583,342.400 171.874,342.400 171.623 C 342.400 171.149,342.022 170.627,340.500 168.999 C 340.005 168.470,339.600 167.866,339.600 167.659 C 339.600 167.451,338.700 166.362,337.600 165.239 C 336.500 164.115,335.600 163.086,335.600 162.952 C 335.600 162.818,333.215 160.307,330.300 157.372 C 327.385 154.437,324.010 150.985,322.800 149.700 C 321.590 148.416,319.978 146.923,319.217 146.382 C 317.868 145.424,317.042 144.739,315.019 142.900 C 314.474 142.405,313.824 142.000,313.575 142.000 C 313.325 142.000,312.617 141.460,312.000 140.800 C 311.383 140.140,310.663 139.600,310.400 139.600 C 310.137 139.600,309.417 139.060,308.800 138.400 C 308.183 137.740,307.481 137.200,307.240 137.200 C 306.998 137.200,306.800 137.050,306.800 136.868 C 306.800 136.685,306.305 136.281,305.700 135.970 C 305.095 135.660,304.309 135.089,303.953 134.703 C 303.597 134.316,303.124 134.000,302.901 134.000 C 302.679 134.000,301.800 133.324,300.948 132.498 C 300.097 131.672,298.770 130.551,298.000 130.007 C 297.230 129.463,296.220 128.653,295.755 128.209 C 295.291 127.764,294.526 127.135,294.055 126.812 C 293.585 126.488,293.200 126.038,293.200 125.812 C 293.199 125.415,292.071 123.909,290.465 122.162 C 290.041 121.702,289.465 120.892,289.185 120.362 C 288.904 119.833,288.343 119.109,287.937 118.753 C 287.532 118.397,287.200 117.852,287.200 117.541 C 287.200 117.231,286.840 116.717,286.400 116.400 C 285.960 116.083,285.600 115.503,285.600 115.112 C 285.600 114.720,285.420 114.400,285.200 114.400 C 284.980 114.400,284.800 114.164,284.800 113.875 C 284.800 113.587,284.440 112.964,284.000 112.492 C 283.560 112.020,283.200 111.356,283.200 111.017 C 283.200 110.678,283.020 110.400,282.800 110.400 C 282.580 110.400,282.400 110.130,282.400 109.800 C 282.400 109.470,282.220 109.200,282.000 109.200 C 281.780 109.200,281.600 108.851,281.600 108.424 C 281.600 107.997,281.420 107.536,281.200 107.400 C 280.980 107.264,280.800 106.713,280.800 106.176 C 280.800 105.639,280.620 105.200,280.400 105.200 C 280.180 105.200,280.000 104.840,280.000 104.400 C 280.000 103.960,279.820 103.600,279.600 103.600 C 279.380 103.600,279.200 103.060,279.200 102.400 C 279.200 101.740,279.020 101.200,278.800 101.200 C 278.580 101.200,278.400 100.570,278.400 99.800 C 278.400 99.030,278.220 98.400,278.000 98.400 C 277.780 98.400,277.600 97.770,277.600 97.000 C 277.600 96.230,277.420 95.600,277.200 95.600 C 276.980 95.600,276.800 94.790,276.800 93.800 C 276.800 92.810,276.620 92.000,276.400 92.000 C 276.165 92.000,276.000 90.627,276.000 88.680 C 276.000 86.854,275.838 85.189,275.641 84.980 C 275.443 84.771,275.210 79.143,275.121 72.473 C 275.015 64.392,274.817 60.256,274.529 60.073 C 274.292 59.923,273.992 59.080,273.864 58.200 C 273.343 54.627,273.096 53.600,272.756 53.600 C 272.560 53.600,272.400 53.060,272.400 52.400 C 272.400 51.740,272.220 51.200,272.000 51.200 C 271.780 51.200,271.600 50.660,271.600 50.000 C 271.600 49.340,271.420 48.800,271.200 48.800 C 270.980 48.800,270.800 48.361,270.800 47.824 C 270.800 47.287,270.620 46.736,270.400 46.600 C 270.180 46.464,270.000 46.003,270.000 45.576 C 270.000 45.149,269.820 44.800,269.600 44.800 C 269.380 44.800,269.200 44.451,269.200 44.024 C 269.200 43.597,269.020 43.136,268.800 43.000 C 268.580 42.864,268.400 42.403,268.400 41.976 C 268.400 41.549,268.220 41.200,268.000 41.200 C 267.780 41.200,267.600 40.922,267.600 40.583 C 267.600 40.244,267.240 39.580,266.800 39.108 C 266.360 38.636,266.000 38.013,266.000 37.725 C 266.000 37.436,265.820 37.200,265.600 37.200 C 265.380 37.200,265.200 36.840,265.200 36.400 C 265.200 35.960,265.020 35.600,264.800 35.600 C 264.580 35.600,264.400 35.364,264.400 35.075 C 264.400 34.787,264.040 34.164,263.600 33.692 C 263.160 33.220,262.800 32.673,262.800 32.476 C 262.800 32.279,262.260 31.554,261.600 30.863 C 260.940 30.172,260.400 29.463,260.400 29.286 C 260.400 29.109,259.680 28.192,258.800 27.249 C 257.920 26.305,257.200 25.394,257.200 25.225 C 257.200 24.742,251.159 18.683,249.600 17.602 C 248.830 17.068,247.723 16.129,247.140 15.515 C 246.556 14.902,245.873 14.400,245.621 14.400 C 245.370 14.400,244.714 13.950,244.164 13.400 C 243.614 12.850,243.020 12.400,242.844 12.400 C 242.668 12.400,242.001 11.945,241.362 11.390 C 240.723 10.834,239.750 10.265,239.200 10.126 C 238.650 9.986,237.909 9.541,237.553 9.136 C 237.197 8.731,236.612 8.400,236.253 8.400 C 235.894 8.400,235.600 8.220,235.600 8.000 C 235.600 7.780,235.240 7.600,234.800 7.600 C 234.360 7.600,234.000 7.420,234.000 7.200 C 234.000 6.980,233.640 6.800,233.200 6.800 C 232.760 6.800,232.400 6.620,232.400 6.400 C 232.400 6.180,232.051 6.000,231.624 6.000 C 231.197 6.000,230.736 5.820,230.600 5.600 C 230.464 5.380,229.913 5.200,229.376 5.200 C 228.839 5.200,228.400 5.020,228.400 4.800 C 228.400 4.580,228.128 4.400,227.795 4.400 C 227.207 4.400,226.782 4.233,224.905 3.262 C 224.413 3.008,223.558 2.800,223.005 2.800 C 222.452 2.800,222.000 2.620,222.000 2.400 C 222.000 2.180,221.370 2.000,220.600 2.000 C 219.830 2.000,219.200 1.820,219.200 1.600 C 219.200 1.380,218.516 1.200,217.680 1.200 C 216.844 1.200,215.939 0.979,215.670 0.710 C 215.179 0.219,191.985 -0.131,186.800 0.274 M176.847 48.169 C 183.505 50.190,188.183 54.753,191.149 62.119 C 191.397 62.734,191.600 63.757,191.600 64.393 C 191.600 65.028,191.776 66.011,191.991 66.577 C 193.021 69.286,190.595 73.593,187.583 74.405 C 183.274 75.565,180.126 73.319,179.299 68.494 C 178.341 62.906,175.731 60.392,170.905 60.410 C 165.351 60.430,162.800 63.810,162.800 71.147 C 162.800 73.995,162.605 75.969,162.235 76.851 C 160.173 81.773,153.429 82.183,150.819 77.546 C 149.886 75.888,149.640 67.046,150.432 63.611 C 153.013 52.408,165.932 44.856,176.847 48.169 M235.277 48.326 C 238.615 49.427,241.129 51.055,244.039 54.000 C 246.433 56.422,247.189 57.620,249.219 62.200 C 250.302 64.646,250.233 75.957,249.125 77.590 C 246.594 81.319,242.636 81.885,239.265 79.000 C 237.666 77.632,237.200 75.860,237.200 71.147 C 237.200 66.292,236.521 64.120,234.451 62.346 C 228.989 57.667,222.098 60.702,220.807 68.357 C 219.661 75.154,211.448 77.250,208.766 71.430 C 208.101 69.984,208.107 63.333,208.774 62.666 C 209.009 62.431,209.197 61.961,209.194 61.620 C 209.167 59.003,215.281 51.772,219.186 49.802 C 223.833 47.458,230.727 46.825,235.277 48.326 M207.400 86.194 C 212.372 87.093,216.654 88.449,222.600 91.007 C 226.239 92.572,227.531 93.107,229.700 93.949 C 230.891 94.411,233.954 95.786,236.240 96.884 C 239.892 98.637,242.400 102.880,242.400 107.305 C 242.400 108.321,242.220 109.264,242.000 109.400 C 241.780 109.536,241.600 109.999,241.600 110.429 C 241.600 111.233,241.053 112.355,240.000 113.714 C 239.267 114.659,227.757 125.939,211.659 141.488 C 201.881 150.933,197.981 150.755,187.293 140.379 C 184.473 137.641,177.336 130.721,171.434 125.002 C 158.605 112.570,158.313 112.193,157.723 107.283 C 157.263 103.457,160.494 98.252,164.400 96.524 C 167.101 95.329,168.348 94.811,170.000 94.195 C 170.990 93.826,172.610 93.158,173.600 92.711 C 174.590 92.264,175.760 91.760,176.200 91.590 C 176.640 91.420,177.630 91.008,178.400 90.674 C 179.170 90.339,180.610 89.764,181.600 89.396 C 182.590 89.027,183.760 88.565,184.200 88.368 C 189.442 86.024,200.654 84.973,207.400 86.194 " stroke="none" fill="#3c5858" fill-rule="evenodd"></path><path id="path3" d="M166.200 48.000 C 165.181 48.438,166.232 48.438,167.600 48.000 C 168.404 47.743,168.443 47.677,167.800 47.668 C 167.360 47.662,166.640 47.811,166.200 48.000 M174.400 48.000 C 175.768 48.438,176.819 48.438,175.800 48.000 C 175.360 47.811,174.640 47.662,174.200 47.668 C 173.557 47.677,173.596 47.743,174.400 48.000 M224.400 48.018 C 223.962 48.315,224.124 48.352,225.000 48.156 C 226.471 47.827,226.790 47.598,225.767 47.606 C 225.345 47.609,224.730 47.795,224.400 48.018 M232.400 48.000 C 233.768 48.438,234.819 48.438,233.800 48.000 C 233.360 47.811,232.640 47.662,232.200 47.668 C 231.557 47.677,231.596 47.743,232.400 48.000 M240.800 51.268 C 242.462 52.944,245.655 55.621,244.600 54.453 C 243.940 53.723,242.680 52.572,241.800 51.894 C 240.920 51.217,240.470 50.935,240.800 51.268 M156.161 53.700 C 154.702 55.245,152.864 57.555,153.853 56.600 C 154.918 55.572,158.090 52.000,157.938 52.000 C 157.844 52.000,157.044 52.765,156.161 53.700 M185.583 53.700 C 187.241 55.466,187.600 55.784,187.600 55.483 C 187.600 55.419,186.745 54.564,185.700 53.583 L 183.800 51.800 185.583 53.700 M214.378 53.500 L 213.000 55.000 214.500 53.622 C 215.896 52.338,216.184 52.000,215.878 52.000 C 215.812 52.000,215.137 52.675,214.378 53.500 M169.907 60.290 C 170.626 60.379,171.706 60.377,172.307 60.286 C 172.908 60.195,172.320 60.122,171.000 60.124 C 169.680 60.126,169.188 60.201,169.907 60.290 M227.907 60.290 C 228.626 60.379,229.706 60.377,230.307 60.286 C 230.908 60.195,230.320 60.122,229.000 60.124 C 227.680 60.126,227.188 60.201,227.907 60.290 M164.975 62.500 L 163.800 63.800 165.100 62.625 C 166.312 61.530,166.584 61.200,166.275 61.200 C 166.206 61.200,165.621 61.785,164.975 62.500 M233.600 61.325 C 233.600 61.394,234.185 61.979,234.900 62.625 L 236.200 63.800 235.025 62.500 C 233.930 61.288,233.600 61.016,233.600 61.325 M208.649 63.015 C 208.512 63.373,208.415 63.966,208.434 64.333 C 208.453 64.700,208.627 64.469,208.821 63.820 C 209.198 62.558,209.065 61.933,208.649 63.015 M150.269 64.756 C 150.121 65.495,150.020 66.483,150.044 66.950 C 150.068 67.418,150.247 66.990,150.442 66.000 C 150.637 65.010,150.738 64.023,150.667 63.806 C 150.596 63.590,150.417 64.017,150.269 64.756 M162.553 71.000 C 162.553 73.640,162.618 74.668,162.697 73.284 C 162.775 71.901,162.774 69.741,162.695 68.484 C 162.616 67.228,162.552 68.360,162.553 71.000 M191.701 67.800 C 191.705 68.680,191.787 68.993,191.883 68.495 C 191.979 67.998,191.975 67.278,191.875 66.895 C 191.775 66.513,191.696 66.920,191.701 67.800 M237.348 70.400 C 237.348 72.710,237.414 73.655,237.495 72.500 C 237.576 71.345,237.576 69.455,237.495 68.300 C 237.414 67.145,237.348 68.090,237.348 70.400 M208.093 68.000 C 208.093 68.770,208.175 69.085,208.276 68.700 C 208.376 68.315,208.376 67.685,208.276 67.300 C 208.175 66.915,208.093 67.230,208.093 68.000 M155.500 80.682 C 155.995 80.778,156.805 80.778,157.300 80.682 C 157.795 80.587,157.390 80.509,156.400 80.509 C 155.410 80.509,155.005 80.587,155.500 80.682 M242.705 80.683 C 243.202 80.779,243.922 80.775,244.305 80.675 C 244.687 80.575,244.280 80.496,243.400 80.501 C 242.520 80.505,242.207 80.587,242.705 80.683 M197.700 177.896 C 198.965 177.975,201.035 177.975,202.300 177.896 C 203.565 177.816,202.530 177.751,200.000 177.751 C 197.470 177.751,196.435 177.816,197.700 177.896 M189.400 178.410 C 188.866 178.647,189.198 178.686,190.400 178.527 C 191.390 178.396,192.275 178.224,192.367 178.144 C 192.714 177.843,190.164 178.072,189.400 178.410 M208.100 178.276 C 208.485 178.376,209.115 178.376,209.500 178.276 C 209.885 178.175,209.570 178.093,208.800 178.093 C 208.030 178.093,207.715 178.175,208.100 178.276 M185.000 179.200 C 183.981 179.638,185.032 179.638,186.400 179.200 C 187.204 178.943,187.243 178.877,186.600 178.868 C 186.160 178.862,185.440 179.011,185.000 179.200 M162.100 188.446 C 160.737 189.319,160.295 189.906,161.500 189.243 C 162.418 188.739,163.856 187.627,163.600 187.619 C 163.490 187.616,162.815 187.988,162.100 188.446 M244.400 192.925 C 244.400 193.024,245.061 193.609,245.868 194.225 C 246.676 194.841,247.211 195.141,247.056 194.891 C 246.740 194.379,244.400 192.647,244.400 192.925 M147.781 199.300 L 146.200 201.000 147.900 199.419 C 149.481 197.948,149.784 197.600,149.481 197.600 C 149.416 197.600,148.651 198.365,147.781 199.300 M250.400 197.725 C 250.400 197.794,250.985 198.379,251.700 199.025 L 253.000 200.200 251.825 198.900 C 250.730 197.688,250.400 197.416,250.400 197.725 M140.800 206.200 C 139.828 207.190,139.123 208.000,139.233 208.000 C 139.343 208.000,140.228 207.190,141.200 206.200 C 142.172 205.210,142.877 204.400,142.767 204.400 C 142.657 204.400,141.772 205.210,140.800 206.200 M259.583 206.900 C 260.564 207.945,261.419 208.800,261.483 208.800 C 261.784 208.800,261.466 208.441,259.700 206.783 L 257.800 205.000 259.583 206.900 M137.359 210.100 C 135.607 212.121,135.087 212.800,135.290 212.800 C 135.407 212.800,136.167 211.990,136.979 211.000 C 138.481 209.166,138.779 208.463,137.359 210.100 M266.175 214.932 C 266.791 215.739,267.376 216.400,267.475 216.400 C 267.753 216.400,266.021 214.060,265.509 213.744 C 265.259 213.589,265.559 214.124,266.175 214.932 M124.705 228.100 C 123.844 229.422,122.646 231.865,123.088 231.400 C 123.611 230.850,125.674 227.200,125.463 227.200 C 125.369 227.200,125.028 227.605,124.705 228.100 M292.644 272.600 C 292.973 274.071,293.202 274.390,293.194 273.367 C 293.191 272.945,293.005 272.330,292.782 272.000 C 292.485 271.562,292.448 271.724,292.644 272.600 M102.901 297.000 C 102.905 297.880,102.987 298.193,103.083 297.695 C 103.179 297.198,103.175 296.478,103.075 296.095 C 102.975 295.713,102.896 296.120,102.901 297.000 M102.493 300.400 C 102.493 301.170,102.575 301.485,102.676 301.100 C 102.776 300.715,102.776 300.085,102.676 299.700 C 102.575 299.315,102.493 299.630,102.493 300.400 M102.128 306.000 C 102.128 307.430,102.201 308.015,102.289 307.300 C 102.378 306.585,102.378 305.415,102.289 304.700 C 102.201 303.985,102.128 304.570,102.128 306.000 M297.693 306.400 C 297.693 307.170,297.775 307.485,297.876 307.100 C 297.976 306.715,297.976 306.085,297.876 305.700 C 297.775 305.315,297.693 305.630,297.693 306.400 M298.101 310.200 C 298.105 311.080,298.187 311.393,298.283 310.895 C 298.379 310.398,298.375 309.678,298.275 309.295 C 298.175 308.913,298.096 309.320,298.101 310.200 M101.750 314.600 C 101.751 317.020,101.816 317.958,101.896 316.685 C 101.976 315.412,101.975 313.432,101.894 312.285 C 101.814 311.138,101.749 312.180,101.750 314.600 M101.751 324.800 C 101.751 327.330,101.816 328.365,101.896 327.100 C 101.975 325.835,101.975 323.765,101.896 322.500 C 101.816 321.235,101.751 322.270,101.751 324.800 M298.093 329.200 C 298.093 329.970,298.175 330.285,298.276 329.900 C 298.376 329.515,298.376 328.885,298.276 328.500 C 298.175 328.115,298.093 328.430,298.093 329.200 M102.093 332.000 C 102.093 332.770,102.175 333.085,102.276 332.700 C 102.376 332.315,102.376 331.685,102.276 331.300 C 102.175 330.915,102.093 331.230,102.093 332.000 " stroke="none" fill="#8f9c9a" fill-rule="evenodd"></path><path id="path4" d="M170.305 47.883 C 170.802 47.979,171.522 47.975,171.905 47.875 C 172.287 47.775,171.880 47.696,171.000 47.701 C 170.120 47.705,169.807 47.787,170.305 47.883 M228.305 47.883 C 228.802 47.979,229.522 47.975,229.905 47.875 C 230.287 47.775,229.880 47.696,229.000 47.701 C 228.120 47.705,227.807 47.787,228.305 47.883 M164.400 48.818 C 163.962 49.115,164.124 49.152,165.000 48.956 C 166.471 48.627,166.790 48.398,165.767 48.406 C 165.345 48.409,164.730 48.595,164.400 48.818 M175.633 48.544 C 175.725 48.623,176.340 48.808,177.000 48.956 C 177.876 49.152,178.038 49.115,177.600 48.818 C 177.060 48.453,175.232 48.198,175.633 48.544 M222.400 48.818 C 221.962 49.115,222.124 49.152,223.000 48.956 C 224.471 48.627,224.790 48.398,223.767 48.406 C 223.345 48.409,222.730 48.595,222.400 48.818 M233.633 48.544 C 233.725 48.623,234.340 48.808,235.000 48.956 C 235.876 49.152,236.038 49.115,235.600 48.818 C 235.060 48.453,233.232 48.198,233.633 48.544 M156.181 54.100 L 154.600 55.800 156.300 54.219 C 157.881 52.748,158.184 52.400,157.881 52.400 C 157.816 52.400,157.051 53.165,156.181 54.100 M185.200 53.800 C 185.946 54.570,186.647 55.200,186.757 55.200 C 186.867 55.200,186.346 54.570,185.600 53.800 C 184.854 53.030,184.153 52.400,184.043 52.400 C 183.933 52.400,184.454 53.030,185.200 53.800 M214.378 53.900 L 213.000 55.400 214.500 54.022 C 215.896 52.738,216.184 52.400,215.878 52.400 C 215.812 52.400,215.137 53.075,214.378 53.900 M243.400 54.000 C 244.259 54.880,245.052 55.600,245.162 55.600 C 245.272 55.600,244.659 54.880,243.800 54.000 C 242.941 53.120,242.148 52.400,242.038 52.400 C 241.928 52.400,242.541 53.120,243.400 54.000 M187.215 55.800 C 187.217 56.020,187.586 56.650,188.036 57.200 C 188.579 57.864,188.715 57.931,188.440 57.400 C 187.766 56.095,187.212 55.372,187.215 55.800 M170.105 59.887 C 170.714 59.979,171.614 59.977,172.105 59.882 C 172.597 59.787,172.100 59.711,171.000 59.714 C 169.900 59.717,169.497 59.795,170.105 59.887 M228.300 59.882 C 228.795 59.978,229.605 59.978,230.100 59.882 C 230.595 59.787,230.190 59.709,229.200 59.709 C 228.210 59.709,227.805 59.787,228.300 59.882 M164.607 62.393 C 163.752 63.269,163.130 64.045,163.226 64.118 C 163.322 64.191,164.098 63.474,164.952 62.525 C 166.901 60.359,166.677 60.273,164.607 62.393 M176.800 62.200 C 177.546 62.970,178.247 63.600,178.357 63.600 C 178.467 63.600,177.946 62.970,177.200 62.200 C 176.454 61.430,175.753 60.800,175.643 60.800 C 175.533 60.800,176.054 61.430,176.800 62.200 M222.778 62.300 L 221.400 63.800 222.900 62.422 C 224.296 61.138,224.584 60.800,224.278 60.800 C 224.212 60.800,223.537 61.475,222.778 62.300 M191.334 67.600 C 191.334 69.250,191.405 69.925,191.491 69.100 C 191.578 68.275,191.578 66.925,191.491 66.100 C 191.405 65.275,191.334 65.950,191.334 67.600 M150.557 70.800 C 150.557 73.770,150.620 74.985,150.697 73.500 C 150.774 72.015,150.774 69.585,150.697 68.100 C 150.620 66.615,150.557 67.830,150.557 70.800 M208.524 67.800 C 208.526 69.120,208.601 69.612,208.690 68.893 C 208.779 68.174,208.777 67.094,208.686 66.493 C 208.595 65.892,208.522 66.480,208.524 67.800 M249.357 70.800 C 249.357 73.770,249.420 74.985,249.497 73.500 C 249.574 72.015,249.574 69.585,249.497 68.100 C 249.420 66.615,249.357 67.830,249.357 70.800 M179.701 68.200 C 179.705 69.080,179.787 69.393,179.883 68.895 C 179.979 68.398,179.975 67.678,179.875 67.295 C 179.775 66.913,179.696 67.320,179.701 68.200 M220.093 68.800 C 220.093 69.570,220.175 69.885,220.276 69.500 C 220.376 69.115,220.376 68.485,220.276 68.100 C 220.175 67.715,220.093 68.030,220.093 68.800 M237.675 71.600 C 237.664 73.690,237.788 75.734,237.948 76.143 C 238.109 76.552,238.177 75.112,238.099 72.943 C 237.907 67.618,237.697 66.952,237.675 71.600 M189.438 72.495 C 187.962 74.035,188.128 74.229,189.737 72.844 C 190.373 72.296,191.440 70.738,191.114 70.833 C 191.051 70.852,190.297 71.599,189.438 72.495 M161.850 75.250 C 161.517 76.917,161.840 77.240,162.200 75.600 C 162.352 74.909,162.393 74.259,162.291 74.158 C 162.189 74.056,161.991 74.547,161.850 75.250 M184.700 74.282 C 185.195 74.378,186.005 74.378,186.500 74.282 C 186.995 74.187,186.590 74.109,185.600 74.109 C 184.610 74.109,184.205 74.187,184.700 74.282 M213.500 74.282 C 213.995 74.378,214.805 74.378,215.300 74.282 C 215.795 74.187,215.390 74.109,214.400 74.109 C 213.410 74.109,213.005 74.187,213.500 74.282 M196.700 178.298 C 198.515 178.372,201.485 178.372,203.300 178.298 C 205.115 178.223,203.630 178.163,200.000 178.163 C 196.370 178.163,194.885 178.223,196.700 178.298 M189.200 178.800 C 187.843 179.086,187.837 179.095,189.000 179.107 C 189.660 179.115,190.650 178.976,191.200 178.800 C 192.512 178.380,191.196 178.380,189.200 178.800 M208.800 178.780 C 209.799 179.120,212.282 179.332,211.967 179.051 C 211.875 178.969,210.900 178.799,209.800 178.672 C 208.451 178.516,208.126 178.551,208.800 178.780 M184.600 179.600 C 183.511 179.877,183.493 179.907,184.400 179.925 C 184.950 179.935,185.760 179.789,186.200 179.600 C 187.186 179.176,186.266 179.176,184.600 179.600 M213.800 179.581 C 214.568 179.929,216.710 180.156,216.367 179.853 C 216.275 179.772,215.480 179.596,214.600 179.462 C 213.485 179.293,213.242 179.329,213.800 179.581 M181.600 180.400 C 180.776 180.664,180.741 180.726,181.400 180.754 C 181.840 180.773,182.470 180.613,182.800 180.400 C 183.501 179.947,183.014 179.947,181.600 180.400 M217.200 180.382 C 217.530 180.605,218.145 180.791,218.567 180.794 C 219.590 180.802,219.271 180.573,217.800 180.244 C 216.924 180.048,216.762 180.085,217.200 180.382 M176.919 181.762 C 176.215 182.018,175.516 182.351,175.365 182.502 C 175.063 182.804,176.836 182.316,178.400 181.666 C 179.762 181.100,178.515 181.181,176.919 181.762 M224.226 182.565 C 226.244 183.444,227.526 183.659,225.800 182.829 C 224.920 182.406,223.930 182.053,223.600 182.045 C 223.270 182.038,223.552 182.272,224.226 182.565 M230.400 185.200 C 231.170 185.622,231.980 185.966,232.200 185.966 C 232.420 185.966,231.970 185.622,231.200 185.200 C 230.430 184.778,229.620 184.434,229.400 184.434 C 229.180 184.434,229.630 184.778,230.400 185.200 M232.800 186.179 C 232.800 186.289,233.340 186.659,234.000 187.000 C 234.660 187.341,235.200 187.531,235.200 187.421 C 235.200 187.311,234.660 186.941,234.000 186.600 C 233.340 186.259,232.800 186.069,232.800 186.179 M238.400 189.324 C 238.400 189.417,239.165 189.998,240.100 190.615 C 241.035 191.232,241.589 191.480,241.331 191.168 C 240.834 190.567,238.400 189.036,238.400 189.324 M244.540 193.503 C 244.696 193.756,245.391 194.367,246.084 194.860 C 246.777 195.354,247.217 195.550,247.060 195.297 C 246.904 195.044,246.209 194.433,245.516 193.940 C 244.823 193.446,244.383 193.250,244.540 193.503 M151.600 196.434 L 149.800 198.065 151.700 196.584 C 153.366 195.286,153.859 194.797,153.500 194.801 C 153.445 194.802,152.590 195.536,151.600 196.434 M247.633 196.100 C 247.725 196.155,248.340 196.650,249.000 197.200 L 250.200 198.200 249.230 197.100 C 248.697 196.495,248.082 196.000,247.864 196.000 C 247.645 196.000,247.542 196.045,247.633 196.100 M147.177 200.310 L 145.000 202.600 147.192 200.600 C 148.397 199.500,149.462 198.555,149.558 198.500 C 149.655 198.445,149.648 198.314,149.543 198.210 C 149.439 198.105,148.374 199.050,147.177 200.310 M252.400 200.200 C 253.595 201.410,254.663 202.400,254.773 202.400 C 254.883 202.400,253.995 201.410,252.800 200.200 C 251.605 198.990,250.537 198.000,250.427 198.000 C 250.317 198.000,251.205 198.990,252.400 200.200 M140.368 207.100 C 138.009 209.743,137.474 210.400,137.682 210.400 C 137.803 210.400,138.749 209.410,139.782 208.200 C 141.696 205.960,142.155 205.098,140.368 207.100 M260.800 208.925 C 260.800 208.994,261.373 209.579,262.074 210.225 L 263.349 211.400 262.374 210.122 C 261.547 209.037,260.800 208.469,260.800 208.925 M135.126 213.300 C 133.571 215.229,131.654 218.005,132.294 217.400 C 132.938 216.792,136.845 211.600,136.659 211.600 C 136.570 211.600,135.880 212.365,135.126 213.300 M264.396 213.194 C 265.090 214.071,265.867 214.918,266.123 215.076 C 266.378 215.234,265.893 214.516,265.045 213.481 C 264.197 212.447,263.420 211.600,263.318 211.600 C 263.216 211.600,263.701 212.318,264.396 213.194 M268.400 218.120 C 268.400 218.504,270.445 221.600,270.699 221.600 C 270.878 221.600,270.241 220.519,268.939 218.611 C 268.642 218.177,268.400 217.956,268.400 218.120 M273.215 225.800 C 273.217 226.020,273.586 226.650,274.036 227.200 C 274.579 227.864,274.715 227.931,274.440 227.400 C 273.766 226.095,273.212 225.372,273.215 225.800 M116.438 245.300 C 116.249 245.795,115.804 246.897,115.448 247.749 C 114.744 249.431,114.609 250.167,115.185 249.185 C 115.791 248.149,117.201 244.400,116.984 244.400 C 116.872 244.400,116.626 244.805,116.438 245.300 M113.858 251.704 C 112.928 254.140,113.080 254.604,114.036 252.247 C 114.472 251.173,114.758 250.224,114.672 250.138 C 114.586 250.052,114.220 250.757,113.858 251.704 M285.617 251.032 C 285.608 251.270,286.042 252.530,286.583 253.832 C 287.124 255.134,287.574 256.006,287.583 255.768 C 287.592 255.530,287.158 254.270,286.617 252.968 C 286.076 251.666,285.626 250.794,285.617 251.032 M287.815 257.300 C 288.712 260.305,289.321 262.012,289.451 261.882 C 289.642 261.691,287.987 256.400,287.736 256.400 C 287.631 256.400,287.667 256.805,287.815 257.300 M291.206 268.633 C 291.209 269.055,291.395 269.670,291.618 270.000 C 291.915 270.438,291.952 270.276,291.756 269.400 C 291.427 267.929,291.198 267.610,291.206 268.633 M292.006 271.833 C 292.009 272.255,292.195 272.870,292.418 273.200 C 292.715 273.638,292.752 273.476,292.556 272.600 C 292.227 271.129,291.998 270.810,292.006 271.833 M292.806 275.033 C 292.809 275.455,292.995 276.070,293.218 276.400 C 293.515 276.838,293.552 276.676,293.356 275.800 C 293.027 274.329,292.798 274.010,292.806 275.033 M106.846 275.067 C 106.821 275.324,106.684 275.864,106.541 276.267 C 106.340 276.836,106.394 276.897,106.779 276.542 C 107.052 276.291,107.189 275.751,107.084 275.342 C 106.979 274.934,106.872 274.810,106.846 275.067 M105.850 279.650 C 105.517 281.317,105.840 281.640,106.200 280.000 C 106.352 279.309,106.393 278.659,106.291 278.558 C 106.189 278.456,105.991 278.947,105.850 279.650 M293.606 279.033 C 293.609 279.455,293.795 280.070,294.018 280.400 C 294.315 280.838,294.352 280.676,294.156 279.800 C 293.827 278.329,293.598 278.010,293.606 279.033 M105.050 283.650 C 104.717 285.317,105.040 285.640,105.400 284.000 C 105.552 283.309,105.593 282.659,105.491 282.558 C 105.389 282.456,105.191 282.947,105.050 283.650 M294.406 283.033 C 294.409 283.455,294.595 284.070,294.818 284.400 C 295.115 284.838,295.152 284.676,294.956 283.800 C 294.627 282.329,294.398 282.010,294.406 283.033 M295.246 287.600 C 295.227 288.150,295.387 288.870,295.600 289.200 C 296.094 289.964,296.094 289.142,295.600 287.600 L 295.280 286.600 295.246 287.600 M104.250 288.450 C 103.917 290.117,104.240 290.440,104.600 288.800 C 104.752 288.109,104.793 287.459,104.691 287.358 C 104.589 287.256,104.391 287.747,104.250 288.450 M296.051 292.600 C 296.048 293.040,296.195 294.120,296.377 295.000 L 296.708 296.600 296.726 295.000 C 296.736 294.120,296.589 293.040,296.400 292.600 L 296.056 291.800 296.051 292.600 M103.418 294.618 C 103.265 295.639,103.222 296.555,103.322 296.655 C 103.422 296.755,103.629 296.002,103.782 294.982 C 103.935 293.961,103.978 293.045,103.878 292.945 C 103.778 292.845,103.571 293.598,103.418 294.618 M297.081 301.600 C 297.203 303.470,297.370 305.075,297.451 305.167 C 297.733 305.482,297.505 300.598,297.182 299.400 C 296.989 298.684,296.948 299.571,297.081 301.600 M102.640 301.840 C 102.490 303.303,102.449 304.582,102.548 304.682 C 102.648 304.781,102.857 303.671,103.013 302.213 C 103.169 300.756,103.211 299.477,103.105 299.372 C 102.999 299.266,102.790 300.377,102.640 301.840 M297.800 319.600 C 297.800 325.870,297.911 329.650,298.048 328.000 C 298.184 326.350,298.295 322.570,298.295 319.600 C 298.295 316.630,298.184 312.850,298.048 311.200 C 297.911 309.550,297.800 313.330,297.800 319.600 M102.173 319.800 C 102.173 325.080,102.230 327.185,102.299 324.477 C 102.368 321.769,102.368 317.449,102.299 314.877 C 102.229 312.305,102.172 314.520,102.173 319.800 M286.200 333.200 C 285.696 333.417,285.622 333.544,286.000 333.544 C 286.330 333.544,286.960 333.389,287.400 333.200 C 287.904 332.983,287.978 332.856,287.600 332.856 C 287.270 332.856,286.640 333.011,286.200 333.200 M295.400 333.200 C 295.840 333.389,296.560 333.538,297.000 333.532 C 297.643 333.523,297.604 333.457,296.800 333.200 C 295.432 332.762,294.381 332.762,295.400 333.200 M265.387 346.100 L 263.000 348.600 265.500 346.213 C 266.875 344.899,268.000 343.774,268.000 343.713 C 268.000 343.417,267.605 343.778,265.387 346.100 M248.276 382.123 C 248.048 382.970,247.764 383.216,247.124 383.123 C 246.657 383.055,246.198 383.225,246.104 383.500 C 245.875 384.170,247.212 384.117,248.132 383.420 C 248.576 383.083,248.808 382.498,248.722 381.932 C 248.586 381.047,248.564 381.056,248.276 382.123 M151.200 382.338 C 151.200 382.896,152.615 384.000,153.331 384.000 C 153.699 384.000,154.000 383.820,154.000 383.600 C 154.000 383.380,153.634 383.200,153.187 383.200 C 152.741 383.200,152.271 382.930,152.145 382.600 C 151.900 381.963,151.200 381.769,151.200 382.338 M154.800 383.892 C 155.130 384.017,155.525 384.313,155.678 384.548 C 156.038 385.102,156.565 384.591,156.216 384.027 C 156.071 383.792,155.558 383.614,155.076 383.632 C 154.480 383.653,154.392 383.736,154.800 383.892 M243.867 383.867 C 243.458 384.275,243.549 384.800,244.029 384.800 C 244.264 384.800,244.727 384.530,245.057 384.200 C 245.590 383.667,245.572 383.600,244.895 383.600 C 244.476 383.600,244.013 383.720,243.867 383.867 M241.600 385.000 C 241.600 385.330,241.703 385.600,241.829 385.600 C 241.954 385.600,242.327 385.330,242.657 385.000 C 243.190 384.467,243.165 384.400,242.429 384.400 C 241.959 384.400,241.600 384.660,241.600 385.000 M156.800 385.200 C 156.800 385.420,157.160 385.600,157.600 385.600 C 158.040 385.600,158.400 385.420,158.400 385.200 C 158.400 384.980,158.040 384.800,157.600 384.800 C 157.160 384.800,156.800 384.980,156.800 385.200 M159.480 385.453 C 158.918 386.015,159.224 386.400,160.233 386.400 C 160.882 386.400,161.205 386.214,161.100 385.900 C 160.908 385.322,159.892 385.041,159.480 385.453 M239.480 385.453 C 238.934 386.000,239.211 386.454,240.016 386.328 C 240.465 386.258,240.834 386.020,240.837 385.800 C 240.843 385.313,239.869 385.064,239.480 385.453 M161.600 386.600 C 161.600 386.997,161.997 387.200,162.776 387.200 C 163.423 387.200,164.064 387.380,164.200 387.600 C 164.568 388.196,166.502 388.104,166.297 387.500 C 166.203 387.225,165.619 387.000,164.998 387.000 C 164.378 387.000,163.794 386.775,163.702 386.500 C 163.458 385.776,161.600 385.865,161.600 386.600 M236.800 386.600 C 236.800 386.930,236.903 387.200,237.029 387.200 C 237.154 387.200,237.527 386.930,237.857 386.600 C 238.390 386.067,238.365 386.000,237.629 386.000 C 237.159 386.000,236.800 386.260,236.800 386.600 M234.000 387.400 C 234.000 387.733,234.356 388.000,234.800 388.000 C 235.244 388.000,235.600 387.733,235.600 387.400 C 235.600 387.067,235.244 386.800,234.800 386.800 C 234.356 386.800,234.000 387.067,234.000 387.400 M167.506 387.883 C 168.004 387.979,168.309 388.224,168.182 388.429 C 168.056 388.633,168.323 388.800,168.776 388.800 C 169.242 388.800,169.600 388.539,169.600 388.200 C 169.600 387.764,169.191 387.615,168.100 387.654 C 167.160 387.689,166.938 387.774,167.506 387.883 M230.800 388.200 C 230.800 388.539,231.158 388.800,231.624 388.800 C 232.077 388.800,232.344 388.634,232.219 388.430 C 232.093 388.227,232.307 387.978,232.695 387.877 C 233.083 387.776,232.815 387.672,232.100 387.646 C 231.190 387.614,230.800 387.780,230.800 388.200 M170.498 388.657 C 169.598 389.035,170.412 389.600,171.857 389.600 C 172.806 389.600,173.213 389.436,173.102 389.100 C 172.929 388.571,171.343 388.301,170.498 388.657 M227.600 389.000 C 227.600 389.330,227.883 389.600,228.229 389.600 C 228.574 389.600,229.127 389.330,229.457 389.000 C 229.990 388.467,229.921 388.400,228.829 388.400 C 228.003 388.400,227.600 388.597,227.600 389.000 M174.706 389.483 C 175.204 389.579,175.509 389.824,175.382 390.029 C 175.256 390.233,175.613 390.400,176.176 390.400 C 176.820 390.400,177.200 390.177,177.200 389.800 C 177.200 389.352,176.769 389.214,175.500 389.254 C 174.565 389.284,174.208 389.387,174.706 389.483 M223.455 389.800 C 223.297 390.212,223.480 390.400,224.041 390.400 C 224.490 390.400,225.127 390.130,225.457 389.800 C 225.990 389.267,225.925 389.200,224.871 389.200 C 224.186 389.200,223.588 389.453,223.455 389.800 M177.846 390.474 C 177.961 390.661,178.210 390.717,178.400 390.600 C 178.590 390.483,178.842 390.544,178.961 390.736 C 179.079 390.928,179.993 391.086,180.990 391.086 C 182.500 391.086,182.725 390.992,182.338 390.525 C 181.830 389.913,177.469 389.864,177.846 390.474 M218.667 390.267 C 218.098 390.836,218.449 391.200,219.567 391.200 C 220.973 391.200,222.000 390.844,222.000 390.357 C 222.000 389.946,219.067 389.866,218.667 390.267 M183.800 391.200 C 183.936 391.420,185.037 391.600,186.247 391.600 C 187.612 391.600,188.353 391.448,188.200 391.200 C 188.064 390.980,186.963 390.800,185.753 390.800 C 184.388 390.800,183.647 390.952,183.800 391.200 M212.000 391.223 C 212.000 391.487,212.902 391.600,214.399 391.523 C 217.515 391.363,217.516 390.800,214.400 390.800 C 212.980 390.800,212.000 390.973,212.000 391.223 M196.400 392.000 C 196.400 392.239,197.933 392.400,200.200 392.400 C 202.467 392.400,204.000 392.239,204.000 392.000 C 204.000 391.761,202.467 391.600,200.200 391.600 C 197.933 391.600,196.400 391.761,196.400 392.000 " stroke="none" fill="#acb4b4" fill-rule="evenodd"></path><path id="path5" d="M150.144 71.200 C 150.144 73.290,150.212 74.145,150.294 73.100 C 150.376 72.055,150.376 70.345,150.294 69.300 C 150.212 68.255,150.144 69.110,150.144 71.200 M249.744 71.200 C 249.744 73.290,249.812 74.145,249.894 73.100 C 249.976 72.055,249.976 70.345,249.894 69.300 C 249.812 68.255,249.744 69.110,249.744 71.200 M298.093 326.800 C 298.093 327.570,298.175 327.885,298.276 327.500 C 298.376 327.115,298.376 326.485,298.276 326.100 C 298.175 325.715,298.093 326.030,298.093 326.800 M192.800 392.000 C 192.800 392.220,193.610 392.400,194.600 392.400 C 195.590 392.400,196.400 392.220,196.400 392.000 C 196.400 391.780,195.590 391.600,194.600 391.600 C 193.610 391.600,192.800 391.780,192.800 392.000 M204.000 392.000 C 204.000 392.220,204.709 392.400,205.576 392.400 C 206.443 392.400,207.264 392.220,207.400 392.000 C 207.551 391.756,206.937 391.600,205.824 391.600 C 204.821 391.600,204.000 391.780,204.000 392.000 " stroke="none" fill="#9caca8" fill-rule="evenodd"></path><path id="path6" d="M197.300 85.897 C 198.785 85.974,201.215 85.974,202.700 85.897 C 204.185 85.820,202.970 85.757,200.000 85.757 C 197.030 85.757,195.815 85.820,197.300 85.897 M189.600 86.795 C 189.191 87.055,189.510 87.099,190.600 86.932 C 192.577 86.629,192.914 86.398,191.367 86.406 C 190.725 86.409,189.930 86.584,189.600 86.795 M208.100 86.676 C 208.485 86.776,209.115 86.776,209.500 86.676 C 209.885 86.575,209.570 86.493,208.800 86.493 C 208.030 86.493,207.715 86.575,208.100 86.676 M210.800 87.182 C 211.130 87.405,211.745 87.591,212.167 87.594 C 213.190 87.602,212.871 87.373,211.400 87.044 C 210.524 86.848,210.362 86.885,210.800 87.182 M237.600 97.725 C 237.600 97.794,238.185 98.379,238.900 99.025 L 240.200 100.200 239.025 98.900 C 237.930 97.688,237.600 97.416,237.600 97.725 M157.843 104.633 C 157.506 105.509,157.549 108.501,157.906 109.062 C 158.068 109.316,158.200 108.281,158.200 106.762 C 158.200 103.741,158.195 103.714,157.843 104.633 M241.800 106.800 C 241.800 108.298,241.935 109.440,242.100 109.338 C 242.486 109.100,242.481 105.146,242.094 104.538 C 241.932 104.284,241.800 105.302,241.800 106.800 M164.800 118.600 C 167.543 121.350,169.878 123.600,169.988 123.600 C 170.098 123.600,167.943 121.350,165.200 118.600 C 162.457 115.850,160.122 113.600,160.012 113.600 C 159.902 113.600,162.057 115.850,164.800 118.600 M230.992 122.500 L 227.400 126.200 231.100 122.608 C 233.135 120.633,234.800 118.968,234.800 118.908 C 234.800 118.618,234.328 119.064,230.992 122.500 M177.000 130.400 C 179.854 133.260,182.278 135.600,182.388 135.600 C 182.498 135.600,180.254 133.260,177.400 130.400 C 174.546 127.540,172.122 125.200,172.012 125.200 C 171.902 125.200,174.146 127.540,177.000 130.400 M219.993 133.100 L 215.400 137.800 220.100 133.207 C 224.466 128.940,224.982 128.400,224.693 128.400 C 224.635 128.400,222.520 130.515,219.993 133.100 M189.400 142.400 C 191.150 144.160,192.671 145.600,192.781 145.600 C 192.891 145.600,191.550 144.160,189.800 142.400 C 188.050 140.640,186.529 139.200,186.419 139.200 C 186.309 139.200,187.650 140.640,189.400 142.400 M208.421 144.078 C 207.003 145.425,206.126 146.364,206.473 146.164 C 207.647 145.486,211.677 141.565,211.149 141.614 C 211.067 141.622,209.840 142.730,208.421 144.078 M202.600 147.600 L 201.400 147.905 202.476 147.953 C 203.068 147.979,203.664 147.820,203.800 147.600 C 203.936 147.380,203.992 147.221,203.924 147.247 C 203.856 147.273,203.260 147.432,202.600 147.600 M198.700 177.489 C 199.415 177.578,200.585 177.578,201.300 177.489 C 202.015 177.401,201.430 177.328,200.000 177.328 C 198.570 177.328,197.985 177.401,198.700 177.489 M253.600 200.600 C 254.346 201.370,255.047 202.000,255.157 202.000 C 255.267 202.000,254.746 201.370,254.000 200.600 C 253.254 199.830,252.553 199.200,252.443 199.200 C 252.333 199.200,252.854 199.830,253.600 200.600 M296.093 289.200 C 296.093 289.970,296.175 290.285,296.276 289.900 C 296.376 289.515,296.376 288.885,296.276 288.500 C 296.175 288.115,296.093 288.430,296.093 289.200 M296.924 294.600 C 296.926 295.920,297.001 296.412,297.090 295.693 C 297.179 294.974,297.177 293.894,297.086 293.293 C 296.995 292.692,296.922 293.280,296.924 294.600 M297.737 302.200 C 297.739 303.960,297.809 304.630,297.893 303.689 C 297.978 302.749,297.977 301.309,297.891 300.489 C 297.805 299.670,297.736 300.440,297.737 302.200 M102.093 302.400 C 102.093 303.170,102.175 303.485,102.276 303.100 C 102.376 302.715,102.376 302.085,102.276 301.700 C 102.175 301.315,102.093 301.630,102.093 302.400 M298.570 319.600 C 298.570 324.330,298.628 326.265,298.698 323.900 C 298.769 321.535,298.769 317.665,298.698 315.300 C 298.628 312.935,298.570 314.870,298.570 319.600 " stroke="none" fill="#827d52" fill-rule="evenodd"></path><path id="path7" d="M193.400 86.418 C 192.684 86.611,193.571 86.652,195.600 86.519 C 197.470 86.397,199.075 86.230,199.167 86.149 C 199.482 85.867,194.598 86.095,193.400 86.418 M200.833 86.149 C 200.925 86.230,202.530 86.397,204.400 86.519 C 206.429 86.652,207.316 86.611,206.600 86.418 C 205.402 86.095,200.518 85.867,200.833 86.149 M189.400 87.200 L 188.600 87.544 189.400 87.544 C 189.840 87.544,190.560 87.389,191.000 87.200 L 191.800 86.856 191.000 86.856 C 190.560 86.856,189.840 87.011,189.400 87.200 M209.000 87.200 C 210.184 87.709,211.587 87.709,210.800 87.200 C 210.470 86.987,209.750 86.822,209.200 86.834 C 208.284 86.854,208.267 86.885,209.000 87.200 M186.200 88.000 L 185.400 88.344 186.200 88.366 C 186.640 88.378,187.270 88.213,187.600 88.000 C 188.395 87.486,187.396 87.486,186.200 88.000 M212.400 88.000 C 212.730 88.213,213.360 88.378,213.800 88.366 L 214.600 88.344 213.800 88.000 C 212.604 87.486,211.605 87.486,212.400 88.000 M215.020 88.718 C 215.585 89.192,218.430 90.103,218.652 89.882 C 218.757 89.776,217.992 89.400,216.950 89.045 C 214.819 88.319,214.473 88.260,215.020 88.718 M178.200 91.015 C 175.780 91.993,173.440 92.951,173.000 93.144 C 172.560 93.336,171.750 93.679,171.200 93.907 C 170.650 94.134,169.390 94.674,168.400 95.106 C 167.410 95.539,165.880 96.142,165.000 96.446 C 163.203 97.068,159.469 100.526,159.110 101.902 C 158.980 102.397,159.038 102.700,159.237 102.577 C 159.437 102.454,159.600 102.129,159.600 101.855 C 159.600 100.414,163.390 97.495,167.200 96.000 C 168.410 95.526,170.030 94.863,170.800 94.528 C 171.570 94.193,172.560 93.781,173.000 93.613 C 173.440 93.445,174.340 93.079,175.000 92.800 C 175.660 92.521,176.560 92.155,177.000 91.986 C 177.933 91.629,180.959 90.349,182.400 89.703 C 185.035 88.521,182.099 89.438,178.200 91.015 M221.400 91.082 C 221.620 91.301,223.060 91.973,224.600 92.574 C 226.140 93.175,228.030 93.941,228.800 94.274 C 229.570 94.608,230.560 95.035,231.000 95.222 C 239.744 98.945,241.405 100.822,241.395 106.976 C 241.388 111.607,240.978 112.152,228.149 124.600 C 222.028 130.540,214.810 137.560,212.109 140.200 C 208.703 143.530,206.434 145.397,204.700 146.297 C 203.325 147.010,202.470 147.594,202.800 147.593 C 204.767 147.591,207.548 145.220,221.089 132.000 C 224.131 129.030,229.527 123.775,233.080 120.322 C 240.994 112.631,241.788 111.416,241.795 106.976 C 241.803 101.886,237.623 96.000,234.000 96.000 C 233.793 96.000,232.673 95.567,231.512 95.038 C 229.722 94.223,223.584 91.667,221.600 90.911 C 221.200 90.759,221.134 90.816,221.400 91.082 M158.179 105.000 C 157.246 111.221,155.845 109.546,188.320 141.019 C 192.639 145.205,195.906 147.616,197.200 147.574 C 197.530 147.563,196.980 147.159,195.977 146.677 C 193.384 145.429,193.124 145.198,180.243 132.685 C 173.839 126.464,166.780 119.618,164.555 117.472 C 159.398 112.496,158.592 111.008,158.624 106.528 C 158.650 102.743,158.563 102.442,158.179 105.000 M199.100 147.882 C 199.595 147.978,200.405 147.978,200.900 147.882 C 201.395 147.787,200.990 147.709,200.000 147.709 C 199.010 147.709,198.605 147.787,199.100 147.882 M100.119 334.162 C 99.415 334.418,98.695 334.779,98.519 334.964 C 98.155 335.347,99.628 334.948,101.400 334.183 C 102.887 333.542,101.870 333.524,100.119 334.162 M298.220 333.952 C 298.429 334.145,299.320 334.531,300.200 334.810 C 301.080 335.088,302.733 335.740,303.874 336.258 C 305.015 336.776,306.365 337.182,306.874 337.159 C 307.638 337.125,307.590 337.067,306.600 336.829 C 305.940 336.669,304.976 336.311,304.458 336.033 C 303.558 335.549,298.401 333.600,298.022 333.600 C 297.922 333.600,298.011 333.758,298.220 333.952 M95.746 335.995 C 95.056 336.400,94.066 336.813,93.546 336.912 C 92.603 337.091,92.603 337.091,93.600 337.127 C 94.150 337.147,95.410 336.730,96.400 336.200 C 97.390 335.670,97.930 335.241,97.600 335.246 C 97.270 335.252,96.436 335.589,95.746 335.995 " stroke="none" fill="#9c7c34" fill-rule="evenodd"></path></g></svg>
