<svg id="svg" version="1.1" xmlns="http://www.w3.org/2000/svg" xmlns:xlink="http://www.w3.org/1999/xlink"  viewBox="0 -10 512 512"><g id="svgg"><path id="path0" d="M91.400 116.371 C 89.289 117.366,87.997 118.620,86.900 120.738 L 86.000 122.476 86.000 189.405 C 86.000 254.786,86.018 256.376,86.777 258.146 C 87.781 260.490,89.315 262.028,91.782 263.166 L 93.763 264.081 199.691 264.082 C 307.630 264.083,309.200 264.063,309.200 262.713 C 309.200 262.541,309.456 262.400,309.769 262.400 C 310.500 262.400,313.200 259.259,313.200 258.408 C 313.200 258.052,313.425 257.535,313.700 257.260 C 314.096 256.864,314.200 242.811,314.200 189.680 L 314.200 122.600 313.243 120.800 C 312.106 118.664,310.779 117.398,308.600 116.371 C 306.092 115.190,93.908 115.190,91.400 116.371 M304.546 123.629 L 305.600 124.458 305.587 177.529 C 305.574 233.739,305.656 231.307,303.726 232.335 C 303.069 232.685,277.394 232.800,199.857 232.800 L 96.861 232.800 95.631 231.764 L 94.400 230.729 94.400 177.593 L 94.400 124.458 95.454 123.629 L 96.508 122.800 200.000 122.800 L 303.492 122.800 304.546 123.629 M208.200 151.294 C 202.662 153.285,198.091 162.400,202.630 162.400 C 203.527 162.400,204.240 162.164,207.126 160.912 C 208.676 160.241,210.416 158.523,211.165 156.926 C 211.456 156.307,211.852 155.487,212.047 155.105 C 212.241 154.723,212.400 153.598,212.400 152.605 L 212.400 150.800 210.900 150.832 C 210.075 150.849,208.860 151.057,208.200 151.294 M187.333 164.357 C 179.311 166.437,173.608 178.379,176.355 187.346 C 176.600 188.146,176.995 189.475,177.233 190.300 C 178.464 194.562,181.216 199.706,184.512 203.906 C 188.537 209.035,193.217 209.704,200.120 206.137 C 201.297 205.530,201.909 205.622,204.600 206.812 C 212.597 210.350,217.202 207.969,222.630 197.490 C 224.612 193.662,224.638 192.949,222.830 191.881 C 216.851 188.349,215.693 177.792,220.649 171.986 C 222.626 169.670,222.713 169.306,221.625 167.923 C 218.765 164.287,210.963 163.033,204.457 165.164 L 201.513 166.128 198.857 165.230 C 195.973 164.256,189.588 163.772,187.333 164.357 M178.400 267.176 C 178.400 268.483,178.220 269.664,178.000 269.800 C 177.780 269.936,177.600 271.016,177.600 272.200 C 177.600 273.384,177.420 274.464,177.200 274.600 C 176.980 274.736,176.800 275.546,176.800 276.400 C 176.800 277.254,176.620 278.064,176.400 278.200 C 176.180 278.336,176.000 278.851,176.000 279.344 C 176.000 279.837,175.841 280.411,175.647 280.620 C 175.452 280.829,174.900 282.170,174.420 283.600 C 173.101 287.530,169.700 294.892,167.738 298.068 L 166.830 299.536 161.682 299.668 C 156.753 299.794,156.472 299.848,155.064 300.923 C 150.479 304.424,151.244 311.290,156.451 313.374 C 159.196 314.472,241.757 314.308,244.104 313.199 C 249.261 310.763,249.197 303.131,243.996 300.342 C 242.876 299.741,241.728 299.600,237.959 299.600 L 233.306 299.600 232.338 298.100 C 230.319 294.970,226.892 287.496,225.323 282.800 C 224.992 281.810,224.559 280.829,224.361 280.620 C 224.162 280.411,224.000 279.837,224.000 279.344 C 224.000 278.851,223.820 278.336,223.600 278.200 C 223.380 278.064,223.200 277.279,223.200 276.456 C 223.200 275.633,223.036 274.789,222.835 274.580 C 222.635 274.371,222.361 273.120,222.227 271.800 C 222.093 270.480,221.882 268.365,221.756 267.100 L 221.529 264.800 199.964 264.800 L 178.400 264.800 178.400 267.176 " stroke="none" fill="#f3f3f5" fill-rule="evenodd"></path><path id="path1" d="M95.854 130.429 L 94.800 131.258 94.800 180.759 L 94.800 230.261 95.726 231.130 L 96.652 232.000 200.110 232.000 L 303.569 232.000 304.384 231.125 C 305.196 230.253,305.200 230.011,305.200 180.754 L 305.200 131.258 304.146 130.429 L 303.092 129.600 200.000 129.600 L 96.908 129.600 95.854 130.429 M212.437 150.837 C 215.812 154.212,207.082 163.961,201.859 162.650 C 197.306 161.508,202.568 152.600,209.000 150.561 C 211.208 149.861,211.483 149.883,212.437 150.837 M195.400 163.830 C 199.844 164.831,200.000 164.877,200.230 165.248 C 200.508 165.699,202.521 165.707,203.020 165.259 C 203.229 165.071,204.210 164.724,205.200 164.487 C 206.190 164.250,207.840 163.844,208.867 163.585 C 212.776 162.600,218.039 164.032,221.300 166.970 C 223.231 168.709,223.190 169.532,221.046 172.165 C 217.682 176.295,217.008 182.147,219.347 186.928 C 220.327 188.930,221.053 189.744,223.989 192.136 C 224.890 192.869,224.970 195.336,224.114 195.968 C 223.940 196.095,223.535 196.740,223.213 197.400 C 221.187 201.554,217.271 206.437,214.719 207.993 C 212.531 209.327,205.262 208.537,203.420 206.766 C 202.935 206.299,200.602 206.292,199.695 206.753 C 195.773 208.749,190.761 209.454,188.695 208.301 C 184.607 206.020,178.805 197.269,176.827 190.400 C 176.542 189.410,176.116 188.189,175.879 187.686 C 175.236 186.317,175.286 177.691,175.947 176.000 C 179.924 165.826,186.365 161.796,195.400 163.830 " stroke="none" fill="#1cabe3" fill-rule="evenodd"></path><path id="path2" d="M183.440 12.335 C 183.318 12.533,181.549 12.727,179.509 12.768 C 177.469 12.808,175.740 13.011,175.667 13.220 C 175.593 13.429,174.389 13.600,172.990 13.600 C 171.592 13.600,170.336 13.780,170.200 14.000 C 170.064 14.220,168.984 14.400,167.800 14.400 C 166.616 14.400,165.536 14.580,165.400 14.800 C 165.264 15.020,164.364 15.200,163.400 15.200 C 162.436 15.200,161.548 15.361,161.426 15.558 C 161.218 15.894,160.189 16.106,156.100 16.653 C 155.165 16.778,154.400 17.042,154.400 17.240 C 154.400 17.438,153.781 17.600,153.024 17.600 C 152.267 17.600,151.536 17.780,151.400 18.000 C 151.264 18.220,150.623 18.400,149.976 18.400 C 149.329 18.400,148.800 18.580,148.800 18.800 C 148.800 19.020,148.170 19.200,147.400 19.200 C 146.630 19.200,146.000 19.380,146.000 19.600 C 146.000 19.820,145.460 20.000,144.800 20.000 C 144.140 20.000,143.600 20.180,143.600 20.400 C 143.600 20.620,143.060 20.800,142.400 20.800 C 141.740 20.800,141.200 20.980,141.200 21.200 C 141.200 21.420,140.660 21.600,140.000 21.600 C 139.340 21.600,138.800 21.780,138.800 22.000 C 138.800 22.220,138.260 22.400,137.600 22.400 C 136.940 22.400,136.400 22.580,136.400 22.800 C 136.400 23.020,135.860 23.200,135.200 23.200 C 134.540 23.200,134.000 23.380,134.000 23.600 C 134.000 23.820,133.640 24.000,133.200 24.000 C 132.760 24.000,132.400 24.180,132.400 24.400 C 132.400 24.620,131.860 24.800,131.200 24.800 C 130.540 24.800,130.000 24.980,130.000 25.200 C 130.000 25.420,129.640 25.600,129.200 25.600 C 128.760 25.600,128.400 25.780,128.400 26.000 C 128.400 26.220,127.950 26.400,127.400 26.400 C 126.850 26.400,126.400 26.564,126.400 26.765 C 126.400 26.966,125.680 27.251,124.800 27.400 C 123.920 27.549,123.200 27.834,123.200 28.035 C 123.200 28.236,122.921 28.400,122.581 28.400 C 122.240 28.400,121.216 28.760,120.306 29.200 C 119.395 29.640,118.429 30.000,118.158 30.000 C 117.888 30.000,117.607 30.136,117.533 30.302 C 117.460 30.468,116.140 31.232,114.600 32.000 C 113.060 32.768,111.740 33.532,111.667 33.698 C 111.593 33.864,111.228 34.000,110.855 34.000 C 110.482 34.000,109.917 34.360,109.600 34.800 C 109.283 35.240,108.703 35.600,108.312 35.600 C 107.920 35.600,107.600 35.780,107.600 36.000 C 107.600 36.220,107.240 36.400,106.800 36.400 C 106.360 36.400,106.000 36.580,106.000 36.800 C 106.000 37.020,105.680 37.200,105.288 37.200 C 104.897 37.200,104.317 37.560,104.000 38.000 C 103.683 38.440,103.103 38.800,102.712 38.800 C 102.320 38.800,102.000 38.980,102.000 39.200 C 102.000 39.420,101.680 39.600,101.288 39.600 C 100.897 39.600,100.317 39.960,100.000 40.400 C 99.683 40.840,99.143 41.200,98.800 41.200 C 98.457 41.200,97.917 41.560,97.600 42.000 C 97.283 42.440,96.703 42.800,96.312 42.800 C 95.920 42.800,95.600 42.980,95.600 43.200 C 95.600 43.420,95.349 43.600,95.042 43.600 C 94.736 43.600,93.907 44.140,93.200 44.800 C 92.493 45.460,91.763 46.000,91.576 46.000 C 91.389 46.000,90.786 46.450,90.236 47.000 C 89.686 47.550,88.998 48.000,88.706 48.000 C 88.415 48.000,87.917 48.360,87.600 48.800 C 87.283 49.240,86.783 49.600,86.488 49.600 C 86.194 49.600,86.064 49.780,86.200 50.000 C 86.336 50.220,86.149 50.400,85.784 50.400 C 85.419 50.400,84.617 50.940,84.000 51.600 C 83.383 52.260,82.681 52.800,82.440 52.800 C 82.198 52.800,82.000 52.980,82.000 53.200 C 82.000 53.420,81.806 53.600,81.569 53.600 C 81.331 53.600,80.446 54.320,79.600 55.200 C 78.754 56.080,77.954 56.800,77.821 56.800 C 77.688 56.800,76.788 57.565,75.820 58.500 C 74.853 59.435,73.206 60.920,72.160 61.800 C 69.673 63.892,63.731 69.599,64.040 69.599 C 64.271 69.600,62.165 71.933,58.000 76.292 C 56.900 77.443,56.000 78.496,56.000 78.632 C 56.000 78.768,55.460 79.383,54.800 80.000 C 54.140 80.617,53.600 81.319,53.600 81.560 C 53.600 81.802,53.420 82.000,53.200 82.000 C 52.980 82.000,52.800 82.198,52.800 82.440 C 52.800 82.681,52.260 83.383,51.600 84.000 C 50.940 84.617,50.400 85.419,50.400 85.784 C 50.400 86.149,50.220 86.336,50.000 86.200 C 49.780 86.064,49.600 86.152,49.600 86.395 C 49.600 86.638,49.150 87.286,48.600 87.836 C 48.050 88.386,47.600 88.980,47.600 89.156 C 47.600 89.332,47.150 89.999,46.600 90.638 C 46.051 91.277,45.601 91.943,45.600 92.118 C 45.600 92.293,45.150 92.886,44.600 93.436 C 44.050 93.986,43.600 94.698,43.600 95.018 C 43.600 95.338,43.420 95.600,43.200 95.600 C 42.980 95.600,42.800 95.920,42.800 96.312 C 42.800 96.703,42.440 97.283,42.000 97.600 C 41.560 97.917,41.200 98.457,41.200 98.800 C 41.200 99.143,40.840 99.683,40.400 100.000 C 39.960 100.317,39.600 100.897,39.600 101.288 C 39.600 101.680,39.420 102.000,39.200 102.000 C 38.980 102.000,38.800 102.320,38.800 102.712 C 38.800 103.103,38.440 103.683,38.000 104.000 C 37.560 104.317,37.200 104.897,37.200 105.288 C 37.200 105.680,37.020 106.000,36.800 106.000 C 36.580 106.000,36.400 106.360,36.400 106.800 C 36.400 107.240,36.242 107.600,36.049 107.600 C 35.855 107.600,35.473 108.140,35.200 108.800 C 34.927 109.460,34.545 110.000,34.351 110.000 C 34.158 110.000,34.000 110.345,34.000 110.767 C 34.000 111.188,33.864 111.593,33.698 111.667 C 33.532 111.740,32.768 113.060,32.000 114.600 C 31.232 116.140,30.468 117.460,30.302 117.533 C 30.136 117.607,30.000 117.888,30.000 118.158 C 30.000 118.429,29.640 119.395,29.200 120.306 C 28.760 121.216,28.400 122.240,28.400 122.581 C 28.400 122.921,28.236 123.200,28.035 123.200 C 27.834 123.200,27.549 123.920,27.400 124.800 C 27.251 125.680,26.966 126.400,26.765 126.400 C 26.564 126.400,26.400 126.850,26.400 127.400 C 26.400 127.950,26.220 128.400,26.000 128.400 C 25.780 128.400,25.600 128.760,25.600 129.200 C 25.600 129.640,25.420 130.000,25.200 130.000 C 24.980 130.000,24.800 130.540,24.800 131.200 C 24.800 131.860,24.620 132.400,24.400 132.400 C 24.180 132.400,24.000 132.760,24.000 133.200 C 24.000 133.640,23.820 134.000,23.600 134.000 C 23.380 134.000,23.200 134.540,23.200 135.200 C 23.200 135.860,23.020 136.400,22.800 136.400 C 22.580 136.400,22.400 136.940,22.400 137.600 C 22.400 138.260,22.220 138.800,22.000 138.800 C 21.780 138.800,21.600 139.340,21.600 140.000 C 21.600 140.660,21.420 141.200,21.200 141.200 C 20.980 141.200,20.800 141.740,20.800 142.400 C 20.800 143.060,20.620 143.600,20.400 143.600 C 20.180 143.600,20.000 144.140,20.000 144.800 C 20.000 145.460,19.820 146.000,19.600 146.000 C 19.380 146.000,19.200 146.630,19.200 147.400 C 19.200 148.170,19.020 148.800,18.800 148.800 C 18.580 148.800,18.400 149.329,18.400 149.976 C 18.400 150.623,18.220 151.264,18.000 151.400 C 17.780 151.536,17.600 152.267,17.600 153.024 C 17.600 153.781,17.420 154.400,17.200 154.400 C 16.980 154.400,16.800 155.109,16.800 155.976 C 16.800 156.843,16.620 157.664,16.400 157.800 C 16.180 157.936,16.000 158.746,16.000 159.600 C 16.000 160.454,15.820 161.264,15.600 161.400 C 15.380 161.536,15.200 162.436,15.200 163.400 C 15.200 164.364,15.020 165.264,14.800 165.400 C 14.580 165.536,14.400 166.616,14.400 167.800 C 14.400 168.984,14.220 170.064,14.000 170.200 C 13.780 170.336,13.600 171.607,13.600 173.024 C 13.600 174.441,13.437 175.600,13.239 175.600 C 12.591 175.600,12.314 183.087,12.328 200.200 C 12.343 217.644,12.594 224.400,13.228 224.400 C 13.433 224.400,13.600 225.660,13.600 227.200 C 13.600 228.800,13.771 230.000,14.000 230.000 C 14.220 230.000,14.400 230.979,14.400 232.176 C 14.400 233.373,14.580 234.464,14.800 234.600 C 15.020 234.736,15.200 235.636,15.200 236.600 C 15.200 237.564,15.380 238.464,15.600 238.600 C 15.820 238.736,16.000 239.546,16.000 240.400 C 16.000 241.254,16.180 242.064,16.400 242.200 C 16.620 242.336,16.800 243.157,16.800 244.024 C 16.800 244.891,16.980 245.600,17.200 245.600 C 17.420 245.600,17.600 246.219,17.600 246.976 C 17.600 247.733,17.780 248.464,18.000 248.600 C 18.220 248.736,18.400 249.377,18.400 250.024 C 18.400 250.671,18.580 251.200,18.800 251.200 C 19.020 251.200,19.200 251.819,19.200 252.576 C 19.200 253.333,19.380 254.064,19.600 254.200 C 19.820 254.336,20.000 254.876,20.000 255.400 C 20.000 255.924,20.180 256.464,20.400 256.600 C 20.620 256.736,20.800 257.287,20.800 257.824 C 20.800 258.361,20.980 258.800,21.200 258.800 C 21.420 258.800,21.600 259.340,21.600 260.000 C 21.600 260.660,21.780 261.200,22.000 261.200 C 22.220 261.200,22.400 261.740,22.400 262.400 C 22.400 263.060,22.580 263.600,22.800 263.600 C 23.020 263.600,23.200 264.140,23.200 264.800 C 23.200 265.460,23.380 266.000,23.600 266.000 C 23.820 266.000,24.000 266.360,24.000 266.800 C 24.000 267.240,24.180 267.600,24.400 267.600 C 24.620 267.600,24.800 268.140,24.800 268.800 C 24.800 269.460,24.980 270.000,25.200 270.000 C 25.420 270.000,25.600 270.360,25.600 270.800 C 25.600 271.240,25.780 271.600,26.000 271.600 C 26.220 271.600,26.400 271.939,26.400 272.354 C 26.400 272.769,26.669 273.624,26.998 274.254 C 27.326 274.884,27.596 275.715,27.598 276.100 C 27.599 276.485,27.780 276.800,28.000 276.800 C 28.220 276.800,28.400 277.079,28.400 277.419 C 28.400 277.760,28.760 278.784,29.200 279.694 C 29.640 280.605,30.000 281.586,30.000 281.875 C 30.000 282.164,30.135 282.401,30.300 282.403 C 30.659 282.407,31.600 284.344,31.600 285.080 C 31.600 285.366,31.735 285.601,31.900 285.601 C 32.065 285.602,32.650 286.592,33.200 287.800 C 33.750 289.008,34.335 289.998,34.500 289.999 C 34.665 289.999,34.800 290.270,34.800 290.600 C 34.800 290.930,34.980 291.200,35.200 291.200 C 35.420 291.200,35.600 291.470,35.600 291.800 C 35.600 292.130,35.780 292.400,36.000 292.400 C 36.220 292.400,36.400 292.760,36.400 293.200 C 36.400 293.640,36.580 294.000,36.800 294.000 C 37.020 294.000,37.200 294.320,37.200 294.712 C 37.200 295.103,37.560 295.683,38.000 296.000 C 38.440 296.317,38.800 296.897,38.800 297.288 C 38.800 297.680,38.980 298.000,39.200 298.000 C 39.420 298.000,39.600 298.320,39.600 298.712 C 39.600 299.103,39.960 299.683,40.400 300.000 C 40.840 300.317,41.200 300.857,41.200 301.200 C 41.200 301.543,41.560 302.083,42.000 302.400 C 42.440 302.717,42.800 303.297,42.800 303.688 C 42.800 304.080,42.980 304.400,43.200 304.400 C 43.420 304.400,43.600 304.640,43.600 304.934 C 43.600 305.446,45.944 308.745,47.200 310.000 C 47.530 310.330,47.856 310.859,47.925 311.175 C 47.994 311.491,48.399 312.052,48.825 312.422 C 49.251 312.791,49.600 313.276,49.600 313.499 C 49.600 313.721,50.320 314.645,51.200 315.552 C 52.080 316.459,52.800 317.352,52.800 317.537 C 52.800 317.722,53.565 318.685,54.500 319.678 C 55.435 320.670,56.650 322.079,57.200 322.808 C 57.750 323.538,58.434 324.329,58.719 324.567 C 59.915 325.564,63.200 329.327,63.200 329.700 C 63.200 329.865,63.481 330.000,63.824 330.000 C 64.167 330.000,64.358 330.144,64.249 330.320 C 63.990 330.739,68.331 335.255,69.200 335.471 C 69.310 335.498,70.781 336.843,72.470 338.460 C 74.158 340.077,76.199 341.940,77.005 342.600 C 77.811 343.260,79.294 344.565,80.299 345.500 C 81.305 346.435,82.278 347.200,82.463 347.200 C 82.648 347.200,83.541 347.920,84.448 348.800 C 85.355 349.680,86.279 350.400,86.501 350.400 C 86.724 350.400,87.209 350.749,87.578 351.175 C 87.948 351.601,88.497 352.006,88.798 352.075 C 89.098 352.144,89.879 352.695,90.532 353.300 C 91.184 353.905,91.922 354.400,92.171 354.400 C 92.420 354.400,92.883 354.760,93.200 355.200 C 93.517 355.640,93.979 356.000,94.226 356.000 C 94.474 356.000,95.002 356.360,95.400 356.800 C 95.798 357.240,96.344 357.600,96.613 357.600 C 96.882 357.600,97.326 357.870,97.600 358.200 C 97.874 358.530,98.396 358.800,98.761 358.800 C 99.125 358.800,99.683 359.160,100.000 359.600 C 100.317 360.040,100.897 360.400,101.288 360.400 C 101.680 360.400,102.000 360.580,102.000 360.800 C 102.000 361.020,102.320 361.200,102.712 361.200 C 103.103 361.200,103.683 361.560,104.000 362.000 C 104.317 362.440,104.897 362.800,105.288 362.800 C 105.680 362.800,106.000 362.980,106.000 363.200 C 106.000 363.420,106.360 363.600,106.800 363.600 C 107.240 363.600,107.600 363.780,107.600 364.000 C 107.600 364.220,107.920 364.400,108.312 364.400 C 108.703 364.400,109.283 364.760,109.600 365.200 C 109.917 365.640,110.482 366.000,110.855 366.000 C 111.228 366.000,111.593 366.136,111.667 366.302 C 111.740 366.468,113.060 367.232,114.600 368.000 C 116.140 368.768,117.460 369.532,117.533 369.698 C 117.607 369.864,117.901 370.000,118.188 370.000 C 118.474 370.000,119.211 370.261,119.826 370.580 C 120.440 370.898,121.091 371.068,121.271 370.956 C 121.452 370.844,121.600 370.943,121.600 371.176 C 121.600 371.409,121.960 371.600,122.400 371.600 C 122.840 371.600,123.200 371.780,123.200 372.000 C 123.200 372.220,123.560 372.400,124.000 372.400 C 124.440 372.400,124.800 372.580,124.800 372.800 C 124.800 373.020,125.072 373.200,125.405 373.200 C 125.738 373.200,126.323 373.365,126.705 373.566 C 128.572 374.551,130.421 375.200,131.360 375.200 C 131.932 375.200,132.400 375.380,132.400 375.600 C 132.400 375.820,132.760 376.000,133.200 376.000 C 133.640 376.000,134.000 376.180,134.000 376.400 C 134.000 376.620,134.540 376.800,135.200 376.800 C 135.860 376.800,136.400 376.980,136.400 377.200 C 136.400 377.420,136.940 377.600,137.600 377.600 C 138.260 377.600,138.800 377.780,138.800 378.000 C 138.800 378.220,139.340 378.400,140.000 378.400 C 140.660 378.400,141.200 378.580,141.200 378.800 C 141.200 379.020,141.740 379.200,142.400 379.200 C 143.060 379.200,143.600 379.380,143.600 379.600 C 143.600 379.820,144.140 380.000,144.800 380.000 C 145.460 380.000,146.000 380.180,146.000 380.400 C 146.000 380.620,146.630 380.800,147.400 380.800 C 148.170 380.800,148.800 380.980,148.800 381.200 C 148.800 381.420,149.329 381.600,149.976 381.600 C 150.623 381.600,151.264 381.780,151.400 382.000 C 151.536 382.220,152.252 382.400,152.990 382.400 C 153.729 382.400,154.393 382.570,154.467 382.779 C 154.540 382.987,155.455 383.200,156.500 383.253 C 157.545 383.306,158.400 383.496,158.400 383.675 C 158.400 383.854,159.019 384.000,159.776 384.000 C 160.533 384.000,161.264 384.180,161.400 384.400 C 161.536 384.620,162.436 384.800,163.400 384.800 C 164.364 384.800,165.264 384.980,165.400 385.200 C 165.536 385.420,166.627 385.600,167.824 385.600 C 169.021 385.600,170.000 385.780,170.000 386.000 C 170.000 386.229,171.200 386.400,172.800 386.400 C 174.400 386.400,175.600 386.571,175.600 386.800 C 175.600 387.036,177.040 387.200,179.120 387.200 C 181.056 387.200,182.824 387.384,183.049 387.609 C 183.888 388.448,224.400 387.628,224.400 386.772 C 224.400 386.567,225.660 386.400,227.200 386.400 C 228.800 386.400,230.000 386.229,230.000 386.000 C 230.000 385.780,230.979 385.600,232.176 385.600 C 233.373 385.600,234.464 385.420,234.600 385.200 C 234.736 384.980,235.636 384.800,236.600 384.800 C 237.564 384.800,238.464 384.620,238.600 384.400 C 238.736 384.180,239.647 384.000,240.624 384.000 C 241.601 384.000,242.400 383.820,242.400 383.600 C 242.400 383.380,243.120 383.200,244.000 383.200 C 244.880 383.200,245.600 383.020,245.600 382.800 C 245.600 382.580,246.219 382.400,246.976 382.400 C 247.733 382.400,248.464 382.220,248.600 382.000 C 248.736 381.780,249.377 381.600,250.024 381.600 C 250.671 381.600,251.200 381.420,251.200 381.200 C 251.200 380.980,251.819 380.800,252.576 380.800 C 253.333 380.800,254.064 380.620,254.200 380.400 C 254.336 380.180,254.876 380.000,255.400 380.000 C 255.924 380.000,256.464 379.820,256.600 379.600 C 256.736 379.380,257.287 379.200,257.824 379.200 C 258.361 379.200,258.800 379.020,258.800 378.800 C 258.800 378.580,259.340 378.400,260.000 378.400 C 260.660 378.400,261.200 378.220,261.200 378.000 C 261.200 377.780,261.740 377.600,262.400 377.600 C 263.060 377.600,263.600 377.420,263.600 377.200 C 263.600 376.980,264.140 376.800,264.800 376.800 C 265.460 376.800,266.000 376.620,266.000 376.400 C 266.000 376.180,266.360 376.000,266.800 376.000 C 267.240 376.000,267.600 375.820,267.600 375.600 C 267.600 375.380,268.068 375.200,268.640 375.200 C 269.579 375.200,271.428 374.551,273.295 373.566 C 273.677 373.365,274.262 373.200,274.595 373.200 C 274.928 373.200,275.200 373.020,275.200 372.800 C 275.200 372.580,275.560 372.400,276.000 372.400 C 276.440 372.400,276.800 372.220,276.800 372.000 C 276.800 371.780,277.239 371.600,277.776 371.600 C 278.313 371.600,278.864 371.420,279.000 371.200 C 279.136 370.980,279.597 370.800,280.024 370.800 C 280.451 370.800,280.800 370.620,280.800 370.400 C 280.800 370.180,281.160 370.000,281.600 370.000 C 282.040 370.000,282.400 369.820,282.400 369.600 C 282.400 369.380,282.760 369.200,283.200 369.200 C 283.640 369.200,284.000 369.020,284.000 368.800 C 284.000 368.580,284.360 368.400,284.800 368.400 C 285.240 368.400,285.600 368.220,285.600 368.000 C 285.600 367.780,285.960 367.600,286.400 367.600 C 286.840 367.600,287.200 367.454,287.200 367.275 C 287.200 367.096,287.830 366.702,288.600 366.400 C 289.370 366.098,290.000 365.704,290.000 365.525 C 290.000 365.346,290.236 365.200,290.525 365.200 C 290.813 365.200,291.436 364.840,291.908 364.400 C 292.380 363.960,293.044 363.600,293.383 363.600 C 293.722 363.600,294.000 363.420,294.000 363.200 C 294.000 362.980,294.320 362.800,294.712 362.800 C 295.103 362.800,295.683 362.440,296.000 362.000 C 296.317 361.560,296.897 361.200,297.288 361.200 C 297.680 361.200,298.000 361.020,298.000 360.800 C 298.000 360.580,298.294 360.400,298.653 360.400 C 299.012 360.400,299.597 360.069,299.953 359.664 C 300.309 359.259,301.095 358.806,301.700 358.656 C 302.305 358.507,302.800 358.208,302.800 357.992 C 302.800 357.777,303.025 357.599,303.300 357.598 C 303.575 357.597,304.749 356.877,305.908 355.998 C 307.068 355.119,308.111 354.400,308.226 354.400 C 308.342 354.400,308.886 353.950,309.436 353.400 C 309.986 352.850,310.600 352.400,310.800 352.400 C 311.000 352.400,311.614 351.950,312.164 351.400 C 312.714 350.850,313.352 350.400,313.582 350.400 C 313.812 350.400,314.000 350.220,314.000 350.000 C 314.000 349.780,314.198 349.600,314.440 349.600 C 314.681 349.600,315.383 349.060,316.000 348.400 C 316.617 347.740,317.333 347.200,317.592 347.200 C 317.851 347.200,318.754 346.480,319.600 345.600 C 320.446 344.720,321.342 344.000,321.592 344.000 C 321.842 344.000,321.936 343.820,321.800 343.600 C 321.664 343.380,321.741 343.200,321.972 343.200 C 322.530 343.200,323.674 342.258,326.407 339.547 C 327.656 338.307,329.071 337.083,329.550 336.827 C 330.030 336.570,330.300 336.161,330.149 335.918 C 329.993 335.666,330.058 335.589,330.301 335.739 C 330.855 336.081,336.081 330.855,335.739 330.301 C 335.594 330.067,335.664 329.992,335.894 330.135 C 336.124 330.277,336.599 329.956,336.950 329.421 C 337.300 328.886,338.535 327.475,339.693 326.285 C 342.328 323.578,343.200 322.506,343.200 321.972 C 343.200 321.741,343.380 321.664,343.600 321.800 C 343.820 321.936,344.000 321.842,344.000 321.592 C 344.000 321.342,344.720 320.446,345.600 319.600 C 346.480 318.754,347.200 317.869,347.200 317.632 C 347.200 317.395,347.920 316.459,348.800 315.552 C 349.680 314.645,350.400 313.737,350.400 313.534 C 350.400 313.330,350.850 312.714,351.400 312.164 C 351.950 311.614,352.400 311.005,352.400 310.810 C 352.400 310.616,352.628 310.219,352.907 309.929 C 353.807 308.992,357.290 304.219,357.526 303.600 C 357.652 303.270,357.990 302.762,358.278 302.471 C 358.565 302.181,358.800 301.635,358.800 301.260 C 358.800 300.884,359.160 300.317,359.600 300.000 C 360.040 299.683,360.400 299.103,360.400 298.712 C 360.400 298.320,360.580 298.000,360.800 298.000 C 361.020 298.000,361.200 297.680,361.200 297.288 C 361.200 296.897,361.560 296.317,362.000 296.000 C 362.440 295.683,362.800 295.103,362.800 294.712 C 362.800 294.320,362.980 294.000,363.200 294.000 C 363.420 294.000,363.600 293.640,363.600 293.200 C 363.600 292.760,363.780 292.400,364.000 292.400 C 364.220 292.400,364.400 292.130,364.400 291.800 C 364.400 291.470,364.580 291.200,364.800 291.200 C 365.020 291.200,365.200 290.930,365.200 290.600 C 365.200 290.270,365.335 289.999,365.500 289.999 C 365.665 289.998,366.250 289.008,366.800 287.800 C 367.350 286.592,367.935 285.602,368.100 285.601 C 368.265 285.601,368.400 285.240,368.400 284.800 C 368.400 284.360,368.580 284.000,368.800 284.000 C 369.020 284.000,369.200 283.640,369.200 283.200 C 369.200 282.760,369.380 282.400,369.600 282.400 C 369.820 282.400,370.000 282.040,370.000 281.600 C 370.000 281.160,370.147 280.800,370.328 280.800 C 370.508 280.800,370.900 279.900,371.200 278.800 C 371.500 277.700,371.892 276.800,372.072 276.800 C 372.253 276.800,372.400 276.440,372.400 276.000 C 372.400 275.560,372.580 275.200,372.800 275.200 C 373.020 275.200,373.200 274.964,373.200 274.675 C 373.200 274.386,373.582 273.359,374.049 272.393 C 374.516 271.426,374.990 269.952,375.102 269.118 C 375.214 268.283,375.462 267.600,375.653 267.600 C 375.844 267.600,376.000 267.240,376.000 266.800 C 376.000 266.360,376.180 266.000,376.400 266.000 C 376.620 266.000,376.800 265.460,376.800 264.800 C 376.800 264.140,376.980 263.600,377.200 263.600 C 377.420 263.600,377.600 263.060,377.600 262.400 C 377.600 261.740,377.780 261.200,378.000 261.200 C 378.220 261.200,378.400 260.660,378.400 260.000 C 378.400 259.340,378.580 258.800,378.800 258.800 C 379.020 258.800,379.200 258.361,379.200 257.824 C 379.200 257.287,379.380 256.736,379.600 256.600 C 379.820 256.464,380.000 255.924,380.000 255.400 C 380.000 254.876,380.180 254.336,380.400 254.200 C 380.620 254.064,380.800 253.333,380.800 252.576 C 380.800 251.819,380.980 251.200,381.200 251.200 C 381.420 251.200,381.600 250.671,381.600 250.024 C 381.600 249.377,381.780 248.736,382.000 248.600 C 382.220 248.464,382.400 247.733,382.400 246.976 C 382.400 246.219,382.580 245.600,382.800 245.600 C 383.020 245.600,383.200 244.891,383.200 244.024 C 383.200 243.157,383.380 242.336,383.600 242.200 C 383.820 242.064,384.000 241.254,384.000 240.400 C 384.000 239.546,384.180 238.736,384.400 238.600 C 384.620 238.464,384.800 237.564,384.800 236.600 C 384.800 235.636,384.980 234.736,385.200 234.600 C 385.420 234.464,385.600 233.373,385.600 232.176 C 385.600 230.979,385.780 230.000,386.000 230.000 C 386.229 230.000,386.400 228.800,386.400 227.200 C 386.400 225.660,386.567 224.400,386.772 224.400 C 387.411 224.400,387.658 217.596,387.658 200.000 C 387.658 182.404,387.411 175.600,386.772 175.600 C 386.567 175.600,386.400 174.340,386.400 172.800 C 386.400 171.200,386.229 170.000,386.000 170.000 C 385.780 170.000,385.600 169.021,385.600 167.824 C 385.600 166.627,385.420 165.536,385.200 165.400 C 384.980 165.264,384.800 164.364,384.800 163.400 C 384.800 162.436,384.620 161.536,384.400 161.400 C 384.180 161.264,384.000 160.454,384.000 159.600 C 384.000 158.746,383.820 157.936,383.600 157.800 C 383.380 157.664,383.200 156.843,383.200 155.976 C 383.200 155.109,383.020 154.400,382.800 154.400 C 382.580 154.400,382.400 153.781,382.400 153.024 C 382.400 152.267,382.220 151.536,382.000 151.400 C 381.780 151.264,381.600 150.623,381.600 149.976 C 381.600 149.329,381.420 148.800,381.200 148.800 C 380.980 148.800,380.800 148.170,380.800 147.400 C 380.800 146.630,380.620 146.000,380.400 146.000 C 380.180 146.000,380.000 145.460,380.000 144.800 C 380.000 144.140,379.820 143.600,379.600 143.600 C 379.380 143.600,379.200 143.060,379.200 142.400 C 379.200 141.740,379.020 141.200,378.800 141.200 C 378.580 141.200,378.400 140.660,378.400 140.000 C 378.400 139.340,378.220 138.800,378.000 138.800 C 377.780 138.800,377.600 138.260,377.600 137.600 C 377.600 136.940,377.420 136.400,377.200 136.400 C 376.980 136.400,376.800 135.860,376.800 135.200 C 376.800 134.540,376.620 134.000,376.400 134.000 C 376.180 134.000,376.000 133.640,376.000 133.200 C 376.000 132.760,375.820 132.400,375.600 132.400 C 375.380 132.400,375.200 131.932,375.200 131.360 C 375.200 130.421,374.551 128.572,373.566 126.705 C 373.365 126.323,373.200 125.738,373.200 125.405 C 373.200 125.072,373.020 124.800,372.800 124.800 C 372.580 124.800,372.400 124.440,372.400 124.000 C 372.400 123.560,372.220 123.200,372.000 123.200 C 371.780 123.200,371.600 122.851,371.600 122.424 C 371.600 121.997,371.420 121.536,371.200 121.400 C 370.980 121.264,370.800 120.713,370.800 120.176 C 370.800 119.639,370.620 119.200,370.400 119.200 C 370.180 119.200,370.000 118.840,370.000 118.400 C 370.000 117.960,369.865 117.599,369.700 117.597 C 369.341 117.593,368.400 115.656,368.400 114.920 C 368.400 114.634,368.254 114.400,368.075 114.400 C 367.896 114.400,367.502 113.770,367.200 113.000 C 366.898 112.230,366.504 111.600,366.325 111.600 C 366.146 111.600,366.000 111.240,366.000 110.800 C 366.000 110.360,365.842 110.000,365.649 110.000 C 365.455 110.000,365.073 109.460,364.800 108.800 C 364.527 108.140,364.145 107.600,363.951 107.600 C 363.758 107.600,363.600 107.240,363.600 106.800 C 363.600 106.360,363.420 106.000,363.200 106.000 C 362.980 106.000,362.800 105.680,362.800 105.288 C 362.800 104.897,362.440 104.317,362.000 104.000 C 361.560 103.683,361.200 103.103,361.200 102.712 C 361.200 102.320,361.020 102.000,360.800 102.000 C 360.580 102.000,360.400 101.680,360.400 101.288 C 360.400 100.897,360.040 100.317,359.600 100.000 C 359.160 99.683,358.800 99.125,358.800 98.761 C 358.800 98.396,358.530 97.874,358.200 97.600 C 357.870 97.326,357.600 96.937,357.600 96.735 C 357.600 96.269,356.020 94.005,355.100 93.154 C 354.715 92.798,354.400 92.347,354.400 92.153 C 354.399 91.959,353.949 91.277,353.400 90.638 C 352.850 89.999,352.400 89.332,352.400 89.156 C 352.400 88.980,351.950 88.386,351.400 87.836 C 350.850 87.286,350.400 86.670,350.400 86.466 C 350.400 86.263,349.680 85.355,348.800 84.448 C 347.920 83.541,347.200 82.615,347.200 82.389 C 347.200 81.813,343.729 78.404,343.439 78.695 C 343.307 78.826,343.200 78.627,343.200 78.252 C 343.200 77.541,342.765 76.999,339.291 73.391 C 338.132 72.186,337.313 71.200,337.472 71.200 C 337.744 71.200,337.225 70.621,333.883 67.200 C 331.934 65.204,328.800 62.383,328.800 62.623 C 328.800 62.797,326.939 61.128,325.457 59.623 C 325.205 59.368,324.662 58.854,324.250 58.480 C 323.837 58.106,323.080 57.395,322.568 56.900 C 322.056 56.405,321.524 56.000,321.387 56.000 C 321.250 56.000,320.446 55.280,319.600 54.400 C 318.754 53.520,317.869 52.800,317.632 52.800 C 317.395 52.800,316.459 52.080,315.552 51.200 C 314.645 50.320,313.695 49.600,313.440 49.600 C 313.185 49.600,312.717 49.240,312.400 48.800 C 312.083 48.360,311.569 48.000,311.259 48.000 C 310.948 48.000,310.403 47.685,310.047 47.300 C 308.923 46.084,305.491 43.600,304.934 43.600 C 304.640 43.600,304.400 43.420,304.400 43.200 C 304.400 42.980,304.080 42.800,303.688 42.800 C 303.297 42.800,302.717 42.440,302.400 42.000 C 302.083 41.560,301.543 41.200,301.200 41.200 C 300.857 41.200,300.317 40.840,300.000 40.400 C 299.683 39.960,299.103 39.600,298.712 39.600 C 298.320 39.600,298.000 39.420,298.000 39.200 C 298.000 38.980,297.764 38.800,297.475 38.800 C 297.187 38.800,296.564 38.440,296.092 38.000 C 295.620 37.560,294.956 37.200,294.617 37.200 C 294.278 37.200,294.000 37.020,294.000 36.800 C 294.000 36.580,293.722 36.400,293.383 36.400 C 293.044 36.400,292.380 36.040,291.908 35.600 C 291.436 35.160,290.813 34.800,290.525 34.800 C 290.236 34.800,289.999 34.665,289.999 34.500 C 289.998 34.335,289.008 33.750,287.800 33.200 C 286.592 32.650,285.602 32.065,285.601 31.900 C 285.601 31.735,285.240 31.600,284.800 31.600 C 284.360 31.600,284.000 31.420,284.000 31.200 C 284.000 30.980,283.640 30.800,283.200 30.800 C 282.760 30.800,282.400 30.620,282.400 30.400 C 282.400 30.180,282.164 30.000,281.875 30.000 C 281.402 30.000,278.753 28.891,277.187 28.036 C 276.850 27.852,275.997 27.575,275.291 27.420 C 274.586 27.265,273.906 26.972,273.781 26.769 C 273.655 26.566,273.103 26.400,272.553 26.400 C 271.988 26.400,271.660 26.226,271.800 26.000 C 271.940 25.773,271.604 25.600,271.024 25.600 C 270.461 25.600,270.000 25.420,270.000 25.200 C 270.000 24.980,269.561 24.800,269.024 24.800 C 268.487 24.800,267.936 24.620,267.800 24.400 C 267.664 24.180,267.203 24.000,266.776 24.000 C 266.349 24.000,266.000 23.820,266.000 23.600 C 266.000 23.380,265.460 23.200,264.800 23.200 C 264.140 23.200,263.600 23.020,263.600 22.800 C 263.600 22.580,263.060 22.400,262.400 22.400 C 261.740 22.400,261.200 22.220,261.200 22.000 C 261.200 21.780,260.660 21.600,260.000 21.600 C 259.340 21.600,258.800 21.420,258.800 21.200 C 258.800 20.980,258.361 20.800,257.824 20.800 C 257.287 20.800,256.736 20.620,256.600 20.400 C 256.464 20.180,255.924 20.000,255.400 20.000 C 254.876 20.000,254.336 19.820,254.200 19.600 C 254.064 19.380,253.333 19.200,252.576 19.200 C 251.819 19.200,251.200 19.020,251.200 18.800 C 251.200 18.580,250.671 18.400,250.024 18.400 C 249.377 18.400,248.736 18.220,248.600 18.000 C 248.464 17.780,247.733 17.600,246.976 17.600 C 246.219 17.600,245.600 17.420,245.600 17.200 C 245.600 16.980,244.689 16.800,243.576 16.800 C 242.329 16.800,241.648 16.647,241.800 16.400 C 241.949 16.159,241.412 16.000,240.447 16.000 C 239.567 16.000,238.736 15.820,238.600 15.600 C 238.464 15.380,237.564 15.200,236.600 15.200 C 235.636 15.200,234.736 15.020,234.600 14.800 C 234.464 14.580,233.384 14.400,232.200 14.400 C 231.016 14.400,229.936 14.220,229.800 14.000 C 229.664 13.780,228.393 13.600,226.976 13.600 C 225.559 13.600,224.400 13.433,224.400 13.228 C 224.400 12.426,183.930 11.543,183.440 12.335 M307.376 115.008 C 311.458 116.246,313.405 118.352,314.764 123.000 C 315.826 126.632,315.040 258.800,313.956 258.800 C 313.760 258.800,313.600 259.035,313.600 259.322 C 313.600 260.103,311.179 262.594,309.382 263.661 L 307.800 264.600 265.260 264.714 L 222.719 264.828 222.946 268.114 C 223.254 272.557,223.610 274.924,224.041 275.380 C 224.238 275.589,224.400 276.343,224.400 277.056 C 224.400 277.769,224.580 278.464,224.800 278.600 C 225.020 278.736,225.200 279.377,225.200 280.024 C 225.200 280.671,225.380 281.200,225.600 281.200 C 225.820 281.200,226.000 281.652,226.000 282.205 C 226.000 282.758,226.180 283.568,226.400 284.005 C 226.620 284.442,226.980 285.158,227.200 285.595 C 227.420 286.032,227.600 286.752,227.600 287.195 C 227.600 287.638,227.780 288.000,228.000 288.000 C 228.220 288.000,228.400 288.360,228.400 288.800 C 228.400 289.240,228.580 289.600,228.800 289.600 C 229.020 289.600,229.200 289.853,229.200 290.162 C 229.200 290.828,230.868 294.141,231.300 294.333 C 231.465 294.407,231.600 294.812,231.600 295.233 C 231.600 295.655,231.736 296.000,231.902 296.000 C 232.069 296.000,232.432 296.514,232.710 297.142 L 233.216 298.284 238.113 298.496 C 245.883 298.831,248.800 301.071,248.800 306.700 C 248.800 310.852,247.359 312.872,243.081 314.717 C 241.463 315.415,158.537 315.415,156.919 314.717 C 152.641 312.872,151.200 310.852,151.200 306.700 C 151.200 301.079,154.120 298.831,161.857 298.497 C 166.608 298.292,166.738 298.262,167.262 297.243 C 167.557 296.670,167.890 296.110,168.002 296.000 C 168.457 295.552,170.800 290.648,170.800 290.144 C 170.800 289.845,170.980 289.600,171.200 289.600 C 171.420 289.600,171.600 289.240,171.600 288.800 C 171.600 288.360,171.780 288.000,172.000 288.000 C 172.220 288.000,172.400 287.638,172.400 287.195 C 172.400 286.752,172.580 286.032,172.800 285.595 C 173.020 285.158,173.380 284.442,173.600 284.005 C 173.820 283.568,174.000 282.859,174.000 282.429 C 174.000 281.999,174.180 281.536,174.400 281.400 C 174.620 281.264,174.800 280.724,174.800 280.200 C 174.800 279.676,174.980 279.136,175.200 279.000 C 175.420 278.864,175.600 278.043,175.600 277.176 C 175.600 276.309,175.763 275.600,175.961 275.600 C 176.364 275.600,176.734 273.052,177.049 268.114 L 177.258 264.828 134.729 264.714 C 87.244 264.587,91.501 264.859,88.293 261.745 C 86.711 260.210,86.005 258.912,85.250 256.154 C 84.610 253.811,84.610 125.389,85.250 123.046 C 86.455 118.641,88.364 116.445,92.090 115.175 C 95.073 114.159,304.042 113.997,307.376 115.008 " stroke="none" fill="#40307c" fill-rule="evenodd"></path><path id="path3" d="M95.672 124.603 C 94.988 125.389,94.800 126.115,94.800 127.960 L 94.800 130.314 96.285 129.557 C 97.729 128.820,100.500 128.800,200.000 128.800 C 299.500 128.800,302.271 128.820,303.715 129.557 L 305.200 130.314 305.200 127.827 C 305.200 125.744,305.049 125.198,304.274 124.470 L 303.348 123.600 199.946 123.600 L 96.544 123.600 95.672 124.603 " stroke="none" fill="#146ca4" fill-rule="evenodd"></path><path id="path4" d="M95.454 123.629 C 94.874 124.085,94.400 124.755,94.400 125.118 C 94.400 125.602,94.581 125.514,95.077 124.789 C 95.449 124.245,95.944 123.668,96.177 123.506 C 96.410 123.344,143.184 123.209,200.119 123.206 L 303.638 123.200 304.619 124.258 C 305.159 124.841,305.600 125.124,305.600 124.887 C 305.600 124.651,305.126 124.085,304.546 123.629 L 303.492 122.800 200.000 122.800 L 96.508 122.800 95.454 123.629 M94.498 180.464 L 94.400 230.729 95.631 231.764 L 96.861 232.800 199.857 232.800 C 277.394 232.800,303.069 232.685,303.726 232.335 C 305.657 231.306,305.580 233.599,305.490 180.400 L 305.405 130.200 305.202 180.287 C 305.013 227.132,304.955 230.427,304.304 231.187 L 303.608 232.000 200.074 232.000 L 96.539 232.000 95.671 231.076 L 94.803 230.152 94.700 180.176 L 94.597 130.200 94.498 180.464 M209.000 150.561 C 203.633 152.263,199.581 157.483,200.570 161.422 C 201.411 164.776,209.394 161.455,211.681 156.800 C 214.243 151.583,213.228 149.220,209.000 150.561 M212.400 152.605 C 212.400 153.598,212.241 154.723,212.047 155.105 C 211.852 155.487,211.456 156.307,211.165 156.926 C 210.416 158.523,208.676 160.241,207.126 160.912 C 204.240 162.164,203.527 162.400,202.630 162.400 C 200.955 162.400,200.610 161.476,201.334 158.932 C 202.730 154.023,206.387 150.927,210.900 150.832 L 212.400 150.800 212.400 152.605 M187.587 163.797 C 182.169 165.285,178.723 168.897,175.947 176.000 C 175.286 177.691,175.236 186.317,175.879 187.686 C 176.116 188.189,176.542 189.410,176.827 190.400 C 178.805 197.269,184.607 206.020,188.695 208.301 C 190.761 209.454,195.773 208.749,199.695 206.753 C 200.602 206.292,202.935 206.299,203.420 206.766 C 205.262 208.537,212.531 209.327,214.719 207.993 C 217.271 206.437,221.187 201.554,223.213 197.400 C 223.535 196.740,223.940 196.095,224.114 195.968 C 224.970 195.336,224.890 192.869,223.989 192.136 C 221.053 189.744,220.327 188.930,219.347 186.928 C 217.008 182.147,217.682 176.295,221.046 172.165 C 223.190 169.532,223.231 168.709,221.300 166.970 C 218.039 164.032,212.776 162.600,208.867 163.585 C 207.840 163.844,206.190 164.250,205.200 164.487 C 204.210 164.724,203.229 165.071,203.020 165.259 C 202.521 165.707,200.508 165.699,200.230 165.248 C 200.110 165.054,199.604 164.798,199.106 164.678 C 192.365 163.060,190.726 162.935,187.587 163.797 M198.857 165.230 L 201.513 166.128 204.457 165.164 C 210.963 163.033,218.765 164.287,221.625 167.923 C 222.713 169.306,222.626 169.670,220.649 171.986 C 215.693 177.792,216.851 188.349,222.830 191.881 C 224.638 192.949,224.612 193.662,222.630 197.490 C 217.202 207.969,212.597 210.350,204.600 206.812 C 201.909 205.622,201.297 205.530,200.120 206.137 C 195.599 208.473,190.855 208.977,188.175 207.406 C 184.607 205.315,179.069 196.657,177.233 190.300 C 176.995 189.475,176.600 188.146,176.355 187.346 C 175.039 183.051,176.087 175.789,178.675 171.275 C 182.446 164.694,190.305 162.341,198.857 165.230 " stroke="none" fill="#84d1f1" fill-rule="evenodd"></path><path id="path5" d="M93.119 115.338 C 89.918 116.124,84.996 120.730,86.138 121.871 C 86.244 121.978,86.653 121.375,87.046 120.532 C 87.912 118.673,89.271 117.374,91.400 116.371 C 93.908 115.190,306.092 115.190,308.600 116.371 C 310.779 117.398,312.106 118.664,313.243 120.800 L 314.200 122.600 314.200 189.680 C 314.200 242.811,314.096 256.864,313.700 257.260 C 313.425 257.535,313.200 258.052,313.200 258.408 C 313.200 259.259,310.500 262.400,309.769 262.400 C 309.456 262.400,309.200 262.558,309.200 262.750 C 309.200 262.943,308.615 263.236,307.900 263.402 C 307.061 263.597,306.839 263.766,307.273 263.876 C 308.919 264.297,312.393 261.368,313.765 258.404 C 314.676 256.436,315.319 139.887,314.492 126.697 C 314.024 119.232,312.001 116.353,306.438 115.236 C 303.259 114.598,95.732 114.697,93.119 115.338 M85.502 127.400 C 84.509 144.700,85.307 256.806,86.437 258.804 C 87.831 261.269,91.285 264.042,92.884 263.980 C 93.168 263.969,92.590 263.576,91.600 263.106 C 89.426 262.073,87.763 260.445,86.866 258.469 C 86.256 257.122,86.183 251.379,86.000 189.600 C 85.890 152.530,85.666 124.540,85.502 127.400 M305.331 127.800 C 305.333 129.340,305.405 129.921,305.492 129.091 C 305.579 128.261,305.577 127.001,305.489 126.291 C 305.400 125.581,305.329 126.260,305.331 127.800 M94.528 128.000 C 94.528 129.430,94.601 130.015,94.689 129.300 C 94.778 128.585,94.778 127.415,94.689 126.700 C 94.601 125.985,94.528 126.570,94.528 128.000 M135.731 264.302 L 178.063 264.404 177.848 265.502 C 177.730 266.106,177.518 267.860,177.376 269.400 C 177.068 272.761,175.412 280.093,174.590 281.741 C 174.265 282.391,174.000 283.168,174.000 283.467 C 174.000 283.766,173.842 284.323,173.648 284.705 C 172.825 286.330,169.670 294.000,169.826 294.000 C 169.919 294.000,170.644 292.605,171.436 290.900 C 173.300 286.891,173.388 286.676,174.420 283.600 C 174.900 282.170,175.452 280.829,175.647 280.620 C 175.841 280.411,176.000 279.837,176.000 279.344 C 176.000 278.851,176.180 278.336,176.400 278.200 C 176.620 278.064,176.800 277.254,176.800 276.400 C 176.800 275.546,176.980 274.736,177.200 274.600 C 177.420 274.464,177.600 273.384,177.600 272.200 C 177.600 271.016,177.780 269.936,178.000 269.800 C 178.220 269.664,178.400 268.483,178.400 267.176 L 178.400 264.800 199.964 264.800 L 221.529 264.800 221.756 267.100 C 221.882 268.365,222.093 270.480,222.227 271.800 C 222.361 273.120,222.635 274.371,222.835 274.580 C 223.036 274.789,223.200 275.633,223.200 276.456 C 223.200 277.279,223.380 278.064,223.600 278.200 C 223.820 278.336,224.000 278.851,224.000 279.344 C 224.000 279.837,224.162 280.411,224.361 280.620 C 224.559 280.829,224.992 281.810,225.323 282.800 C 226.892 287.496,230.319 294.970,232.338 298.100 L 233.306 299.600 237.959 299.600 C 241.728 299.600,242.876 299.741,243.996 300.342 C 249.197 303.131,249.261 310.763,244.104 313.199 C 241.757 314.308,159.196 314.472,156.451 313.374 C 151.244 311.290,150.479 304.424,155.064 300.923 C 156.472 299.848,156.753 299.794,161.682 299.668 L 166.830 299.536 167.844 297.930 C 169.178 295.817,168.828 295.514,167.453 297.592 L 166.389 299.200 161.843 299.200 C 156.938 299.200,155.207 299.643,153.774 301.265 C 149.766 305.800,151.142 311.894,156.697 314.215 C 158.802 315.094,241.198 315.094,243.303 314.215 C 249.928 311.447,250.383 303.209,244.105 299.700 C 243.529 299.378,241.511 299.200,238.433 299.200 L 233.654 299.200 232.837 298.052 C 231.748 296.522,227.832 288.615,227.166 286.600 C 226.875 285.720,226.493 284.829,226.318 284.620 C 226.143 284.411,226.000 283.862,226.000 283.400 C 226.000 282.938,225.857 282.389,225.682 282.180 C 224.701 281.010,222.907 273.008,222.570 268.302 L 222.291 264.404 264.445 264.302 C 287.630 264.246,258.630 264.200,200.000 264.200 C 141.370 264.200,112.449 264.246,135.731 264.302 " stroke="none" fill="#968eb7" fill-rule="evenodd"></path><path id="path6" d="M148.468 123.500 C 176.775 123.557,223.215 123.557,251.668 123.500 C 280.121 123.443,256.960 123.397,200.200 123.397 C 143.440 123.397,120.161 123.443,148.468 123.500 M96.424 129.501 C 95.667 129.885,94.966 130.459,94.866 130.775 C 94.747 131.149,95.073 131.044,95.796 130.475 L 96.908 129.600 200.000 129.600 L 303.092 129.600 304.204 130.475 C 304.927 131.044,305.253 131.149,305.134 130.775 C 305.034 130.459,304.333 129.885,303.576 129.501 C 301.439 128.414,98.561 128.414,96.424 129.501 " stroke="none" fill="#148cbc" fill-rule="evenodd"></path><path id="path7" d="M92.090 115.175 C 88.798 116.297,85.590 119.645,85.604 121.946 C 85.606 122.306,86.042 121.667,86.573 120.526 C 87.802 117.887,90.484 115.854,93.548 115.239 C 96.704 114.605,303.514 114.618,306.472 115.253 C 308.990 115.793,311.118 117.061,312.546 118.874 C 313.121 119.603,313.592 120.020,313.594 119.800 C 313.602 118.513,310.144 115.848,307.376 115.008 C 304.042 113.997,95.073 114.159,92.090 115.175 M85.052 123.700 C 84.717 124.949,84.792 254.839,85.128 255.685 C 85.278 256.062,85.400 226.317,85.400 189.585 C 85.400 152.853,85.376 122.800,85.347 122.800 C 85.317 122.800,85.185 123.205,85.052 123.700 M314.600 189.600 C 314.600 226.298,314.732 256.116,314.894 255.862 C 315.056 255.608,315.188 225.790,315.188 189.600 C 315.188 153.410,315.056 123.592,314.894 123.338 C 314.732 123.084,314.600 152.902,314.600 189.600 M85.632 257.254 C 85.515 259.678,90.452 264.468,92.961 264.366 C 93.679 264.336,93.652 264.286,92.777 264.021 C 89.454 263.013,87.032 260.622,85.867 257.200 C 85.699 256.704,85.658 256.714,85.632 257.254 M312.681 260.239 C 312.286 260.768,312.108 261.200,312.285 261.200 C 312.634 261.200,313.738 259.601,313.528 259.400 C 313.457 259.333,313.077 259.711,312.681 260.239 M310.056 262.834 C 309.536 263.255,309.266 263.594,309.456 263.587 C 309.944 263.569,311.376 262.443,311.171 262.239 C 311.077 262.145,310.575 262.413,310.056 262.834 M307.400 264.000 L 306.200 264.305 307.276 264.353 C 307.868 264.379,308.464 264.220,308.600 264.000 C 308.736 263.780,308.792 263.621,308.724 263.647 C 308.656 263.673,308.060 263.832,307.400 264.000 M135.900 264.700 L 177.200 264.804 177.200 267.069 C 177.200 269.882,177.418 269.726,177.716 266.700 L 177.942 264.400 136.271 264.498 L 94.600 264.596 135.900 264.700 M222.474 266.700 L 222.548 269.000 222.695 266.902 L 222.842 264.804 264.121 264.700 L 305.400 264.596 263.900 264.498 L 222.400 264.400 222.474 266.700 M222.868 271.600 C 222.887 273.250,223.517 274.956,223.532 273.400 C 223.538 272.740,223.389 271.840,223.200 271.400 C 222.887 270.673,222.857 270.691,222.868 271.600 M176.673 271.753 C 176.523 272.145,176.416 272.946,176.436 273.533 C 176.470 274.528,176.498 274.509,176.857 273.263 C 177.273 271.819,177.123 270.582,176.673 271.753 M223.628 275.676 C 223.696 276.944,224.342 277.854,224.372 276.724 C 224.387 276.132,224.220 275.536,224.000 275.400 C 223.780 275.264,223.613 275.388,223.628 275.676 M175.600 276.867 C 175.600 278.323,175.775 278.270,176.151 276.700 C 176.308 276.047,176.250 275.600,176.008 275.600 C 175.783 275.600,175.600 276.170,175.600 276.867 M224.406 278.876 C 224.418 279.881,225.187 280.708,225.194 279.724 C 225.197 279.242,225.020 278.736,224.800 278.600 C 224.580 278.464,224.403 278.588,224.406 278.876 M175.067 279.067 C 174.920 279.213,174.811 279.708,174.825 280.167 C 174.849 280.933,174.882 280.923,175.234 280.042 C 175.626 279.063,175.544 278.589,175.067 279.067 M169.361 293.475 C 168.743 294.754,168.139 295.890,168.018 296.000 C 167.897 296.110,167.557 296.670,167.262 297.243 C 166.738 298.262,166.608 298.292,161.857 298.497 C 156.997 298.707,155.033 299.272,153.437 300.921 C 149.978 304.495,150.324 310.575,154.130 313.119 C 157.403 315.306,155.070 315.200,200.000 315.200 C 244.930 315.200,242.597 315.306,245.870 313.119 C 249.676 310.575,250.022 304.495,246.563 300.921 C 244.964 299.270,243.005 298.707,238.113 298.496 L 233.216 298.284 232.710 297.142 C 232.432 296.514,232.058 296.000,231.879 296.000 C 231.525 296.000,231.723 296.410,232.893 298.100 C 233.652 299.196,233.671 299.200,238.433 299.200 C 241.511 299.200,243.529 299.378,244.105 299.700 C 250.383 303.209,249.928 311.447,243.303 314.215 C 241.198 315.094,158.802 315.094,156.697 314.215 C 151.142 311.894,149.766 305.800,153.774 301.265 C 155.206 299.644,156.938 299.200,161.830 299.200 L 166.362 299.200 167.495 297.500 C 169.094 295.100,170.916 291.583,170.681 291.348 C 170.572 291.239,169.978 292.196,169.361 293.475 " stroke="none" fill="#5c548c" fill-rule="evenodd"></path></g></svg>
