<svg id="svg" version="1.1" xmlns="http://www.w3.org/2000/svg" xmlns:xlink="http://www.w3.org/1999/xlink"  viewBox="0 -10 512 512"><g id="svgg"><path id="path0" d="M0.000 247.000 L 0.000 400.000 100.000 400.000 L 200.000 400.000 200.000 247.000 L 200.000 94.000 100.000 94.000 L 0.000 94.000 0.000 247.000 M148.400 170.586 C 171.974 175.065,187.600 193.695,187.600 217.323 C 187.600 224.124,187.343 225.828,185.298 232.600 C 183.019 240.144,175.198 250.726,168.600 255.193 C 167.500 255.938,166.510 256.649,166.400 256.774 C 165.650 257.622,159.037 260.817,155.800 261.894 C 148.733 264.246,147.255 264.400,131.772 264.400 L 117.605 264.400 117.503 293.900 L 117.400 323.400 105.500 323.506 L 93.600 323.612 93.600 246.806 L 93.600 170.000 119.500 170.008 C 140.220 170.014,146.000 170.130,148.400 170.586 M117.600 217.200 L 117.600 240.431 130.500 240.266 C 142.936 240.106,145.679 239.936,147.400 239.216 C 147.840 239.031,148.801 238.654,149.536 238.377 C 161.688 233.794,167.133 218.731,161.024 206.600 C 158.779 202.143,153.867 197.599,149.600 196.033 C 148.830 195.751,147.840 195.370,147.400 195.187 C 145.575 194.429,143.184 194.277,130.700 194.127 L 117.600 193.969 117.600 217.200 " stroke="none" fill="#0444a4" fill-rule="evenodd"></path><path id="path1" d="M0.000 46.796 L 0.000 93.600 200.000 93.600 L 400.000 93.600 400.000 58.400 L 400.000 23.200 300.200 23.200 C 233.933 23.200,200.400 23.066,200.400 22.800 C 200.400 22.580,200.040 22.400,199.600 22.400 C 199.160 22.400,198.800 22.220,198.800 22.000 C 198.800 21.780,198.440 21.600,198.000 21.600 C 197.560 21.600,197.200 21.420,197.200 21.200 C 197.200 20.980,196.840 20.800,196.400 20.800 C 195.960 20.800,195.600 20.620,195.600 20.400 C 195.600 20.180,195.240 20.000,194.800 20.000 C 194.360 20.000,194.000 19.820,194.000 19.600 C 194.000 19.380,193.640 19.200,193.200 19.200 C 192.760 19.200,192.400 19.054,192.400 18.875 C 192.400 18.696,191.770 18.302,191.000 18.000 C 190.230 17.698,189.600 17.304,189.600 17.125 C 189.600 16.946,189.366 16.800,189.080 16.800 C 188.344 16.800,186.407 15.859,186.403 15.500 C 186.401 15.335,186.040 15.200,185.600 15.200 C 185.160 15.200,184.800 15.020,184.800 14.800 C 184.800 14.580,184.575 14.399,184.300 14.398 C 184.025 14.397,181.775 13.407,179.299 12.198 C 176.824 10.989,174.544 10.000,174.233 10.000 C 173.921 10.000,173.607 9.861,173.533 9.691 C 173.460 9.521,171.420 8.427,169.000 7.260 C 166.580 6.092,163.575 4.611,162.322 3.969 C 161.069 3.326,159.764 2.800,159.422 2.800 C 159.080 2.800,158.800 2.620,158.800 2.400 C 158.800 2.180,158.530 2.000,158.200 2.000 C 157.870 2.000,157.600 1.820,157.600 1.600 C 157.600 1.380,157.255 1.200,156.833 1.200 C 156.412 1.200,155.992 0.975,155.900 0.700 C 155.768 0.303,139.730 0.179,77.867 0.096 L 0.000 -0.008 0.000 46.796 M117.000 58.600 L 117.000 70.200 105.500 70.306 L 94.000 70.412 94.000 58.600 L 94.000 46.788 105.500 46.894 L 117.000 47.000 117.000 58.600 M70.000 58.600 L 70.000 70.000 58.600 70.000 L 47.200 70.000 47.200 58.600 L 47.200 47.200 58.600 47.200 L 70.000 47.200 70.000 58.600 M164.000 58.600 L 164.000 70.000 152.400 70.000 L 140.800 70.000 140.800 58.600 L 140.800 47.200 152.400 47.200 L 164.000 47.200 164.000 58.600 " stroke="none" fill="#d1e5ea" fill-rule="evenodd"></path><path id="path2" d="M94.000 58.600 L 94.000 70.412 105.500 70.306 L 117.000 70.200 117.000 58.600 L 117.000 47.000 105.500 46.894 L 94.000 46.788 94.000 58.600 M47.200 58.600 L 47.200 70.000 58.600 70.000 L 70.000 70.000 70.000 58.600 L 70.000 47.200 58.600 47.200 L 47.200 47.200 47.200 58.600 M287.600 204.803 L 287.600 240.006 264.100 239.903 L 240.600 239.800 240.498 205.500 L 240.396 171.200 228.798 171.200 L 217.200 171.200 217.200 217.200 L 217.200 263.200 234.800 263.200 L 252.400 263.200 252.400 293.600 L 252.400 324.000 263.997 324.000 L 275.595 324.000 275.697 293.700 L 275.800 263.400 293.300 263.296 L 310.800 263.192 310.800 216.396 L 310.800 169.600 299.200 169.600 L 287.600 169.600 287.600 204.803 M94.000 246.800 L 94.000 323.200 105.600 323.200 L 117.200 323.200 117.200 293.623 L 117.200 264.047 131.300 263.861 C 147.170 263.653,150.101 263.337,155.800 261.221 C 157.120 260.731,158.560 260.224,159.000 260.094 C 162.050 259.195,169.154 254.350,173.189 250.418 C 196.056 228.132,189.878 189.460,161.200 175.378 C 151.911 170.817,148.680 170.444,118.300 170.419 L 94.000 170.400 94.000 246.800 M145.754 194.044 C 161.460 198.280,169.564 216.627,161.132 228.862 C 160.729 229.446,160.400 230.029,160.400 230.157 C 160.400 230.825,156.855 234.547,154.600 236.246 C 149.205 240.311,146.627 240.800,130.580 240.800 L 117.200 240.800 117.200 217.200 L 117.200 193.600 130.654 193.600 C 139.257 193.600,144.701 193.760,145.754 194.044 " stroke="none" fill="#f7d830" fill-rule="evenodd"></path><path id="path3" d="M200.000 247.000 L 200.000 400.000 300.000 400.000 L 400.000 400.000 400.000 247.000 L 400.000 94.000 300.000 94.000 L 200.000 94.000 200.000 247.000 M311.102 216.500 L 311.203 263.600 293.602 263.600 L 276.000 263.600 276.000 294.000 L 276.000 324.400 264.000 324.400 L 252.000 324.400 252.000 294.004 L 252.000 263.608 234.500 263.504 L 217.000 263.400 216.890 217.800 C 216.830 192.720,216.879 171.792,216.999 171.294 L 217.218 170.388 228.909 170.494 L 240.600 170.600 240.702 205.100 L 240.804 239.600 264.002 239.600 L 287.200 239.600 287.200 204.667 C 287.200 185.453,287.323 169.611,287.473 169.461 C 287.623 169.311,292.978 169.236,299.373 169.294 L 311.000 169.400 311.102 216.500 " stroke="none" fill="#042c5c" fill-rule="evenodd"></path><path id="path4" d="M140.800 58.600 L 140.800 70.000 152.400 70.000 L 164.000 70.000 164.000 58.600 L 164.000 47.200 152.400 47.200 L 140.800 47.200 140.800 58.600 M93.798 246.800 L 93.800 323.400 105.400 323.409 L 117.000 323.418 105.501 323.303 L 94.002 323.188 93.899 246.694 L 93.797 170.200 93.798 246.800 M145.200 170.820 C 147.750 171.274,150.021 171.236,147.800 170.777 C 146.920 170.595,145.570 170.458,144.800 170.473 C 143.495 170.498,143.522 170.522,145.200 170.820 M150.400 171.600 C 150.730 171.813,151.360 171.978,151.800 171.966 L 152.600 171.944 151.800 171.600 C 150.604 171.086,149.605 171.086,150.400 171.600 M153.400 172.400 C 153.840 172.589,154.470 172.744,154.800 172.744 C 155.178 172.744,155.104 172.617,154.600 172.400 C 154.160 172.211,153.530 172.056,153.200 172.056 C 152.822 172.056,152.896 172.183,153.400 172.400 M158.000 173.789 C 158.000 174.106,160.900 175.233,161.128 175.005 C 161.241 174.892,161.235 174.800,161.116 174.800 C 160.996 174.800,160.246 174.528,159.449 174.195 C 158.652 173.862,158.000 173.679,158.000 173.789 M162.400 175.967 C 162.950 176.415,163.551 176.786,163.735 176.791 C 167.256 176.885,178.255 188.567,182.287 196.496 C 183.435 198.753,184.380 200.412,184.387 200.182 C 184.416 199.265,180.825 192.724,178.584 189.612 C 174.803 184.360,167.868 178.307,162.800 175.835 L 161.400 175.152 162.400 175.967 M131.200 194.004 C 140.528 194.157,145.871 194.400,146.774 194.712 C 147.529 194.973,148.230 195.104,148.331 195.003 C 148.432 194.902,148.264 194.745,147.957 194.655 C 144.682 193.693,143.129 193.606,130.554 193.686 L 117.000 193.771 131.200 194.004 M152.600 197.254 C 153.700 197.936,155.005 198.864,155.500 199.316 C 155.995 199.769,156.396 199.973,156.391 199.770 C 156.378 199.189,151.661 195.983,150.854 196.008 C 150.714 196.012,151.500 196.573,152.600 197.254 M156.800 200.121 C 156.800 200.293,157.178 200.831,157.640 201.317 C 160.017 203.817,163.159 209.686,163.228 211.753 C 163.244 212.219,163.426 212.960,163.632 213.400 C 164.372 214.973,163.587 211.054,162.711 208.800 C 161.562 205.844,156.800 198.852,156.800 200.121 M184.412 201.200 C 184.412 201.530,184.587 202.070,184.800 202.400 C 185.145 202.933,185.188 202.933,185.188 202.400 C 185.188 202.070,185.013 201.530,184.800 201.200 C 184.455 200.667,184.412 200.667,184.412 201.200 M185.209 203.433 C 185.229 204.247,186.730 209.351,186.764 208.720 C 186.805 207.944,185.719 203.585,185.406 203.273 C 185.293 203.159,185.204 203.232,185.209 203.433 M187.000 217.200 C 187.000 221.465,187.114 224.425,187.253 223.777 C 187.392 223.130,187.505 220.170,187.505 217.200 C 187.505 214.230,187.392 211.270,187.253 210.623 C 187.114 209.975,187.000 212.935,187.000 217.200 M164.134 217.200 C 164.134 218.850,164.205 219.525,164.291 218.700 C 164.378 217.875,164.378 216.525,164.291 215.700 C 164.205 214.875,164.134 215.550,164.134 217.200 M163.393 221.900 C 163.259 222.725,162.981 223.813,162.775 224.319 C 162.188 225.757,162.367 226.348,162.970 224.963 C 163.573 223.577,164.188 220.400,163.853 220.400 C 163.734 220.400,163.527 221.075,163.393 221.900 M186.096 227.248 C 185.818 228.431,185.477 229.850,185.337 230.400 C 185.197 230.950,185.201 231.292,185.347 231.161 C 185.736 230.809,186.849 226.345,186.715 225.672 C 186.652 225.355,186.373 226.064,186.096 227.248 M161.719 227.100 C 160.802 229.605,156.749 234.367,153.892 236.298 C 153.062 236.859,152.469 237.402,152.573 237.507 C 153.116 238.049,160.400 231.209,160.400 230.157 C 160.400 230.029,160.731 229.446,161.135 228.862 C 161.941 227.696,162.489 226.400,162.175 226.400 C 162.065 226.400,161.860 226.715,161.719 227.100 M184.600 232.400 C 184.450 232.873,184.417 233.350,184.527 233.460 C 184.637 233.570,184.850 233.273,185.000 232.800 C 185.150 232.327,185.183 231.850,185.073 231.740 C 184.963 231.630,184.750 231.927,184.600 232.400 M182.272 237.933 C 178.737 245.139,173.140 251.484,166.422 255.904 C 164.502 257.167,162.587 258.428,162.166 258.706 C 161.745 258.984,162.030 258.912,162.800 258.547 C 170.401 254.939,179.406 245.431,183.248 236.957 C 185.092 232.891,184.414 233.570,182.272 237.933 M147.800 239.328 C 145.583 240.112,144.315 240.194,131.200 240.403 L 117.000 240.629 130.480 240.714 C 141.000 240.781,144.427 240.677,146.080 240.238 C 148.632 239.562,150.400 238.896,150.400 238.610 C 150.400 238.494,150.355 238.418,150.300 238.440 C 150.245 238.462,149.120 238.862,147.800 239.328 M158.000 260.374 C 157.670 260.566,156.418 261.043,155.218 261.434 C 154.018 261.825,153.230 262.210,153.466 262.289 C 153.703 262.368,155.225 261.894,156.848 261.237 C 158.472 260.579,159.530 260.038,159.200 260.033 C 158.870 260.028,158.330 260.181,158.000 260.374 M150.400 262.800 C 149.605 263.314,150.604 263.314,151.800 262.800 L 152.600 262.456 151.800 262.434 C 151.360 262.422,150.730 262.587,150.400 262.800 M145.000 263.600 L 143.800 263.905 145.000 263.930 C 145.660 263.943,146.920 263.805,147.800 263.623 L 149.400 263.292 147.800 263.293 C 146.920 263.294,145.660 263.432,145.000 263.600 " stroke="none" fill="#6c8480" fill-rule="evenodd"></path><path id="path5" d="M99.900 93.900 C 154.955 93.956,245.045 93.956,300.100 93.900 C 355.155 93.844,310.110 93.798,200.000 93.798 C 89.890 93.798,44.845 93.844,99.900 93.900 M106.700 170.300 C 114.015 170.361,125.985 170.361,133.300 170.300 C 140.615 170.239,134.630 170.189,120.000 170.189 C 105.370 170.189,99.385 170.239,106.700 170.300 M149.233 170.943 C 149.325 171.021,150.030 171.201,150.800 171.342 C 151.785 171.523,152.022 171.482,151.600 171.206 C 151.058 170.850,148.837 170.603,149.233 170.943 M152.433 171.744 C 152.525 171.823,153.140 172.008,153.800 172.156 C 154.676 172.352,154.838 172.315,154.400 172.018 C 153.860 171.653,152.032 171.398,152.433 171.744 M165.600 177.354 C 165.600 177.439,166.095 177.827,166.700 178.216 L 167.800 178.924 167.038 178.062 C 166.364 177.299,165.600 176.923,165.600 177.354 M171.241 181.700 C 171.337 181.755,172.312 182.610,173.407 183.600 L 175.400 185.400 173.617 183.500 C 172.636 182.455,171.661 181.600,171.450 181.600 C 171.239 181.600,171.145 181.645,171.241 181.700 M177.775 188.532 C 178.391 189.339,178.976 190.000,179.075 190.000 C 179.353 190.000,177.621 187.660,177.109 187.344 C 176.859 187.189,177.159 187.724,177.775 188.532 M117.387 217.200 C 117.387 230.070,117.438 235.335,117.500 228.900 C 117.562 222.465,117.562 211.935,117.500 205.500 C 117.438 199.065,117.387 204.330,117.387 217.200 M143.800 194.400 C 144.240 194.589,144.960 194.738,145.400 194.732 C 146.043 194.723,146.004 194.657,145.200 194.400 C 143.832 193.962,142.781 193.962,143.800 194.400 M152.400 197.302 C 152.906 197.833,156.435 200.400,156.658 200.400 C 157.000 200.400,153.999 198.028,153.000 197.508 C 152.560 197.279,152.290 197.186,152.400 197.302 M163.275 213.400 C 163.286 213.840,163.432 214.740,163.600 215.400 L 163.905 216.600 163.925 215.400 C 163.935 214.740,163.789 213.840,163.600 213.400 L 163.256 212.600 163.275 213.400 M163.454 219.554 C 163.300 220.518,163.258 221.391,163.361 221.494 C 163.630 221.763,164.115 218.945,163.907 218.322 C 163.812 218.036,163.608 218.590,163.454 219.554 M184.267 234.467 C 183.905 235.388,183.674 236.207,183.754 236.288 C 183.834 236.368,184.200 235.683,184.567 234.767 C 184.933 233.850,185.164 233.031,185.079 232.946 C 184.994 232.861,184.629 233.545,184.267 234.467 M154.859 235.180 C 154.121 235.811,152.501 236.879,151.259 237.553 C 150.016 238.227,149.191 238.783,149.424 238.789 C 150.067 238.806,154.468 236.086,155.591 234.978 C 156.934 233.652,156.507 233.770,154.859 235.180 M143.400 240.000 L 142.600 240.344 143.400 240.332 C 143.840 240.326,144.650 240.176,145.200 240.000 L 146.200 239.680 145.200 239.668 C 144.650 239.662,143.840 239.811,143.400 240.000 M173.123 251.009 C 172.091 251.994,171.379 252.800,171.540 252.800 C 171.701 252.800,172.628 251.990,173.600 251.000 C 175.877 248.680,175.558 248.686,173.123 251.009 M150.200 263.200 C 149.093 263.482,149.077 263.509,150.000 263.547 C 150.550 263.569,151.270 263.413,151.600 263.200 C 152.281 262.760,151.929 262.760,150.200 263.200 M132.200 263.993 L 117.400 264.200 117.396 293.700 L 117.392 323.200 117.499 293.800 L 117.605 264.400 132.103 264.360 C 140.076 264.338,147.050 264.176,147.600 264.000 C 148.321 263.769,148.377 263.694,147.800 263.732 C 147.360 263.761,140.340 263.879,132.200 263.993 " stroke="none" fill="#517588" fill-rule="evenodd"></path><path id="path6" d="M287.473 169.461 C 287.323 169.611,287.200 185.453,287.200 204.667 L 287.200 239.600 264.002 239.600 L 240.804 239.600 240.702 205.100 L 240.600 170.600 228.909 170.494 L 217.218 170.388 216.999 171.294 C 216.879 171.792,216.830 192.720,216.890 217.800 L 217.000 263.400 234.500 263.504 L 252.000 263.608 252.000 294.004 L 252.000 324.400 264.000 324.400 L 276.000 324.400 276.000 294.000 L 276.000 263.600 293.602 263.600 L 311.203 263.600 311.102 216.500 L 311.000 169.400 299.373 169.294 C 292.978 169.236,287.623 169.311,287.473 169.461 M310.800 216.396 L 310.800 263.192 293.300 263.296 L 275.800 263.400 275.697 293.700 L 275.595 324.000 263.997 324.000 L 252.400 324.000 252.400 293.600 L 252.400 263.200 234.800 263.200 L 217.200 263.200 217.200 217.200 L 217.200 171.200 228.798 171.200 L 240.396 171.200 240.498 205.500 L 240.600 239.800 264.100 239.903 L 287.600 240.006 287.600 204.803 L 287.600 169.600 299.200 169.600 L 310.800 169.600 310.800 216.396 " stroke="none" fill="#4c5c3c" fill-rule="evenodd"></path></g></svg>
