<svg id="svg" version="1.1" xmlns="http://www.w3.org/2000/svg" xmlns:xlink="http://www.w3.org/1999/xlink" viewBox="-25 -10 512 512"><g id="svgg"><path id="path0" d="M71.200 199.999 L 71.200 297.600 134.000 297.600 C 168.540 297.600,196.800 297.493,196.800 297.362 C 196.800 297.231,196.473 296.646,196.073 296.062 C 193.813 292.761,190.279 284.114,189.140 279.100 L 188.618 276.800 181.896 276.800 C 176.860 276.800,175.140 276.675,175.035 276.300 C 173.315 270.136,173.685 249.627,175.544 248.100 C 175.974 247.747,177.997 247.600,182.415 247.600 L 188.677 247.600 189.301 244.900 C 190.436 239.982,193.225 233.205,196.009 228.600 C 196.674 227.500,197.330 226.358,197.466 226.063 C 197.623 225.723,195.975 223.783,192.981 220.781 L 188.247 216.035 189.224 214.670 C 194.169 207.756,206.299 196.016,208.508 196.004 C 208.898 196.002,210.451 197.215,211.959 198.700 C 213.467 200.185,215.525 202.194,216.532 203.165 L 218.363 204.931 219.913 203.905 C 222.466 202.216,228.749 199.350,232.800 198.027 C 238.856 196.049,239.023 196.000,239.719 196.000 C 240.305 196.000,240.394 195.211,240.491 189.101 L 240.600 182.203 243.000 181.801 C 246.390 181.234,267.098 181.325,268.490 181.913 L 269.581 182.373 269.690 189.024 L 269.800 195.675 271.400 196.232 C 272.280 196.538,273.369 196.791,273.820 196.794 C 274.271 196.797,274.811 196.950,275.020 197.133 C 275.229 197.315,276.210 197.689,277.200 197.962 C 279.437 198.580,287.352 202.039,287.533 202.477 C 287.607 202.655,287.877 202.804,288.133 202.809 C 288.390 202.814,289.050 203.170,289.600 203.600 C 291.175 204.832,291.497 204.657,296.218 200.000 C 298.670 197.580,300.858 195.600,301.079 195.600 C 302.949 195.600,312.630 204.459,318.685 211.711 C 322.355 216.107,322.454 215.662,316.521 221.400 L 312.385 225.400 313.190 226.800 C 313.633 227.570,314.309 228.875,314.692 229.700 C 315.075 230.525,315.526 231.200,315.694 231.200 C 315.862 231.200,316.000 231.465,316.000 231.788 C 316.000 232.111,316.342 232.985,316.760 233.729 C 317.790 235.563,319.515 240.314,320.562 244.200 L 321.424 247.400 325.012 247.400 L 328.600 247.400 328.701 175.100 C 328.768 126.969,328.668 102.800,328.401 102.800 C 328.142 102.800,328.000 107.111,328.000 115.000 L 328.000 127.200 264.206 127.200 L 200.412 127.200 200.306 114.900 L 200.200 102.600 135.700 102.499 L 71.200 102.398 71.200 199.999 M89.633 108.660 C 93.450 110.187,94.857 115.101,92.514 118.715 C 90.622 121.633,87.210 122.657,84.215 121.207 C 76.009 117.235,81.173 105.275,89.633 108.660 M111.845 109.407 C 115.869 112.476,115.369 118.865,110.936 121.022 C 105.166 123.830,98.953 118.091,101.508 112.316 C 103.327 108.203,108.396 106.776,111.845 109.407 M132.398 109.199 C 137.939 113.144,135.515 121.695,128.836 121.763 C 122.233 121.831,119.263 113.407,124.500 109.461 C 126.743 107.771,130.230 107.655,132.398 109.199 M107.102 141.034 C 109.590 141.743,113.784 143.589,114.883 144.459 C 115.515 144.959,115.429 145.272,113.744 148.600 C 111.351 153.329,111.710 153.143,108.117 151.510 C 101.349 148.436,95.781 148.546,94.972 151.771 C 94.491 153.687,98.374 156.800,101.244 156.800 C 103.783 156.800,111.764 160.545,114.011 162.790 C 117.928 166.705,117.895 174.480,113.943 178.970 C 108.678 184.951,95.296 185.232,84.468 179.589 C 82.361 178.490,82.372 178.140,84.655 173.759 C 86.934 169.388,87.001 169.311,87.891 170.042 C 92.734 174.024,103.165 175.606,105.342 172.690 C 106.897 170.607,105.091 168.804,99.870 167.224 C 87.645 163.526,84.398 160.665,84.408 153.600 C 84.423 143.411,94.965 137.574,107.102 141.034 M147.200 141.291 C 150.924 142.730,154.213 145.275,156.387 148.400 C 156.923 149.170,157.460 149.890,157.581 150.000 C 157.701 150.110,158.130 150.912,158.532 151.782 C 162.206 159.714,161.621 167.590,156.802 175.076 C 156.244 175.941,158.287 178.922,161.325 181.679 C 162.636 182.868,161.755 183.200,157.295 183.200 C 153.110 183.200,153.017 183.180,151.803 182.003 L 150.569 180.807 147.584 182.062 C 133.224 188.104,117.907 174.839,120.299 158.431 C 122.223 145.229,135.498 136.770,147.200 141.291 M176.704 157.300 L 176.809 174.000 186.504 174.006 C 198.158 174.013,197.259 173.604,197.115 178.833 L 197.000 183.000 181.800 183.000 L 166.600 183.000 166.496 162.200 C 166.439 150.760,166.480 141.169,166.588 140.888 C 166.736 140.501,167.988 140.403,171.692 140.488 L 176.600 140.600 176.704 157.300 M137.483 149.813 C 127.663 153.417,128.563 172.164,138.645 174.048 C 140.729 174.437,143.600 174.111,143.600 173.486 C 143.600 173.259,142.311 171.646,140.735 169.901 C 137.320 166.119,137.377 166.015,142.869 166.006 C 146.434 166.000,146.834 166.080,147.946 167.016 L 149.154 168.033 149.670 167.116 C 150.621 165.426,150.299 157.768,149.178 155.415 C 146.780 150.382,142.074 148.128,137.483 149.813 M246.358 234.148 C 241.652 235.695,236.378 238.910,233.864 241.764 C 233.459 242.224,232.603 243.181,231.961 243.892 C 230.774 245.207,229.701 246.934,228.288 249.800 C 227.855 250.680,227.342 251.713,227.150 252.095 C 226.957 252.477,226.800 253.231,226.800 253.771 C 226.800 254.311,226.642 254.851,226.449 254.970 C 225.260 255.705,225.270 265.329,226.464 269.800 C 228.765 278.417,238.914 289.600,244.433 289.600 C 244.829 289.600,245.264 289.780,245.400 290.000 C 245.536 290.220,246.051 290.400,246.544 290.400 C 247.037 290.400,247.652 290.612,247.912 290.872 C 248.549 291.509,261.307 291.480,261.519 290.842 C 261.600 290.599,262.181 290.400,262.810 290.400 C 263.438 290.400,264.064 290.220,264.200 290.000 C 264.336 289.780,264.799 289.600,265.229 289.600 C 265.928 289.600,267.469 288.932,268.000 288.399 C 268.110 288.289,268.740 287.931,269.400 287.604 C 280.009 282.350,286.296 267.760,283.217 255.543 C 282.243 251.678,280.464 247.200,279.902 247.200 C 279.736 247.200,279.600 246.973,279.600 246.696 C 279.600 245.860,276.122 241.961,272.966 239.259 C 271.175 237.726,266.257 235.191,263.600 234.431 C 262.610 234.148,261.387 233.755,260.881 233.558 C 258.970 232.813,249.215 233.209,246.358 234.148 M321.033 278.500 C 320.696 280.621,318.625 286.885,317.582 288.938 C 317.152 289.784,316.800 290.729,316.800 291.038 C 316.800 291.347,316.620 291.600,316.400 291.600 C 316.180 291.600,316.000 291.924,316.000 292.320 C 316.000 292.716,315.837 293.211,315.638 293.420 C 315.092 293.992,313.600 296.769,313.600 297.212 C 313.600 297.449,316.559 297.600,321.200 297.600 L 328.800 297.600 328.800 287.200 L 328.800 276.800 325.051 276.800 L 321.302 276.800 321.033 278.500 " stroke="none" fill="#ececec" fill-rule="evenodd"></path><path id="path1" d="M94.600 141.302 C 86.981 143.949,83.137 151.027,85.523 158.015 C 86.058 159.581,88.579 162.400,89.446 162.400 C 89.751 162.400,90.000 162.567,90.000 162.771 C 90.000 162.975,91.035 163.520,92.300 163.982 C 93.565 164.443,94.960 164.977,95.400 165.168 C 95.840 165.359,97.754 165.989,99.653 166.567 C 104.198 167.951,106.400 169.515,106.400 171.358 C 106.400 174.090,103.233 175.714,99.561 174.867 C 98.449 174.610,97.023 174.400,96.393 174.400 C 95.763 174.400,95.136 174.220,95.000 174.000 C 94.864 173.780,94.324 173.600,93.800 173.600 C 93.276 173.600,92.736 173.420,92.600 173.200 C 92.464 172.980,92.101 172.800,91.794 172.800 C 91.487 172.800,90.339 172.272,89.245 171.626 C 86.926 170.259,87.133 170.117,84.878 174.628 C 83.059 178.266,83.058 178.260,85.800 179.556 C 96.414 184.573,108.712 184.169,113.437 178.648 C 118.445 172.798,116.837 163.595,110.300 160.693 C 109.695 160.424,109.200 160.069,109.200 159.902 C 109.200 159.736,108.761 159.600,108.224 159.600 C 107.687 159.600,107.136 159.420,107.000 159.200 C 106.864 158.980,106.324 158.800,105.800 158.800 C 105.276 158.800,104.736 158.620,104.600 158.400 C 104.464 158.180,103.834 158.000,103.200 158.000 C 102.566 158.000,101.936 157.820,101.800 157.600 C 101.664 157.380,101.124 157.200,100.600 157.200 C 100.076 157.200,99.536 157.020,99.400 156.800 C 99.264 156.580,98.754 156.400,98.268 156.400 C 95.322 156.400,93.250 152.005,95.300 150.105 C 97.691 147.890,104.363 148.457,109.000 151.269 C 110.743 152.326,111.328 152.181,112.101 150.500 C 112.480 149.675,113.242 148.230,113.795 147.289 C 115.065 145.127,115.055 144.980,113.600 144.336 C 112.940 144.044,112.400 143.669,112.400 143.502 C 112.400 143.336,112.128 143.200,111.795 143.200 C 111.462 143.200,110.787 142.992,110.295 142.738 C 108.318 141.716,107.965 141.600,106.829 141.600 C 106.179 141.600,105.536 141.420,105.400 141.200 C 105.074 140.673,96.169 140.757,94.600 141.302 M135.800 141.200 C 135.664 141.420,135.248 141.597,134.876 141.594 C 130.967 141.561,124.379 148.170,121.711 154.800 C 120.239 158.458,120.232 165.144,121.697 168.770 C 124.549 175.830,128.358 179.825,134.241 181.928 C 138.687 183.517,146.527 182.881,148.980 180.733 C 149.740 180.067,151.076 180.427,152.200 181.600 C 153.316 182.765,153.458 182.800,157.075 182.800 C 161.357 182.800,161.609 182.533,159.365 180.378 C 155.621 176.783,155.049 174.925,157.156 173.200 C 157.729 172.730,159.200 169.451,159.200 168.642 C 159.200 168.157,159.399 167.561,159.643 167.317 C 159.920 167.040,160.086 164.977,160.086 161.800 C 160.086 158.623,159.920 156.560,159.643 156.283 C 159.399 156.039,159.200 155.534,159.200 155.161 C 159.200 152.501,153.396 144.896,150.300 143.501 C 149.695 143.228,149.200 142.869,149.200 142.702 C 149.200 142.536,148.928 142.400,148.595 142.400 C 148.262 142.400,147.632 142.220,147.195 142.000 C 146.758 141.780,146.042 141.420,145.605 141.200 C 145.168 140.980,142.839 140.800,140.429 140.800 C 137.939 140.800,135.940 140.973,135.800 141.200 M167.200 161.792 L 167.200 182.810 181.900 182.705 L 196.600 182.600 196.600 178.800 L 196.600 175.000 186.504 174.893 L 176.409 174.786 176.304 157.893 L 176.200 141.000 171.700 140.887 L 167.200 140.774 167.200 161.792 M142.800 149.007 C 148.684 150.058,152.561 158.972,150.423 166.536 C 149.759 168.885,149.118 169.213,147.913 167.820 C 147.023 166.792,146.896 166.768,142.945 166.882 L 138.889 167.000 141.466 169.800 C 144.507 173.104,145.054 173.943,144.317 174.176 C 140.955 175.239,140.747 175.261,138.690 174.750 C 127.206 171.903,126.881 152.016,138.269 148.977 C 139.331 148.693,140.470 148.528,140.800 148.609 C 141.130 148.691,142.030 148.870,142.800 149.007 M252.000 181.618 C 250.790 181.798,247.938 182.137,245.661 182.373 C 243.385 182.608,241.360 182.901,241.161 183.024 C 240.963 183.147,240.800 186.193,240.800 189.793 L 240.800 196.338 239.300 196.785 C 238.475 197.032,237.080 197.427,236.200 197.663 C 232.228 198.732,225.250 201.587,222.244 203.375 C 217.614 206.128,218.597 206.383,213.238 201.038 L 208.511 196.323 205.970 198.255 C 201.101 201.958,195.589 207.367,192.200 211.767 C 191.540 212.624,190.595 213.818,190.100 214.420 C 188.849 215.943,188.701 215.687,193.794 220.794 C 198.918 225.931,198.639 225.100,196.500 228.845 C 195.301 230.947,195.021 231.501,193.600 234.600 C 192.894 236.140,192.155 237.713,191.958 238.095 C 191.761 238.477,191.600 239.116,191.600 239.515 C 191.600 239.914,191.451 240.411,191.270 240.620 C 191.088 240.829,190.741 241.720,190.499 242.600 C 190.257 243.480,189.800 245.100,189.482 246.200 L 188.905 248.200 182.952 248.297 C 174.883 248.428,175.355 248.238,174.993 251.496 C 174.244 258.234,174.774 275.457,175.750 276.094 C 175.997 276.256,179.086 276.391,182.613 276.394 L 189.025 276.400 189.529 278.300 C 190.199 280.822,191.557 285.201,191.980 286.200 C 194.175 291.385,194.811 292.738,196.060 294.881 C 198.270 298.671,198.222 298.820,193.219 303.793 C 190.789 306.209,188.800 308.390,188.800 308.639 C 188.800 310.896,206.375 328.400,208.641 328.400 C 208.845 328.400,210.938 326.420,213.292 324.000 C 217.852 319.314,218.225 319.128,220.400 320.461 C 224.835 323.178,231.134 325.859,236.764 327.424 C 240.976 328.595,240.787 328.209,240.794 335.655 L 240.800 341.911 242.100 342.149 C 248.543 343.327,261.458 343.408,266.900 342.306 L 269.200 341.840 269.200 335.694 C 269.200 328.898,269.432 328.000,271.190 328.000 C 271.830 328.000,272.464 327.820,272.600 327.600 C 272.736 327.380,273.242 327.199,273.724 327.198 C 275.583 327.194,283.341 323.944,288.914 320.834 C 291.749 319.252,291.080 318.957,296.340 324.100 C 298.760 326.465,300.946 328.400,301.199 328.400 C 303.531 328.400,321.207 310.811,321.199 308.498 C 321.199 308.334,319.127 306.143,316.595 303.628 C 311.437 298.504,311.589 299.017,314.029 295.000 C 314.893 293.578,315.600 292.326,315.600 292.217 C 315.600 292.109,316.140 290.841,316.800 289.400 C 317.460 287.959,318.000 286.544,318.000 286.257 C 318.000 285.969,318.135 285.600,318.300 285.437 C 318.465 285.274,319.150 283.219,319.821 280.870 L 321.043 276.600 327.905 276.491 L 334.767 276.381 334.950 275.091 C 336.299 265.579,336.260 255.404,334.853 249.400 L 334.571 248.200 327.818 248.000 L 321.065 247.800 320.770 246.800 C 318.054 237.606,316.880 234.744,312.879 227.571 L 311.636 225.342 316.218 220.799 C 318.738 218.301,320.800 216.037,320.800 215.768 C 320.800 213.465,303.545 196.400,301.217 196.400 C 300.885 196.400,298.581 198.425,296.098 200.900 L 291.583 205.400 290.291 204.647 C 284.521 201.282,276.936 198.124,270.800 196.534 L 269.400 196.171 269.290 189.726 C 269.212 185.108,269.036 183.162,268.671 182.859 C 267.618 181.985,255.564 181.087,252.000 181.618 M257.159 232.629 C 279.625 234.172,291.911 259.208,279.749 278.660 C 278.141 281.232,273.047 286.322,270.964 287.438 C 270.104 287.900,268.770 288.628,268.000 289.057 C 267.230 289.486,265.790 290.074,264.800 290.364 C 263.810 290.654,262.640 291.037,262.200 291.214 C 259.254 292.403,247.312 292.352,246.567 291.147 C 246.449 290.956,245.958 290.794,245.476 290.787 C 244.682 290.776,241.773 289.475,239.202 287.980 C 233.999 284.956,226.431 275.442,226.405 271.895 C 226.402 271.507,226.232 270.877,226.027 270.495 C 224.438 267.540,224.496 255.371,226.106 253.760 C 226.268 253.599,226.400 253.134,226.400 252.728 C 226.400 252.322,226.580 251.632,226.800 251.195 C 227.020 250.758,227.348 250.085,227.529 249.700 C 231.115 242.077,238.120 235.926,245.800 233.658 C 249.023 232.706,252.745 232.037,253.559 232.264 C 253.866 232.350,255.486 232.514,257.159 232.629 " stroke="none" fill="#054465" fill-rule="evenodd"></path><path id="path2" d="M329.102 176.200 L 329.000 248.000 331.676 248.000 C 334.826 248.000,334.810 247.982,335.268 251.957 C 336.202 260.065,336.104 267.338,334.956 275.100 L 334.764 276.400 331.882 276.400 L 329.000 276.399 329.113 287.222 L 329.225 298.045 320.817 297.923 C 312.634 297.803,312.000 297.878,312.000 298.965 C 312.000 299.019,314.070 301.119,316.599 303.632 C 319.129 306.144,321.199 308.334,321.199 308.498 C 321.207 310.811,303.531 328.400,301.199 328.400 C 300.946 328.400,298.760 326.465,296.340 324.100 C 291.080 318.957,291.749 319.252,288.914 320.834 C 283.341 323.944,275.583 327.194,273.724 327.198 C 273.242 327.199,272.736 327.380,272.600 327.600 C 272.464 327.820,271.830 328.000,271.190 328.000 C 269.432 328.000,269.200 328.898,269.200 335.694 L 269.200 341.840 266.900 342.306 C 261.458 343.408,248.543 343.327,242.100 342.149 L 240.800 341.911 240.794 335.655 C 240.787 328.209,240.976 328.595,236.764 327.424 C 231.134 325.859,224.835 323.178,220.400 320.461 C 218.225 319.128,217.852 319.314,213.292 324.000 C 210.938 326.420,208.845 328.400,208.641 328.400 C 206.375 328.400,188.800 310.896,188.800 308.639 C 188.800 308.390,190.785 306.209,193.212 303.793 C 197.132 299.890,198.455 297.913,197.100 297.984 C 196.935 297.993,168.865 298.000,134.722 298.000 L 72.643 298.000 122.222 347.559 C 178.252 403.567,171.414 397.508,179.000 397.870 C 181.103 397.971,182.766 398.241,183.000 398.521 C 183.286 398.863,185.658 399.000,191.314 399.000 C 197.689 399.000,199.297 399.110,199.577 399.563 C 199.872 400.040,200.156 400.017,201.423 399.416 C 202.733 398.794,203.834 398.726,210.194 398.869 C 216.048 399.001,217.568 398.924,217.987 398.476 C 218.370 398.066,219.333 397.958,221.652 398.063 C 223.401 398.142,224.854 398.039,224.924 397.829 C 224.993 397.622,226.208 397.426,227.625 397.394 C 229.041 397.362,230.617 397.112,231.128 396.839 C 231.638 396.566,232.659 396.423,233.396 396.523 C 234.133 396.622,234.905 396.535,235.111 396.329 C 235.317 396.123,236.411 395.948,237.542 395.939 C 238.674 395.930,239.600 395.760,239.600 395.562 C 239.600 395.363,240.320 395.200,241.200 395.200 C 242.080 395.200,242.800 395.020,242.800 394.800 C 242.800 394.580,243.509 394.400,244.376 394.400 C 245.243 394.400,246.064 394.220,246.200 394.000 C 246.336 393.780,247.146 393.600,248.000 393.600 C 248.854 393.600,249.664 393.420,249.800 393.200 C 249.936 392.980,250.476 392.800,251.000 392.800 C 251.524 392.800,252.064 392.620,252.200 392.400 C 252.336 392.180,253.067 392.000,253.824 392.000 C 254.581 392.000,255.200 391.820,255.200 391.600 C 255.200 391.380,255.729 391.200,256.376 391.200 C 257.023 391.200,257.664 391.020,257.800 390.800 C 257.936 390.580,258.566 390.400,259.200 390.400 C 259.834 390.400,260.464 390.220,260.600 390.000 C 260.736 389.780,261.276 389.600,261.800 389.600 C 262.324 389.600,262.864 389.420,263.000 389.200 C 263.136 388.980,263.599 388.800,264.029 388.800 C 264.459 388.800,265.123 388.641,265.505 388.447 C 265.887 388.252,266.740 387.871,267.400 387.600 C 268.060 387.329,268.913 386.948,269.295 386.753 C 269.677 386.559,270.352 386.400,270.795 386.400 C 271.238 386.400,271.600 386.220,271.600 386.000 C 271.600 385.780,271.949 385.600,272.376 385.600 C 272.803 385.600,273.264 385.420,273.400 385.200 C 273.536 384.980,274.087 384.800,274.624 384.800 C 275.161 384.800,275.600 384.620,275.600 384.400 C 275.600 384.180,275.881 384.000,276.225 384.000 C 276.569 384.000,278.054 383.447,279.525 382.772 C 280.996 382.097,282.740 381.309,283.400 381.022 C 286.255 379.780,288.610 378.578,288.733 378.300 C 288.807 378.135,289.212 378.000,289.633 378.000 C 290.055 378.000,290.400 377.820,290.400 377.600 C 290.400 377.380,290.760 377.200,291.200 377.200 C 291.640 377.200,292.000 377.020,292.000 376.800 C 292.000 376.580,292.360 376.400,292.800 376.400 C 293.240 376.400,293.600 376.220,293.600 376.000 C 293.600 375.780,293.960 375.600,294.400 375.600 C 294.840 375.600,295.200 375.454,295.200 375.275 C 295.200 375.096,295.830 374.702,296.600 374.400 C 297.370 374.098,298.000 373.733,298.000 373.588 C 298.000 373.444,298.855 372.892,299.900 372.363 C 300.945 371.833,301.860 371.265,301.933 371.100 C 302.007 370.935,302.412 370.800,302.833 370.800 C 303.255 370.800,303.600 370.650,303.600 370.468 C 303.600 370.285,304.095 369.880,304.700 369.568 C 305.305 369.255,306.149 368.685,306.575 368.300 C 307.002 367.915,307.587 367.600,307.875 367.600 C 308.164 367.600,308.400 367.450,308.400 367.268 C 308.400 367.085,308.895 366.680,309.500 366.368 C 310.105 366.056,310.690 365.704,310.800 365.585 C 310.974 365.396,315.781 362.125,317.538 361.000 C 317.881 360.780,318.711 360.106,319.381 359.502 C 320.052 358.898,320.753 358.403,320.940 358.402 C 321.126 358.401,321.783 357.860,322.400 357.200 C 323.017 356.540,323.723 356.000,323.971 356.000 C 324.219 356.000,325.213 355.208,326.181 354.240 C 327.149 353.272,328.494 352.153,329.170 351.754 C 329.847 351.354,330.400 350.906,330.400 350.757 C 330.400 350.608,331.973 349.162,333.894 347.543 C 338.353 343.789,343.789 338.353,347.543 333.894 C 349.162 331.973,350.608 330.400,350.757 330.400 C 350.906 330.400,351.354 329.847,351.754 329.170 C 352.153 328.494,353.272 327.149,354.240 326.181 C 355.208 325.213,356.000 324.219,356.000 323.971 C 356.000 323.723,356.540 323.017,357.200 322.400 C 357.860 321.783,358.401 321.126,358.402 320.940 C 358.403 320.753,358.898 320.052,359.502 319.381 C 360.106 318.711,360.780 317.881,361.000 317.538 C 362.125 315.781,365.396 310.974,365.585 310.800 C 365.704 310.690,366.056 310.105,366.368 309.500 C 366.680 308.895,367.085 308.400,367.268 308.400 C 367.450 308.400,367.600 308.164,367.600 307.875 C 367.600 307.587,367.915 307.002,368.300 306.575 C 368.685 306.149,369.255 305.305,369.568 304.700 C 369.880 304.095,370.285 303.600,370.468 303.600 C 370.650 303.600,370.800 303.255,370.800 302.833 C 370.800 302.412,370.935 302.007,371.100 301.933 C 371.265 301.860,371.833 300.945,372.363 299.900 C 372.892 298.855,373.444 298.000,373.588 298.000 C 373.733 298.000,374.098 297.370,374.400 296.600 C 374.702 295.830,375.096 295.200,375.275 295.200 C 375.454 295.200,375.600 294.840,375.600 294.400 C 375.600 293.960,375.780 293.600,376.000 293.600 C 376.220 293.600,376.400 293.240,376.400 292.800 C 376.400 292.360,376.580 292.000,376.800 292.000 C 377.020 292.000,377.200 291.640,377.200 291.200 C 377.200 290.760,377.380 290.400,377.600 290.400 C 377.820 290.400,378.000 290.055,378.000 289.633 C 378.000 289.212,378.135 288.807,378.300 288.733 C 378.578 288.610,379.780 286.255,381.022 283.400 C 381.309 282.740,382.097 280.996,382.772 279.525 C 383.447 278.054,384.000 276.569,384.000 276.225 C 384.000 275.881,384.180 275.600,384.400 275.600 C 384.620 275.600,384.800 275.161,384.800 274.624 C 384.800 274.087,384.980 273.536,385.200 273.400 C 385.420 273.264,385.600 272.803,385.600 272.376 C 385.600 271.949,385.780 271.600,386.000 271.600 C 386.220 271.600,386.400 271.238,386.400 270.795 C 386.400 270.352,386.559 269.677,386.753 269.295 C 386.948 268.913,387.329 268.060,387.600 267.400 C 387.871 266.740,388.252 265.887,388.447 265.505 C 388.641 265.123,388.800 264.459,388.800 264.029 C 388.800 263.599,388.980 263.136,389.200 263.000 C 389.420 262.864,389.600 262.324,389.600 261.800 C 389.600 261.276,389.780 260.736,390.000 260.600 C 390.220 260.464,390.400 259.834,390.400 259.200 C 390.400 258.566,390.580 257.936,390.800 257.800 C 391.020 257.664,391.200 257.023,391.200 256.376 C 391.200 255.729,391.380 255.200,391.600 255.200 C 391.820 255.200,392.000 254.581,392.000 253.824 C 392.000 253.067,392.180 252.336,392.400 252.200 C 392.620 252.064,392.800 251.524,392.800 251.000 C 392.800 250.476,392.980 249.936,393.200 249.800 C 393.420 249.664,393.600 248.854,393.600 248.000 C 393.600 247.146,393.780 246.336,394.000 246.200 C 394.220 246.064,394.400 245.243,394.400 244.376 C 394.400 243.509,394.580 242.800,394.800 242.800 C 395.020 242.800,395.200 242.080,395.200 241.200 C 395.200 240.320,395.363 239.600,395.562 239.600 C 395.760 239.600,395.930 238.674,395.939 237.542 C 395.948 236.411,396.123 235.317,396.329 235.111 C 396.535 234.905,396.622 234.133,396.523 233.396 C 396.423 232.659,396.566 231.638,396.839 231.128 C 397.112 230.617,397.362 229.041,397.394 227.625 C 397.426 226.208,397.622 224.993,397.829 224.924 C 398.039 224.854,398.142 223.401,398.063 221.652 C 397.958 219.333,398.066 218.370,398.476 217.987 C 398.924 217.568,399.001 216.048,398.869 210.194 C 398.726 203.834,398.794 202.733,399.416 201.423 C 400.017 200.156,400.040 199.872,399.563 199.577 C 399.110 199.297,399.000 197.689,399.000 191.314 C 399.000 185.658,398.863 183.286,398.521 183.000 C 398.241 182.766,397.971 181.103,397.870 179.000 C 397.510 171.444,401.482 176.164,363.461 138.108 C 344.947 119.578,329.666 104.413,329.502 104.408 C 329.338 104.404,329.158 136.710,329.102 176.200 " stroke="none" fill="#ab4c34" fill-rule="evenodd"></path><path id="path3" d="M179.003 0.275 C 177.025 0.362,175.234 0.606,175.023 0.817 C 174.812 1.028,173.427 1.200,171.944 1.200 C 170.461 1.200,169.136 1.380,169.000 1.600 C 168.864 1.820,167.773 2.000,166.576 2.000 C 165.379 2.000,164.400 2.180,164.400 2.400 C 164.400 2.620,163.511 2.800,162.424 2.800 C 161.337 2.800,160.336 2.980,160.200 3.200 C 160.064 3.420,159.243 3.600,158.376 3.600 C 157.509 3.600,156.800 3.780,156.800 4.000 C 156.800 4.220,156.001 4.400,155.024 4.400 C 154.047 4.400,153.136 4.580,153.000 4.800 C 152.864 5.020,152.144 5.200,151.400 5.200 C 150.656 5.200,149.936 5.380,149.800 5.600 C 149.664 5.820,149.034 6.000,148.400 6.000 C 147.766 6.000,147.136 6.180,147.000 6.400 C 146.864 6.620,146.234 6.800,145.600 6.800 C 144.966 6.800,144.336 6.980,144.200 7.200 C 144.064 7.420,143.434 7.600,142.800 7.600 C 142.166 7.600,141.536 7.780,141.400 8.000 C 141.264 8.220,140.623 8.400,139.976 8.400 C 139.329 8.400,138.800 8.580,138.800 8.800 C 138.800 9.020,138.260 9.200,137.600 9.200 C 136.940 9.200,136.400 9.356,136.400 9.546 C 136.400 9.736,135.594 10.002,134.609 10.137 C 133.624 10.272,132.454 10.566,132.009 10.791 C 131.564 11.016,130.842 11.380,130.405 11.600 C 129.968 11.820,129.420 12.000,129.186 12.000 C 128.952 12.000,128.016 12.360,127.106 12.800 C 126.195 13.240,125.124 13.600,124.725 13.600 C 124.326 13.600,124.000 13.747,124.000 13.928 C 124.000 14.108,123.100 14.500,122.000 14.800 C 120.900 15.100,120.000 15.492,120.000 15.672 C 120.000 15.853,119.640 16.000,119.200 16.000 C 118.760 16.000,118.400 16.180,118.400 16.400 C 118.400 16.620,118.040 16.800,117.600 16.800 C 117.160 16.800,116.800 16.980,116.800 17.200 C 116.800 17.420,116.528 17.600,116.195 17.600 C 115.862 17.600,115.277 17.768,114.895 17.974 C 114.513 18.179,113.615 18.583,112.900 18.871 C 112.185 19.160,111.600 19.531,111.600 19.698 C 111.600 19.864,111.240 20.000,110.800 20.000 C 110.360 20.000,110.000 20.180,110.000 20.400 C 110.000 20.620,109.655 20.800,109.233 20.800 C 108.812 20.800,108.407 20.935,108.333 21.100 C 108.213 21.370,106.111 22.578,103.703 23.760 C 103.210 24.002,102.805 24.335,102.803 24.500 C 102.801 24.665,102.440 24.800,102.000 24.800 C 101.560 24.800,101.200 24.980,101.200 25.200 C 101.200 25.420,100.906 25.600,100.547 25.600 C 100.188 25.600,99.603 25.936,99.247 26.346 C 98.891 26.757,98.033 27.217,97.341 27.369 C 96.649 27.521,95.766 27.995,95.379 28.423 C 94.993 28.850,94.434 29.200,94.138 29.200 C 93.842 29.200,93.600 29.380,93.600 29.600 C 93.600 29.820,93.364 30.000,93.075 30.000 C 92.787 30.000,92.164 30.360,91.692 30.800 C 91.220 31.240,90.596 31.600,90.305 31.600 C 90.014 31.600,89.517 31.960,89.200 32.400 C 88.883 32.840,88.343 33.200,88.000 33.200 C 87.657 33.200,87.117 33.560,86.800 34.000 C 86.483 34.440,86.038 34.800,85.812 34.801 C 85.585 34.801,84.770 35.341,84.000 36.000 C 83.230 36.659,82.415 37.199,82.188 37.199 C 81.962 37.200,81.517 37.560,81.200 38.000 C 80.883 38.440,80.422 38.800,80.177 38.800 C 79.931 38.800,78.936 39.522,77.965 40.404 C 76.994 41.286,75.818 42.349,75.352 42.767 C 74.885 43.184,73.985 43.799,73.352 44.133 C 72.718 44.467,71.286 45.609,70.169 46.670 C 69.052 47.732,67.522 49.043,66.769 49.584 C 66.016 50.125,64.230 51.793,62.800 53.291 C 60.199 56.016,58.934 57.286,52.590 63.544 C 50.726 65.384,49.200 67.028,49.200 67.199 C 49.200 67.369,48.199 68.564,46.975 69.854 C 45.751 71.144,44.475 72.718,44.138 73.352 C 43.801 73.985,43.184 74.885,42.767 75.352 C 42.349 75.818,41.286 76.994,40.404 77.965 C 39.522 78.936,38.800 79.931,38.800 80.177 C 38.800 80.422,38.440 80.883,38.000 81.200 C 37.560 81.517,37.200 81.962,37.199 82.188 C 37.199 82.415,36.659 83.230,36.000 84.000 C 35.341 84.770,34.801 85.585,34.801 85.812 C 34.800 86.038,34.440 86.483,34.000 86.800 C 33.560 87.117,33.200 87.657,33.200 88.000 C 33.200 88.343,32.840 88.883,32.400 89.200 C 31.960 89.517,31.600 90.014,31.600 90.305 C 31.600 90.596,31.240 91.220,30.800 91.692 C 30.360 92.164,30.000 92.787,30.000 93.075 C 30.000 93.364,29.820 93.600,29.600 93.600 C 29.380 93.600,29.200 93.842,29.200 94.138 C 29.200 94.434,28.850 94.993,28.423 95.379 C 27.995 95.766,27.521 96.649,27.369 97.341 C 27.217 98.033,26.757 98.891,26.346 99.247 C 25.936 99.603,25.600 100.188,25.600 100.547 C 25.600 100.906,25.420 101.200,25.200 101.200 C 24.980 101.200,24.800 101.560,24.800 102.000 C 24.800 102.440,24.665 102.801,24.500 102.803 C 24.335 102.805,24.002 103.210,23.760 103.703 C 22.578 106.111,21.370 108.213,21.100 108.333 C 20.935 108.407,20.800 108.812,20.800 109.233 C 20.800 109.655,20.620 110.000,20.400 110.000 C 20.180 110.000,20.000 110.360,20.000 110.800 C 20.000 111.240,19.864 111.600,19.698 111.600 C 19.531 111.600,19.160 112.185,18.871 112.900 C 18.583 113.615,18.179 114.513,17.974 114.895 C 17.768 115.277,17.600 115.862,17.600 116.195 C 17.600 116.528,17.420 116.800,17.200 116.800 C 16.980 116.800,16.800 117.160,16.800 117.600 C 16.800 118.040,16.620 118.400,16.400 118.400 C 16.180 118.400,16.000 118.760,16.000 119.200 C 16.000 119.640,15.853 120.000,15.672 120.000 C 15.492 120.000,15.100 120.900,14.800 122.000 C 14.500 123.100,14.108 124.000,13.928 124.000 C 13.747 124.000,13.600 124.326,13.600 124.725 C 13.600 125.124,13.240 126.195,12.800 127.106 C 12.360 128.016,12.000 128.952,12.000 129.186 C 12.000 129.420,11.820 129.968,11.600 130.405 C 11.380 130.842,11.016 131.564,10.791 132.009 C 10.566 132.454,10.272 133.624,10.137 134.609 C 10.002 135.594,9.736 136.400,9.546 136.400 C 9.356 136.400,9.200 136.940,9.200 137.600 C 9.200 138.260,9.020 138.800,8.800 138.800 C 8.580 138.800,8.400 139.329,8.400 139.976 C 8.400 140.623,8.220 141.264,8.000 141.400 C 7.780 141.536,7.600 142.166,7.600 142.800 C 7.600 143.434,7.420 144.064,7.200 144.200 C 6.980 144.336,6.800 144.966,6.800 145.600 C 6.800 146.234,6.620 146.864,6.400 147.000 C 6.180 147.136,6.000 147.766,6.000 148.400 C 6.000 149.034,5.820 149.664,5.600 149.800 C 5.380 149.936,5.200 150.656,5.200 151.400 C 5.200 152.144,5.020 152.864,4.800 153.000 C 4.580 153.136,4.400 154.047,4.400 155.024 C 4.400 156.001,4.220 156.800,4.000 156.800 C 3.780 156.800,3.600 157.509,3.600 158.376 C 3.600 159.243,3.420 160.064,3.200 160.200 C 2.980 160.336,2.800 161.337,2.800 162.424 C 2.800 163.511,2.620 164.400,2.400 164.400 C 2.180 164.400,2.000 165.379,2.000 166.576 C 2.000 167.773,1.820 168.864,1.600 169.000 C 1.380 169.136,1.200 170.461,1.200 171.944 C 1.200 173.567,1.001 174.839,0.700 175.140 C -0.029 175.869,-0.029 224.131,0.700 224.860 C 1.001 225.161,1.200 226.433,1.200 228.056 C 1.200 229.539,1.380 230.864,1.600 231.000 C 1.820 231.136,2.000 232.227,2.000 233.424 C 2.000 234.621,2.180 235.600,2.400 235.600 C 2.620 235.600,2.800 236.590,2.800 237.800 C 2.800 239.010,2.980 240.000,3.200 240.000 C 3.420 240.000,3.600 240.720,3.600 241.600 C 3.600 242.480,3.780 243.200,4.000 243.200 C 4.220 243.200,4.400 243.999,4.400 244.976 C 4.400 245.953,4.580 246.864,4.800 247.000 C 5.020 247.136,5.200 247.957,5.200 248.824 C 5.200 249.691,5.380 250.400,5.600 250.400 C 5.820 250.400,6.000 250.929,6.000 251.576 C 6.000 252.223,6.180 252.864,6.400 253.000 C 6.620 253.136,6.800 253.867,6.800 254.624 C 6.800 255.381,6.980 256.000,7.200 256.000 C 7.420 256.000,7.600 256.529,7.600 257.176 C 7.600 257.823,7.780 258.464,8.000 258.600 C 8.220 258.736,8.400 259.377,8.400 260.024 C 8.400 260.671,8.580 261.200,8.800 261.200 C 9.020 261.200,9.200 261.740,9.200 262.400 C 9.200 263.060,9.356 263.600,9.546 263.600 C 9.736 263.600,10.003 264.412,10.139 265.405 C 10.275 266.398,10.749 267.961,11.193 268.880 C 11.637 269.799,12.000 270.753,12.000 271.000 C 12.000 271.247,12.360 272.195,12.800 273.106 C 13.240 274.016,13.600 275.040,13.600 275.381 C 13.600 275.721,13.747 276.000,13.928 276.000 C 14.108 276.000,14.500 276.900,14.800 278.000 C 15.100 279.100,15.492 280.000,15.672 280.000 C 15.853 280.000,16.000 280.360,16.000 280.800 C 16.000 281.240,16.180 281.600,16.400 281.600 C 16.620 281.600,16.800 281.960,16.800 282.400 C 16.800 282.840,16.980 283.200,17.200 283.200 C 17.420 283.200,17.600 283.472,17.600 283.805 C 17.600 284.138,17.760 284.723,17.956 285.105 C 18.152 285.487,18.737 286.700,19.256 287.800 C 19.775 288.900,20.335 289.860,20.500 289.933 C 20.665 290.007,20.800 290.412,20.800 290.833 C 20.800 291.255,20.980 291.600,21.200 291.600 C 21.420 291.600,21.600 291.945,21.600 292.367 C 21.600 292.788,21.735 293.193,21.900 293.267 C 22.276 293.434,23.575 295.564,23.871 296.500 C 23.993 296.885,24.252 297.200,24.447 297.200 C 24.641 297.200,24.800 297.560,24.800 298.000 C 24.800 298.440,24.980 298.800,25.200 298.800 C 25.420 298.800,25.600 299.094,25.600 299.453 C 25.600 299.812,25.931 300.397,26.336 300.753 C 26.741 301.109,27.200 301.919,27.357 302.553 C 27.645 303.717,30.666 308.487,31.272 308.733 C 31.453 308.807,31.600 309.172,31.600 309.545 C 31.600 309.918,31.960 310.483,32.400 310.800 C 32.840 311.117,33.200 311.657,33.200 312.000 C 33.200 312.343,33.560 312.883,34.000 313.200 C 34.440 313.517,34.800 313.962,34.801 314.188 C 34.801 314.415,35.341 315.230,36.000 316.000 C 36.659 316.770,37.199 317.585,37.199 317.812 C 37.200 318.038,37.560 318.483,38.000 318.800 C 38.440 319.117,38.800 319.572,38.800 319.810 C 38.800 320.049,39.385 320.902,40.100 321.706 C 42.213 324.081,43.513 325.706,44.572 327.295 C 45.121 328.118,46.386 329.607,47.385 330.606 C 48.383 331.604,49.200 332.580,49.200 332.773 C 49.200 332.967,51.085 334.988,53.388 337.263 C 58.024 341.843,58.637 342.454,63.758 347.615 C 65.715 349.587,67.474 351.200,67.667 351.200 C 67.860 351.200,69.007 352.190,70.217 353.400 C 71.427 354.610,72.571 355.600,72.758 355.600 C 72.946 355.600,73.787 356.230,74.628 357.000 C 75.469 357.770,76.279 358.400,76.428 358.400 C 76.577 358.400,77.387 359.030,78.228 359.800 C 79.069 360.570,79.951 361.200,80.190 361.200 C 80.428 361.200,80.883 361.560,81.200 362.000 C 81.517 362.440,81.962 362.800,82.188 362.801 C 82.415 362.801,83.230 363.341,84.000 364.000 C 84.770 364.659,85.585 365.199,85.812 365.199 C 86.038 365.200,86.483 365.560,86.800 366.000 C 87.117 366.440,87.657 366.800,88.000 366.800 C 88.343 366.800,88.883 367.160,89.200 367.600 C 89.517 368.040,90.097 368.400,90.488 368.400 C 90.880 368.400,91.200 368.550,91.200 368.732 C 91.200 368.915,91.695 369.320,92.300 369.632 C 92.905 369.945,93.723 370.491,94.118 370.846 C 94.512 371.202,95.682 371.919,96.718 372.441 C 97.753 372.962,98.690 373.502,98.800 373.639 C 99.159 374.087,101.546 375.200,102.147 375.200 C 102.469 375.200,102.793 375.335,102.867 375.500 C 103.034 375.876,105.164 377.175,106.100 377.471 C 106.485 377.593,106.800 377.852,106.800 378.047 C 106.800 378.241,107.160 378.400,107.600 378.400 C 108.040 378.400,108.400 378.580,108.400 378.800 C 108.400 379.020,108.760 379.200,109.200 379.200 C 109.640 379.200,110.000 379.380,110.000 379.600 C 110.000 379.820,110.360 380.000,110.800 380.000 C 111.240 380.000,111.600 380.136,111.600 380.302 C 111.600 380.469,112.185 380.840,112.900 381.129 C 113.615 381.417,114.513 381.821,114.895 382.026 C 115.277 382.232,115.862 382.400,116.195 382.400 C 116.528 382.400,116.800 382.580,116.800 382.800 C 116.800 383.020,117.160 383.200,117.600 383.200 C 118.040 383.200,118.400 383.380,118.400 383.600 C 118.400 383.820,118.760 384.000,119.200 384.000 C 119.640 384.000,120.000 384.180,120.000 384.400 C 120.000 384.620,120.349 384.800,120.776 384.800 C 121.203 384.800,121.664 384.980,121.800 385.200 C 121.936 385.420,122.487 385.600,123.024 385.600 C 123.561 385.600,124.000 385.780,124.000 386.000 C 124.000 386.220,124.279 386.400,124.619 386.400 C 124.960 386.400,125.984 386.760,126.894 387.200 C 127.805 387.640,128.861 388.000,129.242 388.000 C 129.622 388.000,129.993 388.140,130.067 388.312 C 130.254 388.750,139.033 391.600,140.196 391.600 C 140.722 391.600,141.264 391.780,141.400 392.000 C 141.536 392.220,142.166 392.400,142.800 392.400 C 143.434 392.400,144.064 392.580,144.200 392.800 C 144.336 393.020,144.966 393.200,145.600 393.200 C 146.234 393.200,146.864 393.380,147.000 393.600 C 147.136 393.820,147.777 394.000,148.424 394.000 C 149.071 394.000,149.600 394.180,149.600 394.400 C 149.600 394.620,150.309 394.800,151.176 394.800 C 152.043 394.800,152.864 394.980,153.000 395.200 C 153.136 395.420,154.047 395.600,155.024 395.600 C 156.001 395.600,156.800 395.780,156.800 396.000 C 156.800 396.220,157.520 396.400,158.400 396.400 C 159.280 396.400,160.000 396.580,160.000 396.800 C 160.000 397.020,160.990 397.200,162.200 397.200 C 163.410 397.200,164.400 397.380,164.400 397.600 C 164.400 397.820,165.379 398.000,166.576 398.000 C 167.773 398.000,168.864 398.180,169.000 398.400 C 169.358 398.980,171.600 398.897,171.600 398.304 C 171.600 398.031,149.147 375.351,121.703 347.905 L 71.807 298.003 134.203 297.900 L 196.600 297.797 133.900 297.699 L 71.200 297.600 71.200 200.000 L 71.200 102.400 200.000 102.400 C 319.947 102.400,328.800 102.446,328.800 103.067 C 328.800 103.433,328.927 103.607,329.082 103.452 C 329.237 103.297,344.764 118.567,363.587 137.385 C 382.410 156.203,398.033 171.600,398.305 171.600 C 398.897 171.600,398.979 169.358,398.400 169.000 C 398.180 168.864,398.000 167.773,398.000 166.576 C 398.000 165.379,397.820 164.400,397.600 164.400 C 397.380 164.400,397.200 163.410,397.200 162.200 C 397.200 160.990,397.020 160.000,396.800 160.000 C 396.580 160.000,396.400 159.280,396.400 158.400 C 396.400 157.520,396.220 156.800,396.000 156.800 C 395.780 156.800,395.600 156.001,395.600 155.024 C 395.600 154.047,395.420 153.136,395.200 153.000 C 394.980 152.864,394.800 152.043,394.800 151.176 C 394.800 150.309,394.620 149.600,394.400 149.600 C 394.180 149.600,394.000 149.071,394.000 148.424 C 394.000 147.777,393.820 147.136,393.600 147.000 C 393.380 146.864,393.200 146.234,393.200 145.600 C 393.200 144.966,393.020 144.336,392.800 144.200 C 392.580 144.064,392.400 143.434,392.400 142.800 C 392.400 142.166,392.220 141.536,392.000 141.400 C 391.780 141.264,391.600 140.722,391.600 140.196 C 391.600 139.033,388.750 130.254,388.312 130.067 C 388.140 129.993,388.000 129.622,388.000 129.242 C 388.000 128.861,387.640 127.805,387.200 126.894 C 386.760 125.984,386.400 124.960,386.400 124.619 C 386.400 124.279,386.220 124.000,386.000 124.000 C 385.780 124.000,385.600 123.561,385.600 123.024 C 385.600 122.487,385.420 121.936,385.200 121.800 C 384.980 121.664,384.800 121.203,384.800 120.776 C 384.800 120.349,384.620 120.000,384.400 120.000 C 384.180 120.000,384.000 119.640,384.000 119.200 C 384.000 118.760,383.820 118.400,383.600 118.400 C 383.380 118.400,383.200 118.040,383.200 117.600 C 383.200 117.160,383.020 116.800,382.800 116.800 C 382.580 116.800,382.400 116.528,382.400 116.195 C 382.400 115.862,382.232 115.277,382.026 114.895 C 381.821 114.513,381.417 113.615,381.129 112.900 C 380.840 112.185,380.469 111.600,380.302 111.600 C 380.136 111.600,380.000 111.240,380.000 110.800 C 380.000 110.360,379.820 110.000,379.600 110.000 C 379.380 110.000,379.200 109.640,379.200 109.200 C 379.200 108.760,379.020 108.400,378.800 108.400 C 378.580 108.400,378.400 108.055,378.400 107.633 C 378.400 107.212,378.265 106.807,378.100 106.733 C 377.724 106.566,376.425 104.436,376.129 103.500 C 376.007 103.115,375.748 102.800,375.553 102.800 C 375.359 102.800,375.200 102.521,375.200 102.180 C 375.200 101.553,374.099 99.168,373.639 98.800 C 373.502 98.690,372.962 97.753,372.441 96.718 C 371.919 95.682,371.202 94.512,370.846 94.118 C 370.491 93.723,369.945 92.905,369.632 92.300 C 369.320 91.695,368.915 91.200,368.732 91.200 C 368.550 91.200,368.400 90.880,368.400 90.488 C 368.400 90.097,368.040 89.517,367.600 89.200 C 367.160 88.883,366.800 88.343,366.800 88.000 C 366.800 87.657,366.440 87.117,366.000 86.800 C 365.560 86.483,365.200 86.038,365.199 85.812 C 365.199 85.585,364.659 84.770,364.000 84.000 C 363.341 83.230,362.801 82.415,362.801 82.188 C 362.800 81.962,362.440 81.517,362.000 81.200 C 361.560 80.883,361.200 80.428,361.200 80.190 C 361.200 79.951,360.570 79.069,359.800 78.228 C 359.030 77.387,358.400 76.577,358.400 76.428 C 358.400 76.279,357.770 75.469,357.000 74.628 C 356.230 73.787,355.600 72.946,355.600 72.758 C 355.600 72.571,354.610 71.427,353.400 70.217 C 352.190 69.007,351.200 67.860,351.200 67.667 C 351.200 67.474,349.587 65.715,347.615 63.758 C 342.454 58.637,341.843 58.024,337.263 53.388 C 334.988 51.085,332.967 49.200,332.773 49.200 C 332.580 49.200,331.604 48.383,330.606 47.385 C 329.607 46.386,328.118 45.121,327.295 44.572 C 325.706 43.513,324.081 42.213,321.706 40.100 C 320.902 39.385,320.049 38.800,319.810 38.800 C 319.572 38.800,319.117 38.440,318.800 38.000 C 318.483 37.560,318.038 37.200,317.812 37.199 C 317.585 37.199,316.770 36.659,316.000 36.000 C 315.230 35.341,314.415 34.801,314.188 34.801 C 313.962 34.800,313.517 34.440,313.200 34.000 C 312.883 33.560,312.343 33.200,312.000 33.200 C 311.657 33.200,311.117 32.840,310.800 32.400 C 310.483 31.960,309.918 31.600,309.545 31.600 C 309.172 31.600,308.807 31.453,308.733 31.272 C 308.487 30.666,303.717 27.645,302.553 27.357 C 301.919 27.200,301.109 26.741,300.753 26.336 C 300.397 25.931,299.812 25.600,299.453 25.600 C 299.094 25.600,298.800 25.420,298.800 25.200 C 298.800 24.980,298.455 24.800,298.033 24.800 C 297.612 24.800,297.207 24.665,297.133 24.500 C 296.966 24.124,294.836 22.825,293.900 22.529 C 293.515 22.407,293.200 22.148,293.200 21.953 C 293.200 21.759,292.840 21.600,292.400 21.600 C 291.960 21.600,291.600 21.420,291.600 21.200 C 291.600 20.980,291.255 20.800,290.833 20.800 C 290.412 20.800,290.007 20.665,289.933 20.500 C 289.860 20.335,288.900 19.775,287.800 19.256 C 286.700 18.737,285.487 18.152,285.105 17.956 C 284.723 17.760,284.138 17.600,283.805 17.600 C 283.472 17.600,283.200 17.420,283.200 17.200 C 283.200 16.980,282.840 16.800,282.400 16.800 C 281.960 16.800,281.600 16.620,281.600 16.400 C 281.600 16.180,281.240 16.000,280.800 16.000 C 280.360 16.000,280.000 15.853,280.000 15.672 C 280.000 15.492,279.100 15.100,278.000 14.800 C 276.900 14.500,276.000 14.108,276.000 13.928 C 276.000 13.747,275.721 13.600,275.381 13.600 C 275.040 13.600,274.016 13.240,273.106 12.800 C 272.195 12.360,271.247 12.000,271.000 12.000 C 270.753 12.000,269.799 11.637,268.880 11.193 C 267.961 10.749,266.398 10.275,265.405 10.139 C 264.412 10.003,263.600 9.736,263.600 9.546 C 263.600 9.356,263.060 9.200,262.400 9.200 C 261.740 9.200,261.200 9.020,261.200 8.800 C 261.200 8.580,260.671 8.400,260.024 8.400 C 259.377 8.400,258.736 8.220,258.600 8.000 C 258.464 7.780,257.823 7.600,257.176 7.600 C 256.529 7.600,256.000 7.420,256.000 7.200 C 256.000 6.980,255.381 6.800,254.624 6.800 C 253.867 6.800,253.136 6.620,253.000 6.400 C 252.864 6.180,252.223 6.000,251.576 6.000 C 250.929 6.000,250.400 5.820,250.400 5.600 C 250.400 5.380,249.691 5.200,248.824 5.200 C 247.957 5.200,247.136 5.020,247.000 4.800 C 246.864 4.580,245.953 4.400,244.976 4.400 C 243.999 4.400,243.200 4.220,243.200 4.000 C 243.200 3.780,242.480 3.600,241.600 3.600 C 240.720 3.600,240.000 3.420,240.000 3.200 C 240.000 2.980,239.010 2.800,237.800 2.800 C 236.590 2.800,235.600 2.620,235.600 2.400 C 235.600 2.180,234.621 2.000,233.424 2.000 C 232.227 2.000,231.136 1.820,231.000 1.600 C 230.864 1.380,229.539 1.200,228.056 1.200 C 226.478 1.200,225.159 0.999,224.875 0.715 C 224.394 0.234,187.860 -0.116,179.003 0.275 M84.600 108.441 C 80.532 109.690,78.695 115.489,81.289 118.890 C 85.484 124.390,93.600 121.681,93.600 114.780 C 93.600 110.036,89.290 107.000,84.600 108.441 M105.800 108.265 C 103.025 109.015,100.534 112.804,100.921 115.687 C 101.766 121.988,110.035 123.957,113.521 118.688 C 116.945 113.515,111.846 106.631,105.800 108.265 M126.600 108.265 C 120.974 109.786,120.250 118.465,125.534 121.061 C 133.231 124.843,139.399 114.184,132.398 109.199 C 131.220 108.360,128.105 107.858,126.600 108.265 M328.995 187.400 C 328.995 220.400,329.042 233.841,329.100 217.269 C 329.158 200.696,329.158 173.696,329.100 157.269 C 329.042 140.841,328.995 154.400,328.995 187.400 M398.800 176.376 C 398.800 177.269,398.980 178.000,399.200 178.000 C 399.420 178.000,399.600 177.381,399.600 176.624 C 399.600 175.867,399.420 175.136,399.200 175.000 C 398.958 174.851,398.800 175.396,398.800 176.376 M399.067 223.867 C 398.669 224.265,398.745 225.200,399.175 225.200 C 399.381 225.200,399.523 224.840,399.490 224.400 C 399.422 223.496,399.429 223.505,399.067 223.867 M328.974 287.000 C 328.975 292.720,329.031 295.004,329.099 292.076 C 329.168 289.148,329.167 284.468,329.099 281.676 C 329.030 278.884,328.974 281.280,328.974 287.000 M175.000 399.200 C 175.136 399.420,175.867 399.600,176.624 399.600 C 177.381 399.600,178.000 399.420,178.000 399.200 C 178.000 398.980,177.269 398.800,176.376 398.800 C 175.396 398.800,174.851 398.958,175.000 399.200 " stroke="none" fill="#fb6b3b" fill-rule="evenodd"></path><path id="path4" d="M200.311 114.800 L 200.422 127.200 264.211 127.200 L 328.000 127.200 328.000 115.033 C 328.000 105.674,328.115 102.820,328.500 102.665 C 328.775 102.554,300.020 102.449,264.600 102.431 L 200.200 102.400 200.311 114.800 M139.500 140.282 C 139.995 140.378,140.805 140.378,141.300 140.282 C 141.795 140.187,141.390 140.109,140.400 140.109 C 139.410 140.109,139.005 140.187,139.500 140.282 M143.633 140.543 C 143.725 140.621,144.430 140.801,145.200 140.942 C 146.185 141.123,146.422 141.082,146.000 140.806 C 145.458 140.450,143.237 140.203,143.633 140.543 M175.895 140.690 C 176.273 140.958,176.416 144.992,176.495 157.621 L 176.600 174.200 186.500 174.211 L 196.400 174.221 186.605 174.104 L 176.809 173.986 176.704 157.326 C 176.614 142.917,176.519 140.644,176.000 140.503 C 175.560 140.383,175.532 140.433,175.895 140.690 M92.900 141.212 C 91.561 141.751,91.811 142.024,93.200 141.540 C 93.860 141.310,94.400 141.049,94.400 140.961 C 94.400 140.724,93.913 140.805,92.900 141.212 M88.832 143.847 C 87.702 144.863,86.584 146.078,86.347 146.547 C 86.111 147.016,86.506 146.704,87.226 145.854 C 87.945 145.003,89.251 143.788,90.127 143.154 C 91.003 142.519,91.532 142.000,91.303 142.000 C 91.074 142.000,89.962 142.831,88.832 143.847 M149.200 142.420 C 150.587 143.361,151.378 143.635,150.400 142.836 C 149.850 142.386,149.220 142.017,149.000 142.015 C 148.780 142.013,148.870 142.196,149.200 142.420 M127.775 144.900 L 126.600 146.200 127.900 145.025 C 128.615 144.379,129.200 143.794,129.200 143.725 C 129.200 143.416,128.870 143.688,127.775 144.900 M101.633 149.343 C 101.725 149.421,102.430 149.601,103.200 149.742 C 104.185 149.923,104.422 149.882,104.000 149.606 C 103.458 149.250,101.237 149.003,101.633 149.343 M111.720 151.741 C 111.544 152.039,111.130 152.385,110.800 152.510 C 110.316 152.693,110.332 152.743,110.886 152.768 C 111.263 152.786,111.765 152.440,112.000 152.000 C 112.475 151.113,112.227 150.884,111.720 151.741 M84.468 156.000 C 84.488 157.039,85.118 158.746,85.132 157.800 C 85.138 157.360,84.989 156.640,84.800 156.200 C 84.589 155.710,84.461 155.632,84.468 156.000 M100.833 156.944 C 100.925 157.023,101.540 157.208,102.200 157.356 C 103.076 157.552,103.238 157.515,102.800 157.218 C 102.260 156.853,100.432 156.598,100.833 156.944 M130.501 159.400 C 130.505 160.280,130.587 160.593,130.683 160.095 C 130.779 159.598,130.775 158.878,130.675 158.495 C 130.575 158.113,130.496 158.520,130.501 159.400 M150.299 161.000 C 150.416 162.540,150.577 163.875,150.656 163.967 C 150.934 164.288,150.717 160.189,150.403 159.200 C 150.219 158.619,150.175 159.373,150.299 161.000 M120.134 161.600 C 120.134 163.250,120.205 163.925,120.291 163.100 C 120.378 162.275,120.378 160.925,120.291 160.100 C 120.205 159.275,120.134 159.950,120.134 161.600 M114.837 164.000 C 115.996 165.796,116.000 165.801,115.998 165.367 C 115.997 165.165,115.532 164.460,114.965 163.800 L 113.934 162.600 114.837 164.000 M130.501 164.200 C 130.505 165.080,130.587 165.393,130.683 164.895 C 130.779 164.398,130.775 163.678,130.675 163.295 C 130.575 162.913,130.496 163.320,130.501 164.200 M140.700 166.295 C 141.855 166.376,143.745 166.376,144.900 166.295 C 146.055 166.214,145.110 166.148,142.800 166.148 C 140.490 166.148,139.545 166.214,140.700 166.295 M138.000 166.652 C 138.000 166.864,138.765 167.749,139.700 168.619 L 141.400 170.200 139.800 168.406 C 138.920 167.420,138.155 166.535,138.100 166.439 C 138.045 166.344,138.000 166.440,138.000 166.652 M147.965 167.295 C 148.920 168.379,150.020 168.246,149.988 167.051 C 149.981 166.803,149.784 166.930,149.549 167.333 C 149.144 168.031,149.071 168.021,148.061 167.133 L 147.000 166.200 147.965 167.295 M86.392 170.500 C 85.985 171.341,85.995 171.351,86.551 170.660 C 86.899 170.228,87.350 170.046,87.635 170.222 C 87.947 170.415,88.021 170.357,87.838 170.062 C 87.399 169.351,86.872 169.510,86.392 170.500 M142.308 171.619 C 143.888 173.354,143.929 173.897,142.500 174.113 L 141.400 174.280 142.513 174.340 C 144.315 174.437,144.336 173.337,142.564 171.663 L 141.015 170.200 142.308 171.619 M157.499 173.232 C 156.895 174.314,156.483 175.200,156.583 175.200 C 156.857 175.200,158.921 171.588,158.747 171.414 C 158.665 171.332,158.103 172.150,157.499 173.232 M116.493 172.800 C 116.493 173.570,116.575 173.885,116.676 173.500 C 116.776 173.115,116.776 172.485,116.676 172.100 C 116.575 171.715,116.493 172.030,116.493 172.800 M123.160 173.400 C 123.834 174.705,124.388 175.428,124.385 175.000 C 124.383 174.780,124.014 174.150,123.564 173.600 C 123.021 172.936,122.885 172.869,123.160 173.400 M97.505 174.283 C 98.002 174.379,98.722 174.375,99.105 174.275 C 99.487 174.175,99.080 174.096,98.200 174.101 C 97.320 174.105,97.007 174.187,97.505 174.283 M156.000 175.864 C 156.000 176.082,156.495 176.697,157.100 177.230 L 158.200 178.200 157.200 177.000 C 156.650 176.340,156.155 175.725,156.100 175.633 C 156.045 175.542,156.000 175.645,156.000 175.864 M113.178 179.500 L 111.800 181.000 113.300 179.622 C 114.696 178.338,114.984 178.000,114.678 178.000 C 114.612 178.000,113.937 178.675,113.178 179.500 M158.000 178.525 C 158.000 178.594,158.585 179.179,159.300 179.825 L 160.600 181.000 159.425 179.700 C 158.330 178.488,158.000 178.216,158.000 178.525 M128.269 179.232 C 128.766 179.833,131.200 181.364,131.200 181.076 C 131.200 180.983,130.435 180.402,129.500 179.785 C 128.565 179.168,128.011 178.920,128.269 179.232 M245.000 181.622 C 244.264 181.822,245.038 181.863,247.000 181.726 C 248.760 181.603,250.275 181.435,250.367 181.351 C 250.679 181.068,246.205 181.293,245.000 181.622 M263.200 181.589 C 264.178 181.913,268.296 182.142,267.967 181.855 C 267.875 181.775,266.540 181.608,265.000 181.484 C 263.296 181.347,262.591 181.388,263.200 181.589 M91.400 182.400 C 91.840 182.589,92.470 182.744,92.800 182.744 C 93.178 182.744,93.104 182.617,92.600 182.400 C 92.160 182.211,91.530 182.056,91.200 182.056 C 90.822 182.056,90.896 182.183,91.400 182.400 M240.667 182.267 C 240.520 182.413,240.438 185.518,240.485 189.167 L 240.570 195.800 240.785 189.217 L 241.000 182.635 242.000 182.357 L 243.000 182.080 241.967 182.040 C 241.398 182.018,240.813 182.120,240.667 182.267 M268.700 182.430 C 269.058 182.809,269.200 184.813,269.200 189.480 C 269.200 193.066,269.335 196.000,269.500 196.001 C 270.135 196.002,269.445 182.279,268.800 182.082 C 268.316 181.935,268.296 182.002,268.700 182.430 M94.800 183.187 C 95.791 183.517,98.687 183.735,98.367 183.454 C 98.275 183.374,97.210 183.206,96.000 183.081 C 94.580 182.934,94.154 182.971,94.800 183.187 M105.300 183.076 C 105.685 183.176,106.315 183.176,106.700 183.076 C 107.085 182.975,106.770 182.893,106.000 182.893 C 105.230 182.893,104.915 182.975,105.300 183.076 M140.800 183.200 L 137.800 183.456 140.600 183.488 C 142.140 183.506,143.850 183.376,144.400 183.200 C 145.578 182.823,145.225 182.823,140.800 183.200 M296.218 200.000 C 291.497 204.657,291.175 204.832,289.600 203.600 C 289.050 203.170,288.390 202.814,288.133 202.809 C 287.877 202.804,287.607 202.665,287.533 202.500 C 287.344 202.075,282.744 199.922,282.515 200.152 C 282.410 200.257,283.287 200.783,284.462 201.321 C 285.638 201.860,287.553 202.863,288.718 203.550 C 291.602 205.253,291.413 205.327,296.209 200.600 C 298.553 198.290,300.770 196.226,301.135 196.012 C 301.627 195.726,301.654 195.621,301.239 195.612 C 300.930 195.605,298.670 197.580,296.218 200.000 M205.200 197.973 C 203.770 199.054,201.700 200.892,200.600 202.057 L 198.600 204.176 201.000 201.967 C 202.320 200.752,204.435 198.981,205.700 198.031 C 207.703 196.527,208.287 195.989,207.900 196.004 C 207.845 196.006,206.630 196.892,205.200 197.973 M209.796 197.196 C 210.426 197.854,211.019 198.314,211.113 198.220 C 211.322 198.012,209.356 196.000,208.943 196.000 C 208.782 196.000,209.166 196.538,209.796 197.196 M238.000 196.400 C 237.467 196.745,237.467 196.788,238.000 196.788 C 238.330 196.788,238.870 196.613,239.200 196.400 C 239.733 196.055,239.733 196.012,239.200 196.012 C 238.870 196.012,238.330 196.187,238.000 196.400 M302.000 196.124 C 302.000 196.244,303.125 197.197,304.500 198.242 C 308.326 201.148,311.911 204.523,316.400 209.446 C 317.610 210.773,318.331 211.486,318.003 211.030 C 316.299 208.663,311.224 203.370,308.307 200.920 C 304.444 197.674,302.000 195.815,302.000 196.124 M279.958 199.237 C 280.925 199.666,281.788 199.945,281.875 199.858 C 282.048 199.686,278.965 198.382,278.492 198.428 C 278.331 198.444,278.991 198.808,279.958 199.237 M213.213 200.156 C 213.200 200.518,217.880 205.200,218.256 205.200 C 218.368 205.200,219.662 204.502,221.130 203.649 C 222.599 202.795,224.655 201.711,225.700 201.239 C 226.745 200.766,227.600 200.292,227.600 200.185 C 227.600 199.741,222.163 202.426,219.418 204.225 C 218.312 204.950,217.123 204.163,213.941 200.600 C 213.548 200.160,213.221 199.960,213.213 200.156 M194.378 208.300 L 193.000 209.800 194.500 208.422 C 195.896 207.138,196.184 206.800,195.878 206.800 C 195.812 206.800,195.137 207.475,194.378 208.300 M319.591 213.588 C 320.828 215.324,321.425 215.534,320.332 213.848 C 319.819 213.057,319.253 212.408,319.073 212.405 C 318.893 212.402,319.126 212.935,319.591 213.588 M188.943 215.031 L 188.267 216.063 193.231 220.931 L 198.196 225.800 193.433 220.929 L 188.670 216.058 189.344 215.029 C 189.715 214.463,189.928 214.000,189.818 214.000 C 189.708 214.000,189.314 214.464,188.943 215.031 M316.706 220.567 L 312.012 225.422 313.201 227.611 C 315.427 231.709,318.000 237.145,318.000 237.750 C 318.000 238.081,318.199 238.476,318.443 238.626 C 319.046 238.999,318.599 237.605,317.154 234.606 C 316.519 233.289,316.000 231.984,316.000 231.706 C 316.000 231.428,315.862 231.200,315.694 231.200 C 315.526 231.200,315.075 230.525,314.692 229.700 C 314.309 228.875,313.638 227.576,313.201 226.813 L 312.407 225.425 317.003 220.972 C 319.532 218.522,321.600 216.311,321.600 216.059 C 321.600 215.457,322.033 215.059,316.706 220.567 M248.536 233.106 C 248.281 233.268,250.620 233.341,253.733 233.268 C 257.425 233.182,259.952 233.307,260.997 233.626 C 265.173 234.901,266.176 235.277,268.406 236.403 C 271.213 237.820,271.609 237.721,268.990 236.257 C 267.397 235.366,265.378 234.595,260.972 233.191 C 259.551 232.739,249.227 232.668,248.536 233.106 M245.200 234.081 C 242.236 235.348,241.600 235.653,241.600 235.806 C 241.600 235.988,242.749 235.626,243.400 235.238 C 243.620 235.107,244.700 234.704,245.800 234.341 C 246.900 233.979,247.440 233.676,247.000 233.668 C 246.560 233.660,245.750 233.846,245.200 234.081 M239.600 236.833 L 238.600 237.648 239.900 237.014 C 240.615 236.665,241.200 236.294,241.200 236.190 C 241.200 235.792,240.563 236.048,239.600 236.833 M237.279 238.120 C 233.607 241.506,230.347 245.148,229.448 246.868 C 228.619 248.454,228.545 248.744,229.158 248.000 C 229.611 247.450,229.986 246.816,229.991 246.592 C 230.010 245.741,233.607 241.884,237.400 238.649 C 238.060 238.086,238.420 237.629,238.200 237.633 C 237.980 237.637,237.566 237.856,237.279 238.120 M273.200 239.487 C 273.200 239.674,273.731 240.141,274.381 240.525 C 275.030 240.909,275.969 241.802,276.468 242.511 C 277.555 244.057,278.249 244.800,278.609 244.800 C 278.755 244.800,278.122 243.901,277.201 242.802 C 275.503 240.773,273.200 238.865,273.200 239.487 M318.816 239.325 C 318.792 239.811,320.067 243.600,320.254 243.600 C 320.343 243.600,320.293 243.105,320.143 242.500 C 319.822 241.208,318.838 238.854,318.816 239.325 M189.849 242.215 C 189.712 242.573,189.615 243.166,189.634 243.533 C 189.653 243.900,189.827 243.669,190.021 243.020 C 190.398 241.758,190.265 241.133,189.849 242.215 M320.406 244.833 C 320.409 245.365,320.589 246.070,320.806 246.400 C 321.082 246.822,321.123 246.585,320.942 245.600 C 320.625 243.875,320.398 243.549,320.406 244.833 M321.462 247.700 C 321.564 247.865,323.257 248.000,325.224 248.000 C 327.191 248.000,328.800 247.865,328.800 247.700 C 328.800 247.535,327.107 247.400,325.038 247.400 C 322.969 247.400,321.360 247.535,321.462 247.700 M179.100 247.898 C 180.915 247.972,183.885 247.972,185.700 247.898 C 187.515 247.823,186.030 247.763,182.400 247.763 C 178.770 247.763,177.285 247.823,179.100 247.898 M227.704 250.101 C 226.984 251.601,226.780 252.459,227.205 252.197 C 227.422 252.063,227.600 251.639,227.600 251.256 C 227.600 250.873,227.813 250.347,228.073 250.087 C 228.334 249.826,228.454 249.521,228.341 249.407 C 228.227 249.294,227.941 249.606,227.704 250.101 M281.217 249.200 C 281.208 249.310,281.552 250.300,281.982 251.400 C 282.411 252.500,282.763 253.040,282.765 252.600 C 282.766 251.922,281.265 248.623,281.217 249.200 M174.131 255.800 C 174.133 257.340,174.205 257.921,174.292 257.091 C 174.379 256.261,174.377 255.001,174.289 254.291 C 174.200 253.581,174.129 254.260,174.131 255.800 M226.446 253.467 C 226.421 253.724,226.284 254.264,226.141 254.667 C 225.940 255.236,225.994 255.297,226.379 254.942 C 226.652 254.691,226.789 254.151,226.684 253.742 C 226.579 253.334,226.472 253.210,226.446 253.467 M283.023 254.666 C 283.163 255.290,283.439 256.430,283.637 257.200 C 284.600 260.957,283.920 267.731,282.053 272.977 C 281.587 274.284,281.364 275.184,281.557 274.977 C 281.945 274.559,283.246 270.806,283.990 267.958 C 284.748 265.059,284.106 254.360,283.140 253.763 C 282.923 253.629,282.874 254.005,283.023 254.666 M225.665 256.400 C 225.625 256.950,225.499 258.120,225.385 259.000 C 225.206 260.394,225.234 260.473,225.608 259.614 C 225.845 259.072,225.971 257.902,225.889 257.014 C 225.807 256.126,225.706 255.850,225.665 256.400 M225.251 264.800 C 225.248 265.350,225.395 266.520,225.577 267.400 L 225.908 269.000 225.926 267.200 C 225.936 266.210,225.789 265.040,225.600 264.600 C 225.286 263.870,225.256 263.887,225.251 264.800 M174.128 268.800 C 174.128 270.230,174.201 270.815,174.289 270.100 C 174.378 269.385,174.378 268.215,174.289 267.500 C 174.201 266.785,174.128 267.370,174.128 268.800 M227.003 272.850 C 227.374 274.071,228.897 276.837,229.091 276.643 C 229.172 276.561,228.870 275.837,228.420 275.035 C 227.969 274.232,227.600 273.322,227.600 273.011 C 227.600 272.701,227.401 272.324,227.157 272.174 C 226.854 271.986,226.805 272.199,227.003 272.850 M174.961 275.600 L 175.000 276.600 181.700 276.615 L 188.401 276.630 181.826 276.505 C 175.390 276.384,175.248 276.362,175.087 275.490 C 174.947 274.733,174.929 274.750,174.961 275.600 M229.883 278.381 C 230.277 279.141,232.139 281.301,234.019 283.181 C 235.899 285.061,238.059 286.923,238.819 287.317 C 240.147 288.007,240.162 288.007,239.218 287.317 C 235.923 284.909,232.293 281.279,229.883 277.981 C 229.193 277.038,229.193 277.053,229.883 278.381 M279.378 278.290 C 278.985 278.889,278.336 279.731,277.936 280.161 C 277.536 280.590,277.292 281.025,277.394 281.128 C 277.632 281.365,279.038 279.726,279.818 278.300 C 280.594 276.883,280.304 276.876,279.378 278.290 M320.600 278.800 C 320.448 279.491,320.407 280.141,320.509 280.242 C 320.611 280.344,320.809 279.853,320.950 279.150 C 321.091 278.447,321.131 277.798,321.041 277.708 C 320.950 277.617,320.752 278.109,320.600 278.800 M319.429 282.829 C 319.058 283.961,318.837 284.970,318.937 285.070 C 319.037 285.170,319.425 284.329,319.800 283.200 C 320.175 282.071,320.396 281.063,320.292 280.959 C 320.188 280.854,319.799 281.696,319.429 282.829 M275.393 283.104 C 273.023 285.312,270.769 286.984,269.300 287.627 C 268.585 287.939,268.000 288.332,268.000 288.499 C 268.000 289.194,272.213 286.454,274.711 284.135 C 276.190 282.762,277.310 281.631,277.200 281.623 C 277.090 281.615,276.277 282.282,275.393 283.104 M318.267 285.867 C 318.120 286.013,318.000 286.440,318.000 286.814 C 318.000 287.189,316.845 289.769,315.434 292.548 C 314.023 295.326,312.989 297.600,313.137 297.600 C 313.284 297.600,313.657 297.015,313.965 296.300 C 314.273 295.585,314.857 294.522,315.263 293.938 C 315.668 293.354,316.000 292.589,316.000 292.238 C 316.000 291.887,316.180 291.600,316.400 291.600 C 316.620 291.600,316.800 291.335,316.800 291.012 C 316.800 290.689,317.130 289.834,317.534 289.112 C 318.606 287.196,319.092 285.041,318.267 285.867 M241.800 289.010 C 242.680 289.552,243.610 289.997,243.867 289.998 C 244.124 289.999,244.649 290.121,245.033 290.268 C 245.509 290.451,245.639 290.387,245.442 290.068 C 245.283 289.811,244.809 289.600,244.389 289.600 C 243.968 289.600,242.983 289.240,242.200 288.800 C 240.185 287.668,239.880 287.828,241.800 289.010 M246.600 290.800 C 247.701 291.273,248.092 291.273,247.800 290.800 C 247.664 290.580,247.158 290.413,246.676 290.428 C 245.831 290.455,245.829 290.469,246.600 290.800 M261.600 290.745 C 261.600 290.934,262.050 291.003,262.600 290.898 C 263.150 290.793,263.600 290.638,263.600 290.553 C 263.600 290.469,263.150 290.400,262.600 290.400 C 262.050 290.400,261.600 290.555,261.600 290.745 M251.089 291.701 C 252.678 291.882,255.558 291.878,257.489 291.692 C 260.752 291.380,260.548 291.356,254.600 291.365 C 249.159 291.372,248.633 291.422,251.089 291.701 " stroke="none" fill="#89aab6" fill-rule="evenodd"></path><path id="path5" d="M329.082 103.452 C 328.927 103.607,328.842 109.148,328.894 115.767 L 328.987 127.800 329.100 116.100 C 329.162 109.665,329.344 104.404,329.506 104.408 C 329.668 104.413,344.947 119.578,363.461 138.108 C 401.517 176.200,397.511 171.426,397.878 179.123 C 397.990 181.467,398.231 182.914,398.528 183.027 C 398.873 183.159,398.963 185.054,398.864 190.051 C 398.723 197.179,398.930 199.600,399.680 199.600 C 400.291 199.600,399.844 178.281,399.229 178.076 C 398.972 177.991,398.800 176.665,398.800 174.767 C 398.800 172.519,398.657 171.600,398.305 171.600 C 398.033 171.600,382.410 156.203,363.587 137.385 C 344.764 118.567,329.237 103.297,329.082 103.452 M399.152 201.900 C 398.882 202.594,398.781 205.672,398.878 210.233 C 399.002 216.045,398.923 217.569,398.476 217.987 C 398.066 218.370,397.958 219.333,398.063 221.652 C 398.142 223.401,398.039 224.854,397.829 224.924 C 397.622 224.993,397.426 226.208,397.394 227.625 C 397.362 229.041,397.112 230.617,396.839 231.128 C 396.566 231.638,396.423 232.659,396.523 233.396 C 396.622 234.133,396.535 234.905,396.329 235.111 C 396.123 235.317,395.948 236.411,395.939 237.542 C 395.930 238.674,395.760 239.600,395.562 239.600 C 395.363 239.600,395.200 240.320,395.200 241.200 C 395.200 242.080,395.020 242.800,394.800 242.800 C 394.580 242.800,394.400 243.509,394.400 244.376 C 394.400 245.243,394.220 246.064,394.000 246.200 C 393.780 246.336,393.600 247.146,393.600 248.000 C 393.600 248.854,393.420 249.664,393.200 249.800 C 392.980 249.936,392.800 250.476,392.800 251.000 C 392.800 251.524,392.620 252.064,392.400 252.200 C 392.180 252.336,392.000 253.067,392.000 253.824 C 392.000 254.581,391.820 255.200,391.600 255.200 C 391.380 255.200,391.200 255.729,391.200 256.376 C 391.200 257.023,391.020 257.664,390.800 257.800 C 390.580 257.936,390.400 258.566,390.400 259.200 C 390.400 259.834,390.220 260.464,390.000 260.600 C 389.780 260.736,389.600 261.276,389.600 261.800 C 389.600 262.324,389.420 262.864,389.200 263.000 C 388.980 263.136,388.800 263.599,388.800 264.029 C 388.800 264.459,388.641 265.123,388.447 265.505 C 388.252 265.887,387.871 266.740,387.600 267.400 C 387.329 268.060,386.948 268.913,386.753 269.295 C 386.559 269.677,386.400 270.352,386.400 270.795 C 386.400 271.238,386.220 271.600,386.000 271.600 C 385.780 271.600,385.600 271.949,385.600 272.376 C 385.600 272.803,385.420 273.264,385.200 273.400 C 384.980 273.536,384.800 274.087,384.800 274.624 C 384.800 275.161,384.620 275.600,384.400 275.600 C 384.180 275.600,384.000 275.881,384.000 276.225 C 384.000 276.569,383.447 278.054,382.772 279.525 C 382.097 280.996,381.309 282.740,381.022 283.400 C 379.780 286.255,378.578 288.610,378.300 288.733 C 378.135 288.807,378.000 289.212,378.000 289.633 C 378.000 290.055,377.820 290.400,377.600 290.400 C 377.380 290.400,377.200 290.760,377.200 291.200 C 377.200 291.640,377.020 292.000,376.800 292.000 C 376.580 292.000,376.400 292.360,376.400 292.800 C 376.400 293.240,376.220 293.600,376.000 293.600 C 375.780 293.600,375.600 293.960,375.600 294.400 C 375.600 294.840,375.454 295.200,375.275 295.200 C 375.096 295.200,374.702 295.830,374.400 296.600 C 374.098 297.370,373.733 298.000,373.588 298.000 C 373.444 298.000,372.892 298.855,372.363 299.900 C 371.833 300.945,371.265 301.860,371.100 301.933 C 370.935 302.007,370.800 302.412,370.800 302.833 C 370.800 303.255,370.650 303.600,370.468 303.600 C 370.285 303.600,369.880 304.095,369.568 304.700 C 369.255 305.305,368.685 306.149,368.300 306.575 C 367.915 307.002,367.600 307.587,367.600 307.875 C 367.600 308.164,367.450 308.400,367.268 308.400 C 367.085 308.400,366.680 308.895,366.368 309.500 C 366.056 310.105,365.704 310.690,365.585 310.800 C 365.396 310.974,362.125 315.781,361.000 317.538 C 360.780 317.881,360.106 318.711,359.502 319.381 C 358.898 320.052,358.403 320.753,358.402 320.940 C 358.401 321.126,357.860 321.783,357.200 322.400 C 356.540 323.017,356.000 323.723,356.000 323.971 C 356.000 324.219,355.208 325.213,354.240 326.181 C 353.272 327.149,352.153 328.494,351.754 329.170 C 351.354 329.847,350.906 330.400,350.757 330.400 C 350.608 330.400,349.162 331.973,347.543 333.894 C 343.789 338.353,338.353 343.789,333.894 347.543 C 331.973 349.162,330.400 350.608,330.400 350.757 C 330.400 350.906,329.847 351.354,329.170 351.754 C 328.494 352.153,327.149 353.272,326.181 354.240 C 325.213 355.208,324.219 356.000,323.971 356.000 C 323.723 356.000,323.017 356.540,322.400 357.200 C 321.783 357.860,321.126 358.401,320.940 358.402 C 320.753 358.403,320.052 358.898,319.381 359.502 C 318.711 360.106,317.881 360.780,317.538 361.000 C 315.781 362.125,310.974 365.396,310.800 365.585 C 310.690 365.704,310.105 366.056,309.500 366.368 C 308.895 366.680,308.400 367.085,308.400 367.268 C 308.400 367.450,308.164 367.600,307.875 367.600 C 307.587 367.600,307.002 367.915,306.575 368.300 C 306.149 368.685,305.305 369.255,304.700 369.568 C 304.095 369.880,303.600 370.285,303.600 370.468 C 303.600 370.650,303.255 370.800,302.833 370.800 C 302.412 370.800,302.007 370.935,301.933 371.100 C 301.860 371.265,300.945 371.833,299.900 372.363 C 298.855 372.892,298.000 373.444,298.000 373.588 C 298.000 373.733,297.370 374.098,296.600 374.400 C 295.830 374.702,295.200 375.096,295.200 375.275 C 295.200 375.454,294.840 375.600,294.400 375.600 C 293.960 375.600,293.600 375.780,293.600 376.000 C 293.600 376.220,293.240 376.400,292.800 376.400 C 292.360 376.400,292.000 376.580,292.000 376.800 C 292.000 377.020,291.640 377.200,291.200 377.200 C 290.760 377.200,290.400 377.380,290.400 377.600 C 290.400 377.820,290.055 378.000,289.633 378.000 C 289.212 378.000,288.807 378.135,288.733 378.300 C 288.610 378.578,286.255 379.780,283.400 381.022 C 282.740 381.309,280.996 382.097,279.525 382.772 C 278.054 383.447,276.569 384.000,276.225 384.000 C 275.881 384.000,275.600 384.180,275.600 384.400 C 275.600 384.620,275.161 384.800,274.624 384.800 C 274.087 384.800,273.536 384.980,273.400 385.200 C 273.264 385.420,272.803 385.600,272.376 385.600 C 271.949 385.600,271.600 385.780,271.600 386.000 C 271.600 386.220,271.238 386.400,270.795 386.400 C 270.352 386.400,269.677 386.559,269.295 386.753 C 268.913 386.948,268.060 387.329,267.400 387.600 C 266.740 387.871,265.887 388.252,265.505 388.447 C 265.123 388.641,264.459 388.800,264.029 388.800 C 263.599 388.800,263.136 388.980,263.000 389.200 C 262.864 389.420,262.324 389.600,261.800 389.600 C 261.276 389.600,260.736 389.780,260.600 390.000 C 260.464 390.220,259.834 390.400,259.200 390.400 C 258.566 390.400,257.936 390.580,257.800 390.800 C 257.664 391.020,257.023 391.200,256.376 391.200 C 255.729 391.200,255.200 391.380,255.200 391.600 C 255.200 391.820,254.581 392.000,253.824 392.000 C 253.067 392.000,252.336 392.180,252.200 392.400 C 252.064 392.620,251.524 392.800,251.000 392.800 C 250.476 392.800,249.936 392.980,249.800 393.200 C 249.664 393.420,248.854 393.600,248.000 393.600 C 247.146 393.600,246.336 393.780,246.200 394.000 C 246.064 394.220,245.243 394.400,244.376 394.400 C 243.509 394.400,242.800 394.580,242.800 394.800 C 242.800 395.020,242.080 395.200,241.200 395.200 C 240.320 395.200,239.600 395.363,239.600 395.562 C 239.600 395.760,238.674 395.930,237.542 395.939 C 236.411 395.948,235.317 396.123,235.111 396.329 C 234.905 396.535,234.133 396.622,233.396 396.523 C 232.659 396.423,231.638 396.566,231.128 396.839 C 230.617 397.112,229.041 397.362,227.625 397.394 C 226.208 397.426,224.993 397.622,224.924 397.829 C 224.854 398.038,223.406 398.143,221.667 398.064 C 219.425 397.962,218.374 398.075,217.968 398.461 C 217.531 398.876,215.583 399.000,209.521 399.000 C 203.350 399.000,201.530 399.119,201.121 399.551 C 200.679 400.018,202.326 400.059,212.000 399.823 C 225.399 399.496,224.417 399.551,224.159 399.133 C 224.045 398.950,225.504 398.800,227.400 398.800 C 229.596 398.800,230.758 398.655,230.600 398.400 C 230.447 398.152,231.196 398.000,232.576 398.000 C 233.799 398.000,234.800 397.820,234.800 397.600 C 234.800 397.380,235.790 397.200,237.000 397.200 C 238.210 397.200,239.200 397.020,239.200 396.800 C 239.200 396.580,239.999 396.400,240.976 396.400 C 241.953 396.400,242.864 396.220,243.000 396.000 C 243.136 395.780,243.946 395.600,244.800 395.600 C 245.654 395.600,246.464 395.420,246.600 395.200 C 246.736 394.980,247.467 394.800,248.224 394.800 C 248.981 394.800,249.600 394.658,249.600 394.485 C 249.600 394.312,250.182 394.126,250.893 394.072 C 251.605 394.017,252.361 393.799,252.573 393.587 C 252.786 393.374,253.464 393.200,254.080 393.200 C 254.696 393.200,255.200 393.057,255.200 392.882 C 255.200 392.707,255.866 392.519,256.681 392.464 C 257.495 392.409,258.350 392.209,258.581 392.020 C 258.955 391.712,260.953 391.223,262.300 391.109 C 262.575 391.086,262.800 390.887,262.800 390.667 C 262.800 390.447,262.913 390.380,263.051 390.517 C 263.189 390.655,263.931 390.505,264.700 390.184 C 265.469 389.863,266.436 389.600,266.849 389.600 C 267.262 389.600,267.600 389.420,267.600 389.200 C 267.600 388.980,267.955 388.800,268.388 388.800 C 268.821 388.800,269.825 388.436,270.618 387.990 C 271.411 387.545,271.956 387.348,271.829 387.553 C 271.703 387.758,272.048 387.717,272.596 387.463 C 273.145 387.208,273.595 386.865,273.597 386.700 C 273.599 386.535,274.140 386.400,274.800 386.400 C 275.460 386.400,276.000 386.220,276.000 386.000 C 276.000 385.780,276.234 385.600,276.520 385.600 C 277.256 385.600,279.193 384.659,279.197 384.300 C 279.199 384.135,279.663 384.000,280.229 384.000 C 280.794 384.000,281.529 383.728,281.861 383.396 C 282.193 383.064,282.658 382.912,282.894 383.058 C 283.149 383.215,283.207 383.136,283.038 382.862 C 282.869 382.588,283.008 382.400,283.382 382.400 C 283.728 382.400,284.368 382.220,284.805 382.000 C 285.242 381.780,285.958 381.420,286.395 381.200 C 286.832 380.980,287.492 380.800,287.861 380.800 C 288.231 380.800,288.416 380.683,288.273 380.539 C 287.973 380.240,289.816 379.200,290.646 379.200 C 290.951 379.200,291.200 379.020,291.200 378.800 C 291.200 378.580,291.571 378.400,292.024 378.400 C 292.477 378.400,292.736 378.220,292.600 378.000 C 292.464 377.780,292.598 377.600,292.897 377.600 C 293.651 377.600,295.593 376.665,295.597 376.300 C 295.599 376.135,295.960 376.000,296.400 376.000 C 296.840 376.000,297.200 375.834,297.200 375.632 C 297.200 375.429,297.740 375.145,298.400 375.000 C 299.060 374.855,299.600 374.615,299.600 374.466 C 299.600 374.317,300.185 373.941,300.900 373.630 C 301.615 373.319,302.290 372.956,302.400 372.824 C 302.510 372.692,303.126 372.317,303.769 371.992 C 306.016 370.854,306.400 370.608,306.400 370.305 C 306.400 370.137,306.625 370.000,306.900 370.000 C 307.175 369.999,307.917 369.554,308.549 369.011 C 309.181 368.467,310.036 367.916,310.449 367.784 C 310.862 367.653,311.200 367.378,311.200 367.173 C 311.200 366.968,311.520 366.800,311.912 366.800 C 312.303 366.800,312.883 366.440,313.200 366.000 C 313.517 365.560,313.969 365.200,314.204 365.200 C 314.440 365.200,315.428 364.480,316.400 363.600 C 317.372 362.720,318.360 362.000,318.596 362.000 C 318.831 362.000,319.276 361.650,319.585 361.221 C 319.893 360.793,320.281 360.527,320.447 360.629 C 320.613 360.731,321.166 360.407,321.677 359.908 C 322.188 359.408,323.324 358.469,324.203 357.821 C 325.081 357.172,326.091 356.317,326.447 355.921 C 326.803 355.524,327.278 355.200,327.504 355.200 C 327.730 355.200,328.028 354.904,328.167 354.543 C 328.305 354.181,328.525 353.992,328.655 354.122 C 328.786 354.252,329.760 353.468,330.820 352.379 C 331.880 351.291,332.933 350.400,333.160 350.400 C 333.386 350.400,333.765 350.040,334.000 349.600 C 334.235 349.160,334.609 348.800,334.830 348.800 C 335.051 348.800,336.664 347.315,338.415 345.500 C 342.258 341.518,341.518 342.258,345.500 338.415 C 347.315 336.664,348.800 335.051,348.800 334.830 C 348.800 334.609,349.160 334.235,349.600 334.000 C 350.040 333.765,350.400 333.386,350.400 333.160 C 350.400 332.933,351.291 331.880,352.379 330.820 C 353.468 329.760,354.252 328.786,354.122 328.655 C 353.992 328.525,354.181 328.305,354.543 328.167 C 354.904 328.028,355.200 327.730,355.200 327.504 C 355.200 327.278,355.524 326.803,355.921 326.447 C 356.317 326.091,357.172 325.081,357.821 324.203 C 358.469 323.324,359.408 322.188,359.908 321.677 C 360.407 321.166,360.731 320.613,360.629 320.447 C 360.527 320.281,360.793 319.893,361.221 319.585 C 361.650 319.276,362.000 318.831,362.000 318.596 C 362.000 318.360,362.720 317.372,363.600 316.400 C 364.480 315.428,365.200 314.440,365.200 314.204 C 365.200 313.969,365.560 313.517,366.000 313.200 C 366.440 312.883,366.800 312.303,366.800 311.912 C 366.800 311.520,366.968 311.200,367.173 311.200 C 367.378 311.200,367.653 310.862,367.784 310.449 C 367.916 310.036,368.467 309.181,369.011 308.549 C 369.554 307.917,369.999 307.175,370.000 306.900 C 370.000 306.625,370.137 306.400,370.305 306.400 C 370.608 306.400,370.854 306.016,371.992 303.769 C 372.317 303.126,372.692 302.510,372.824 302.400 C 372.956 302.290,373.319 301.615,373.630 300.900 C 373.941 300.185,374.317 299.600,374.466 299.600 C 374.615 299.600,374.855 299.060,375.000 298.400 C 375.145 297.740,375.429 297.200,375.632 297.200 C 375.834 297.200,376.000 296.840,376.000 296.400 C 376.000 295.960,376.135 295.599,376.300 295.597 C 376.665 295.593,377.600 293.651,377.600 292.897 C 377.600 292.598,377.780 292.464,378.000 292.600 C 378.220 292.736,378.400 292.477,378.400 292.024 C 378.400 291.571,378.580 291.200,378.800 291.200 C 379.020 291.200,379.200 290.951,379.200 290.646 C 379.200 289.816,380.240 287.973,380.539 288.273 C 380.683 288.416,380.800 288.231,380.800 287.861 C 380.800 287.492,381.008 286.787,381.262 286.295 C 382.236 284.410,382.400 283.992,382.400 283.382 C 382.400 283.008,382.588 282.869,382.862 283.038 C 383.136 283.207,383.215 283.149,383.058 282.894 C 382.912 282.658,383.064 282.193,383.396 281.861 C 383.728 281.529,384.000 280.794,384.000 280.229 C 384.000 279.663,384.135 279.199,384.300 279.197 C 384.659 279.193,385.600 277.256,385.600 276.520 C 385.600 276.234,385.780 276.000,386.000 276.000 C 386.220 276.000,386.400 275.460,386.400 274.800 C 386.400 274.140,386.535 273.599,386.700 273.597 C 386.865 273.595,387.208 273.145,387.463 272.596 C 387.717 272.048,387.758 271.703,387.553 271.829 C 387.348 271.956,387.545 271.411,387.990 270.618 C 388.436 269.825,388.800 268.821,388.800 268.388 C 388.800 267.955,388.980 267.600,389.200 267.600 C 389.420 267.600,389.600 267.262,389.600 266.849 C 389.600 266.436,389.863 265.469,390.184 264.700 C 390.505 263.931,390.655 263.189,390.517 263.051 C 390.380 262.913,390.447 262.800,390.667 262.800 C 390.887 262.800,391.086 262.575,391.109 262.300 C 391.223 260.953,391.712 258.955,392.020 258.581 C 392.209 258.350,392.409 257.495,392.464 256.681 C 392.519 255.866,392.707 255.200,392.882 255.200 C 393.057 255.200,393.200 254.696,393.200 254.080 C 393.200 253.464,393.374 252.786,393.587 252.573 C 393.799 252.361,394.017 251.605,394.072 250.893 C 394.126 250.182,394.312 249.600,394.485 249.600 C 394.658 249.600,394.800 248.981,394.800 248.224 C 394.800 247.467,394.980 246.736,395.200 246.600 C 395.420 246.464,395.600 245.654,395.600 244.800 C 395.600 243.946,395.780 243.136,396.000 243.000 C 396.220 242.864,396.400 241.953,396.400 240.976 C 396.400 239.999,396.580 239.200,396.800 239.200 C 397.020 239.200,397.200 238.210,397.200 237.000 C 397.200 235.790,397.380 234.800,397.600 234.800 C 397.820 234.800,398.000 233.799,398.000 232.576 C 398.000 231.196,398.152 230.447,398.400 230.600 C 398.655 230.758,398.800 229.596,398.800 227.400 C 398.800 225.504,398.950 224.045,399.133 224.159 C 399.550 224.417,399.493 225.404,399.836 212.100 C 400.121 201.062,400.027 199.653,399.152 201.900 M321.000 297.600 L 313.000 297.826 321.100 297.913 C 326.291 297.969,329.200 297.856,329.200 297.600 C 329.200 297.380,329.155 297.239,329.100 297.287 C 329.045 297.335,325.400 297.476,321.000 297.600 M121.700 347.860 C 149.145 375.331,171.600 398.031,171.600 398.304 C 171.600 398.657,172.513 398.800,174.767 398.800 C 176.665 398.800,177.991 398.972,178.076 399.229 C 178.281 399.844,199.600 400.291,199.600 399.680 C 199.600 398.930,197.179 398.723,190.051 398.864 C 185.054 398.963,183.159 398.873,183.027 398.528 C 182.914 398.231,181.467 397.990,179.123 397.878 C 171.396 397.510,178.286 403.601,122.332 347.669 C 95.124 320.473,72.624 298.152,72.332 298.067 C 72.039 297.982,94.255 320.389,121.700 347.860 " stroke="none" fill="#b44c34" fill-rule="evenodd"></path><path id="path6" d="M97.800 140.405 C 96.621 140.612,97.244 140.701,100.167 140.743 C 102.348 140.774,104.058 140.735,103.967 140.656 C 103.580 140.320,99.274 140.145,97.800 140.405 M139.111 140.693 C 140.051 140.778,141.491 140.777,142.311 140.691 C 143.130 140.605,142.360 140.536,140.600 140.537 C 138.840 140.539,138.170 140.609,139.111 140.693 M169.500 140.695 C 170.655 140.776,172.545 140.776,173.700 140.695 C 174.855 140.614,173.910 140.548,171.600 140.548 C 169.290 140.548,168.345 140.614,169.500 140.695 M94.000 141.200 C 93.467 141.545,93.467 141.588,94.000 141.588 C 94.330 141.588,94.870 141.413,95.200 141.200 C 95.733 140.855,95.733 140.812,95.200 140.812 C 94.870 140.812,94.330 140.987,94.000 141.200 M105.400 141.200 C 105.536 141.420,106.042 141.587,106.524 141.572 C 107.369 141.545,107.371 141.531,106.600 141.200 C 105.499 140.727,105.108 140.727,105.400 141.200 M166.667 141.067 C 166.219 141.514,166.350 182.322,166.800 182.600 C 167.065 182.764,167.200 175.737,167.200 161.824 C 167.200 150.261,167.140 140.800,167.067 140.800 C 166.993 140.800,166.813 140.920,166.667 141.067 M130.990 142.790 C 128.993 143.955,124.187 148.321,124.528 148.661 C 124.626 148.759,125.702 147.795,126.919 146.520 C 128.136 145.244,130.137 143.691,131.366 143.070 C 133.453 142.013,134.017 141.588,133.300 141.609 C 133.135 141.614,132.096 142.145,130.990 142.790 M88.181 144.900 L 86.600 146.600 88.300 145.019 C 89.881 143.548,90.184 143.200,89.881 143.200 C 89.816 143.200,89.051 143.965,88.181 144.900 M112.400 143.563 C 112.400 143.803,112.636 144.000,112.925 144.000 C 113.213 144.000,113.868 144.390,114.380 144.868 C 114.904 145.356,115.229 145.488,115.124 145.171 C 114.881 144.444,112.400 142.979,112.400 143.563 M151.431 144.134 C 154.704 146.835,156.653 149.267,158.161 152.532 C 158.550 153.375,158.956 153.978,159.062 153.871 C 159.708 153.225,155.262 146.738,152.929 144.924 C 150.986 143.412,149.794 142.784,151.431 144.134 M85.786 148.027 C 85.437 148.702,85.207 149.414,85.276 149.609 C 85.344 149.804,85.702 149.251,86.070 148.382 C 86.865 146.506,86.687 146.284,85.786 148.027 M113.014 148.635 C 112.641 149.204,112.427 149.761,112.539 149.872 C 112.650 149.983,113.029 149.518,113.381 148.837 C 114.159 147.333,113.944 147.215,113.014 148.635 M98.000 148.800 C 97.300 149.024,97.841 149.118,99.800 149.113 C 101.880 149.107,102.291 149.027,101.400 148.800 C 99.856 148.407,99.227 148.407,98.000 148.800 M139.000 148.816 C 138.082 149.037,138.402 149.116,140.367 149.153 C 141.778 149.179,142.858 149.136,142.767 149.057 C 142.348 148.699,140.085 148.554,139.000 148.816 M95.270 150.126 C 93.435 152.079,95.340 156.459,97.991 156.382 C 98.326 156.373,97.931 156.011,97.112 155.579 C 94.562 154.233,94.017 151.887,95.858 150.181 C 96.441 149.641,96.742 149.200,96.528 149.200 C 96.314 149.200,95.748 149.617,95.270 150.126 M104.000 149.600 C 104.330 149.813,104.870 149.988,105.200 149.988 C 105.733 149.988,105.733 149.945,105.200 149.600 C 104.870 149.387,104.330 149.212,104.000 149.212 C 103.467 149.212,103.467 149.255,104.000 149.600 M107.371 150.786 C 108.236 151.234,109.041 151.600,109.160 151.600 C 109.654 151.600,107.724 150.487,106.800 150.240 C 106.225 150.085,106.468 150.318,107.371 150.786 M146.253 151.080 C 146.942 151.696,148.067 153.090,148.753 154.178 C 150.154 156.401,150.476 156.291,149.135 154.047 C 148.013 152.170,146.800 150.822,145.800 150.344 C 145.343 150.125,145.537 150.441,146.253 151.080 M84.652 151.300 C 84.336 152.479,84.382 155.214,84.733 156.100 C 84.886 156.485,85.011 155.360,85.011 153.600 C 85.011 150.074,85.000 150.004,84.652 151.300 M132.985 152.185 C 132.382 152.975,131.989 153.722,132.112 153.845 C 132.235 153.968,132.529 153.707,132.765 153.265 C 133.001 152.824,133.487 152.170,133.845 151.812 C 134.203 151.455,134.402 151.069,134.288 150.955 C 134.174 150.841,133.588 151.394,132.985 152.185 M121.400 154.400 C 121.250 154.873,121.217 155.350,121.327 155.460 C 121.437 155.570,121.650 155.273,121.800 154.800 C 121.950 154.327,121.983 153.850,121.873 153.740 C 121.763 153.630,121.550 153.927,121.400 154.400 M159.228 155.076 C 159.213 155.558,159.380 156.064,159.600 156.200 C 160.073 156.492,160.073 156.101,159.600 155.000 C 159.269 154.229,159.255 154.231,159.228 155.076 M120.676 156.810 C 120.530 157.355,120.427 158.250,120.446 158.800 C 120.471 159.518,120.584 159.357,120.849 158.227 C 121.255 156.495,121.100 155.225,120.676 156.810 M150.080 157.200 C 150.080 157.750,150.224 158.650,150.400 159.200 L 150.720 160.200 150.720 159.200 C 150.720 158.650,150.576 157.750,150.400 157.200 L 150.080 156.200 150.080 157.200 M101.800 157.600 C 101.936 157.820,102.442 157.987,102.924 157.972 C 103.769 157.945,103.771 157.931,103.000 157.600 C 101.899 157.127,101.508 157.127,101.800 157.600 M160.144 162.000 C 160.139 166.419,160.178 166.710,160.477 164.500 C 160.663 163.125,160.666 160.875,160.482 159.500 C 160.188 157.292,160.148 157.585,160.144 162.000 M85.225 157.978 C 85.195 158.674,87.230 161.703,87.528 161.406 C 87.643 161.291,87.357 160.792,86.892 160.298 C 86.428 159.804,85.869 158.950,85.649 158.400 C 85.430 157.850,85.239 157.660,85.225 157.978 M104.600 158.400 C 104.736 158.620,105.242 158.787,105.724 158.772 C 106.569 158.745,106.571 158.731,105.800 158.400 C 104.699 157.927,104.308 157.927,104.600 158.400 M129.817 161.124 C 129.681 161.743,129.745 162.688,129.960 163.224 C 130.289 164.050,130.353 163.878,130.375 162.100 C 130.403 159.775,130.193 159.409,129.817 161.124 M111.191 161.083 C 111.735 161.477,112.815 162.340,113.591 163.000 C 114.366 163.660,114.730 163.840,114.400 163.400 C 113.660 162.413,112.949 161.847,111.400 161.012 C 110.207 160.369,110.206 160.369,111.191 161.083 M150.893 162.000 C 150.893 162.770,150.975 163.085,151.076 162.700 C 151.176 162.315,151.176 161.685,151.076 161.300 C 150.975 160.915,150.893 161.230,150.893 162.000 M120.406 164.833 C 120.409 165.585,120.592 166.470,120.812 166.800 C 121.091 167.219,121.133 166.858,120.950 165.600 C 120.625 163.359,120.398 163.040,120.406 164.833 M93.558 164.808 C 94.525 165.253,95.405 165.528,95.514 165.420 C 95.721 165.212,94.486 164.681,92.800 164.253 C 92.250 164.113,92.591 164.363,93.558 164.808 M150.222 165.422 C 150.072 166.225,150.038 166.972,150.148 167.082 C 150.258 167.192,150.472 166.625,150.622 165.822 C 150.773 165.019,150.806 164.273,150.696 164.163 C 150.586 164.053,150.373 164.619,150.222 165.422 M115.514 166.054 C 115.872 166.964,116.228 167.516,116.306 167.281 C 116.444 166.869,115.343 164.400,115.022 164.400 C 114.935 164.400,115.157 165.144,115.514 166.054 M96.800 166.000 C 97.130 166.213,97.670 166.388,98.000 166.388 C 98.533 166.388,98.533 166.345,98.000 166.000 C 97.670 165.787,97.130 165.612,96.800 165.612 C 96.267 165.612,96.267 165.655,96.800 166.000 M130.428 166.276 C 130.413 166.758,130.580 167.264,130.800 167.400 C 131.273 167.692,131.273 167.301,130.800 166.200 C 130.469 165.429,130.455 165.431,130.428 166.276 M99.400 166.800 C 99.840 166.989,100.470 167.144,100.800 167.144 C 101.178 167.144,101.104 167.017,100.600 166.800 C 100.160 166.611,99.530 166.456,99.200 166.456 C 98.822 166.456,98.896 166.583,99.400 166.800 M138.400 166.647 C 138.400 166.783,139.679 168.313,141.243 170.047 C 143.047 172.049,144.001 173.420,143.855 173.800 C 143.605 174.452,144.207 174.636,144.585 174.024 C 144.820 173.645,143.619 172.103,140.516 168.800 L 138.825 167.000 142.912 166.882 C 146.899 166.767,147.023 166.791,147.913 167.820 C 148.802 168.848,150.000 168.930,150.000 167.964 C 150.000 167.624,149.859 167.619,149.465 167.946 C 149.056 168.285,148.710 168.156,147.995 167.395 C 147.098 166.440,138.400 165.762,138.400 166.647 M101.820 167.524 C 102.338 167.965,104.400 168.827,104.400 168.602 C 104.400 168.381,102.159 167.200,101.740 167.200 C 101.575 167.200,101.611 167.346,101.820 167.524 M159.467 167.467 C 159.320 167.613,159.215 168.198,159.234 168.767 C 159.268 169.781,159.275 169.779,159.621 168.620 C 159.985 167.403,159.931 167.002,159.467 167.467 M121.212 168.400 C 121.212 168.730,121.387 169.270,121.600 169.600 C 121.945 170.133,121.988 170.133,121.988 169.600 C 121.988 169.270,121.813 168.730,121.600 168.400 C 121.255 167.867,121.212 167.867,121.212 168.400 M105.472 169.891 C 105.873 170.601,106.266 170.987,106.347 170.749 C 106.428 170.511,106.101 169.930,105.619 169.458 L 104.745 168.600 105.472 169.891 M116.493 170.400 C 116.493 171.170,116.575 171.485,116.676 171.100 C 116.776 170.715,116.776 170.085,116.676 169.700 C 116.575 169.315,116.493 169.630,116.493 170.400 M132.013 169.716 C 131.968 170.839,136.025 174.426,137.291 174.382 C 137.571 174.373,137.154 174.023,136.365 173.606 C 134.957 172.862,133.778 171.792,132.612 170.200 C 132.289 169.760,132.020 169.542,132.013 169.716 M84.798 174.041 C 83.182 177.189,82.831 178.184,83.211 178.541 C 83.585 178.892,83.654 178.858,83.507 178.400 C 83.333 177.861,85.928 172.101,86.873 170.926 C 87.157 170.574,87.772 170.758,89.276 171.645 C 90.387 172.300,91.373 172.760,91.467 172.667 C 91.619 172.514,87.449 170.000,87.043 170.000 C 86.950 170.000,85.940 171.819,84.798 174.041 M106.032 172.071 C 106.014 172.440,105.526 173.115,104.946 173.571 C 104.192 174.164,104.076 174.400,104.537 174.400 C 105.320 174.400,106.556 172.626,106.269 171.913 C 106.135 171.580,106.052 171.635,106.032 172.071 M116.046 173.467 C 116.021 173.724,115.884 174.264,115.741 174.667 C 115.540 175.236,115.594 175.297,115.979 174.942 C 116.252 174.691,116.389 174.151,116.284 173.742 C 116.179 173.334,116.072 173.210,116.046 173.467 M156.265 174.632 C 155.502 176.232,155.990 177.138,159.365 180.378 C 161.566 182.493,161.335 182.751,157.100 182.902 L 153.400 183.034 157.000 183.111 C 161.928 183.216,162.265 182.924,159.993 180.515 C 158.999 179.462,157.671 178.025,157.040 177.323 L 155.894 176.046 156.734 174.623 C 157.195 173.840,157.432 173.200,157.261 173.200 C 157.089 173.200,156.641 173.844,156.265 174.632 M95.000 174.000 C 95.136 174.220,95.642 174.387,96.124 174.372 C 96.969 174.345,96.971 174.331,96.200 174.000 C 95.099 173.527,94.708 173.527,95.000 174.000 M176.400 174.493 C 176.400 174.654,180.945 174.834,186.500 174.893 L 196.600 175.000 196.600 178.800 L 196.600 182.600 182.000 182.808 L 167.400 183.015 181.820 183.108 C 192.608 183.177,196.361 183.079,196.720 182.720 C 197.257 182.183,197.389 175.716,196.879 174.914 C 196.534 174.372,176.399 173.958,176.400 174.493 M99.200 174.825 C 100.576 175.231,102.498 175.253,103.103 174.869 C 103.382 174.691,102.406 174.545,100.903 174.540 C 99.118 174.534,98.540 174.630,99.200 174.825 M139.460 174.909 C 140.284 175.160,141.116 175.152,141.860 174.885 C 142.854 174.530,142.693 174.481,140.600 174.502 C 138.441 174.523,138.327 174.564,139.460 174.909 M124.832 175.500 C 126.023 177.073,127.063 178.121,128.200 178.894 C 128.906 179.373,128.535 178.857,127.300 177.640 C 126.145 176.502,125.200 175.397,125.200 175.185 C 125.200 174.973,124.998 174.800,124.751 174.800 C 124.450 174.800,124.477 175.031,124.832 175.500 M114.605 177.042 C 114.178 177.835,113.102 179.117,112.214 179.891 C 111.326 180.665,110.987 181.099,111.459 180.857 C 112.580 180.281,115.600 176.844,115.600 176.144 C 115.600 175.331,115.457 175.461,114.605 177.042 M148.990 180.816 C 148.825 181.083,149.085 181.144,149.717 180.985 C 150.451 180.801,150.964 181.001,151.733 181.769 C 153.179 183.215,153.601 183.062,152.200 181.600 C 151.057 180.407,149.481 180.022,148.990 180.816 M248.600 181.600 L 246.600 181.874 248.800 181.914 C 250.010 181.936,251.720 181.805,252.600 181.623 L 254.200 181.292 252.400 181.309 C 251.410 181.318,249.700 181.449,248.600 181.600 M258.100 181.491 C 258.925 181.578,260.275 181.578,261.100 181.491 C 261.925 181.405,261.250 181.334,259.600 181.334 C 257.950 181.334,257.275 181.405,258.100 181.491 M92.600 182.400 C 93.040 182.589,93.760 182.744,94.200 182.744 L 95.000 182.744 94.200 182.400 C 93.760 182.211,93.040 182.056,92.600 182.056 L 91.800 182.056 92.600 182.400 M242.200 182.285 C 241.760 182.391,241.220 182.651,241.000 182.863 C 240.739 183.114,240.809 183.169,241.200 183.021 C 241.530 182.896,242.880 182.637,244.200 182.446 C 246.438 182.121,246.478 182.097,244.800 182.095 C 243.810 182.094,242.640 182.179,242.200 182.285 M267.200 182.293 C 267.750 182.394,268.470 182.684,268.800 182.938 C 269.322 183.340,269.329 183.309,268.851 182.700 C 268.548 182.314,267.830 182.024,267.251 182.054 L 266.200 182.109 267.200 182.293 M97.937 183.321 C 99.403 183.528,101.430 183.532,102.737 183.330 C 104.725 183.024,104.416 182.980,100.200 182.972 C 95.770 182.964,95.596 182.991,97.937 183.321 M138.700 183.093 C 139.635 183.177,141.165 183.177,142.100 183.093 C 143.035 183.009,142.270 182.940,140.400 182.940 C 138.530 182.940,137.765 183.009,138.700 183.093 M239.599 196.219 C 239.050 196.523,238.315 196.778,237.966 196.786 C 237.318 196.800,232.842 198.157,231.400 198.776 C 230.960 198.965,229.970 199.346,229.200 199.624 C 228.430 199.901,227.620 200.306,227.400 200.523 C 227.136 200.783,227.272 200.813,227.800 200.610 C 232.191 198.920,233.980 198.270,235.000 197.993 C 239.475 196.781,240.450 196.483,240.678 196.256 C 241.219 195.714,240.553 195.691,239.599 196.219 M205.567 198.117 C 202.326 200.681,197.600 204.992,197.600 205.383 C 197.600 205.542,198.635 204.690,199.900 203.489 C 202.297 201.212,203.811 199.920,206.742 197.646 L 208.483 196.295 213.148 200.948 C 217.662 205.450,218.478 206.044,218.997 205.205 C 219.133 204.985,218.987 204.907,218.668 205.029 C 218.305 205.169,216.357 203.551,213.365 200.625 C 210.764 198.081,208.538 196.008,208.418 196.017 C 208.298 196.026,207.015 196.971,205.567 198.117 M307.600 200.925 C 307.600 200.994,308.185 201.579,308.900 202.225 L 310.200 203.400 309.025 202.100 C 307.930 200.888,307.600 200.616,307.600 200.925 M223.500 202.229 C 221.949 203.070,222.125 203.361,223.700 202.559 C 225.208 201.793,225.475 201.594,224.967 201.616 C 224.765 201.625,224.105 201.901,223.500 202.229 M220.700 203.829 C 220.095 204.157,219.600 204.510,219.600 204.613 C 219.600 204.999,220.232 204.757,221.200 204.000 C 222.389 203.070,222.211 203.009,220.700 203.829 M193.927 209.152 C 192.676 210.601,191.736 211.869,191.836 211.969 C 191.936 212.070,192.324 211.713,192.698 211.176 C 193.072 210.639,194.084 209.431,194.947 208.492 C 195.811 207.552,196.446 206.724,196.358 206.650 C 196.271 206.577,195.177 207.703,193.927 209.152 M314.000 207.325 C 314.000 207.394,314.585 207.979,315.300 208.625 L 316.600 209.800 315.425 208.500 C 314.330 207.288,314.000 207.016,314.000 207.325 M190.744 213.100 C 189.475 214.632,189.019 215.342,189.481 215.065 C 189.993 214.758,191.769 212.400,191.489 212.400 C 191.398 212.400,191.063 212.715,190.744 213.100 M320.657 215.403 C 320.810 215.804,320.468 216.531,319.752 217.324 L 318.600 218.600 319.900 217.425 C 321.222 216.230,321.516 215.443,320.805 215.003 C 320.575 214.861,320.513 215.028,320.657 215.403 M188.800 215.957 C 188.800 216.084,190.867 218.261,193.394 220.794 C 198.562 225.975,198.267 224.934,195.835 229.400 C 195.057 230.828,194.980 231.114,195.564 230.400 C 196.014 229.850,196.386 229.248,196.391 229.062 C 196.396 228.876,196.743 228.242,197.161 227.655 C 198.536 225.724,198.400 225.458,193.500 220.491 C 190.915 217.870,188.800 215.830,188.800 215.957 M314.903 222.100 C 312.297 224.723,311.710 225.523,312.042 226.000 C 312.414 226.533,312.440 226.533,312.276 226.000 C 312.164 225.636,313.366 224.104,315.337 222.100 C 317.122 220.285,318.492 218.800,318.382 218.800 C 318.272 218.800,316.707 220.285,314.903 222.100 M193.855 233.055 C 193.476 233.849,193.248 234.581,193.349 234.682 C 193.449 234.783,193.841 234.214,194.218 233.418 C 194.596 232.622,194.823 231.890,194.724 231.791 C 194.625 231.691,194.233 232.260,193.855 233.055 M251.800 232.421 C 250.921 232.629,251.340 232.718,253.367 232.753 C 254.888 232.779,256.058 232.735,255.967 232.657 C 255.567 232.313,252.897 232.162,251.800 232.421 M247.000 233.200 L 246.200 233.544 247.000 233.566 C 247.440 233.578,248.070 233.413,248.400 233.200 C 249.195 232.686,248.196 232.686,247.000 233.200 M240.321 235.922 C 237.234 237.656,233.405 240.890,231.560 243.320 C 230.635 244.540,230.987 244.285,232.843 242.392 C 236.622 238.537,237.774 237.665,241.700 235.686 C 243.493 234.783,243.985 234.389,243.300 234.408 C 243.135 234.413,241.794 235.094,240.321 235.922 M189.429 245.029 C 189.281 245.615,189.251 246.184,189.361 246.294 C 189.471 246.404,189.681 246.015,189.829 245.429 C 189.976 244.842,190.006 244.273,189.896 244.163 C 189.786 244.053,189.576 244.442,189.429 245.029 M228.228 248.261 C 227.656 249.284,227.269 250.202,227.367 250.301 C 227.466 250.399,228.011 249.562,228.580 248.440 C 229.873 245.888,229.625 245.762,228.228 248.261 M188.800 247.533 C 188.800 247.870,186.968 248.000,182.224 248.000 C 178.607 248.000,175.563 248.135,175.461 248.300 C 175.192 248.734,188.528 248.420,188.973 247.981 C 189.179 247.779,189.224 247.490,189.073 247.340 C 188.923 247.190,188.800 247.277,188.800 247.533 M174.867 250.850 C 174.830 251.428,174.705 252.507,174.589 253.250 C 174.396 254.486,174.415 254.517,174.808 253.614 C 175.045 253.071,175.170 251.991,175.086 251.214 C 174.977 250.192,174.916 250.091,174.867 250.850 M226.667 251.467 C 226.520 251.613,226.411 252.108,226.425 252.567 C 226.449 253.333,226.482 253.323,226.834 252.442 C 227.226 251.463,227.144 250.989,226.667 251.467 M225.867 253.867 C 225.720 254.013,225.611 254.508,225.625 254.967 C 225.649 255.733,225.682 255.723,226.034 254.842 C 226.426 253.863,226.344 253.389,225.867 253.867 M283.656 255.600 C 283.656 255.930,283.811 256.560,284.000 257.000 C 284.217 257.504,284.344 257.578,284.344 257.200 C 284.344 256.870,284.189 256.240,284.000 255.800 C 283.783 255.296,283.656 255.222,283.656 255.600 M225.050 257.650 C 224.732 259.240,224.796 266.304,225.140 267.524 C 225.283 268.032,225.400 265.737,225.400 262.424 C 225.400 255.796,225.406 255.872,225.050 257.650 M174.148 262.400 C 174.148 264.710,174.214 265.655,174.295 264.500 C 174.376 263.345,174.376 261.455,174.295 260.300 C 174.214 259.145,174.148 260.090,174.148 262.400 M225.628 269.476 C 225.613 269.958,225.780 270.464,226.000 270.600 C 226.473 270.892,226.473 270.501,226.000 269.400 C 225.669 268.629,225.655 268.631,225.628 269.476 M174.451 270.600 C 174.448 271.040,174.595 272.120,174.777 273.000 L 175.108 274.600 175.126 273.000 C 175.136 272.120,174.989 271.040,174.800 270.600 L 174.456 269.800 174.451 270.600 M226.406 271.833 C 226.409 272.255,226.595 272.870,226.818 273.200 C 227.115 273.638,227.152 273.476,226.956 272.600 C 226.627 271.129,226.398 270.810,226.406 271.833 M228.000 275.777 C 228.000 277.577,237.741 288.393,238.594 287.540 C 238.681 287.452,237.690 286.531,236.392 285.492 C 233.704 283.341,230.368 279.489,229.186 277.172 C 228.481 275.792,228.000 275.225,228.000 275.777 M321.067 276.667 C 320.920 276.813,320.803 277.128,320.806 277.367 C 320.810 277.636,320.929 277.616,321.120 277.316 C 321.314 277.010,322.821 276.783,325.214 276.699 L 329.000 276.566 325.167 276.483 C 323.058 276.437,321.213 276.520,321.067 276.667 M189.234 278.400 C 189.246 278.730,189.411 279.360,189.600 279.800 L 189.944 280.600 189.966 279.800 C 189.978 279.360,189.813 278.730,189.600 278.400 C 189.255 277.867,189.215 277.867,189.234 278.400 M190.012 281.600 C 190.012 281.930,190.187 282.470,190.400 282.800 C 190.745 283.333,190.788 283.333,190.788 282.800 C 190.788 282.470,190.613 281.930,190.400 281.600 C 190.055 281.067,190.012 281.067,190.012 281.600 M240.000 288.367 C 240.963 289.152,241.600 289.408,241.600 289.010 C 241.600 288.906,241.015 288.535,240.300 288.186 L 239.000 287.552 240.000 288.367 M192.417 288.300 C 192.439 288.701,193.962 291.470,193.983 291.149 C 194.011 290.735,192.805 288.000,192.595 288.000 C 192.488 288.000,192.408 288.135,192.417 288.300 M244.000 290.400 C 244.330 290.613,244.960 290.778,245.400 290.766 L 246.200 290.744 245.400 290.400 C 244.204 289.886,243.205 289.886,244.000 290.400 M246.600 291.200 C 246.736 291.420,247.242 291.587,247.724 291.572 C 248.569 291.545,248.571 291.531,247.800 291.200 C 246.699 290.727,246.308 290.727,246.600 291.200 M194.305 292.281 C 194.870 293.665,196.930 297.203,197.083 297.050 C 197.167 296.966,196.688 295.967,196.018 294.831 C 195.348 293.695,194.800 292.603,194.800 292.406 C 194.800 292.209,194.622 291.937,194.405 291.803 C 194.165 291.655,194.126 291.841,194.305 292.281 M250.200 291.982 C 250.951 292.322,255.927 292.572,255.567 292.252 C 255.475 292.171,254.050 291.995,252.400 291.862 C 250.482 291.708,249.689 291.751,250.200 291.982 " stroke="none" fill="#6ca4bc" fill-rule="evenodd"></path></g></svg>
