<svg id="svg" version="1.1" xmlns="http://www.w3.org/2000/svg" xmlns:xlink="http://www.w3.org/1999/xlink"  viewBox="0 0 512 512"><g id="svgg"><path id="path0" d="M389.712 8.122 C 389.769 8.411,389.089 8.552,387.804 8.517 C 386.663 8.487,385.678 8.664,385.504 8.932 C 385.282 9.274,385.094 9.238,384.806 8.800 C 384.469 8.286,384.411 8.301,384.406 8.900 C 384.403 9.285,384.229 9.600,384.020 9.600 C 383.811 9.600,383.462 9.285,383.246 8.900 C 382.891 8.270,382.812 8.299,382.451 9.200 C 382.231 9.750,382.039 10.001,382.025 9.758 C 381.984 9.029,377.607 9.266,377.572 10.000 C 377.553 10.413,377.451 10.364,377.246 9.842 C 376.970 9.138,376.889 9.160,376.111 10.150 C 375.571 10.837,375.212 11.036,375.103 10.709 C 374.917 10.152,371.600 9.927,371.600 10.471 C 371.600 10.652,371.409 10.800,371.176 10.800 C 370.943 10.800,370.864 10.620,371.000 10.400 C 371.442 9.685,370.852 9.977,369.991 10.900 C 369.437 11.494,369.236 11.575,369.403 11.140 C 369.727 10.292,368.418 10.338,367.699 11.200 C 367.255 11.731,367.222 11.730,367.409 11.186 C 367.553 10.766,367.363 10.571,366.810 10.571 C 366.330 10.571,366.000 10.835,366.000 11.219 C 366.000 11.575,365.730 11.867,365.400 11.867 C 365.070 11.867,364.800 11.717,364.800 11.533 C 364.800 11.350,364.519 11.200,364.176 11.200 C 363.833 11.200,363.664 11.380,363.800 11.600 C 363.936 11.820,363.867 12.000,363.647 12.000 C 363.427 12.000,363.138 11.823,363.003 11.606 C 362.707 11.126,360.971 11.363,361.072 11.870 C 361.111 12.068,360.661 12.248,360.072 12.270 C 359.482 12.293,359.315 12.228,359.700 12.126 C 360.085 12.024,360.400 11.790,360.400 11.606 C 360.400 11.118,359.187 11.373,358.840 11.935 C 358.659 12.228,357.973 12.340,357.072 12.225 C 355.896 12.075,355.600 12.169,355.600 12.695 C 355.600 13.253,355.509 13.235,354.999 12.576 C 354.407 11.812,354.402 11.812,354.674 12.600 C 354.928 13.336,354.890 13.352,354.198 12.800 C 353.785 12.470,353.570 12.406,353.721 12.658 C 354.035 13.183,352.785 13.800,352.432 13.294 C 352.017 12.700,350.272 12.822,349.791 13.480 C 349.418 13.991,349.256 14.015,348.999 13.599 C 348.768 13.224,348.836 13.169,349.238 13.402 C 349.547 13.582,349.660 13.574,349.488 13.386 C 349.085 12.942,347.934 12.770,348.195 13.192 C 348.484 13.659,346.807 13.996,345.345 13.765 C 344.510 13.633,343.875 13.782,343.445 14.212 C 342.866 14.791,342.800 14.793,342.800 14.229 C 342.800 13.883,342.620 13.600,342.400 13.600 C 342.180 13.600,342.045 13.803,342.100 14.050 C 342.155 14.298,341.950 14.591,341.644 14.702 C 341.304 14.826,341.197 14.729,341.368 14.452 C 341.522 14.203,341.457 14.000,341.224 14.000 C 340.991 14.000,340.800 14.210,340.800 14.467 C 340.800 14.723,340.683 14.816,340.540 14.673 C 340.396 14.530,340.042 14.725,339.752 15.106 C 339.255 15.761,339.225 15.760,339.213 15.076 C 339.204 14.599,339.030 14.459,338.700 14.665 C 337.966 15.124,337.161 15.187,337.422 14.765 C 337.872 14.037,336.811 14.422,336.016 15.275 C 335.242 16.105,335.200 16.110,335.194 15.375 C 335.190 14.911,335.070 14.777,334.894 15.040 C 334.480 15.661,332.401 15.997,332.394 15.445 C 332.390 15.194,332.237 15.237,332.042 15.545 C 331.751 16.006,331.668 16.006,331.513 15.545 C 331.360 15.089,331.217 15.093,330.643 15.568 C 330.179 15.951,328.799 16.156,326.401 16.199 C 324.413 16.235,322.602 16.466,322.293 16.722 C 321.989 16.975,321.359 17.108,320.893 17.018 C 320.285 16.901,320.108 17.016,320.266 17.427 C 320.387 17.742,320.306 18.000,320.086 18.000 C 319.866 18.000,319.563 17.685,319.414 17.300 C 319.171 16.672,319.094 16.665,318.671 17.225 C 318.196 17.854,316.596 18.653,316.947 18.086 C 317.051 17.918,316.258 17.771,315.186 17.759 C 313.894 17.744,313.324 17.882,313.495 18.168 C 313.637 18.406,313.449 18.353,313.077 18.051 C 312.705 17.749,312.400 17.666,312.400 17.866 C 312.400 18.066,312.085 18.265,311.700 18.309 C 310.419 18.453,309.805 18.619,309.238 18.973 C 308.866 19.205,308.767 19.177,308.945 18.890 C 309.120 18.606,308.740 18.481,307.847 18.528 C 307.095 18.568,306.563 18.735,306.664 18.900 C 306.765 19.065,306.466 19.200,306.000 19.200 C 305.534 19.200,305.264 19.020,305.400 18.800 C 305.536 18.580,305.472 18.400,305.257 18.400 C 305.042 18.400,304.798 18.607,304.713 18.861 C 304.628 19.115,304.118 19.361,303.580 19.409 C 303.041 19.457,302.645 19.700,302.700 19.948 C 302.835 20.557,302.314 20.517,301.400 19.850 C 300.741 19.367,300.555 19.404,299.893 20.150 C 299.479 20.617,299.253 20.775,299.393 20.500 C 299.557 20.177,299.347 20.000,298.800 20.000 C 298.334 20.000,298.045 20.150,298.159 20.333 C 298.272 20.517,298.111 20.667,297.800 20.667 C 297.489 20.667,297.328 20.517,297.441 20.333 C 297.775 19.793,297.048 19.951,296.079 20.630 C 295.421 21.090,295.210 21.120,295.290 20.739 C 295.351 20.453,294.996 20.157,294.502 20.082 C 293.823 19.978,293.663 20.098,293.845 20.572 C 294.004 20.988,293.860 21.200,293.419 21.200 C 293.053 21.200,292.857 21.032,292.984 20.826 C 293.125 20.597,292.757 20.583,292.038 20.789 C 291.390 20.975,290.761 21.028,290.640 20.906 C 290.519 20.785,290.145 20.914,289.810 21.192 C 289.328 21.592,289.200 21.594,289.200 21.200 C 289.200 20.804,289.078 20.804,288.604 21.196 C 288.277 21.468,288.125 21.878,288.266 22.107 C 288.417 22.351,288.330 22.404,288.055 22.234 C 287.798 22.075,287.672 21.807,287.776 21.639 C 287.880 21.471,287.695 21.333,287.365 21.333 C 287.001 21.333,286.854 21.565,286.992 21.923 C 287.164 22.371,287.092 22.409,286.696 22.079 C 286.044 21.539,284.698 21.706,284.482 22.355 C 284.362 22.713,284.069 22.675,283.360 22.211 C 282.477 21.632,282.400 21.636,282.400 22.257 C 282.400 22.629,282.282 22.815,282.137 22.670 C 281.992 22.525,281.632 22.607,281.337 22.852 C 280.942 23.180,280.800 23.179,280.800 22.849 C 280.800 22.237,279.716 22.278,279.465 22.900 C 279.304 23.300,279.257 23.300,279.232 22.900 C 279.214 22.625,278.829 22.400,278.376 22.400 C 277.923 22.400,277.664 22.580,277.800 22.800 C 277.936 23.020,277.857 23.200,277.624 23.200 C 277.391 23.200,277.200 23.020,277.200 22.800 C 277.200 22.159,276.335 22.338,275.757 23.100 C 275.465 23.485,275.220 23.620,275.213 23.400 C 275.197 22.899,271.200 23.136,271.200 23.639 C 271.200 23.837,270.919 24.000,270.576 24.000 C 270.233 24.000,270.045 23.850,270.159 23.667 C 270.272 23.483,270.120 23.333,269.821 23.333 C 269.502 23.333,269.371 23.581,269.506 23.932 C 269.674 24.371,269.584 24.437,269.168 24.178 C 268.367 23.680,266.663 23.967,266.265 24.667 C 265.976 25.173,265.859 25.160,265.429 24.572 C 264.973 23.949,264.907 23.945,264.679 24.537 C 264.524 24.941,264.183 25.091,263.775 24.935 C 263.406 24.794,262.964 24.928,262.766 25.242 C 262.571 25.549,262.409 25.607,262.406 25.372 C 262.403 25.119,261.500 24.948,260.200 24.955 C 258.853 24.963,258.000 25.141,258.000 25.414 C 258.000 25.684,257.523 25.791,256.800 25.685 C 256.049 25.575,255.600 25.685,255.600 25.978 C 255.600 26.254,255.394 26.318,255.100 26.134 C 254.426 25.712,253.553 25.708,252.664 26.123 C 252.259 26.312,251.133 26.467,250.161 26.467 C 249.189 26.467,248.496 26.632,248.621 26.833 C 248.745 27.035,248.567 27.200,248.224 27.200 C 247.881 27.200,247.600 27.020,247.600 26.800 C 247.600 26.580,247.330 26.400,247.000 26.400 C 246.670 26.400,246.400 26.578,246.400 26.796 C 246.400 27.013,245.995 27.190,245.500 27.190 C 243.746 27.187,243.279 27.339,243.475 27.851 C 243.685 28.398,242.444 28.325,241.498 27.734 C 240.729 27.253,240.015 27.229,240.112 27.687 C 240.161 27.914,239.946 28.192,239.636 28.305 C 239.246 28.446,239.150 28.308,239.324 27.855 C 239.462 27.495,239.401 27.200,239.187 27.200 C 238.974 27.200,238.800 27.387,238.800 27.615 C 238.800 27.863,238.170 27.954,237.233 27.841 C 236.090 27.704,235.604 27.813,235.439 28.243 C 235.277 28.665,235.010 28.731,234.506 28.471 C 233.690 28.052,232.688 28.295,233.020 28.833 C 233.144 29.033,232.746 29.008,232.135 28.775 C 231.220 28.427,230.933 28.476,230.512 29.053 C 230.069 29.658,229.854 29.560,229.925 28.783 C 229.936 28.664,229.601 28.540,229.181 28.509 C 228.761 28.477,228.458 28.665,228.508 28.925 C 228.563 29.206,228.110 29.400,227.400 29.400 C 226.740 29.400,225.976 29.699,225.703 30.063 C 225.176 30.767,223.645 30.633,223.106 29.835 C 222.917 29.555,222.806 29.614,222.793 30.000 C 222.779 30.456,222.620 30.408,222.133 29.800 C 221.554 29.076,221.517 29.071,221.751 29.746 C 221.974 30.388,221.841 30.468,220.805 30.315 C 219.982 30.195,219.600 30.307,219.600 30.669 C 219.600 30.961,219.420 31.200,219.200 31.200 C 218.980 31.200,218.845 30.987,218.900 30.728 C 218.964 30.425,218.318 30.227,217.100 30.177 C 215.690 30.120,215.200 30.246,215.200 30.667 C 215.200 30.980,214.975 31.189,214.700 31.134 C 214.425 31.078,213.791 31.259,213.291 31.535 C 212.534 31.954,212.277 31.934,211.762 31.419 C 211.421 31.079,210.841 30.803,210.471 30.806 C 210.038 30.810,209.961 30.916,210.256 31.106 C 210.587 31.319,210.561 31.539,210.164 31.908 C 209.445 32.575,209.160 32.580,208.751 31.934 C 208.471 31.493,208.411 31.495,208.406 31.949 C 208.401 32.414,208.297 32.414,207.723 31.949 C 207.263 31.576,207.143 31.560,207.347 31.900 C 207.549 32.237,207.371 32.400,206.800 32.400 C 206.260 32.400,206.057 32.232,206.239 31.937 C 206.440 31.612,206.237 31.551,205.563 31.732 C 205.033 31.873,204.454 31.992,204.276 31.995 C 204.098 31.998,204.064 32.180,204.200 32.400 C 204.546 32.960,203.860 32.900,203.280 32.320 C 202.907 31.947,202.800 31.951,202.800 32.340 C 202.800 32.696,202.288 32.780,201.017 32.630 C 199.909 32.500,199.129 32.591,198.955 32.872 C 198.773 33.167,198.858 33.212,199.200 33.000 C 199.547 32.786,199.627 32.833,199.438 33.139 C 199.255 33.435,198.907 33.476,198.476 33.253 C 198.104 33.061,197.440 32.979,197.000 33.072 C 196.560 33.164,195.878 33.276,195.485 33.320 C 195.092 33.364,194.622 33.640,194.441 33.934 C 194.174 34.365,194.067 34.351,193.877 33.857 C 193.748 33.521,193.293 33.273,192.865 33.305 C 192.423 33.338,192.170 33.579,192.279 33.862 C 192.420 34.229,191.904 34.332,190.313 34.252 C 188.339 34.153,186.743 34.816,187.096 35.590 C 187.148 35.706,186.930 35.802,186.611 35.805 C 186.292 35.807,185.808 36.032,185.535 36.305 C 185.142 36.698,185.150 36.800,185.578 36.800 C 185.880 36.800,185.624 37.256,184.997 37.838 C 184.161 38.613,184.007 38.957,184.391 39.194 C 184.767 39.427,184.674 39.586,184.047 39.785 C 183.575 39.935,183.292 40.225,183.418 40.429 C 183.544 40.633,183.371 40.800,183.034 40.800 C 182.271 40.800,182.048 182.195,182.809 183.617 C 183.116 184.190,183.101 184.400,182.752 184.400 C 182.452 184.400,182.521 184.671,182.939 185.132 C 183.303 185.535,183.481 185.985,183.334 186.132 C 183.187 186.280,183.299 186.400,183.582 186.400 C 183.999 186.400,184.001 186.517,183.592 187.010 C 182.886 187.860,183.350 188.160,184.466 187.574 C 185.374 187.097,185.381 187.105,184.700 187.873 C 183.842 188.841,183.815 189.200,184.600 189.200 C 184.930 189.200,185.155 189.394,185.100 189.632 C 185.045 189.870,185.414 190.348,185.921 190.695 C 186.579 191.146,186.807 191.179,186.721 190.813 C 186.654 190.531,186.850 190.209,187.156 190.098 C 187.476 189.982,187.601 190.074,187.451 190.318 C 187.154 190.798,189.214 192.400,190.128 192.400 C 190.461 192.400,190.824 192.175,190.935 191.900 C 191.096 191.501,191.143 191.501,191.168 191.902 C 191.209 192.545,392.800 192.641,392.800 191.997 C 392.800 191.779,393.430 191.600,394.200 191.600 C 394.970 191.600,395.600 191.446,395.600 191.258 C 395.600 190.719,397.489 188.822,397.758 189.091 C 397.891 189.224,398.000 189.129,398.000 188.879 C 398.000 188.629,398.249 188.520,398.552 188.637 C 399.980 189.185,400.000 187.982,400.000 99.540 C 400.000 17.209,399.964 12.798,399.300 12.768 C 398.882 12.750,398.801 12.656,399.100 12.535 C 399.375 12.424,399.600 12.084,399.600 11.779 C 399.600 11.427,399.358 11.318,398.934 11.481 C 398.467 11.660,398.361 11.587,398.578 11.235 C 398.799 10.878,398.617 10.773,397.944 10.867 C 397.150 10.979,397.021 10.848,397.135 10.044 C 397.247 9.247,397.131 9.125,396.434 9.307 C 395.907 9.445,395.442 9.281,395.176 8.863 C 394.868 8.380,394.696 8.336,394.543 8.700 C 394.195 9.530,393.527 9.261,393.800 8.400 C 393.946 7.941,393.872 7.600,393.627 7.600 C 393.392 7.600,393.200 7.801,393.200 8.047 C 393.200 8.325,392.860 8.389,392.300 8.218 C 390.622 7.705,389.623 7.668,389.712 8.122 " stroke="none" fill="#4cac54" fill-rule="evenodd"></path><path id="path1" d="M189.600 208.000 C 189.600 208.220,189.060 208.400,188.400 208.400 C 187.740 208.400,187.200 208.536,187.200 208.702 C 187.200 208.869,186.705 209.228,186.100 209.500 C 184.849 210.064,183.200 212.391,183.200 213.594 C 183.200 214.037,183.020 214.400,182.800 214.400 C 182.535 214.400,182.400 238.867,182.400 287.000 C 182.400 335.133,182.535 359.600,182.800 359.600 C 183.020 359.600,183.200 360.055,183.200 360.611 C 183.200 362.356,187.373 366.000,189.371 366.000 C 189.911 366.000,190.464 366.180,190.600 366.400 C 190.736 366.620,192.086 366.800,193.600 366.800 C 195.114 366.800,196.464 366.980,196.600 367.200 C 196.736 367.420,198.187 367.600,199.824 367.600 C 201.461 367.600,202.800 367.766,202.800 367.968 C 202.800 368.171,204.105 368.437,205.700 368.561 C 212.658 369.097,214.222 369.286,214.580 369.632 C 214.789 369.835,216.238 370.000,217.800 370.000 C 219.362 370.000,220.811 370.165,221.020 370.368 C 221.229 370.570,222.570 370.837,224.000 370.961 C 225.430 371.085,227.770 371.287,229.200 371.410 C 230.630 371.533,232.160 371.799,232.600 372.002 C 233.040 372.205,234.660 372.459,236.200 372.566 C 237.740 372.673,240.350 372.954,242.000 373.190 C 248.812 374.164,251.271 374.445,256.700 374.873 C 259.835 375.119,262.400 375.474,262.400 375.661 C 262.400 375.847,263.750 376.000,265.400 376.000 C 267.133 376.000,268.400 376.169,268.400 376.400 C 268.400 376.633,269.733 376.800,271.600 376.800 C 273.467 376.800,274.800 376.967,274.800 377.200 C 274.800 377.429,276.000 377.600,277.600 377.600 C 279.200 377.600,280.400 377.771,280.400 378.000 C 280.400 378.231,281.667 378.400,283.400 378.400 C 285.133 378.400,286.400 378.569,286.400 378.800 C 286.400 379.033,287.733 379.200,289.600 379.200 C 291.467 379.200,292.800 379.367,292.800 379.600 C 292.800 379.829,294.000 380.000,295.600 380.000 C 297.200 380.000,298.400 380.171,298.400 380.400 C 298.400 380.631,299.667 380.800,301.400 380.800 C 303.133 380.800,304.400 380.969,304.400 381.200 C 304.400 381.433,305.733 381.600,307.600 381.600 C 309.467 381.600,310.800 381.767,310.800 382.000 C 310.800 382.229,312.000 382.400,313.600 382.400 C 315.200 382.400,316.400 382.571,316.400 382.800 C 316.400 383.031,317.667 383.200,319.400 383.200 C 321.133 383.200,322.400 383.369,322.400 383.600 C 322.400 383.833,323.733 384.000,325.600 384.000 C 327.467 384.000,328.800 384.167,328.800 384.400 C 328.800 384.625,329.925 384.800,331.376 384.800 C 332.793 384.800,334.064 384.980,334.200 385.200 C 334.336 385.420,335.787 385.600,337.424 385.600 C 339.141 385.600,340.400 385.769,340.400 386.000 C 340.400 386.227,341.573 386.400,343.120 386.400 C 344.616 386.400,346.011 386.566,346.220 386.769 C 346.429 386.972,347.950 387.244,349.600 387.374 C 351.250 387.505,353.905 387.713,355.500 387.837 C 357.095 387.961,358.400 388.229,358.400 388.432 C 358.400 388.634,359.714 388.800,361.320 388.800 C 362.926 388.800,364.411 388.965,364.620 389.168 C 364.974 389.510,365.994 389.635,373.400 390.242 C 374.940 390.368,376.380 390.617,376.600 390.794 C 376.820 390.971,379.475 391.247,382.500 391.406 C 385.525 391.566,388.000 391.855,388.000 392.048 C 388.000 392.242,389.350 392.400,391.000 392.400 C 392.733 392.400,394.000 392.231,394.000 392.000 C 394.000 391.780,394.525 391.600,395.167 391.600 C 395.993 391.600,396.842 391.112,398.067 389.935 L 399.800 388.271 399.904 300.703 C 400.013 208.042,400.053 210.400,398.373 210.400 C 398.188 210.400,397.586 209.950,397.036 209.400 C 396.486 208.850,395.578 208.400,395.018 208.400 C 394.458 208.400,394.000 208.220,394.000 208.000 C 394.000 207.734,359.667 207.600,291.800 207.600 C 223.933 207.600,189.600 207.734,189.600 208.000 " stroke="none" fill="#fcc404" fill-rule="evenodd"></path><path id="path2" d="M155.349 38.411 C 155.123 38.637,154.021 38.856,152.899 38.897 C 151.777 38.939,150.947 39.114,151.053 39.286 C 151.160 39.459,149.992 39.600,148.457 39.600 C 146.599 39.600,145.599 39.767,145.465 40.100 C 145.304 40.500,145.257 40.500,145.232 40.100 C 145.214 39.825,145.009 39.600,144.776 39.600 C 144.543 39.600,144.456 39.767,144.582 39.971 C 144.713 40.184,143.307 40.438,141.306 40.564 C 133.766 41.039,131.600 41.277,131.600 41.632 C 131.600 41.834,130.430 42.000,129.000 42.000 C 127.533 42.000,126.400 42.174,126.400 42.400 C 126.400 42.622,125.344 42.800,124.033 42.800 C 122.514 42.800,121.594 42.979,121.465 43.300 C 121.304 43.700,121.257 43.700,121.232 43.300 C 121.214 43.025,120.930 42.800,120.600 42.800 C 120.270 42.800,119.997 43.025,119.994 43.300 C 119.990 43.633,119.858 43.600,119.600 43.200 C 119.387 42.870,119.209 42.803,119.206 43.052 C 119.202 43.350,117.369 43.602,113.800 43.793 C 110.830 43.952,108.400 44.213,108.400 44.373 C 108.400 44.532,107.365 44.704,106.100 44.754 C 104.835 44.804,103.740 45.015,103.667 45.222 C 103.593 45.430,103.358 45.600,103.143 45.600 C 102.928 45.600,102.882 45.392,103.039 45.137 C 103.243 44.806,103.050 44.763,102.363 44.987 C 101.833 45.159,100.140 45.413,98.600 45.552 C 97.060 45.690,95.574 45.949,95.298 46.127 C 95.022 46.305,93.627 46.450,92.198 46.450 C 90.769 46.450,89.600 46.613,89.600 46.812 C 89.600 47.012,89.870 47.071,90.200 46.945 C 90.530 46.818,90.800 46.881,90.800 47.085 C 90.800 47.299,89.352 47.381,87.400 47.278 C 85.352 47.171,84.000 47.254,84.000 47.487 C 84.000 47.700,82.875 47.911,81.500 47.956 C 78.485 48.056,77.949 48.130,77.298 48.536 C 77.022 48.709,75.623 48.850,74.190 48.850 C 72.670 48.850,71.680 49.006,71.815 49.225 C 71.952 49.446,70.736 49.600,68.847 49.600 C 67.087 49.600,65.536 49.780,65.400 50.000 C 65.264 50.220,63.903 50.400,62.376 50.400 C 60.792 50.400,59.600 50.572,59.600 50.800 C 59.600 51.031,58.333 51.200,56.600 51.200 C 54.867 51.200,53.600 51.369,53.600 51.600 C 53.600 51.831,52.341 52.000,50.624 52.000 C 48.987 52.000,47.536 52.180,47.400 52.400 C 47.264 52.620,45.768 52.813,44.076 52.828 C 41.986 52.847,41.256 52.966,41.800 53.200 C 42.372 53.446,41.859 53.567,40.000 53.627 C 35.522 53.769,35.275 53.793,34.967 54.100 C 34.802 54.265,33.563 54.400,32.213 54.400 C 30.864 54.400,29.587 54.573,29.375 54.785 C 29.163 54.997,27.873 55.204,26.508 55.244 C 25.143 55.285,24.121 55.472,24.237 55.659 C 24.353 55.847,23.277 56.000,21.847 56.000 C 20.417 56.000,19.136 56.180,19.000 56.400 C 18.626 57.005,17.092 56.907,17.435 56.300 C 17.661 55.900,17.610 55.900,17.179 56.300 C 16.863 56.593,15.554 56.803,14.020 56.806 C 12.181 56.810,11.579 56.928,12.000 57.200 C 12.414 57.468,11.578 57.590,9.300 57.594 C 7.371 57.597,6.000 57.766,6.000 58.000 C 6.000 58.220,5.730 58.400,5.400 58.400 C 5.070 58.400,4.797 58.625,4.794 58.900 C 4.790 59.239,4.668 59.211,4.416 58.812 C 4.108 58.325,3.884 58.411,3.109 59.312 C 2.595 59.910,2.032 60.400,1.859 60.400 C 0.130 60.400,0.200 57.665,0.200 124.985 L 0.200 188.227 1.600 189.621 C 2.470 190.488,3.303 190.967,3.800 190.887 C 4.460 190.780,4.495 190.830,4.000 191.172 C 3.530 191.498,3.682 191.589,4.700 191.594 C 5.467 191.597,6.003 191.805,6.006 192.100 C 6.010 192.433,6.142 192.400,6.400 192.000 C 6.658 191.600,6.790 191.567,6.794 191.900 C 6.799 192.298,22.270 192.400,82.800 192.400 C 133.200 192.400,158.800 192.265,158.800 192.000 C 158.800 191.780,159.171 191.600,159.624 191.600 C 160.077 191.600,160.336 191.780,160.200 192.000 C 159.774 192.690,160.611 192.436,161.503 191.604 C 161.983 191.158,162.632 190.914,162.983 191.049 C 163.438 191.223,163.541 191.113,163.362 190.645 C 163.195 190.211,163.332 190.000,163.781 190.000 C 164.194 190.000,164.343 190.190,164.173 190.500 C 164.022 190.775,164.372 190.513,164.949 189.917 C 165.527 189.322,166.000 188.467,166.000 188.017 C 166.000 187.568,166.191 187.200,166.424 187.200 C 166.657 187.200,166.745 187.035,166.620 186.832 C 166.495 186.630,166.664 186.193,166.996 185.861 C 167.824 185.034,167.927 46.004,167.100 45.994 C 166.761 45.990,166.793 45.851,167.200 45.563 C 167.652 45.244,167.676 45.089,167.300 44.936 C 167.025 44.825,166.800 44.318,166.800 43.809 C 166.800 43.301,166.533 42.783,166.207 42.658 C 165.869 42.528,165.715 42.165,165.850 41.815 C 166.020 41.370,165.826 41.198,165.143 41.194 C 164.520 41.190,164.370 41.080,164.702 40.869 C 165.490 40.369,162.183 38.800,160.339 38.800 C 159.383 38.800,158.851 38.641,159.000 38.400 C 159.136 38.180,158.887 38.000,158.447 38.000 C 158.007 38.000,157.536 38.180,157.400 38.400 C 157.264 38.620,156.758 38.797,156.276 38.794 C 155.564 38.789,155.512 38.715,156.000 38.400 C 156.330 38.187,156.411 38.009,156.180 38.006 C 155.949 38.003,155.575 38.185,155.349 38.411 " stroke="none" fill="#f44434" fill-rule="evenodd"></path><path id="path3" d="M6.000 208.000 C 6.000 208.220,5.542 208.400,4.982 208.400 C 4.422 208.400,3.514 208.850,2.964 209.400 C 2.414 209.950,1.812 210.400,1.627 210.400 C -0.028 210.400,-0.013 209.780,0.096 275.735 L 0.200 338.334 1.917 339.967 C 2.947 340.947,4.018 341.600,4.593 341.600 C 5.121 341.600,5.664 341.780,5.800 342.000 C 5.936 342.220,7.117 342.400,8.424 342.400 C 9.741 342.400,10.800 342.578,10.800 342.800 C 10.800 343.031,12.067 343.200,13.800 343.200 C 15.533 343.200,16.800 343.369,16.800 343.600 C 16.800 343.833,18.133 344.000,20.000 344.000 C 21.867 344.000,23.200 344.167,23.200 344.400 C 23.200 344.629,24.400 344.800,26.000 344.800 C 27.600 344.800,28.800 344.971,28.800 345.200 C 28.800 345.431,30.067 345.600,31.800 345.600 C 33.533 345.600,34.800 345.769,34.800 346.000 C 34.800 346.233,36.133 346.400,38.000 346.400 C 39.867 346.400,41.200 346.567,41.200 346.800 C 41.200 347.029,42.400 347.200,44.000 347.200 C 45.600 347.200,46.800 347.371,46.800 347.600 C 46.800 347.831,48.067 348.000,49.800 348.000 C 51.533 348.000,52.800 348.169,52.800 348.400 C 52.800 348.633,54.133 348.800,56.000 348.800 C 57.867 348.800,59.200 348.967,59.200 349.200 C 59.200 349.425,60.325 349.600,61.776 349.600 C 63.193 349.600,64.464 349.780,64.600 350.000 C 64.736 350.220,66.187 350.400,67.824 350.400 C 69.541 350.400,70.800 350.569,70.800 350.800 C 70.800 351.033,72.133 351.200,74.000 351.200 C 75.867 351.200,77.200 351.367,77.200 351.600 C 77.200 351.828,78.392 352.000,79.976 352.000 C 81.503 352.000,82.864 352.180,83.000 352.400 C 83.136 352.620,84.497 352.800,86.024 352.800 C 87.608 352.800,88.800 352.972,88.800 353.200 C 88.800 353.433,90.133 353.600,92.000 353.600 C 93.760 353.600,95.200 353.765,95.200 353.967 C 95.200 354.310,96.233 354.442,103.400 355.009 C 104.940 355.131,106.560 355.397,107.000 355.599 C 107.440 355.801,108.880 356.060,110.200 356.173 C 111.520 356.286,114.130 356.569,116.000 356.802 C 117.870 357.035,120.570 357.326,122.000 357.449 C 123.430 357.573,124.780 357.818,125.000 357.995 C 125.220 358.172,127.875 358.447,130.900 358.606 C 133.925 358.766,136.400 359.055,136.400 359.248 C 136.400 359.442,137.840 359.600,139.600 359.600 C 141.467 359.600,142.800 359.767,142.800 360.000 C 142.800 360.231,144.075 360.400,145.824 360.400 C 147.737 360.400,148.756 360.547,148.600 360.800 C 148.444 361.053,149.463 361.200,151.376 361.200 C 153.125 361.200,154.400 361.369,154.400 361.600 C 154.400 361.835,155.800 362.000,157.800 362.000 C 159.800 362.000,161.200 361.835,161.200 361.600 C 161.200 361.380,161.560 361.200,162.000 361.200 C 162.440 361.200,162.800 361.020,162.800 360.800 C 162.800 360.580,163.078 360.400,163.418 360.400 C 164.585 360.400,166.800 357.522,166.800 356.005 C 166.800 355.562,166.980 355.200,167.200 355.200 C 167.465 355.200,167.600 331.467,167.600 284.800 C 167.600 238.133,167.465 214.400,167.200 214.400 C 166.980 214.400,166.800 214.038,166.800 213.595 C 166.800 212.081,164.506 209.202,163.300 209.200 C 163.025 209.200,162.800 209.020,162.800 208.800 C 162.800 208.580,162.260 208.400,161.600 208.400 C 160.940 208.400,160.400 208.220,160.400 208.000 C 160.400 207.735,134.400 207.600,83.200 207.600 C 32.000 207.600,6.000 207.735,6.000 208.000 " stroke="none" fill="#2494f4" fill-rule="evenodd"></path><path id="path4" d="M156.000 38.400 C 155.512 38.715,155.564 38.789,156.276 38.794 C 156.758 38.797,157.264 38.620,157.400 38.400 C 157.715 37.891,156.788 37.891,156.000 38.400 M158.959 38.467 C 158.845 38.650,159.123 38.800,159.576 38.800 C 160.029 38.800,160.400 38.650,160.400 38.467 C 160.400 38.283,160.122 38.133,159.782 38.133 C 159.443 38.133,159.072 38.283,158.959 38.467 M17.347 56.486 C 17.240 56.659,17.513 56.800,17.953 56.800 C 18.393 56.800,18.840 56.659,18.947 56.486 C 19.054 56.313,18.781 56.171,18.341 56.171 C 17.901 56.171,17.454 56.313,17.347 56.486 M158.800 191.965 C 158.800 192.371,159.823 192.311,160.255 191.878 C 160.408 191.725,160.143 191.600,159.667 191.600 C 159.190 191.600,158.800 191.764,158.800 191.965 " stroke="none" fill="#f4443c" fill-rule="evenodd"></path><path id="path5" d="M391.600 8.000 C 392.383 8.506,393.200 8.506,393.200 8.000 C 393.200 7.780,392.705 7.603,392.100 7.606 C 391.243 7.611,391.132 7.698,391.600 8.000 M383.600 9.000 C 383.600 9.330,383.780 9.600,384.000 9.600 C 384.220 9.600,384.400 9.330,384.400 9.000 C 384.400 8.670,384.220 8.400,384.000 8.400 C 383.780 8.400,383.600 8.670,383.600 9.000 M395.277 8.830 C 395.356 9.066,395.591 9.260,395.800 9.260 C 396.009 9.260,396.245 9.066,396.323 8.830 C 396.402 8.594,396.167 8.400,395.800 8.400 C 395.433 8.400,395.198 8.594,395.277 8.830 M397.078 10.256 C 396.606 10.728,397.192 11.127,398.034 10.907 C 398.668 10.741,398.740 10.608,398.334 10.351 C 397.687 9.941,397.413 9.920,397.078 10.256 M364.921 10.717 C 364.389 11.055,364.726 11.745,365.500 11.900 C 365.775 11.955,366.000 11.640,366.000 11.200 C 366.000 10.352,365.703 10.219,364.921 10.717 M353.061 12.470 C 352.169 12.969,352.203 13.767,353.100 13.395 C 353.485 13.235,354.025 13.096,354.300 13.086 C 354.575 13.075,354.803 12.872,354.806 12.633 C 354.809 12.395,354.987 12.470,355.200 12.800 C 355.538 13.322,355.589 13.316,355.594 12.750 C 355.601 12.023,354.147 11.862,353.061 12.470 M347.056 13.078 C 346.468 13.665,346.868 13.954,347.786 13.605 C 348.414 13.367,348.859 13.373,349.013 13.622 C 349.317 14.112,350.011 13.716,349.968 13.076 C 349.946 12.735,349.879 12.743,349.734 13.102 C 349.623 13.379,349.322 13.474,349.066 13.314 C 348.403 12.900,347.356 12.777,347.056 13.078 M334.580 14.766 C 334.371 14.968,333.750 15.213,333.200 15.312 C 332.362 15.462,332.410 15.500,333.500 15.546 C 334.215 15.575,334.800 15.433,334.800 15.228 C 334.800 15.023,335.205 14.778,335.700 14.682 C 336.514 14.526,336.521 14.504,335.780 14.454 C 335.329 14.425,334.789 14.565,334.580 14.766 M328.800 15.848 C 328.800 16.128,329.130 16.239,329.600 16.116 C 330.040 16.001,330.400 15.786,330.400 15.639 C 330.400 15.492,330.040 15.371,329.600 15.371 C 329.160 15.371,328.800 15.586,328.800 15.848 M325.017 16.372 C 324.751 16.803,325.534 17.399,325.893 17.040 C 326.025 16.908,325.878 16.782,325.567 16.760 C 325.255 16.738,325.450 16.576,326.000 16.400 C 326.931 16.102,326.939 16.077,326.124 16.040 C 325.642 16.018,325.144 16.168,325.017 16.372 M317.169 16.900 C 316.847 17.954,316.967 18.281,317.615 18.112 C 318.670 17.836,318.964 16.800,317.987 16.800 C 317.554 16.800,317.186 16.845,317.169 16.900 M319.466 17.427 C 319.739 18.140,320.250 18.167,320.513 17.482 C 320.628 17.182,320.402 16.940,319.979 16.908 C 319.495 16.872,319.320 17.048,319.466 17.427 M310.800 17.975 C 310.800 18.181,311.148 18.324,311.572 18.292 C 311.997 18.260,312.256 18.091,312.149 17.917 C 311.875 17.473,310.800 17.520,310.800 17.975 M306.020 18.813 C 306.442 19.073,308.000 18.890,308.000 18.580 C 308.000 18.510,307.449 18.469,306.776 18.488 C 306.095 18.508,305.760 18.652,306.020 18.813 M299.200 19.600 C 298.764 19.882,298.743 19.989,299.124 19.994 C 299.435 19.998,299.526 20.202,299.347 20.500 C 299.140 20.844,299.256 20.830,299.719 20.455 C 300.693 19.664,300.245 18.925,299.200 19.600 M301.376 19.813 C 302.360 20.557,302.667 20.554,302.667 19.800 C 302.667 19.418,302.291 19.205,301.633 19.213 C 300.638 19.225,300.629 19.247,301.376 19.813 M293.145 20.321 C 293.606 20.644,293.606 20.737,293.145 20.920 C 292.778 21.066,292.840 21.147,293.333 21.168 C 294.172 21.205,294.043 20.329,293.175 20.095 C 292.700 19.966,292.695 20.005,293.145 20.321 M281.067 21.867 C 280.518 22.416,280.767 23.325,281.337 22.852 C 281.632 22.607,281.992 22.525,282.137 22.670 C 282.282 22.815,282.400 22.633,282.400 22.267 C 282.400 21.604,281.576 21.357,281.067 21.867 M282.800 21.786 C 282.800 22.379,284.338 22.737,284.547 22.193 C 284.711 21.768,284.495 21.600,283.787 21.600 C 283.244 21.600,282.800 21.684,282.800 21.786 M275.054 22.998 C 275.181 23.326,275.445 23.496,275.642 23.374 C 276.207 23.025,276.060 22.400,275.413 22.400 C 275.056 22.400,274.915 22.635,275.054 22.998 M262.770 24.637 C 262.504 24.957,262.402 25.335,262.543 25.476 C 262.684 25.618,262.800 25.512,262.800 25.242 C 262.800 24.966,263.179 24.805,263.663 24.875 C 264.137 24.944,264.590 24.813,264.668 24.585 C 264.889 23.941,263.312 23.983,262.770 24.637 M265.454 24.598 C 265.581 24.926,265.845 25.096,266.042 24.974 C 266.607 24.625,266.460 24.000,265.813 24.000 C 265.456 24.000,265.315 24.235,265.454 24.598 M257.026 25.158 C 256.904 25.355,257.074 25.619,257.402 25.746 C 257.765 25.885,258.000 25.744,258.000 25.387 C 258.000 24.740,257.375 24.593,257.026 25.158 M244.925 27.149 C 244.495 27.837,244.536 27.861,245.425 27.449 C 246.465 26.967,246.719 26.400,245.896 26.400 C 245.619 26.400,245.182 26.737,244.925 27.149 M239.342 27.693 C 238.928 28.363,239.615 28.557,240.229 27.943 C 240.775 27.397,240.772 27.333,240.201 27.333 C 239.851 27.333,239.465 27.495,239.342 27.693 M241.496 27.656 C 242.091 28.251,243.523 28.379,243.724 27.854 C 243.847 27.532,243.439 27.354,242.522 27.329 C 241.690 27.307,241.278 27.438,241.496 27.656 M232.947 28.189 C 232.418 28.576,232.388 28.745,232.801 29.001 C 233.128 29.203,233.226 29.166,233.064 28.904 C 232.706 28.325,233.988 27.892,234.588 28.390 C 235.058 28.780,235.600 28.563,235.600 27.983 C 235.600 27.514,233.665 27.664,232.947 28.189 M227.195 29.021 L 226.200 29.572 227.276 29.586 C 227.868 29.594,228.456 29.432,228.583 29.228 C 228.990 28.569,228.219 28.454,227.195 29.021 M229.200 28.636 C 229.200 29.165,230.349 29.511,230.531 29.037 C 230.683 28.640,230.506 28.472,229.977 28.512 C 229.550 28.544,229.200 28.600,229.200 28.636 M221.200 29.571 C 221.200 29.775,220.885 30.024,220.500 30.124 C 220.064 30.238,220.210 30.325,220.887 30.354 C 221.700 30.388,221.917 30.248,221.745 29.800 C 221.487 29.128,221.200 29.007,221.200 29.571 M222.000 29.576 C 222.000 29.783,222.180 30.064,222.400 30.200 C 222.620 30.336,222.803 30.212,222.806 29.924 C 222.810 29.551,222.897 29.532,223.106 29.859 C 223.480 30.442,224.848 30.675,225.500 30.266 C 226.435 29.680,226.001 29.400,223.999 29.300 C 222.899 29.244,222.000 29.369,222.000 29.576 M209.249 31.311 C 209.002 31.558,208.800 31.874,208.800 32.013 C 208.800 32.453,209.815 32.288,210.300 31.769 C 210.916 31.110,209.895 30.665,209.249 31.311 M212.000 31.450 C 212.000 31.752,212.146 32.000,212.324 32.000 C 212.501 32.000,212.986 31.752,213.399 31.450 C 214.106 30.933,214.086 30.900,213.076 30.900 C 212.430 30.900,212.000 31.120,212.000 31.450 M203.292 32.075 C 203.379 32.336,203.689 32.630,203.981 32.727 C 204.278 32.826,204.397 32.718,204.251 32.482 C 204.107 32.250,204.307 31.978,204.695 31.877 C 205.121 31.765,204.952 31.674,204.267 31.646 C 203.554 31.617,203.192 31.776,203.292 32.075 M206.164 32.059 C 206.042 32.256,206.495 32.375,207.171 32.323 C 207.847 32.272,208.400 32.111,208.400 31.965 C 208.400 31.564,206.418 31.647,206.164 32.059 M197.200 32.824 C 197.200 33.057,197.388 33.131,197.618 32.989 C 197.847 32.847,198.281 32.935,198.582 33.185 C 198.992 33.525,199.203 33.518,199.426 33.158 C 199.615 32.853,199.555 32.781,199.262 32.962 C 199.008 33.119,198.800 33.057,198.800 32.824 C 198.800 32.591,198.440 32.400,198.000 32.400 C 197.560 32.400,197.200 32.591,197.200 32.824 M191.062 33.783 C 190.896 34.215,191.071 34.400,191.646 34.400 C 192.102 34.400,192.396 34.189,192.308 33.925 C 192.061 33.184,191.324 33.100,191.062 33.783 M186.400 35.400 C 186.400 35.767,186.594 36.002,186.830 35.923 C 187.067 35.845,187.260 35.609,187.260 35.400 C 187.260 35.191,187.067 34.956,186.830 34.877 C 186.594 34.798,186.400 35.033,186.400 35.400 M184.800 36.990 C 184.800 37.300,184.485 37.790,184.100 38.077 C 183.141 38.794,182.906 40.199,183.803 39.854 C 184.167 39.714,184.586 39.597,184.733 39.594 C 184.880 39.591,184.747 39.428,184.438 39.232 C 183.986 38.946,184.084 38.684,184.947 37.884 C 185.810 37.084,185.899 36.847,185.409 36.659 C 185.041 36.518,184.800 36.649,184.800 36.990 M398.000 188.787 C 398.000 189.087,397.895 189.228,397.767 189.100 C 397.374 188.707,396.124 190.163,396.337 190.766 C 396.473 191.154,396.370 191.229,396.006 191.004 C 395.654 190.786,395.572 190.831,395.762 191.138 C 396.143 191.755,396.099 191.774,397.580 190.359 C 398.523 189.458,398.758 188.998,398.439 188.679 C 398.120 188.360,398.000 188.390,398.000 188.787 M186.670 190.263 C 186.352 190.581,187.136 191.600,187.698 191.600 C 187.942 191.600,187.924 191.391,187.652 191.063 C 187.407 190.768,187.325 190.408,187.470 190.263 C 187.615 190.118,187.553 190.000,187.333 190.000 C 187.113 190.000,186.815 190.118,186.670 190.263 " stroke="none" fill="#4cb44c" fill-rule="evenodd"></path><path id="path6" d="" stroke="none" fill="#4cb454" fill-rule="evenodd"></path><path id="path7" d="" stroke="none" fill="#9484c8" fill-rule="evenodd"></path></g></svg>
