<?xml version="1.0" standalone="no"?>
<!DOCTYPE svg PUBLIC "-//W3C//DTD SVG 1.0//EN" "http://www.w3.org/TR/2001/REC-SVG-20010904/DTD/svg10.dtd">
<svg xmlns="http://www.w3.org/2000/svg" xmlns:xlink="http://www.w3.org/1999/xlink" id="body_1" width="614" height="461">

<g transform="matrix(0.9003906 0 0 0.9003906 76.500015 9.003906)">
	<g>
        <path d="M270.5 0.295C 269.345 0.376 268.4 0.612 268.4 0.821C 268.4 1.029 267.781 1.2 267.024 1.2C 266.267 1.2 265.536 1.38 265.4 1.6C 265.264 1.82 264.623 2 263.976 2C 263.329 2 262.8 2.18 262.8 2.4C 262.8 2.62 262.26 2.8 261.6 2.8C 260.94 2.8 260.4 2.98 260.4 3.2C 260.4 3.42 259.95 3.6 259.4 3.6C 258.85 3.6 258.4 3.78 258.4 4C 258.4 4.22 257.961 4.4 257.424 4.4C 256.887 4.4 256.336 4.58 256.2 4.8C 256.064 5.02 255.603 5.2 255.176 5.2C 254.749 5.2 254.4 5.38 254.4 5.6C 254.4 5.82 254.085 5.999 253.7 5.997C 252.925 5.993 246.278 9.214 246.067 9.696C 245.993 9.863 245.601 10 245.195 10C 244.789 10 244.219 10.228 243.929 10.506C 243.638 10.784 242.545 11.459 241.5 12.005C 240.455 12.552 239.6 13.134 239.6 13.299C 239.6 13.465 239.28 13.6 238.888 13.6C 238.497 13.6 237.917 13.96 237.6 14.4C 237.283 14.84 236.838 15.2 236.612 15.201C 236.385 15.201 235.57 15.741 234.8 16.4C 234.03 17.059 233.241 17.599 233.047 17.599C 232.853 17.6 232.403 17.915 232.047 18.3C 231.691 18.685 230.589 19.623 229.6 20.385C 228.61 21.147 227.734 21.93 227.654 22.124C 227.499 22.497 223.249 26.7 221.307 28.4C 220.679 28.95 219.73 30.03 219.198 30.8C 218.666 31.57 217.729 32.677 217.115 33.26C 216.502 33.844 216 34.474 216 34.66C 215.999 34.847 215.549 35.523 215 36.162C 214.45 36.801 214 37.448 214 37.6C 214 37.752 213.55 38.399 213 39.038C 212.451 39.677 212.001 40.425 212 40.7C 212 40.975 211.838 41.2 211.64 41.2C 211.441 41.2 210.946 42.009 210.54 42.999C 210.133 43.988 209.665 44.798 209.5 44.799C 209.335 44.799 209.2 45.07 209.2 45.4C 209.2 45.73 209.02 46 208.8 46C 208.58 46 208.4 46.27 208.4 46.6C 208.4 46.93 208.22 47.2 208 47.2C 207.78 47.2 207.6 47.56 207.6 48C 207.6 48.44 207.42 48.8 207.2 48.8C 206.98 48.8 206.8 49.072 206.8 49.405C 206.8 49.993 206.633 50.418 205.662 52.295C 205.408 52.787 205.2 53.462 205.2 53.795C 205.2 54.128 205.02 54.4 204.8 54.4C 204.58 54.4 204.4 54.76 204.4 55.2C 204.4 55.64 204.22 56 204 56C 203.78 56 203.6 56.54 203.6 57.2C 203.6 57.86 203.42 58.4 203.2 58.4C 202.98 58.4 202.8 58.839 202.8 59.376C 202.8 59.913 202.62 60.464 202.4 60.6C 202.18 60.736 202 61.287 202 61.824C 202 62.361 201.82 62.8 201.6 62.8C 201.38 62.8 201.2 63.52 201.2 64.4C 201.2 65.28 201.02 66 200.8 66C 200.58 66 200.4 66.799 200.4 67.776C 200.4 68.753 200.22 69.664 200 69.8C 199.78 69.936 199.6 71.117 199.6 72.424C 199.6 73.741 199.422 74.8 199.2 74.8C 198.945 74.8 198.801 77.965 198.803 83.5L198.803 83.5L198.806 92.2L199.883 92.7C 201.202 93.313 210.4 93.4 210.4 92.8C 210.4 92.571 211.6 92.4 213.2 92.4C 214.74 92.4 216 92.246 216 92.058C 216 91.869 217.374 91.612 219.053 91.485C 220.732 91.358 222.298 91.062 222.533 90.827C 222.768 90.592 223.464 90.4 224.08 90.4C 224.696 90.4 225.2 90.22 225.2 90C 225.2 89.78 225.74 89.6 226.4 89.6C 227.06 89.6 227.6 89.42 227.6 89.2C 227.6 88.98 227.836 88.8 228.125 88.8C 228.616 88.8 231.329 87.654 232.895 86.785C 233.277 86.573 233.862 86.4 234.195 86.4C 234.528 86.4 234.8 86.22 234.8 86C 234.8 85.78 235.036 85.6 235.325 85.6C 235.613 85.6 236.236 85.24 236.708 84.8C 237.18 84.36 237.72 84 237.908 84C 238.096 84 238.598 83.685 239.025 83.3C 239.451 82.915 240.316 82.333 240.948 82.007C 241.579 81.681 242.794 80.736 243.648 79.907C 244.502 79.078 245.35 78.4 245.532 78.4C 246.545 78.4 258.8 66.189 258.8 65.179C 258.8 64.936 259.52 64.046 260.4 63.2C 261.28 62.354 262 61.451 262 61.192C 262 60.933 262.54 60.217 263.2 59.6C 263.86 58.983 264.4 58.281 264.4 58.04C 264.4 57.798 264.55 57.6 264.732 57.6C 264.915 57.6 265.32 57.105 265.632 56.5C 265.945 55.895 266.515 55.051 266.9 54.625C 267.285 54.198 267.6 53.696 267.6 53.508C 267.6 53.32 267.96 52.78 268.4 52.308C 268.84 51.836 269.2 51.213 269.2 50.925C 269.2 50.636 269.38 50.4 269.6 50.4C 269.82 50.4 270 50.04 270 49.6C 270 49.16 270.18 48.8 270.4 48.8C 270.62 48.8 270.8 48.44 270.8 48C 270.8 47.56 270.935 47.199 271.1 47.197C 271.459 47.193 272.4 45.256 272.4 44.52C 272.4 44.234 272.58 44 272.8 44C 273.02 44 273.2 43.64 273.2 43.2C 273.2 42.76 273.38 42.4 273.6 42.4C 273.82 42.4 274 42.151 274 41.846C 274 41.541 274.269 40.776 274.598 40.146C 274.926 39.516 275.196 38.595 275.198 38.1C 275.199 37.605 275.38 37.2 275.6 37.2C 275.82 37.2 276 36.66 276 36C 276 35.34 276.18 34.8 276.4 34.8C 276.62 34.8 276.8 34.271 276.8 33.624C 276.8 32.977 276.98 32.336 277.2 32.2C 277.42 32.064 277.6 31.434 277.6 30.8C 277.6 30.166 277.78 29.536 278 29.4C 278.22 29.264 278.4 28.443 278.4 27.576C 278.4 26.709 278.58 26 278.8 26C 279.02 26 279.2 25.1 279.2 24C 279.2 22.9 279.38 22 279.6 22C 279.835 22 280 20.6 280 18.6C 280 16.6 280.165 15.2 280.4 15.2C 280.653 15.2 280.8 12.4 280.8 7.6L280.8 7.6L280.8 0L276.7 0.074C 274.445 0.115 271.655 0.214 270.5 0.295M266.8 95.99C 266.47 96.209 264.805 96.391 263.1 96.394C 261.304 96.397 260 96.568 260 96.8C 260 97.02 259.111 97.2 258.024 97.2C 256.937 97.2 255.936 97.38 255.8 97.6C 255.664 97.82 254.753 98 253.776 98C 252.799 98 252 98.18 252 98.4C 252 98.62 251.381 98.8 250.624 98.8C 249.867 98.8 249.136 98.98 249 99.2C 248.864 99.42 248.133 99.6 247.376 99.6C 246.619 99.6 246 99.78 246 100C 246 100.22 245.46 100.4 244.8 100.4C 244.14 100.4 243.6 100.58 243.6 100.8C 243.6 101.02 243.06 101.2 242.4 101.2C 241.74 101.2 241.2 101.38 241.2 101.6C 241.2 101.82 240.66 102 240 102C 239.34 102 238.8 102.18 238.8 102.4C 238.8 102.62 238.26 102.8 237.6 102.8C 236.94 102.8 236.4 102.98 236.4 103.2C 236.4 103.42 235.86 103.6 235.2 103.6C 234.54 103.6 234 103.78 234 104C 234 104.22 233.46 104.4 232.8 104.4C 232.14 104.4 231.6 104.58 231.6 104.8C 231.6 105.02 231.238 105.2 230.795 105.2C 230.352 105.2 229.632 105.38 229.195 105.6C 228.758 105.82 228.042 106.18 227.605 106.4C 227.168 106.62 226.538 106.8 226.205 106.8C 225.872 106.8 225.6 106.98 225.6 107.2C 225.6 107.42 225.06 107.6 224.4 107.6C 223.74 107.6 223.2 107.78 223.2 108C 223.2 108.22 222.66 108.4 222 108.4C 221.34 108.4 220.8 108.58 220.8 108.8C 220.8 109.02 220.44 109.2 220 109.2C 219.56 109.2 219.2 109.38 219.2 109.6C 219.2 109.82 218.705 110.001 218.1 110.002C 217.495 110.004 216.484 110.274 215.854 110.602C 215.224 110.931 214.399 111.2 214.021 111.2C 213.643 111.2 213.21 111.323 213.059 111.474C 212.661 111.873 209.918 112.787 209.1 112.794C 208.715 112.797 208.4 112.98 208.4 113.2C 208.4 113.42 207.408 113.6 206.195 113.6C 204.982 113.6 203.645 113.815 203.224 114.078C 202.631 114.448 202.223 114.448 201.411 114.078C 200.834 113.815 199.291 113.6 197.981 113.6C 196.66 113.6 195.6 113.422 195.6 113.2C 195.6 112.98 195.208 112.8 194.728 112.8C 193.808 112.8 191.472 112.14 190.305 111.551C 189.923 111.358 189.359 111.2 189.051 111.2C 188.743 111.2 187.976 110.931 187.346 110.602C 186.716 110.274 185.896 110.004 185.524 110.002C 185.152 110.001 184.736 109.82 184.6 109.6C 184.464 109.38 183.913 109.2 183.376 109.2C 182.839 109.2 182.4 109.02 182.4 108.8C 182.4 108.58 182.04 108.4 181.6 108.4C 181.16 108.4 180.8 108.22 180.8 108C 180.8 107.78 180.26 107.6 179.6 107.6C 178.94 107.6 178.4 107.42 178.4 107.2C 178.4 106.98 178.04 106.8 177.6 106.8C 177.16 106.8 176.8 106.62 176.8 106.4C 176.8 106.18 176.361 106 175.824 106C 175.287 106 174.736 105.82 174.6 105.6C 174.464 105.38 173.913 105.2 173.376 105.2C 172.839 105.2 172.4 105.02 172.4 104.8C 172.4 104.58 171.86 104.4 171.2 104.4C 170.54 104.4 170 104.22 170 104C 170 103.78 169.638 103.6 169.195 103.6C 168.752 103.6 168.032 103.42 167.595 103.2C 167.158 102.98 166.442 102.62 166.005 102.4C 165.568 102.18 164.859 102 164.429 102C 163.999 102 163.536 101.82 163.4 101.6C 163.264 101.38 162.724 101.2 162.2 101.2C 161.676 101.2 161.136 101.02 161 100.8C 160.864 100.58 160.133 100.4 159.376 100.4C 158.619 100.4 158 100.22 158 100C 158 99.78 157.381 99.6 156.624 99.6C 155.867 99.6 155.136 99.42 155 99.2C 154.864 98.98 154.054 98.8 153.2 98.8C 152.346 98.8 151.536 98.62 151.4 98.4C 151.264 98.18 150.364 98 149.4 98C 148.436 98 147.536 97.82 147.4 97.6C 147.264 97.38 145.543 97.2 143.576 97.2C 141.459 97.2 140 97.037 140 96.8C 140 96.263 129.332 96.263 129 96.8C 128.864 97.02 127.424 97.2 125.8 97.2C 124.176 97.2 122.736 97.38 122.6 97.6C 122.464 97.82 121.463 98 120.376 98C 119.289 98 118.4 98.18 118.4 98.4C 118.4 98.62 117.601 98.8 116.624 98.8C 115.647 98.8 114.736 98.98 114.6 99.2C 114.464 99.42 113.924 99.6 113.4 99.6C 112.876 99.6 112.336 99.78 112.2 100C 112.064 100.22 111.524 100.4 111 100.4C 110.476 100.4 109.936 100.58 109.8 100.8C 109.664 101.02 109.034 101.2 108.4 101.2C 107.766 101.2 107.136 101.38 107 101.6C 106.864 101.82 106.403 102 105.976 102C 105.549 102 105.2 102.18 105.2 102.4C 105.2 102.62 104.66 102.8 104 102.8C 103.34 102.8 102.8 102.98 102.8 103.2C 102.8 103.42 102.44 103.6 102 103.6C 101.56 103.6 101.2 103.78 101.2 104C 101.2 104.22 100.75 104.4 100.2 104.4C 99.65 104.4 99.2 104.58 99.2 104.8C 99.2 105.02 98.84 105.2 98.4 105.2C 97.96 105.2 97.6 105.38 97.6 105.6C 97.6 105.82 97.24 106 96.8 106C 96.36 106 96 106.18 96 106.4C 96 106.62 95.64 106.8 95.2 106.8C 94.76 106.8 94.4 106.98 94.4 107.2C 94.4 107.42 94.08 107.6 93.688 107.6C 93.297 107.6 92.717 107.96 92.4 108.4C 92.083 108.84 91.503 109.2 91.112 109.2C 90.72 109.2 90.4 109.38 90.4 109.6C 90.4 109.82 90.121 110 89.78 110C 89.03 110 86.847 111.095 86.091 111.852C 85.79 112.153 85.404 112.4 85.234 112.4C 85.064 112.4 84.401 112.85 83.762 113.4C 83.123 113.949 82.415 114.399 82.188 114.4C 81.962 114.4 81.517 114.76 81.2 115.2C 80.883 115.64 80.393 116 80.112 116C 79.83 116 79.6 116.15 79.6 116.332C 79.6 116.515 79.153 116.904 78.607 117.196C 78.06 117.489 77.508 118.059 77.38 118.464C 77.251 118.869 76.899 119.2 76.598 119.2C 75.754 119.2 64.108 131.021 62 134.016C 61.465 134.777 60.84 135.619 60.613 135.886C 60.386 136.153 59.975 136.641 59.7 136.969C 59.425 137.298 59.2 137.804 59.2 138.095C 59.2 138.386 58.84 138.883 58.4 139.2C 57.96 139.517 57.6 140.057 57.6 140.4C 57.6 140.743 57.24 141.283 56.8 141.6C 56.36 141.917 56 142.414 56 142.705C 56 142.996 55.64 143.62 55.2 144.092C 54.76 144.564 54.176 145.456 53.903 146.075C 53.629 146.694 53.269 147.2 53.102 147.2C 52.936 147.2 52.8 147.56 52.8 148C 52.8 148.44 52.62 148.8 52.4 148.8C 52.18 148.8 52 149.055 52 149.367C 52 149.678 51.863 149.993 51.696 150.067C 51.214 150.278 47.993 156.925 47.997 157.7C 47.999 158.085 47.82 158.4 47.6 158.4C 47.38 158.4 47.2 158.76 47.2 159.2C 47.2 159.64 47.02 160 46.8 160C 46.58 160 46.4 160.272 46.4 160.605C 46.4 160.938 46.241 161.523 46.047 161.905C 45.852 162.287 45.471 163.14 45.2 163.8C 44.929 164.46 44.544 165.319 44.344 165.709C 44.145 166.099 43.872 167.224 43.737 168.209C 43.602 169.194 43.336 170 43.146 170C 42.956 170 42.8 170.54 42.8 171.2C 42.8 171.86 42.62 172.4 42.4 172.4C 42.18 172.4 42 172.929 42 173.576C 42 174.223 41.82 174.864 41.6 175C 41.38 175.136 41.2 175.867 41.2 176.624C 41.2 177.381 41.02 178 40.8 178C 40.58 178 40.4 178.619 40.4 179.376C 40.4 180.133 40.22 180.864 40 181C 39.78 181.136 39.6 181.957 39.6 182.824C 39.6 183.691 39.42 184.4 39.2 184.4C 38.98 184.4 38.8 185.39 38.8 186.6C 38.8 187.81 38.62 188.8 38.4 188.8C 38.178 188.8 38 189.867 38 191.2C 38 192.533 37.822 193.6 37.6 193.6C 37.367 193.6 37.2 194.933 37.2 196.8C 37.2 198.667 37.033 200 36.8 200C 36.54 200 36.4 205.525 36.4 215.776C 36.4 225.863 36.544 231.642 36.8 231.8C 37.021 231.937 37.2 233.737 37.2 235.824C 37.2 238.075 37.362 239.6 37.6 239.6C 37.831 239.6 38 240.867 38 242.6C 38 244.333 38.169 245.6 38.4 245.6C 38.622 245.6 38.8 246.659 38.8 247.976C 38.8 249.283 38.98 250.464 39.2 250.6C 39.42 250.736 39.6 251.827 39.6 253.024C 39.6 254.221 39.78 255.2 40 255.2C 40.22 255.2 40.4 256.19 40.4 257.4C 40.4 258.61 40.58 259.6 40.8 259.6C 41.02 259.6 41.2 260.32 41.2 261.2C 41.2 262.08 41.38 262.8 41.6 262.8C 41.82 262.8 42 263.7 42 264.8C 42 265.9 42.18 266.8 42.4 266.8C 42.62 266.8 42.8 267.52 42.8 268.4C 42.8 269.28 42.955 270 43.145 270C 43.335 270 43.61 271.035 43.758 272.3C 43.905 273.565 44.188 275.14 44.386 275.8C 44.584 276.46 44.956 277.81 45.212 278.8C 45.468 279.79 45.84 280.913 46.039 281.295C 46.238 281.677 46.4 282.442 46.4 282.995C 46.4 283.548 46.58 284 46.8 284C 47.02 284 47.2 284.529 47.2 285.176C 47.2 285.823 47.38 286.464 47.6 286.6C 47.82 286.736 48 287.289 48 287.829C 48 288.369 48.159 289.123 48.353 289.505C 48.548 289.887 48.929 290.74 49.2 291.4C 49.471 292.06 49.852 292.913 50.047 293.295C 50.241 293.677 50.4 294.352 50.4 294.795C 50.4 295.238 50.58 295.6 50.8 295.6C 51.02 295.6 51.2 296.14 51.2 296.8C 51.2 297.46 51.38 298 51.6 298C 51.82 298 52 298.54 52 299.2C 52 299.86 52.18 300.4 52.4 300.4C 52.62 300.4 52.8 300.76 52.8 301.2C 52.8 301.64 52.98 302 53.2 302C 53.42 302 53.6 302.439 53.6 302.976C 53.6 303.513 53.78 304.064 54 304.2C 54.22 304.336 54.4 304.797 54.4 305.224C 54.4 305.651 54.58 306 54.8 306C 55.02 306 55.2 306.45 55.2 307C 55.2 307.55 55.38 308 55.6 308C 55.82 308 56 308.36 56 308.8C 56 309.24 56.18 309.6 56.4 309.6C 56.62 309.6 56.8 309.96 56.8 310.4C 56.8 310.84 56.98 311.2 57.2 311.2C 57.42 311.2 57.6 311.56 57.6 312C 57.6 312.44 57.78 312.8 58 312.8C 58.22 312.8 58.4 313.16 58.4 313.6C 58.4 314.04 58.58 314.4 58.8 314.4C 59.02 314.4 59.2 314.85 59.2 315.4C 59.2 315.95 59.38 316.4 59.6 316.4C 59.82 316.4 60 316.753 60 317.185C 60 318.054 63.578 325.722 64.082 325.933C 64.257 326.007 64.4 326.412 64.4 326.833C 64.4 327.255 64.58 327.6 64.8 327.6C 65.02 327.6 65.2 327.836 65.2 328.125C 65.2 328.413 65.56 329.036 66 329.508C 66.44 329.98 66.8 330.644 66.8 330.983C 66.8 331.322 66.98 331.6 67.2 331.6C 67.42 331.6 67.6 331.945 67.6 332.367C 67.6 332.788 67.735 333.193 67.9 333.267C 68.276 333.434 69.575 335.564 69.871 336.5C 69.993 336.885 70.252 337.2 70.447 337.2C 70.641 337.2 70.8 337.56 70.8 338C 70.8 338.44 70.936 338.8 71.102 338.8C 71.269 338.8 71.66 339.385 71.972 340.1C 72.284 340.815 72.868 341.691 73.27 342.047C 73.671 342.403 74 342.948 74 343.259C 74 343.569 74.36 344.083 74.8 344.4C 75.24 344.717 75.6 345.257 75.6 345.6C 75.6 345.943 75.96 346.483 76.4 346.8C 76.84 347.117 77.2 347.669 77.2 348.027C 77.2 348.385 77.555 349.087 77.988 349.586C 78.422 350.086 78.884 350.834 79.015 351.248C 79.146 351.661 79.422 352 79.627 352C 79.832 352 80 352.236 80 352.525C 80 352.813 80.36 353.436 80.8 353.908C 81.24 354.38 81.6 354.926 81.6 355.121C 81.6 355.316 81.96 355.802 82.4 356.2C 82.84 356.598 83.2 357.094 83.2 357.302C 83.2 357.509 83.74 358.183 84.4 358.8C 85.06 359.417 85.6 360.081 85.6 360.276C 85.6 360.472 86.32 361.428 87.2 362.4C 88.08 363.372 88.8 364.328 88.8 364.524C 88.8 364.719 89.34 365.383 90 366C 90.66 366.617 91.2 367.337 91.2 367.6C 91.2 367.863 91.715 368.56 92.344 369.148C 92.973 369.735 93.61 370.601 93.759 371.071C 93.908 371.542 95.059 372.889 96.315 374.065C 97.572 375.242 98.929 376.714 99.332 377.336C 100.414 379.012 108.754 387.2 109.378 387.2C 109.673 387.2 110.013 387.456 110.133 387.769C 110.387 388.433 114.566 391.6 115.187 391.6C 115.418 391.6 116.172 392.14 116.863 392.8C 117.554 393.46 118.362 394 118.659 394C 118.957 394 119.2 394.18 119.2 394.4C 119.2 394.62 119.56 394.8 120 394.8C 120.44 394.8 120.8 394.98 120.8 395.2C 120.8 395.42 121.16 395.6 121.6 395.6C 122.04 395.6 122.4 395.78 122.4 396C 122.4 396.22 122.76 396.4 123.2 396.4C 123.64 396.4 124 396.58 124 396.8C 124 397.02 124.36 397.2 124.8 397.2C 125.24 397.2 125.6 397.38 125.6 397.6C 125.6 397.82 125.962 398 126.405 398C 126.848 398 127.523 398.159 127.905 398.353C 130.715 399.783 130.883 399.8 141.841 399.8C 150.043 399.8 152.885 399.676 153.26 399.3C 153.535 399.025 154.253 398.8 154.856 398.8C 155.459 398.8 156.064 398.62 156.2 398.4C 156.336 398.18 156.977 398 157.624 398C 158.271 398 158.8 397.82 158.8 397.6C 158.8 397.38 159.34 397.2 160 397.2C 160.66 397.2 161.2 397.02 161.2 396.8C 161.2 396.58 161.74 396.4 162.4 396.4C 163.06 396.4 163.6 396.22 163.6 396C 163.6 395.78 164.14 395.6 164.8 395.6C 165.46 395.6 166 395.42 166 395.2C 166 394.98 166.349 394.8 166.776 394.8C 167.203 394.8 167.664 394.62 167.8 394.4C 167.936 394.18 168.487 394 169.024 394C 169.561 394 170 393.82 170 393.6C 170 393.38 170.54 393.2 171.2 393.2C 171.86 393.2 172.4 393.02 172.4 392.8C 172.4 392.58 172.85 392.4 173.4 392.4C 173.95 392.4 174.4 392.236 174.4 392.035C 174.4 391.834 175.165 391.544 176.1 391.39C 177.035 391.236 177.98 390.983 178.2 390.829C 178.42 390.675 179.95 390.137 181.6 389.633C 183.25 389.13 184.913 388.556 185.295 388.359C 185.677 388.162 186.341 388 186.771 388C 187.201 388 187.664 387.82 187.8 387.6C 187.936 387.38 188.667 387.2 189.424 387.2C 190.181 387.2 190.8 387.02 190.8 386.8C 190.8 386.58 191.599 386.4 192.576 386.4C 193.553 386.4 194.464 386.22 194.6 386C 194.736 385.78 195.726 385.6 196.8 385.6C 197.874 385.6 198.864 385.42 199 385.2C 199.336 384.656 216 384.656 216 385.2C 216 385.42 216.889 385.6 217.976 385.6C 219.063 385.6 220.064 385.78 220.2 386C 220.336 386.22 221.247 386.4 222.224 386.4C 223.201 386.4 224 386.58 224 386.8C 224 387.02 224.72 387.2 225.6 387.2C 226.48 387.2 227.2 387.38 227.2 387.6C 227.2 387.82 227.639 388 228.176 388C 228.713 388 229.264 388.18 229.4 388.4C 229.536 388.62 230.076 388.8 230.6 388.8C 231.124 388.8 231.664 388.98 231.8 389.2C 231.936 389.42 232.363 389.6 232.748 389.6C 233.134 389.6 234.201 389.963 235.12 390.407C 236.039 390.851 237.602 391.325 238.595 391.461C 239.588 391.597 240.4 391.864 240.4 392.054C 240.4 392.244 240.76 392.4 241.2 392.4C 241.64 392.4 242 392.58 242 392.8C 242 393.02 242.439 393.2 242.976 393.2C 243.513 393.2 244.064 393.38 244.2 393.6C 244.336 393.82 244.887 394 245.424 394C 245.961 394 246.4 394.18 246.4 394.4C 246.4 394.62 246.749 394.8 247.176 394.8C 247.603 394.8 248.064 394.98 248.2 395.2C 248.336 395.42 248.876 395.6 249.4 395.6C 249.924 395.6 250.464 395.78 250.6 396C 250.736 396.22 251.276 396.4 251.8 396.4C 252.324 396.4 252.864 396.58 253 396.8C 253.136 397.02 253.766 397.2 254.4 397.2C 255.034 397.2 255.664 397.38 255.8 397.6C 255.936 397.82 256.757 398 257.624 398C 258.491 398 259.2 398.18 259.2 398.4C 259.2 398.62 259.905 398.8 260.767 398.8C 261.637 398.8 262.405 399.015 262.495 399.284C 262.731 399.993 283.751 400.008 284.46 399.3C 284.735 399.025 285.464 398.8 286.08 398.8C 286.696 398.8 287.2 398.62 287.2 398.4C 287.2 398.18 287.74 398 288.4 398C 289.06 398 289.6 397.82 289.6 397.6C 289.6 397.38 290.05 397.2 290.6 397.2C 291.15 397.2 291.6 397.02 291.6 396.8C 291.6 396.58 291.96 396.4 292.4 396.4C 292.84 396.4 293.2 396.22 293.2 396C 293.2 395.78 293.56 395.6 294 395.6C 294.44 395.6 294.8 395.42 294.8 395.2C 294.8 394.98 295.16 394.8 295.6 394.8C 296.04 394.8 296.4 394.62 296.4 394.4C 296.4 394.18 296.76 394 297.2 394C 297.64 394 298 393.82 298 393.6C 298 393.38 298.32 393.2 298.712 393.2C 299.103 393.2 299.683 392.84 300 392.4C 300.317 391.96 300.854 391.6 301.192 391.6C 301.531 391.6 302.262 391.195 302.817 390.7C 303.373 390.205 304.631 389.181 305.613 388.423C 306.596 387.666 307.67 386.703 308 386.282C 308.33 385.862 310.67 383.401 313.2 380.813C 315.73 378.225 318.072 375.769 318.406 375.354C 318.739 374.939 319.639 373.79 320.406 372.8C 321.172 371.81 321.899 370.91 322.019 370.8C 322.14 370.69 322.671 369.97 323.2 369.2C 323.729 368.43 324.274 367.71 324.411 367.6C 324.548 367.49 325.007 366.78 325.43 366.022C 325.854 365.263 326.695 364.112 327.3 363.462C 327.905 362.813 328.4 362.078 328.4 361.829C 328.4 361.58 328.76 361.117 329.2 360.8C 329.64 360.483 330 359.946 330 359.608C 330 359.269 330.36 358.768 330.8 358.493C 331.24 358.218 331.6 357.791 331.6 357.544C 331.6 357.296 331.916 356.803 332.303 356.447C 332.689 356.091 333.26 355.305 333.57 354.7C 333.881 354.095 334.285 353.6 334.468 353.6C 334.65 353.6 334.8 353.375 334.8 353.1C 334.801 352.825 335.246 352.083 335.789 351.451C 336.333 350.819 336.884 349.964 337.016 349.551C 337.147 349.138 337.4 348.8 337.578 348.8C 337.757 348.8 338.127 348.26 338.4 347.6C 338.673 346.94 339.033 346.4 339.2 346.4C 339.367 346.4 339.727 345.86 340 345.2C 340.273 344.54 340.655 344 340.849 344C 341.042 344 341.2 343.653 341.2 343.229C 341.2 342.804 341.436 342.219 341.725 341.929C 342.013 341.638 342.507 340.815 342.822 340.1C 343.137 339.385 343.531 338.8 343.698 338.8C 343.864 338.8 344 338.522 344 338.183C 344 337.844 344.36 337.18 344.8 336.708C 345.24 336.236 345.6 335.613 345.6 335.325C 345.6 335.036 345.78 334.8 346 334.8C 346.22 334.8 346.4 334.44 346.4 334C 346.4 333.56 346.58 333.2 346.8 333.2C 347.02 333.2 347.2 332.964 347.2 332.675C 347.2 332.387 347.56 331.764 348 331.292C 348.44 330.82 348.8 330.156 348.8 329.817C 348.8 329.478 348.98 329.2 349.2 329.2C 349.42 329.2 349.6 328.84 349.6 328.4C 349.6 327.96 349.78 327.6 350 327.6C 350.22 327.6 350.4 327.24 350.4 326.8C 350.4 326.36 350.58 326 350.8 326C 351.02 326 351.2 325.64 351.2 325.2C 351.2 324.76 351.38 324.4 351.6 324.4C 351.82 324.4 352 324.04 352 323.6C 352 323.16 352.18 322.8 352.4 322.8C 352.62 322.8 352.8 322.451 352.8 322.024C 352.8 321.597 352.98 321.136 353.2 321C 353.42 320.864 353.6 320.403 353.6 319.976C 353.6 319.549 353.78 319.2 354 319.2C 354.22 319.2 354.4 318.84 354.4 318.4C 354.4 317.96 354.58 317.6 354.8 317.6C 355.02 317.6 355.2 317.24 355.2 316.8C 355.2 316.36 355.38 316 355.6 316C 355.82 316 356 315.64 356 315.2C 356 314.76 356.18 314.4 356.4 314.4C 356.62 314.4 356.8 314.164 356.8 313.875C 356.8 313.586 357.144 312.638 357.564 311.768C 357.985 310.898 358.455 309.514 358.609 308.693C 358.763 307.872 359.049 307.2 359.245 307.2C 359.44 307.2 359.6 306.75 359.6 306.2C 359.6 305.65 359.78 305.2 360 305.2C 360.22 305.2 360.4 304.851 360.4 304.424C 360.4 303.997 360.58 303.536 360.8 303.4C 361.02 303.264 361.2 302.713 361.2 302.176C 361.2 301.639 361.38 301.2 361.6 301.2C 361.82 301.2 362 300.66 362 300C 362 299.34 362.18 298.8 362.4 298.8C 362.62 298.8 362.8 298.26 362.8 297.6C 362.8 296.94 362.98 296.4 363.2 296.4C 363.42 296.4 363.6 295.59 363.6 294.6C 363.6 293.382 363.43 292.8 363.075 292.8C 362.787 292.8 362.164 292.44 361.692 292C 361.22 291.56 360.556 291.2 360.217 291.2C 359.878 291.2 359.599 291.065 359.599 290.9C 359.598 290.735 358.608 290.15 357.4 289.6C 356.192 289.05 355.202 288.465 355.201 288.3C 355.201 288.135 354.84 288 354.4 288C 353.96 288 353.6 287.85 353.6 287.668C 353.6 287.485 353.105 287.08 352.5 286.768C 351.895 286.455 351.051 285.885 350.625 285.5C 350.198 285.115 349.653 284.8 349.413 284.8C 349.173 284.8 348.717 284.44 348.4 284C 348.083 283.56 347.543 283.2 347.2 283.2C 346.857 283.2 346.317 282.84 346 282.4C 345.683 281.96 345.175 281.6 344.872 281.6C 344.569 281.6 343.844 281.104 343.26 280.499C 342.677 279.893 341.48 278.869 340.6 278.223C 338.549 276.718 328.4 266.561 328.4 266.014C 328.4 265.786 328.22 265.6 328 265.6C 327.78 265.6 327.6 265.37 327.6 265.088C 327.6 264.807 327.24 264.317 326.8 264C 326.36 263.683 326 263.193 326 262.912C 326 262.63 325.841 262.4 325.647 262.4C 325.452 262.4 325.188 262.085 325.058 261.7C 324.793 260.911 324.034 259.691 323.326 258.915C 323.066 258.629 322.738 258.036 322.599 257.598C 322.46 257.159 322.178 256.8 321.973 256.8C 321.768 256.8 321.6 256.44 321.6 256C 321.6 255.56 321.42 255.2 321.2 255.2C 320.98 255.2 320.8 254.84 320.8 254.4C 320.8 253.96 320.62 253.6 320.4 253.6C 320.18 253.6 320 253.24 320 252.8C 320 252.36 319.865 251.999 319.7 251.997C 319.341 251.993 318.4 250.056 318.4 249.32C 318.4 249.034 318.22 248.8 318 248.8C 317.78 248.8 317.6 248.44 317.6 248C 317.6 247.56 317.42 247.2 317.2 247.2C 316.98 247.2 316.8 246.75 316.8 246.2C 316.8 245.65 316.62 245.2 316.4 245.2C 316.18 245.2 316 244.66 316 244C 316 243.34 315.82 242.8 315.6 242.8C 315.38 242.8 315.2 242.361 315.2 241.824C 315.2 241.287 315.02 240.736 314.8 240.6C 314.58 240.464 314.4 239.823 314.4 239.176C 314.4 238.529 314.22 238 314 238C 313.78 238 313.6 237.381 313.6 236.624C 313.6 235.867 313.42 235.136 313.2 235C 312.98 234.864 312.8 234.144 312.8 233.4C 312.8 232.656 312.62 231.936 312.4 231.8C 312.18 231.664 312 230.764 312 229.8C 312 228.836 311.82 227.936 311.6 227.8C 311.38 227.664 311.2 226.213 311.2 224.576C 311.2 222.859 311.031 221.6 310.8 221.6C 310.543 221.6 310.4 217.667 310.4 210.6C 310.4 203.533 310.543 199.6 310.8 199.6C 311.022 199.6 311.2 198.541 311.2 197.224C 311.2 195.917 311.38 194.736 311.6 194.6C 311.82 194.464 312 193.564 312 192.6C 312 191.636 312.18 190.736 312.4 190.6C 312.62 190.464 312.8 189.733 312.8 188.976C 312.8 188.219 312.98 187.6 313.2 187.6C 313.42 187.6 313.6 186.97 313.6 186.2C 313.6 185.43 313.78 184.8 314 184.8C 314.22 184.8 314.4 184.26 314.4 183.6C 314.4 182.94 314.58 182.4 314.8 182.4C 315.02 182.4 315.2 181.86 315.2 181.2C 315.2 180.54 315.38 180 315.6 180C 315.82 180 316 179.64 316 179.2C 316 178.76 316.18 178.4 316.4 178.4C 316.62 178.4 316.8 178.128 316.8 177.795C 316.8 177.462 316.96 176.877 317.156 176.495C 317.352 176.113 317.935 174.9 318.451 173.8C 318.967 172.7 319.482 171.71 319.595 171.6C 319.708 171.49 320.025 170.995 320.3 170.5C 320.575 170.005 321.025 169.195 321.3 168.7C 321.575 168.205 321.89 167.71 322 167.6C 322.183 167.417 322.492 166.894 323.762 164.615C 324.191 163.847 324.49 163.436 325.5 162.231C 325.775 161.902 326 161.45 326 161.224C 326 160.999 327.125 159.653 328.5 158.232C 329.875 156.812 332.44 154.119 334.2 152.249C 335.96 150.378 337.548 148.836 337.729 148.823C 337.909 148.811 338.289 148.575 338.573 148.3C 338.856 148.025 339.609 147.332 340.244 146.759C 340.88 146.187 341.665 145.332 341.988 144.859C 342.312 144.387 342.78 144 343.029 144C 343.278 144 344.046 143.46 344.737 142.8C 345.428 142.14 346.237 141.6 346.535 141.6C 346.833 141.6 347.493 141.24 348 140.8C 348.507 140.36 349.062 140 349.233 140C 349.403 140 349.781 139.775 350.071 139.5C 350.362 139.225 351.275 138.496 352.1 137.88C 353.835 136.584 353.873 136.444 352.8 135.292C 352.36 134.82 352 134.244 352 134.013C 352 133.782 351.46 133.028 350.8 132.337C 350.14 131.646 349.6 130.878 349.6 130.629C 349.6 130.38 349.24 129.917 348.8 129.6C 348.36 129.283 348 128.881 348 128.706C 348 128.531 346.515 126.873 344.7 125.02C 342.885 123.167 340.95 121.136 340.4 120.507C 339.85 119.878 338.593 118.742 337.606 117.982C 336.619 117.222 335.332 116.105 334.745 115.5C 334.159 114.895 333.431 114.4 333.128 114.4C 332.825 114.4 332.317 114.04 332 113.6C 331.683 113.16 331.169 112.8 330.859 112.8C 330.548 112.8 330.003 112.485 329.647 112.1C 328.804 111.187 326.65 110 325.838 110C 325.487 110 325.2 109.82 325.2 109.6C 325.2 109.38 324.93 109.2 324.6 109.2C 324.27 109.2 324 109.02 324 108.8C 324 108.58 323.64 108.4 323.2 108.4C 322.76 108.4 322.4 108.22 322.4 108C 322.4 107.78 322.145 107.6 321.833 107.6C 321.522 107.6 321.207 107.465 321.133 107.3C 320.912 106.801 317.578 105.2 316.762 105.2C 316.343 105.2 316 105.02 316 104.8C 316 104.58 315.64 104.4 315.2 104.4C 314.76 104.4 314.4 104.22 314.4 104C 314.4 103.78 313.86 103.6 313.2 103.6C 312.54 103.6 312 103.42 312 103.2C 312 102.98 311.64 102.8 311.2 102.8C 310.76 102.8 310.4 102.62 310.4 102.4C 310.4 102.18 309.961 102 309.424 102C 308.887 102 308.336 101.82 308.2 101.6C 308.064 101.38 307.434 101.2 306.8 101.2C 306.166 101.2 305.536 101.02 305.4 100.8C 305.264 100.58 304.623 100.4 303.976 100.4C 303.329 100.4 302.8 100.22 302.8 100C 302.8 99.78 302.271 99.6 301.624 99.6C 300.977 99.6 300.336 99.42 300.2 99.2C 300.064 98.98 299.254 98.8 298.4 98.8C 297.546 98.8 296.736 98.62 296.6 98.4C 296.464 98.18 295.463 98 294.376 98C 293.289 98 292.4 97.82 292.4 97.6C 292.4 97.38 291.626 97.2 290.68 97.2C 289.734 97.2 288.789 97.033 288.58 96.828C 287.811 96.076 267.831 95.307 266.8 95.99" stroke="none" fill="#040404" fill-rule="nonzero" />
        <path d="" stroke="none" fill="#080404" fill-rule="nonzero" />
        <path d="" stroke="none" fill="#080404" fill-rule="nonzero" />
        <path d="" stroke="none" fill="#080404" fill-rule="nonzero" />
        <path d="" stroke="none" fill="#080404" fill-rule="nonzero" />
        <path d="" stroke="none" fill="#080404" fill-rule="nonzero" />
        <path d="" stroke="none" fill="#080404" fill-rule="nonzero" />
        <path d="" stroke="none" fill="#080404" fill-rule="nonzero" />
	</g>
</g>
</svg>