<?xml version="1.0" standalone="no"?>
<!DOCTYPE svg PUBLIC "-//W3C//DTD SVG 1.0//EN" "http://www.w3.org/TR/2001/REC-SVG-20010904/DTD/svg10.dtd">
<svg xmlns="http://www.w3.org/2000/svg" xmlns:xlink="http://www.w3.org/1999/xlink" id="body_1" width="614" height="461">

<defs>
    <linearGradient transform="matrix(1 0 -0 -1 0 652)"  id="1" x1="93.5763" y1="367.0557" x2="118.5461" y2="392.0254">
        <stop stop-color="#FF445F" offset="0%"/>
        <stop stop-color="#FF445F" offset="100%"/>
    </linearGradient>
    <linearGradient transform="matrix(1 0 -0 -1 0 652)"  id="243" x1="26.6356" y1="300.1679" x2="53.2638" y2="326.6739">
        <stop stop-color="#1904DA" offset="0%"/>
        <stop stop-color="#1904DA" offset="100%"/>
    </linearGradient>
</defs>

<g transform="matrix(0.7147287 0 0 0.7147287 249.8217 7.147287)">
    <path d="M504.5 311.6C 504.5 339.4 482 361.9 454.1 361.9C 426.30002 361.9 403.7 339.3 403.7 311.5L403.7 311.5L403.7 261.1L421.6 261.1L421.6 311.4C 421.6 311.4 421.6 311.4 421.6 311.4C 421.6 329.3 436.1 343.9 454 343.9C 471.9 343.9 486.4 329.3 486.4 311.4C 486.4 311.4 486.4 311.4 486.4 311.4L486.4 311.4L486.4 261.1L504.4 261.1L504.4 311.6L504.5 311.6zM370.2 429.3L388.6 429.3L388.6 314.9C 388.7 313.9 388.6 312.9 388.6 311.9C 388.6 283.9 366 261.3 338 261.3C 310 261.3 287.4 284 287.4 311.9C 287.4 339.9 310.1 362.5 338 362.5C 338 362.5 338 362.5 338 362.5L338 362.5L340.6 362.5L359.2 344L338 344C 320.3 344 305.9 329.6 305.9 311.9C 305.9 294.19998 320.3 279.8 338 279.8C 355.7 279.8 370.2 294.19998 370.2 311.9L370.2 311.9L370.2 429.3zM272.1 363L221.1 363C 220 363 218.90001 363 217.70001 362.9C 190.90001 361.1 170.20001 338.9 170.1 312C 171.3 254.6 249 241.7 269 294.7C 271 300.30002 272 306.1 272 312C 272.1 312 272.1 363 272.1 363zM221.1 344.4L253.20001 344.4C 253.20001 344.4 253.20001 321 253.20001 312C 253.30002 283.2 218.20001 269 198.30002 289.2C 192.20001 295.2 188.80002 303.40002 188.80002 312C 188.9 329.8 203.3 344.4 221.1 344.4zM621.5 363L570.5 363C 569.4 363 568.3 363 567.1 362.9C 540.3 361.1 519.6 338.9 519.5 312C 520.7 254.6 598.4 241.7 618.4 294.7C 620.4 300.30002 621.4 306.1 621.4 312C 621.5 312 621.5 363 621.5 363zM570.5 344.4L602.6 344.4C 602.6 344.4 602.6 321 602.6 312C 602.69995 283.2 567.6 269 547.69995 289.2C 541.6 295.2 538.19995 303.40002 538.19995 312C 538.2 329.8 552.7 344.4 570.5 344.4z" stroke="none" fill="#07242D" fill-rule="nonzero" />
    <path d="M47.5 344.1L47.5 284.1C 47.5 280.4 43.5 280.4 43.5 280.4C 41.9 280.4 41.2 281.1 40.6 281.69998L40.6 281.69998L23.399998 298.9C 22.199997 300.1 21.499998 301.8 21.499998 303.5L21.499998 303.5L21.499998 344.1L47.5 344.1z" stroke="none" fill="#08B1D5" fill-rule="nonzero" />
    <path d="M111.8 253.7L71.200005 253.7C 69.50001 253.7 67.8 254.4 66.600006 255.59999L66.600006 255.59999L49.400005 272.8C 48.700005 273.5 48.100006 274.09998 48.100006 275.69998C 48.100006 275.69998 48.100006 279.69998 51.800007 279.69998L51.800007 279.69998L111.8 279.69998L111.8 253.7z" stroke="none" fill="#FFC900" fill-rule="nonzero" />
    <path d="M85.7 279.8L111.8 279.8L111.8 253.7L85.7 279.8" stroke="none" fill="url(#1)" />
    <path d="M21.5 344.1L47.5 318.1L47.5 344.1L21.5 344.1" stroke="none" fill="url(#243)" />
    <path d="M21.5 344.1L47.5 318.1L47.5 344.1L21.5 344.1" stroke="none" fill="none" />
    <path d="M111.8 253.7L85.7 279.8L111.8 279.8L111.8 253.7" stroke="none" fill="none" />
    <path d="M137.1 255.9C 136.3 254.59999 134.8 253.7 133.20001 253.7L133.20001 253.7L111.70001 253.7C 111.70001 270.6 111.70001 322.1 111.70001 339.7C 111.70001 343.40002 115.500015 343.40002 115.70001 343.40002C 117.30001 343.40002 118.000015 342.7 118.60001 342.10004L118.60001 342.10004L135.80002 324.90002C 137.00002 323.7 137.70001 322.00003 137.70001 320.30002L137.70001 320.30002L137.70001 258C 137.8 257.2 137.5 256.5 137.1 255.9z" stroke="none" fill="#FF445F" fill-rule="nonzero" />
    <path d="M23.7 369.5C 22.300001 368.7 21.5 367.2 21.5 365.6L21.5 365.6L21.5 344.1L107.5 344.1C 111.2 344.1 111.2 347.80002 111.2 348C 111.2 349.6 110.5 350.3 109.899994 350.9L109.899994 350.9L92.7 368.1C 91.5 369.30002 89.799995 370 88.1 370L88.1 370L25.699997 370.1C 25 370.1 24.3 369.9 23.7 369.5z" stroke="none" fill="#1904DA" fill-rule="nonzero" />
</g>
</svg>