<?xml version="1.0" standalone="no"?>
<!DOCTYPE svg PUBLIC "-//W3C//DTD SVG 1.0//EN" "http://www.w3.org/TR/2001/REC-SVG-20010904/DTD/svg10.dtd">
<svg xmlns="http://www.w3.org/2000/svg" xmlns:xlink="http://www.w3.org/1999/xlink" id="body_1" width="614" height="461">

<g transform="matrix(0.9003906 0 0 0.9003906 76.500015 -0)">
	<g>
        <path d="M22.4 0.4C 22.4 0.62 22.67 0.8 23 0.8C 23.33 0.8 23.6 0.62 23.6 0.4C 23.6 0.18 23.33 0 23 0C 22.67 0 22.4 0.18 22.4 0.4M26.5 0.293C 25.785 0.38 25.2 0.619 25.2 0.825C 25.2 1.031 24.84 1.2 24.4 1.2C 23.802 1.2 23.592 1.477 23.568 2.3C 23.551 2.905 23.446 3.175 23.335 2.9C 23.07 2.242 21.6 2.252 21.6 2.912C 21.6 3.193 21.96 3.683 22.4 4C 23.238 4.604 23.487 5.6 22.8 5.6C 22.58 5.6 22.4 5.33 22.4 5C 22.4 4.67 22.223 4.4 22.008 4.4C 21.792 4.4 21.502 3.95 21.364 3.4C 21.028 2.061 19.7 2.061 19.364 3.4C 19.226 3.95 18.953 4.4 18.757 4.4C 18.56 4.4 18.4 4.67 18.4 5C 18.4 5.33 18.22 5.6 18 5.6C 17.78 5.6 17.6 5.87 17.6 6.2C 17.6 6.619 18.022 6.8 19 6.8C 19.77 6.8 20.4 6.983 20.4 7.208C 20.4 7.443 19.977 7.509 19.4 7.364C 18.644 7.174 18.4 7.27 18.4 7.757C 18.4 8.11 18.228 8.4 18.018 8.4C 17.808 8.4 17.518 9.03 17.374 9.8C 17.153 10.978 16.944 11.201 16.055 11.205C 13.762 11.217 11.738 12.741 13.9 12.828C 14.497 12.852 14.482 12.905 13.8 13.19C 13.36 13.374 12.595 13.432 12.1 13.319C 11.056 13.08 10.789 14.268 11.8 14.655C 12.13 14.782 12.4 15.226 12.4 15.643C 12.4 16.741 11.73 16.572 11.436 15.4C 11.298 14.85 11.008 14.4 10.792 14.4C 10.577 14.4 10.4 14.13 10.4 13.8C 10.4 13.154 10.034 13.059 9.033 13.443C 8.229 13.751 8.203 14.8 9 14.8C 9.33 14.8 9.6 14.955 9.6 15.145C 9.6 15.334 9.174 15.408 8.653 15.308C 7.913 15.167 7.653 15.335 7.467 16.075C 7.11 17.499 7.576 18.734 8.541 18.923C 9.228 19.057 9.18 19.102 8.3 19.146C 7.613 19.18 7.2 19.425 7.2 19.8C 7.2 20.13 7.02 20.4 6.8 20.4C 6.58 20.4 6.4 20.67 6.4 21C 6.4 21.33 6.22 21.6 6 21.6C 5.28 21.6 5.581 19.79 6.4 19.2C 6.84 18.883 7.2 18.393 7.2 18.112C 7.2 17.283 5.677 17.527 5.4 18.4C 5.233 18.926 4.795 19.2 4.12 19.2C 3.155 19.2 3.107 19.294 3.309 20.8C 3.471 22.009 3.387 22.4 2.962 22.4C 2.629 22.4 2.4 22.808 2.4 23.4C 2.4 23.95 2.22 24.4 2 24.4C 1.78 24.4 1.6 24.22 1.6 24C 1.6 23.78 1.33 23.6 1 23.6C 0.67 23.6 0.4 23.87 0.4 24.2C 0.4 24.53 0.577 24.8 0.792 24.8C 1.008 24.8 1.295 25.24 1.43 25.777C 1.573 26.347 2.034 26.824 2.538 26.923C 3.251 27.062 3.215 27.1 2.329 27.146C 1.677 27.179 1.187 27.474 1.076 27.9C 0.902 28.567 0.891 28.567 0.846 27.9C 0.821 27.515 0.623 27.2 0.407 27.2C 0.151 27.2 0.011 91.971 0.004 213.6L0.004 213.6L-0.007 400L199.996 400L400 400L400 199.997L400 -0.007L213.9 0.064C 111.545 0.103 27.215 0.206 26.5 0.293M29.2 1.2C 29.2 1.701 28.776 1.701 28 1.2C 27.515 0.886 27.572 0.811 28.3 0.806C 28.795 0.803 29.2 0.98 29.2 1.2M20.8 4.8C 21.285 5.114 21.228 5.189 20.5 5.194C 20.005 5.197 19.6 5.02 19.6 4.8C 19.6 4.299 20.024 4.299 20.8 4.8M15.6 5.8C 15.6 6.133 15.956 6.4 16.4 6.4C 16.844 6.4 17.2 6.133 17.2 5.8C 17.2 5.467 16.844 5.2 16.4 5.2C 15.956 5.2 15.6 5.467 15.6 5.8M15.857 7.8C 15.527 8.13 14.884 8.4 14.429 8.4C 13.775 8.4 13.6 8.653 13.6 9.6C 13.6 10.705 13.711 10.8 15 10.8C 16.21 10.8 16.4 10.67 16.4 9.843C 16.4 9.316 16.67 8.782 17 8.655C 17.764 8.362 17.787 7.2 17.029 7.2C 16.714 7.2 16.187 7.47 15.857 7.8M11.6 11C 11.6 11.333 11.956 11.6 12.4 11.6C 12.844 11.6 13.2 11.333 13.2 11C 13.2 10.667 12.844 10.4 12.4 10.4C 11.956 10.4 11.6 10.667 11.6 11M5.2 16.2C 5.2 16.53 5.47 16.8 5.8 16.8C 6.13 16.8 6.4 16.53 6.4 16.2C 6.4 15.87 6.13 15.6 5.8 15.6C 5.47 15.6 5.2 15.87 5.2 16.2M1.2 21.8C 1.2 22.13 1.47 22.4 1.8 22.4C 2.13 22.4 2.4 22.13 2.4 21.8C 2.4 21.47 2.13 21.2 1.8 21.2C 1.47 21.2 1.2 21.47 1.2 21.8M0 26.2C 0 26.53 0.18 26.8 0.4 26.8C 0.62 26.8 0.8 26.53 0.8 26.2C 0.8 25.87 0.62 25.6 0.4 25.6C 0.18 25.6 0 25.87 0 26.2M297 67.072C 300.4 67.771 302.983 68.493 303.38 68.854C 303.589 69.044 303.981 69.2 304.252 69.2C 306.722 69.2 315.931 75.112 320.433 79.587C 324.832 83.959 330.8 93.223 330.8 95.677C 330.8 95.987 330.955 96.411 331.144 96.62C 331.449 96.957 331.903 98.72 333.224 104.706C 333.771 107.185 333.728 292.093 333.179 294.869C 332.175 299.954 331.387 302.796 330.179 305.681C 328.832 308.901 326.336 313.587 325.492 314.48C 325.221 314.766 324.513 315.653 323.917 316.451C 322.523 318.318 318.319 322.523 316.451 323.917C 315.653 324.513 314.664 325.304 314.252 325.674C 311.313 328.324 302.252 331.843 294.976 333.161C 291.856 333.726 107.258 333.787 104.706 333.224C 98.72 331.903 96.957 331.449 96.62 331.144C 96.411 330.955 96.019 330.8 95.748 330.8C 94.445 330.8 86.419 326.465 84.871 324.926C 84.581 324.637 84.162 324.4 83.941 324.4C 83.445 324.4 75.6 316.516 75.6 316.017C 75.6 315.819 75.363 315.419 75.074 315.129C 73.535 313.581 69.2 305.555 69.2 304.252C 69.2 303.981 69.044 303.589 68.854 303.38C 68.494 302.983 67.774 300.408 67.071 297C 66.794 295.659 66.658 263.612 66.656 199.8C 66.654 103.526 66.703 99.968 68.027 98.62C 68.232 98.411 68.4 97.837 68.4 97.344C 68.4 96.851 68.58 96.336 68.8 96.2C 69.02 96.064 69.2 95.695 69.2 95.379C 69.2 94.563 70.529 91.6 70.894 91.6C 71.062 91.6 71.2 91.301 71.2 90.935C 71.2 89.721 75.779 83.209 79.041 79.783C 83.096 75.525 92.807 69.2 95.291 69.2C 95.607 69.2 95.99 69.077 96.141 68.926C 96.671 68.396 99.423 67.601 101.6 67.348C 102.81 67.208 104.07 66.942 104.4 66.758C 105.297 66.256 294.537 66.565 297 67.072M108.756 69.778C 108.658 69.875 106.963 70.149 104.989 70.385C 103.015 70.621 101.04 70.975 100.6 71.171C 100.16 71.367 98.677 71.859 97.303 72.264C 95.93 72.669 94.805 73.135 94.803 73.3C 94.802 73.465 94.545 73.6 94.232 73.6C 93.704 73.6 91.249 74.747 90.8 75.204C 90.69 75.316 89.925 75.762 89.1 76.195C 88.275 76.628 87.6 77.082 87.6 77.205C 87.6 77.327 87.062 77.745 86.404 78.134C 84.855 79.049 79.049 84.855 78.134 86.404C 77.745 87.062 77.327 87.6 77.205 87.6C 77.082 87.6 76.628 88.275 76.195 89.1C 75.762 89.925 75.316 90.69 75.204 90.8C 74.747 91.249 73.6 93.704 73.6 94.232C 73.6 94.545 73.465 94.802 73.3 94.803C 73.135 94.805 72.669 95.93 72.264 97.303C 71.859 98.677 71.367 100.16 71.171 100.6C 69.893 103.464 69.832 107.574 69.705 199.4C 69.566 299.812 69.461 294.879 71.886 302C 76.632 315.935 88.293 326.299 103 329.653C 104.994 330.107 121.492 330.2 200.6 330.2L200.6 330.2L295.8 330.2L298.938 329.288C 314.777 324.684 325.301 313.965 329.461 298.2C 330.448 294.46 330.632 107.294 329.653 103C 326.429 88.861 315.675 76.378 303.2 72.292C 301.99 71.896 300.64 71.415 300.2 71.223C 296.523 69.62 295.294 69.6 200.085 69.6C 149.951 69.6 108.853 69.68 108.756 69.778M218 121.124C 221.223 121.546 223.612 122.092 225.4 122.814C 225.84 122.992 226.715 123.25 227.344 123.388C 228.416 123.622 230.302 124.38 233.6 125.904C 241.801 129.694 250.892 139.781 252.627 147.016C 252.783 147.667 253.043 148.38 253.205 148.6C 253.515 149.021 253.756 150.14 254.453 154.4C 254.995 157.712 254.721 167.839 254.072 168.488C 253.813 168.747 253.597 169.329 253.594 169.78C 253.561 174.517 246.393 185.563 240.6 189.804C 239.72 190.449 238.661 191.287 238.246 191.668C 237.831 192.049 236.976 192.473 236.346 192.612C 235.716 192.75 235.2 192.987 235.2 193.137C 235.2 193.479 232.198 194.8 231.421 194.8C 231.105 194.8 230.736 194.98 230.6 195.2C 230.464 195.42 229.834 195.6 229.2 195.6C 228.566 195.6 227.936 195.78 227.8 196C 227.651 196.241 228.188 196.4 229.153 196.4C 230.033 196.4 230.864 196.58 231 196.8C 231.136 197.02 231.68 197.2 232.21 197.2C 233.102 197.2 235.924 197.994 237.8 198.772C 238.24 198.955 239.41 199.436 240.4 199.841C 241.39 200.246 242.29 200.675 242.4 200.793C 242.51 200.911 243.275 201.362 244.1 201.795C 244.925 202.228 245.6 202.677 245.6 202.793C 245.6 202.91 246.101 203.226 246.712 203.497C 250.605 205.22 256.448 212.312 259.98 219.6C 260.14 219.93 260.586 221.28 260.972 222.6C 261.357 223.92 261.86 225.45 262.09 226C 262.694 227.447 262.964 240.495 262.454 243.6C 261.752 247.874 261.514 248.98 261.206 249.4C 261.045 249.62 260.795 250.43 260.651 251.2C 260.342 252.859 256.452 260.8 255.949 260.8C 255.757 260.8 255.6 260.988 255.6 261.217C 255.6 261.446 255.419 261.851 255.197 262.117C 251.961 265.993 251.474 266.502 248.4 269.225C 247.211 270.279 240.939 274.396 240.504 274.409C 240.337 274.414 239.12 274.95 237.8 275.6C 236.48 276.25 235.115 276.786 234.767 276.791C 234.418 276.796 234.01 276.923 233.859 277.074C 233.404 277.529 230.714 278.361 228.8 278.639C 227.81 278.783 226.82 279.038 226.6 279.205C 226.38 279.373 225.48 279.613 224.6 279.74C 223.72 279.866 221.74 280.147 220.2 280.364C 218.537 280.599 202.823 280.767 181.5 280.779L181.5 280.779L145.6 280.8L145.6 200.867C 145.6 156.903 145.722 120.811 145.871 120.662C 146.337 120.196 214.239 120.631 218 121.124M166.8 163.989L166.8 189.2L186.776 189.2C 199.663 189.2 206.841 189.058 207 188.8C 207.136 188.58 207.755 188.4 208.375 188.4C 209.603 188.4 214.913 187.332 216.2 186.825C 216.64 186.652 217.681 186.216 218.514 185.855C 219.346 185.495 220.291 185.2 220.614 185.2C 220.936 185.2 221.2 185.041 221.2 184.847C 221.2 184.652 221.515 184.388 221.9 184.258C 223.658 183.668 226.957 180.902 229.405 177.966C 230.101 177.132 230.975 175.473 232.952 171.24C 233.568 169.919 233.555 156.843 232.936 155.561C 232.68 155.033 232.14 153.746 231.736 152.701C 231.331 151.657 230.865 150.802 230.7 150.801C 230.535 150.801 230.4 150.566 230.4 150.28C 230.4 149.433 226.493 145.303 224.782 144.342C 223.912 143.853 223.2 143.343 223.2 143.209C 223.2 143.075 222.165 142.62 220.9 142.198C 219.635 141.776 218.51 141.313 218.4 141.168C 218.152 140.843 214.383 140.069 210.4 139.525C 208.75 139.299 198.265 139.039 187.1 138.947L187.1 138.947L166.8 138.779L166.8 163.989zM166.697 208.891C 166.588 209.611 166.468 221.95 166.429 236.312L166.429 236.312L166.358 262.424L190.879 262.27C 214.931 262.12 218.48 261.94 221.6 260.712C 221.93 260.582 223.323 260.144 224.697 259.738C 226.07 259.332 227.195 258.865 227.197 258.7C 227.198 258.535 227.393 258.4 227.63 258.4C 230.711 258.4 238.152 250.565 239.785 245.6C 240.184 244.39 240.71 242.968 240.955 242.439C 241.222 241.863 241.4 238.981 241.4 235.239C 241.4 229.093 241.139 227.337 239.748 224.14C 239.447 223.446 239.2 222.681 239.2 222.44C 239.2 222.198 239.064 222 238.898 222C 238.731 222 238.339 221.415 238.025 220.7C 237.446 219.379 232.773 214.4 232.112 214.4C 231.914 214.4 231.399 214.085 230.97 213.7C 229.857 212.703 226.036 210.843 224.492 210.547C 223.772 210.41 223.086 210.14 222.968 209.948C 222.85 209.757 222.343 209.6 221.843 209.6C 221.343 209.6 220.8 209.465 220.637 209.3C 219.59 208.239 212.633 207.882 190.147 207.734L190.147 207.734L166.894 207.581L166.697 208.891" stroke="none" fill="#654295" fill-rule="nonzero" />
        <path d="M146.667 121.467C 146.52 121.613 146.4 157.444 146.4 201.091L146.4 201.091L146.4 280.449L182.9 280.285C 209.42 280.165 219.947 279.988 221.4 279.639C 222.5 279.375 224.75 278.88 226.4 278.538C 230.06 277.781 234.678 276.304 237.511 274.984C 238.672 274.443 239.697 274 239.79 274C 240.274 274 245.268 270.856 247 269.461C 252.97 264.651 256.718 259.525 259.622 252.2C 261.329 247.893 262.129 242.777 262.154 236C 262.177 229.961 261.986 228.488 260.519 223.4C 257.666 213.499 249.332 204.276 239.6 200.249C 238.61 199.839 237.44 199.353 237 199.168C 235.949 198.725 232.424 197.804 229.3 197.154C 226.977 196.672 225.972 195.807 227.3 195.435C 230.663 194.491 231.851 194.045 234.568 192.704C 242.818 188.635 249.872 180.349 252.381 171.778C 254.017 166.192 254.09 165.688 254.058 160.2C 253.93 138.521 238.451 123.53 214.2 121.6C 208.82 121.172 147.083 121.05 146.667 121.467M212.271 138.993C 223.499 140.98 230.758 146.435 233.306 154.8C 237.247 167.739 232.128 180.385 220.8 185.691C 212.906 189.389 208.234 189.934 184.1 189.972L184.1 189.972L166 190L166 164.2L166 138.4L187.5 138.407C 204.459 138.413 209.691 138.537 212.271 138.993M217 207.726C 235.104 211.443 243.519 221.375 242.224 237.494C 240.938 253.493 230.855 261.506 209.892 263.19C 204.467 263.626 167.703 263.768 166.633 263.357C 166.064 263.139 166 260.261 166 234.925L166 234.925L166 206.735L189.9 206.902C 210.035 207.042 214.304 207.172 217 207.726" stroke="none" fill="#FBFBFB" fill-rule="nonzero" />
        <path d="M110 67.2C 109.67 67.413 108.106 67.591 106.524 67.594C 104.942 67.597 103.549 67.759 103.429 67.953C 103.309 68.147 102.039 68.431 100.606 68.585C 99.173 68.738 98 69.029 98 69.232C 98 69.434 97.651 69.6 97.224 69.6C 96.797 69.6 96.346 69.764 96.222 69.965C 96.097 70.166 95.277 70.452 94.398 70.6C 93.519 70.749 92.798 70.989 92.795 71.135C 92.793 71.281 92.028 71.755 91.095 72.189C 89.521 72.921 86.459 74.728 86 75.196C 85.89 75.308 84.9 76.112 83.8 76.981C 78.314 81.319 70.4 92.081 70.4 95.205C 70.4 95.554 70.257 96.011 70.082 96.22C 69.081 97.415 68.032 102.229 67.559 107.8C 66.95 114.974 67.278 295.293 67.9 295.5C 68.199 295.6 68.4 296.376 68.4 297.433C 68.4 298.405 68.559 299.2 68.754 299.2C 68.949 299.2 69.232 300.19 69.383 301.4C 69.534 302.61 69.825 303.6 70.029 303.6C 70.233 303.6 70.4 303.96 70.4 304.4C 70.4 304.84 70.557 305.2 70.749 305.2C 70.941 305.2 71.213 305.92 71.354 306.8C 71.494 307.68 71.787 308.4 72.005 308.4C 72.222 308.4 72.4 308.67 72.4 309C 72.4 309.33 72.577 309.6 72.792 309.6C 73.008 309.6 73.298 310.05 73.436 310.6C 73.574 311.15 73.847 311.6 74.043 311.6C 74.24 311.6 74.4 311.879 74.4 312.219C 74.4 312.56 74.85 313.255 75.4 313.765C 75.95 314.275 76.4 314.819 76.4 314.974C 76.4 315.13 76.625 315.508 76.9 315.815C 77.769 316.783 78.346 317.385 78.881 317.881C 79.166 318.145 79.632 318.64 79.916 318.981C 80.488 319.668 81.2 319.804 81.2 319.227C 81.2 319.022 80.84 318.74 80.4 318.6C 79.96 318.46 79.6 318.063 79.6 317.716C 79.6 317.37 79.06 316.571 78.4 315.94C 77.74 315.309 77.2 314.567 77.2 314.291C 77.2 314.016 76.75 313.452 76.2 313.039C 75.65 312.626 75.2 311.953 75.2 311.544C 75.2 311.135 75.02 310.8 74.8 310.8C 74.58 310.8 74.4 310.53 74.4 310.2C 74.4 309.87 74.228 309.6 74.018 309.6C 73.808 309.6 73.518 308.97 73.374 308.2C 73.229 307.43 72.951 306.8 72.755 306.8C 72.56 306.8 72.4 306.53 72.4 306.2C 72.4 305.87 72.222 305.6 72.005 305.6C 71.787 305.6 71.494 304.88 71.354 304C 71.213 303.12 70.941 302.4 70.749 302.4C 70.557 302.4 70.4 301.785 70.4 301.033C 70.4 300.282 70.205 299.602 69.966 299.522C 69.704 299.435 69.444 297.452 69.308 294.489C 69.184 291.8 68.923 289.6 68.729 289.6C 67.937 289.6 68.769 106.126 69.577 102.6C 69.83 101.5 70.138 100.105 70.263 99.5C 70.388 98.895 70.65 98.4 70.845 98.4C 71.04 98.4 71.2 98.044 71.2 97.608C 71.2 96.739 72.382 93.519 72.819 93.2C 72.969 93.09 73.228 92.564 73.395 92.032C 73.696 91.068 76.288 86.781 76.8 86.4C 76.948 86.29 77.233 85.902 77.434 85.539C 78.169 84.211 83.76 78.671 86.205 76.848C 87.685 75.745 91.224 73.647 92.032 73.395C 92.564 73.228 93.09 72.981 93.2 72.846C 93.672 72.266 95.281 71.596 96.783 71.356C 97.672 71.214 98.4 70.961 98.4 70.794C 98.4 70.627 98.895 70.388 99.5 70.263C 100.105 70.138 101.5 69.83 102.6 69.578C 106.191 68.757 290.4 67.924 290.4 68.729C 290.4 68.926 292.418 69.182 294.885 69.299C 297.638 69.43 299.428 69.683 299.519 69.956C 299.6 70.2 300.282 70.4 301.033 70.4C 301.785 70.4 302.4 70.557 302.4 70.749C 302.4 70.941 303.12 71.213 304 71.354C 304.88 71.494 305.6 71.787 305.6 72.005C 305.6 72.222 305.96 72.4 306.4 72.4C 306.84 72.4 307.2 72.566 307.2 72.768C 307.2 72.971 307.74 73.255 308.4 73.4C 309.06 73.545 309.6 73.829 309.6 74.032C 309.6 74.234 309.96 74.4 310.4 74.4C 310.84 74.4 311.2 74.56 311.2 74.757C 311.2 74.953 311.638 75.223 312.173 75.358C 312.709 75.492 313.261 75.961 313.4 76.401C 313.54 76.84 313.937 77.2 314.284 77.2C 314.63 77.2 315.429 77.74 316.06 78.4C 316.691 79.06 317.409 79.6 317.657 79.6C 317.904 79.6 318.442 79.988 318.853 80.461C 319.264 80.935 319.6 81.123 319.6 80.88C 319.6 80.279 315.683 76.4 315.076 76.4C 314.809 76.4 314.252 75.95 313.839 75.4C 313.426 74.85 312.753 74.4 312.344 74.4C 311.935 74.4 311.6 74.22 311.6 74C 311.6 73.78 311.33 73.6 311 73.6C 310.67 73.6 310.4 73.423 310.4 73.208C 310.4 72.992 309.95 72.702 309.4 72.564C 308.85 72.426 308.4 72.153 308.4 71.957C 308.4 71.76 308.13 71.6 307.8 71.6C 307.47 71.6 307.2 71.44 307.2 71.245C 307.2 71.05 306.39 70.769 305.4 70.621C 304.41 70.472 303.6 70.182 303.6 69.975C 303.6 69.769 303.165 69.6 302.633 69.6C 302.102 69.6 301.607 69.425 301.533 69.211C 301.46 68.997 300.095 68.701 298.5 68.554C 296.905 68.406 295.6 68.131 295.6 67.943C 295.6 67.754 294.16 67.6 292.4 67.6C 290.533 67.6 289.2 67.433 289.2 67.2C 289.2 66.657 110.84 66.657 110 67.2M146.448 121.342C 146.117 121.741 146.025 142.917 146.099 201.242L146.099 201.242L146.2 280.6L179.4 280.604L212.6 280.607L179.499 280.501L146.398 280.395L146.499 200.898L146.6 121.4L178.2 121.196L209.8 120.993L178.349 120.896C 152.283 120.817 146.821 120.893 146.448 121.342M212.3 121.489C 213.015 121.578 214.185 121.578 214.9 121.489C 215.615 121.401 215.03 121.328 213.6 121.328C 212.17 121.328 211.585 121.401 212.3 121.489M230.095 125.02C 230.258 125.187 231.158 125.667 232.095 126.085C 233.033 126.504 233.62 126.665 233.4 126.444C 233.18 126.223 232.28 125.743 231.4 125.379C 230.52 125.014 229.933 124.853 230.095 125.02M176.9 138.7C 183.005 138.762 192.995 138.762 199.1 138.7C 205.205 138.638 200.21 138.587 188 138.587C 175.79 138.587 170.795 138.638 176.9 138.7M214 139.6C 215.368 140.038 216.419 140.038 215.4 139.6C 214.96 139.411 214.24 139.262 213.8 139.268C 213.157 139.277 213.196 139.343 214 139.6M223 142.607C 223.44 142.966 224.16 143.435 224.6 143.651L224.6 143.651L225.4 144.044L224.6 143.393C 224.16 143.034 223.44 142.565 223 142.349L223 142.349L222.2 141.956L223 142.607zM254.114 157.8C 254.117 158.9 254.195 159.303 254.287 158.695C 254.379 158.086 254.377 157.186 254.282 156.695C 254.187 156.203 254.111 156.7 254.114 157.8M234.101 160.2C 234.105 161.08 234.187 161.393 234.283 160.895C 234.379 160.398 234.375 159.678 234.275 159.295C 234.175 158.913 234.096 159.32 234.101 160.2M234.509 163.6C 234.509 164.59 234.587 164.995 234.682 164.5C 234.778 164.005 234.778 163.195 234.682 162.7C 234.587 162.205 234.509 162.61 234.509 163.6M254.093 163.6C 254.093 164.37 254.175 164.685 254.276 164.3C 254.376 163.915 254.376 163.285 254.276 162.9C 254.175 162.515 254.093 162.83 254.093 163.6M252.44 171.44C 252.21 172.273 252.094 173.027 252.182 173.115C 252.27 173.203 252.53 172.593 252.76 171.76C 252.99 170.927 253.106 170.173 253.018 170.085C 252.93 169.997 252.67 170.607 252.44 171.44M227.586 180.7L225.4 183L227.7 180.814C 228.965 179.611 230 178.576 230 178.514C 230 178.217 229.618 178.563 227.586 180.7M243.387 186.5L241 189L243.5 186.613C 244.875 185.299 246 184.174 246 184.113C 246 183.817 245.605 184.178 243.387 186.5M206.1 189.476C 206.485 189.576 207.115 189.576 207.5 189.476C 207.885 189.375 207.57 189.293 206.8 189.293C 206.03 189.293 205.715 189.375 206.1 189.476M200.1 189.887C 200.705 189.978 201.695 189.978 202.3 189.887C 202.905 189.795 202.41 189.72 201.2 189.72C 199.99 189.72 199.495 189.795 200.1 189.887M227.067 195.467C 226.648 195.886 226.755 196.8 227.224 196.8C 227.457 196.8 227.524 196.6 227.372 196.355C 227.221 196.111 227.346 195.753 227.649 195.561C 227.952 195.369 228.005 195.209 227.767 195.206C 227.528 195.203 227.213 195.32 227.067 195.467M248.4 205.325C 248.4 205.394 248.985 205.979 249.7 206.625L249.7 206.625L251 207.8L249.825 206.5C 248.73 205.288 248.4 205.016 248.4 205.325M206.5 207.087C 207.105 207.178 208.095 207.178 208.7 207.087C 209.305 206.995 208.81 206.92 207.6 206.92C 206.39 206.92 205.895 206.995 206.5 207.087M219.633 208.544C 219.725 208.623 220.34 208.808 221 208.956C 221.876 209.152 222.038 209.115 221.6 208.818C 221.06 208.453 219.232 208.198 219.633 208.544M241.044 226.6C 241.373 228.071 241.602 228.39 241.594 227.367C 241.591 226.945 241.405 226.33 241.182 226C 240.885 225.562 240.848 225.724 241.044 226.6M261.268 226.2C 261.262 226.64 261.411 227.36 261.6 227.8C 262.038 228.819 262.038 227.768 261.6 226.4C 261.343 225.596 261.277 225.557 261.268 226.2M242.137 235C 242.139 236.76 242.209 237.43 242.293 236.489C 242.378 235.549 242.377 234.109 242.291 233.289C 242.205 232.47 242.136 233.24 242.137 235M262.109 240.4C 262.109 241.39 262.187 241.795 262.282 241.3C 262.378 240.805 262.378 239.995 262.282 239.5C 262.187 239.005 262.109 239.41 262.109 240.4M260.446 249.267C 260.421 249.634 260.296 250.264 260.17 250.667C 259.952 251.362 259.963 251.363 260.397 250.687C 260.648 250.296 260.773 249.666 260.673 249.287C 260.511 248.668 260.488 248.666 260.446 249.267M209.505 263.083C 210.002 263.179 210.722 263.175 211.105 263.075C 211.487 262.975 211.08 262.896 210.2 262.901C 209.32 262.905 209.007 262.987 209.505 263.083M176.7 263.5C 182.255 263.562 191.345 263.562 196.9 263.5C 202.455 263.437 197.91 263.386 186.8 263.386C 175.69 263.386 171.145 263.437 176.7 263.5M247 269.46C 245.795 270.536 245.705 270.685 246.636 270.063C 247.741 269.324 249.132 267.976 248.749 268.015C 248.667 268.023 247.88 268.673 247 269.46M215.3 280.276C 215.685 280.376 216.315 280.376 216.7 280.276C 217.085 280.175 216.77 280.093 216 280.093C 215.23 280.093 214.915 280.175 215.3 280.276" stroke="none" fill="#B4A4CD" fill-rule="nonzero" />
        <path d="M196.53 68.7C 205.511 68.76 220.091 68.76 228.93 68.7C 237.768 68.64 230.42 68.591 212.6 68.591C 194.78 68.591 187.548 68.64 196.53 68.7M245.7 68.676C 246.085 68.776 246.715 68.776 247.1 68.676C 247.485 68.575 247.17 68.493 246.4 68.493C 245.63 68.493 245.315 68.575 245.7 68.676M276.8 68.657C 280.064 68.942 290.401 68.975 290.4 68.7C 290.4 68.535 287.025 68.43 282.9 68.467C 278.775 68.504 276.03 68.59 276.8 68.657M318.078 79.422C 317.522 80.052 318.522 81.611 319.107 81.026C 319.256 80.878 319.117 80.596 318.8 80.4C 318.483 80.204 318.363 79.904 318.533 79.733C 318.93 79.337 319.649 80.442 319.414 81.086C 319.316 81.353 320.038 82.432 321.018 83.485C 321.998 84.537 322.8 85.609 322.8 85.866C 322.8 86.123 322.956 86.393 323.146 86.467C 323.501 86.603 327.384 92.514 327.246 92.707C 327.204 92.766 327.428 93.396 327.744 94.107C 328.06 94.818 328.632 96.39 329.014 97.6C 329.396 98.81 329.849 100.16 330.02 100.6C 331.355 104.037 331.389 106.542 331.395 200.2C 331.4 294.653 331.372 296.635 329.967 299.295C 329.765 299.677 329.601 300.307 329.602 300.695C 329.605 301.616 328.287 305.361 327.9 305.533C 327.735 305.607 327.6 305.849 327.6 306.073C 327.6 306.533 326.361 309.294 326.017 309.6C 325.893 309.71 325.438 310.475 325.005 311.3C 324.572 312.125 324.091 312.8 323.936 312.8C 323.781 312.8 323.538 313.164 323.397 313.609C 323.1 314.546 315.063 322.8 314.448 322.8C 314.222 322.8 313.586 323.25 313.036 323.8C 312.486 324.35 311.758 324.8 311.418 324.8C 311.078 324.8 310.8 324.98 310.8 325.2C 310.8 325.42 310.53 325.6 310.2 325.6C 309.87 325.6 309.6 325.772 309.6 325.982C 309.6 326.192 308.97 326.482 308.2 326.626C 307.43 326.771 306.8 327.049 306.8 327.245C 306.8 327.44 306.53 327.6 306.2 327.6C 305.87 327.6 305.6 327.78 305.6 328C 305.6 328.22 305.195 328.401 304.7 328.402C 304.205 328.404 303.284 328.674 302.654 329.002C 302.024 329.331 301.115 329.6 300.634 329.6C 300.153 329.6 299.569 329.791 299.335 330.025C 299.101 330.259 296.86 330.553 294.355 330.678C 291.85 330.804 289.589 331.074 289.33 331.277C 288.773 331.717 111.606 331.637 111 331.197C 110.78 331.037 108.463 330.806 105.85 330.684C 103.238 330.561 100.907 330.267 100.67 330.03C 100.434 329.794 99.837 329.6 99.344 329.6C 98.851 329.6 98.35 329.443 98.232 329.252C 98.114 329.06 97.429 328.786 96.711 328.642C 95.134 328.327 93.2 327.503 93.2 327.146C 93.2 327.003 92.747 326.773 92.193 326.634C 91.084 326.356 86.679 323.663 86.467 323.133C 86.393 322.95 86.107 322.8 85.83 322.8C 85.553 322.8 84.115 321.613 82.635 320.161C 81.155 318.71 79.827 317.64 79.684 317.783C 79.44 318.026 80.084 318.591 81 318.939C 81.22 319.022 81.291 319.209 81.157 319.355C 80.761 319.786 79.648 319.182 79.4 318.4C 79.273 318.001 78.881 317.563 78.528 317.428C 77.971 317.214 77.958 317.275 78.434 317.891C 79.889 319.779 81.399 321.098 81.889 320.91C 82.196 320.793 82.382 320.923 82.316 321.21C 82.164 321.878 87.522 326.031 90.367 327.451C 91.595 328.064 92.69 328.692 92.801 328.846C 92.911 329 93.678 329.253 94.505 329.409C 95.332 329.564 96.107 329.85 96.228 330.045C 96.349 330.24 96.872 330.4 97.39 330.4C 97.909 330.4 98.393 330.578 98.467 330.796C 98.54 331.014 99.725 331.31 101.1 331.453C 102.475 331.597 103.6 331.868 103.6 332.057C 103.6 332.246 105.004 332.4 106.72 332.4C 108.436 332.4 110.021 332.581 110.242 332.802C 110.798 333.358 288.121 333.048 292.8 332.483C 298.679 331.773 301.261 331.178 303.651 329.981C 304.009 329.801 304.954 329.532 305.751 329.383C 306.548 329.233 307.2 328.951 307.2 328.755C 307.2 328.56 307.47 328.4 307.8 328.4C 308.13 328.4 308.4 328.234 308.4 328.032C 308.4 327.829 308.94 327.545 309.6 327.4C 310.26 327.255 310.8 327.001 310.8 326.836C 310.8 326.67 311.295 326.285 311.9 325.98C 316.132 323.843 323.843 316.132 325.98 311.9C 326.285 311.295 326.67 310.8 326.836 310.8C 327.001 310.8 327.255 310.26 327.4 309.6C 327.545 308.94 327.829 308.4 328.032 308.4C 328.234 308.4 328.4 308.13 328.4 307.8C 328.4 307.47 328.56 307.2 328.755 307.2C 328.951 307.2 329.233 306.548 329.383 305.751C 329.532 304.954 329.801 304.009 329.981 303.651C 331.178 301.261 331.773 298.679 332.483 292.8C 333.041 288.181 333.368 111.313 332.821 110.2C 332.604 109.76 332.35 108.05 332.255 106.4C 332.039 102.638 331.093 98.423 329.998 96.349C 329.809 95.991 329.532 95.046 329.383 94.249C 329.233 93.452 328.996 92.798 328.855 92.795C 328.715 92.793 328.25 92.028 327.822 91.095C 327.395 90.163 326.45 88.545 325.722 87.499C 324.995 86.454 324.4 85.516 324.4 85.416C 324.4 85.317 323.682 84.462 322.805 83.517C 321.928 82.573 321.208 81.679 321.205 81.531C 321.201 81.294 318.849 78.776 318.669 78.815C 318.631 78.824 318.365 79.097 318.078 79.422M68.591 214C 68.591 231.71 68.64 238.955 68.7 230.1C 68.76 221.245 68.76 206.755 68.7 197.9C 68.64 189.045 68.591 196.29 68.591 214M68.472 282.5C 68.432 286.405 68.535 289.6 68.7 289.601C 68.865 289.601 68.951 287.216 68.892 284.301C 68.716 275.643 68.549 274.929 68.472 282.5M68.702 300.2C 68.807 300.75 68.962 301.2 69.047 301.2C 69.131 301.2 69.2 300.75 69.2 300.2C 69.2 299.65 69.045 299.2 68.855 299.2C 68.666 299.2 68.597 299.65 68.702 300.2" stroke="none" fill="#B49CC7" fill-rule="nonzero" />
        <path d="M105.4 67.2C 103.634 67.649 105.645 67.669 107.8 67.223L107.8 67.223L109.4 66.892L108 66.893C 107.23 66.894 106.06 67.032 105.4 67.2M291.2 67.2C 291.75 67.376 292.92 67.517 293.8 67.513C 295.322 67.506 295.342 67.49 294.2 67.2C 292.46 66.757 289.818 66.757 291.2 67.2M297.4 68C 297.84 68.189 298.56 68.338 299 68.332C 299.643 68.323 299.604 68.257 298.8 68C 297.432 67.562 296.381 67.562 297.4 68M99.4 68.4C 98.381 68.838 99.432 68.838 100.8 68.4C 101.604 68.143 101.643 68.077 101 68.068C 100.56 68.062 99.84 68.211 99.4 68.4M104 69.6C 103.208 69.854 103.167 69.92 103.8 69.92C 104.24 69.92 105.05 69.776 105.6 69.6C 106.392 69.346 106.433 69.28 105.8 69.28C 105.36 69.28 104.55 69.424 104 69.6M294.6 69.6C 295.26 69.768 296.34 69.906 297 69.907C 298.009 69.908 297.945 69.855 296.6 69.577C 294.574 69.158 292.937 69.177 294.6 69.6M94.2 70.214C 93.2 70.696 93.166 70.751 94 70.548C 95.133 70.271 96.407 69.621 95.8 69.63C 95.58 69.633 94.86 69.896 94.2 70.214M304.144 69.909C 304.278 70.127 304.854 70.394 305.424 70.503C 306.647 70.736 306.221 70.217 304.85 69.802C 304.258 69.623 303.992 69.663 304.144 69.909M98.8 70.818C 98.362 71.115 98.524 71.152 99.4 70.956C 100.871 70.627 101.19 70.398 100.167 70.406C 99.745 70.409 99.13 70.595 98.8 70.818M307.2 70.984C 307.2 71.094 307.92 71.551 308.8 72C 309.68 72.449 310.4 72.726 310.4 72.616C 310.4 72.506 309.68 72.049 308.8 71.6C 307.92 71.151 307.2 70.874 307.2 70.984M311.6 73.62C 312.987 74.561 313.778 74.835 312.8 74.036C 312.25 73.586 311.62 73.217 311.4 73.215C 311.18 73.213 311.27 73.396 311.6 73.62M313.936 77.6C 315.688 78.92 318.435 81.395 320.04 83.1C 321.645 84.805 322.581 85.66 322.119 85C 320.958 83.341 315.828 78.478 313.346 76.685C 310.011 74.274 310.473 74.991 313.936 77.6M86.522 77.029L85.4 78.058L86.7 77.154C 87.415 76.657 88 76.193 88 76.125C 88 75.809 87.558 76.08 86.522 77.029M75.944 84.3C 74.793 85.689 74.306 86.4 74.504 86.4C 74.614 86.4 75.186 85.77 75.773 85C 76.863 83.571 76.995 83.032 75.944 84.3M325.495 86.981C 326.087 87.961 326.636 88.698 326.715 88.619C 326.883 88.451 324.877 85.2 324.605 85.2C 324.503 85.2 324.904 86.001 325.495 86.981M77.123 86.3C 76.418 87.121 75.89 88 76.101 88C 76.183 88 76.649 87.46 77.137 86.8C 78.101 85.496 78.092 85.172 77.123 86.3M324.724 89.517C 325.756 91.263 326.666 92.636 326.746 92.567C 326.975 92.37 324.097 87.378 323.438 86.832C 323.113 86.562 323.692 87.77 324.724 89.517M327.93 91.196C 328.298 92.074 328.739 92.794 328.908 92.796C 329.078 92.798 328.849 92.08 328.4 91.2C 327.348 89.138 327.064 89.136 327.93 91.196M70.044 94.444C 69.798 95.151 69.666 95.8 69.752 95.885C 69.838 95.971 70.109 95.462 70.356 94.756C 70.602 94.049 70.734 93.4 70.648 93.315C 70.562 93.229 70.291 93.738 70.044 94.444M329.497 94.576C 329.606 95.146 329.873 95.722 330.091 95.856C 330.337 96.008 330.377 95.742 330.198 95.15C 329.783 93.779 329.264 93.353 329.497 94.576M328.067 96.02C 328.301 96.692 328.567 97.167 328.657 97.076C 328.856 96.878 328.101 94.8 327.831 94.8C 327.727 94.8 327.833 95.349 328.067 96.02M328.828 98.276C 328.918 99.315 329.544 100.196 329.572 99.324C 329.587 98.842 329.42 98.336 329.2 98.2C 328.98 98.064 328.813 98.098 328.828 98.276M70.649 99.015C 70.512 99.373 70.415 99.966 70.434 100.333C 70.453 100.7 70.627 100.469 70.821 99.82C 71.198 98.558 71.065 97.933 70.649 99.015M68.2 100C 68.048 100.691 68.007 101.341 68.109 101.442C 68.211 101.544 68.409 101.053 68.55 100.35C 68.691 99.647 68.731 98.998 68.641 98.908C 68.55 98.817 68.352 99.309 68.2 100M331.443 100.6C 331.586 101.48 331.863 102.47 332.06 102.8C 332.284 103.177 332.32 102.806 332.157 101.8C 332.014 100.92 331.737 99.93 331.54 99.6C 331.316 99.223 331.28 99.594 331.443 100.6M329.855 102C 330.402 105.167 330.777 106.261 330.541 104C 330.414 102.79 330.154 101.53 329.962 101.2C 329.743 100.823 329.704 101.121 329.855 102M69.44 104.44C 69.293 105.357 69.252 106.185 69.347 106.28C 69.442 106.376 69.646 105.71 69.8 104.8C 69.954 103.89 69.996 103.062 69.893 102.96C 69.79 102.857 69.587 103.523 69.44 104.44M67 106.8C 66.844 108.147 66.801 109.334 66.905 109.438C 67.009 109.542 67.219 108.522 67.371 107.171C 67.524 105.821 67.567 104.634 67.467 104.533C 67.366 104.433 67.156 105.453 67 106.8M332.474 106.4C 332.464 107.61 332.611 108.96 332.8 109.4C 333.267 110.488 333.283 108.025 332.823 105.8C 332.492 104.202 332.492 104.202 332.474 106.4M330.8 201.907C 330.8 282.304 330.726 293.902 330.193 296.433C 329.677 298.884 329.641 300.879 330.144 299.157C 331.389 294.891 331.401 293.776 331.254 201.8C 331.174 151.64 331.039 110.525 330.954 110.433C 330.869 110.342 330.8 151.505 330.8 201.907M211.3 121.076C 211.685 121.176 212.315 121.176 212.7 121.076C 213.085 120.975 212.77 120.893 212 120.893C 211.23 120.893 210.915 120.975 211.3 121.076M166.188 164C 166.188 177.97 166.239 183.685 166.3 176.7C 166.361 169.715 166.361 158.285 166.3 151.3C 166.239 144.315 166.188 150.03 166.188 164M254.501 159C 254.505 159.88 254.587 160.193 254.683 159.695C 254.779 159.198 254.775 158.478 254.675 158.095C 254.575 157.713 254.496 158.12 254.501 159M254.493 162.8C 254.493 163.57 254.575 163.885 254.676 163.5C 254.776 163.115 254.776 162.485 254.676 162.1C 254.575 161.715 254.493 162.03 254.493 162.8M234.109 163.6C 234.109 164.59 234.187 164.995 234.282 164.5C 234.378 164.005 234.378 163.195 234.282 162.7C 234.187 162.205 234.109 162.61 234.109 163.6M202.5 189.476C 202.885 189.576 203.515 189.576 203.9 189.476C 204.285 189.375 203.97 189.293 203.2 189.293C 202.43 189.293 202.115 189.375 202.5 189.476M174.473 189.899C 178.804 189.964 186.004 189.964 190.473 189.9C 194.943 189.835 191.4 189.782 182.6 189.782C 173.8 189.782 170.143 189.835 174.473 189.899M176.1 207.1C 181.325 207.163 189.875 207.163 195.1 207.1C 200.325 207.036 196.05 206.985 185.6 206.985C 175.15 206.985 170.875 207.036 176.1 207.1M210.1 207.476C 210.485 207.576 211.115 207.576 211.5 207.476C 211.885 207.375 211.57 207.293 210.8 207.293C 210.03 207.293 209.715 207.375 210.1 207.476M166.196 235.2L166.2 263L186.9 263.005L207.6 263.011L187.003 262.902L166.405 262.793L166.299 235.096L166.192 207.4L166.196 235.2zM262.501 239.4C 262.505 240.28 262.587 240.593 262.683 240.095C 262.779 239.598 262.775 238.878 262.675 238.495C 262.575 238.113 262.496 238.52 262.501 239.4M332.7 289.733C 332.535 290.136 332.42 291.576 332.444 292.933L332.444 292.933L332.488 295.4L332.851 293.6C 333.284 291.459 333.171 288.582 332.7 289.733M66.869 290.8C 66.856 291.57 66.995 292.92 67.177 293.8L67.177 293.8L67.508 295.4L67.531 294C 67.544 293.23 67.405 291.88 67.223 291L67.223 291L66.892 289.4L66.869 290.8zM69.27 294.2C 69.257 294.64 69.395 295.72 69.577 296.6C 69.855 297.945 69.908 298.009 69.907 297C 69.905 295.599 69.308 292.97 69.27 294.2M331.866 296.67C 331.484 298.013 331.127 300.8 331.336 300.8C 331.627 300.8 332.513 296.38 332.271 296.138C 332.162 296.029 331.98 296.268 331.866 296.67M67.668 297.2C 67.688 298.239 68.318 299.946 68.332 299C 68.338 298.56 68.189 297.84 68 297.4C 67.789 296.91 67.661 296.832 67.668 297.2M70.428 300.276C 70.413 300.758 70.58 301.264 70.8 301.4C 71.273 301.692 71.273 301.301 70.8 300.2C 70.469 299.429 70.455 299.431 70.428 300.276M328.669 302.306C 328.32 303.372 327.918 304.549 327.775 304.922C 327.632 305.295 327.669 305.6 327.857 305.6C 328.269 305.6 329.827 300.894 329.518 300.585C 329.399 300.466 329.017 301.241 328.669 302.306M330.61 302.2C 330.455 302.64 330.175 303.36 329.989 303.8C 329.29 305.451 329.102 306.508 329.557 306.226C 329.801 306.076 330 305.684 330 305.357C 330 305.029 330.281 304.217 330.624 303.553C 330.968 302.889 331.169 302.133 331.071 301.873C 330.969 301.602 330.772 301.742 330.61 302.2M69.802 304.85C 70.217 306.221 70.736 306.647 70.503 305.424C 70.394 304.854 70.127 304.278 69.909 304.144C 69.663 303.992 69.623 304.258 69.802 304.85M326.02 308.496C 323.687 312.966 319.096 318.477 314.8 321.962C 314.246 322.412 314.036 322.779 314.33 322.787C 315.02 322.804 323.062 314.665 323.397 313.609C 323.538 313.164 323.781 312.8 323.936 312.8C 324.091 312.8 324.572 312.125 325.005 311.3C 325.438 310.475 325.893 309.71 326.017 309.6C 326.141 309.49 326.563 308.71 326.955 307.868C 328.137 305.329 327.422 305.81 326.02 308.496M71.6 308.8C 72.049 309.68 72.506 310.4 72.616 310.4C 72.726 310.4 72.449 309.68 72 308.8C 71.551 307.92 71.094 307.2 70.984 307.2C 70.874 307.2 71.151 307.92 71.6 308.8M328.4 307.8C 328.4 308.13 328.241 308.4 328.047 308.4C 327.679 308.4 327.114 310.047 327.388 310.321C 327.474 310.407 327.92 309.74 328.38 308.839C 328.84 307.937 329.033 307.2 328.808 307.2C 328.584 307.2 328.4 307.47 328.4 307.8M73.149 311.4C 73.365 311.84 73.834 312.56 74.193 313L74.193 313L74.844 313.8L74.451 313C 74.235 312.56 73.766 311.84 73.407 311.4L73.407 311.4L72.756 310.6L73.149 311.4zM75.202 311.033C 75.203 311.235 75.668 311.94 76.235 312.6L76.235 312.6L77.266 313.8L76.363 312.4C 75.204 310.604 75.2 310.599 75.202 311.033M325.98 311.9C 323.843 316.132 316.132 323.843 311.9 325.98C 311.295 326.285 310.8 326.695 310.8 326.891C 310.8 327.336 311.1 327.162 314.8 324.564C 318.367 322.06 322.403 317.991 324.882 314.4C 327.154 311.108 327.326 310.8 326.891 310.8C 326.695 310.8 326.285 311.295 325.98 311.9M78.301 315.4C 78.98 316.28 80.49 317.9 81.657 319C 83.629 320.859 83.598 320.803 81.218 318.2C 77.628 314.275 76.871 313.548 78.301 315.4M76.736 316.7C 77.398 317.525 79.161 319.37 80.654 320.8C 82.855 322.909 82.71 322.704 79.884 319.714C 77.968 317.687 76.4 315.842 76.4 315.614C 76.4 315.386 76.205 315.2 75.966 315.2C 75.728 315.2 76.074 315.875 76.736 316.7M87.322 323.763C 87.94 324.333 88.645 324.8 88.889 324.8C 89.406 324.8 89.423 324.815 87.6 323.634L87.6 323.634L86.2 322.727L87.322 323.763zM312.2 323.834C 311.54 324.363 311.205 324.797 311.456 324.798C 312.041 324.801 313.864 323.332 313.6 323.07C 313.49 322.961 312.86 323.305 312.2 323.834M85.2 324.605C 85.2 324.877 88.451 326.883 88.619 326.715C 88.698 326.636 87.961 326.087 86.981 325.495C 86.001 324.904 85.2 324.503 85.2 324.605M89.6 325.159C 89.6 325.472 92.415 326.918 92.622 326.712C 92.689 326.644 92.037 326.201 91.172 325.728C 90.308 325.254 89.6 324.998 89.6 325.159M308.8 325.856C 307.622 326.713 307.558 326.828 308.4 326.584C 308.95 326.425 309.46 326.138 309.533 325.947C 309.607 325.756 309.922 325.6 310.233 325.6C 310.545 325.6 310.8 325.42 310.8 325.2C 310.8 324.59 310.332 324.743 308.8 325.856M89.6 327.422C 89.6 327.511 90.32 327.951 91.2 328.4C 92.08 328.849 92.798 329.078 92.796 328.908C 92.794 328.739 92.074 328.298 91.196 327.93C 90.318 327.561 89.6 327.332 89.6 327.422M309.1 327.476C 308.715 327.576 308.4 327.825 308.4 328.029C 308.4 328.233 308.13 328.4 307.8 328.4C 307.47 328.4 307.2 328.584 307.2 328.808C 307.2 329.033 307.92 328.849 308.8 328.4C 310.85 327.354 310.969 326.987 309.1 327.476M94.8 327.831C 94.8 328.101 96.878 328.856 97.076 328.657C 97.167 328.567 96.692 328.301 96.02 328.067C 95.349 327.833 94.8 327.727 94.8 327.831M303.8 328.224C 303.14 328.547 302.93 328.719 303.333 328.606C 303.736 328.493 304.411 328.4 304.833 328.4C 305.255 328.4 305.6 328.22 305.6 328C 305.6 327.472 305.243 327.517 303.8 328.224M300.8 329.2C 300.312 329.515 300.364 329.589 301.076 329.594C 301.558 329.597 302.064 329.42 302.2 329.2C 302.515 328.691 301.588 328.691 300.8 329.2M93.87 329.605C 94.419 330.113 96.128 330.531 95.856 330.091C 95.722 329.873 95.146 329.606 94.576 329.497C 94.006 329.388 93.688 329.437 93.87 329.605M305.2 329.461C 304.87 329.57 304.24 329.809 303.8 329.993C 303.36 330.177 302.659 330.438 302.243 330.573C 301.826 330.708 301.569 330.902 301.671 331.005C 301.879 331.212 305.852 329.882 306.268 329.465C 306.567 329.167 306.099 329.165 305.2 329.461M101.2 329.968C 101.53 330.151 102.7 330.406 103.8 330.536C 105.04 330.681 105.42 330.649 104.8 330.45C 103.255 329.955 100.516 329.588 101.2 329.968M296.4 330.22L294.2 330.751L296.6 330.53C 297.92 330.408 299.171 330.149 299.38 329.954C 299.876 329.492 299.151 329.557 296.4 330.22M111.6 331.023C 113.007 331.328 289.252 331.44 289.44 331.136C 289.554 330.951 249.452 330.821 200.324 330.846C 151.196 330.872 111.27 330.951 111.6 331.023M99.6 331.54C 99.93 331.737 100.92 332.014 101.8 332.157C 102.806 332.32 103.177 332.284 102.8 332.06C 102.47 331.863 101.48 331.586 100.6 331.443C 99.594 331.28 99.223 331.316 99.6 331.54M297.896 331.584C 297.068 331.744 296.258 332.014 296.096 332.183C 295.754 332.539 299.009 332.056 300.2 331.574L300.2 331.574L301 331.251L300.2 331.271C 299.76 331.283 298.723 331.423 297.896 331.584M105.8 332.823C 108.025 333.283 110.488 333.267 109.4 332.8C 108.96 332.611 107.61 332.464 106.4 332.474C 104.202 332.492 104.202 332.492 105.8 332.823M289.6 332.8C 288.853 333.283 290.941 333.293 293.6 332.82C 295.387 332.502 295.381 332.5 292.8 332.456C 291.37 332.432 289.93 332.587 289.6 332.8" stroke="none" fill="#A693C0" fill-rule="nonzero" />
        <path d="M108 67.2L106.6 67.495L108.076 67.547C 108.888 67.576 109.664 67.42 109.8 67.2C 110.068 66.766 110.061 66.766 108 67.2M290 67.182C 290.33 67.405 290.945 67.591 291.367 67.594C 292.39 67.602 292.071 67.373 290.6 67.044C 289.724 66.848 289.562 66.885 290 67.182M102.2 68C 101.429 68.331 101.431 68.345 102.276 68.372C 102.758 68.387 103.264 68.22 103.4 68C 103.692 67.527 103.301 67.527 102.2 68M177.8 68.802L110.6 69.003L199.967 69.102C 249.118 69.156 289.218 69.085 289.077 68.944C 288.733 68.599 258.222 68.56 177.8 68.802M100.8 70.006C 100.378 70.282 100.615 70.323 101.6 70.142C 103.325 69.825 103.651 69.598 102.367 69.606C 101.835 69.609 101.13 69.789 100.8 70.006M316.413 77.1C 316.419 77.265 316.914 77.746 317.513 78.168L317.513 78.168L318.6 78.936L317.63 77.868C 316.611 76.746 316.392 76.607 316.413 77.1M69.849 101.015C 69.712 101.373 69.615 101.966 69.634 102.333C 69.653 102.7 69.827 102.469 70.021 101.82C 70.398 100.558 70.265 99.933 69.849 101.015M330.928 108C 330.928 109.43 331.001 110.015 331.089 109.3C 331.178 108.585 331.178 107.415 331.089 106.7C 331.001 105.985 330.928 106.57 330.928 108M67.06 108.89C 66.921 110.051 66.849 151.23 66.9 200.4L66.9 200.4L66.992 289.8L67.196 198.4C 67.308 148.13 67.381 106.951 67.357 106.89C 67.333 106.83 67.2 107.73 67.06 108.89M68.754 178.5C 68.728 215.515 68.665 252.01 68.614 259.6C 68.562 267.19 68.642 276.91 68.79 281.2C 68.938 285.49 69.091 248.995 69.13 200.1C 69.168 151.205 69.11 111.2 69 111.2C 68.89 111.2 68.779 141.485 68.754 178.5M331.324 113.4C 331.326 114.72 331.401 115.212 331.49 114.493C 331.579 113.774 331.577 112.694 331.486 112.093C 331.395 111.492 331.322 112.08 331.324 113.4M331.301 117.4C 331.305 118.28 331.387 118.593 331.483 118.095C 331.579 117.598 331.575 116.878 331.475 116.495C 331.375 116.113 331.296 116.52 331.301 117.4M331.293 144C 331.293 144.77 331.375 145.085 331.476 144.7C 331.576 144.315 331.576 143.685 331.476 143.3C 331.375 142.915 331.293 143.23 331.293 144M331.382 164.2C 331.382 172.78 331.435 176.233 331.5 171.874C 331.564 167.514 331.564 160.494 331.499 156.274C 331.435 152.053 331.382 155.62 331.382 164.2M331.337 183C 331.339 184.76 331.409 185.43 331.493 184.489C 331.578 183.549 331.577 182.109 331.491 181.289C 331.405 180.47 331.336 181.24 331.337 183M331.301 190.2C 331.305 191.08 331.387 191.393 331.483 190.895C 331.579 190.398 331.575 189.678 331.475 189.295C 331.375 188.913 331.296 189.32 331.301 190.2M331.388 215.8C 331.388 229 331.438 234.342 331.5 227.671C 331.561 221.001 331.561 210.201 331.5 203.671C 331.438 197.142 331.388 202.6 331.388 215.8M331.293 242.4C 331.293 243.17 331.375 243.485 331.476 243.1C 331.576 242.715 331.576 242.085 331.476 241.7C 331.375 241.315 331.293 241.63 331.293 242.4M331.293 245.6C 331.293 246.37 331.375 246.685 331.476 246.3C 331.576 245.915 331.576 245.285 331.476 244.9C 331.375 244.515 331.293 244.83 331.293 245.6M111.161 331.323C 111.34 331.5 112.456 331.588 113.643 331.517L113.643 331.517L115.8 331.389L113.318 331.194C 111.954 331.087 110.983 331.145 111.161 331.323M116.705 331.483C 117.202 331.579 117.922 331.575 118.305 331.475C 118.687 331.375 118.28 331.296 117.4 331.301C 116.52 331.305 116.207 331.387 116.705 331.483M120.105 331.487C 120.714 331.579 121.614 331.577 122.105 331.482C 122.597 331.387 122.1 331.311 121 331.314C 119.9 331.317 119.497 331.395 120.105 331.487M142.7 331.482C 143.195 331.578 144.005 331.578 144.5 331.482C 144.995 331.387 144.59 331.309 143.6 331.309C 142.61 331.309 142.205 331.387 142.7 331.482M147.3 331.491C 148.125 331.578 149.475 331.578 150.3 331.491C 151.125 331.405 150.45 331.334 148.8 331.334C 147.15 331.334 146.475 331.405 147.3 331.491M159.274 331.499C 162.945 331.565 169.065 331.565 172.874 331.499C 176.683 331.434 173.68 331.38 166.2 331.38C 158.72 331.379 155.603 331.433 159.274 331.499M181.9 331.495C 183.055 331.576 184.945 331.576 186.1 331.495C 187.255 331.414 186.31 331.348 184 331.348C 181.69 331.348 180.745 331.414 181.9 331.495M203.729 331.5C 211.17 331.561 223.23 331.561 230.529 331.5C 237.828 331.439 231.74 331.389 217 331.389C 202.26 331.389 196.288 331.439 203.729 331.5M244.705 331.483C 245.202 331.579 245.922 331.575 246.305 331.475C 246.687 331.375 246.28 331.296 245.4 331.301C 244.52 331.305 244.207 331.387 244.705 331.483M248.105 331.487C 248.714 331.579 249.614 331.577 250.105 331.482C 250.597 331.387 250.1 331.311 249 331.314C 247.9 331.317 247.497 331.395 248.105 331.487" stroke="none" fill="#AC9BCC" fill-rule="nonzero" />
        <path d="M0 12.8C 0 21.067 0.142 25.6 0.4 25.6C 0.62 25.6 0.8 25.87 0.8 26.2C 0.8 26.53 0.575 26.803 0.3 26.806C -0.046 26.81 -0.064 26.903 0.24 27.106C 0.482 27.268 0.783 27.67 0.908 28C 1.09 28.478 1.143 28.458 1.168 27.9C 1.19 27.425 1.553 27.182 2.3 27.146C 3.185 27.102 3.231 27.058 2.538 26.923C 2.034 26.824 1.573 26.347 1.43 25.777C 1.295 25.24 1.008 24.8 0.792 24.8C 0.577 24.8 0.4 24.53 0.4 24.2C 0.4 23.87 0.67 23.6 1 23.6C 1.33 23.6 1.6 23.78 1.6 24C 1.6 24.22 1.78 24.4 2 24.4C 2.22 24.4 2.4 23.95 2.4 23.4C 2.4 22.808 2.629 22.4 2.962 22.4C 3.387 22.4 3.471 22.009 3.309 20.8C 3.107 19.294 3.155 19.2 4.12 19.2C 4.795 19.2 5.233 18.926 5.4 18.4C 5.677 17.527 7.2 17.283 7.2 18.112C 7.2 18.393 6.84 18.883 6.4 19.2C 5.581 19.79 5.28 21.6 6 21.6C 6.22 21.6 6.4 21.33 6.4 21C 6.4 20.67 6.58 20.4 6.8 20.4C 7.02 20.4 7.2 20.13 7.2 19.8C 7.2 19.425 7.613 19.18 8.3 19.146C 9.185 19.102 9.231 19.058 8.538 18.923C 7.577 18.735 7.103 17.459 7.47 16.052C 7.657 15.339 7.928 15.169 8.656 15.309C 9.175 15.408 9.6 15.334 9.6 15.145C 9.6 14.955 9.33 14.8 9 14.8C 8.203 14.8 8.229 13.751 9.033 13.443C 10.034 13.059 10.4 13.154 10.4 13.8C 10.4 14.13 10.577 14.4 10.792 14.4C 11.008 14.4 11.298 14.85 11.436 15.4C 11.73 16.572 12.4 16.741 12.4 15.643C 12.4 15.226 12.13 14.782 11.8 14.655C 10.789 14.268 11.056 13.08 12.1 13.319C 12.595 13.432 13.36 13.374 13.8 13.19C 14.482 12.905 14.497 12.852 13.9 12.828C 11.738 12.741 13.762 11.217 16.055 11.205C 16.944 11.201 17.153 10.978 17.374 9.8C 17.518 9.03 17.808 8.4 18.018 8.4C 18.228 8.4 18.4 8.11 18.4 7.757C 18.4 7.27 18.644 7.174 19.4 7.364C 19.977 7.509 20.4 7.443 20.4 7.208C 20.4 6.983 19.77 6.8 19 6.8C 18.022 6.8 17.6 6.619 17.6 6.2C 17.6 5.87 17.78 5.6 18 5.6C 18.22 5.6 18.4 5.33 18.4 5C 18.4 4.67 18.56 4.4 18.757 4.4C 18.953 4.4 19.226 3.95 19.364 3.4C 19.52 2.779 19.899 2.4 20.364 2.4C 20.83 2.4 21.208 2.779 21.364 3.4C 21.502 3.95 21.792 4.4 22.008 4.4C 22.223 4.4 22.4 4.67 22.4 5C 22.4 5.33 22.58 5.6 22.8 5.6C 23.487 5.6 23.238 4.604 22.4 4C 21.96 3.683 21.6 3.193 21.6 2.912C 21.6 2.252 23.07 2.242 23.335 2.9C 23.446 3.175 23.551 2.905 23.568 2.3C 23.592 1.477 23.802 1.2 24.4 1.2C 24.84 1.2 25.2 1.031 25.2 0.825C 25.2 0.619 25.785 0.378 26.5 0.289C 27.391 0.179 27.139 0.108 25.7 0.064C 24.524 0.028 23.6 0.176 23.6 0.4C 23.6 0.62 23.33 0.8 23 0.8C 22.67 0.8 22.4 0.62 22.4 0.4C 22.4 0.143 18.4 0 11.2 0L11.2 0L0 0L0 12.8zM28 1.2C 28.776 1.701 29.2 1.701 29.2 1.2C 29.2 0.98 28.795 0.803 28.3 0.806C 27.572 0.811 27.515 0.886 28 1.2M19.6 4.8C 19.6 5.02 20.005 5.197 20.5 5.194C 21.228 5.189 21.285 5.114 20.8 4.8C 20.024 4.299 19.6 4.299 19.6 4.8M17.2 5.8C 17.2 6.133 16.844 6.4 16.4 6.4C 15.956 6.4 15.6 6.133 15.6 5.8C 15.6 5.467 15.956 5.2 16.4 5.2C 16.844 5.2 17.2 5.467 17.2 5.8M17.6 7.813C 17.6 8.149 17.33 8.529 17 8.655C 16.67 8.782 16.4 9.316 16.4 9.843C 16.4 10.67 16.21 10.8 15 10.8C 13.711 10.8 13.6 10.705 13.6 9.6C 13.6 8.653 13.775 8.4 14.429 8.4C 14.884 8.4 15.527 8.13 15.857 7.8C 16.634 7.023 17.6 7.03 17.6 7.813M13.2 11C 13.2 11.333 12.844 11.6 12.4 11.6C 11.956 11.6 11.6 11.333 11.6 11C 11.6 10.667 11.956 10.4 12.4 10.4C 12.844 10.4 13.2 10.667 13.2 11M6.4 16.2C 6.4 16.53 6.13 16.8 5.8 16.8C 5.47 16.8 5.2 16.53 5.2 16.2C 5.2 15.87 5.47 15.6 5.8 15.6C 6.13 15.6 6.4 15.87 6.4 16.2M2.4 21.8C 2.4 22.13 2.13 22.4 1.8 22.4C 1.47 22.4 1.2 22.13 1.2 21.8C 1.2 21.47 1.47 21.2 1.8 21.2C 2.13 21.2 2.4 21.47 2.4 21.8M104.427 66.775C 104.069 67.001 104.82 67.054 106.427 66.915C 107.842 66.792 109.075 66.626 109.167 66.546C 109.541 66.219 104.956 66.44 104.427 66.775M270.9 66.676C 271.285 66.776 271.915 66.776 272.3 66.676C 272.685 66.575 272.37 66.493 271.6 66.493C 270.83 66.493 270.515 66.575 270.9 66.676M277.6 66.674C 283.807 66.953 295.487 66.975 295.064 66.706C 294.809 66.544 290.19 66.445 284.8 66.484C 279.41 66.524 276.17 66.609 277.6 66.674M99.68 67.595C 98.954 67.767 98.234 68.039 98.08 68.2C 97.768 68.527 100.153 68.077 101.4 67.573C 102.412 67.165 101.443 67.177 99.68 67.595M298.2 67.6C 298.64 67.789 299.27 67.944 299.6 67.944C 299.978 67.944 299.904 67.817 299.4 67.6C 298.96 67.411 298.33 67.256 298 67.256C 297.622 67.256 297.696 67.383 298.2 67.6M92.862 70.044C 91.907 70.491 91.214 70.947 91.323 71.056C 91.432 71.166 92.394 70.801 93.461 70.246C 95.78 69.04 95.33 68.887 92.862 70.044M104.261 70.019C 103.194 70.198 102.225 70.442 102.107 70.56C 101.846 70.82 105.65 70.428 107.6 69.993L107.6 69.993L109 69.68L107.6 69.687C 106.83 69.691 105.327 69.841 104.261 70.019M294.833 70.144C 294.925 70.224 295.81 70.396 296.8 70.527C 298.002 70.686 298.334 70.647 297.8 70.41C 297.036 70.072 294.486 69.843 294.833 70.144M99.2 71.2C 98.712 71.515 98.764 71.589 99.476 71.594C 99.958 71.597 100.464 71.42 100.6 71.2C 100.915 70.691 99.988 70.691 99.2 71.2M87.4 73.04C 84.686 74.822 81.036 77.736 79.4 79.427C 76.476 82.449 76.788 82.421 80.027 79.371C 83.532 76.071 89.02 72 89.963 72C 90.178 72 90.464 71.82 90.6 71.6C 91.087 70.812 90.155 71.231 87.4 73.04M96.6 72.214C 95.6 72.696 95.566 72.751 96.4 72.548C 97.533 72.271 98.807 71.621 98.2 71.63C 97.98 71.633 97.26 71.896 96.6 72.214M302.4 71.933C 302.73 72.136 303.45 72.424 304 72.571C 304.695 72.757 304.817 72.725 304.4 72.467C 304.07 72.264 303.35 71.976 302.8 71.829C 302.105 71.643 301.983 71.675 302.4 71.933M86.2 77.857L85 78.885L86.3 78.156C 87.015 77.755 87.6 77.286 87.6 77.114C 87.6 76.675 87.546 76.703 86.2 77.857M320.2 79.6C 321.506 80.92 322.665 82 322.775 82C 322.885 82 321.906 80.92 320.6 79.6C 319.294 78.28 318.135 77.2 318.025 77.2C 317.915 77.2 318.894 78.28 320.2 79.6M316.4 80.2C 317.146 80.97 317.847 81.6 317.957 81.6C 318.067 81.6 317.546 80.97 316.8 80.2C 316.054 79.43 315.353 78.8 315.243 78.8C 315.133 78.8 315.654 79.43 316.4 80.2M82.961 80.591C 82.059 81.347 80.826 82.649 80.221 83.483L80.221 83.483L79.122 85L80.54 83.479C 81.32 82.643 82.643 81.342 83.479 80.588C 85.453 78.81 85.081 78.812 82.961 80.591M319.6 83.4C 320.346 84.17 321.047 84.8 321.157 84.8C 321.267 84.8 320.746 84.17 320 83.4C 319.254 82.63 318.553 82 318.443 82C 318.333 82 318.854 82.63 319.6 83.4M74.334 85.5C 73.147 86.909 71.104 90.437 71.339 90.672C 71.472 90.806 71.708 90.574 71.864 90.157C 72.133 89.436 72.571 88.721 74.412 86C 75.305 84.681 75.261 84.4 74.334 85.5M77.663 86.4C 77.175 87.06 76.923 87.6 77.102 87.6C 77.281 87.6 77.746 87.06 78.136 86.4C 78.526 85.74 78.779 85.2 78.698 85.2C 78.617 85.2 78.151 85.74 77.663 86.4M324.173 89.543C 325.151 91.161 326.08 92.601 326.237 92.743C 326.795 93.246 324.184 88.759 323.297 87.689C 322.8 87.09 323.194 87.924 324.173 89.543M69.875 93.247C 68.9 95.497 69.242 95.608 70.319 93.391C 70.798 92.406 71.054 91.6 70.889 91.6C 70.724 91.6 70.268 92.341 69.875 93.247M330.067 94.42C 330.301 95.092 330.567 95.567 330.657 95.476C 330.856 95.278 330.101 93.2 329.831 93.2C 329.727 93.2 329.833 93.749 330.067 94.42M72.044 96.844C 71.798 97.551 71.666 98.2 71.752 98.285C 71.838 98.371 72.109 97.862 72.356 97.156C 72.602 96.449 72.734 95.8 72.648 95.715C 72.562 95.629 72.291 96.138 72.044 96.844M67.876 98.7C 67.601 99.183 67.108 102.221 67.342 101.989C 67.596 101.738 68.376 98.4 68.181 98.4C 68.107 98.4 67.97 98.535 67.876 98.7M71.246 99.067C 71.221 99.324 71.084 99.864 70.941 100.267C 70.74 100.836 70.794 100.897 71.179 100.542C 71.452 100.291 71.589 99.751 71.484 99.342C 71.379 98.934 71.272 98.81 71.246 99.067M332.056 100.4C 332.056 100.73 332.211 101.36 332.4 101.8C 332.617 102.304 332.744 102.378 332.744 102C 332.744 101.67 332.589 101.04 332.4 100.6C 332.183 100.096 332.056 100.022 332.056 100.4M329.256 101.6C 329.256 101.93 329.411 102.56 329.6 103C 329.817 103.504 329.944 103.578 329.944 103.2C 329.944 102.87 329.789 102.24 329.6 101.8C 329.383 101.296 329.256 101.222 329.256 101.6M70.273 102.881C 69.905 104.393 69.476 109.016 69.725 108.789C 69.852 108.673 70.133 107.146 70.351 105.395C 70.741 102.248 70.706 101.101 70.273 102.881M66.649 104.615C 66.512 104.973 66.425 106.196 66.455 107.333L66.455 107.333L66.509 109.4L66.809 106.8C 67.12 104.103 67.076 103.503 66.649 104.615M333.328 108C 333.328 109.43 333.401 110.015 333.489 109.3C 333.578 108.585 333.578 107.415 333.489 106.7C 333.401 105.985 333.328 106.57 333.328 108M330.597 200.8C 330.597 251.29 330.643 271.945 330.7 246.7C 330.757 221.455 330.757 180.145 330.7 154.9C 330.643 129.655 330.597 150.31 330.597 200.8M145.785 120.9C 145.68 121.175 145.641 157.31 145.697 201.2L145.697 201.2L145.8 281L146 200.7C 146.11 156.535 146.149 120.4 146.087 120.4C 146.026 120.4 145.889 120.625 145.785 120.9M209.8 120.603C 210.685 120.911 215.172 121.029 214.704 120.732C 214.427 120.556 213.12 120.424 211.8 120.438C 210.48 120.452 209.58 120.526 209.8 120.603M166.596 164.2L166.6 189.4L182.6 189.407L198.6 189.414L182.703 189.302L166.806 189.191L166.699 164.095L166.591 139L166.596 164.2zM207.4 139.18C 208.161 139.526 211.117 139.764 210.767 139.451C 210.675 139.369 209.7 139.193 208.6 139.059C 207.254 138.895 206.861 138.935 207.4 139.18M233.751 163.2C 233.751 165.73 233.816 166.765 233.896 165.5C 233.975 164.235 233.975 162.165 233.896 160.9C 233.816 159.635 233.751 160.67 233.751 163.2M333.293 162.4C 333.293 163.17 333.375 163.485 333.476 163.1C 333.576 162.715 333.576 162.085 333.476 161.7C 333.375 161.315 333.293 161.63 333.293 162.4M333.293 166.4C 333.293 167.17 333.375 167.485 333.476 167.1C 333.576 166.715 333.576 166.085 333.476 165.7C 333.375 165.315 333.293 165.63 333.293 166.4M333.395 232.8C 333.395 266.35 333.442 280.075 333.5 263.3C 333.558 246.525 333.558 219.075 333.5 202.3C 333.442 185.525 333.395 199.25 333.395 232.8M166.554 207.777C 166.432 208.094 166.417 208.679 166.52 209.077C 166.643 209.552 166.723 209.424 166.754 208.704L166.754 208.704L166.8 207.608L185.7 207.5L204.6 207.392L185.687 207.296C 169.524 207.214 166.743 207.284 166.554 207.777M241.737 235C 241.739 236.76 241.809 237.43 241.893 236.489C 241.978 235.549 241.977 234.109 241.891 233.289C 241.805 232.47 241.736 233.24 241.737 235M177.5 262.7C 183.495 262.762 193.305 262.762 199.3 262.7C 205.295 262.638 200.39 262.587 188.4 262.587C 176.41 262.587 171.505 262.638 177.5 262.7M66.484 282.4C 66.445 289.11 66.544 294.808 66.706 295.063C 66.974 295.486 66.95 278.971 66.673 272.8C 66.609 271.37 66.524 275.69 66.484 282.4M70.028 295.833C 70.044 296.475 70.216 297.36 70.41 297.8C 70.647 298.334 70.686 298.002 70.527 296.8C 70.246 294.68 69.988 294.18 70.028 295.833M67.256 298C 67.256 298.33 67.411 298.96 67.6 299.4C 67.817 299.904 67.944 299.978 67.944 299.6C 67.944 299.27 67.789 298.64 67.6 298.2C 67.383 297.696 67.256 297.622 67.256 298M71.829 302.8C 71.976 303.35 72.264 304.07 72.467 304.4C 72.725 304.817 72.757 304.695 72.571 304C 72.424 303.45 72.136 302.73 71.933 302.4C 71.675 301.983 71.643 302.105 71.829 302.8M325.814 313.435C 325.441 314.004 325.205 314.538 325.289 314.622C 325.373 314.707 325.758 314.241 326.144 313.588C 327.006 312.128 326.748 312.009 325.814 313.435M320.575 315.7L319.4 317L320.7 315.825C 321.415 315.179 322 314.594 322 314.525C 322 314.216 321.67 314.488 320.575 315.7M80 316.6C 80.746 317.37 81.447 318 81.557 318C 81.667 318 81.146 317.37 80.4 316.6C 79.654 315.83 78.953 315.2 78.843 315.2C 78.733 315.2 79.254 315.83 80 316.6M83.2 319.8C 83.946 320.57 84.647 321.2 84.757 321.2C 84.867 321.2 84.346 320.57 83.6 319.8C 82.854 319.03 82.153 318.4 82.043 318.4C 81.933 318.4 82.454 319.03 83.2 319.8M78.4 319.325C 78.4 319.394 78.985 319.979 79.7 320.625L79.7 320.625L81 321.8L79.825 320.5C 78.73 319.288 78.4 319.016 78.4 319.325M91.2 325.384C 91.2 325.494 91.92 325.951 92.8 326.4C 93.68 326.849 94.4 327.126 94.4 327.016C 94.4 326.906 93.68 326.449 92.8 326C 91.92 325.551 91.2 325.274 91.2 325.384M313.2 326.036C 312.536 326.579 312.469 326.715 313 326.44C 314.305 325.766 315.028 325.212 314.6 325.215C 314.38 325.217 313.75 325.586 313.2 326.036M101.8 329.6C 102.24 329.789 102.87 329.944 103.2 329.944C 103.578 329.944 103.504 329.817 103 329.6C 102.56 329.411 101.93 329.256 101.6 329.256C 101.222 329.256 101.296 329.383 101.8 329.6M154.9 330.7C 180.145 330.757 221.455 330.757 246.7 330.7C 271.945 330.643 251.29 330.597 200.8 330.597C 150.31 330.597 129.655 330.643 154.9 330.7M100.6 332.4C 101.04 332.589 101.67 332.744 102 332.744C 102.378 332.744 102.304 332.617 101.8 332.4C 101.36 332.211 100.73 332.056 100.4 332.056C 100.022 332.056 100.096 332.183 100.6 332.4M105 333.22C 105.44 333.398 106.88 333.542 108.2 333.54C 111.216 333.536 110.658 333.322 107 333.081C 105.373 332.974 104.535 333.032 105 333.22M169.113 333.495C 170.276 333.576 172.076 333.576 173.113 333.493C 174.151 333.411 173.2 333.345 171 333.346C 168.8 333.347 167.951 333.414 169.113 333.495M204.7 333.5C 221.035 333.558 247.765 333.558 264.1 333.5C 280.435 333.442 267.07 333.395 234.4 333.395C 201.73 333.395 188.365 333.442 204.7 333.5" stroke="none" fill="#7E5EA5" fill-rule="nonzero" />
        <path d="M145.132 66.7C 165.004 66.757 197.404 66.757 217.132 66.7C 236.859 66.643 220.6 66.596 181 66.596C 141.4 66.596 125.259 66.643 145.132 66.7M255.513 66.695C 256.676 66.776 258.476 66.776 259.513 66.693C 260.551 66.611 259.6 66.545 257.4 66.546C 255.2 66.547 254.351 66.614 255.513 66.695M264.7 66.682C 265.195 66.778 266.005 66.778 266.5 66.682C 266.995 66.587 266.59 66.509 265.6 66.509C 264.61 66.509 264.205 66.587 264.7 66.682M101.4 67.61C 100.866 67.847 101.198 67.886 102.4 67.727C 103.39 67.596 104.275 67.424 104.367 67.344C 104.714 67.043 102.164 67.272 101.4 67.61M295.7 67.476C 296.085 67.576 296.715 67.576 297.1 67.476C 297.485 67.375 297.17 67.293 296.4 67.293C 295.63 67.293 295.315 67.375 295.7 67.476M300.2 68.4C 300.64 68.589 301.27 68.744 301.6 68.744C 301.978 68.744 301.904 68.617 301.4 68.4C 300.96 68.211 300.33 68.056 300 68.056C 299.622 68.056 299.696 68.183 300.2 68.4M153.1 69.5C 178.895 69.557 221.105 69.557 246.9 69.5C 272.695 69.443 251.59 69.397 200 69.397C 148.41 69.397 127.305 69.443 153.1 69.5M101.4 70.4C 100.896 70.617 100.822 70.744 101.2 70.744C 101.53 70.744 102.16 70.589 102.6 70.4C 103.104 70.183 103.178 70.056 102.8 70.056C 102.47 70.056 101.84 70.211 101.4 70.4M297.8 70.4C 298.24 70.589 298.87 70.744 299.2 70.744C 299.578 70.744 299.504 70.617 299 70.4C 298.56 70.211 297.93 70.056 297.6 70.056C 297.222 70.056 297.296 70.183 297.8 70.4M85.058 75.018C 84.036 75.798 83.2 76.534 83.2 76.652C 83.2 76.833 85.727 75.013 86.98 73.929C 88.046 73.006 86.675 73.783 85.058 75.018M79.574 79.9C 77.036 82.517 73.781 86.233 75.633 84.4C 77.729 82.325 82.911 76.8 82.762 76.8C 82.662 76.8 81.228 78.195 79.574 79.9M317.2 76.91C 317.2 76.971 318.595 78.366 320.3 80.01L320.3 80.01L323.4 83L320.41 79.9C 317.633 77.021 317.2 76.617 317.2 76.91M82.923 80.307C 81.561 81.568 79.878 83.32 79.183 84.2C 78.361 85.24 78.597 85.067 79.859 83.705C 80.927 82.553 82.7 80.806 83.8 79.823C 84.9 78.84 85.71 78.031 85.6 78.025C 85.49 78.018 84.285 79.045 82.923 80.307M318.615 82C 320.152 83.65 321.913 85.63 322.53 86.4C 323.501 87.612 323.485 87.554 322.411 85.974C 321.729 84.969 319.967 82.989 318.495 81.574L318.495 81.574L315.821 79L318.615 82zM68.229 98.629C 68.081 99.215 68.038 99.772 68.132 99.866C 68.227 99.96 68.424 99.558 68.571 98.971C 68.719 98.385 68.762 97.828 68.668 97.734C 68.573 97.64 68.376 98.042 68.229 98.629M67.456 101.684C 67.321 102.188 67.228 103.05 67.249 103.6C 67.272 104.189 67.431 103.871 67.636 102.825C 68.003 100.952 67.873 100.127 67.456 101.684M70.229 101.829C 70.081 102.415 70.038 102.972 70.132 103.066C 70.227 103.16 70.424 102.758 70.571 102.171C 70.719 101.585 70.762 101.028 70.668 100.934C 70.573 100.84 70.376 101.242 70.229 101.829M330.509 107.6C 330.509 108.59 330.587 108.995 330.682 108.5C 330.778 108.005 330.778 107.195 330.682 106.7C 330.587 106.205 330.509 106.61 330.509 107.6M69.397 200C 69.397 251.59 69.443 272.695 69.5 246.9C 69.557 221.105 69.557 178.895 69.5 153.1C 69.443 127.305 69.397 148.41 69.397 200M66.596 179.6C 66.596 218.43 66.643 234.315 66.7 214.9C 66.757 195.485 66.757 163.715 66.7 144.3C 66.643 124.885 66.596 140.77 66.596 179.6M333.388 135.8C 333.388 149.88 333.439 155.582 333.5 148.471C 333.561 141.36 333.561 129.84 333.5 122.871C 333.438 115.902 333.388 121.72 333.388 135.8M146.262 120.7C 146.094 120.972 168.651 120.969 198.4 120.693C 204.67 120.635 195.546 120.545 178.124 120.494C 160.702 120.442 146.364 120.535 146.262 120.7M243.8 133.6C 244.659 134.48 245.452 135.2 245.562 135.2C 245.672 135.2 245.059 134.48 244.2 133.6C 243.341 132.72 242.548 132 242.438 132C 242.328 132 242.941 132.72 243.8 133.6M245.178 185.1L243.8 186.6L245.3 185.222C 246.696 183.938 246.984 183.6 246.678 183.6C 246.612 183.6 245.937 184.275 245.178 185.1M199.5 189.482C 199.995 189.578 200.805 189.578 201.3 189.482C 201.795 189.387 201.39 189.309 200.4 189.309C 199.41 189.309 199.005 189.387 199.5 189.482M205.491 207.489C 206.201 207.577 207.461 207.579 208.291 207.492C 209.121 207.405 208.54 207.333 207 207.331C 205.46 207.329 204.781 207.4 205.491 207.489M66.544 257.2C 66.544 259.29 66.612 260.145 66.694 259.1C 66.776 258.055 66.776 256.345 66.694 255.3C 66.612 254.255 66.544 255.11 66.544 257.2M210.705 262.683C 211.202 262.779 211.922 262.775 212.305 262.675C 212.687 262.575 212.28 262.496 211.4 262.501C 210.52 262.505 210.207 262.587 210.705 262.683M67.293 296.4C 67.293 297.17 67.375 297.485 67.476 297.1C 67.576 296.715 67.576 296.085 67.476 295.7C 67.375 295.315 67.293 295.63 67.293 296.4M70.056 297.6C 70.056 297.93 70.211 298.56 70.4 299C 70.617 299.504 70.744 299.578 70.744 299.2C 70.744 298.87 70.589 298.24 70.4 297.8C 70.183 297.296 70.056 297.222 70.056 297.6M68.056 300C 68.056 300.33 68.211 300.96 68.4 301.4C 68.617 301.904 68.744 301.978 68.744 301.6C 68.744 301.27 68.589 300.64 68.4 300.2C 68.183 299.696 68.056 299.622 68.056 300M77.191 313.588C 77.657 314.241 78.242 314.902 78.491 315.056C 78.741 315.211 78.441 314.676 77.825 313.868C 76.488 312.115 75.984 311.892 77.191 313.588M320.175 316.5L319 317.8L320.3 316.625C 321.015 315.979 321.6 315.394 321.6 315.325C 321.6 315.016 321.27 315.288 320.175 316.5M81.4 318.4C 82.706 319.72 83.865 320.8 83.975 320.8C 84.085 320.8 83.106 319.72 81.8 318.4C 80.494 317.08 79.335 316 79.225 316C 79.115 316 80.094 317.08 81.4 318.4M79.6 320.2C 81.017 321.63 82.267 322.8 82.377 322.8C 82.487 322.8 81.417 321.63 80 320.2C 78.583 318.77 77.333 317.6 77.223 317.6C 77.113 317.6 78.183 318.77 79.6 320.2M320.386 319.9L318.2 322.2L320.5 320.014C 322.637 317.982 322.983 317.6 322.686 317.6C 322.624 317.6 321.589 318.635 320.386 319.9M316.175 320.5L315 321.8L316.3 320.625C 317.015 319.979 317.6 319.394 317.6 319.325C 317.6 319.016 317.27 319.288 316.175 320.5M85.446 322.072C 87.219 323.411 87.562 323.517 86.216 322.311C 85.547 321.712 84.841 321.217 84.646 321.211C 84.451 321.205 84.811 321.592 85.446 322.072M104.8 330.398C 105.788 330.716 109.489 330.935 109.167 330.656C 109.075 330.577 107.83 330.414 106.4 330.294C 104.84 330.163 104.2 330.205 104.8 330.398M122.3 333.5C 128.955 333.561 139.845 333.561 146.5 333.5C 153.155 333.438 147.71 333.388 134.4 333.388C 121.09 333.388 115.645 333.438 122.3 333.5" stroke="none" fill="#8C6CAF" fill-rule="nonzero" />
	</g>
</g>
</svg>