<?xml version="1.0" standalone="no"?>
<!DOCTYPE svg PUBLIC "-//W3C//DTD SVG 1.0//EN" "http://www.w3.org/TR/2001/REC-SVG-20010904/DTD/svg10.dtd">
<svg xmlns="http://www.w3.org/2000/svg" xmlns:xlink="http://www.w3.org/1999/xlink" id="body_1" width="614" height="461">

<g transform="matrix(0.9003906 0 0 0.9003906 76.500015 9.003906)">
	<g>
        <path d="M18.1 0.288C 17.385 0.378 16.8 0.619 16.8 0.825C 16.8 1.031 16.457 1.2 16.038 1.2C 15.131 1.2 12 2.808 12 3.274C 12 3.453 11.732 3.6 11.403 3.6C 11.075 3.6 10.582 3.96 10.307 4.4C 10.032 4.84 9.597 5.2 9.34 5.2C 8.695 5.2 5.2 8.651 5.2 9.289C 5.2 9.574 4.84 10.032 4.4 10.307C 3.96 10.582 3.6 11.075 3.6 11.403C 3.6 11.732 3.453 12 3.274 12C 2.817 12 1.2 15.122 1.2 16.004C 1.2 16.405 0.975 16.808 0.7 16.9C -0.036 17.145 -0.036 382.855 0.7 383.1C 0.975 383.192 1.2 383.576 1.2 383.954C 1.2 384.821 2.102 386.793 2.5 386.797C 2.665 386.799 2.8 387.07 2.8 387.4C 2.8 387.73 2.98 388 3.2 388C 3.42 388 3.6 388.32 3.6 388.712C 3.6 389.103 3.96 389.683 4.4 390C 4.84 390.317 5.2 390.722 5.2 390.899C 5.2 391.429 8.737 394.8 9.293 394.8C 9.576 394.8 10.032 395.16 10.307 395.6C 10.582 396.04 11.075 396.4 11.403 396.4C 11.732 396.4 12 396.547 12 396.726C 12 397.183 15.122 398.8 16.004 398.8C 16.405 398.8 16.808 399.025 16.9 399.3C 17.145 400.036 382.855 400.036 383.1 399.3C 383.192 399.025 383.595 398.8 383.996 398.8C 384.878 398.8 388 397.183 388 396.726C 388 396.547 388.32 396.4 388.712 396.4C 389.103 396.4 389.683 396.04 390 395.6C 390.317 395.16 390.722 394.8 390.899 394.8C 391.319 394.8 394.8 391.319 394.8 390.899C 394.8 390.722 395.16 390.317 395.6 390C 396.04 389.683 396.4 389.103 396.4 388.712C 396.4 388.32 396.547 388 396.726 388C 397.183 388 398.8 384.878 398.8 383.996C 398.8 383.595 399.025 383.192 399.3 383.1C 399.699 382.967 399.8 345.991 399.8 200C 399.8 54.009 399.699 17.033 399.3 16.9C 399.025 16.808 398.8 16.405 398.8 16.004C 398.8 15.122 397.183 12 396.726 12C 396.547 12 396.4 11.732 396.4 11.403C 396.4 11.075 396.04 10.582 395.6 10.307C 395.16 10.032 394.8 9.576 394.8 9.293C 394.8 8.737 391.429 5.2 390.899 5.2C 390.722 5.2 390.317 4.84 390 4.4C 389.683 3.96 389.103 3.6 388.712 3.6C 388.32 3.6 388 3.453 388 3.274C 388 2.817 384.878 1.2 383.996 1.2C 383.595 1.2 383.192 0.975 383.1 0.7C 382.941 0.224 21.866 -0.183 18.1 0.288M378.614 18.606C 380.034 19.484 380.869 20.394 381.682 21.952L381.682 21.952L382.8 24.091L382.796 200.146L382.792 376.2L381.591 378.295C 380.706 379.837 379.837 380.706 378.295 381.591L378.295 381.591L376.2 382.792L200.146 382.796L24.091 382.8L21.952 381.682C 20.394 380.869 19.484 380.034 18.606 378.614L18.606 378.614L17.4 376.663L17.4 200L17.4 23.337L18.606 21.386C 19.485 19.965 20.394 19.131 21.954 18.316L21.954 18.316L24.096 17.197L200.38 17.299L376.663 17.4L378.614 18.606zM109.944 70.549C 108.248 71.162 106.745 72.562 105.608 74.586C 104.802 76.02 104.8 76.371 104.8 200L104.8 200L104.8 323.976L105.629 325.488C 106.839 327.694 108.576 329.078 111.027 329.791C 112.962 330.353 119.83 330.403 176.494 330.263C 239.105 330.108 241.53 330.058 247.4 328.788C 248.5 328.55 249.987 328.256 250.704 328.134C 251.421 328.012 252.106 327.751 252.227 327.556C 252.348 327.36 252.876 327.2 253.4 327.2C 253.924 327.2 254.464 327.02 254.6 326.8C 254.736 326.58 255.109 326.4 255.428 326.4C 260.685 326.4 276.227 315.09 282.675 306.571C 286.171 301.954 288.593 297.787 290.681 292.8C 291.003 292.03 291.432 291.087 291.634 290.705C 291.835 290.323 292 289.659 292 289.229C 292 288.799 292.159 288.349 292.354 288.229C 292.549 288.108 292.807 287.513 292.929 286.905C 293.051 286.297 293.353 284.99 293.601 284C 294.829 279.087 294.961 276.891 294.98 261C 294.994 249.683 294.85 243.856 294.516 242.2C 294.25 240.88 293.87 238.99 293.672 238C 291.43 226.801 281.93 211.918 272.6 204.988C 271.72 204.335 270.762 203.575 270.472 203.3C 270.181 203.025 269.146 202.333 268.172 201.762C 265.929 200.448 265.941 199.691 268.226 198.247C 280.081 190.757 291.04 175.146 293.672 162C 293.87 161.01 294.25 159.12 294.516 157.8C 294.85 156.144 294.994 150.317 294.98 139C 294.961 123.109 294.829 120.913 293.601 116C 293.353 115.01 293.051 113.703 292.929 113.095C 292.807 112.487 292.549 111.892 292.354 111.771C 292.159 111.651 292 111.201 292 110.771C 292 110.341 291.835 109.677 291.634 109.295C 291.432 108.913 290.982 107.925 290.634 107.1C 289.233 103.784 288.572 102.473 286.856 99.6C 280.835 89.526 272.183 81.48 261.8 76.301C 257.154 73.984 256.296 73.6 255.757 73.6C 255.445 73.6 254.877 73.442 254.495 73.249C 253.639 72.817 251.28 72.141 245.8 70.758C 242.781 69.996 112.029 69.795 109.944 70.549M243.086 87.561C 245.239 87.979 247.81 88.622 248.8 88.99C 251.066 89.831 256.134 92.124 256.4 92.429C 256.51 92.555 256.87 92.758 257.2 92.881C 261.785 94.579 271.117 104.871 274.353 111.8C 274.867 112.9 275.448 114.113 275.644 114.495C 275.84 114.877 276 115.541 276 115.971C 276 116.401 276.156 116.849 276.346 116.967C 276.536 117.084 276.8 117.77 276.932 118.49C 277.064 119.211 277.449 121.06 277.786 122.6C 278.676 126.659 278.676 151.741 277.786 155.8C 277.449 157.34 277.064 159.189 276.932 159.91C 276.8 160.63 276.536 161.316 276.346 161.433C 276.156 161.551 276 161.934 276 162.284C 276 162.634 275.192 164.582 274.204 166.612C 269.769 175.73 263.248 182.382 254.4 186.811C 249.239 189.395 248.706 189.577 242.4 190.912C 240.785 191.253 224.46 191.38 181 191.389L181 191.389L121.8 191.4L121.699 139.1L121.597 86.8L180.384 86.8C 236.525 86.8 239.348 86.834 243.086 87.561M240.976 208.837C 243.345 209.264 245.174 209.699 248 210.509C 256.153 212.847 265.191 219.46 270.432 226.924C 272.5 229.867 276 236.674 276 237.75C 276 238.081 276.16 238.452 276.356 238.573C 276.551 238.694 276.804 239.379 276.916 240.096C 277.029 240.813 277.408 242.66 277.76 244.2C 278.537 247.599 278.7 273.259 277.968 276.869C 275.731 287.901 269.746 297.947 261.791 304.019C 259.816 305.526 257.222 307.2 256.861 307.2C 256.644 307.2 256.407 307.344 256.333 307.52C 256.158 307.94 251.009 310.4 250.305 310.4C 250.005 310.4 249.589 310.557 249.38 310.749C 248.678 311.394 242.238 312.785 238.058 313.195C 233.595 313.631 123.351 313.786 122.233 313.357C 121.572 313.104 121.209 209.324 121.867 208.667C 122.345 208.188 238.296 208.354 240.976 208.837" stroke="none" fill="#047CFC" fill-rule="nonzero" />
        <path d="M22.485 18.984C 21.095 19.751 19.646 21.226 18.99 22.541C 18.264 23.995 18.075 377.2 18.8 377.2C 19.02 377.2 19.2 377.435 19.2 377.722C 19.2 378.296 21.287 380.313 22.695 381.1C 23.406 381.498 59.683 381.6 200.338 381.6L200.338 381.6L377.087 381.6L378.944 379.966C 379.965 379.067 380.8 378.077 380.8 377.766C 380.8 377.455 380.98 377.2 381.2 377.2C 381.845 377.2 381.745 23.849 381.1 22.695C 380.313 21.287 378.296 19.2 377.722 19.2C 377.435 19.2 377.2 19.02 377.2 18.8C 377.2 18.151 23.662 18.334 22.485 18.984M243.8 69.6C 243.936 69.82 244.926 70 246 70C 247.074 70 248.064 70.18 248.2 70.4C 248.336 70.62 249.056 70.8 249.8 70.8C 250.544 70.8 251.264 70.98 251.4 71.2C 251.536 71.42 252.177 71.6 252.824 71.6C 253.471 71.6 254 71.78 254 72C 254 72.22 254.362 72.4 254.805 72.4C 255.248 72.4 255.923 72.559 256.305 72.753C 256.687 72.948 257.45 73.286 258 73.504C 259.541 74.117 264.575 76.557 264.8 76.8C 264.91 76.919 265.502 77.237 266.115 77.506C 266.728 77.776 267.448 78.178 267.715 78.4C 267.982 78.621 269.178 79.458 270.374 80.259C 274.804 83.226 284.8 93.217 284.8 94.678C 284.8 94.965 284.946 95.2 285.124 95.2C 285.877 95.2 291.6 105.845 291.6 107.247C 291.6 107.635 291.78 108.064 292 108.2C 292.22 108.336 292.4 108.797 292.4 109.224C 292.4 109.651 292.58 110 292.8 110C 293.02 110 293.2 110.529 293.2 111.176C 293.2 111.823 293.38 112.464 293.6 112.6C 293.82 112.736 294 113.366 294 114C 294 114.634 294.18 115.264 294.4 115.4C 294.62 115.536 294.8 116.346 294.8 117.2C 294.8 118.054 294.98 118.864 295.2 119C 295.42 119.136 295.6 120.396 295.6 121.8C 295.6 123.204 295.78 124.464 296 124.6C 296.517 124.919 296.548 152.887 296.032 153.42C 295.83 153.629 295.568 154.97 295.45 156.4C 295.092 160.723 294.739 162.8 294.36 162.8C 294.162 162.8 294 163.419 294 164.176C 294 164.933 293.82 165.664 293.6 165.8C 293.38 165.936 293.2 166.399 293.2 166.829C 293.2 167.259 293.041 167.923 292.847 168.305C 292.652 168.687 292.317 169.45 292.102 170C 291.135 172.469 289.314 176.362 288.303 178.118C 287.697 179.172 287.2 180.207 287.2 180.418C 287.2 180.628 287.032 180.8 286.827 180.8C 286.622 180.8 286.34 181.159 286.201 181.598C 286.062 182.036 285.734 182.626 285.474 182.908C 285.213 183.189 284.372 184.225 283.606 185.21C 281.24 188.246 281.07 188.441 278.555 190.994C 277.21 192.359 275.411 193.999 274.557 194.638C 273.704 195.277 272.622 196.174 272.153 196.631C 271.684 197.089 270.469 197.989 269.451 198.631C 267.193 200.058 267.193 199.942 269.451 201.369C 270.469 202.011 271.684 202.911 272.153 203.369C 272.622 203.826 273.704 204.723 274.557 205.362C 281.234 210.362 288.296 220.278 292.102 230C 292.317 230.55 292.652 231.313 292.847 231.695C 293.041 232.077 293.2 232.842 293.2 233.395C 293.2 233.948 293.38 234.4 293.6 234.4C 293.82 234.4 294 235.019 294 235.776C 294 236.533 294.18 237.264 294.4 237.4C 294.62 237.536 294.8 238.346 294.8 239.2C 294.8 240.054 294.98 240.864 295.2 241C 295.42 241.136 295.6 242.396 295.6 243.8C 295.6 245.204 295.78 246.464 296 246.6C 296.254 246.757 296.4 251.996 296.4 261C 296.4 270.004 296.254 275.243 296 275.4C 295.78 275.536 295.6 276.796 295.6 278.2C 295.6 279.604 295.42 280.864 295.2 281C 294.98 281.136 294.8 281.946 294.8 282.8C 294.8 283.654 294.62 284.464 294.4 284.6C 294.18 284.736 294 285.467 294 286.224C 294 286.981 293.82 287.6 293.6 287.6C 293.38 287.6 293.2 288.14 293.2 288.8C 293.2 289.46 293.02 290 292.8 290C 292.58 290 292.4 290.349 292.4 290.776C 292.4 291.203 292.22 291.664 292 291.8C 291.78 291.936 291.6 292.399 291.6 292.829C 291.6 293.259 291.427 293.923 291.216 294.305C 291.005 294.687 290.287 296.139 289.621 297.531C 288.116 300.676 284.27 306.616 282.856 307.98C 282.274 308.541 281.328 309.63 280.754 310.4C 279.277 312.381 277.735 313.935 275.2 315.998C 273.99 316.983 272.91 317.881 272.8 317.995C 271.263 319.574 266.262 322.652 261.8 324.766C 260.26 325.496 258.687 326.252 258.305 326.446C 257.923 326.641 257.338 326.8 257.005 326.8C 256.672 326.8 256.4 326.98 256.4 327.2C 256.4 327.42 255.86 327.6 255.2 327.6C 254.54 327.6 254 327.78 254 328C 254 328.22 253.471 328.4 252.824 328.4C 252.177 328.4 251.536 328.58 251.4 328.8C 251.264 329.02 250.544 329.2 249.8 329.2C 249.056 329.2 248.336 329.38 248.2 329.6C 248.064 329.82 247.074 330 246 330C 244.926 330 243.936 330.18 243.8 330.4C 243.637 330.664 220.867 330.8 176.789 330.8L176.789 330.8L110.024 330.8L108.52 329.955C 106.875 329.031 105.201 327.289 105.2 326.5C 105.2 326.225 105.064 326 104.897 326C 103.623 326 103.6 323.796 103.6 200C 103.6 76.204 103.623 74 104.897 74C 105.064 74 105.2 73.775 105.2 73.5C 105.201 72.77 106.79 71.087 108.4 70.113L108.4 70.113L109.8 69.266L176.676 69.233C 220.865 69.211 243.637 69.336 243.8 69.6M122.4 139.199L122.4 190.405L182.3 190.256C 239.293 190.114 246 189.998 246 189.16C 246 188.962 246.54 188.8 247.2 188.8C 247.86 188.8 248.4 188.62 248.4 188.4C 248.4 188.18 248.709 188 249.086 188C 249.908 188 256.543 184.824 256.733 184.34C 256.807 184.153 257.055 184 257.284 184C 258.702 184 266.766 176.683 269.188 173.2C 269.723 172.43 270.26 171.71 270.381 171.6C 270.775 171.241 271.964 169.057 273.431 166C 274.223 164.35 275.035 162.687 275.235 162.305C 275.436 161.923 275.6 161.259 275.6 160.829C 275.6 160.399 275.78 159.936 276 159.8C 276.22 159.664 276.4 158.948 276.4 158.21C 276.4 157.471 276.625 156.792 276.9 156.7C 277.29 156.57 277.4 152.711 277.4 139.2C 277.4 125.689 277.29 121.83 276.9 121.7C 276.625 121.608 276.4 120.929 276.4 120.19C 276.4 119.452 276.22 118.736 276 118.6C 275.78 118.464 275.6 118.001 275.6 117.571C 275.6 117.141 275.438 116.477 275.241 116.095C 275.043 115.713 274.109 113.78 273.166 111.8C 272.222 109.82 271.304 108.14 271.125 108.067C 270.946 107.993 270.8 107.758 270.8 107.543C 270.8 106.95 268.515 104.129 265.4 100.877C 263.86 99.269 262.54 97.784 262.467 97.577C 262.393 97.37 262.105 97.2 261.826 97.2C 261.547 97.2 260.785 96.705 260.133 96.1C 258.814 94.876 256.967 93.667 255.9 93.329C 255.515 93.207 255.2 92.948 255.2 92.753C 255.2 92.559 254.855 92.4 254.433 92.4C 254.012 92.4 253.607 92.265 253.533 92.1C 253.313 91.604 249.385 90.225 243.8 88.682C 242.674 88.37 224.445 88.203 182.3 88.116L182.3 88.116L122.4 87.992L122.4 139.199zM122.4 261L122.4 312.4L180.1 312.378C 224.944 312.361 238.513 312.242 241 311.845C 244.732 311.248 249.741 309.933 249.933 309.5C 250.007 309.335 250.502 309.2 251.033 309.2C 251.565 309.2 252 309.02 252 308.8C 252 308.58 252.36 308.4 252.8 308.4C 253.24 308.4 253.6 308.22 253.6 308C 253.6 307.78 253.96 307.6 254.4 307.6C 254.84 307.6 255.2 307.441 255.2 307.247C 255.2 307.052 255.515 306.793 255.9 306.671C 258.985 305.693 270.764 294.485 270.793 292.5C 270.797 292.225 270.98 292 271.2 292C 271.42 292 271.604 291.775 271.609 291.5C 271.614 291.225 271.97 290.55 272.4 290C 272.83 289.45 273.186 288.685 273.191 288.3C 273.196 287.915 273.38 287.6 273.6 287.6C 273.82 287.6 274 287.328 274 286.995C 274 286.662 274.18 286.032 274.4 285.595C 274.62 285.158 274.98 284.442 275.2 284.005C 275.42 283.568 275.6 282.859 275.6 282.429C 275.6 281.999 275.78 281.536 276 281.4C 276.22 281.264 276.4 280.659 276.4 280.056C 276.4 279.453 276.625 278.735 276.9 278.46C 277.285 278.075 277.4 273.977 277.4 260.713C 277.4 247.272 277.29 243.43 276.9 243.3C 276.625 243.208 276.4 242.529 276.4 241.79C 276.4 241.052 276.22 240.336 276 240.2C 275.78 240.064 275.6 239.601 275.6 239.171C 275.6 238.741 275.443 238.077 275.25 237.695C 273.752 234.72 273.2 233.447 273.2 232.962C 273.2 232.653 273.041 232.4 272.847 232.4C 272.652 232.4 272.393 232.085 272.271 231.7C 272.042 230.977 270.768 228.753 270.381 228.4C 270.26 228.29 269.73 227.57 269.202 226.8C 267.972 225.004 262.621 219.647 260.8 218.389C 260.03 217.857 259.051 217.102 258.625 216.711C 258.198 216.32 257.628 216 257.358 216C 257.088 216 256.807 215.863 256.733 215.696C 256.522 215.214 249.875 211.993 249.1 211.997C 248.715 211.999 248.4 211.82 248.4 211.6C 248.4 211.38 247.86 211.2 247.2 211.2C 246.54 211.2 246 211.02 246 210.8C 246 210.58 245.291 210.4 244.424 210.4C 243.557 210.4 242.736 210.22 242.6 210C 242.437 209.736 221.929 209.6 182.376 209.6L182.376 209.6L122.4 209.6L122.4 261" stroke="none" fill="#CCE4FC" fill-rule="nonzero" />
        <path d="M112.9 17.5C 160.805 17.556 239.195 17.556 287.1 17.5C 335.005 17.444 295.81 17.398 200 17.398C 104.19 17.398 64.995 17.444 112.9 17.5M382.598 200C 382.598 296.03 382.644 335.315 382.7 287.3C 382.756 239.285 382.756 160.715 382.7 112.7C 382.644 64.685 382.598 103.97 382.598 200M17.398 200C 17.398 295.59 17.444 334.695 17.5 286.9C 17.556 239.105 17.556 160.895 17.5 113.1C 17.444 65.305 17.398 104.41 17.398 200M104.197 200C 104.197 267.43 104.244 295.015 104.3 261.3C 104.356 227.585 104.356 172.415 104.3 138.7C 104.244 104.985 104.197 132.57 104.197 200M237.7 87.476C 238.085 87.576 238.715 87.576 239.1 87.476C 239.485 87.375 239.17 87.293 238.4 87.293C 237.63 87.293 237.315 87.375 237.7 87.476M265 99.6C 265.859 100.48 266.652 101.2 266.762 101.2C 266.872 101.2 266.259 100.48 265.4 99.6C 264.541 98.72 263.748 98 263.638 98C 263.528 98 264.141 98.72 265 99.6M295.776 138.8C 295.776 145.07 295.832 147.635 295.899 144.5C 295.967 141.365 295.967 136.235 295.899 133.1C 295.832 129.965 295.776 132.53 295.776 138.8M295.293 154.8C 295.293 155.57 295.375 155.885 295.476 155.5C 295.576 155.115 295.576 154.485 295.476 154.1C 295.375 153.715 295.293 154.03 295.293 154.8M295.293 245.2C 295.293 245.97 295.375 246.285 295.476 245.9C 295.576 245.515 295.576 244.885 295.476 244.5C 295.375 244.115 295.293 244.43 295.293 245.2M295.776 261.2C 295.776 267.47 295.832 270.035 295.899 266.9C 295.967 263.765 295.967 258.635 295.899 255.5C 295.832 252.365 295.776 254.93 295.776 261.2M265.2 300.2C 264.228 301.19 263.523 302 263.633 302C 263.743 302 264.628 301.19 265.6 300.2C 266.572 299.21 267.277 298.4 267.167 298.4C 267.057 298.4 266.172 299.21 265.2 300.2M150.7 313.1C 166.375 313.158 192.025 313.158 207.7 313.1C 223.375 313.042 210.55 312.995 179.2 312.995C 147.85 312.995 135.025 313.042 150.7 313.1M143.7 330.7C 161.025 330.758 189.375 330.758 206.7 330.7C 224.025 330.642 209.85 330.595 175.2 330.595C 140.55 330.595 126.375 330.642 143.7 330.7M112.7 382.7C 160.715 382.756 239.285 382.756 287.3 382.7C 335.315 382.644 296.03 382.598 200 382.598C 103.97 382.598 64.685 382.644 112.7 382.7" stroke="none" fill="#81BDFC" fill-rule="nonzero" />
        <path d="M112.5 17.9C 160.625 17.956 239.375 17.956 287.5 17.9C 335.625 17.844 296.25 17.798 200 17.798C 103.75 17.798 64.375 17.844 112.5 17.9M17.798 200C 17.798 296.25 17.844 335.625 17.9 287.5C 17.956 239.375 17.956 160.625 17.9 112.5C 17.844 64.375 17.798 103.75 17.798 200M238.5 69.476C 238.885 69.576 239.515 69.576 239.9 69.476C 240.285 69.375 239.97 69.293 239.2 69.293C 238.43 69.293 238.115 69.375 238.5 69.476M150.7 87.5C 166.375 87.558 192.025 87.558 207.7 87.5C 223.375 87.442 210.55 87.395 179.2 87.395C 147.85 87.395 135.025 87.442 150.7 87.5M265.2 221.8C 265.946 222.57 266.647 223.2 266.757 223.2C 266.867 223.2 266.346 222.57 265.6 221.8C 264.854 221.03 264.153 220.4 264.043 220.4C 263.933 220.4 264.454 221.03 265.2 221.8M150.9 312.7C 166.685 312.758 192.515 312.758 208.3 312.7C 224.085 312.642 211.17 312.595 179.6 312.595C 148.03 312.595 135.115 312.642 150.9 312.7" stroke="none" fill="#94CCFC" fill-rule="nonzero" />
        <path d="M382.198 200C 382.198 295.81 382.244 335.005 382.3 287.1C 382.356 239.195 382.356 160.805 382.3 112.9C 382.244 64.995 382.198 104.19 382.198 200M103.797 200C 103.797 267.65 103.844 295.325 103.9 261.5C 103.956 227.675 103.956 172.325 103.9 138.5C 103.844 104.675 103.797 132.35 103.797 200M122.198 139.4L122.2 191L179.2 191.002L236.2 191.004L179.302 190.901L122.403 190.797L122.299 139.299L122.195 87.8L122.198 139.4zM296.178 139.2C 296.178 146.13 296.233 148.965 296.299 145.5C 296.366 142.035 296.366 136.365 296.299 132.9C 296.233 129.435 296.178 132.27 296.178 139.2M277.429 152.229C 277.281 152.815 277.238 153.372 277.332 153.466C 277.427 153.56 277.624 153.158 277.771 152.571C 277.919 151.985 277.962 151.428 277.868 151.334C 277.773 151.24 277.576 151.642 277.429 152.229M277.785 191.3L275.8 193.4L277.9 191.415C 279.851 189.571 280.183 189.2 279.885 189.2C 279.822 189.2 278.877 190.145 277.785 191.3M237.105 190.683C 237.602 190.779 238.322 190.775 238.705 190.675C 239.087 190.575 238.68 190.496 237.8 190.501C 236.92 190.505 236.607 190.587 237.105 190.683M277.6 208.6C 278.346 209.37 279.047 210 279.157 210C 279.267 210 278.746 209.37 278 208.6C 277.254 207.83 276.553 207.2 276.443 207.2C 276.333 207.2 276.854 207.83 277.6 208.6M122.185 209.3C 122.08 209.575 122.041 232.93 122.099 261.2L122.099 261.2L122.203 312.6L122.302 260.89L122.4 209.179L180.7 209.29C 212.765 209.35 238.19 209.278 237.2 209.13C 233.603 208.589 122.392 208.754 122.185 209.3M267.429 224.438C 268.073 225.229 268.681 225.808 268.779 225.725C 268.878 225.642 268.351 224.995 267.609 224.287L267.609 224.287L266.258 223L267.429 224.438zM277.256 246.8C 277.256 247.13 277.411 247.76 277.6 248.2C 277.817 248.704 277.944 248.778 277.944 248.4C 277.944 248.07 277.789 247.44 277.6 247C 277.383 246.496 277.256 246.422 277.256 246.8M296.178 260.8C 296.178 267.73 296.233 270.565 296.299 267.1C 296.366 263.635 296.366 257.965 296.299 254.5C 296.233 251.035 296.178 253.87 296.178 260.8M264.778 300.3L263.4 301.8L264.9 300.422C 266.296 299.138 266.584 298.8 266.278 298.8C 266.212 298.8 265.537 299.475 264.778 300.3M112.9 382.3C 160.805 382.356 239.195 382.356 287.1 382.3C 335.005 382.244 295.81 382.198 200 382.198C 104.19 382.198 64.995 382.244 112.9 382.3" stroke="none" fill="#B2D4FC" fill-rule="nonzero" />
        <path d="M21.952 18.318C 19.403 19.649 17.617 22.204 17.378 24.86L17.378 24.86L17.222 26.6L17.585 24.931C 18.486 20.786 20.899 18.483 25.4 17.472C 26.014 17.335 25.955 17.282 25.146 17.246C 24.566 17.221 23.129 17.703 21.952 18.318M374.033 17.347C 374.125 17.428 374.92 17.604 375.8 17.738C 376.915 17.907 377.158 17.871 376.6 17.619C 375.832 17.271 373.69 17.044 374.033 17.347M378.684 18.977C 379.39 19.558 380.443 20.61 381.024 21.316C 381.606 22.022 381.943 22.33 381.775 22C 380.993 20.469 379.966 19.339 378.738 18.661L378.738 18.661L377.4 17.922L378.684 18.977zM382.068 23.2C 382.088 24.239 382.718 25.946 382.732 25C 382.738 24.56 382.589 23.84 382.4 23.4C 382.189 22.91 382.061 22.832 382.068 23.2M110.538 69.906C 110.284 70.068 140.064 70.2 176.716 70.2C 213.368 70.2 242.826 70.086 242.178 69.947C 240.511 69.59 111.099 69.549 110.538 69.906M245.2 70.8C 245.75 70.976 246.65 71.12 247.2 71.12L247.2 71.12L248.2 71.12L247.2 70.8C 246.65 70.624 245.75 70.48 245.2 70.48L245.2 70.48L244.2 70.48L245.2 70.8zM106.928 72.102C 105.532 73.652 105.405 74.265 106.768 72.868C 107.484 72.135 107.994 71.461 107.903 71.369C 107.811 71.278 107.373 71.607 106.928 72.102M249.2 71.6C 249.53 71.813 250.16 71.978 250.6 71.966L250.6 71.966L251.4 71.944L250.6 71.6C 249.404 71.086 248.405 71.086 249.2 71.6M252 72.4C 252.33 72.613 252.87 72.788 253.2 72.788C 253.733 72.788 253.733 72.745 253.2 72.4C 252.87 72.187 252.33 72.012 252 72.012C 251.467 72.012 251.467 72.055 252 72.4M254.6 73.2C 254.736 73.42 255.242 73.587 255.724 73.572C 256.569 73.545 256.571 73.531 255.8 73.2C 254.699 72.727 254.308 72.727 254.6 73.2M262 76.141C 262 76.408 265.69 78.443 265.863 78.271C 265.94 78.193 265.103 77.639 264.002 77.04C 262.901 76.44 262 76.036 262 76.141M104.597 200C 104.597 268.09 104.644 295.945 104.7 261.9C 104.756 227.855 104.756 172.145 104.7 138.1C 104.644 104.055 104.597 131.91 104.597 200M266.4 78.501C 266.4 78.607 267.112 79.165 267.982 79.741C 268.853 80.317 271.058 81.985 272.882 83.449C 274.707 84.912 275.767 85.638 275.237 85.062C 273.719 83.411 266.4 77.976 266.4 78.501M121.699 139.1L121.8 191.4L180.662 191.501C 213.035 191.557 239.89 191.467 240.338 191.301C 240.786 191.136 214.343 191.048 181.576 191.106L181.576 191.106L122 191.213L122 139.196L122 87.18L182.26 87.29C 215.403 87.35 241.818 87.275 240.96 87.123C 240.102 86.971 212.894 86.836 180.499 86.823L180.499 86.823L121.597 86.8L121.699 139.1zM244.4 88.057C 245.17 88.292 246.596 88.735 247.568 89.041C 248.54 89.347 249.407 89.527 249.494 89.44C 249.707 89.226 246.142 88.109 244.4 87.843L244.4 87.843L243 87.629L244.4 88.057zM278 87.742C 278 87.908 278.555 88.619 279.233 89.322C 279.912 90.025 281.464 91.905 282.682 93.5C 283.9 95.095 284.974 96.4 285.068 96.4C 285.388 96.4 282.888 93.005 280.797 90.6C 278.052 87.444 278 87.39 278 87.742M250.4 89.888C 250.73 90.012 252.215 90.72 253.7 91.462C 255.185 92.203 256.394 92.673 256.386 92.505C 256.371 92.156 250.808 89.566 250.2 89.625C 249.98 89.646 250.07 89.764 250.4 89.888M256.833 92.963C 257.38 93.496 261.183 95.895 260.991 95.586C 260.697 95.11 257.355 92.8 256.961 92.8C 256.799 92.8 256.742 92.873 256.833 92.963M264.055 98.436C 265.516 99.846 267.577 102.08 268.637 103.4C 270.939 106.27 271.44 106.823 270.988 106C 269.675 103.608 264.71 98.204 262.2 96.436C 261.76 96.126 262.595 97.026 264.055 98.436M285.775 97.818C 287.789 100.892 290.4 105.947 290.4 106.772C 290.4 106.981 290.584 107.266 290.808 107.405C 291.307 107.713 290.205 104.854 288.879 102.4C 287.52 99.883 285.556 96.8 285.312 96.8C 285.2 96.8 285.408 97.258 285.775 97.818M273.1 110.266C 274.145 112.282 275.073 113.859 275.162 113.77C 275.383 113.55 272.956 108.838 271.984 107.6C 271.552 107.05 272.054 108.25 273.1 110.266M292.028 110.676C 292.013 111.158 292.18 111.664 292.4 111.8C 292.873 112.092 292.873 111.701 292.4 110.6C 292.069 109.829 292.055 109.831 292.028 110.676M292.806 113.033C 292.809 113.455 292.995 114.07 293.218 114.4C 293.515 114.838 293.552 114.676 293.356 113.8C 293.027 112.329 292.798 112.01 292.806 113.033M275.228 114.676C 275.318 115.715 275.944 116.596 275.972 115.724C 275.987 115.242 275.82 114.736 275.6 114.6C 275.38 114.464 275.213 114.498 275.228 114.676M293.634 116.2C 293.622 116.64 293.787 117.27 294 117.6C 294.514 118.395 294.514 117.396 294 116.2L294 116.2L293.656 115.4L293.634 116.2zM294.428 120.033C 294.444 120.785 294.62 121.76 294.82 122.2C 295.065 122.739 295.105 122.346 294.941 121C 294.651 118.619 294.389 118.124 294.428 120.033M277.062 120.6C 277.196 121.48 277.372 122.275 277.453 122.367C 277.756 122.71 277.529 120.568 277.181 119.8C 276.929 119.242 276.893 119.485 277.062 120.6M277.8 139.2C 277.8 148.246 277.917 155.232 278.06 154.724C 278.203 154.216 278.32 147.23 278.32 139.2C 278.32 131.17 278.203 124.184 278.06 123.676C 277.917 123.168 277.8 130.154 277.8 139.2M295.381 139C 295.381 147.14 295.434 150.413 295.5 146.274C 295.565 142.134 295.565 135.474 295.499 131.474C 295.434 127.473 295.381 130.86 295.381 139M294.582 156.982C 294.429 158.002 294.394 158.927 294.504 159.037C 294.614 159.147 294.829 158.402 294.982 157.382C 295.135 156.361 295.17 155.437 295.06 155.327C 294.95 155.217 294.735 155.961 294.582 156.982M277.249 156.6C 277.216 157.04 277.096 157.85 276.983 158.4L276.983 158.4L276.777 159.4L277.206 158.419C 277.442 157.879 277.561 157.069 277.472 156.619C 277.313 155.821 277.307 155.821 277.249 156.6M276.446 159.867C 276.421 160.124 276.284 160.664 276.141 161.067C 275.94 161.636 275.994 161.697 276.379 161.342C 276.652 161.091 276.789 160.551 276.684 160.142C 276.579 159.734 276.472 159.61 276.446 159.867M293.849 160.615C 293.712 160.973 293.616 161.656 293.636 162.133C 293.662 162.747 293.785 162.608 294.059 161.656C 294.457 160.272 294.294 159.458 293.849 160.615M292.629 165.629C 292.258 166.761 292.027 167.76 292.115 167.849C 292.203 167.937 292.576 167.079 292.943 165.943C 293.31 164.807 293.541 163.808 293.456 163.723C 293.372 163.638 292.999 164.496 292.629 165.629M274.278 165.805C 273.912 166.572 273.695 167.2 273.796 167.2C 274.07 167.2 275.284 164.751 275.101 164.568C 275.014 164.481 274.644 165.038 274.278 165.805M291.372 169.3C 291.093 170.191 289.443 173.948 288.737 175.3C 288.536 175.685 288.474 176 288.599 176C 288.843 176 291.308 170.798 291.774 169.3C 291.928 168.805 291.964 168.4 291.854 168.4C 291.744 168.4 291.527 168.805 291.372 169.3M270.527 172.317C 267.966 176.187 263.093 181.088 259.418 183.488C 256.185 185.601 255.266 186.36 257 185.487C 261.934 183.002 273.993 170.66 272.725 169.392C 272.639 169.305 271.65 170.622 270.527 172.317M287.421 177.712C 287.015 178.421 285.975 180.055 285.108 181.344C 284.242 182.633 283.726 183.569 283.962 183.424C 284.808 182.901 288.614 176.881 288.299 176.565C 288.221 176.488 287.826 177.004 287.421 177.712M282.744 184.7C 281.475 186.232 281.019 186.942 281.481 186.665C 281.993 186.358 283.769 184 283.489 184C 283.398 184 283.063 184.315 282.744 184.7M277.4 190.567C 275.64 192.366 273.39 194.517 272.4 195.348C 271.07 196.464 270.964 196.617 271.996 195.933C 273.666 194.827 281.573 187.213 281 187.262C 280.78 187.281 279.16 188.768 277.4 190.567M246.6 189.6L245.8 189.944L246.6 189.966C 247.04 189.978 247.67 189.813 248 189.6C 248.795 189.086 247.796 189.086 246.6 189.6M243.4 190.4C 242.293 190.682 242.277 190.709 243.2 190.747C 243.75 190.769 244.47 190.613 244.8 190.4C 245.481 189.96 245.129 189.96 243.4 190.4M268.307 198.126C 266.238 199.519 265.907 200.533 267.3 201.208C 268.112 201.602 268.132 201.589 267.5 201.078C 266.441 200.221 266.633 199.753 268.6 198.4C 269.59 197.719 270.4 197.08 270.4 196.981C 270.4 196.719 270.38 196.73 268.307 198.126M270.825 203.466C 270.838 203.65 271.665 204.395 272.663 205.123C 273.66 205.851 274.366 206.269 274.232 206.052C 273.834 205.408 270.798 203.104 270.825 203.466M274.8 206.485C 274.8 206.808 280.098 212.035 280.261 211.872C 280.325 211.808 279.122 210.511 277.589 208.989C 276.055 207.467 274.8 206.34 274.8 206.485M121.867 208.667C 121.209 209.324 121.572 313.104 122.233 313.357C 122.581 313.491 148.276 313.556 179.333 313.502L179.333 313.502L235.8 313.404L179 313.202L122.2 313L122.099 260.894L121.997 208.787L181.623 208.894C 214.417 208.952 240.832 208.883 240.324 208.74C 239.099 208.395 122.211 208.323 121.867 208.667M241.633 209.344C 241.725 209.424 242.61 209.606 243.6 209.75C 244.858 209.933 245.219 209.891 244.8 209.612C 244.26 209.253 241.232 208.997 241.633 209.344M245.633 210.144C 245.725 210.223 246.34 210.408 247 210.556C 247.876 210.752 248.038 210.715 247.6 210.418C 247.06 210.053 245.232 209.798 245.633 210.144M249 211.2C 250.101 211.673 250.492 211.673 250.2 211.2C 250.064 210.98 249.558 210.813 249.076 210.828C 248.231 210.855 248.229 210.869 249 211.2M281.94 214.316C 282.433 215.009 283.044 215.704 283.297 215.86C 283.55 216.017 283.354 215.577 282.86 214.884C 282.367 214.191 281.756 213.496 281.503 213.34C 281.25 213.183 281.446 213.623 281.94 214.316M256.2 214.292C 256.42 214.503 257.959 215.601 259.62 216.733C 263.572 219.424 267.875 223.748 270.477 227.641C 271.626 229.36 272.637 230.696 272.724 230.609C 273.531 229.802 264.984 220.131 260.6 216.891C 258.365 215.24 255.3 213.429 256.2 214.292M285.358 219.001C 286.928 221.341 288.828 224.968 291.539 230.8L291.539 230.8L292.004 231.8L291.757 230.8C 291.092 228.106 285.586 217.95 284.14 216.75C 283.777 216.449 284.325 217.462 285.358 219.001M293.646 238C 293.627 238.55 293.787 239.27 294 239.6C 294.494 240.364 294.494 239.542 294 238L294 238L293.68 237L293.646 238zM276.028 238.676C 276.118 239.715 276.744 240.596 276.772 239.724C 276.787 239.242 276.62 238.736 276.4 238.6C 276.18 238.464 276.013 238.498 276.028 238.676M294.487 241.8C 294.483 242.46 294.624 243.45 294.8 244L294.8 244L295.12 245L295.113 244C 295.109 243.45 294.968 242.46 294.8 241.8L294.8 241.8L294.495 240.6L294.487 241.8zM276.92 241.8C 277.866 245.249 278.06 249.246 277.935 262.728C 277.861 270.719 277.917 276.839 278.06 276.328C 279.131 272.505 278.202 242.413 276.977 241.26C 276.825 241.117 276.799 241.36 276.92 241.8M295.381 261C 295.381 269.14 295.434 272.413 295.5 268.274C 295.565 264.134 295.565 257.474 295.499 253.474C 295.434 249.473 295.381 252.86 295.381 261M294.689 278C 294.536 278.55 294.427 279.54 294.446 280.2C 294.477 281.292 294.514 281.258 294.852 279.811C 295.275 278.006 295.131 276.411 294.689 278M277.26 278.467C 277.227 279.054 277.096 279.864 276.97 280.267C 276.752 280.96 276.765 280.961 277.195 280.29C 277.446 279.899 277.577 279.089 277.486 278.49L277.486 278.49L277.32 277.4L277.26 278.467zM276.118 282.723C 275.863 283.536 275.526 284.56 275.369 285C 275.182 285.522 275.218 285.661 275.472 285.4C 275.949 284.909 276.996 281.663 276.755 281.421C 276.659 281.325 276.372 281.911 276.118 282.723M293.849 282.615C 293.712 282.973 293.616 283.656 293.636 284.133C 293.662 284.747 293.785 284.608 294.059 283.656C 294.457 282.272 294.294 281.458 293.849 282.615M293.049 285.815C 292.912 286.173 292.815 286.766 292.834 287.133C 292.853 287.5 293.027 287.269 293.221 286.62C 293.598 285.358 293.465 284.733 293.049 285.815M274.255 287.455C 273.876 288.249 273.648 288.981 273.749 289.082C 273.849 289.183 274.241 288.614 274.618 287.818C 274.996 287.022 275.223 286.29 275.124 286.191C 275.025 286.091 274.633 286.66 274.255 287.455M292.267 288.267C 292.12 288.413 292.011 288.908 292.025 289.367C 292.049 290.133 292.082 290.123 292.434 289.242C 292.826 288.263 292.744 287.789 292.267 288.267M291.345 291.1C 291.087 291.882 290.342 293.647 289.318 295.9C 288.624 297.428 286.977 300.347 285.775 302.182C 285.408 302.742 285.2 303.2 285.312 303.2C 285.945 303.2 290.901 294.036 291.616 291.545C 291.967 290.319 291.73 289.93 291.345 291.1M268.8 296.415C 268.8 296.644 267.135 298.485 265.1 300.507C 263.065 302.53 261.94 303.797 262.6 303.323C 264.814 301.733 270.03 296 269.262 296C 269.008 296 268.8 296.187 268.8 296.415M282.648 306.7C 281.39 308.405 280.925 309.17 281.613 308.4C 282.946 306.909 285.341 303.6 285.086 303.6C 285.003 303.6 283.905 304.995 282.648 306.7M259.6 305.235L258.2 306.448L259.695 305.524C 260.517 305.016 261.192 304.465 261.195 304.3C 261.202 303.864 261.138 303.902 259.6 305.235M252.4 309.2C 250.97 309.848 250.02 310.383 250.288 310.389C 250.867 310.402 255.2 308.461 255.2 308.188C 255.2 307.925 255.278 307.896 252.4 309.2M246.8 311.217C 245.59 311.621 244.849 311.962 245.154 311.976C 245.935 312.01 248.925 311.131 249.38 310.733C 249.923 310.258 249.351 310.365 246.8 311.217M277.383 312.56C 276.494 313.462 274.784 315.075 273.583 316.145C 272.278 317.309 272.043 317.606 273 316.885C 275.373 315.096 279.43 311.312 279.2 311.103C 279.09 311.002 278.272 311.658 277.383 312.56M238 312.8C 235.811 313.068 235.809 313.07 237.6 313.1C 238.59 313.116 240.3 312.99 241.4 312.818C 244.072 312.402 241.365 312.388 238 312.8M268.6 319.782C 267.28 320.725 264.895 322.166 263.3 322.986C 261.705 323.806 260.4 324.544 260.4 324.625C 260.4 325.344 270.302 319.53 270.999 318.402C 271.353 317.83 271.264 317.881 268.6 319.782M104.8 324.716C 104.8 325.168 106.992 328.224 107.574 328.584C 108.329 329.05 108.031 328.517 106.8 327.2C 106.14 326.493 105.6 325.675 105.6 325.381C 105.6 325.088 105.42 324.736 105.2 324.6C 104.98 324.464 104.8 324.516 104.8 324.716M257.6 325.624C 256.83 326.03 255.896 326.37 255.524 326.381C 255.152 326.391 254.724 326.599 254.574 326.843C 254.385 327.147 254.597 327.193 255.25 326.988C 256.937 326.458 260.219 324.865 259.6 324.876C 259.27 324.882 258.37 325.218 257.6 325.624M252.2 327.6C 251.908 328.073 252.299 328.073 253.4 327.6C 254.171 327.269 254.169 327.255 253.324 327.228C 252.842 327.213 252.336 327.38 252.2 327.6M249.2 328.4C 248.405 328.914 249.404 328.914 250.6 328.4L250.6 328.4L251.4 328.056L250.6 328.034C 250.16 328.022 249.53 328.187 249.2 328.4M245.4 329.2L244.6 329.544L245.4 329.532C 245.84 329.526 246.65 329.376 247.2 329.2L247.2 329.2L248.2 328.88L247.2 328.868C 246.65 328.862 245.84 329.011 245.4 329.2M110.4 330C 110.73 330.213 111.36 330.378 111.8 330.366L111.8 330.366L112.6 330.344L111.8 330C 110.604 329.486 109.605 329.486 110.4 330M238.8 330L237 330.28L238.8 330.317C 239.79 330.337 241.32 330.205 242.2 330.023L242.2 330.023L243.8 329.692L242.2 329.706C 241.32 329.714 239.79 329.846 238.8 330M17.228 374.633C 17.244 375.275 17.416 376.16 17.61 376.6C 17.847 377.134 17.886 376.802 17.727 375.6C 17.446 373.48 17.188 372.98 17.228 374.633M382.449 374.8C 382.416 375.13 382.289 375.85 382.167 376.4C 381.975 377.264 382.007 377.303 382.399 376.688C 382.648 376.297 382.775 375.577 382.681 375.088C 382.586 374.6 382.482 374.47 382.449 374.8M18.661 378.738C 19.339 379.966 20.469 380.993 22 381.775C 22.33 381.943 22.022 381.606 21.316 381.024C 20.61 380.443 19.558 379.39 18.977 378.684L18.977 378.684L17.922 377.4L18.661 378.738zM380.8 379C 380.324 379.77 379.814 380.404 379.667 380.409C 379.52 380.414 378.95 380.789 378.4 381.244C 377.85 381.698 377.67 381.934 378 381.769C 379.458 381.039 380.653 379.985 381.323 378.838C 382.318 377.132 381.868 377.271 380.8 379M23.4 382.4C 23.84 382.589 24.56 382.738 25 382.732C 25.643 382.723 25.604 382.657 24.8 382.4C 23.432 381.962 22.381 381.962 23.4 382.4M375.2 382.4L374.2 382.72L375.2 382.754C 375.75 382.773 376.47 382.613 376.8 382.4C 377.564 381.906 376.742 381.906 375.2 382.4" stroke="none" fill="#5CACFC" fill-rule="nonzero" />
        <path d="M143.7 69.5C 161.025 69.558 189.375 69.558 206.7 69.5C 224.025 69.442 209.85 69.395 175.2 69.395C 140.55 69.395 126.375 69.442 143.7 69.5" stroke="none" fill="#94C4FC" fill-rule="nonzero" />
        <path d="M112.5 18.3C 160.625 18.356 239.375 18.356 287.5 18.3C 335.625 18.244 296.25 18.198 200 18.198C 103.75 18.198 64.375 18.244 112.5 18.3M378.4 19.325C 378.4 19.394 378.985 19.979 379.7 20.625L379.7 20.625L381 21.8L379.825 20.5C 378.73 19.288 378.4 19.016 378.4 19.325M381.798 200C 381.798 296.69 381.844 336.245 381.9 287.9C 381.956 239.555 381.956 160.445 381.9 112.1C 381.844 63.755 381.798 103.31 381.798 200M18.198 200C 18.198 296.25 18.244 335.625 18.3 287.5C 18.356 239.375 18.356 160.625 18.3 112.5C 18.244 64.375 18.198 103.75 18.198 200M275.244 84.5C 275.341 84.555 276.676 85.77 278.21 87.2L278.21 87.2L281 89.8L278.412 87.1C 276.988 85.615 275.653 84.4 275.445 84.4C 275.237 84.4 275.146 84.445 275.244 84.5M151.931 87.9C 168.284 87.958 194.924 87.958 211.131 87.9C 227.339 87.842 213.96 87.795 181.4 87.795C 148.84 87.795 135.579 87.842 151.931 87.9M265 100.4C 266.306 101.72 267.465 102.8 267.575 102.8C 267.685 102.8 266.706 101.72 265.4 100.4C 264.094 99.08 262.935 98 262.825 98C 262.715 98 263.694 99.08 265 100.4M295.952 125.687C 296.137 126.798 296.193 126.855 296.319 126.054C 296.401 125.533 296.303 124.943 296.101 124.741C 295.879 124.519 295.821 124.893 295.952 125.687M277.778 139.2C 277.778 145.91 277.832 148.655 277.899 145.3C 277.966 141.945 277.966 136.455 277.899 133.1C 277.832 129.745 277.778 132.49 277.778 139.2M264.778 178.3L263.4 179.8L264.9 178.422C 266.296 177.138 266.584 176.8 266.278 176.8C 266.212 176.8 265.537 177.475 264.778 178.3M150.931 190.7C 166.734 190.758 192.474 190.758 208.131 190.7C 223.789 190.642 210.86 190.595 179.4 190.595C 147.94 190.595 135.129 190.642 150.931 190.7M275.288 206.213C 275.886 206.843 276.447 207.277 276.535 207.179C 276.623 207.08 276.133 206.565 275.447 206.034L275.447 206.034L274.2 205.069L275.288 206.213zM150.7 209.5C 166.375 209.558 192.025 209.558 207.7 209.5C 223.375 209.442 210.55 209.395 179.2 209.395C 147.85 209.395 135.025 209.442 150.7 209.5M263.238 220.5C 263.332 220.555 264.127 221.23 265.004 222L265.004 222L266.6 223.4L265.222 221.9C 264.463 221.075 263.668 220.4 263.455 220.4C 263.241 220.4 263.144 220.445 263.238 220.5M277.778 260.8C 277.778 267.51 277.832 270.255 277.899 266.9C 277.966 263.545 277.966 258.055 277.899 254.7C 277.832 251.345 277.778 254.09 277.778 260.8M296.054 273.667C 296.025 274.034 295.884 274.664 295.741 275.067C 295.541 275.633 295.595 275.696 295.975 275.346C 296.246 275.097 296.387 274.467 296.288 273.946C 296.19 273.426 296.084 273.3 296.054 273.667M264.987 299.7L262.6 302.2L265.1 299.813C 266.475 298.499 267.6 297.374 267.6 297.313C 267.6 297.017 267.205 297.378 264.987 299.7M277.888 313.062C 276.396 314.518 275.231 315.764 275.299 315.832C 275.441 315.974 278.536 313.095 279.97 311.487C 281.66 309.592 280.695 310.322 277.888 313.062M239.105 312.283C 239.602 312.379 240.322 312.375 240.705 312.275C 241.087 312.175 240.68 312.096 239.8 312.101C 238.92 312.105 238.607 312.187 239.105 312.283M19.2 378.525C 19.2 378.594 19.785 379.179 20.5 379.825L20.5 379.825L21.8 381L20.625 379.7C 19.53 378.488 19.2 378.216 19.2 378.525M379.375 379.7L378.2 381L379.5 379.825C 380.215 379.179 380.8 378.594 380.8 378.525C 380.8 378.216 380.47 378.488 379.375 379.7M112.1 381.9C 160.445 381.956 239.555 381.956 287.9 381.9C 336.245 381.844 296.69 381.798 200 381.798C 103.31 381.798 63.755 381.844 112.1 381.9" stroke="none" fill="#BEDCFC" fill-rule="nonzero" />
	</g>
</g>
</svg>