<?xml version="1.0" standalone="no"?>
<!DOCTYPE svg PUBLIC "-//W3C//DTD SVG 1.0//EN" "http://www.w3.org/TR/2001/REC-SVG-20010904/DTD/svg10.dtd">
<svg xmlns="http://www.w3.org/2000/svg" xmlns:xlink="http://www.w3.org/1999/xlink" id="body_1" width="614" height="461">

<g transform="matrix(0.9003906 0 0 0.9003906 76.500015 9.003906)">
	<g>
        <path d="M182.789 0.137C 182.673 0.257 180.913 0.39 178.88 0.431C 176.846 0.472 175.085 0.662 174.967 0.853C 174.849 1.044 173.604 1.2 172.2 1.2C 170.796 1.2 169.536 1.38 169.4 1.6C 169.264 1.82 168.173 2 166.976 2C 165.779 2 164.8 2.163 164.8 2.361C 164.8 2.56 163.9 2.83 162.8 2.961C 161.7 3.093 159.9 3.307 158.8 3.439C 157.7 3.57 156.8 3.84 156.8 4.039C 156.8 4.237 155.99 4.4 155 4.4C 154.01 4.4 153.2 4.58 153.2 4.8C 153.2 5.02 152.581 5.2 151.824 5.2C 151.067 5.2 150.336 5.38 150.2 5.6C 150.064 5.82 149.344 6 148.6 6C 147.856 6 147.136 6.18 147 6.4C 146.864 6.62 146.223 6.8 145.576 6.8C 144.929 6.8 144.4 6.98 144.4 7.2C 144.4 7.42 143.871 7.6 143.224 7.6C 142.577 7.6 141.936 7.78 141.8 8C 141.664 8.22 141.059 8.4 140.456 8.4C 139.853 8.4 139.189 8.552 138.98 8.737C 138.575 9.097 133.8 10.631 133.8 10.401C 133.8 10.326 133.383 10.488 132.874 10.76C 132.365 11.033 131.645 11.32 131.274 11.399C 130.679 11.525 129.15 12.085 124 14.062C 123.23 14.358 122.51 14.698 122.4 14.817C 122.29 14.936 121.435 15.28 120.5 15.581C 119.565 15.882 118.8 16.279 118.8 16.464C 118.8 16.649 118.35 16.8 117.8 16.8C 117.25 16.8 116.8 16.98 116.8 17.2C 116.8 17.42 116.44 17.6 116 17.6C 115.56 17.6 115.2 17.78 115.2 18C 115.2 18.22 114.84 18.4 114.4 18.4C 113.96 18.4 113.6 18.58 113.6 18.8C 113.6 19.02 113.375 19.2 113.1 19.199C 112.47 19.197 109.046 20.897 108.867 21.3C 108.793 21.465 108.433 21.604 108.067 21.609C 107.7 21.614 106.95 21.97 106.4 22.4C 105.85 22.83 105.175 23.186 104.9 23.191C 104.625 23.196 104.4 23.38 104.4 23.6C 104.4 23.82 104.04 24 103.6 24C 103.16 24 102.8 24.18 102.8 24.4C 102.8 24.62 102.522 24.8 102.183 24.8C 101.844 24.8 101.18 25.16 100.708 25.6C 100.236 26.04 99.613 26.4 99.325 26.4C 99.036 26.4 98.8 26.56 98.8 26.757C 98.8 26.953 98.395 27.22 97.9 27.35C 97.405 27.48 95.47 28.579 93.6 29.793C 91.73 31.006 89.885 32.102 89.5 32.227C 89.115 32.352 88.8 32.622 88.8 32.827C 88.8 33.032 88.564 33.2 88.275 33.2C 87.987 33.2 87.396 33.515 86.962 33.9C 85.317 35.359 82.834 37.2 82.512 37.2C 82.327 37.2 81.917 37.56 81.6 38C 81.283 38.44 80.837 38.8 80.61 38.8C 80.382 38.8 79.431 39.52 78.497 40.4C 77.563 41.28 76.619 42 76.4 42C 76.18 42 75.259 42.72 74.352 43.6C 73.445 44.48 72.537 45.2 72.334 45.2C 72.131 45.2 71.478 45.656 70.883 46.214C 70.287 46.772 69 47.897 68.023 48.714C 65.81 50.565 50.771 65.622 48.6 68.161C 47.72 69.19 46.415 70.697 45.7 71.511C 44.985 72.325 44.4 73.146 44.4 73.335C 44.4 73.524 43.86 74.183 43.2 74.8C 42.54 75.417 42 76.118 42 76.36C 42 76.601 41.28 77.563 40.4 78.497C 39.52 79.431 38.8 80.378 38.8 80.602C 38.8 80.825 38.44 81.232 38 81.507C 37.56 81.782 37.2 82.275 37.2 82.603C 37.2 82.932 37.059 83.2 36.886 83.2C 36.714 83.2 36.279 83.695 35.921 84.3C 35.563 84.905 34.804 85.94 34.235 86.6C 33.666 87.26 33.201 88.025 33.2 88.3C 33.2 88.575 33.032 88.8 32.827 88.8C 32.622 88.8 32.342 89.151 32.206 89.58C 32.07 90.01 31.081 91.705 30.009 93.348C 28.936 94.991 27.471 97.43 26.753 98.767C 26.035 100.105 25.301 101.2 25.123 101.2C 24.946 101.2 24.8 101.56 24.8 102C 24.8 102.44 24.62 102.8 24.4 102.8C 24.18 102.8 24 103.16 24 103.6C 24 104.04 23.82 104.4 23.6 104.4C 23.38 104.4 23.2 104.678 23.2 105.017C 23.2 105.356 22.84 106.02 22.4 106.492C 21.96 106.964 21.6 107.662 21.6 108.042C 21.6 108.422 21.465 108.793 21.3 108.867C 20.892 109.048 18.387 114.076 18.394 114.7C 18.397 114.975 18.22 115.2 18 115.2C 17.78 115.2 17.6 115.56 17.6 116C 17.6 116.44 17.42 116.8 17.2 116.8C 16.98 116.8 16.8 117.25 16.8 117.8C 16.8 118.35 16.64 118.8 16.444 118.8C 16.248 118.8 15.849 119.61 15.557 120.6C 15.265 121.59 14.885 122.4 14.713 122.4C 14.541 122.4 14.4 122.672 14.4 123.005C 14.4 123.338 14.241 123.923 14.047 124.305C 13.43 125.517 11.503 130.482 11.37 131.2C 11.35 131.31 11.135 131.876 10.893 132.457C 10.65 133.039 10.33 134.166 10.181 134.962C 10.031 135.758 9.75 136.507 9.555 136.628C 9.36 136.749 9.2 137.276 9.2 137.8C 9.2 138.324 9.02 138.864 8.8 139C 8.58 139.136 8.4 139.867 8.4 140.624C 8.4 141.381 8.22 142 8 142C 7.78 142 7.6 142.54 7.6 143.2C 7.6 143.86 7.42 144.4 7.2 144.4C 6.98 144.4 6.8 144.929 6.8 145.576C 6.8 146.223 6.62 146.864 6.4 147C 6.18 147.136 6 147.867 6 148.624C 6 149.381 5.82 150 5.6 150C 5.38 150 5.2 150.72 5.2 151.6C 5.2 152.48 5.02 153.2 4.8 153.2C 4.58 153.2 4.4 154.01 4.4 155C 4.4 155.99 4.22 156.8 4 156.8C 3.78 156.8 3.6 157.599 3.6 158.576C 3.6 159.553 3.42 160.464 3.2 160.6C 2.98 160.736 2.8 161.636 2.8 162.6C 2.8 163.564 2.62 164.464 2.4 164.6C 2.18 164.736 2 165.917 2 167.224C 2 168.541 1.822 169.6 1.6 169.6C 1.371 169.6 1.2 170.8 1.2 172.4C 1.2 173.94 1.044 175.2 0.853 175.2C -0.105 175.2 -0.103 224.442 0.855 225.034C 1.045 225.151 1.2 226.407 1.2 227.824C 1.2 229.275 1.375 230.4 1.6 230.4C 1.822 230.4 2 231.459 2 232.776C 2 234.083 2.18 235.264 2.4 235.4C 2.62 235.536 2.8 236.447 2.8 237.424C 2.8 238.401 2.98 239.2 3.2 239.2C 3.42 239.2 3.6 240.1 3.6 241.2C 3.6 242.3 3.78 243.2 4 243.2C 4.22 243.2 4.4 243.999 4.4 244.976C 4.4 245.953 4.58 246.864 4.8 247C 5.02 247.136 5.2 247.867 5.2 248.624C 5.2 249.381 5.38 250 5.6 250C 5.82 250 6 250.619 6 251.376C 6 252.133 6.18 252.864 6.4 253C 6.62 253.136 6.8 253.766 6.8 254.4C 6.8 255.034 6.98 255.664 7.2 255.8C 7.42 255.936 7.6 256.487 7.6 257.024C 7.6 257.561 7.78 258 8 258C 8.22 258 8.4 258.619 8.4 259.376C 8.4 260.133 8.58 260.864 8.8 261C 9.02 261.136 9.2 261.687 9.2 262.224C 9.2 262.761 9.38 263.2 9.6 263.2C 9.82 263.2 10 263.656 10 264.213C 10 264.77 10.285 265.895 10.632 266.713C 10.98 267.531 11.329 268.47 11.408 268.8C 11.69 269.978 13.275 274.234 14.164 276.2C 14.662 277.3 15.459 279.06 15.935 280.111C 16.411 281.162 16.8 282.287 16.8 282.611C 16.8 282.935 16.98 283.2 17.2 283.2C 17.42 283.2 17.6 283.56 17.6 284C 17.6 284.44 17.78 284.8 18 284.8C 18.22 284.8 18.4 284.977 18.4 285.194C 18.4 285.41 18.94 286.702 19.6 288.065C 20.26 289.427 20.8 290.765 20.8 291.038C 20.8 291.31 20.935 291.593 21.1 291.667C 21.476 291.834 22.775 293.964 23.071 294.9C 23.193 295.285 23.452 295.6 23.647 295.6C 23.841 295.6 24 295.96 24 296.4C 24 296.84 24.18 297.2 24.4 297.2C 24.62 297.2 24.8 297.56 24.8 298C 24.8 298.44 24.98 298.8 25.2 298.8C 25.42 298.8 25.6 299.07 25.6 299.4C 25.6 299.73 25.78 300 26 300C 26.22 300 26.4 300.27 26.4 300.6C 26.4 300.93 26.58 301.2 26.8 301.2C 27.02 301.2 27.2 301.454 27.2 301.765C 27.2 302.268 31.757 309.863 32.791 311.083C 33.016 311.349 33.2 311.709 33.2 311.883C 33.201 312.057 33.666 312.74 34.235 313.4C 34.804 314.06 35.563 315.095 35.921 315.7C 36.279 316.305 36.714 316.8 36.886 316.8C 37.059 316.8 37.203 317.025 37.207 317.3C 37.216 317.879 38.827 319.991 40.7 321.877C 41.415 322.597 42 323.369 42 323.592C 42 323.816 42.72 324.741 43.6 325.648C 44.48 326.555 45.2 327.46 45.2 327.659C 45.2 328.03 46.784 329.894 49.1 332.251C 49.815 332.978 50.4 333.676 50.4 333.802C 50.4 334.148 65.794 349.6 66.138 349.6C 66.303 349.6 67.234 350.365 68.207 351.3C 69.181 352.235 70.477 353.407 71.089 353.906C 73.43 355.814 74.228 356.473 75.066 357.192C 75.542 357.601 76.346 358.157 76.852 358.428C 77.358 358.699 78.318 359.432 78.986 360.058C 79.654 360.684 80.385 361.197 80.612 361.198C 80.838 361.199 81.283 361.56 81.6 362C 81.917 362.44 82.407 362.8 82.688 362.8C 82.97 362.8 83.2 362.98 83.2 363.2C 83.2 363.42 83.378 363.6 83.595 363.6C 83.813 363.6 84.368 363.915 84.829 364.3C 85.29 364.685 86.147 365.405 86.734 365.9C 87.32 366.394 88.025 366.799 88.3 366.8C 88.575 366.8 88.8 366.958 88.8 367.151C 88.8 367.345 89.34 367.727 90 368C 90.66 368.273 91.2 368.633 91.2 368.8C 91.2 368.967 91.74 369.327 92.4 369.6C 93.06 369.873 93.6 370.236 93.6 370.405C 93.6 370.575 94.037 370.823 94.572 370.957C 95.107 371.091 95.782 371.429 96.072 371.708C 96.952 372.554 101.618 375.2 102.229 375.2C 102.543 375.2 102.8 375.38 102.8 375.6C 102.8 375.82 103.16 376 103.6 376C 104.04 376 104.401 376.135 104.403 376.3C 104.407 376.659 106.344 377.6 107.08 377.6C 107.366 377.6 107.6 377.754 107.6 377.942C 107.6 378.131 109.175 379.048 111.1 379.981C 113.025 380.914 116.04 382.381 117.8 383.242C 119.56 384.102 121.22 384.805 121.488 384.803C 121.756 384.801 122.617 385.16 123.4 385.6C 124.183 386.04 125.001 386.4 125.217 386.4C 125.596 386.4 128.683 387.686 130.095 388.433C 130.477 388.635 131.141 388.8 131.571 388.8C 132.001 388.8 132.45 388.957 132.568 389.148C 132.686 389.34 133.372 389.633 134.092 389.799C 135.655 390.161 135.756 390.193 137.8 390.962C 138.68 391.294 139.985 391.573 140.7 391.582C 141.415 391.592 142 391.78 142 392C 142 392.22 142.54 392.4 143.2 392.4C 143.86 392.4 144.4 392.58 144.4 392.8C 144.4 393.02 145.03 393.2 145.8 393.2C 146.57 393.2 147.2 393.38 147.2 393.6C 147.2 393.82 147.819 394 148.576 394C 149.333 394 150.064 394.18 150.2 394.4C 150.336 394.62 151.067 394.8 151.824 394.8C 152.581 394.8 153.2 394.98 153.2 395.2C 153.2 395.42 154.01 395.6 155 395.6C 155.99 395.6 156.8 395.78 156.8 396C 156.8 396.22 157.599 396.4 158.576 396.4C 159.553 396.4 160.464 396.58 160.6 396.8C 160.736 397.02 161.737 397.2 162.824 397.2C 163.911 397.2 164.8 397.38 164.8 397.6C 164.8 397.82 165.754 398 166.92 398C 168.086 398 169.211 398.165 169.42 398.368C 169.629 398.57 170.97 398.826 172.4 398.938C 173.83 399.049 177.34 399.348 180.2 399.601C 187.28 400.23 224.197 399.963 224.882 399.278C 225.151 399.009 226.454 398.8 227.856 398.8C 229.229 398.8 230.464 398.62 230.6 398.4C 230.736 398.18 231.827 398 233.024 398C 234.221 398 235.2 397.82 235.2 397.6C 235.2 397.38 236.179 397.2 237.376 397.2C 238.573 397.2 239.664 397.02 239.8 396.8C 239.936 396.58 240.757 396.4 241.624 396.4C 242.491 396.4 243.2 396.22 243.2 396C 243.2 395.78 243.92 395.6 244.8 395.6C 245.68 395.6 246.4 395.537 246.4 395.46C 246.4 395.383 223.452 372.371 195.405 344.322C 167.358 316.273 144.528 293.205 144.672 293.062C 144.816 292.918 144.737 292.8 144.497 292.8C 144.258 292.8 143.542 292.305 142.908 291.7C 142.273 291.095 140.341 289.34 138.613 287.8C 134.756 284.362 129.373 278.301 127.689 275.5C 127.325 274.895 126.886 274.4 126.714 274.4C 126.541 274.4 126.4 274.207 126.4 273.972C 126.4 273.737 125.882 272.791 125.248 271.87C 123.292 269.027 121.342 265.422 119.8 261.8C 119.425 260.92 118.961 259.84 118.769 259.4C 117.928 257.471 116.775 253.919 115.849 250.4C 114.885 246.739 114.516 244.553 113.617 237.179C 113.053 232.555 113.053 167.445 113.617 162.821C 114.44 156.072 114.84 153.7 115.819 149.78C 116.832 145.725 118.63 140.63 120.025 137.862C 120.451 137.016 120.8 136.086 120.8 135.796C 120.8 135.505 120.935 135.207 121.1 135.133C 121.265 135.06 121.845 134.1 122.388 133C 123.335 131.083 128.124 123.647 129.527 121.915C 133.622 116.859 138.015 112.376 141.6 109.596C 142.59 108.828 143.49 108.101 143.6 107.981C 143.71 107.86 144.43 107.325 145.2 106.792C 145.97 106.258 146.949 105.502 147.375 105.111C 147.802 104.72 148.309 104.4 148.503 104.4C 148.697 104.4 149.608 103.884 150.528 103.252C 153.873 100.956 164.757 96 166.454 96C 166.838 96 167.251 95.841 167.371 95.646C 167.492 95.451 168.087 95.193 168.695 95.071C 169.303 94.949 170.61 94.647 171.6 94.4C 179.267 92.484 182.344 92.264 201.2 92.281C 218.161 92.296 221.038 92.443 226.8 93.594C 228.01 93.836 229.587 94.136 230.304 94.261C 231.021 94.386 231.706 94.649 231.827 94.844C 231.948 95.04 232.577 95.2 233.224 95.2C 233.871 95.2 234.4 95.38 234.4 95.6C 234.4 95.82 234.852 96 235.405 96C 235.958 96 236.813 96.208 237.305 96.462C 239.117 97.399 239.599 97.6 240.032 97.6C 240.676 97.6 249.775 102.073 249.933 102.467C 250.007 102.65 250.244 102.8 250.461 102.8C 250.944 102.8 254.548 105.227 254.733 105.677C 254.807 105.855 255.095 106 255.374 106C 255.653 106 256.421 106.516 257.082 107.147C 257.742 107.778 258.484 108.363 258.732 108.447C 259.593 108.739 266.133 115.019 268.89 118.2C 270.415 119.96 272.169 121.94 272.787 122.6C 284.896 135.527 395.259 244.839 395.455 244.1C 395.586 243.605 395.852 243.2 396.047 243.2C 396.241 243.2 396.4 242.3 396.4 241.2C 396.4 240.1 396.58 239.2 396.8 239.2C 397.02 239.2 397.2 238.311 397.2 237.224C 397.2 236.137 397.38 235.136 397.6 235C 397.82 234.864 398 233.874 398 232.8C 398 231.726 398.18 230.736 398.4 230.6C 398.62 230.464 398.8 229.223 398.8 227.843C 398.8 226.463 398.925 225.208 399.078 225.055C 399.621 224.512 399.671 223.195 399.859 204.4C 399.979 192.335 399.888 183.502 399.609 180.2C 399.367 177.34 399.079 173.92 398.968 172.6C 398.857 171.28 398.604 169.84 398.404 169.4C 398.205 168.96 397.938 167.7 397.81 166.6C 397.683 165.5 397.476 163.745 397.351 162.7C 397.225 161.655 396.96 160.8 396.761 160.8C 396.563 160.8 396.4 159.9 396.4 158.8C 396.4 157.7 396.22 156.8 396 156.8C 395.78 156.8 395.6 155.979 395.6 154.976C 395.6 153.863 395.444 153.249 395.2 153.4C 394.956 153.551 394.8 152.937 394.8 151.824C 394.8 150.821 394.62 150 394.4 150C 394.18 150 394 149.37 394 148.6C 394 147.83 393.82 147.2 393.6 147.2C 393.38 147.2 393.2 146.57 393.2 145.8C 393.2 145.03 393.02 144.4 392.8 144.4C 392.58 144.4 392.4 143.871 392.4 143.224C 392.4 142.577 392.244 141.951 392.053 141.832C 391.861 141.714 391.564 140.849 391.392 139.909C 391.051 138.05 391.065 138.103 390.635 137.131C 390.472 136.763 390.298 136.223 390.248 135.931C 390.134 135.264 388.854 131.268 388.411 130.2C 388.229 129.76 387.702 128.547 387.24 127.504C 386.778 126.462 386.4 125.432 386.4 125.217C 386.4 125.001 386.04 124.183 385.6 123.4C 385.16 122.617 384.8 121.751 384.8 121.477C 384.8 121.202 384.26 119.937 383.6 118.665C 382.94 117.393 382.4 116.093 382.4 115.776C 382.4 115.459 382.22 115.2 382 115.2C 381.78 115.2 381.596 114.885 381.591 114.5C 381.586 114.115 381.23 113.35 380.8 112.8C 380.37 112.25 380.014 111.654 380.009 111.475C 379.99 110.786 377.498 106 377.158 106C 376.961 106 376.8 105.64 376.8 105.2C 376.8 104.76 376.62 104.4 376.4 104.4C 376.18 104.4 376 104.04 376 103.6C 376 103.16 375.82 102.8 375.6 102.8C 375.38 102.8 375.2 102.545 375.2 102.234C 375.2 101.923 374.386 100.348 373.392 98.734C 372.397 97.12 371.367 95.305 371.104 94.7C 370.84 94.095 370.506 93.6 370.361 93.6C 370.216 93.6 369.873 93.06 369.6 92.4C 369.327 91.74 368.945 91.2 368.751 91.2C 368.558 91.2 368.4 90.958 368.4 90.662C 368.4 90.366 368.04 89.798 367.6 89.4C 367.16 89.002 366.8 88.479 366.799 88.238C 366.799 87.997 366.259 87.17 365.6 86.4C 364.941 85.63 364.401 84.815 364.401 84.588C 364.4 84.362 364.04 83.917 363.6 83.6C 363.16 83.283 362.8 82.873 362.8 82.688C 362.8 82.345 360.91 79.823 359.3 78.017C 358.805 77.462 358.4 76.896 358.4 76.758C 358.4 76.621 357.85 75.899 357.177 75.154C 356.504 74.409 355.649 73.35 355.277 72.8C 354.361 71.447 353.321 70.237 351.3 68.174C 350.365 67.219 349.6 66.294 349.6 66.119C 349.6 65.736 334.643 50.986 331.565 48.334C 330.374 47.307 328.77 45.915 328 45.24C 327.23 44.565 326.473 44.01 326.318 44.006C 326.163 44.003 325.586 43.55 325.036 43C 324.486 42.45 323.863 42 323.652 42C 323.44 42 323.207 41.858 323.133 41.685C 323.06 41.512 322.196 40.747 321.214 39.985C 320.232 39.223 319.073 38.285 318.638 37.9C 318.204 37.515 317.653 37.2 317.413 37.2C 317.173 37.2 316.717 36.84 316.4 36.4C 316.083 35.96 315.631 35.6 315.397 35.6C 315.162 35.6 314.347 35.067 313.585 34.416C 312.823 33.765 312.057 33.225 311.883 33.216C 311.709 33.207 311.349 33.018 311.083 32.795C 309.882 31.787 303.748 28.014 303.3 28.007C 303.025 28.003 302.8 27.82 302.8 27.6C 302.8 27.38 302.44 27.2 302 27.2C 301.56 27.2 301.2 27.02 301.2 26.8C 301.2 26.58 300.93 26.4 300.6 26.4C 300.27 26.4 300 26.22 300 26C 300 25.78 299.73 25.6 299.4 25.6C 299.07 25.6 298.8 25.42 298.8 25.2C 298.8 24.98 298.44 24.8 298 24.8C 297.56 24.8 297.2 24.62 297.2 24.4C 297.2 24.18 296.855 24 296.433 24C 296.012 24 295.607 23.865 295.533 23.7C 295.366 23.324 293.236 22.025 292.3 21.729C 291.915 21.607 291.6 21.348 291.6 21.153C 291.6 20.959 291.328 20.8 290.995 20.8C 290.273 20.8 289.13 20.27 285.733 18.362C 284.986 17.943 284.111 17.6 283.788 17.6C 283.465 17.6 283.2 17.42 283.2 17.2C 283.2 16.98 282.955 16.8 282.655 16.8C 282.182 16.8 280.551 16.127 275.4 13.808C 274.12 13.232 269.667 11.598 269 11.46C 268.78 11.415 268.376 11.237 268.102 11.066C 267.526 10.707 266.349 10.395 264.5 10.112C 263.785 10.002 263.2 9.752 263.2 9.556C 263.2 9.36 262.761 9.2 262.224 9.2C 261.687 9.2 261.136 9.02 261 8.8C 260.864 8.58 260.223 8.4 259.576 8.4C 258.929 8.4 258.4 8.22 258.4 8C 258.4 7.78 257.871 7.6 257.224 7.6C 256.577 7.6 255.936 7.42 255.8 7.2C 255.664 6.98 255.034 6.8 254.4 6.8C 253.766 6.8 253.136 6.62 253 6.4C 252.864 6.18 252.133 6 251.376 6C 250.619 6 250 5.82 250 5.6C 250 5.38 249.381 5.2 248.624 5.2C 247.867 5.2 247.136 5.02 247 4.8C 246.864 4.58 245.953 4.4 244.976 4.4C 243.999 4.4 243.2 4.22 243.2 4C 243.2 3.78 242.39 3.6 241.4 3.6C 240.41 3.6 239.6 3.42 239.6 3.2C 239.6 2.98 238.711 2.8 237.624 2.8C 236.537 2.8 235.536 2.62 235.4 2.4C 235.264 2.18 234.083 2 232.776 2C 231.459 2 230.4 1.822 230.4 1.6C 230.4 1.371 229.2 1.2 227.6 1.2C 226.06 1.2 224.8 1.05 224.8 0.867C 224.8 0.336 183.292 -0.385 182.789 0.137" stroke="none" fill="#FB3333" fill-rule="nonzero" />
        <path d="M190.8 92.789C 162.172 93.654 137.775 107.266 125.176 129.4C 122.462 134.168 121.285 136.405 120.645 138.013C 120.254 138.996 119.69 140.34 119.391 141C 114.62 151.534 114.002 158.302 114.005 200C 114.009 241.695 114.51 247.367 119.185 258.6C 129.944 284.449 150.554 301.193 177.8 306.219C 182.458 307.079 209.972 307.864 213.992 307.253C 215.646 307.001 218.204 306.796 219.676 306.797C 221.148 306.799 222.464 306.62 222.6 306.4C 222.736 306.18 223.726 306 224.8 306C 225.874 306 226.864 305.82 227 305.6C 227.136 305.38 227.856 305.2 228.6 305.2C 229.344 305.2 230.064 305.02 230.2 304.8C 230.336 304.58 230.966 304.4 231.6 304.4C 232.234 304.4 232.864 304.22 233 304C 233.136 303.78 233.676 303.6 234.2 303.6C 234.724 303.6 235.264 303.42 235.4 303.2C 235.536 302.98 235.999 302.8 236.429 302.8C 236.859 302.8 237.523 302.641 237.905 302.447C 238.287 302.252 239.05 301.912 239.6 301.691C 243.267 300.217 252.105 295.552 253.08 294.577C 253.397 294.26 253.796 294 253.966 294C 254.136 294 254.799 293.55 255.438 293C 256.077 292.451 256.732 292.001 256.893 292C 258.002 291.999 271.041 278.735 272.721 275.9C 273.079 275.295 273.514 274.8 273.686 274.8C 273.859 274.8 274 274.564 274 274.275C 274 273.987 274.315 273.393 274.7 272.955C 275.357 272.208 275.659 271.735 276.9 269.5C 277.175 269.005 277.494 268.51 277.609 268.4C 277.962 268.062 281.6 260.379 281.6 259.972C 281.6 259.761 281.78 259.232 282 258.795C 282.22 258.358 282.58 257.642 282.8 257.205C 283.02 256.768 283.2 256.059 283.2 255.629C 283.2 255.199 283.359 254.749 283.554 254.629C 283.749 254.508 284.004 253.913 284.121 253.305C 284.238 252.697 284.543 251.48 284.797 250.6C 285.52 248.104 286.045 245.573 286.27 243.5L286.27 243.5L286.477 241.6L264.439 241.6L242.4 241.6L242.4 242.576C 242.4 243.113 242.22 243.664 242 243.8C 241.78 243.936 241.6 244.397 241.6 244.824C 241.6 245.251 241.464 245.6 241.298 245.6C 241.131 245.6 240.745 246.185 240.438 246.9C 238.637 251.103 230.356 259.6 228.061 259.6C 227.844 259.6 227.607 259.735 227.533 259.9C 227.46 260.065 226.5 260.625 225.4 261.144C 224.3 261.663 223.087 262.248 222.705 262.444C 222.323 262.64 221.659 262.8 221.229 262.8C 220.799 262.8 220.336 262.98 220.2 263.2C 220.064 263.42 219.254 263.6 218.4 263.6C 217.546 263.6 216.736 263.78 216.6 264C 216.177 264.685 187.428 264.521 184.072 263.815C 173.618 261.616 164.948 254.925 160.557 245.669C 158.538 241.411 158.1 240.13 157.326 236.2C 156.914 234.111 156.914 165.889 157.326 163.8C 160.241 149.007 170.826 138.536 185.402 136.026C 188.438 135.503 215.175 135.603 217.4 136.145C 219.694 136.705 221.805 137.293 222.6 137.595C 223.831 138.062 227.375 139.764 227.6 139.995C 227.71 140.109 228.295 140.456 228.9 140.768C 229.505 141.08 230 141.485 230 141.668C 230 141.85 230.248 142 230.552 142C 232.918 142 242.4 154.529 242.4 157.655C 242.4 158.373 243.211 158.4 264.4 158.4L264.4 158.4L286.4 158.4L286.4 156.624C 286.4 155.647 286.22 154.736 286 154.6C 285.78 154.464 285.6 153.742 285.6 152.995C 285.6 152.249 285.439 151.224 285.242 150.719C 285.045 150.213 284.667 148.99 284.403 148C 284.138 147.01 283.76 145.887 283.561 145.505C 283.362 145.123 283.2 144.484 283.2 144.085C 283.2 143.686 283.042 143.189 282.849 142.98C 282.657 142.771 282.135 141.61 281.69 140.4C 280.858 138.137 277.995 131.956 277.614 131.6C 277.496 131.49 277.175 130.995 276.9 130.5C 275.659 128.265 275.357 127.792 274.7 127.045C 274.315 126.607 274 126.053 274 125.813C 274 125.573 273.64 125.117 273.2 124.8C 272.76 124.483 272.399 124.038 272.399 123.812C 272.395 122.786 263.492 113.131 260.4 110.8C 259.67 110.25 258.877 109.614 258.637 109.387C 258.396 109.16 257.57 108.538 256.8 108.006C 256.03 107.474 255.31 106.934 255.2 106.805C 253.89 105.279 240.332 98 238.799 98C 238.574 98 238.032 97.82 237.595 97.6C 237.158 97.38 236.442 97.02 236.005 96.8C 235.568 96.58 234.859 96.4 234.429 96.4C 233.999 96.4 233.536 96.22 233.4 96C 233.264 95.78 232.634 95.6 232 95.6C 231.366 95.6 230.736 95.42 230.6 95.2C 230.464 94.98 229.679 94.8 228.856 94.8C 228.033 94.8 227.189 94.637 226.98 94.439C 226.605 94.082 225.883 93.965 219.2 93.171C 214.523 92.616 202.057 92.448 190.8 92.789" stroke="none" fill="#EEEEEE" fill-rule="nonzero" />
        <path d="M276 127.4C 276 127.73 276.159 128 276.353 128C 276.548 128 276.807 128.315 276.929 128.7C 277.157 129.42 278.43 131.644 278.818 132C 279.318 132.459 282.687 139.797 283.593 142.4C 283.861 143.17 284.228 144.16 284.407 144.6C 284.586 145.04 284.847 145.85 284.985 146.4C 285.124 146.95 285.655 149.02 286.167 151C 287.475 156.066 287.75 158.577 287.061 159.149C 286.659 159.483 280.597 159.579 264.587 159.503L264.587 159.503L242.665 159.4L241.962 158.2C 241.575 157.54 241.245 156.685 241.229 156.3C 241.213 155.915 241.02 155.6 240.8 155.6C 240.58 155.6 240.4 155.24 240.4 154.8C 240.4 154.36 240.22 154 240 154C 239.78 154 239.6 153.81 239.6 153.578C 239.6 151.879 231.116 142.4 229.595 142.4C 229.378 142.4 229.2 142.22 229.2 142C 229.2 141.78 228.945 141.6 228.633 141.6C 228.322 141.6 228.007 141.464 227.933 141.298C 227.786 140.965 223.292 138.733 221.4 138.053C 214.797 135.681 187.958 135.694 180.2 138.074C 177.984 138.753 172.756 141.409 171.703 142.389C 171.225 142.835 170.691 143.2 170.517 143.201C 169.755 143.203 162.821 150.997 162.807 151.867C 162.803 152.123 162.665 152.393 162.5 152.467C 162.068 152.659 160.4 155.972 160.4 156.638C 160.4 156.947 160.22 157.2 160 157.2C 159.78 157.2 159.6 157.639 159.6 158.176C 159.6 158.713 159.44 159.252 159.244 159.373C 158.385 159.904 158.271 164.666 158.271 200C 158.271 235.334 158.385 240.096 159.244 240.627C 159.44 240.748 159.6 241.287 159.6 241.824C 159.6 242.361 159.78 242.8 160 242.8C 160.22 242.8 160.4 243.053 160.4 243.362C 160.4 244.028 162.068 247.341 162.5 247.533C 162.665 247.607 162.803 247.877 162.807 248.133C 162.835 249.899 173.539 260 175.382 260C 175.507 260 176.462 260.378 177.504 260.84C 180.138 262.007 180.746 262.227 182.8 262.762C 185.6 263.491 209.69 264.218 212.424 263.657C 213.647 263.406 215.124 263.2 215.705 263.2C 218.349 263.2 227.42 259.863 227.933 258.702C 228.007 258.536 228.277 258.397 228.533 258.393C 230.329 258.365 239.6 248.336 239.6 246.422C 239.6 246.19 239.78 246 240 246C 240.22 246 240.4 245.64 240.4 245.2C 240.4 244.76 240.58 244.4 240.8 244.4C 241.02 244.4 241.213 244.085 241.229 243.7C 241.245 243.315 241.575 242.46 241.962 241.8L241.962 241.8L242.665 240.6L264.632 240.504C 276.715 240.451 286.838 240.56 287.129 240.746C 287.683 241.099 287.369 244.294 286.377 248.4C 286.138 249.39 285.845 250.787 285.727 251.504C 285.608 252.221 285.351 252.906 285.156 253.027C 284.96 253.148 284.8 253.651 284.8 254.144C 284.8 254.637 284.657 255.211 284.482 255.42C 284.307 255.629 283.935 256.52 283.655 257.4C 282.526 260.957 277.892 270.381 277.1 270.733C 276.935 270.807 276.8 271.122 276.8 271.433C 276.8 271.745 276.62 272 276.4 272C 276.18 272 276 272.225 276 272.5C 275.999 272.775 275.549 273.523 275 274.162C 274.45 274.801 274 275.464 274 275.634C 274 275.804 273.768 276.181 273.484 276.471C 273.201 276.762 272.287 277.9 271.454 279C 268.837 282.454 261.686 289.57 258.8 291.593C 258.03 292.132 257.168 292.798 256.885 293.073C 256.602 293.347 255.837 293.887 255.185 294.272C 254.533 294.657 254 295.114 254 295.286C 254 295.459 253.803 295.6 253.562 295.6C 253.321 295.6 252.646 295.939 252.062 296.353C 249.006 298.521 241.732 302.071 237.6 303.411C 236.39 303.804 235.04 304.256 234.6 304.417C 234.16 304.577 232.99 304.922 232 305.182C 231.01 305.441 229.647 305.822 228.972 306.027C 228.296 306.232 227.207 306.4 226.552 306.4C 225.896 306.4 225.189 306.565 224.98 306.766C 223.944 307.765 185.511 308.212 179.8 307.292C 175.406 306.584 172.733 306.066 171 305.587C 170.12 305.344 168.95 305.043 168.4 304.918C 167.85 304.794 167.22 304.562 167 304.401C 166.78 304.241 166.06 303.987 165.4 303.836C 162.405 303.153 150.62 297.488 149.02 295.962C 148.811 295.763 148.363 295.6 148.024 295.6C 147.685 295.6 169.726 317.92 197.003 345.2C 241.806 390.006 248 395.979 248 394.37C 248 394.133 248.495 393.972 249.1 394.012C 250.981 394.136 251.657 394.015 251.4 393.6C 251.253 393.362 251.729 393.2 252.576 393.2C 253.359 393.2 254 393.02 254 392.8C 254 392.58 254.54 392.4 255.2 392.4C 255.86 392.4 256.4 392.22 256.4 392C 256.4 391.78 257.03 391.6 257.8 391.6C 258.57 391.6 259.2 391.409 259.2 391.175C 259.2 390.907 259.896 390.827 261.1 390.959C 262.145 391.073 262.685 391.071 262.3 390.954C 260.776 390.491 261.635 389.913 263.5 390.147C 264.737 390.302 265.121 390.263 264.6 390.035C 263.837 389.702 263.834 389.672 264.54 389.385C 264.969 389.21 265.395 389.268 265.551 389.521C 265.84 389.989 266.9 389.539 266.823 388.98C 266.798 388.799 267.053 388.61 267.389 388.56C 267.725 388.511 268 388.665 268 388.902C 268 389.483 268.598 388.859 268.609 388.267C 268.613 387.998 269.081 387.849 269.709 387.915C 270.309 387.978 270.8 387.843 270.8 387.615C 270.8 387.387 271.115 387.203 271.5 387.206C 272.098 387.211 272.113 387.269 271.6 387.6C 271.082 387.935 271.092 387.989 271.673 387.994C 272.043 387.997 272.46 387.64 272.6 387.2C 272.779 386.635 273.205 386.4 274.051 386.4C 274.746 386.4 275.144 386.233 275 386C 274.859 385.772 275.204 385.6 275.8 385.6C 276.396 385.6 276.741 385.428 276.6 385.2C 276.464 384.98 276.734 384.8 277.2 384.8C 277.771 384.8 277.949 384.963 277.747 385.3C 277.54 385.644 277.656 385.63 278.119 385.255C 278.489 384.955 278.693 384.55 278.572 384.355C 278.451 384.16 278.824 384 279.4 384C 279.996 384 280.341 383.828 280.2 383.6C 280.055 383.366 280.47 383.2 281.2 383.2C 281.93 383.2 282.345 383.034 282.2 382.8C 282.064 382.58 282.323 382.4 282.776 382.4C 283.229 382.4 283.6 382.22 283.6 382C 283.6 381.78 284.061 381.6 284.624 381.6C 285.204 381.6 285.54 381.427 285.4 381.2C 285.255 380.966 285.67 380.8 286.4 380.8C 287.243 380.8 287.554 380.65 287.361 380.337C 287.166 380.021 287.344 379.944 287.924 380.096C 288.437 380.23 288.739 380.14 288.686 379.868C 288.639 379.621 289.008 379.357 289.506 379.281C 290.004 379.205 290.309 378.976 290.182 378.771C 290.056 378.567 290.323 378.4 290.776 378.4C 291.229 378.4 291.6 378.22 291.6 378C 291.6 377.78 291.96 377.6 292.4 377.6C 292.84 377.6 293.2 377.42 293.2 377.2C 293.2 376.98 293.545 376.8 293.967 376.8C 294.388 376.8 294.793 376.665 294.867 376.5C 295.096 375.984 298.458 374.388 298.83 374.618C 299.486 375.024 300.782 374.024 300.547 373.294C 300.376 372.76 300.414 372.726 300.715 373.147C 301.01 373.56 301.287 373.587 301.852 373.259C 302.284 373.008 302.379 372.819 302.076 372.812C 301.788 372.805 301.657 372.631 301.785 372.425C 301.912 372.218 302.363 372.116 302.785 372.197C 303.321 372.3 303.487 372.171 303.334 371.771C 303.181 371.374 303.495 371.121 304.357 370.949C 305.041 370.812 305.6 370.543 305.6 370.35C 305.6 370.158 305.971 370 306.424 370C 306.877 370 307.136 369.82 307 369.6C 306.864 369.38 307.033 369.2 307.376 369.2C 307.719 369.2 308 369.02 308 368.8C 308 368.58 308.236 368.4 308.525 368.4C 308.813 368.4 309.436 368.04 309.908 367.6C 310.38 367.16 311.074 366.8 311.45 366.8C 311.826 366.8 312.016 366.683 311.873 366.54C 311.442 366.109 312.923 365.226 314.1 365.213C 314.929 365.203 315.2 365.003 315.2 364.4C 315.2 363.958 315.467 363.6 315.797 363.6C 316.125 363.6 316.909 363.06 317.54 362.4C 318.171 361.74 318.826 361.2 318.996 361.2C 319.167 361.2 319.633 360.823 320.032 360.363C 320.431 359.903 320.947 359.644 321.179 359.787C 321.41 359.93 321.6 359.767 321.6 359.424C 321.6 359.08 321.937 358.8 322.351 358.8C 323.226 358.8 324.129 357.87 323.697 357.414C 323.533 357.241 323.85 357.211 324.4 357.347C 324.95 357.482 325.175 357.489 324.9 357.363C 324.038 356.967 324.356 356.335 325.3 356.569C 325.795 356.692 325.975 356.689 325.7 356.563C 324.847 356.171 325.148 355.53 326.05 355.816C 326.539 355.971 326.803 355.928 326.671 355.714C 326.374 355.235 327.829 353.981 328.493 354.144C 328.772 354.213 328.871 354.196 328.714 354.106C 328.088 353.748 329.35 352.513 330.163 352.689C 330.846 352.836 330.89 352.791 330.4 352.441C 329.902 352.085 329.953 352.011 330.7 352.006C 331.195 352.003 331.6 351.82 331.6 351.6C 331.6 351.38 331.858 351.2 332.173 351.2C 332.488 351.2 332.85 350.872 332.977 350.472C 333.388 349.176 335.687 347.096 336.059 347.682C 336.303 348.067 336.389 348.021 336.394 347.503C 336.403 346.444 338.071 344.671 338.468 345.297C 338.677 345.626 338.792 345.454 338.8 344.8C 338.81 344.007 338.892 343.924 339.2 344.4C 339.512 344.883 339.589 344.819 339.594 344.076C 339.598 343.474 339.763 343.253 340.068 343.442C 340.389 343.64 340.45 343.508 340.263 343.021C 340.058 342.486 340.145 342.37 340.616 342.551C 340.978 342.69 341.138 342.623 340.995 342.392C 340.86 342.173 341.018 341.725 341.346 341.397C 342.019 340.724 342.575 340.593 342.203 341.195C 342.057 341.432 342.24 341.483 342.659 341.322C 343.09 341.157 343.175 340.992 342.88 340.893C 342.616 340.805 342.4 340.549 342.4 340.324C 342.4 340.099 342.679 340.022 343.021 340.153C 343.377 340.289 343.537 340.222 343.397 339.995C 343.263 339.778 343.568 339.586 344.076 339.568C 344.584 339.551 344.775 339.446 344.5 339.335C 344.225 339.224 344 338.958 344 338.743C 344 338.528 344.18 338.464 344.4 338.6C 344.62 338.736 344.8 338.657 344.8 338.424C 344.8 338.191 345.205 337.986 345.7 337.968C 346.195 337.951 346.38 337.848 346.111 337.739C 345.776 337.603 345.902 337.252 346.511 336.621C 347 336.115 347.713 335.318 348.096 334.85C 348.479 334.383 349.154 334 349.596 334C 350.038 334 350.4 333.812 350.4 333.583C 350.4 333.354 350.76 332.78 351.2 332.308C 351.64 331.836 352.003 331.078 352.006 330.625C 352.011 329.931 352.08 329.895 352.441 330.4C 352.785 330.882 352.831 330.823 352.672 330.1C 352.465 329.155 352.988 328.84 353.335 329.7C 353.446 329.975 353.554 329.75 353.575 329.2C 353.606 328.377 353.689 328.306 354.044 328.8C 354.403 329.3 354.436 329.278 354.239 328.67C 353.997 327.925 354.799 326.8 355.571 326.8C 355.807 326.8 356.003 326.485 356.006 326.1C 356.017 324.845 356.723 324.092 357.226 324.8C 357.562 325.273 357.599 325.21 357.399 324.5C 357.25 323.971 357.322 323.6 357.573 323.6C 357.808 323.6 358 323.33 358 323C 358 322.67 358.18 322.4 358.4 322.4C 358.62 322.4 358.8 322.207 358.8 321.971C 358.8 321.736 359.105 321.241 359.478 320.871C 360.112 320.243 360.138 320.245 359.89 320.9C 359.744 321.285 359.799 321.6 360.013 321.6C 360.226 321.6 360.4 321.06 360.4 320.4C 360.4 319.74 360.58 319.2 360.8 319.2C 361.02 319.2 361.2 318.933 361.2 318.608C 361.2 318.282 361.659 317.9 362.22 317.759C 362.931 317.581 363.309 317.156 363.47 316.352C 363.596 315.718 363.858 315.2 364.05 315.2C 364.243 315.2 364.4 314.919 364.4 314.576C 364.4 314.233 364.58 314.064 364.8 314.2C 365.02 314.336 365.2 314.077 365.2 313.624C 365.2 313.171 365.38 312.8 365.6 312.8C 365.82 312.8 366 312.519 366 312.176C 366 311.833 366.18 311.664 366.4 311.8C 366.62 311.936 366.8 311.716 366.8 311.312C 366.8 310.907 367.16 310.317 367.6 310C 368.04 309.683 368.4 309.103 368.4 308.712C 368.4 308.32 368.58 308 368.8 308C 369.02 308 369.2 307.719 369.2 307.376C 369.2 307.033 369.38 306.864 369.6 307C 369.82 307.136 370 306.877 370 306.424C 370 305.971 370.18 305.6 370.4 305.6C 370.62 305.6 370.8 305.262 370.8 304.849C 370.8 303.97 371.729 303.074 372.196 303.503C 372.373 303.667 372.418 303.395 372.297 302.9C 372.14 302.264 372.253 302 372.684 302C 373.104 302 373.226 301.742 373.076 301.168C 372.919 300.569 373.014 300.396 373.416 300.551C 373.723 300.669 374.081 300.593 374.211 300.383C 374.341 300.172 374.246 300 374 300C 373.754 300 373.666 299.817 373.804 299.593C 373.942 299.37 374.204 299.279 374.386 299.391C 374.567 299.504 374.823 299.317 374.954 298.977C 375.089 298.623 375.022 298.463 374.795 298.603C 374.578 298.737 374.4 298.657 374.4 298.424C 374.4 298.191 374.58 298 374.8 298C 375.02 298 375.2 297.64 375.2 297.2C 375.2 296.76 375.38 296.4 375.6 296.4C 375.82 296.4 376 296.04 376 295.6C 376 295.16 376.18 294.8 376.4 294.8C 376.62 294.8 376.8 294.44 376.8 294C 376.8 293.56 376.98 293.2 377.2 293.2C 377.42 293.2 377.6 292.84 377.6 292.4C 377.6 291.96 377.78 291.6 378 291.6C 378.22 291.6 378.4 291.229 378.4 290.776C 378.4 290.323 378.58 290.064 378.8 290.2C 379.027 290.34 379.2 290.004 379.2 289.424C 379.2 288.861 379.38 288.4 379.6 288.4C 379.82 288.4 380 288.029 380 287.576C 380 287.123 380.18 286.864 380.4 287C 380.62 287.136 380.8 286.877 380.8 286.424C 380.8 285.971 380.98 285.6 381.2 285.6C 381.42 285.6 381.6 285.251 381.6 284.824C 381.6 284.397 381.78 283.936 382 283.8C 382.22 283.664 382.4 283.203 382.4 282.776C 382.4 282.349 382.58 282 382.8 282C 383.02 282 383.2 281.629 383.2 281.176C 383.2 280.723 383.38 280.464 383.6 280.6C 383.833 280.744 384 280.337 384 279.624C 384 278.951 384.18 278.4 384.4 278.4C 384.62 278.4 384.8 277.95 384.8 277.4C 384.8 276.85 384.98 276.4 385.2 276.4C 385.42 276.4 385.6 276.051 385.6 275.624C 385.6 275.197 385.78 274.736 386 274.6C 386.22 274.464 386.4 274.003 386.4 273.576C 386.4 273.149 386.58 272.8 386.8 272.8C 387.02 272.8 387.218 272.305 387.24 271.7L387.24 271.7L387.28 270.6L387.627 271.6C 387.886 272.346 387.932 272.112 387.806 270.68C 387.658 268.994 387.745 268.717 388.519 268.405C 389.004 268.21 389.191 268.039 388.935 268.025C 388.252 267.988 388.549 266.772 389.352 266.323C 389.908 266.012 389.949 265.82 389.559 265.351C 389.192 264.908 389.186 264.654 389.537 264.303C 389.888 263.952 390.007 263.981 390.028 264.42C 390.045 264.77 390.182 264.683 390.374 264.2C 390.557 263.737 390.521 263.291 390.287 263.14C 390.064 262.997 390.018 262.55 390.185 262.14C 390.473 261.432 390.499 261.434 390.779 262.189C 391.042 262.894 391.094 262.864 391.279 261.901C 391.392 261.309 391.33 260.919 391.142 261.036C 390.954 261.152 390.8 260.887 390.8 260.447C 390.8 260.007 390.98 259.536 391.2 259.4C 391.42 259.264 391.6 258.634 391.6 257.999C 391.6 257.26 391.92 256.621 392.489 256.223C 392.978 255.88 393.158 255.6 392.889 255.6C 392.101 255.6 392.327 254.357 393.261 253.547C 393.735 253.136 393.915 252.8 393.661 252.8C 393.045 252.8 393.068 251.311 393.687 251.104C 393.977 251.008 394.133 250.349 394.074 249.471C 394.02 248.662 394.161 248 394.387 248C 394.614 248 394.8 247.371 394.8 246.603C 394.8 245.28 391.663 242.07 335.591 186.003C 274.654 125.072 276 126.396 276 127.4" stroke="none" fill="#C40404" fill-rule="nonzero" />
        <path d="M193.7 92.299C 197.825 92.364 204.575 92.364 208.7 92.299C 212.825 92.234 209.45 92.181 201.2 92.181C 192.95 92.181 189.575 92.234 193.7 92.299M179.505 93.083C 180.002 93.179 180.722 93.175 181.105 93.075C 181.487 92.975 181.08 92.896 180.2 92.901C 179.32 92.905 179.007 92.987 179.505 93.083M220.7 93.082C 221.195 93.178 222.005 93.178 222.5 93.082C 222.995 92.987 222.59 92.909 221.6 92.909C 220.61 92.909 220.205 92.987 220.7 93.082M174 94.018C 173.562 94.315 173.724 94.352 174.6 94.156C 176.071 93.827 176.39 93.598 175.367 93.606C 174.945 93.609 174.33 93.795 174 94.018M152.2 102.4C 151.54 102.837 151.18 103.192 151.4 103.188C 151.801 103.182 153.976 101.623 153.6 101.612C 153.49 101.608 152.86 101.963 152.2 102.4M138.975 112.1L137.8 113.4L139.1 112.225C 140.312 111.13 140.584 110.8 140.275 110.8C 140.206 110.8 139.621 111.385 138.975 112.1M134.181 116.9L132.6 118.6L134.3 117.019C 135.881 115.548 136.184 115.2 135.881 115.2C 135.816 115.2 135.051 115.965 134.181 116.9M123.814 130.635C 123.441 131.204 123.205 131.738 123.289 131.822C 123.373 131.907 123.758 131.441 124.144 130.788C 125.006 129.328 124.748 129.209 123.814 130.635M115.829 150.229C 115.681 150.815 115.638 151.372 115.732 151.466C 115.827 151.56 116.024 151.158 116.171 150.571C 116.319 149.985 116.362 149.428 116.268 149.334C 116.173 149.24 115.976 149.642 115.829 150.229M115.049 153.415C 114.912 153.773 114.815 154.366 114.834 154.733C 114.853 155.1 115.027 154.869 115.221 154.22C 115.598 152.958 115.465 152.333 115.049 153.415M114.093 159.6C 114.093 160.37 114.175 160.685 114.276 160.3C 114.376 159.915 114.376 159.285 114.276 158.9C 114.175 158.515 114.093 158.83 114.093 159.6M113.792 200C 113.792 219.91 113.84 228.055 113.9 218.1C 113.959 208.145 113.959 191.855 113.9 181.9C 113.84 171.945 113.792 180.09 113.792 200M114.093 240.4C 114.093 241.17 114.175 241.485 114.276 241.1C 114.376 240.715 114.376 240.085 114.276 239.7C 114.175 239.315 114.093 239.63 114.093 240.4M114.806 245.433C 114.809 245.855 114.995 246.47 115.218 246.8C 115.515 247.238 115.552 247.076 115.356 246.2C 115.027 244.729 114.798 244.41 114.806 245.433M122.725 267.4C 123.172 268.28 123.833 269.36 124.194 269.8C 124.555 270.24 124.359 269.7 123.759 268.6C 122.416 266.138 121.607 265.199 122.725 267.4M138 286.925C 138 286.994 138.585 287.579 139.3 288.225L139.3 288.225L140.6 289.4L139.425 288.1C 138.33 286.888 138 286.616 138 286.925" stroke="none" fill="#FA8484" fill-rule="nonzero" />
        <path d="M166.778 145.9L165.4 147.4L166.9 146.022C 167.725 145.263 168.4 144.588 168.4 144.522C 168.4 144.216 168.062 144.504 166.778 145.9M267.375 282.9L266.2 284.2L267.5 283.025C 268.215 282.379 268.8 281.794 268.8 281.725C 268.8 281.416 268.47 281.688 267.375 282.9M220.3 307.082C 220.795 307.178 221.605 307.178 222.1 307.082C 222.595 306.987 222.19 306.909 221.2 306.909C 220.21 306.909 219.805 306.987 220.3 307.082M203.721 307.898C 205.877 307.971 209.297 307.97 211.321 307.898C 213.344 307.825 211.58 307.766 207.4 307.767C 203.22 307.767 201.564 307.826 203.721 307.898" stroke="none" fill="#DC7472" fill-rule="nonzero" />
        <path d="M72.576 44.587C 72.149 44.91 71.98 45.175 72.2 45.175C 72.42 45.175 72.949 44.91 73.376 44.587C 73.804 44.264 73.973 44 73.753 44C 73.533 44 73.004 44.264 72.576 44.587M349.6 66.167C 349.6 66.588 350.805 67.728 351.021 67.512C 351.122 67.411 350.844 67.002 350.402 66.602C 349.961 66.203 349.6 66.007 349.6 66.167M273.6 123.911C 273.6 124.155 273.959 124.606 274.397 124.913C 274.836 125.22 275.076 125.591 274.931 125.736C 274.786 125.881 274.877 126 275.133 126C 275.39 126 275.555 126.201 275.5 126.447C 275.445 126.693 275.692 126.943 276.05 127.004C 277.352 127.225 394.8 245.118 394.8 246.204C 394.8 246.752 394.98 247.2 395.2 247.2C 395.42 247.2 395.6 246.54 395.6 245.733C 395.6 244.927 395.473 244.393 395.318 244.548C 395.163 244.703 367.795 217.598 334.501 184.315C 301.206 151.032 273.883 123.725 273.782 123.633C 273.682 123.542 273.6 123.666 273.6 123.911M194.925 136.299C 198.404 136.366 203.984 136.366 207.325 136.299C 210.666 136.232 207.82 136.178 201 136.178C 194.18 136.178 191.446 136.233 194.925 136.299M216.5 137.076C 216.885 137.176 217.515 137.176 217.9 137.076C 218.285 136.975 217.97 136.893 217.2 136.893C 216.43 136.893 216.115 136.975 216.5 137.076M286.006 151.633C 286.009 152.165 286.189 152.87 286.406 153.2C 286.682 153.622 286.723 153.385 286.542 152.4C 286.225 150.675 285.998 150.349 286.006 151.633M286.901 155.4C 286.905 156.28 286.987 156.593 287.083 156.095C 287.179 155.598 287.175 154.878 287.075 154.495C 286.975 154.113 286.896 154.52 286.901 155.4M286.953 158.807C 286.685 159.075 279.054 159.177 264.511 159.107C 252.392 159.048 242.56 159.135 242.662 159.3C 243.061 159.945 286.659 159.652 287.2 159C 287.761 158.325 287.578 158.182 286.953 158.807M157.791 200C 157.791 218.37 157.84 225.885 157.9 216.7C 157.96 207.515 157.96 192.485 157.9 183.3C 157.84 174.115 157.791 181.63 157.791 200M242.662 240.7C 242.56 240.865 252.382 240.952 264.489 240.893C 280.511 240.816 286.651 240.911 287.051 241.242C 287.39 241.524 287.6 241.543 287.6 241.292C 287.6 241.068 287.315 240.776 286.967 240.643C 286.045 240.289 242.881 240.345 242.662 240.7M286.901 244.6C 286.905 245.48 286.987 245.793 287.083 245.295C 287.179 244.798 287.175 244.078 287.075 243.695C 286.975 243.313 286.896 243.72 286.901 244.6M286.156 247.371C 286.035 247.685 286.004 248.36 286.086 248.871C 286.195 249.554 286.288 249.404 286.437 248.3C 286.647 246.747 286.536 246.381 286.156 247.371M394 248.976C 394 249.513 394.18 250.064 394.4 250.2C 394.633 250.344 394.8 249.937 394.8 249.224C 394.8 248.551 394.62 248 394.4 248C 394.18 248 394 248.439 394 248.976M393.2 252C 393.2 252.44 393.38 252.8 393.6 252.8C 393.82 252.8 394 252.44 394 252C 394 251.56 393.82 251.2 393.6 251.2C 393.38 251.2 393.2 251.56 393.2 252M166 252.925C 166 252.994 166.585 253.579 167.3 254.225L167.3 254.225L168.6 255.4L167.425 254.1C 166.33 252.888 166 252.616 166 252.925M392.4 254.8C 392.4 255.24 392.58 255.6 392.8 255.6C 393.02 255.6 393.2 255.24 393.2 254.8C 393.2 254.36 393.02 254 392.8 254C 392.58 254 392.4 254.36 392.4 254.8M391.819 256.9C 391.652 257.285 391.652 257.915 391.819 258.3C 392.203 259.181 392.574 258.081 392.291 256.9C 392.132 256.233 392.109 256.233 391.819 256.9M391.1 259.431C 390.935 259.597 390.8 260.099 390.8 260.547C 390.8 261.135 390.921 261.239 391.238 260.922C 391.478 260.682 391.613 260.18 391.538 259.807C 391.462 259.433 391.265 259.264 391.1 259.431M390.194 262.117C 389.878 262.891 390.124 263.369 390.721 263.142C 390.926 263.064 390.956 262.64 390.789 262.2C 390.506 261.454 390.466 261.448 390.194 262.117M212.8 263.6C 211.996 263.857 211.957 263.923 212.6 263.932C 213.04 263.938 213.76 263.789 214.2 263.6C 215.219 263.162 214.168 263.162 212.8 263.6M191.119 263.898C 192.944 263.972 195.824 263.972 197.519 263.897C 199.214 263.822 197.72 263.761 194.2 263.762C 190.68 263.762 189.294 263.824 191.119 263.898M389.555 264C 389.243 265.091 389.385 265.904 389.856 265.723C 390.155 265.608 390.397 265.399 390.394 265.257C 390.385 264.896 389.625 263.756 389.555 264M388.769 266.5C 388.494 267.4 388.566 268 388.95 268C 389.214 268 389.457 267.64 389.49 267.2C 389.536 266.586 388.925 265.992 388.769 266.5M387.949 268.5C 387.724 268.941 387.772 270.4 388.012 270.4C 388.324 270.4 388.8 269.415 388.8 268.767C 388.8 268.449 388.089 268.225 387.949 268.5M386.4 273.576C 386.4 274.003 386.22 274.464 386 274.6C 385.78 274.736 385.6 275.107 385.6 275.424C 385.6 275.741 385.78 276 386 276C 386.22 276 386.4 275.64 386.4 275.2C 386.4 274.76 386.58 274.4 386.8 274.4C 387.02 274.4 387.2 274.04 387.2 273.6C 387.2 273.16 387.02 272.8 386.8 272.8C 386.58 272.8 386.4 273.149 386.4 273.576M384.8 277.367C 384.8 277.898 384.599 278.4 384.354 278.482C 384.109 278.564 384 278.984 384.112 279.415C 384.303 280.151 384.333 280.144 384.604 279.3C 384.763 278.805 385.052 278.4 385.247 278.4C 385.441 278.4 385.6 277.95 385.6 277.4C 385.6 276.85 385.42 276.4 385.2 276.4C 384.98 276.4 384.8 276.835 384.8 277.367M268.975 281.7L267.8 283L269.1 281.825C 270.312 280.73 270.584 280.4 270.275 280.4C 270.206 280.4 269.621 280.985 268.975 281.7M382.4 282.776C 382.4 283.203 382.22 283.664 382 283.8C 381.78 283.936 381.6 284.397 381.6 284.824C 381.6 285.251 381.42 285.6 381.2 285.6C 380.98 285.6 380.8 285.96 380.8 286.4C 380.8 286.84 380.98 287.2 381.2 287.2C 381.42 287.2 381.6 286.928 381.6 286.595C 381.6 286.007 381.767 285.582 382.738 283.705C 383.306 282.606 383.328 282 382.8 282C 382.58 282 382.4 282.349 382.4 282.776M380 287.576C 380 288.029 379.82 288.4 379.6 288.4C 379.38 288.4 379.2 288.861 379.2 289.424C 379.2 290.004 379.027 290.34 378.8 290.2C 378.58 290.064 378.4 290.323 378.4 290.776C 378.4 291.229 378.201 291.6 377.957 291.6C 377.714 291.6 377.621 291.877 377.75 292.215C 377.885 292.565 377.731 292.928 377.393 293.058C 377.067 293.183 376.8 293.626 376.8 294.043C 376.8 294.459 376.601 294.8 376.357 294.8C 376.114 294.8 376.021 295.077 376.15 295.415C 376.285 295.765 376.131 296.128 375.793 296.258C 375.145 296.507 374.978 297.2 375.566 297.2C 375.768 297.2 376.172 296.66 376.464 296C 376.756 295.34 377.131 294.8 377.298 294.8C 377.464 294.8 377.6 294.44 377.6 294C 377.6 293.56 377.78 293.2 378 293.2C 378.22 293.2 378.404 292.885 378.409 292.5C 378.414 292.115 378.77 291.35 379.2 290.8C 379.63 290.25 379.986 289.575 379.991 289.3C 379.996 289.025 380.142 288.8 380.315 288.8C 380.769 288.8 380.819 287.259 380.375 286.984C 380.169 286.857 380 287.123 380 287.576M145.734 294.613C 146.911 295.86 148.889 296.314 148.185 295.176C 148.069 294.988 147.681 294.948 147.322 295.085C 146.939 295.232 146.77 295.172 146.914 294.939C 147.211 294.458 145.824 293.2 144.996 293.2C 144.61 293.2 144.868 293.694 145.734 294.613M147.6 296.194C 147.6 296.645 246.63 395.636 246.856 395.411C 246.956 395.311 224.747 372.948 197.502 345.715C 140.661 288.897 147.6 295.782 147.6 296.194M27.6 303.32C 27.6 303.704 29.645 306.8 29.899 306.8C 30.078 306.8 29.441 305.719 28.139 303.811C 27.842 303.377 27.6 303.156 27.6 303.32M371.264 303.696C 371.009 303.951 370.8 304.484 370.8 304.88C 370.8 305.276 370.62 305.6 370.4 305.6C 370.18 305.6 370.004 305.915 370.009 306.3C 370.019 307.112 371.575 305.375 371.591 304.533C 371.596 304.277 371.816 303.995 372.08 303.907C 372.397 303.801 372.418 303.659 372.144 303.489C 371.915 303.348 371.519 303.441 371.264 303.696M369.2 307.343C 369.2 307.668 368.975 308.014 368.7 308.112C 368.425 308.21 368.306 308.406 368.436 308.548C 368.565 308.689 368.982 308.462 369.362 308.042C 369.814 307.543 369.905 307.188 369.626 307.016C 369.392 306.871 369.2 307.018 369.2 307.343M182.2 307.581C 182.968 307.929 185.11 308.156 184.767 307.853C 184.675 307.772 183.88 307.596 183 307.462C 181.885 307.293 181.642 307.329 182.2 307.581M367.26 310.242C 366.531 311.066 367 311.457 367.781 310.676C 368.121 310.336 368.4 309.954 368.4 309.829C 368.4 309.409 367.806 309.624 367.26 310.242M366 312.176C 366 312.519 365.82 312.8 365.6 312.8C 365.38 312.8 365.2 312.98 365.2 313.2C 365.2 313.855 365.773 313.656 366.296 312.819C 366.603 312.327 366.639 311.947 366.392 311.795C 366.176 311.662 366 311.833 366 312.176M364.4 314.487C 364.4 314.842 364.175 315.214 363.9 315.312C 363.625 315.41 363.49 315.59 363.601 315.713C 363.711 315.835 364.151 315.679 364.579 315.366C 365.183 314.924 365.25 314.69 364.879 314.319C 364.507 313.947 364.4 313.985 364.4 314.487M361.7 317.865C 361.425 317.976 361.2 318.322 361.2 318.633C 361.2 318.945 361.02 319.2 360.8 319.2C 360.58 319.2 360.4 319.56 360.4 320C 360.4 320.44 360.591 320.8 360.824 320.8C 361.057 320.8 361.145 320.635 361.021 320.434C 360.896 320.232 361.262 319.512 361.833 318.834C 362.826 317.653 362.795 317.423 361.7 317.865M359.3 321.023C 359.025 321.322 358.8 321.754 358.8 321.983C 358.8 322.212 358.62 322.4 358.4 322.4C 358.18 322.4 358 322.655 358 322.967C 358 323.278 357.775 323.616 357.5 323.717C 357.12 323.856 357.111 324.019 357.463 324.393C 357.886 324.843 358.816 323.936 358.686 323.2C 358.666 323.09 358.979 322.499 359.379 321.888C 360.166 320.688 360.115 320.138 359.3 321.023M356.243 325.033C 355.867 326.011 355.949 326.108 356.6 325.457C 357.28 324.777 357.367 324.4 356.843 324.4C 356.646 324.4 356.376 324.685 356.243 325.033M44 326.247C 44 326.467 44.264 326.996 44.587 327.424C 44.91 327.851 45.175 328.02 45.175 327.8C 45.175 327.58 44.91 327.051 44.587 326.624C 44.264 326.196 44 326.027 44 326.247M354.3 327.687C 353.915 328.168 353.614 328.751 353.632 328.981C 353.649 329.212 353.754 329.175 353.865 328.9C 353.976 328.625 354.278 328.4 354.537 328.4C 354.796 328.4 355.232 328.04 355.507 327.6C 356.223 326.454 355.228 326.525 354.3 327.687M348.096 334.85C 347.713 335.318 346.987 336.128 346.482 336.65C 345.977 337.173 345.714 337.6 345.899 337.6C 346.083 337.6 347.028 336.79 348 335.8C 348.972 334.81 349.547 334 349.279 334C 349.011 334 348.479 334.383 348.096 334.85M344.8 338.424C 344.8 338.657 344.62 338.736 344.4 338.6C 344.18 338.464 344 338.543 344 338.776C 344 339.388 344.622 339.297 345.2 338.6C 345.544 338.185 345.559 338 345.249 338C 345.002 338 344.8 338.191 344.8 338.424M341.651 341.151C 340.763 342.005 340.148 342.815 340.285 342.951C 340.637 343.304 341.284 343.261 341.066 342.9C 340.824 342.501 343.428 339.961 343.749 340.283C 343.887 340.421 344 340.323 344 340.067C 344 339.242 343.304 339.563 341.651 341.151M337.24 345.84C 336.069 347.187 336.38 347.498 337.6 346.2C 338.115 345.652 338.447 345.114 338.338 345.005C 338.229 344.895 337.735 345.271 337.24 345.84M335.19 347.733C 334.367 348.364 332.8 350.421 332.8 350.87C 332.8 351.069 333.052 350.999 333.36 350.716C 333.667 350.432 333.862 350.14 333.792 350.066C 333.722 349.992 334.235 349.421 334.932 348.799C 336.175 347.688 336.387 346.814 335.19 347.733M327.907 354.028C 327.087 354.827 326.521 355.588 326.651 355.717C 326.942 356.009 328.4 355.134 328.4 354.668C 328.4 354.481 328.789 354.013 329.265 353.628C 329.741 353.243 329.966 352.848 329.765 352.75C 329.564 352.653 328.728 353.228 327.907 354.028M324.486 356.624C 323.983 357.161 323.69 357.6 323.835 357.6C 323.98 357.6 323.851 357.899 323.549 358.265C 323.051 358.87 323.084 358.886 323.911 358.445C 324.412 358.178 324.737 357.822 324.633 357.653C 324.528 357.484 324.793 357.093 325.221 356.785C 326 356.224 326.266 355.578 325.7 355.624C 325.535 355.638 324.989 356.088 324.486 356.624M320.1 360.198C 319.469 360.915 319.464 361.228 320.084 361.1C 320.804 360.951 321.542 360.243 321.334 359.9C 321.068 359.46 320.665 359.557 320.1 360.198M317.621 362.212C 317.083 362.742 316.736 363.269 316.85 363.384C 316.965 363.498 317.574 363.054 318.204 362.396C 319.561 360.979 319.04 360.815 317.621 362.212M312.276 365.774C 311.814 366.124 311.707 366.419 311.979 366.587C 312.214 366.732 312.675 366.582 313.003 366.254C 314.096 365.161 313.555 364.804 312.276 365.774M309.83 367.624C 309.359 368.098 309.254 368.4 309.559 368.4C 310.063 368.4 311.2 367.45 311.2 367.029C 311.2 366.59 310.594 366.853 309.83 367.624M308 368.771C 308 368.975 307.685 369.204 307.3 369.28C 306.852 369.369 306.761 369.52 307.047 369.7C 307.292 369.855 307.815 369.625 308.209 369.191C 308.617 368.739 308.726 368.4 308.462 368.4C 308.208 368.4 308 368.567 308 368.771M305.6 370.4C 305.6 370.62 305.253 370.8 304.829 370.8C 304.404 370.8 303.742 371.115 303.357 371.5C 302.972 371.885 302.524 372.2 302.362 372.2C 301.742 372.2 301.592 372.711 302.15 372.925C 302.471 373.049 302.837 372.879 302.964 372.549C 303.091 372.219 303.376 372.061 303.597 372.198C 303.819 372.335 304 372.257 304 372.024C 304 371.791 304.225 371.596 304.5 371.591C 305.363 371.576 307.133 370.019 306.3 370.009C 305.915 370.004 305.6 370.18 305.6 370.4M94.4 370.963C 94.4 371.043 94.85 371.403 95.4 371.763C 95.95 372.124 96.4 372.263 96.4 372.073C 96.4 371.884 95.95 371.523 95.4 371.273C 94.85 371.022 94.4 370.883 94.4 370.963M295.7 375.744C 294.722 376.228 294.5 376.808 295.3 376.787C 295.87 376.773 297.2 375.841 297.2 375.456C 297.2 375.122 296.803 375.198 295.7 375.744M293.2 377.2C 293.2 377.42 292.84 377.6 292.4 377.6C 291.96 377.6 291.6 377.78 291.6 378C 291.6 378.22 291.229 378.4 290.776 378.4C 290.323 378.4 290.064 378.58 290.2 378.8C 290.336 379.02 290.187 379.2 289.869 379.2C 289.021 379.2 287.169 380.235 287.473 380.539C 287.616 380.683 288.003 380.8 288.333 380.8C 288.663 380.8 288.823 380.69 288.688 380.555C 288.451 380.318 291.863 378.405 292.529 378.402C 292.902 378.4 294 377.375 294 377.029C 294 376.903 293.82 376.8 293.6 376.8C 293.38 376.8 293.2 376.98 293.2 377.2M285.4 381.2C 285.54 381.427 285.204 381.6 284.624 381.6C 284.061 381.6 283.6 381.78 283.6 382C 283.6 382.584 284.88 382.465 285.759 381.8C 286.176 381.484 286.671 381.32 286.859 381.436C 287.047 381.552 287.2 381.457 287.2 381.224C 287.2 380.991 286.739 380.8 286.176 380.8C 285.596 380.8 285.26 380.973 285.4 381.2M280.2 383.6C 280.336 383.82 280.707 384 281.024 384C 281.341 384 281.6 383.82 281.6 383.6C 281.6 383.38 281.229 383.2 280.776 383.2C 280.323 383.2 280.064 383.38 280.2 383.6M278.72 384.48C 279.093 384.853 279.307 384.853 279.68 384.48C 280.053 384.107 279.947 384 279.2 384C 278.453 384 278.347 384.107 278.72 384.48M276.584 385.175C 276.712 385.381 277.16 385.523 277.58 385.492C 278.577 385.416 278.196 384.8 277.153 384.8C 276.713 384.8 276.457 384.969 276.584 385.175M272.8 386.8C 272.8 387.02 273.16 387.2 273.6 387.2C 274.04 387.2 274.4 387.02 274.4 386.8C 274.4 386.58 274.04 386.4 273.6 386.4C 273.16 386.4 272.8 386.58 272.8 386.8M268.678 387.856C 268.206 388.328 268.792 388.727 269.634 388.507C 270.268 388.341 270.34 388.208 269.934 387.951C 269.287 387.541 269.013 387.52 268.678 387.856M266.559 388.867C 266.445 389.05 266.408 389.214 266.476 389.231C 267.559 389.499 268 389.441 268 389.031C 268 388.475 266.88 388.347 266.559 388.867M264.228 389.555C 264.108 389.75 264.367 390.003 264.804 390.117C 265.32 390.252 265.6 390.127 265.6 389.763C 265.6 389.144 264.577 388.989 264.228 389.555M261.6 390.353C 261.6 390.969 263.135 391.145 263.362 390.556C 263.508 390.174 263.266 390 262.587 390C 262.044 390 261.6 390.159 261.6 390.353M259.2 391.2C 259.2 391.42 259.661 391.6 260.224 391.6C 260.804 391.6 261.14 391.427 261 391.2C 260.864 390.98 260.403 390.8 259.976 390.8C 259.549 390.8 259.2 390.98 259.2 391.2M256.4 392.006C 256.4 392.23 256.94 392.372 257.6 392.321C 258.26 392.271 258.8 392.088 258.8 391.915C 258.8 391.742 258.26 391.6 257.6 391.6C 256.94 391.6 256.4 391.783 256.4 392.006M254 392.8C 254 393.02 254.45 393.2 255 393.2C 255.55 393.2 256 393.02 256 392.8C 256 392.58 255.55 392.4 255 392.4C 254.45 392.4 254 392.58 254 392.8M251.4 393.6C 251.536 393.82 251.986 394 252.4 394C 252.814 394 253.264 393.82 253.4 393.6C 253.545 393.366 253.13 393.2 252.4 393.2C 251.67 393.2 251.255 393.366 251.4 393.6M248 394.4C 248 394.62 248.585 394.797 249.3 394.794C 250.286 394.789 250.455 394.694 250 394.4C 249.214 393.892 248 393.892 248 394.4" stroke="none" fill="#E71C1C" fill-rule="nonzero" />
        <path d="M183 92.403C 182.485 92.626 182.913 92.667 184.2 92.518C 185.3 92.391 186.275 92.223 186.367 92.144C 186.714 91.845 183.764 92.072 183 92.403M216.833 92.143C 216.925 92.221 217.63 92.401 218.4 92.542C 219.385 92.723 219.622 92.682 219.2 92.406C 218.658 92.05 216.437 91.803 216.833 92.143M250.8 103.22C 252.187 104.161 252.978 104.435 252 103.636C 251.45 103.186 250.82 102.817 250.6 102.815C 250.38 102.813 250.47 102.996 250.8 103.22M135.389 115.3L132.6 118.2L135.5 115.411C 138.194 112.82 138.583 112.4 138.289 112.4C 138.228 112.4 136.923 113.705 135.389 115.3M265.8 115.2C 267.328 116.74 268.669 118 268.779 118C 268.889 118 267.728 116.74 266.2 115.2C 264.672 113.66 263.331 112.4 263.221 112.4C 263.111 112.4 264.272 113.66 265.8 115.2M186.9 136.276C 187.285 136.376 187.915 136.376 188.3 136.276C 188.685 136.175 188.37 136.093 187.6 136.093C 186.83 136.093 186.515 136.175 186.9 136.276M213.8 136.4C 214.24 136.589 214.96 136.738 215.4 136.732C 216.043 136.723 216.004 136.657 215.2 136.4C 213.832 135.962 212.781 135.962 213.8 136.4M286.905 157.6L287 158.6L264.8 158.805L242.6 159.01L264.651 159.105C 288.253 159.207 288.348 159.199 287.237 157.321C 286.862 156.688 286.822 156.721 286.905 157.6M113.391 200C 113.391 219.47 113.44 227.435 113.5 217.7C 113.56 207.965 113.56 192.035 113.5 182.3C 113.44 172.565 113.391 180.53 113.391 200M157.391 200C 157.391 218.15 157.44 225.575 157.5 216.5C 157.56 207.425 157.56 192.575 157.5 183.5C 157.44 174.425 157.391 181.85 157.391 200M264.8 241.195L287 241.4L286.905 242.4C 286.822 243.279 286.862 243.312 287.237 242.679C 288.348 240.801 288.253 240.793 264.651 240.895L264.651 240.895L242.6 240.99L264.8 241.195zM240.229 245.661C 239.883 246.355 239.6 247.025 239.6 247.15C 239.6 247.497 240.633 245.894 240.921 245.1C 241.336 243.955 240.906 244.304 240.229 245.661M115.044 247.4C 115.373 248.871 115.602 249.19 115.594 248.167C 115.591 247.745 115.405 247.13 115.182 246.8C 114.885 246.362 114.848 246.524 115.044 247.4M232.575 255.7L231.4 257L232.7 255.825C 233.415 255.179 234 254.594 234 254.525C 234 254.216 233.67 254.488 232.575 255.7M118.218 258.1C 118.368 258.595 118.655 259.176 118.856 259.391C 119.057 259.606 119.019 259.201 118.772 258.491C 118.265 257.038 117.797 256.708 118.218 258.1M135.4 284.8C 136.928 286.34 138.269 287.6 138.379 287.6C 138.489 287.6 137.328 286.34 135.8 284.8C 134.272 283.26 132.931 282 132.821 282C 132.711 282 133.872 283.26 135.4 284.8M249.8 297.2C 249.14 297.637 248.78 297.992 249 297.988C 249.401 297.982 251.576 296.423 251.2 296.412C 251.09 296.408 250.46 296.763 249.8 297.2M188.921 307.898C 191.077 307.971 194.497 307.97 196.521 307.898C 198.544 307.825 196.78 307.766 192.6 307.767C 188.42 307.767 186.764 307.826 188.921 307.898M215.5 307.882C 215.995 307.978 216.805 307.978 217.3 307.882C 217.795 307.787 217.39 307.709 216.4 307.709C 215.41 307.709 215.005 307.787 215.5 307.882" stroke="none" fill="#E15C5C" fill-rule="nonzero" />
        <path d="M189.1 92.698C 191.135 92.771 194.465 92.771 196.5 92.698C 198.535 92.625 196.87 92.566 192.8 92.566C 188.73 92.566 187.065 92.625 189.1 92.698M215.6 92.8C 216.15 92.976 217.41 93.117 218.4 93.114L218.4 93.114L220.2 93.108L218.6 92.777C 216.382 92.318 214.149 92.335 215.6 92.8M182.3 93.082C 182.795 93.178 183.605 93.178 184.1 93.082C 184.595 92.987 184.19 92.909 183.2 92.909C 182.21 92.909 181.805 92.987 182.3 93.082M222.8 93.577C 223.339 93.946 226.768 94.21 226.367 93.851C 226.275 93.769 225.3 93.582 224.2 93.435C 222.78 93.245 222.374 93.286 222.8 93.577M227 94.4C 227.136 94.62 227.822 94.782 228.524 94.76C 229.743 94.722 229.755 94.706 228.8 94.4C 227.364 93.94 226.716 93.94 227 94.4M230.6 95.2C 230.736 95.42 231.242 95.587 231.724 95.572C 232.569 95.545 232.571 95.531 231.8 95.2C 230.699 94.727 230.308 94.727 230.6 95.2M233.423 96.037C 233.546 96.237 233.999 96.4 234.429 96.4C 234.859 96.4 235.613 96.608 236.105 96.862C 237.899 97.79 238.397 98 238.799 98C 239.537 98 243.975 100.065 247.8 102.189C 252.811 104.97 252.67 104.9 251.653 104.123C 249.09 102.167 243.242 99.198 238.4 97.396C 237.41 97.027 236.24 96.577 235.8 96.396C 234.463 95.846 233.185 95.653 233.423 96.037M252.974 105.158C 253.123 105.399 253.616 105.795 254.071 106.038C 254.662 106.354 254.82 106.356 254.626 106.042C 254.477 105.801 253.984 105.405 253.529 105.162C 252.938 104.846 252.78 104.844 252.974 105.158M255.2 106.689C 255.2 106.875 255.695 107.32 256.3 107.679C 256.905 108.037 257.79 108.66 258.266 109.065C 261.188 111.544 262.611 112.464 260.4 110.443C 258.105 108.346 255.2 106.249 255.2 106.689M139.775 111.7L138.6 113L139.9 111.825C 141.112 110.73 141.384 110.4 141.075 110.4C 141.006 110.4 140.421 110.985 139.775 111.7M265.941 116.1C 267.464 117.695 269.225 119.63 269.855 120.4C 270.484 121.17 271.314 122.149 271.7 122.575C 272.085 123.002 272.4 123.51 272.4 123.704C 272.4 123.898 272.67 124.327 273 124.657C 274.168 125.825 273.569 124.569 271.892 122.336C 269.798 119.548 263.976 113.2 263.512 113.2C 263.325 113.2 264.418 114.505 265.941 116.1M132.975 118.5L131.8 119.8L133.1 118.625C 133.815 117.979 134.4 117.394 134.4 117.325C 134.4 117.016 134.07 117.288 132.975 118.5M274.022 125.8C 274.027 126.329 275.142 127.791 275.369 127.565C 275.466 127.468 275.202 126.941 274.782 126.394C 274.361 125.847 274.02 125.58 274.022 125.8M275.609 128.3C 275.614 128.465 275.985 129.05 276.433 129.6L276.433 129.6L277.248 130.6L276.614 129.3C 276.011 128.065 275.589 127.645 275.609 128.3M278.819 133.9C 278.846 134.336 281.159 138.654 281.181 138.312C 281.209 137.893 279.211 133.6 278.988 133.6C 278.885 133.6 278.808 133.735 278.819 133.9M188.8 135.873C 194.937 136.148 216.685 136.174 216.263 135.906C 216.008 135.744 209.14 135.645 201 135.684C 192.86 135.724 187.37 135.809 188.8 135.873M219.791 137.2C 221.326 137.613 222.657 137.877 222.748 137.785C 222.84 137.694 222.664 137.55 222.357 137.466C 222.051 137.382 221.157 137.108 220.372 136.856C 219.586 136.605 218.506 136.411 217.972 136.424C 217.437 136.437 218.256 136.786 219.791 137.2M176.493 138.58C 175.247 139.268 174.856 139.706 175.812 139.343C 177.303 138.775 178.599 138.005 178 138.042C 177.67 138.062 176.992 138.304 176.493 138.58M224.538 138.847C 225.384 139.293 226.16 139.574 226.263 139.471C 226.489 139.244 224.057 137.993 223.439 138.018C 223.197 138.027 223.692 138.4 224.538 138.847M281.407 139.65C 281.567 140.172 282.037 141.309 282.449 142.175C 282.862 143.041 283.2 143.989 283.2 144.281C 283.2 144.572 283.362 145.123 283.561 145.505C 283.76 145.887 284.139 147.01 284.403 148C 285.119 150.675 285.6 151.696 285.345 150C 285.23 149.23 284.995 148.24 284.823 147.8C 284.651 147.36 284.294 146.28 284.029 145.4C 283.536 143.762 282.979 142.336 282.353 141.105C 282.159 140.723 282 140.149 282 139.829C 282 139.509 281.801 139.124 281.557 138.974C 281.253 138.786 281.206 138.998 281.407 139.65M172.229 141.008C 171.144 141.758 169.974 142.669 169.629 143.032C 169.283 143.396 169.9 143.071 171 142.31C 172.1 141.55 173.445 140.629 173.989 140.264C 174.533 139.899 174.803 139.61 174.589 139.622C 174.375 139.634 173.313 140.258 172.229 141.008M228.856 141.166C 229.375 141.587 229.877 141.855 229.971 141.761C 230.176 141.557 228.744 140.431 228.256 140.413C 228.066 140.406 228.336 140.745 228.856 141.166M231.194 142.782C 231.741 143.202 232.268 143.466 232.365 143.369C 232.591 143.142 231.129 142.027 230.6 142.022C 230.38 142.02 230.647 142.361 231.194 142.782M166.406 145.794C 165.663 146.561 165.132 147.25 165.227 147.325C 165.322 147.4 166.006 146.773 166.746 145.931C 168.429 144.018 168.212 143.931 166.406 145.794M235.206 146.117C 235.203 146.292 235.656 146.922 236.214 147.517C 236.772 148.113 237.785 149.462 238.466 150.515C 239.146 151.569 239.787 152.346 239.89 152.243C 239.993 152.14 239.54 151.279 238.884 150.328C 237.423 148.213 235.215 145.685 235.206 146.117M285.6 152.91C 285.6 153.703 285.791 154.471 286.026 154.616C 286.315 154.795 286.362 154.388 286.172 153.339C 285.803 151.297 285.6 151.145 285.6 152.91M286.464 156.697L286.4 158.393L264.5 158.5L242.6 158.607L264.513 158.703C 288.581 158.809 287.016 158.976 286.692 156.338C 286.544 155.129 286.522 155.163 286.464 156.697M157.849 161.015C 157.712 161.373 157.618 162.056 157.641 162.533C 157.667 163.081 157.803 162.886 158.01 162.003C 158.36 160.516 158.265 159.933 157.849 161.015M114.12 162.8C 114.12 164.01 114.195 164.505 114.287 163.9C 114.378 163.295 114.378 162.305 114.287 161.7C 114.195 161.095 114.12 161.59 114.12 162.8M157.052 165.3C 156.718 166.546 156.792 234.038 157.128 234.885C 157.278 235.262 157.4 219.557 157.4 199.985C 157.4 180.413 157.376 164.4 157.347 164.4C 157.317 164.4 157.185 164.805 157.052 165.3M114.12 237.2C 114.12 238.41 114.195 238.905 114.287 238.3C 114.378 237.695 114.378 236.705 114.287 236.1C 114.195 235.495 114.12 235.99 114.12 237.2M157.606 237.633C 157.609 238.165 157.789 238.87 158.006 239.2C 158.282 239.622 158.323 239.385 158.142 238.4C 157.825 236.675 157.598 236.349 157.606 237.633M264.5 241.5L286.4 241.607L286.457 243.303L286.514 245L286.759 243.4C 287.111 241.105 288.163 241.204 264.4 241.303L264.4 241.303L242.6 241.393L264.5 241.5zM285.849 245.815C 285.712 246.173 285.618 246.946 285.64 247.533C 285.673 248.391 285.752 248.295 286.046 247.04C 286.422 245.439 286.295 244.653 285.849 245.815M115.606 247.833C 115.609 248.255 115.795 248.87 116.018 249.2C 116.315 249.638 116.352 249.476 116.156 248.6C 115.827 247.129 115.598 246.81 115.606 247.833M238.321 249.694C 237.551 250.852 235.994 252.746 234.861 253.902C 232.307 256.507 232.125 257.222 234.637 254.783C 236.623 252.855 240.214 248.081 239.909 247.776C 239.806 247.672 239.091 248.536 238.321 249.694M285.013 249.7C 284.88 250.195 284.581 251.32 284.347 252.2C 284.113 253.08 283.76 254.113 283.561 254.495C 283.362 254.877 283.2 255.464 283.2 255.8C 283.2 256.136 283.041 256.723 282.847 257.105C 281.955 258.858 281.132 261.2 281.407 261.2C 281.665 261.2 282.66 258.741 283.655 255.645C 284.123 254.19 284.647 252.64 284.82 252.2C 285.215 251.198 285.636 248.8 285.417 248.8C 285.327 248.8 285.145 249.205 285.013 249.7M163.191 250.388C 163.657 251.041 164.242 251.702 164.491 251.856C 164.741 252.011 164.441 251.476 163.825 250.668C 162.488 248.915 161.984 248.692 163.191 250.388M166.6 254.4C 167.683 255.5 168.647 256.4 168.741 256.4C 169.08 256.4 165.391 252.48 165.015 252.441C 164.803 252.418 165.517 253.3 166.6 254.4M230.038 258.04C 227.452 259.907 227.671 260.13 230.328 258.335C 232.643 256.771 232.568 256.833 232.367 256.64C 232.275 256.552 231.227 257.182 230.038 258.04M279.859 263.859C 279.256 265.089 278.842 266.175 278.939 266.273C 279.037 266.37 279.609 265.443 280.212 264.212C 280.814 262.981 281.228 261.894 281.131 261.798C 281.035 261.701 280.462 262.629 279.859 263.859M221.4 262.4C 220.629 262.731 220.631 262.745 221.476 262.772C 221.958 262.787 222.464 262.62 222.6 262.4C 222.892 261.927 222.501 261.927 221.4 262.4M218.8 263.2L217.8 263.52L218.876 263.56C 219.468 263.582 220.064 263.42 220.2 263.2C 220.481 262.745 220.22 262.745 218.8 263.2M213.8 264L212.2 264.286L214.276 264.343C 215.418 264.374 216.464 264.22 216.6 264C 216.87 263.563 216.242 263.563 213.8 264M192.1 264.299C 195.565 264.366 201.235 264.366 204.7 264.299C 208.165 264.233 205.33 264.178 198.4 264.178C 191.47 264.178 188.635 264.233 192.1 264.299M276.222 270.622C 275.845 271.198 275.616 271.749 275.714 271.847C 275.812 271.945 276.2 271.554 276.578 270.978C 276.955 270.402 277.184 269.851 277.086 269.753C 276.988 269.655 276.6 270.046 276.222 270.622M274.469 273.239C 273.71 274.454 274.166 274.616 274.955 273.412C 275.32 272.856 275.478 272.4 275.305 272.4C 275.133 272.4 274.757 272.778 274.469 273.239M272.492 276.229C 271.997 276.983 271.672 277.6 271.769 277.6C 272.047 277.6 273.704 275.171 273.539 275.006C 273.457 274.924 272.986 275.474 272.492 276.229M270.013 279.324C 268.735 281.008 260.903 288.821 259.5 289.813C 258.895 290.24 258.4 290.744 258.4 290.932C 258.4 291.485 262.117 288.214 265.979 284.264C 269.719 280.438 271.398 278.465 271.137 278.203C 271.052 278.118 270.546 278.623 270.013 279.324M132.629 281.238C 133.273 282.029 133.881 282.608 133.979 282.525C 134.078 282.442 133.551 281.795 132.809 281.087L132.809 281.087L131.458 279.8L132.629 281.238zM143.6 291.325C 143.6 291.424 144.261 292.009 145.068 292.625C 145.876 293.241 146.411 293.541 146.256 293.291C 145.94 292.779 143.6 291.047 143.6 291.325M255.829 292.609C 255.405 292.929 255.138 293.271 255.235 293.369C 255.332 293.466 255.859 293.202 256.406 292.782C 256.953 292.361 257.22 292.02 257 292.022C 256.78 292.024 256.253 292.288 255.829 292.609M253.7 294.088C 253.205 294.327 252.8 294.679 252.8 294.87C 252.8 295.062 253.25 294.924 253.8 294.563C 255.267 293.602 255.216 293.357 253.7 294.088M249.6 296.8C 249.05 297.23 248.78 297.582 249 297.582C 249.22 297.582 249.85 297.23 250.4 296.8C 250.95 296.37 251.22 296.018 251 296.018C 250.78 296.018 250.15 296.37 249.6 296.8M244.2 299.485C 242.22 300.486 240.15 301.483 239.6 301.7C 239.05 301.916 238.287 302.252 237.905 302.447C 237.523 302.641 236.859 302.8 236.429 302.8C 235.999 302.8 235.536 302.98 235.4 303.2C 235.264 303.42 234.724 303.6 234.2 303.6C 233.676 303.6 233.136 303.78 233 304C 232.864 304.22 232.85 304.4 232.968 304.4C 233.481 304.4 239.541 302.25 240.975 301.559C 241.841 301.141 242.786 300.8 243.075 300.8C 243.364 300.8 243.6 300.62 243.6 300.4C 243.6 300.18 243.834 300 244.12 300C 244.856 300 246.793 299.059 246.797 298.7C 246.799 298.535 247.059 298.4 247.376 298.4C 247.693 298.4 248.064 298.22 248.2 298C 248.608 297.341 247.971 297.577 244.2 299.485M170 304.8C 171.368 305.238 172.419 305.238 171.4 304.8C 170.96 304.611 170.24 304.462 169.8 304.468C 169.157 304.477 169.196 304.543 170 304.8M230.19 304.816C 230.021 305.089 230.323 305.138 231.066 304.96C 232.599 304.592 232.744 304.4 231.49 304.4C 230.917 304.4 230.332 304.587 230.19 304.816M226.99 305.616C 226.821 305.889 227.123 305.938 227.866 305.76C 229.399 305.392 229.544 305.2 228.29 305.2C 227.717 305.2 227.132 305.387 226.99 305.616M176.1 306.276C 176.485 306.376 177.115 306.376 177.5 306.276C 177.885 306.175 177.57 306.093 176.8 306.093C 176.03 306.093 175.715 306.175 176.1 306.276M222.584 306.426C 222.405 306.715 222.812 306.762 223.861 306.572C 225.903 306.203 226.055 306 224.29 306C 223.497 306 222.729 306.191 222.584 306.426M182.307 307.09C 183.026 307.179 184.106 307.177 184.707 307.086C 185.308 306.995 184.72 306.922 183.4 306.924C 182.08 306.926 181.588 307.001 182.307 307.09M214.4 307.2C 213.006 307.493 213.008 307.495 214.8 307.524C 215.79 307.541 217.32 307.405 218.2 307.223L218.2 307.223L219.8 306.892L217.8 306.899C 216.7 306.902 215.17 307.038 214.4 307.2M189.5 307.498C 191.535 307.571 194.865 307.571 196.9 307.498C 198.935 307.425 197.27 307.366 193.2 307.366C 189.13 307.366 187.465 307.425 189.5 307.498" stroke="none" fill="#E49C94" fill-rule="nonzero" />
	</g>
</g>
</svg>