<?xml version="1.0" standalone="no"?>
<!DOCTYPE svg PUBLIC "-//W3C//DTD SVG 1.0//EN" "http://www.w3.org/TR/2001/REC-SVG-20010904/DTD/svg10.dtd">
<svg xmlns="http://www.w3.org/2000/svg" xmlns:xlink="http://www.w3.org/1999/xlink" id="body_1" width="614" height="461">

<defs>
    <linearGradient transform="matrix(1 0 -0 -1 -0 -15870)"  id="1" x1="79.54" y1="-16322.12" x2="391.53" y2="-16010.12">
        <stop stop-color="#F58B1F" offset="0%"/>
        <stop stop-color="#EE3E30" offset="100%"/>
    </linearGradient>
    <linearGradient transform="matrix(0.71 0.71 0.71 -0.71 11542.98 -11199.21)"  id="245" x1="133.27" y1="-16429.45" x2="133.27" y2="-16153.01">
        <stop stop-color="#C41E51" offset="0%"/>
        <stop stop-color="#680225" offset="100%"/>
    </linearGradient>
</defs>

<g transform="matrix(0.9003906 0 0 0.9003906 76.500015 -0)">
	<g>
		<g>
            <path d="M365.18 274.21C 352.7203 271.83563 341.7152 264.6065 334.58795 254.11444C 327.46072 243.62239 324.79578 230.72778 327.18 218.26999L327.18 218.26999L332 193.49C 344.72 127.04001 303 60.72 236.69 47.200012C 204.3 40.57142 170.60576 47.302048 143.24805 65.8656C 115.89035 84.429146 97.18723 113.252716 91.38 145.8C 79.47 212.4 125.7 275.67 192.15 288.38L192.15 288.38L216.93 293.12C 229.38757 295.49448 240.39095 302.72214 247.51791 313.2119C 254.6449 323.7017 257.31125 336.59372 254.93 349.05C 244.79 402.05 278.15 455.05 331.09998 465.46C 356.52115 470.43805 382.87762 465.05652 404.3125 450.51123C 425.7473 435.96597 440.48483 413.46194 445.25 388C 455.15 334.93 418.17 284.35 365.18 274.21z" stroke="none" fill="url(#1)" />
            <path transform="matrix(0.7071067 -0.7071068 0.7071068 0.7071067 -243.22 211.15)"  d="M201.41 399.17C 201.41002 417.9836 194.7584 434.042 181.45518 447.34518C 168.15198 460.64844 152.09358 467.30005 133.28 467.30002C 114.46642 467.30005 98.40803 460.64844 85.10481 447.34518C 71.801605 434.042 65.15 417.9836 65.15 399.17C 65.15 380.35645 71.801605 364.29807 85.10481 350.99484C 98.40803 337.69162 114.46642 331.04 133.28 331.04C 152.09358 331.04 168.15198 337.69162 181.45518 350.99484C 194.7584 364.29807 201.41002 380.35645 201.41 399.17C 201.41002 399.96283 201.39618 400.7554 201.3685 401.54773" stroke="none" fill="url(#245)" />
		</g>
	</g>
</g>
</svg>