<?xml version="1.0" standalone="no"?>
<!DOCTYPE svg PUBLIC "-//W3C//DTD SVG 1.0//EN" "http://www.w3.org/TR/2001/REC-SVG-20010904/DTD/svg10.dtd">
<svg xmlns="http://www.w3.org/2000/svg" xmlns:xlink="http://www.w3.org/1999/xlink" id="body_1" width="614" height="461">

<g transform="matrix(0.9003906 0 0 0.9003906 76.500015 9.003906)">
	<g>
        <path d="M20.8 48.399C 20.8 48.62 20.178 48.8 19.419 48.8C 18.659 48.8 17.534 49.002 16.919 49.25C 16.303 49.497 15.44 49.842 15 50.016C 12.266 51.098 11.6 51.428 11.6 51.698C 11.6 51.864 11.33 52 11 52C 10.67 52 10.4 52.18 10.4 52.4C 10.4 52.62 10.217 52.8 9.993 52.8C 9.395 52.8 4.4 57.895 4.4 58.504C 4.4 58.79 4.04 59.283 3.6 59.6C 3.16 59.917 2.8 60.407 2.8 60.688C 2.8 60.97 2.62 61.2 2.4 61.2C 2.18 61.2 2 61.549 2 61.976C 2 62.403 1.82 62.864 1.6 63C 1.38 63.136 1.2 63.582 1.2 63.99C 1.2 64.399 0.975 64.808 0.7 64.9C 0.308 65.03 0.174 70.72 0.081 91.133L0.081 91.133L-0.038 117.2L179.557 117.2C 298.856 117.2 359.236 117.334 359.4 117.6C 359.56 117.858 366.811 118 379.845 118L379.845 118L400.042 118L399.921 91.333C 399.826 70.442 399.692 64.63 399.3 64.5C 399.025 64.408 398.8 63.988 398.8 63.567C 398.8 63.145 398.62 62.8 398.4 62.8C 398.18 62.8 398 62.44 398 62C 398 61.56 397.82 61.2 397.6 61.2C 397.38 61.2 397.2 60.93 397.2 60.6C 397.2 60.27 397.02 60 396.8 60C 396.58 60 396.4 59.748 396.4 59.441C 396.4 58.904 390.711 52.8 390.211 52.8C 390.076 52.8 389.58 52.44 389.108 52C 388.636 51.56 388.013 51.2 387.725 51.2C 387.436 51.2 387.2 51.02 387.2 50.8C 387.2 50.58 386.851 50.4 386.424 50.4C 385.997 50.4 385.536 50.22 385.4 50C 385.264 49.78 384.713 49.6 384.176 49.6C 383.639 49.6 383.2 49.438 383.2 49.24C 383.2 49.042 382.345 48.748 381.3 48.585C 378.26 48.113 20.8 47.928 20.8 48.399M47.2 72.024C 60.35 74.977 58.724 94.8 45.331 94.8C 31.618 94.8 29.603 75.135 43 72.049C 45.128 71.559 45.129 71.559 47.2 72.024M82.8 72.237C 92.739 75.689 93.89 89.315 84.6 93.547C 83.94 93.847 83.087 94.252 82.705 94.447C 81.793 94.911 77.382 94.902 76.495 94.434C 76.113 94.232 75.162 93.791 74.382 93.454C 62.013 88.103 70.063 67.813 82.8 72.237M117.815 72.667C 121.879 74.052 125.2 78.781 125.2 83.184C 125.2 92.93 113.432 98.119 106.384 91.482C 97.565 83.177 106.327 68.753 117.815 72.667" stroke="none" fill="#688BD2" fill-rule="nonzero" />
        <path d="M0.095 226.667C 0.179 313.17 0.302 335.367 0.7 335.5C 0.975 335.592 1.2 336.012 1.2 336.433C 1.2 336.855 1.38 337.2 1.6 337.2C 1.82 337.2 2 337.56 2 338C 2 338.44 2.136 338.8 2.302 338.8C 2.469 338.8 2.841 339.334 3.13 339.988C 3.716 341.311 9.303 347.2 9.973 347.2C 10.208 347.2 10.4 347.38 10.4 347.6C 10.4 347.82 10.67 348 11 348C 11.33 348 11.601 348.135 11.603 348.3C 11.607 348.659 13.544 349.6 14.28 349.6C 14.566 349.6 14.8 349.78 14.8 350C 14.8 350.22 15.25 350.4 15.8 350.4C 16.35 350.4 16.8 350.58 16.8 350.8C 16.8 351.02 17.599 351.2 18.576 351.2C 19.553 351.2 20.464 351.38 20.6 351.6C 20.764 351.866 80.996 352 200 352C 319.004 352 379.236 351.866 379.4 351.6C 379.536 351.38 380.346 351.2 381.2 351.2C 382.054 351.2 382.864 351.02 383 350.8C 383.136 350.58 383.777 350.4 384.424 350.4C 385.071 350.4 385.6 350.22 385.6 350C 385.6 349.78 385.96 349.6 386.4 349.6C 386.84 349.6 387.2 349.42 387.2 349.2C 387.2 348.98 387.436 348.8 387.725 348.8C 388.013 348.8 388.636 348.44 389.108 348C 389.58 347.56 390.073 347.2 390.203 347.2C 390.452 347.2 395.311 342.297 396.5 340.845C 396.885 340.375 397.2 339.723 397.2 339.395C 397.2 339.068 397.38 338.8 397.6 338.8C 397.82 338.8 398 338.44 398 338C 398 337.56 398.18 337.2 398.4 337.2C 398.62 337.2 398.8 336.855 398.8 336.433C 398.8 336.012 399.025 335.592 399.3 335.5C 399.698 335.367 399.821 313.223 399.904 226.933L399.904 226.933L400.009 118.532L369.704 118.266C 353.037 118.12 263.033 118 169.695 118L169.695 118L-0.01 118L0.095 226.667zM114.458 167.204C 123.293 168.066 129.548 169.981 136.6 173.985C 141.465 176.747 142.4 177.952 142.4 181.457C 142.4 187.453 137.276 189.302 130.852 185.623C 128.953 184.536 126.59 183.35 125.6 182.986C 124.61 182.623 123.44 182.183 123 182.008C 118.853 180.364 109.42 179.501 105.2 180.38C 103.99 180.632 102.1 181.022 101 181.247C 99.9 181.472 98.64 181.805 98.2 181.987C 97.76 182.17 96.77 182.545 96 182.82C 90.421 184.815 82.578 190.794 79.198 195.628C 78.67 196.382 78.14 197.09 78.019 197.2C 77.297 197.859 73.6 205.199 73.6 205.975C 73.6 206.341 73.449 206.811 73.264 207.02C 73.08 207.229 72.705 208.48 72.432 209.8C 72.159 211.12 71.754 212.938 71.533 213.839C 70.881 216.495 71.575 228.063 72.441 228.98C 72.638 229.189 72.8 229.853 72.8 230.456C 72.8 231.059 72.98 231.664 73.2 231.8C 73.42 231.936 73.6 232.318 73.6 232.649C 73.6 235.284 79.068 243.577 83.8 248.12C 88.593 252.721 93.387 255.241 102.721 258.067C 104.524 258.613 116.906 258.586 117.938 258.033C 118.383 257.795 119.199 257.6 119.75 257.6C 120.302 257.6 120.864 257.42 121 257.2C 121.136 256.98 121.578 256.8 121.983 256.8C 123.898 256.8 130.069 252.826 133.409 249.441C 138.528 244.255 144.605 245.053 145.728 251.058C 146.754 256.544 136.435 265.813 125.4 269.318C 110.037 274.197 89.762 270.438 78.514 260.624C 78.247 260.391 76.98 259.3 75.699 258.2C 70.238 253.513 64.671 245.537 61.948 238.5C 61.073 236.239 60.882 235.711 60.455 234.372C 60.205 233.586 60 232.562 60 232.095C 60 231.629 59.843 231.15 59.65 231.031C 58.337 230.219 58.326 209.201 59.639 207.82C 59.837 207.611 60 207.084 60 206.648C 60 205.667 60.595 203.737 61.957 200.3C 64.813 193.09 69.487 186.2 74.8 181.367C 78.668 177.849 79.436 177.218 79.867 177.209C 80.123 177.204 80.393 177.055 80.467 176.877C 80.82 176.02 87.649 172.227 92.2 170.361C 95.602 168.965 102.431 167.486 107.4 167.069C 108.28 166.995 109.296 166.904 109.658 166.867C 110.019 166.83 112.179 166.982 114.458 167.204M204.316 167.231C 206.452 167.467 209.28 167.934 210.6 168.267C 211.92 168.601 213.497 168.968 214.105 169.083C 214.713 169.198 215.308 169.451 215.429 169.646C 215.549 169.841 215.952 170.004 216.324 170.008C 216.696 170.013 218.8 170.933 221 172.052C 223.2 173.171 225.404 174.292 225.897 174.543C 226.39 174.794 226.795 175.135 226.797 175.3C 226.799 175.465 227.025 175.6 227.3 175.6C 227.575 175.601 228.34 176.066 229 176.635C 229.66 177.204 230.403 177.789 230.651 177.935C 232.698 179.139 233.68 182.758 232.635 185.251C 230.663 189.959 225.777 190.509 220.633 186.602C 217.576 184.281 211.108 181.615 205.587 180.401C 190.257 177.029 176.699 189.435 183.568 200.548C 184.838 202.603 185.794 203.29 189.7 204.959C 190.525 205.312 191.875 205.888 192.7 206.241C 193.525 206.593 194.56 207.019 195 207.187C 197.047 207.969 197.923 208.347 199.538 209.143C 200.494 209.614 201.441 210 201.642 210C 201.844 210 202.772 210.348 203.704 210.773C 204.637 211.197 206.3 211.84 207.4 212.202C 208.5 212.563 209.94 213.087 210.6 213.367C 211.26 213.646 213.148 214.447 214.795 215.147C 223.416 218.807 230.746 225.188 233.698 231.6C 237.506 239.874 236.34 250.842 230.93 257.638C 225.409 264.573 219.962 268.107 210.8 270.7C 207.669 271.586 195.715 271.55 191.634 270.643C 177.586 267.519 164 258.157 164 251.6C 164 248.759 165.666 246 167.381 246C 167.695 246 168.064 245.82 168.2 245.6C 169.06 244.209 172.717 245.43 175.545 248.052C 178.131 250.45 182.81 253.755 185.303 254.945C 187.142 255.822 188.844 256.411 194.308 258.062C 196.152 258.62 207.958 258.602 208.518 258.042C 208.761 257.799 209.26 257.6 209.626 257.6C 209.993 257.6 211.603 256.944 213.205 256.143C 217.711 253.889 220.715 250.533 222.749 245.481C 224.765 240.477 220.817 232.731 214.534 229.362C 213.69 228.91 212.64 228.348 212.2 228.114C 210.336 227.121 206.866 225.647 204.4 224.8C 202.707 224.218 201.24 223.629 200.305 223.153C 199.923 222.959 199.426 222.8 199.201 222.8C 198.976 222.8 198.028 222.459 197.096 222.042C 196.163 221.625 193.96 220.708 192.2 220.004C 180.685 215.399 179.397 214.693 175.7 210.968C 173.885 209.139 172.4 207.363 172.4 207.021C 172.4 206.679 172.264 206.4 172.098 206.4C 171.931 206.4 171.556 205.815 171.264 205.1C 170.972 204.385 170.586 203.44 170.407 203C 169.127 199.861 169 199.101 169 194.6C 169 188.211 170.272 183.966 173.459 179.716C 179.459 171.716 187.113 167.993 199.916 166.846C 200.199 166.821 202.179 166.994 204.316 167.231M294.732 167.241C 312.135 169.225 327.298 179.795 322.257 186.43C 319.593 189.938 316.254 190.129 311.514 187.043C 302.718 181.317 292.503 178.686 285.846 180.432C 280.771 181.762 279.471 182.321 276.851 184.298C 273.068 187.152 270.632 194.522 272.353 197.905C 272.548 198.287 272.944 199.107 273.235 199.726C 274.394 202.196 275.835 203.227 281.4 205.563C 281.84 205.748 283.1 206.304 284.2 206.8C 286.157 207.682 287.287 208.156 289.1 208.854C 289.595 209.044 290.405 209.356 290.9 209.546C 291.395 209.737 292.295 210.097 292.9 210.346C 293.505 210.596 294.45 210.98 295 211.2C 295.55 211.42 296.405 211.763 296.9 211.963C 297.395 212.163 299.78 213.091 302.2 214.025C 312.285 217.919 322.8 226.059 322.8 229.972C 322.8 230.207 322.936 230.4 323.102 230.4C 323.269 230.4 323.64 230.985 323.929 231.7C 324.217 232.415 324.621 233.313 324.826 233.695C 325.032 234.077 325.2 234.831 325.2 235.371C 325.2 235.911 325.38 236.464 325.6 236.6C 325.834 236.745 326 239.063 326 242.2C 326 245.337 325.834 247.655 325.6 247.8C 325.38 247.936 325.2 248.489 325.2 249.029C 325.2 249.569 325.04 250.323 324.844 250.705C 324.648 251.087 324.07 252.3 323.559 253.4C 315.436 270.902 288.227 277.117 268.547 265.963C 267.806 265.544 266.525 264.819 265.7 264.354C 264.875 263.888 264.11 263.378 264 263.219C 263.89 263.061 263.509 262.767 263.154 262.566C 257.298 259.249 252.982 253.344 254.025 250.076C 255.898 244.211 261.152 243.705 266.703 248.856C 269.113 251.092 273.7 254.4 274.39 254.4C 274.678 254.4 276.206 255.096 278.895 256.45C 279.277 256.643 279.941 256.8 280.371 256.8C 280.801 256.8 281.264 256.98 281.4 257.2C 281.536 257.42 282.098 257.6 282.65 257.6C 283.201 257.6 284.011 257.792 284.449 258.026C 285.565 258.624 297.912 258.648 298.506 258.054C 298.756 257.804 299.286 257.6 299.685 257.6C 300.084 257.6 300.723 257.44 301.105 257.244C 301.487 257.048 302.694 256.463 303.786 255.944C 306.476 254.666 310.44 250.886 311.568 248.525C 312.074 247.466 312.648 246.287 312.844 245.905C 313.367 244.886 313.278 239.418 312.717 238.119C 310.416 232.784 305.24 228.764 296.6 225.6C 296.16 225.439 295.26 225.079 294.6 224.8C 293.229 224.221 291.761 223.63 290.6 223.19C 286.114 221.49 273.661 216.413 271.718 215.493C 267.815 213.642 263.073 208.713 261.241 204.6C 260.947 203.94 260.548 203.087 260.353 202.705C 260.159 202.323 260 201.569 260 201.029C 260 200.489 259.82 199.936 259.6 199.8C 259.045 199.457 259.091 190.199 259.656 188.428C 261.446 182.823 263.504 179.265 266.85 175.989C 269.067 173.818 272.06 171.6 272.772 171.6C 273.007 171.6 273.2 171.42 273.2 171.2C 273.2 170.98 273.382 170.8 273.604 170.8C 273.827 170.8 274.772 170.447 275.704 170.015C 278.948 168.514 283.547 167.52 290.332 166.852C 290.624 166.824 292.604 166.998 294.732 167.241" stroke="none" fill="#D7E9FB" fill-rule="nonzero" />
        <path d="M101.2 168.627C 97.138 169.437 93.356 170.568 90.5 171.827C 86.813 173.452 85.968 173.906 83.2 175.747C 78.146 179.109 73.018 183.626 70.4 187.022C 59.967 200.557 56.263 218.213 60.796 232.8C 60.967 233.35 61.34 234.61 61.625 235.6C 65.486 249.033 76.731 260.804 92.2 267.608C 104.828 273.162 123.811 271.42 135.324 263.651C 145.468 256.806 148.015 250.417 141.861 247.25C 139.138 245.848 137.508 246.422 133.588 250.165C 125.687 257.708 115.137 261.095 105.531 259.174C 104.359 258.94 102.41 258.549 101.2 258.307C 99.99 258.064 98.82 257.748 98.6 257.605C 98.38 257.461 97.39 257.095 96.4 256.791C 94.653 256.253 94.075 255.975 90.511 253.957C 85.479 251.106 77.236 243.264 77.207 241.3C 77.203 241.025 77.041 240.8 76.847 240.8C 76.652 240.8 76.39 240.485 76.264 240.1C 76.138 239.715 75.611 238.68 75.093 237.8C 70.318 229.691 69.243 217.142 72.458 207.045C 73.294 204.418 75.603 199.486 76.098 199.267C 76.264 199.193 76.4 198.956 76.4 198.739C 76.4 197.995 78.798 194.859 81.799 191.678C 94.61 178.1 115.106 175.436 131.6 185.206C 136.98 188.392 141.872 186.632 141.971 181.474C 142.01 179.429 139.959 176 138.697 176C 138.503 176 137.592 175.493 136.672 174.873C 134.559 173.449 130.938 171.773 127.4 170.58C 119.948 168.066 108.344 167.202 101.2 168.627M193 168.459C 188.59 169.495 187.766 169.773 184.278 171.398C 178.192 174.235 172.56 180.519 170.835 186.4C 170.544 187.39 170.148 188.722 169.953 189.36C 167.945 195.951 170.934 205.454 176.857 211.312C 179.733 214.156 182.336 215.41 198.2 221.59C 208.597 225.641 207.604 225.231 211.32 227.002C 217.784 230.083 221.364 233.373 223.177 237.901C 223.783 239.413 223.853 245.149 223.279 246.249C 223.064 246.662 222.474 247.866 221.968 248.925C 219.191 254.739 209.975 259.6 201.731 259.6C 198.106 259.6 191.703 258.318 187.8 256.81C 186.529 256.319 183.02 254.631 182.8 254.405C 182.69 254.291 182.1 253.941 181.488 253.625C 180.505 253.118 179.101 251.992 173.729 247.4C 170.185 244.37 164.4 246.945 164.4 251.554C 164.4 257.259 177.658 266.474 190.4 269.624C 233.412 280.258 253.672 229.794 212.4 214.827C 211.63 214.548 210.64 214.175 210.2 213.999C 209.76 213.822 208.32 213.28 207 212.793C 205.68 212.306 203.837 211.569 202.904 211.154C 201.972 210.739 200.973 210.4 200.684 210.4C 200.396 210.4 199.989 210.247 199.78 210.06C 199.571 209.872 198.14 209.227 196.6 208.626C 193.163 207.284 191.459 206.553 189.462 205.563C 188.616 205.143 187.697 204.8 187.419 204.8C 186.383 204.8 183.22 201.519 182.222 199.41C 178.635 191.827 183.764 182.778 193.037 180.332C 196.873 179.32 204.543 179.133 207.2 179.986C 207.75 180.163 209.01 180.532 210 180.806C 210.99 181.08 212.604 181.66 213.587 182.095C 214.57 182.53 215.828 183.059 216.382 183.269C 216.936 183.48 218.832 184.606 220.595 185.772C 224.954 188.655 226.353 189.08 228.628 188.211C 233.789 186.24 233.492 180.53 228.037 176.825C 224.005 174.087 222.39 173.233 216.6 170.779C 210.846 168.34 198.619 167.138 193 168.459M284.6 168.191C 284.38 168.262 282.85 168.623 281.2 168.994C 278.252 169.656 272.384 172.187 270.705 173.521C 259.312 182.574 256.404 195.906 263.404 207C 265.299 210.004 270.438 214.8 271.762 214.8C 271.882 214.8 273.109 215.315 274.49 215.945C 275.87 216.575 280.51 218.483 284.8 220.186C 292.34 223.178 293.24 223.536 295.4 224.4C 295.95 224.62 296.85 224.98 297.4 225.2C 297.95 225.42 298.805 225.756 299.3 225.946C 315.428 232.155 318.823 245.3 306.795 254.962C 305.374 256.103 301.621 258 300.783 258C 300.378 258 299.951 258.156 299.833 258.347C 299.225 259.331 289.901 259.705 285.8 258.91C 280.919 257.964 281.223 258.047 278.2 256.82C 273.157 254.772 267.124 250.782 264.036 247.452C 260.828 243.992 254.8 246.73 254.8 251.646L254.8 251.646L254.8 254.065L258.1 257.381C 276.189 275.558 308.266 275.258 320.804 256.794C 330.35 242.736 324.945 225.812 308.189 217.293C 306.33 216.348 295.586 212 295.11 212C 294.935 212 293.938 211.622 292.896 211.16C 290.818 210.24 289.478 209.677 288.1 209.146C 285.772 208.25 285.283 208.049 283.6 207.292C 281.378 206.293 279.468 205.469 277.466 204.644C 272.101 202.434 269.538 194.184 272.482 188.6C 277.836 178.445 293.327 176.367 307.593 183.89C 309.459 184.875 311.619 186.176 312.393 186.783C 315.224 189.003 318.334 189.182 320.541 187.25C 323.315 184.822 322.848 179.631 319.703 177.948C 319.206 177.682 318.8 177.315 318.8 177.132C 318.8 176.95 318.53 176.8 318.2 176.8C 317.87 176.8 317.6 176.653 317.6 176.474C 317.6 175.127 304.396 169.564 298.576 168.46C 296.446 168.056 285.668 167.849 284.6 168.191" stroke="none" fill="#5C5555" fill-rule="nonzero" />
        <path d="M42.8 72.65C 34.677 74.156 31.599 84.813 37.522 90.925C 45.344 98.997 58.798 90.831 55.548 79.985C 54.036 74.938 48.29 71.632 42.8 72.65M77.2 72.655C 69.093 74.204 65.953 84.427 71.676 90.637C 78.277 97.797 90.4 93.123 90.4 83.417C 90.4 76.393 84.18 71.322 77.2 72.655" stroke="none" fill="#DE9F7A" fill-rule="nonzero" />
        <path d="M110.13 72.655C 102.423 75.386 100.351 85.8 106.384 91.482C 111.918 96.694 121.137 94.765 124.241 87.746C 128.174 78.853 119.33 69.395 110.13 72.655M117.4 73.2C 117.536 73.42 117.914 73.6 118.24 73.6C 119.274 73.6 122.695 76.769 123.445 78.421C 124.752 81.301 125.242 84.88 124.4 85.4C 124.18 85.536 124 86 124 86.432C 124 91.433 113.596 95.93 109.225 92.817C 108.593 92.368 107.948 92 107.791 92C 107.231 92 105.158 89.37 104.34 87.621C 102.619 83.941 104.058 77.026 106.947 75.098C 110.001 73.06 110.627 72.855 113.876 72.828C 115.678 72.812 117.264 72.98 117.4 73.2M0 117.6C 0 117.866 60.208 118 179.824 118C 299.604 118 359.565 117.866 359.4 117.6C 359.057 117.045 0 117.045 0 117.6" stroke="none" fill="#98B0D5" fill-rule="nonzero" />
        <path d="M43 72.049C 29.603 75.135 31.618 94.8 45.331 94.8C 58.724 94.8 60.35 74.977 47.2 72.024C 45.129 71.559 45.128 71.559 43 72.049M50.511 73.761C 55.255 76.39 57.36 82.906 55.047 87.8C 50.088 98.289 34.45 94.904 34.409 83.333C 34.379 75.065 43.298 69.763 50.511 73.761M68.101 83.4C 68.105 84.28 68.187 84.593 68.283 84.095C 68.379 83.598 68.375 82.878 68.275 82.495C 68.175 82.113 68.096 82.52 68.101 83.4M78.5 94.687C 79.105 94.778 80.095 94.778 80.7 94.687C 81.305 94.595 80.81 94.52 79.6 94.52C 78.39 94.52 77.895 94.595 78.5 94.687M106 167.6C 104.888 167.773 106.569 167.882 110.4 167.886C 114.784 167.891 116.014 167.802 114.6 167.582C 112.201 167.208 108.47 167.216 106 167.6M197 167.6C 195.991 167.781 197.394 167.888 200.8 167.89C 204.813 167.892 205.686 167.813 204.2 167.582C 201.789 167.206 199.163 167.213 197 167.6M287 167.6C 285.988 167.781 287.384 167.889 290.8 167.893C 294.719 167.898 295.706 167.812 294.4 167.58C 292.251 167.197 289.202 167.206 287 167.6M100.6 168.4L99.8 168.744L100.6 168.725C 101.04 168.714 101.94 168.568 102.6 168.4L102.6 168.4L103.8 168.095L102.6 168.075C 101.94 168.065 101.04 168.211 100.6 168.4M118.6 168.4C 119.26 168.568 120.16 168.714 120.6 168.725L120.6 168.725L121.4 168.744L120.6 168.4C 120.16 168.211 119.26 168.065 118.6 168.075L118.6 168.075L117.4 168.095L118.6 168.4zM191.8 168.4L191 168.744L191.8 168.732C 192.24 168.726 193.05 168.576 193.6 168.4L193.6 168.4L194.6 168.08L193.6 168.068C 193.05 168.062 192.24 168.211 191.8 168.4M207.8 168.4C 208.46 168.568 209.36 168.714 209.8 168.725L209.8 168.725L210.6 168.744L209.8 168.4C 209.36 168.211 208.46 168.065 207.8 168.075L207.8 168.075L206.6 168.095L207.8 168.4zM282 168.421C 281.57 168.714 281.854 168.754 283 168.562C 284.984 168.23 285.304 167.998 283.767 168.006C 283.125 168.009 282.33 168.196 282 168.421M298 168.4C 298.55 168.576 299.36 168.726 299.8 168.732L299.8 168.732L300.6 168.744L299.8 168.4C 299.36 168.211 298.55 168.062 298 168.068L298 168.068L297 168.08L298 168.4zM97 169.2L96.2 169.544L97 169.566C 97.44 169.578 98.07 169.413 98.4 169.2C 99.195 168.686 98.196 168.686 97 169.2M122.8 169.2C 123.13 169.413 123.76 169.578 124.2 169.566L124.2 169.566L125 169.544L124.2 169.2C 123.004 168.686 122.005 168.686 122.8 169.2M188.6 169.2L187.8 169.544L188.6 169.566C 189.04 169.578 189.67 169.413 190 169.2C 190.795 168.686 189.796 168.686 188.6 169.2M211.8 169.2C 212.24 169.389 212.87 169.544 213.2 169.544C 213.578 169.544 213.504 169.417 213 169.2C 212.56 169.011 211.93 168.856 211.6 168.856C 211.222 168.856 211.296 168.983 211.8 169.2M278.8 169.2C 278.005 169.714 279.004 169.714 280.2 169.2L280.2 169.2L281 168.856L280.2 168.834C 279.76 168.822 279.13 168.987 278.8 169.2M302 169.2C 302.33 169.413 302.87 169.588 303.2 169.588C 303.733 169.588 303.733 169.545 303.2 169.2C 302.87 168.987 302.33 168.812 302 168.812C 301.467 168.812 301.467 168.855 302 169.2M94.4 170C 93.867 170.345 93.867 170.388 94.4 170.388C 94.73 170.388 95.27 170.213 95.6 170C 96.133 169.655 96.133 169.612 95.6 169.612C 95.27 169.612 94.73 169.787 94.4 170M125.6 170C 125.93 170.213 126.47 170.388 126.8 170.388C 127.333 170.388 127.333 170.345 126.8 170C 126.47 169.787 125.93 169.612 125.6 169.612C 125.067 169.612 125.067 169.655 125.6 170M214.4 170C 214.73 170.213 215.27 170.388 215.6 170.388C 216.133 170.388 216.133 170.345 215.6 170C 215.27 169.787 214.73 169.612 214.4 169.612C 213.867 169.612 213.867 169.655 214.4 170M304.4 170C 304.73 170.213 305.27 170.388 305.6 170.388C 306.133 170.388 306.133 170.345 305.6 170C 305.27 169.787 304.73 169.612 304.4 169.612C 303.867 169.612 303.867 169.655 304.4 170M92 170.8C 91.467 171.145 91.467 171.188 92 171.188C 92.33 171.188 92.87 171.013 93.2 170.8C 93.733 170.455 93.733 170.412 93.2 170.412C 92.87 170.412 92.33 170.587 92 170.8M128 170.8C 128.33 171.013 128.87 171.188 129.2 171.188C 129.733 171.188 129.733 171.145 129.2 170.8C 128.87 170.587 128.33 170.412 128 170.412C 127.467 170.412 127.467 170.455 128 170.8M183.865 171.047C 183.24 171.386 182.806 171.739 182.9 171.833C 183.087 172.02 185.6 170.846 185.6 170.571C 185.6 170.262 185.018 170.422 183.865 171.047M273.461 171.446C 272.394 172.001 271.6 172.533 271.695 172.629C 271.791 172.724 272.843 172.265 274.034 171.608C 276.658 170.162 276.186 170.029 273.461 171.446M307.958 171.237C 308.925 171.666 309.788 171.945 309.875 171.858C 310.048 171.686 306.965 170.382 306.492 170.428C 306.331 170.444 306.991 170.808 307.958 171.237M89.2 172C 88.43 172.422 87.913 172.774 88.051 172.783C 88.465 172.811 91.2 171.605 91.2 171.395C 91.2 171.046 90.625 171.22 89.2 172M130 171.395C 130 171.605 132.735 172.811 133.149 172.783C 133.47 172.762 130.701 171.239 130.3 171.217C 130.135 171.208 130 171.288 130 171.395M218.4 171.395C 218.4 171.605 221.135 172.811 221.549 172.783C 221.87 172.762 219.101 171.239 218.7 171.217C 218.535 171.208 218.4 171.288 218.4 171.395M179.603 173.861C 177.068 175.767 173.675 179.521 172.588 181.622C 171.631 183.474 172.15 183.006 173.785 180.543C 175.501 177.96 178.542 174.847 180.831 173.332C 182.264 172.384 182.67 172 182.24 172C 182.151 172 180.965 172.838 179.603 173.861M222.8 173.567C 223.763 174.352 224.4 174.608 224.4 174.21C 224.4 174.106 223.815 173.735 223.1 173.386L223.1 173.386L221.8 172.752L222.8 173.567zM269.181 174.294C 266.862 176.203 263.738 179.781 262.627 181.8C 261.536 183.784 260.312 186.846 260.526 187.059C 260.613 187.146 261.005 186.359 261.398 185.309C 262.84 181.448 267.697 175.321 270.597 173.704C 271.035 173.46 271.296 173.163 271.178 173.044C 271.059 172.926 270.16 173.488 269.181 174.294M81.97 176.082C 70.97 183.323 61.304 197.456 59.866 208.4C 59.608 210.365 59.8 209.874 60.882 205.8C 62.613 199.284 65.811 192.975 70.4 187.022C 73.054 183.579 78.573 178.754 83.7 175.394C 85.746 174.053 86.294 173.6 85.87 173.6C 85.799 173.6 84.044 174.717 81.97 176.082M136 174.361C 136.55 174.813 137.543 175.444 138.206 175.765C 139.475 176.379 140.791 177.659 141.533 179C 141.777 179.44 141.981 179.568 141.988 179.285C 142.008 178.45 139.16 175.787 137 174.62C 135.529 173.825 135.264 173.757 136 174.361M314.4 174.364C 314.95 174.814 315.58 175.183 315.8 175.185C 316.228 175.188 315.505 174.634 314.2 173.96C 313.669 173.685 313.736 173.821 314.4 174.364M224.8 174.53C 224.8 174.627 225.984 175.477 227.431 176.42C 231.08 178.798 232.171 180.323 232.171 183.047C 232.171 184.532 232.283 184.995 232.532 184.55C 233.056 183.614 232.582 180.836 231.694 179.635C 230.62 178.182 224.8 173.873 224.8 174.53M319.624 177.857C 322.884 179.881 323.362 184.782 320.541 187.25C 318.344 189.174 315.247 189.004 312.4 186.806C 310.823 185.587 305.915 182.798 305.362 182.805C 305.163 182.807 306.17 183.458 307.6 184.251C 309.03 185.043 311.01 186.266 312 186.967C 316.217 189.954 319.643 189.69 321.9 186.202C 323.879 183.143 321.894 177.118 318.938 177.211C 318.752 177.216 319.061 177.508 319.624 177.857M109.9 179.482C 110.395 179.578 111.205 179.578 111.7 179.482C 112.195 179.387 111.79 179.309 110.8 179.309C 109.81 179.309 109.405 179.387 109.9 179.482M200.1 179.476C 200.485 179.576 201.115 179.576 201.5 179.476C 201.885 179.375 201.57 179.293 200.8 179.293C 200.03 179.293 199.715 179.375 200.1 179.476M290.1 179.476C 290.485 179.576 291.115 179.576 291.5 179.476C 291.885 179.375 291.57 179.293 290.8 179.293C 290.03 179.293 289.715 179.375 290.1 179.476M103 180C 101.936 180.457 103.603 180.457 105.4 180L105.4 180L106.6 179.695L105.2 179.675C 104.43 179.665 103.44 179.811 103 180M114.833 179.749C 114.925 179.831 115.9 180.007 117 180.141C 118.346 180.305 118.739 180.265 118.2 180.02C 117.439 179.674 114.483 179.436 114.833 179.749M194.4 180.021C 193.97 180.314 194.254 180.354 195.4 180.162C 197.384 179.83 197.704 179.598 196.167 179.606C 195.525 179.609 194.73 179.796 194.4 180.021M205 180C 206.876 180.477 207.939 180.477 207.2 180C 206.87 179.787 205.97 179.631 205.2 179.653L205.2 179.653L203.8 179.695L205 180zM284.4 180.012C 283.981 180.291 284.342 180.333 285.6 180.15C 287.841 179.825 288.16 179.598 286.367 179.606C 285.615 179.609 284.73 179.792 284.4 180.012M294.433 179.747C 294.525 179.828 295.32 180.014 296.2 180.162C 297.346 180.354 297.63 180.314 297.2 180.021C 296.66 179.653 294.032 179.393 294.433 179.747M142.101 181.4C 142.105 182.28 142.187 182.593 142.283 182.095C 142.379 181.598 142.375 180.878 142.275 180.495C 142.175 180.113 142.096 180.52 142.101 181.4M99.6 180.8C 98.836 181.294 99.658 181.294 101.2 180.8L101.2 180.8L102.2 180.48L101.2 180.446C 100.65 180.427 99.93 180.587 99.6 180.8M120.2 180.8C 121.396 181.314 122.395 181.314 121.6 180.8C 121.27 180.587 120.64 180.422 120.2 180.434L120.2 180.434L119.4 180.456L120.2 180.8zM281.6 180.8C 281.067 181.145 281.067 181.188 281.6 181.188C 281.93 181.188 282.47 181.013 282.8 180.8C 283.333 180.455 283.333 180.412 282.8 180.412C 282.47 180.412 281.93 180.587 281.6 180.8M299 180.8C 300.196 181.314 301.195 181.314 300.4 180.8C 300.07 180.587 299.44 180.422 299 180.434L299 180.434L298.2 180.456L299 180.8zM97.2 181.6C 96.667 181.945 96.667 181.988 97.2 181.988C 97.53 181.988 98.07 181.813 98.4 181.6C 98.933 181.255 98.933 181.212 98.4 181.212C 98.07 181.212 97.53 181.387 97.2 181.6M189.1 181.829C 187.549 182.67 187.725 182.961 189.3 182.159C 190.808 181.393 191.075 181.194 190.567 181.216C 190.365 181.225 189.705 181.501 189.1 181.829M302.758 182.037C 303.725 182.466 304.6 182.734 304.702 182.632C 304.924 182.41 302.094 181.188 301.451 181.228C 301.203 181.244 301.791 181.608 302.758 182.037M216.134 183.621C 217.858 184.495 220.063 185.756 221.034 186.424C 222.006 187.092 222.8 187.536 222.8 187.411C 222.8 187.033 217.533 183.768 215.449 182.855C 212.369 181.505 212.71 181.887 216.134 183.621M277.207 183.104C 270.56 188.331 269.23 196.953 274.238 202.354C 274.767 202.925 275.2 203.251 275.2 203.079C 275.2 202.907 274.824 202.369 274.365 201.883C 269.402 196.633 271.553 186.851 278.622 182.524C 279.05 182.261 279.22 182.038 279 182.028C 278.78 182.017 277.973 182.502 277.207 183.104M91.18 184.324C 87.526 186.459 84.535 188.762 82.2 191.238C 80.241 193.317 80.255 193.31 82.906 190.888C 85.769 188.272 90.4 185.014 92.9 183.857C 94.322 183.199 94.772 182.8 94.094 182.8C 93.925 182.8 92.614 183.486 91.18 184.324M126.833 182.932C 126.925 183.005 128.26 183.737 129.8 184.558C 131.34 185.38 132.24 185.756 131.8 185.394C 130.941 184.688 127.409 182.8 126.947 182.8C 126.793 182.8 126.742 182.86 126.833 182.932M185.744 184.1C 184.277 185.385 182 188.582 182 189.357C 182 189.577 182.549 188.866 183.22 187.778C 183.891 186.69 185.196 185.125 186.12 184.301C 187.044 183.477 187.671 182.802 187.514 182.801C 187.357 182.8 186.56 183.385 185.744 184.1M141.219 184.149C 140.411 186.274 136.974 187.528 134.376 186.645C 132.891 186.14 132.726 186.136 133.369 186.616C 135.852 188.468 140.973 186.84 141.726 183.96C 142.008 182.882 141.65 183.016 141.219 184.149M170.6 185.6C 170.45 186.073 170.417 186.55 170.527 186.66C 170.637 186.77 170.85 186.473 171 186C 171.15 185.527 171.183 185.05 171.073 184.94C 170.963 184.83 170.75 185.127 170.6 185.6M231.063 186.561C 229.949 188.26 227.217 189.014 224.923 188.253C 223.327 187.724 223.131 187.715 223.769 188.203C 225.226 189.314 227.046 189.362 229.07 188.344C 230.613 187.568 232.639 185.6 231.895 185.6C 231.783 185.6 231.409 186.032 231.063 186.561M169.8 188.4C 169.648 189.091 169.614 189.747 169.724 189.857C 169.834 189.967 170.048 189.491 170.2 188.8C 170.352 188.109 170.386 187.453 170.276 187.343C 170.166 187.233 169.952 187.709 169.8 188.4M259.854 189.154C 259.7 190.118 259.658 190.991 259.761 191.094C 260.03 191.363 260.515 188.545 260.307 187.922C 260.212 187.636 260.008 188.19 259.854 189.154M181.449 190.615C 181.312 190.973 181.216 191.656 181.236 192.133C 181.262 192.747 181.385 192.608 181.659 191.656C 182.057 190.272 181.894 189.458 181.449 190.615M169.34 194.4C 169.34 196.27 169.409 197.035 169.493 196.1C 169.577 195.165 169.577 193.635 169.493 192.7C 169.409 191.765 169.34 192.53 169.34 194.4M259.331 194.2C 259.333 195.74 259.405 196.321 259.492 195.491C 259.579 194.661 259.577 193.401 259.489 192.691C 259.4 191.981 259.329 192.66 259.331 194.2M78.19 195.836C 76.71 197.874 75.615 199.971 76.955 198.2C 79.402 194.965 80.09 193.956 79.945 193.812C 79.854 193.72 79.064 194.631 78.19 195.836M181.234 196.6C 181.222 197.04 181.387 197.67 181.6 198C 182.114 198.795 182.114 197.796 181.6 196.6L181.6 196.6L181.256 195.8L181.234 196.6zM259.668 198.2C 259.674 198.64 259.824 199.45 260 200L260 200L260.32 201L260.332 200C 260.338 199.45 260.189 198.64 260 198.2L260 198.2L259.656 197.4L259.668 198.2zM169.656 199.2C 169.656 199.53 169.811 200.16 170 200.6C 170.217 201.104 170.344 201.178 170.344 200.8C 170.344 200.47 170.189 199.84 170 199.4C 169.783 198.896 169.656 198.822 169.656 199.2M182.001 199.04C 181.999 199.643 184.07 202.424 185.241 203.391C 185.834 203.881 185.719 203.652 184.94 202.791C 184.247 202.026 183.302 200.77 182.841 200C 182.38 199.23 182.002 198.798 182.001 199.04M74.524 201.91C 69.095 213.358 69.327 228.008 75.093 237.8C 75.611 238.68 76.138 239.715 76.264 240.1C 76.39 240.485 76.673 240.8 76.893 240.8C 77.112 240.8 76.966 240.305 76.567 239.7C 69.64 229.191 69.172 212.363 75.489 200.9C 76.004 199.965 76.285 199.205 76.113 199.21C 75.941 199.216 75.226 200.431 74.524 201.91M260.621 202.1C 261.593 205.281 267.487 213.906 267.582 212.287C 267.592 212.114 266.953 211.326 266.163 210.536C 264.361 208.735 262.343 205.578 261.408 203.1C 260.68 201.169 260.119 200.457 260.621 202.1M170.412 202C 170.412 202.33 170.587 202.87 170.8 203.2C 171.145 203.733 171.188 203.733 171.188 203.2C 171.188 202.87 171.013 202.33 170.8 202C 170.455 201.467 170.412 201.467 170.412 202M275.6 203.554C 275.6 203.883 277.609 204.924 277.826 204.707C 277.893 204.64 277.42 204.282 276.774 203.911C 276.128 203.54 275.6 203.38 275.6 203.554M188.4 204.971C 188.4 205.229 190.86 206.402 191.361 206.383C 191.603 206.374 191.17 206.022 190.4 205.6C 189.006 204.837 188.4 204.646 188.4 204.971M172.596 206.792C 173.254 208.065 178.008 213.326 178.266 213.067C 178.351 212.982 177.541 212.033 176.466 210.956C 175.391 209.88 174.012 208.235 173.403 207.3C 172.117 205.328 171.705 205.069 172.596 206.792M192.2 206.689C 192.42 206.903 194.13 207.673 196 208.4C 197.87 209.127 199.571 209.875 199.78 210.061C 199.989 210.248 200.396 210.4 200.684 210.4C 200.973 210.4 201.972 210.739 202.904 211.154C 203.837 211.569 205.68 212.303 207 212.786C 208.32 213.269 209.713 213.83 210.095 214.032C 210.477 214.234 210.983 214.4 211.221 214.4C 211.458 214.4 213.019 215.031 214.69 215.803C 216.36 216.575 217.805 217.128 217.901 217.032C 218.081 216.852 214.862 215.329 212.4 214.43C 211.073 213.946 210.397 213.683 208.3 212.837C 206.147 211.968 192.594 206.586 192.217 206.45C 191.939 206.35 191.934 206.43 192.2 206.689M282.4 206.565C 282.4 206.809 284.831 208 285.328 208C 285.551 208 285.649 207.916 285.546 207.813C 285.233 207.5 282.4 206.377 282.4 206.565M286.174 208.357C 286.324 208.601 286.786 208.8 287.2 208.8C 287.614 208.8 288.064 208.98 288.2 209.2C 288.336 209.42 288.752 209.593 289.124 209.584C 289.608 209.573 289.516 209.416 288.8 209.034C 287.228 208.194 285.854 207.84 286.174 208.357M59.04 212.931C 58.869 214.434 58.821 215.754 58.932 215.865C 59.211 216.144 59.717 211.881 59.515 210.953C 59.425 210.539 59.211 211.429 59.04 212.931M292 210.567C 292 210.833 293.418 211.452 295.354 212.03C 296.861 212.481 296.36 211.989 294.693 211.38C 293.982 211.12 293.085 210.774 292.7 210.611C 292.315 210.448 292 210.428 292 210.567M268 212.574C 268 212.915 270.819 214.914 271.019 214.714C 271.128 214.606 270.493 214.038 269.608 213.453C 268.724 212.868 268 212.472 268 212.574M299.6 213.661C 305.302 215.979 306.598 216.456 306.2 216.089C 305.712 215.64 297.559 212.388 297 212.419C 296.78 212.431 297.95 212.99 299.6 213.661M179.048 213.677C 179.333 214.138 182.437 215.696 182.649 215.484C 182.744 215.39 181.925 214.869 180.831 214.327C 179.736 213.786 178.934 213.493 179.048 213.677M272.938 215.647C 273.784 216.093 274.568 216.365 274.681 216.252C 274.876 216.057 272.18 214.78 271.651 214.818C 271.513 214.827 272.092 215.2 272.938 215.647M185.2 216.595C 185.2 216.805 187.935 218.011 188.349 217.983C 188.67 217.962 185.901 216.439 185.5 216.417C 185.335 216.408 185.2 216.488 185.2 216.595M306.833 216.549C 307.245 216.917 309.6 218 309.6 217.821C 309.6 217.59 307.382 216.4 306.953 216.4C 306.796 216.4 306.742 216.467 306.833 216.549M218.4 217.39C 218.4 217.494 218.985 217.865 219.7 218.214L219.7 218.214L221 218.848L220 218.033C 219.037 217.248 218.4 216.992 218.4 217.39M277.4 217.491C 277.987 218.066 295.259 224.874 295.505 224.628C 295.62 224.513 295.374 224.308 294.957 224.173C 294.541 224.038 293.84 223.78 293.4 223.6C 291.986 223.023 277.849 217.405 277.417 217.25C 277.139 217.15 277.134 217.231 277.4 217.491M58.514 219.4C 58.517 220.5 58.595 220.903 58.687 220.295C 58.779 219.686 58.777 218.786 58.682 218.295C 58.587 217.803 58.511 218.3 58.514 219.4M310 218.129C 310 218.216 310.99 218.944 312.201 219.748C 318.614 224.006 324.68 232.078 324.828 236.553C 324.844 237.019 325.023 237.76 325.227 238.2C 325.842 239.528 325.188 235.673 324.521 234.041C 322.219 228.405 319.193 224.406 314.698 221.057C 311.927 218.993 310 217.792 310 218.129M192.358 219.637C 193.325 220.066 194.188 220.345 194.275 220.258C 194.448 220.086 191.365 218.782 190.892 218.828C 190.731 218.844 191.391 219.208 192.358 219.637M222 219.585C 222.55 220.046 223.36 220.61 223.8 220.838C 224.346 221.122 224.282 220.987 223.6 220.415C 223.05 219.954 222.24 219.39 221.8 219.162C 221.254 218.878 221.318 219.013 222 219.585M195 220.8C 195.136 221.02 195.509 221.2 195.829 221.2C 196.149 221.2 196.723 221.359 197.105 221.553C 197.998 222.007 198.963 222.401 203.6 224.206C 205.69 225.019 208.255 226.023 209.3 226.436C 210.345 226.85 211.2 227.109 211.2 227.013C 211.2 226.733 209.475 226 200.898 222.636C 194.797 220.243 194.622 220.189 195 220.8M224.8 221.333C 224.8 221.502 225.797 222.56 227.015 223.684C 228.234 224.808 229.971 226.872 230.875 228.27C 231.78 229.669 232.599 230.734 232.696 230.637C 233.047 230.286 229.613 225.742 227.236 223.413C 225.896 222.099 224.8 221.164 224.8 221.333M58.877 223.8C 58.867 224.46 59.003 225.81 59.18 226.8L59.18 226.8L59.5 228.6L59.503 226.8C 59.504 225.81 59.368 224.46 59.2 223.8L59.2 223.8L58.895 222.6L58.877 223.8zM302 227.392C 302 227.497 302.765 227.973 303.7 228.45C 304.635 228.926 305.985 229.761 306.7 230.305C 307.415 230.85 308 231.13 308 230.928C 308 230.726 306.738 229.804 305.195 228.88C 302.413 227.214 302 227.022 302 227.392M215.209 229.432C 218.051 231.291 219.765 232.931 221.442 235.395C 222.189 236.492 222.8 237.244 222.8 237.067C 222.8 235.271 215.23 228 213.361 228C 213.172 228 214.004 228.645 215.209 229.432M59.668 229.4C 59.674 229.84 59.824 230.65 60 231.2L60 231.2L60.32 232.2L60.332 231.2C 60.338 230.65 60.189 229.84 60 229.4L60 229.4L59.656 228.6L59.668 229.4zM232.8 231.356C 232.8 231.765 234.384 234.942 234.391 234.549C 234.403 233.965 233.249 231.2 232.995 231.2C 232.888 231.2 232.8 231.27 232.8 231.356M308.416 231.233C 308.407 231.362 309.108 232.234 309.974 233.172C 315.135 238.762 314.768 246.17 309.025 252.333C 307.691 253.765 307.061 254.637 307.625 254.271C 312.968 250.806 315.467 242.311 312.802 236.679C 312.009 235.006 308.459 230.597 308.416 231.233M60.4 232.687C 60.4 233.369 61.705 237.367 62.06 237.773C 62.239 237.978 62.194 237.528 61.96 236.773C 61.725 236.018 61.384 234.801 61.202 234.068C 60.866 232.719 60.4 231.917 60.4 232.687M234.434 235.6C 234.446 235.93 234.611 236.56 234.8 237L234.8 237L235.144 237.8L235.166 237C 235.178 236.56 235.013 235.93 234.8 235.6C 234.455 235.067 234.415 235.067 234.434 235.6M223.058 238.8C 223.375 240.525 223.602 240.851 223.594 239.567C 223.591 239.035 223.411 238.33 223.194 238C 222.918 237.578 222.877 237.815 223.058 238.8M62.41 238.681C 62.388 239.765 66.581 247.235 69.04 250.494C 72.338 254.866 81.6 263.526 81.6 262.237C 81.6 262.121 80.565 261.271 79.3 260.35C 73.688 256.262 67.111 248.115 63.839 241.2C 63.058 239.55 62.415 238.416 62.41 238.681M235.294 242.2C 235.294 245.674 235.338 245.937 235.628 244.2C 235.813 243.1 235.813 241.3 235.629 240.2C 235.338 238.463 235.294 238.726 235.294 242.2M325.734 242.4C 325.734 244.05 325.805 244.725 325.891 243.9C 325.978 243.075 325.978 241.725 325.891 240.9C 325.805 240.075 325.734 240.75 325.734 242.4M77.207 241.433C 77.244 243.266 89.733 254.801 90.668 253.865C 90.781 253.752 90.335 253.38 89.675 253.039C 87.166 251.741 82.31 247.473 79.955 244.497C 77.008 240.771 77.198 240.983 77.207 241.433M223.254 244.467C 223.225 244.834 223.084 245.464 222.941 245.867C 222.741 246.433 222.795 246.496 223.175 246.146C 223.446 245.897 223.587 245.267 223.488 244.746C 223.39 244.226 223.284 244.1 223.254 244.467M169.2 245.82C 169.53 245.89 170.458 246.054 171.263 246.184C 172.314 246.355 173.551 247.163 175.663 249.059C 178.804 251.878 181.943 254.19 182.234 253.899C 182.332 253.801 181.449 253.082 180.271 252.3C 179.093 251.518 177.048 249.877 175.726 248.652C 173.111 246.231 171.833 245.575 169.874 245.646C 169.173 245.672 168.87 245.75 169.2 245.82M258.2 245.884C 257.341 246.09 254.8 248.338 254.8 248.892C 254.8 249.076 255.427 248.599 256.194 247.833C 257.092 246.935 258.124 246.351 259.094 246.193C 261.631 245.778 261.855 245.693 260.4 245.693C 259.63 245.693 258.64 245.779 258.2 245.884M325.028 247.1C 324.142 252.196 321.004 257.449 316.121 262.009C 314.404 263.612 313.441 264.628 313.981 264.267C 317.284 262.058 321.811 256.603 323.512 252.781C 324.966 249.517 326.044 245.6 325.489 245.6C 325.379 245.6 325.172 246.275 325.028 247.1M137.2 246.742C 136.43 247.132 134.714 248.537 133.387 249.864C 132.059 251.191 129.941 252.962 128.681 253.799C 127.42 254.636 126.468 255.401 126.566 255.499C 126.9 255.833 130.571 253.045 133.588 250.165C 138.084 245.873 142.407 245.453 144.24 249.131C 144.806 250.265 145.2 250.655 145.2 250.081C 145.2 247.507 139.985 245.33 137.2 246.742M166.537 246.709C 164.47 248.365 163.351 251.963 164.395 253.6C 164.658 254.013 164.703 253.739 164.54 252.722C 164.13 250.17 165.614 247.259 167.767 246.388C 168.275 246.182 168.366 246.044 168 246.034C 167.67 246.025 167.012 246.329 166.537 246.709M262.4 246.295C 262.73 246.423 264.249 247.665 265.775 249.055C 267.301 250.446 268.62 251.513 268.705 251.428C 268.849 251.284 266.588 249.087 264.06 246.912C 263.477 246.411 262.73 246.015 262.4 246.032C 261.867 246.06 261.867 246.089 262.4 246.295M221.723 248.522C 220.575 250.885 219.009 252.648 216.261 254.671C 213.633 256.605 213.535 257.034 216.128 255.249C 219.201 253.134 223.496 247.762 222.728 246.994C 222.63 246.897 222.178 247.584 221.723 248.522M234.309 249.038C 233.949 250.331 233.714 251.447 233.787 251.52C 234.018 251.751 235.272 247.616 235.114 247.142C 235.031 246.893 234.668 247.746 234.309 249.038M254.289 250.515C 253.681 252.691 254.628 254.615 257.88 257.815C 259.554 259.462 260.981 260.752 261.051 260.683C 261.12 260.613 259.752 259.105 258.01 257.333C 254.847 254.114 254.843 254.107 254.722 251.755C 254.622 249.824 254.544 249.601 254.289 250.515M145.309 252.4C 145.309 253.39 145.387 253.795 145.482 253.3C 145.578 252.805 145.578 251.995 145.482 251.5C 145.387 251.005 145.309 251.41 145.309 252.4M269.571 252.158C 270.113 252.818 272.4 254.196 272.4 253.863C 272.4 253.777 271.635 253.202 270.7 252.585C 269.739 251.951 269.248 251.766 269.571 252.158M232.678 253.405C 232.312 254.172 232.095 254.8 232.196 254.8C 232.47 254.8 233.684 252.351 233.501 252.168C 233.414 252.081 233.044 252.638 232.678 253.405M91.348 254.315C 91.646 254.798 95.169 256.564 95.391 256.342C 95.494 256.24 94.579 255.666 93.359 255.067C 92.138 254.469 91.233 254.13 91.348 254.315M182.807 254.304C 182.816 254.666 186.764 256.569 187.005 256.328C 187.1 256.233 186.193 255.673 184.989 255.082C 183.785 254.492 182.803 254.142 182.807 254.304M144.201 255.5C 143.078 257.29 138.206 261.772 135.391 263.606C 133.953 264.543 132.863 265.397 132.97 265.503C 133.307 265.84 138.492 261.949 141.339 259.223C 143.642 257.018 145.66 254.4 145.056 254.4C 144.966 254.4 144.581 254.895 144.201 255.5M164.8 254.756C 164.8 255.688 173.216 262.76 176.1 264.252C 178.142 265.308 177.219 264.516 173.9 262.364C 172.085 261.188 169.295 258.923 167.7 257.332C 166.105 255.741 164.8 254.581 164.8 254.756M274.4 254.996C 274.4 255.27 276.849 256.484 277.032 256.301C 277.119 256.214 276.562 255.844 275.795 255.478C 275.028 255.112 274.4 254.895 274.4 254.996M305.194 255.618C 304.647 256.039 304.38 256.38 304.6 256.378C 305.129 256.373 306.591 255.258 306.365 255.031C 306.268 254.934 305.741 255.198 305.194 255.618M229.896 257.772C 227.335 261.232 223.651 264.318 219.053 266.853C 216.658 268.174 216.852 268.393 219.316 267.151C 223.56 265.012 229.851 259.386 231.451 256.3C 232.31 254.641 231.987 254.947 229.896 257.772M187.707 256.624C 188.116 257.054 190.842 257.994 191.6 257.966C 191.93 257.954 191.57 257.712 190.8 257.429C 188.43 256.558 187.386 256.286 187.707 256.624M301.8 257.222C 300.92 257.638 300.487 257.984 300.839 257.99C 301.495 258 304 256.876 304 256.571C 304 256.277 303.455 256.439 301.8 257.222M98.6 257.6C 98.736 257.82 99.242 257.987 99.724 257.972C 100.569 257.945 100.571 257.931 99.8 257.6C 98.699 257.127 98.308 257.127 98.6 257.6M121 257.6C 120.229 257.931 120.231 257.945 121.076 257.972C 121.558 257.987 122.064 257.82 122.2 257.6C 122.492 257.127 122.101 257.127 121 257.6M280.19 257.584C 280.332 257.813 280.917 258 281.49 258C 282.744 258 282.599 257.808 281.066 257.44C 280.323 257.262 280.021 257.311 280.19 257.584M101.4 258.397C 102.164 258.728 105.114 258.955 104.767 258.656C 104.675 258.577 103.7 258.409 102.6 258.282C 101.313 258.133 100.885 258.174 101.4 258.397M117.6 258.4L116.2 258.695L117.6 258.741C 118.37 258.767 119.27 258.613 119.6 258.4C 120.327 257.93 119.833 257.93 117.6 258.4M193 258.397C 193.764 258.728 196.714 258.955 196.367 258.656C 196.275 258.577 195.3 258.409 194.2 258.282C 192.913 258.133 192.485 258.174 193 258.397M206.6 258.661C 204.8 259.038 202.514 259.181 200.2 259.062C 198.101 258.954 197.017 259.011 197.6 259.199C 199.909 259.941 208.903 259.231 209.907 258.227C 210.204 257.929 209.917 257.967 206.6 258.661M283.221 258.421C 283.755 258.76 286.742 258.981 286.367 258.655C 286.275 258.575 285.399 258.408 284.421 258.282C 283.27 258.135 282.846 258.184 283.221 258.421M298.2 258.4L297 258.705L298.276 258.753C 298.978 258.779 299.664 258.62 299.8 258.4C 300.074 257.957 299.94 257.957 298.2 258.4M106.034 259.25C 107.268 259.595 113.908 259.603 115.123 259.26C 115.631 259.117 113.576 258.995 110.556 258.99C 107.537 258.984 105.502 259.101 106.034 259.25M287.6 259.24C 288.892 259.602 295.194 259.626 296.083 259.272C 296.459 259.122 294.479 258.991 291.683 258.98C 288.888 258.969 287.05 259.086 287.6 259.24M261.6 260.993C 261.6 261.277 266.068 264.222 267.6 264.948C 269.132 265.674 268.9 265.504 264.546 262.708C 262.926 261.668 261.6 260.896 261.6 260.993M82.6 262.996C 83.494 263.739 86.028 265.109 85.4 264.51C 85.18 264.3 84.28 263.724 83.4 263.23C 82.52 262.735 82.16 262.63 82.6 262.996M86 264.993C 86 265.371 92.034 268.099 92.295 267.839C 92.416 267.718 92.174 267.495 91.757 267.344C 91.111 267.109 87.215 265.355 86.3 264.887C 86.135 264.802 86 264.85 86 264.993M177.859 265.219C 178.471 265.831 185.625 268.858 186.092 268.703C 186.31 268.63 184.76 267.886 182.646 267.049C 180.532 266.213 178.702 265.364 178.578 265.164C 178.454 264.964 178.147 264.8 177.896 264.8C 177.578 264.8 177.567 264.927 177.859 265.219M310.884 265.866C 309.94 266.435 309.248 266.981 309.347 267.08C 309.524 267.257 312.8 265.233 312.8 264.947C 312.8 264.721 312.717 264.76 310.884 265.866M130.8 266.4C 130.03 266.822 129.544 267.174 129.72 267.183C 130.144 267.205 132.4 266.032 132.4 265.79C 132.4 265.528 132.377 265.537 130.8 266.4M127 268.022C 126.12 268.438 125.603 268.784 125.851 268.79C 126.432 268.803 129.2 267.65 129.2 267.395C 129.2 267.077 128.691 267.222 127 268.022M93.2 268.4C 93.53 268.613 94.07 268.788 94.4 268.788C 94.933 268.788 94.933 268.745 94.4 268.4C 94.07 268.187 93.53 268.012 93.2 268.012C 92.667 268.012 92.667 268.055 93.2 268.4M96 269.182C 96.33 269.405 96.945 269.591 97.367 269.594C 98.39 269.602 98.071 269.373 96.6 269.044C 95.724 268.848 95.562 268.885 96 269.182M123.4 269.2L122.6 269.544L123.4 269.566C 123.84 269.578 124.47 269.413 124.8 269.2C 125.595 268.686 124.596 268.686 123.4 269.2M187.6 269.182C 187.93 269.405 188.545 269.591 188.967 269.594C 189.99 269.602 189.671 269.373 188.2 269.044C 187.324 268.848 187.162 268.885 187.6 269.182M213.4 269.2C 212.629 269.531 212.631 269.545 213.476 269.572C 213.958 269.587 214.464 269.42 214.6 269.2C 214.892 268.727 214.501 268.727 213.4 269.2M277.6 269.2C 277.93 269.413 278.56 269.578 279 269.566L279 269.566L279.8 269.544L279 269.2C 277.804 268.686 276.805 268.686 277.6 269.2M302.792 269.375C 299.784 270.484 295.738 270.905 289.766 270.73C 285.802 270.614 284.337 270.672 285.4 270.905C 289.584 271.821 303.645 270.489 305.095 269.038C 305.487 268.647 304.296 268.821 302.792 269.375M98.8 269.979C 99.13 270.204 99.925 270.391 100.567 270.394C 102.104 270.402 101.784 270.17 99.8 269.838C 98.654 269.646 98.37 269.686 98.8 269.979M120.2 270L119 270.305L120.2 270.347C 120.86 270.369 121.67 270.213 122 270C 122.743 269.52 122.087 269.52 120.2 270M190.4 269.979C 190.73 270.204 191.525 270.391 192.167 270.394C 193.704 270.402 193.384 270.17 191.4 269.838C 190.254 269.646 189.97 269.686 190.4 269.979M210.4 270L209.4 270.32L210.4 270.354C 210.95 270.373 211.67 270.213 212 270C 212.764 269.506 211.942 269.506 210.4 270M280.6 269.99C 281.364 270.328 283.914 270.557 283.567 270.256C 283.475 270.176 282.59 270.004 281.6 269.873C 280.398 269.714 280.066 269.753 280.6 269.99M103.023 270.853C 103.67 270.992 106.99 271.105 110.4 271.105C 113.81 271.105 117.13 270.992 117.777 270.853C 118.425 270.714 115.105 270.6 110.4 270.6C 105.695 270.6 102.375 270.714 103.023 270.853M194.62 270.853C 196.18 271.187 207.144 271.193 208.321 270.86C 208.828 270.717 205.687 270.6 201.342 270.6C 196.996 270.6 193.971 270.714 194.62 270.853" stroke="none" fill="#979CA4" fill-rule="nonzero" />
        <path d="M76.816 72.354C 76.275 72.505 77.527 72.629 79.6 72.629C 81.673 72.629 82.925 72.505 82.384 72.354C 81.843 72.203 80.59 72.08 79.6 72.08C 78.61 72.08 77.357 72.203 76.816 72.354M73.36 73.941C 72.502 74.569 71.44 75.508 71 76.028C 70.56 76.548 71.08 76.214 72.156 75.286C 73.232 74.359 74.347 73.6 74.633 73.6C 74.919 73.6 75.264 73.42 75.4 73.2C 75.86 72.456 74.928 72.794 73.36 73.941M83.8 73.2C 83.936 73.42 84.318 73.6 84.65 73.6C 84.981 73.6 86.179 74.545 87.313 75.7C 88.731 77.146 89.081 77.384 88.434 76.464C 87.132 74.612 82.777 71.545 83.8 73.2M109 73.826C 108.12 74.359 107.196 74.932 106.947 75.098C 104.058 77.026 102.619 83.941 104.34 87.621C 105.158 89.37 107.231 92 107.791 92C 107.948 92 108.593 92.368 109.225 92.817C 113.596 95.93 124 91.433 124 86.432C 124 86 124.18 85.536 124.4 85.4C 125.242 84.88 124.752 81.301 123.445 78.421C 122.695 76.769 119.274 73.6 118.24 73.6C 117.914 73.6 117.536 73.42 117.4 73.2C 116.862 72.33 110.712 72.788 109 73.826M69.381 78.437C 69.029 79.118 68.812 79.745 68.899 79.832C 68.986 79.919 69.356 79.362 69.722 78.595C 70.544 76.87 70.259 76.738 69.381 78.437M90.303 82.496C 90.513 85.89 90.731 86.32 90.762 83.4C 90.776 82.08 90.644 80.773 90.468 80.496C 90.292 80.22 90.218 81.12 90.303 82.496M68.524 83.4C 68.526 84.72 68.601 85.212 68.69 84.493C 68.779 83.774 68.777 82.694 68.686 82.093C 68.595 81.492 68.522 82.08 68.524 83.4M89.434 87.766C 88.802 89.422 87.2 91.199 84.796 92.909L84.796 92.909L83.8 93.618L85.024 93.038C 87.293 91.963 91.11 86.977 90.291 86.158C 90.195 86.061 89.809 86.785 89.434 87.766M69.6 88.456C 69.6 88.909 71.576 91.264 72.638 92.076C 73.355 92.624 73.044 92.128 71.827 90.782C 70.742 89.582 69.797 88.525 69.727 88.433C 69.657 88.342 69.6 88.352 69.6 88.456M76.2 94C 76.64 94.189 77.45 94.338 78 94.332L78 94.332L79 94.32L78 94C 77.45 93.824 76.64 93.674 76.2 93.668L76.2 93.668L75.4 93.656L76.2 94zM81.2 94C 80.408 94.254 80.367 94.32 81 94.32C 81.44 94.32 82.25 94.176 82.8 94C 83.592 93.746 83.633 93.68 83 93.68C 82.56 93.68 81.75 93.824 81.2 94M106.9 179.876C 107.285 179.976 107.915 179.976 108.3 179.876C 108.685 179.775 108.37 179.693 107.6 179.693C 106.83 179.693 106.515 179.775 106.9 179.876M168.893 194.4C 168.893 195.17 168.975 195.485 169.076 195.1C 169.176 194.715 169.176 194.085 169.076 193.7C 168.975 193.315 168.893 193.63 168.893 194.4M58.493 216.4C 58.493 217.17 58.575 217.485 58.676 217.1C 58.776 216.715 58.776 216.085 58.676 215.7C 58.575 215.315 58.493 215.63 58.493 216.4M70.914 219.4C 70.917 220.5 70.995 220.903 71.087 220.295C 71.179 219.686 71.177 218.786 71.082 218.295C 70.987 217.803 70.911 218.3 70.914 219.4M58.493 222.4C 58.493 223.17 58.575 223.485 58.676 223.1C 58.776 222.715 58.776 222.085 58.676 221.7C 58.575 221.315 58.493 221.63 58.493 222.4M223.314 242.2C 223.317 243.3 223.395 243.703 223.487 243.095C 223.579 242.486 223.577 241.586 223.482 241.095C 223.387 240.603 223.311 241.1 223.314 242.2" stroke="none" fill="#B6BBBC" fill-rule="nonzero" />
        <path d="M369.728 118.3C 375.408 118.362 384.588 118.362 390.128 118.3C 395.668 118.237 391.02 118.186 379.8 118.186C 368.58 118.186 364.048 118.237 369.728 118.3M109.5 167.082C 109.995 167.178 110.805 167.178 111.3 167.082C 111.795 166.987 111.39 166.909 110.4 166.909C 109.41 166.909 109.005 166.987 109.5 167.082M199.905 167.083C 200.402 167.179 201.122 167.175 201.505 167.075C 201.887 166.975 201.48 166.896 200.6 166.901C 199.72 166.905 199.407 166.987 199.905 167.083M290.305 167.083C 290.802 167.179 291.522 167.175 291.905 167.075C 292.287 166.975 291.88 166.896 291 166.901C 290.12 166.905 289.807 166.987 290.305 167.083M102.1 167.876C 102.485 167.976 103.115 167.976 103.5 167.876C 103.885 167.775 103.57 167.693 102.8 167.693C 102.03 167.693 101.715 167.775 102.1 167.876M117.7 167.876C 118.085 167.976 118.715 167.976 119.1 167.876C 119.485 167.775 119.17 167.693 118.4 167.693C 117.63 167.693 117.315 167.775 117.7 167.876M192.9 167.876C 193.285 167.976 193.915 167.976 194.3 167.876C 194.685 167.775 194.37 167.693 193.6 167.693C 192.83 167.693 192.515 167.775 192.9 167.876M206.9 167.876C 207.285 167.976 207.915 167.976 208.3 167.876C 208.685 167.775 208.37 167.693 207.6 167.693C 206.83 167.693 206.515 167.775 206.9 167.876M283.3 167.876C 283.685 167.976 284.315 167.976 284.7 167.876C 285.085 167.775 284.77 167.693 284 167.693C 283.23 167.693 282.915 167.775 283.3 167.876M297.3 167.876C 297.685 167.976 298.315 167.976 298.7 167.876C 299.085 167.775 298.77 167.693 298 167.693C 297.23 167.693 296.915 167.775 297.3 167.876M280.4 168.4C 279.576 168.664 279.541 168.726 280.2 168.754C 280.64 168.773 281.27 168.613 281.6 168.4C 282.301 167.947 281.814 167.947 280.4 168.4M176.585 176.1L174.6 178.2L176.7 176.215C 177.855 175.123 178.8 174.178 178.8 174.115C 178.8 173.817 178.429 174.149 176.585 176.1M231.88 179.865C 232.264 180.451 232.694 181.756 232.835 182.765L232.835 182.765L233.093 184.6L233.145 183C 233.191 181.578 232.035 178.8 231.397 178.8C 231.278 178.8 231.496 179.279 231.88 179.865M109.907 179.89C 110.626 179.979 111.706 179.977 112.307 179.886C 112.908 179.795 112.32 179.722 111 179.724C 109.68 179.726 109.188 179.801 109.907 179.89M199.5 179.882C 199.995 179.978 200.805 179.978 201.3 179.882C 201.795 179.787 201.39 179.709 200.4 179.709C 199.41 179.709 199.005 179.787 199.5 179.882M289.705 179.887C 290.314 179.979 291.214 179.977 291.705 179.882C 292.197 179.787 291.7 179.711 290.6 179.714C 289.5 179.717 289.097 179.795 289.705 179.887M103.6 180.4C 102.233 180.688 102.228 180.695 103.4 180.719C 104.06 180.733 104.96 180.589 105.4 180.4C 106.362 179.987 105.564 179.987 103.6 180.4M116.2 180.381C 116.968 180.729 119.11 180.956 118.767 180.653C 118.675 180.572 117.88 180.396 117 180.262C 115.885 180.093 115.642 180.129 116.2 180.381M194.8 180.4C 193.996 180.657 193.957 180.723 194.6 180.732C 195.04 180.738 195.76 180.589 196.2 180.4C 197.219 179.962 196.168 179.962 194.8 180.4M284.8 180.4C 283.996 180.657 283.957 180.723 284.6 180.732C 285.04 180.738 285.76 180.589 286.2 180.4C 287.219 179.962 286.168 179.962 284.8 180.4M295.4 180.4C 295.84 180.589 296.56 180.738 297 180.732C 297.643 180.723 297.604 180.657 296.8 180.4C 295.432 179.962 294.381 179.962 295.4 180.4M277.36 183.541C 276.502 184.169 275.44 185.112 275 185.636C 274.56 186.16 274.922 185.961 275.804 185.194C 276.686 184.427 277.856 183.494 278.404 183.121C 278.952 182.748 279.292 182.433 279.16 182.421C 279.028 182.409 278.218 182.914 277.36 183.541M214.8 183.4C 215.35 183.714 215.98 183.972 216.2 183.972C 216.42 183.972 216.15 183.714 215.6 183.4C 215.05 183.086 214.42 182.828 214.2 182.828C 213.98 182.828 214.25 183.086 214.8 183.4M185.055 185.583C 184.035 186.673 183.2 187.693 183.2 187.85C 183.2 188.006 183.257 188.058 183.327 187.967C 183.397 187.875 184.322 186.855 185.382 185.7C 186.442 184.545 187.219 183.6 187.109 183.6C 186.999 183.6 186.075 184.492 185.055 185.583M70.975 185.3L69.8 186.6L71.1 185.425C 72.312 184.33 72.584 184 72.275 184C 72.206 184 71.621 184.585 70.975 185.3M90.7 185.029C 89.205 185.84 89.296 186.178 90.8 185.4C 91.46 185.059 92 184.694 92 184.59C 92 184.332 91.957 184.347 90.7 185.029M219.6 185.711C 219.6 185.787 220.185 186.278 220.9 186.801C 221.704 187.39 221.984 187.487 221.633 187.055C 221.1 186.399 219.6 185.407 219.6 185.711M69.144 187.5C 67.993 188.889 67.506 189.6 67.704 189.6C 67.814 189.6 68.386 188.97 68.973 188.2C 70.063 186.771 70.195 186.232 69.144 187.5M259.449 189.015C 259.312 189.373 259.215 189.966 259.234 190.333C 259.253 190.7 259.427 190.469 259.621 189.82C 259.998 188.558 259.865 187.933 259.449 189.015M182.046 190.467C 182.021 190.834 181.896 191.464 181.77 191.867C 181.552 192.562 181.563 192.563 181.997 191.887C 182.248 191.496 182.373 190.866 182.273 190.487C 182.111 189.868 182.088 189.866 182.046 190.467M271.693 194.4C 271.693 195.17 271.775 195.485 271.876 195.1C 271.976 194.715 271.976 194.085 271.876 193.7C 271.775 193.315 271.693 193.63 271.693 194.4M181.656 196.4C 181.656 196.73 181.811 197.36 182 197.8C 182.217 198.304 182.344 198.378 182.344 198C 182.344 197.67 182.189 197.04 182 196.6C 181.783 196.096 181.656 196.022 181.656 196.4M169.206 199.233C 169.209 199.765 169.389 200.47 169.606 200.8C 169.882 201.222 169.923 200.985 169.742 200C 169.425 198.275 169.198 197.949 169.206 199.233M59.467 207.867C 59.32 208.013 59.211 208.508 59.225 208.967C 59.249 209.733 59.282 209.723 59.634 208.842C 60.026 207.863 59.944 207.389 59.467 207.867M266 211.4C 266.746 212.17 267.447 212.8 267.557 212.8C 267.667 212.8 267.146 212.17 266.4 211.4C 265.654 210.63 264.953 210 264.843 210C 264.733 210 265.254 210.63 266 211.4M58.649 212.215C 58.512 212.573 58.42 213.436 58.444 214.133C 58.482 215.237 58.533 215.171 58.836 213.625C 59.193 211.805 59.094 211.057 58.649 212.215M71.45 212.85C 71.117 214.517 71.44 214.84 71.8 213.2C 71.952 212.509 71.993 211.859 71.891 211.758C 71.789 211.656 71.591 212.147 71.45 212.85M273.2 216.2C 273.75 216.514 274.38 216.772 274.6 216.772C 274.82 216.772 274.55 216.514 274 216.2C 273.45 215.886 272.82 215.628 272.6 215.628C 272.38 215.628 272.65 215.886 273.2 216.2M222 218.946C 222 219.056 222.54 219.53 223.2 220C 223.86 220.47 224.4 220.764 224.4 220.654C 224.4 220.544 223.86 220.07 223.2 219.6C 222.54 219.13 222 218.836 222 218.946M312.8 219.325C 312.8 219.424 313.461 220.009 314.268 220.625C 315.076 221.241 315.611 221.541 315.456 221.291C 315.14 220.779 312.8 219.047 312.8 219.325M317.2 223C 317.946 223.77 318.647 224.4 318.757 224.4C 318.867 224.4 318.346 223.77 317.6 223C 316.854 222.23 316.153 221.6 316.043 221.6C 315.933 221.6 316.454 222.23 317.2 223M58.428 224.633C 58.444 225.275 58.616 226.16 58.81 226.6C 59.047 227.134 59.086 226.802 58.927 225.6C 58.646 223.48 58.388 222.98 58.428 224.633M71.268 224.8C 71.288 225.839 71.918 227.546 71.932 226.6C 71.938 226.16 71.789 225.44 71.6 225C 71.389 224.51 71.261 224.432 71.268 224.8M59.228 229.876C 59.213 230.358 59.38 230.864 59.6 231C 60.073 231.292 60.073 230.901 59.6 229.8C 59.269 229.029 59.255 229.031 59.228 229.876M218.8 232.6C 219.546 233.37 220.247 234 220.357 234C 220.467 234 219.946 233.37 219.2 232.6C 218.454 231.83 217.753 231.2 217.643 231.2C 217.533 231.2 218.054 231.83 218.8 232.6M325.228 236.676C 325.318 237.715 325.944 238.596 325.972 237.724C 325.987 237.242 325.82 236.736 325.6 236.6C 325.38 236.464 325.213 236.498 325.228 236.676M313.314 242.2C 313.317 243.3 313.395 243.703 313.487 243.095C 313.579 242.486 313.577 241.586 313.482 241.095C 313.387 240.603 313.311 241.1 313.314 242.2M79.6 243.858C 79.6 244.074 80.185 244.779 80.9 245.425L80.9 245.425L82.2 246.6L81 245.202C 80.34 244.433 79.755 243.728 79.7 243.635C 79.645 243.543 79.6 243.643 79.6 243.858M255.606 247.394C 254.863 248.161 254.332 248.85 254.427 248.925C 254.522 249 255.206 248.373 255.946 247.531C 257.629 245.618 257.412 245.531 255.606 247.394M263.2 246.073C 267.097 249.609 267.78 250.152 266.2 248.455C 265.32 247.51 264.24 246.547 263.8 246.314C 263.36 246.082 263.09 245.973 263.2 246.073M325.646 246.267C 325.621 246.524 325.484 247.064 325.341 247.467C 325.14 248.036 325.194 248.097 325.579 247.742C 325.852 247.491 325.989 246.951 325.884 246.542C 325.779 246.134 325.672 246.01 325.646 246.267M67.6 249.2C 68.07 249.86 68.544 250.4 68.654 250.4C 68.764 250.4 68.47 249.86 68 249.2C 67.53 248.54 67.056 248 66.946 248C 66.836 248 67.13 248.54 67.6 249.2M218.955 251.881C 218.107 252.916 217.622 253.634 217.877 253.476C 218.421 253.14 220.955 250 220.682 250C 220.58 250 219.803 250.847 218.955 251.881M179.273 251.426C 179.643 251.852 180.543 252.541 181.273 252.957C 182.839 253.85 182.426 253.407 180.2 251.804C 179.269 251.134 178.882 250.976 179.273 251.426M308.581 252.5L307 254.2L308.7 252.619C 310.281 251.148 310.584 250.8 310.281 250.8C 310.216 250.8 309.451 251.565 308.581 252.5M233.078 253.405C 232.712 254.172 232.495 254.8 232.596 254.8C 232.87 254.8 234.084 252.351 233.901 252.168C 233.814 252.081 233.444 252.638 233.078 253.405M89.8 253.007C 90.24 253.366 90.96 253.835 91.4 254.051L91.4 254.051L92.2 254.444L91.4 253.793C 90.96 253.434 90.24 252.965 89.8 252.749L89.8 252.749L89 252.356L89.8 253.007zM70.4 252.925C 70.4 252.994 70.985 253.579 71.7 254.225L71.7 254.225L73 255.4L71.825 254.1C 70.73 252.888 70.4 252.616 70.4 252.925M213.4 256.027C 212.74 256.45 212.38 256.796 212.6 256.795C 212.82 256.795 213.54 256.437 214.2 256C 214.86 255.563 215.22 255.217 215 255.232C 214.78 255.247 214.06 255.604 213.4 256.027M256.976 257.491C 258.063 258.641 259.038 259.496 259.143 259.391C 259.247 259.286 259.255 259.155 259.159 259.1C 259.063 259.045 258.088 258.19 256.993 257.2L256.993 257.2L255 255.4L256.976 257.491zM75.374 257.893C 76.24 258.824 77.035 259.499 77.141 259.393C 77.247 259.287 77.256 259.155 77.162 259.1C 77.068 259.045 76.273 258.37 75.396 257.601L75.396 257.601L73.8 256.201L75.374 257.893zM320.575 257.868C 319.959 258.676 319.659 259.211 319.909 259.056C 320.421 258.74 322.153 256.4 321.875 256.4C 321.776 256.4 321.191 257.061 320.575 257.868M118 258.018C 117.562 258.315 117.724 258.352 118.6 258.156C 120.071 257.827 120.39 257.598 119.367 257.606C 118.945 257.609 118.33 257.795 118 258.018M167.6 258.125C 167.6 258.194 168.185 258.779 168.9 259.425L168.9 259.425L170.2 260.6L169.025 259.3C 167.93 258.088 167.6 257.816 167.6 258.125M108.21 258.869C 109.535 259.048 111.695 259.048 113.01 258.869C 115.078 258.588 114.753 258.544 110.6 258.545C 106.431 258.545 106.117 258.588 108.21 258.869M199.74 258.868C 201.247 259.053 203.317 259.059 204.34 258.881C 205.813 258.624 205.243 258.554 201.6 258.544C 197.235 258.531 197.14 258.548 199.74 258.868M290.14 258.874C 291.647 259.056 293.717 259.06 294.74 258.883C 296.204 258.629 295.62 258.559 292 258.552C 287.653 258.543 287.551 258.561 290.14 258.874M227.188 261.5L224.6 264.2L227.3 261.612C 229.808 259.207 230.183 258.8 229.888 258.8C 229.827 258.8 228.612 260.015 227.188 261.5M318.034 260.953L317.069 262.2L318.213 261.112C 318.843 260.514 319.277 259.953 319.179 259.865C 319.08 259.777 318.565 260.267 318.034 260.953M223 265.035L221.8 266.066L223.1 265.206C 223.815 264.733 224.4 264.268 224.4 264.173C 224.4 263.873 224.231 263.978 223 265.035M133.8 265.2C 133.14 265.637 132.78 265.992 133 265.988C 133.401 265.982 135.576 264.423 135.2 264.412C 135.09 264.408 134.46 264.763 133.8 265.2M311.497 265.966C 309.853 267.019 309.625 267.391 311.075 266.654C 311.776 266.297 312.461 265.824 312.598 265.603C 312.919 265.084 312.823 265.115 311.497 265.966M219.9 266.827C 219.075 267.263 218.4 267.708 218.4 267.818C 218.4 267.927 219.12 267.649 220 267.2C 220.88 266.751 221.6 266.297 221.6 266.192C 221.6 265.93 221.597 265.931 219.9 266.827M180.8 267C 180.8 267.206 182.887 268.125 184.435 268.602C 184.966 268.766 185.31 268.802 185.2 268.683C 184.893 268.351 180.8 266.786 180.8 267M118.4 270.8C 117.608 271.054 117.567 271.12 118.2 271.12C 118.64 271.12 119.45 270.976 120 270.8C 120.792 270.546 120.833 270.48 120.2 270.48C 119.76 270.48 118.95 270.624 118.4 270.8M209 270.8C 208.496 271.017 208.422 271.144 208.8 271.144C 209.13 271.144 209.76 270.989 210.2 270.8C 210.704 270.583 210.778 270.456 210.4 270.456C 210.07 270.456 209.44 270.611 209 270.8M108.912 271.495C 109.964 271.577 111.584 271.576 112.512 271.492C 113.44 271.408 112.58 271.341 110.6 271.342C 108.62 271.343 107.86 271.412 108.912 271.495M200.112 271.495C 201.164 271.577 202.784 271.576 203.712 271.492C 204.64 271.408 203.78 271.341 201.8 271.342C 199.82 271.343 199.06 271.412 200.112 271.495M290.3 271.493C 291.235 271.577 292.765 271.577 293.7 271.493C 294.635 271.409 293.87 271.34 292 271.34C 290.13 271.34 289.365 271.409 290.3 271.493" stroke="none" fill="#182E59" fill-rule="nonzero" />
	</g>
</g>
</svg>