<?xml version="1.0" standalone="no"?>
<!DOCTYPE svg PUBLIC "-//W3C//DTD SVG 1.0//EN" "http://www.w3.org/TR/2001/REC-SVG-20010904/DTD/svg10.dtd">
<svg xmlns="http://www.w3.org/2000/svg" xmlns:xlink="http://www.w3.org/1999/xlink" id="body_1" width="614" height="461">

<g transform="matrix(0.9003906 0 0 0.9003906 76.500015 9.003906)">
	<g>
        <path d="M204 95.8L204 111.6L221.4 111.6L238.8 111.6L238.8 95.8L238.8 80L221.4 80L204 80L204 95.8zM115.071 121.462C 114.686 121.848 114.745 151.695 115.132 152.304C 115.384 152.7 119.153 152.786 132.626 152.704L132.626 152.704L149.8 152.6L149.8 137L149.8 121.4L132.571 121.296C 123.095 121.238 115.22 121.313 115.071 121.462M159.6 137L159.6 152.8L177 152.8L194.4 152.8L194.4 137L194.4 121.2L177 121.2L159.6 121.2L159.6 137zM204 137L204 152.8L221.4 152.8L238.8 152.8L238.8 137L238.8 121.2L221.4 121.2L204 121.2L204 137zM326.545 131.3C 325.45 132.455 323.947 134.3 323.204 135.4C 322.461 136.5 321.728 137.49 321.575 137.6C 321.154 137.904 317.018 146.301 316.059 148.8C 312.829 157.212 312.025 170.415 314.17 179.8C 315.194 184.278 316.324 188.3 317.309 190.974C 319.537 197.019 319.036 198.142 313.14 200.323C 307.229 202.509 314.766 202.397 173.536 202.399L173.536 202.399L43.272 202.4L43.136 210.477C 42.937 222.317 43.501 232.526 44.757 239.8C 44.985 241.12 45.356 243.28 45.581 244.6C 46.034 247.253 46.351 248.754 47.402 253.2C 48.279 256.909 51.985 268.294 53.197 271C 53.69 272.1 54.361 273.63 54.69 274.4C 55.682 276.73 57.348 280.187 57.581 280.4C 57.702 280.51 58.177 281.32 58.638 282.2C 64.845 294.045 74.739 305.258 85.922 313.121C 91.464 317.018 100.208 321.528 107 323.993C 108.32 324.472 109.713 325.03 110.095 325.232C 110.477 325.434 111.231 325.6 111.771 325.6C 112.311 325.6 112.851 325.759 112.971 325.954C 113.092 326.149 113.687 326.404 114.295 326.521C 114.903 326.638 116.12 326.943 117 327.197C 117.88 327.452 119.365 327.827 120.3 328.03C 121.235 328.234 122.855 328.588 123.9 328.818C 137.013 331.706 146.395 332.602 163.4 332.592C 178.828 332.583 185.565 332.151 197.1 330.432C 198.695 330.194 201.215 329.822 202.7 329.605C 205.258 329.23 206.837 328.925 211 328C 211.99 327.78 213.61 327.42 214.6 327.2C 219.013 326.219 220.276 325.951 221.4 325.755C 222.06 325.64 222.96 325.398 223.4 325.218C 223.84 325.038 225.01 324.67 226 324.399C 226.99 324.129 228.25 323.763 228.8 323.586C 229.35 323.409 231.69 322.686 234 321.979C 241.117 319.8 241.592 319.634 249 316.745C 252.96 315.2 256.56 313.787 257 313.605C 259.483 312.575 274.993 304.811 277.141 303.523C 278.538 302.686 279.763 302 279.863 302C 280.096 302 285.792 298.428 289.361 296.044C 290.879 295.03 292.409 294.02 292.761 293.8C 293.112 293.58 293.49 293.301 293.6 293.181C 293.71 293.06 294.43 292.526 295.2 291.993C 297.12 290.664 304.039 285.164 307.2 282.453C 311.591 278.687 320.503 269.519 324.022 265.148C 325.859 262.867 327.475 260.91 327.613 260.8C 328.012 260.483 331.985 254.623 334.5 250.641C 336.441 247.57 337.621 245.431 340.763 239.284C 340.955 238.908 341.513 237.7 342.004 236.6C 342.494 235.5 343.233 233.908 343.647 233.062C 344.061 232.216 344.4 231.217 344.4 230.842C 344.4 230.467 344.547 229.989 344.728 229.78C 345.038 229.421 346.534 224.879 348.426 218.555L348.426 218.555L349.277 215.71L353.538 215.46C 359.672 215.1 367.122 214.093 370.2 213.207C 372.157 212.644 374.628 212.025 376.1 211.73C 376.705 211.609 377.2 211.35 377.2 211.155C 377.2 210.96 377.472 210.8 377.804 210.8C 378.137 210.8 379.262 210.422 380.304 209.96C 381.347 209.498 382.65 208.937 383.2 208.713C 385.295 207.861 388.884 205.826 391.361 204.086C 393.554 202.546 395.169 201.137 398.102 198.208L398.102 198.208L400.096 196.216L399.816 192.408C 399.662 190.314 399.55 186.907 399.566 184.839C 399.583 182.696 399.411 180.854 399.166 180.558C 398.929 180.273 398.74 178.977 398.746 177.677L398.746 177.677L398.758 175.314L397.079 174.787C 396.155 174.498 395.229 174.112 395.02 173.93C 394.811 173.749 394.314 173.6 393.915 173.6C 393.516 173.6 392.877 173.438 392.495 173.239C 391 172.462 384.358 171.009 377.561 169.972C 374.229 169.463 365.056 169.662 359.823 170.357C 356.081 170.853 356.518 171.112 355.764 167.953C 354.25 161.605 353.439 158.727 352.115 155.007C 350.623 150.814 347.424 144 346.024 142.034C 345.571 141.397 345.2 140.768 345.2 140.635C 345.2 139.171 337.796 132.518 334.266 130.809C 329.775 128.635 329.025 128.683 326.545 131.3M70.583 162.901C 70.477 163.177 70.437 170.242 70.495 178.601L70.495 178.601L70.6 193.8L87.9 193.904L105.2 194.008L105.2 178.204L105.2 162.4L87.987 162.4C 74.563 162.4 70.733 162.51 70.583 162.901M114.984 162.897C 114.877 163.175 114.837 170.242 114.895 178.601L114.895 178.601L115 193.8L132.4 193.8L149.8 193.8L149.8 178.2L149.8 162.6L132.489 162.496C 118.832 162.413 115.137 162.498 114.984 162.897M159.6 178.2L159.6 194L177 194L194.4 194L194.4 178.2L194.4 162.4L177 162.4L159.6 162.4L159.6 178.2zM204.183 162.901C 204.077 163.177 204.037 170.242 204.095 178.601L204.095 178.601L204.2 193.8L221.5 193.904L238.8 194.008L238.8 178.204L238.8 162.4L221.587 162.4C 208.163 162.4 204.333 162.51 204.183 162.901M248.8 178.2L248.8 194.008L266.1 193.904L283.4 193.8L283.4 178.2L283.4 162.6L266.1 162.496L248.8 162.392L248.8 178.2" stroke="none" fill="#F3F3F3" fill-rule="nonzero" />
        <path d="M179.003 0.275C 177.025 0.362 175.234 0.606 175.023 0.817C 174.812 1.028 173.427 1.2 171.944 1.2C 170.461 1.2 169.136 1.38 169 1.6C 168.864 1.82 167.773 2 166.576 2C 165.379 2 164.4 2.18 164.4 2.4C 164.4 2.62 163.511 2.8 162.424 2.8C 161.337 2.8 160.336 2.98 160.2 3.2C 160.064 3.42 159.243 3.6 158.376 3.6C 157.509 3.6 156.8 3.78 156.8 4C 156.8 4.22 156.001 4.4 155.024 4.4C 154.047 4.4 153.136 4.58 153 4.8C 152.864 5.02 152.144 5.2 151.4 5.2C 150.656 5.2 149.936 5.38 149.8 5.6C 149.664 5.82 149.034 6 148.4 6C 147.766 6 147.136 6.18 147 6.4C 146.864 6.62 146.234 6.8 145.6 6.8C 144.966 6.8 144.336 6.98 144.2 7.2C 144.064 7.42 143.434 7.6 142.8 7.6C 142.166 7.6 141.536 7.78 141.4 8C 141.264 8.22 140.623 8.4 139.976 8.4C 139.329 8.4 138.8 8.58 138.8 8.8C 138.8 9.02 138.26 9.2 137.6 9.2C 136.94 9.2 136.4 9.356 136.4 9.546C 136.4 9.736 135.594 10.002 134.609 10.137C 133.624 10.272 132.499 10.545 132.109 10.744C 131.029 11.296 129.558 11.894 127.9 12.454C 127.075 12.733 126.4 13.105 126.4 13.28C 126.4 13.456 125.86 13.6 125.2 13.6C 124.54 13.6 124 13.747 124 13.928C 124 14.108 123.1 14.5 122 14.8C 120.9 15.1 120 15.492 120 15.672C 120 15.853 119.64 16 119.2 16C 118.76 16 118.4 16.18 118.4 16.4C 118.4 16.62 118.04 16.8 117.6 16.8C 117.16 16.8 116.8 16.98 116.8 17.2C 116.8 17.42 116.44 17.6 116 17.6C 115.56 17.6 115.2 17.78 115.2 18C 115.2 18.22 114.876 18.4 114.48 18.4C 113.586 18.4 111.607 19.294 111.603 19.7C 111.601 19.865 111.24 20 110.8 20C 110.36 20 110 20.18 110 20.4C 110 20.62 109.655 20.8 109.233 20.8C 108.812 20.8 108.407 20.935 108.333 21.1C 108.213 21.37 106.111 22.578 103.703 23.76C 103.21 24.002 102.805 24.335 102.803 24.5C 102.801 24.665 102.44 24.8 102 24.8C 101.56 24.8 101.2 24.98 101.2 25.2C 101.2 25.42 100.906 25.6 100.547 25.6C 100.188 25.6 99.603 25.936 99.247 26.346C 98.891 26.757 98.033 27.217 97.341 27.369C 96.649 27.521 95.766 27.995 95.379 28.423C 94.993 28.85 94.434 29.2 94.138 29.2C 93.842 29.2 93.6 29.38 93.6 29.6C 93.6 29.82 93.364 30 93.075 30C 92.787 30 92.164 30.36 91.692 30.8C 91.22 31.24 90.596 31.6 90.305 31.6C 90.014 31.6 89.517 31.96 89.2 32.4C 88.883 32.84 88.343 33.2 88 33.2C 87.657 33.2 87.117 33.56 86.8 34C 86.483 34.44 86.038 34.8 85.812 34.801C 85.585 34.801 84.77 35.341 84 36C 83.23 36.659 82.415 37.199 82.188 37.199C 81.962 37.2 81.517 37.56 81.2 38C 80.883 38.44 80.422 38.8 80.177 38.8C 79.931 38.8 78.936 39.522 77.965 40.404C 76.994 41.286 75.818 42.349 75.352 42.767C 74.885 43.184 73.985 43.799 73.352 44.133C 72.718 44.467 71.286 45.609 70.169 46.67C 69.052 47.732 67.522 49.043 66.769 49.584C 66.016 50.125 64.23 51.793 62.8 53.291C 60.199 56.016 58.934 57.286 52.59 63.544C 50.726 65.384 49.2 67.028 49.2 67.199C 49.2 67.369 48.199 68.564 46.975 69.854C 45.751 71.144 44.475 72.718 44.138 73.352C 43.801 73.985 43.184 74.885 42.767 75.352C 42.349 75.818 41.286 76.994 40.404 77.965C 39.522 78.936 38.8 79.931 38.8 80.177C 38.8 80.422 38.44 80.883 38 81.2C 37.56 81.517 37.2 81.962 37.199 82.188C 37.199 82.415 36.659 83.23 36 84C 35.341 84.77 34.801 85.585 34.801 85.812C 34.8 86.038 34.44 86.483 34 86.8C 33.56 87.117 33.2 87.657 33.2 88C 33.2 88.343 32.84 88.883 32.4 89.2C 31.96 89.517 31.6 90.014 31.6 90.305C 31.6 90.596 31.24 91.22 30.8 91.692C 30.36 92.164 30 92.787 30 93.075C 30 93.364 29.82 93.6 29.6 93.6C 29.38 93.6 29.2 93.842 29.2 94.138C 29.2 94.434 28.85 94.993 28.423 95.379C 27.995 95.766 27.521 96.649 27.369 97.341C 27.217 98.033 26.757 98.891 26.346 99.247C 25.936 99.603 25.6 100.188 25.6 100.547C 25.6 100.906 25.42 101.2 25.2 101.2C 24.98 101.2 24.8 101.56 24.8 102C 24.8 102.44 24.665 102.801 24.5 102.803C 24.335 102.805 24.002 103.21 23.76 103.703C 22.578 106.111 21.37 108.213 21.1 108.333C 20.935 108.407 20.8 108.812 20.8 109.233C 20.8 109.655 20.62 110 20.4 110C 20.18 110 20 110.36 20 110.8C 20 111.24 19.865 111.601 19.7 111.603C 19.294 111.607 18.4 113.586 18.4 114.48C 18.4 114.876 18.22 115.2 18 115.2C 17.78 115.2 17.6 115.56 17.6 116C 17.6 116.44 17.42 116.8 17.2 116.8C 16.98 116.8 16.8 117.16 16.8 117.6C 16.8 118.04 16.62 118.4 16.4 118.4C 16.18 118.4 16 118.76 16 119.2C 16 119.64 15.853 120 15.672 120C 15.492 120 15.1 120.9 14.8 122C 14.5 123.1 14.108 124 13.928 124C 13.747 124 13.6 124.54 13.6 125.2C 13.6 125.86 13.456 126.4 13.28 126.4C 13.105 126.4 12.733 127.075 12.454 127.9C 11.894 129.558 11.296 131.029 10.744 132.109C 10.545 132.499 10.272 133.624 10.137 134.609C 10.002 135.594 9.736 136.4 9.546 136.4C 9.356 136.4 9.2 136.94 9.2 137.6C 9.2 138.26 9.02 138.8 8.8 138.8C 8.58 138.8 8.4 139.329 8.4 139.976C 8.4 140.623 8.22 141.264 8 141.4C 7.78 141.536 7.6 142.166 7.6 142.8C 7.6 143.434 7.42 144.064 7.2 144.2C 6.98 144.336 6.8 144.966 6.8 145.6C 6.8 146.234 6.62 146.864 6.4 147C 6.18 147.136 6 147.766 6 148.4C 6 149.034 5.82 149.664 5.6 149.8C 5.38 149.936 5.2 150.656 5.2 151.4C 5.2 152.144 5.02 152.864 4.8 153C 4.58 153.136 4.4 154.047 4.4 155.024C 4.4 156.001 4.22 156.8 4 156.8C 3.78 156.8 3.6 157.509 3.6 158.376C 3.6 159.243 3.42 160.064 3.2 160.2C 2.98 160.336 2.8 161.337 2.8 162.424C 2.8 163.511 2.62 164.4 2.4 164.4C 2.18 164.4 2 165.379 2 166.576C 2 167.773 1.82 168.864 1.6 169C 1.38 169.136 1.2 170.461 1.2 171.944C 1.2 173.567 1.001 174.839 0.7 175.14C -0.029 175.869 -0.029 224.131 0.7 224.86C 1.001 225.161 1.2 226.433 1.2 228.056C 1.2 229.539 1.38 230.864 1.6 231C 1.82 231.136 2 232.227 2 233.424C 2 234.621 2.18 235.6 2.4 235.6C 2.62 235.6 2.8 236.59 2.8 237.8C 2.8 239.01 2.98 240 3.2 240C 3.42 240 3.6 240.72 3.6 241.6C 3.6 242.48 3.78 243.2 4 243.2C 4.22 243.2 4.4 243.999 4.4 244.976C 4.4 245.953 4.58 246.864 4.8 247C 5.02 247.136 5.2 247.957 5.2 248.824C 5.2 249.691 5.38 250.4 5.6 250.4C 5.82 250.4 6 250.929 6 251.576C 6 252.223 6.18 252.864 6.4 253C 6.62 253.136 6.8 253.867 6.8 254.624C 6.8 255.381 6.98 256 7.2 256C 7.42 256 7.6 256.529 7.6 257.176C 7.6 257.823 7.78 258.464 8 258.6C 8.22 258.736 8.4 259.377 8.4 260.024C 8.4 260.671 8.58 261.2 8.8 261.2C 9.02 261.2 9.2 261.74 9.2 262.4C 9.2 263.06 9.356 263.6 9.546 263.6C 9.736 263.6 10.003 264.412 10.139 265.405C 10.275 266.398 10.749 267.961 11.193 268.88C 11.637 269.799 12 270.753 12 271C 12 271.247 12.36 272.195 12.8 273.106C 13.24 274.016 13.6 275.04 13.6 275.381C 13.6 275.721 13.747 276 13.928 276C 14.108 276 14.5 276.9 14.8 278C 15.1 279.1 15.492 280 15.672 280C 15.853 280 16 280.36 16 280.8C 16 281.24 16.18 281.6 16.4 281.6C 16.62 281.6 16.8 281.96 16.8 282.4C 16.8 282.84 16.98 283.2 17.2 283.2C 17.42 283.2 17.6 283.56 17.6 284C 17.6 284.44 17.78 284.8 18 284.8C 18.22 284.8 18.4 285.143 18.4 285.562C 18.4 286.378 20.001 289.712 20.5 289.933C 20.665 290.007 20.8 290.412 20.8 290.833C 20.8 291.255 20.98 291.6 21.2 291.6C 21.42 291.6 21.6 291.945 21.6 292.367C 21.6 292.788 21.735 293.193 21.9 293.267C 22.276 293.434 23.575 295.564 23.871 296.5C 23.993 296.885 24.252 297.2 24.447 297.2C 24.641 297.2 24.8 297.56 24.8 298C 24.8 298.44 24.98 298.8 25.2 298.8C 25.42 298.8 25.6 299.094 25.6 299.453C 25.6 299.812 25.931 300.397 26.336 300.753C 26.741 301.109 27.2 301.919 27.357 302.553C 27.645 303.717 30.666 308.487 31.272 308.733C 31.453 308.807 31.6 309.172 31.6 309.545C 31.6 309.918 31.96 310.483 32.4 310.8C 32.84 311.117 33.2 311.657 33.2 312C 33.2 312.343 33.56 312.883 34 313.2C 34.44 313.517 34.8 313.962 34.801 314.188C 34.801 314.415 35.341 315.23 36 316C 36.659 316.77 37.199 317.585 37.199 317.812C 37.2 318.038 37.56 318.483 38 318.8C 38.44 319.117 38.8 319.572 38.8 319.81C 38.8 320.049 39.385 320.902 40.1 321.706C 42.213 324.081 43.513 325.706 44.572 327.295C 45.121 328.118 46.386 329.607 47.385 330.606C 48.383 331.604 49.2 332.58 49.2 332.773C 49.2 332.967 51.085 334.988 53.388 337.263C 58.024 341.843 58.637 342.454 63.758 347.615C 65.715 349.587 67.474 351.2 67.667 351.2C 67.86 351.2 69.007 352.19 70.217 353.4C 71.427 354.61 72.571 355.6 72.758 355.6C 72.946 355.6 73.787 356.23 74.628 357C 75.469 357.77 76.279 358.4 76.428 358.4C 76.577 358.4 77.387 359.03 78.228 359.8C 79.069 360.57 79.951 361.2 80.19 361.2C 80.428 361.2 80.883 361.56 81.2 362C 81.517 362.44 81.962 362.8 82.188 362.801C 82.415 362.801 83.23 363.341 84 364C 84.77 364.659 85.585 365.199 85.812 365.199C 86.038 365.2 86.483 365.56 86.8 366C 87.117 366.44 87.657 366.8 88 366.8C 88.343 366.8 88.883 367.16 89.2 367.6C 89.517 368.04 90.097 368.4 90.488 368.4C 90.88 368.4 91.2 368.55 91.2 368.732C 91.2 368.915 91.695 369.32 92.3 369.632C 92.905 369.945 93.723 370.491 94.118 370.846C 94.512 371.202 95.682 371.919 96.718 372.441C 97.753 372.962 98.69 373.502 98.8 373.639C 99.159 374.087 101.546 375.2 102.147 375.2C 102.469 375.2 102.793 375.335 102.867 375.5C 103.034 375.876 105.164 377.175 106.1 377.471C 106.485 377.593 106.8 377.852 106.8 378.047C 106.8 378.241 107.16 378.4 107.6 378.4C 108.04 378.4 108.4 378.58 108.4 378.8C 108.4 379.02 108.76 379.2 109.2 379.2C 109.64 379.2 110 379.38 110 379.6C 110 379.82 110.36 380 110.8 380C 111.24 380 111.601 380.135 111.603 380.3C 111.607 380.706 113.586 381.6 114.48 381.6C 114.876 381.6 115.2 381.78 115.2 382C 115.2 382.22 115.56 382.4 116 382.4C 116.44 382.4 116.8 382.58 116.8 382.8C 116.8 383.02 117.16 383.2 117.6 383.2C 118.04 383.2 118.4 383.38 118.4 383.6C 118.4 383.82 118.76 384 119.2 384C 119.64 384 120 384.18 120 384.4C 120 384.62 120.349 384.8 120.776 384.8C 121.203 384.8 121.664 384.98 121.8 385.2C 121.936 385.42 122.487 385.6 123.024 385.6C 123.561 385.6 124 385.78 124 386C 124 386.22 124.279 386.4 124.619 386.4C 124.96 386.4 125.984 386.76 126.894 387.2C 127.805 387.64 128.861 388 129.242 388C 129.622 388 129.993 388.14 130.067 388.312C 130.254 388.75 139.033 391.6 140.196 391.6C 140.722 391.6 141.264 391.78 141.4 392C 141.536 392.22 142.166 392.4 142.8 392.4C 143.434 392.4 144.064 392.58 144.2 392.8C 144.336 393.02 144.966 393.2 145.6 393.2C 146.234 393.2 146.864 393.38 147 393.6C 147.136 393.82 147.777 394 148.424 394C 149.071 394 149.6 394.18 149.6 394.4C 149.6 394.62 150.309 394.8 151.176 394.8C 152.043 394.8 152.864 394.98 153 395.2C 153.136 395.42 154.047 395.6 155.024 395.6C 156.001 395.6 156.8 395.78 156.8 396C 156.8 396.22 157.52 396.4 158.4 396.4C 159.28 396.4 160 396.58 160 396.8C 160 397.02 160.99 397.2 162.2 397.2C 163.41 397.2 164.4 397.38 164.4 397.6C 164.4 397.82 165.379 398 166.576 398C 167.773 398 168.864 398.18 169 398.4C 169.136 398.62 170.461 398.8 171.944 398.8C 173.567 398.8 174.839 398.999 175.14 399.3C 175.871 400.031 224.857 400.031 225.1 399.3C 225.212 398.965 226.171 398.8 228.01 398.8C 229.518 398.8 230.864 398.62 231 398.4C 231.136 398.18 232.227 398 233.424 398C 234.621 398 235.6 397.82 235.6 397.6C 235.6 397.38 236.59 397.2 237.8 397.2C 239.01 397.2 240 397.02 240 396.8C 240 396.58 240.72 396.4 241.6 396.4C 242.48 396.4 243.2 396.22 243.2 396C 243.2 395.78 243.999 395.6 244.976 395.6C 245.953 395.6 246.864 395.42 247 395.2C 247.136 394.98 247.957 394.8 248.824 394.8C 249.691 394.8 250.4 394.62 250.4 394.4C 250.4 394.18 250.929 394 251.576 394C 252.223 394 252.864 393.82 253 393.6C 253.136 393.38 253.867 393.2 254.624 393.2C 255.381 393.2 256 393.02 256 392.8C 256 392.58 256.63 392.4 257.4 392.4C 258.17 392.4 258.8 392.22 258.8 392C 258.8 391.78 259.241 391.6 259.78 391.6C 260.96 391.6 269.744 388.755 269.933 388.312C 270.007 388.14 270.414 388 270.839 388C 271.263 388 271.968 387.82 272.405 387.6C 272.842 387.38 273.558 387.02 273.995 386.8C 274.432 386.58 275.062 386.4 275.395 386.4C 275.728 386.4 276 386.22 276 386C 276 385.78 276.439 385.6 276.976 385.6C 277.513 385.6 278.064 385.42 278.2 385.2C 278.336 384.98 278.797 384.8 279.224 384.8C 279.651 384.8 280 384.62 280 384.4C 280 384.18 280.36 384 280.8 384C 281.24 384 281.6 383.82 281.6 383.6C 281.6 383.38 281.96 383.2 282.4 383.2C 282.84 383.2 283.2 383.02 283.2 382.8C 283.2 382.58 283.56 382.4 284 382.4C 284.44 382.4 284.8 382.22 284.8 382C 284.8 381.78 285.143 381.6 285.562 381.6C 286.378 381.6 289.712 379.999 289.933 379.5C 290.007 379.335 290.412 379.2 290.833 379.2C 291.255 379.2 291.6 379.02 291.6 378.8C 291.6 378.58 291.945 378.4 292.367 378.4C 292.788 378.4 293.193 378.265 293.267 378.1C 293.434 377.724 295.564 376.425 296.5 376.129C 296.885 376.007 297.2 375.748 297.2 375.553C 297.2 375.359 297.479 375.2 297.82 375.2C 298.442 375.2 300.825 374.102 301.2 373.644C 301.31 373.509 301.94 373.134 302.6 372.81C 304.261 371.995 308.571 369.127 308.733 368.728C 308.807 368.547 309.172 368.4 309.545 368.4C 309.918 368.4 310.483 368.04 310.8 367.6C 311.117 367.16 311.657 366.8 312 366.8C 312.343 366.8 312.883 366.44 313.2 366C 313.517 365.56 313.962 365.2 314.188 365.199C 314.415 365.199 315.23 364.659 316 364C 316.77 363.341 317.585 362.801 317.812 362.801C 318.038 362.8 318.483 362.44 318.8 362C 319.117 361.56 319.572 361.2 319.81 361.2C 320.049 361.2 320.931 360.57 321.772 359.8C 322.613 359.03 323.423 358.4 323.572 358.4C 323.721 358.4 324.531 357.77 325.372 357C 326.213 356.23 327.054 355.6 327.242 355.6C 327.429 355.6 328.573 354.61 329.783 353.4C 330.993 352.19 332.157 351.2 332.371 351.2C 332.584 351.2 334.703 349.23 337.079 346.821C 342.316 341.514 341.514 342.316 346.821 337.079C 349.23 334.703 351.2 332.584 351.2 332.371C 351.2 332.157 352.19 330.993 353.4 329.783C 354.61 328.573 355.6 327.429 355.6 327.242C 355.6 327.054 356.23 326.213 357 325.372C 357.77 324.531 358.4 323.721 358.4 323.572C 358.4 323.423 359.03 322.613 359.8 321.772C 360.57 320.931 361.2 320.049 361.2 319.81C 361.2 319.572 361.56 319.117 362 318.8C 362.44 318.483 362.8 318.038 362.801 317.812C 362.801 317.585 363.341 316.77 364 316C 364.659 315.23 365.199 314.415 365.199 314.188C 365.2 313.962 365.56 313.517 366 313.2C 366.44 312.883 366.8 312.343 366.8 312C 366.8 311.657 367.16 311.117 367.6 310.8C 368.04 310.483 368.4 309.918 368.4 309.545C 368.4 309.172 368.547 308.807 368.728 308.733C 369.127 308.571 371.995 304.261 372.81 302.6C 373.134 301.94 373.509 301.31 373.644 301.2C 374.091 300.835 375.2 298.449 375.2 297.853C 375.2 297.531 375.335 297.207 375.5 297.133C 375.876 296.966 377.175 294.836 377.471 293.9C 377.593 293.515 377.852 293.2 378.047 293.2C 378.241 293.2 378.4 292.84 378.4 292.4C 378.4 291.96 378.58 291.6 378.8 291.6C 379.02 291.6 379.2 291.255 379.2 290.833C 379.2 290.412 379.335 290.007 379.5 289.933C 379.999 289.712 381.6 286.378 381.6 285.562C 381.6 285.143 381.78 284.8 382 284.8C 382.22 284.8 382.4 284.44 382.4 284C 382.4 283.56 382.58 283.2 382.8 283.2C 383.02 283.2 383.2 282.84 383.2 282.4C 383.2 281.96 383.38 281.6 383.6 281.6C 383.82 281.6 384 281.24 384 280.8C 384 280.36 384.18 280 384.4 280C 384.62 280 384.8 279.651 384.8 279.224C 384.8 278.797 384.98 278.336 385.2 278.2C 385.42 278.064 385.6 277.513 385.6 276.976C 385.6 276.439 385.78 276 386 276C 386.22 276 386.4 275.728 386.4 275.395C 386.4 275.062 386.58 274.432 386.8 273.995C 387.02 273.558 387.38 272.842 387.6 272.405C 387.82 271.968 388 271.263 388 270.839C 388 270.414 388.14 270.007 388.312 269.933C 388.755 269.744 391.6 260.96 391.6 259.78C 391.6 259.241 391.78 258.8 392 258.8C 392.22 258.8 392.4 258.17 392.4 257.4C 392.4 256.63 392.58 256 392.8 256C 393.02 256 393.2 255.381 393.2 254.624C 393.2 253.867 393.38 253.136 393.6 253C 393.82 252.864 394 252.223 394 251.576C 394 250.929 394.18 250.4 394.4 250.4C 394.62 250.4 394.8 249.691 394.8 248.824C 394.8 247.957 394.98 247.136 395.2 247C 395.42 246.864 395.6 245.953 395.6 244.976C 395.6 243.999 395.78 243.2 396 243.2C 396.22 243.2 396.4 242.48 396.4 241.6C 396.4 240.72 396.58 240 396.8 240C 397.02 240 397.2 239.01 397.2 237.8C 397.2 236.59 397.38 235.6 397.6 235.6C 397.82 235.6 398 234.621 398 233.424C 398 232.227 398.18 231.136 398.4 231C 398.62 230.864 398.8 229.539 398.8 228.056C 398.8 226.573 398.995 225.165 399.233 224.927C 399.517 224.643 399.746 219.895 399.897 211.151L399.897 211.151L400.127 197.808L397.284 200.439C 394.571 202.951 388.842 207.19 388.135 207.209C 387.951 207.214 387.35 207.57 386.8 208C 386.25 208.43 385.485 208.786 385.1 208.791C 384.715 208.796 384.4 208.98 384.4 209.2C 384.4 209.42 383.95 209.6 383.4 209.6C 382.85 209.6 382.4 209.78 382.4 210C 382.4 210.22 382.051 210.4 381.624 210.4C 381.197 210.4 380.736 210.58 380.6 210.8C 380.464 211.02 379.913 211.2 379.376 211.2C 378.839 211.2 378.4 211.38 378.4 211.6C 378.4 211.82 378.051 212 377.624 212C 377.197 212 376.736 212.18 376.6 212.4C 376.464 212.62 375.733 212.8 374.976 212.8C 374.219 212.8 373.6 212.98 373.6 213.2C 373.6 213.42 372.981 213.6 372.224 213.6C 371.467 213.6 370.748 213.761 370.626 213.958C 370.505 214.155 369.729 214.419 368.903 214.546C 368.076 214.673 366.23 214.968 364.8 215.202C 363.37 215.436 359.77 215.802 356.8 216.016C 349.863 216.516 349.6 216.58 349.6 217.784C 349.6 218.317 349.42 218.864 349.2 219C 348.98 219.136 348.8 219.867 348.8 220.624C 348.8 221.381 348.62 222 348.4 222C 348.18 222 348 222.529 348 223.176C 348 223.823 347.82 224.464 347.6 224.6C 347.38 224.736 347.2 225.276 347.2 225.8C 347.2 226.324 347.02 226.864 346.8 227C 346.58 227.136 346.4 227.687 346.4 228.224C 346.4 228.761 346.22 229.2 346 229.2C 345.78 229.2 345.6 229.562 345.6 230.005C 345.6 230.448 345.392 231.213 345.138 231.705C 344.167 233.582 344 234.007 344 234.595C 344 234.928 343.82 235.2 343.6 235.2C 343.38 235.2 343.2 235.453 343.2 235.762C 343.2 236.071 342.855 237.016 342.434 237.862C 342.013 238.708 340.73 241.29 339.582 243.6C 338.434 245.91 337.249 248.084 336.948 248.431C 336.646 248.779 336.4 249.196 336.4 249.359C 336.4 249.522 335.86 250.441 335.2 251.4C 334.54 252.359 334 253.337 334 253.572C 334 253.807 333.862 254 333.694 254C 333.526 254 332.944 254.72 332.4 255.6C 331.856 256.48 331.274 257.2 331.106 257.2C 330.938 257.2 330.8 257.436 330.8 257.725C 330.8 258.013 330.48 258.598 330.089 259.025C 329.698 259.451 328.942 260.43 328.408 261.2C 327.875 261.97 327.151 262.87 326.8 263.2C 326.449 263.53 325.729 264.43 325.2 265.2C 324.671 265.97 323.959 266.87 323.619 267.2C 323.279 267.53 321.92 269.05 320.6 270.578C 318.17 273.391 311.923 279.576 309.012 282.05C 308.138 282.792 306.92 283.872 306.305 284.45C 305.69 285.027 303.795 286.554 302.093 287.842C 300.392 289.131 298.709 290.504 298.353 290.893C 297.997 291.282 297.547 291.6 297.353 291.601C 297.159 291.601 296.37 292.141 295.6 292.8C 294.83 293.459 294.041 293.999 293.847 293.999C 293.653 294 293.203 294.316 292.847 294.703C 292.491 295.089 291.705 295.66 291.1 295.97C 290.495 296.281 290 296.685 290 296.868C 290 297.05 289.812 297.2 289.582 297.2C 289.352 297.2 287.843 298.091 286.229 299.18C 284.615 300.269 282.643 301.529 281.847 301.98C 281.051 302.431 279.725 303.193 278.9 303.674C 275.369 305.732 257.762 314.4 257.112 314.4C 256.72 314.4 256.4 314.58 256.4 314.8C 256.4 315.02 256.128 315.2 255.795 315.2C 255.462 315.2 254.832 315.38 254.395 315.6C 253.958 315.82 253.242 316.18 252.805 316.4C 252.368 316.62 251.826 316.8 251.601 316.8C 251.376 316.8 250.428 317.139 249.496 317.554C 248.563 317.969 246.72 318.706 245.4 319.193C 244.08 319.68 242.64 320.229 242.2 320.413C 241.76 320.597 240.77 320.938 240 321.17C 239.23 321.403 237.739 321.865 236.686 322.197C 235.633 322.529 234.506 322.8 234.181 322.8C 233.855 322.8 233.277 322.959 232.895 323.154C 231.658 323.784 226.919 325.2 226.047 325.2C 225.581 325.2 225.2 325.38 225.2 325.6C 225.2 325.82 224.48 326 223.6 326C 222.72 326 222 326.18 222 326.4C 222 326.62 221.291 326.8 220.424 326.8C 219.557 326.8 218.736 326.98 218.6 327.2C 218.464 327.42 217.654 327.6 216.8 327.6C 215.946 327.6 215.136 327.78 215 328C 214.864 328.22 214.054 328.4 213.2 328.4C 212.346 328.4 211.536 328.58 211.4 328.8C 211.264 329.02 210.454 329.2 209.6 329.2C 208.746 329.2 207.936 329.38 207.8 329.6C 207.664 329.82 206.789 330 205.856 330C 204.923 330 203.989 330.165 203.78 330.368C 203.571 330.57 202.23 330.835 200.8 330.958C 194.805 331.47 193.359 331.654 192.6 332.001C 192.16 332.202 190.63 332.465 189.2 332.584C 170.187 334.173 152.525 334.106 139.4 332.396C 137.64 332.166 135.21 331.878 134 331.754C 132.79 331.631 131.629 331.365 131.42 331.165C 131.211 330.964 130.187 330.8 129.144 330.8C 128.101 330.8 127.136 330.62 127 330.4C 126.864 330.18 125.953 330 124.976 330C 123.999 330 123.2 329.82 123.2 329.6C 123.2 329.38 122.491 329.2 121.624 329.2C 120.757 329.2 119.936 329.02 119.8 328.8C 119.664 328.58 118.944 328.4 118.2 328.4C 117.456 328.4 116.736 328.22 116.6 328C 116.464 327.78 115.823 327.6 115.176 327.6C 114.529 327.6 114 327.42 114 327.2C 114 326.98 113.471 326.8 112.824 326.8C 112.177 326.8 111.536 326.62 111.4 326.4C 111.264 326.18 110.724 326 110.2 326C 109.676 326 109.136 325.82 109 325.6C 108.864 325.38 108.401 325.2 107.971 325.2C 107.541 325.2 106.877 325.041 106.495 324.847C 105.642 324.413 104.248 323.843 102.4 323.173C 100.19 322.372 92.565 318.575 92 317.995C 91.89 317.882 90.945 317.358 89.9 316.832C 88.855 316.305 88 315.723 88 315.537C 88 315.352 87.764 315.2 87.475 315.2C 87.187 315.2 86.564 314.84 86.092 314.4C 85.62 313.96 85.138 313.6 85.021 313.6C 84.808 313.6 83.564 312.63 82.584 311.7C 82.294 311.425 81.93 311.2 81.775 311.2C 81.621 311.2 81.203 310.883 80.847 310.496C 80.491 310.108 79.57 309.323 78.8 308.751C 77.322 307.653 71.294 301.77 69.6 299.771C 65.285 294.683 61.377 289.235 60.367 286.9C 60.058 286.185 59.669 285.6 59.502 285.6C 59.336 285.6 59.2 285.33 59.2 285C 59.2 284.67 59.054 284.4 58.875 284.4C 58.696 284.4 58.302 283.77 58 283C 57.698 282.23 57.304 281.6 57.125 281.6C 56.946 281.6 56.8 281.255 56.8 280.833C 56.8 280.412 56.665 280.007 56.5 279.933C 56.208 279.804 55.237 277.883 53.6 274.2C 53.16 273.21 52.417 271.545 51.949 270.5C 50.202 266.598 47.476 257.97 46.353 252.791C 45.901 250.706 45.356 248.19 45.142 247.2C 44.583 244.615 44.028 240.972 43.772 238.2C 43.65 236.88 43.387 235.44 43.186 235C 42.406 233.284 41.655 205.275 42.35 203.8C 42.558 203.36 42.826 202.69 42.947 202.311C 43.154 201.661 50.645 201.614 174.683 201.489C 280.867 201.381 306.547 201.256 308 200.838C 308.99 200.552 310.52 200.116 311.4 199.869C 316.479 198.438 319.508 195.227 317.152 193.77C 316.959 193.651 316.8 193.149 316.8 192.656C 316.8 192.163 316.652 191.589 316.472 191.38C 316.081 190.927 314.756 186.65 313.617 182.164C 311.404 173.45 312.104 154.722 314.836 149.505C 315.036 149.123 315.2 148.62 315.2 148.386C 315.2 148.152 315.56 147.216 316 146.306C 316.44 145.395 316.8 144.429 316.8 144.158C 316.8 143.888 316.935 143.607 317.1 143.533C 317.265 143.46 317.844 142.5 318.387 141.4C 322.289 133.493 329.2 126.136 330.6 128.4C 330.736 128.62 331.261 128.8 331.767 128.8C 334.526 128.8 345.6 137.591 345.6 139.78C 345.6 140.121 345.75 140.4 345.932 140.4C 346.115 140.4 346.52 140.895 346.832 141.5C 347.144 142.105 347.494 142.69 347.61 142.8C 347.97 143.141 351.886 151.32 352.397 152.8C 352.663 153.57 353.03 154.56 353.212 155C 354.286 157.595 356.387 165.57 356.395 167.081C 356.404 168.766 357.272 170.08 358.176 169.779C 361.768 168.583 381.113 168.488 381.838 169.662C 381.953 169.848 382.746 170 383.6 170C 384.454 170 385.264 170.18 385.4 170.4C 385.536 170.62 386.346 170.8 387.2 170.8C 388.054 170.8 388.864 170.98 389 171.2C 389.136 171.42 389.766 171.6 390.4 171.6C 391.034 171.6 391.664 171.78 391.8 172C 391.936 172.22 392.476 172.4 393 172.4C 393.524 172.4 394.064 172.58 394.2 172.8C 394.336 173.02 394.887 173.2 395.424 173.2C 395.961 173.2 396.4 173.38 396.4 173.6C 396.4 173.82 396.94 174 397.6 174L397.6 174L398.8 174L398.8 171.6C 398.8 170.267 398.622 169.2 398.4 169.2C 398.178 169.2 398 168.133 398 166.8C 398 165.467 397.822 164.4 397.6 164.4C 397.38 164.4 397.2 163.5 397.2 162.4C 397.2 161.3 397.02 160.4 396.8 160.4C 396.58 160.4 396.4 159.601 396.4 158.624C 396.4 157.647 396.22 156.736 396 156.6C 395.78 156.464 395.6 155.733 395.6 154.976C 395.6 154.219 395.455 153.6 395.278 153.6C 395.101 153.6 394.912 152.835 394.857 151.9C 394.802 150.965 394.587 150.029 394.379 149.82C 394.17 149.611 394 148.857 394 148.144C 394 147.431 393.82 146.736 393.6 146.6C 393.38 146.464 393.2 145.924 393.2 145.4C 393.2 144.876 393.02 144.336 392.8 144.2C 392.58 144.064 392.4 143.423 392.4 142.776C 392.4 142.129 392.22 141.6 392 141.6C 391.78 141.6 391.6 141.064 391.6 140.408C 391.6 139.224 389.938 133.632 389.191 132.305C 388.976 131.923 388.8 131.336 388.8 131C 388.8 130.664 388.635 130.077 388.433 129.695C 387.533 127.993 386.4 125.156 386.4 124.604C 386.4 124.272 386.22 124 386 124C 385.78 124 385.6 123.561 385.6 123.024C 385.6 122.487 385.42 121.936 385.2 121.8C 384.98 121.664 384.8 121.203 384.8 120.776C 384.8 120.349 384.62 120 384.4 120C 384.18 120 384 119.64 384 119.2C 384 118.76 383.82 118.4 383.6 118.4C 383.38 118.4 383.2 118.04 383.2 117.6C 383.2 117.16 383.02 116.8 382.8 116.8C 382.58 116.8 382.4 116.528 382.4 116.195C 382.4 115.862 382.232 115.277 382.026 114.895C 381.821 114.513 381.417 113.615 381.129 112.9C 380.84 112.185 380.469 111.6 380.302 111.6C 380.136 111.6 380 111.24 380 110.8C 380 110.36 379.82 110 379.6 110C 379.38 110 379.2 109.64 379.2 109.2C 379.2 108.76 379.02 108.4 378.8 108.4C 378.58 108.4 378.4 108.04 378.4 107.6C 378.4 107.16 378.22 106.8 378 106.8C 377.78 106.8 377.6 106.48 377.6 106.088C 377.6 105.697 377.24 105.117 376.8 104.8C 376.36 104.483 376 103.903 376 103.512C 376 103.12 375.82 102.8 375.6 102.8C 375.38 102.8 375.2 102.474 375.2 102.076C 375.2 101.679 374.57 100.307 373.8 99.028C 373.03 97.749 372.4 96.627 372.4 96.535C 372.4 96.442 372.04 95.98 371.6 95.508C 371.16 95.036 370.8 94.413 370.8 94.125C 370.8 93.836 370.62 93.6 370.4 93.6C 370.18 93.6 370 93.28 370 92.888C 370 92.497 369.64 91.917 369.2 91.6C 368.76 91.283 368.4 90.743 368.4 90.4C 368.4 90.057 368.04 89.517 367.6 89.2C 367.16 88.883 366.8 88.369 366.8 88.059C 366.8 87.748 366.484 87.203 366.097 86.847C 365.711 86.491 365.14 85.705 364.83 85.1C 364.519 84.495 364.115 84 363.932 84C 363.75 84 363.6 83.757 363.6 83.459C 363.6 83.162 363.06 82.354 362.4 81.663C 361.74 80.972 361.2 80.226 361.2 80.004C 361.2 79.782 361.02 79.6 360.8 79.6C 360.58 79.6 360.4 79.37 360.4 79.088C 360.4 78.807 360.04 78.317 359.6 78C 359.16 77.683 358.8 77.225 358.8 76.983C 358.8 76.741 357.99 75.698 357 74.665C 356.01 73.631 355.2 72.631 355.2 72.441C 355.2 72.252 354.525 71.394 353.7 70.536C 352.875 69.678 351.676 68.28 351.035 67.429C 350.394 66.579 348.528 64.581 346.887 62.989C 345.247 61.398 343.341 59.528 342.652 58.833C 341.964 58.139 339.443 55.598 337.05 53.186C 334.658 50.774 332.544 48.8 332.352 48.8C 332.161 48.8 331.074 47.89 329.938 46.777C 328.802 45.665 327.316 44.468 326.636 44.118C 325.956 43.767 325.165 43.148 324.877 42.74C 324.59 42.333 324.185 42 323.978 42C 323.771 42 322.859 41.28 321.952 40.4C 321.045 39.52 320.095 38.8 319.84 38.8C 319.585 38.8 319.117 38.44 318.8 38C 318.483 37.56 318.038 37.2 317.812 37.199C 317.585 37.199 316.77 36.659 316 36C 315.23 35.341 314.415 34.801 314.188 34.801C 313.962 34.8 313.517 34.44 313.2 34C 312.883 33.56 312.343 33.2 312 33.2C 311.657 33.2 311.117 32.84 310.8 32.4C 310.483 31.96 309.918 31.6 309.545 31.6C 309.172 31.6 308.807 31.453 308.733 31.272C 308.487 30.666 303.717 27.645 302.553 27.357C 301.919 27.2 301.109 26.741 300.753 26.336C 300.397 25.931 299.812 25.6 299.453 25.6C 299.094 25.6 298.8 25.42 298.8 25.2C 298.8 24.98 298.44 24.8 298 24.8C 297.56 24.8 297.2 24.62 297.2 24.4C 297.2 24.18 296.922 24 296.583 24C 296.244 24 295.58 23.64 295.108 23.2C 294.636 22.76 294.013 22.4 293.725 22.4C 293.436 22.4 293.2 22.22 293.2 22C 293.2 21.78 292.84 21.6 292.4 21.6C 291.96 21.6 291.6 21.42 291.6 21.2C 291.6 20.98 291.255 20.8 290.833 20.8C 290.412 20.8 290.007 20.665 289.933 20.5C 289.712 20.001 286.378 18.4 285.562 18.4C 285.143 18.4 284.8 18.22 284.8 18C 284.8 17.78 284.44 17.6 284 17.6C 283.56 17.6 283.2 17.42 283.2 17.2C 283.2 16.98 282.84 16.8 282.4 16.8C 281.96 16.8 281.6 16.62 281.6 16.4C 281.6 16.18 281.24 16 280.8 16C 280.36 16 280 15.82 280 15.6C 280 15.38 279.46 15.2 278.8 15.2C 278.14 15.2 277.6 15.02 277.6 14.8C 277.6 14.58 277.24 14.4 276.8 14.4C 276.36 14.4 276 14.22 276 14C 276 13.78 275.728 13.6 275.395 13.6C 275.062 13.6 274.387 13.392 273.895 13.138C 272.016 12.166 271.593 12 271 12C 270.664 12 270.032 11.82 269.595 11.6C 269.158 11.38 268.436 11.016 267.991 10.791C 267.546 10.566 266.376 10.272 265.391 10.137C 264.406 10.002 263.6 9.736 263.6 9.546C 263.6 9.356 263.06 9.2 262.4 9.2C 261.74 9.2 261.2 9.02 261.2 8.8C 261.2 8.58 260.57 8.4 259.8 8.4C 259.03 8.4 258.4 8.22 258.4 8C 258.4 7.78 257.86 7.6 257.2 7.6C 256.54 7.6 256 7.42 256 7.2C 256 6.98 255.28 6.8 254.4 6.8C 253.52 6.8 252.8 6.62 252.8 6.4C 252.8 6.18 252.271 6 251.624 6C 250.977 6 250.336 5.82 250.2 5.6C 250.064 5.38 249.333 5.2 248.576 5.2C 247.819 5.2 247.2 5.02 247.2 4.8C 247.2 4.58 246.3 4.4 245.2 4.4C 244.1 4.4 243.2 4.22 243.2 4C 243.2 3.78 242.491 3.6 241.624 3.6C 240.757 3.6 239.936 3.42 239.8 3.2C 239.664 2.98 238.663 2.8 237.576 2.8C 236.489 2.8 235.6 2.62 235.6 2.4C 235.6 2.178 234.533 2 233.2 2C 231.867 2 230.8 1.822 230.8 1.6C 230.8 1.373 229.627 1.2 228.08 1.2C 226.483 1.2 225.16 1 224.875 0.715C 224.394 0.234 187.86 -0.116 179.003 0.275M239.4 95.6L239.4 112.2L221.882 112.304C 210.26 112.373 204.1 112.268 203.582 111.99C 202.617 111.474 202.333 80.227 203.284 79.276C 203.651 78.909 208.06 78.817 221.584 78.896L221.584 78.896L239.4 79L239.4 95.6zM150.2 136.8L150.2 153.4L132.2 153.4L114.2 153.4L114.095 137.201C 114.038 128.291 114.078 120.774 114.184 120.496C 114.337 120.098 118.164 120.014 132.289 120.096L132.289 120.096L150.2 120.2L150.2 136.8zM194.95 121.25C 195.276 122.882 195.276 150.722 194.949 152.354L194.949 152.354L194.698 153.608L176.649 153.504L158.6 153.4L158.495 137.247C 158.42 125.655 158.519 120.939 158.844 120.547C 159.215 120.1 162.523 120 176.999 120L176.999 120L194.7 120L194.95 121.25zM239.4 136.8L239.4 153.4L221.646 153.504C 208.871 153.579 203.739 153.481 203.346 153.155C 202.654 152.581 202.532 122.049 203.216 120.77C 203.62 120.015 204.156 119.995 221.516 120.096L221.516 120.096L239.4 120.2L239.4 136.8zM105.8 178.2L105.8 194.6L87.6 194.6L69.4 194.6L69.295 178.601C 69.238 169.801 69.278 162.374 69.384 162.097C 69.537 161.698 73.402 161.614 87.689 161.696L87.689 161.696L105.8 161.8L105.8 178.2zM150.4 178.2L150.4 194.8L132.2 194.8L114 194.8L114 178.2L114 161.6L132.2 161.6L150.4 161.6L150.4 178.2zM194.948 162.5C 195.263 163.677 195.262 192.727 194.947 193.904L194.947 193.904L194.705 194.808L176.652 194.704L158.6 194.6L158.495 178.601C 158.438 169.801 158.477 162.376 158.583 162.101C 158.733 161.71 162.724 161.6 176.741 161.6L176.741 161.6L194.707 161.6L194.948 162.5zM239.6 178.204L239.6 194.808L221.3 194.704L203 194.6L202.889 179C 202.827 170.42 202.876 162.995 202.996 162.5L202.996 162.5L203.215 161.6L221.408 161.6L239.6 161.6L239.6 178.204zM284.204 162.5C 284.324 162.995 284.373 170.42 284.311 179L284.311 179L284.2 194.6L266 194.6L247.8 194.6L247.695 178.601C 247.638 169.801 247.677 162.376 247.783 162.101C 247.933 161.71 251.932 161.6 265.98 161.6L265.98 161.6L283.985 161.6L284.204 162.5" stroke="none" fill="#046CC4" fill-rule="nonzero" />
        <path d="M203.861 79.5C 203.693 79.773 216.991 79.767 232.8 79.488C 236.21 79.427 231.136 79.338 221.524 79.289C 211.912 79.24 203.964 79.335 203.861 79.5M123.7 120.7C 128.485 120.763 136.315 120.763 141.1 120.7C 145.885 120.636 141.97 120.584 132.4 120.584C 122.83 120.584 118.915 120.636 123.7 120.7M159.28 120.88C 158.737 121.423 158.562 152.606 159.1 152.938C 159.265 153.04 159.4 145.896 159.4 137.062L159.4 137.062L159.4 121L177 120.794L194.6 120.587L177.18 120.494C 164.058 120.423 159.642 120.518 159.28 120.88M203.862 120.7C 203.76 120.865 211.652 121 221.4 121C 231.148 121 239.04 120.865 238.938 120.7C 238.696 120.308 204.104 120.308 203.862 120.7M325.775 131.3L324.6 132.6L325.9 131.425C 326.615 130.779 327.2 130.194 327.2 130.125C 327.2 129.816 326.87 130.088 325.775 131.3M341.183 135.3C 342.841 137.066 343.2 137.384 343.2 137.083C 343.2 137.019 342.345 136.164 341.3 135.183L341.3 135.183L339.4 133.4L341.183 135.3zM76.8 161.888C 92.636 162.167 105.508 162.173 105.339 161.9C 105.236 161.735 97.378 161.64 87.876 161.689C 78.374 161.738 73.39 161.827 76.8 161.888M123.7 161.9C 128.485 161.963 136.315 161.963 141.1 161.9C 145.885 161.836 141.97 161.784 132.4 161.784C 122.83 161.784 118.915 161.836 123.7 161.9M159.461 161.9C 159.292 162.173 172.164 162.167 188 161.888C 191.41 161.827 186.426 161.738 176.924 161.689C 167.422 161.64 159.564 161.735 159.461 161.9M210.4 161.888C 226.236 162.167 239.108 162.173 238.939 161.9C 238.836 161.735 230.978 161.64 221.476 161.689C 211.974 161.738 206.99 161.827 210.4 161.888M257.3 161.9C 262.085 161.963 269.915 161.963 274.7 161.9C 279.485 161.836 275.57 161.784 266 161.784C 256.43 161.784 252.515 161.836 257.3 161.9M248.182 178.2C 248.182 187 248.235 190.543 248.3 186.073C 248.364 181.604 248.364 174.404 248.299 170.073C 248.235 165.743 248.182 169.4 248.182 178.2M69.782 178.2C 69.782 186.78 69.835 190.233 69.9 185.874C 69.964 181.514 69.964 174.494 69.899 170.274C 69.835 166.053 69.782 169.62 69.782 178.2M158.982 178.2C 158.982 186.78 159.035 190.233 159.1 185.874C 159.164 181.514 159.164 174.494 159.099 170.274C 159.035 166.053 158.982 169.62 158.982 178.2M283.782 178.2C 283.782 186.78 283.835 190.233 283.9 185.874C 283.964 181.514 283.964 174.494 283.899 170.274C 283.835 166.053 283.782 169.62 283.782 178.2M365.1 169.482C 365.595 169.578 366.405 169.578 366.9 169.482C 367.395 169.387 366.99 169.309 366 169.309C 365.01 169.309 364.605 169.387 365.1 169.482M373.5 169.482C 373.995 169.578 374.805 169.578 375.3 169.482C 375.795 169.387 375.39 169.309 374.4 169.309C 373.41 169.309 373.005 169.387 373.5 169.482M194.4 193.933C 194.4 194.28 189.912 194.425 176.9 194.496L176.9 194.496L159.4 194.591L176.776 194.7C 193.127 194.802 195.603 194.669 194.673 193.74C 194.523 193.59 194.4 193.677 194.4 193.933M79.3 194.7C 84.085 194.763 91.915 194.763 96.7 194.7C 101.485 194.636 97.57 194.584 88 194.584C 78.43 194.584 74.515 194.636 79.3 194.7M123.7 194.7C 128.485 194.763 136.315 194.763 141.1 194.7C 145.885 194.636 141.97 194.584 132.4 194.584C 122.83 194.584 118.915 194.636 123.7 194.7M212.9 194.7C 217.685 194.763 225.515 194.763 230.3 194.7C 235.085 194.636 231.17 194.584 221.6 194.584C 212.03 194.584 208.115 194.636 212.9 194.7M257.3 194.7C 262.085 194.763 269.915 194.763 274.7 194.7C 279.485 194.636 275.57 194.584 266 194.584C 256.43 194.584 252.515 194.636 257.3 194.7M43.062 202.3C 42.894 202.571 128.259 202.57 252 202.298C 277.41 202.242 240.836 202.152 170.724 202.098C 100.612 202.044 43.164 202.135 43.062 202.3M42.524 208.2C 42.526 209.52 42.601 210.012 42.69 209.293C 42.779 208.574 42.777 207.494 42.686 206.893C 42.595 206.292 42.522 206.88 42.524 208.2M351.7 215.891C 352.525 215.978 353.875 215.978 354.7 215.891C 355.525 215.805 354.85 215.734 353.2 215.734C 351.55 215.734 350.875 215.805 351.7 215.891M42.493 222.4C 42.493 223.17 42.575 223.485 42.676 223.1C 42.776 222.715 42.776 222.085 42.676 221.7C 42.575 221.315 42.493 221.63 42.493 222.4M315.978 274.7L314.6 276.2L316.1 274.822C 317.496 273.538 317.784 273.2 317.478 273.2C 317.412 273.2 316.737 273.875 315.978 274.7M70.8 300.525C 70.8 300.594 71.385 301.179 72.1 301.825L72.1 301.825L73.4 303L72.225 301.7C 71.13 300.488 70.8 300.216 70.8 300.525M150.9 333.087C 151.505 333.178 152.495 333.178 153.1 333.087C 153.705 332.995 153.21 332.92 152 332.92C 150.79 332.92 150.295 332.995 150.9 333.087M174.705 333.083C 175.202 333.179 175.922 333.175 176.305 333.075C 176.687 332.975 176.28 332.896 175.4 332.901C 174.52 332.905 174.207 332.987 174.705 333.083M164.915 333.496C 166.188 333.576 168.168 333.575 169.315 333.494C 170.462 333.414 169.42 333.349 167 333.35C 164.58 333.351 163.642 333.416 164.915 333.496" stroke="none" fill="#559BD1" fill-rule="nonzero" />
        <path d="M221.295 79.898L238.791 80.008L238.902 95.904L239.014 111.8L239.007 95.8L239 79.8L221.4 79.794L203.8 79.787L221.295 79.898zM115.062 121.1C 114.96 121.265 122.762 121.4 132.4 121.4C 142.038 121.4 149.84 121.265 149.738 121.1C 149.636 120.935 141.834 120.8 132.4 120.8C 122.966 120.8 115.164 120.935 115.062 121.1M159.383 121.301C 159.277 121.576 159.238 128.821 159.295 137.401L159.295 137.401L159.4 153L176.8 153.006L194.2 153.013L176.9 152.902L159.6 152.792L159.6 137L159.6 121.208L177.1 121.1L194.6 120.991L177.087 120.896C 163.357 120.821 159.533 120.908 159.383 121.301M221.3 121.098L238.8 121.208L238.8 137L238.8 152.792L221.5 152.902L204.2 153.013L221.6 153.006L239 153L239 137L239 121L221.4 120.994L203.8 120.987L221.3 121.098zM326.4 131C 325.205 132.21 324.349 133.2 324.498 133.2C 324.646 133.2 325.6 132.311 326.617 131.223C 327.703 130.063 328.906 129.179 329.533 129.083L329.533 129.083L330.6 128.92L329.586 128.86C 328.845 128.816 327.989 129.391 326.4 131M333.574 130.397C 334.989 131.069 336.789 132.097 337.574 132.683C 338.614 133.46 338.805 133.523 338.278 132.918C 337.484 132.006 333.581 129.84 332 129.434C 331.45 129.293 332.158 129.726 333.574 130.397M341.18 135.8C 344.151 139.11 344.659 139.595 343.695 138.2C 343.238 137.54 342.001 136.19 340.945 135.2L340.945 135.2L339.025 133.4L341.18 135.8zM322.227 136.2C 321.64 136.97 321.303 137.598 321.48 137.595C 321.656 137.592 322.207 136.962 322.704 136.195C 323.868 134.397 323.6 134.4 322.227 136.2M317.8 144C 317.459 144.66 317.269 145.2 317.379 145.2C 317.489 145.2 317.859 144.66 318.2 144C 318.541 143.34 318.731 142.8 318.621 142.8C 318.511 142.8 318.141 143.34 317.8 144M316.258 147.304C 315.328 149.74 315.48 150.204 316.436 147.847C 316.872 146.773 317.158 145.824 317.072 145.738C 316.986 145.652 316.62 146.357 316.258 147.304M114.903 152.4C 115.082 153.056 149.011 153.549 149.656 152.904C 149.823 152.737 142.197 152.649 132.709 152.708C 119.111 152.794 115.382 152.709 115.098 152.308C 114.827 151.925 114.779 151.947 114.903 152.4M313.822 155.422C 313.672 156.225 313.628 156.962 313.726 157.06C 313.824 157.157 314.027 156.581 314.178 155.778C 314.328 154.975 314.372 154.238 314.274 154.14C 314.176 154.043 313.973 154.619 313.822 155.422M313 160.4C 312.843 161.966 312.8 163.333 312.904 163.437C 313.008 163.542 313.22 162.344 313.375 160.775C 313.53 159.206 313.573 157.839 313.471 157.738C 313.369 157.636 313.157 158.834 313 160.4M354.068 160.8C 354.088 161.839 354.718 163.546 354.732 162.6C 354.738 162.16 354.589 161.44 354.4 161C 354.189 160.51 354.061 160.432 354.068 160.8M70.48 162.48C 69.923 163.037 69.783 193.038 70.332 193.904C 70.584 194.3 74.393 194.386 88.026 194.304L88.026 194.304L105.4 194.2L105.407 178.5L105.414 162.8L105.302 178.404L105.191 194.008L87.895 193.904L70.6 193.8L70.6 178.2L70.6 162.6L88 162.394L105.4 162.187L88.18 162.094C 75.214 162.023 70.841 162.119 70.48 162.48M115.062 162.3C 114.96 162.465 122.762 162.6 132.4 162.6C 142.038 162.6 149.84 162.465 149.738 162.3C 149.636 162.135 141.834 162 132.4 162C 122.966 162 115.164 162.135 115.062 162.3M159.383 162.501C 159.277 162.776 159.238 170.021 159.295 178.601L159.295 178.601L159.4 194.2L176.8 194.206L194.2 194.213L176.9 194.102L159.6 193.992L159.6 178.2L159.6 162.408L177.1 162.3L194.6 162.191L177.087 162.096C 163.357 162.021 159.533 162.108 159.383 162.501M204 162.296C 204 162.463 211.83 162.551 221.4 162.492L221.4 162.492L238.8 162.383L238.8 178.2L238.8 194.017L221.4 193.908C 211.83 193.849 204 193.937 204 194.104C 204 194.272 211.875 194.362 221.5 194.304L221.5 194.304L239 194.2L239 178.2L239 162.2L221.5 162.096C 211.875 162.038 204 162.128 204 162.296M248.667 162.267C 248.52 162.413 248.4 169.703 248.4 178.467L248.4 178.467L248.4 194.4L266 194.4C 275.68 194.4 283.6 194.265 283.6 194.1C 283.6 193.935 275.77 193.849 266.2 193.908L266.2 193.908L248.8 194.017L248.8 178.2L248.8 162.383L266.162 162.492C 275.711 162.551 283.44 162.465 283.338 162.3C 283.109 161.929 249.037 161.897 248.667 162.267M355.228 165.633C 355.244 166.165 355.419 166.96 355.619 167.4C 355.871 167.958 355.907 167.715 355.738 166.6C 355.455 164.743 355.187 164.236 355.228 165.633M312.52 167.2C 312.52 168.41 312.595 168.905 312.687 168.3C 312.778 167.695 312.778 166.705 312.687 166.1C 312.595 165.495 312.52 165.99 312.52 167.2M361 170C 359.337 170.423 360.974 170.442 363 170.023C 364.345 169.745 364.409 169.692 363.4 169.693C 362.74 169.694 361.66 169.832 361 170M377.4 170C 378.06 170.168 379.14 170.306 379.8 170.307C 380.809 170.308 380.745 170.255 379.4 169.977C 377.374 169.558 375.737 169.577 377.4 170M382.6 170.8C 383.04 170.989 383.76 171.138 384.2 171.132C 384.843 171.123 384.804 171.057 384 170.8C 382.632 170.362 381.581 170.362 382.6 170.8M312.888 172.4C 312.878 173.17 313.01 174.7 313.182 175.8C 313.434 177.418 313.497 177.533 313.512 176.4C 313.522 175.63 313.39 174.1 313.218 173C 312.966 171.382 312.903 171.267 312.888 172.4M386.6 171.6C 387.04 171.789 387.67 171.944 388 171.944C 388.378 171.944 388.304 171.817 387.8 171.6C 387.36 171.411 386.73 171.256 386.4 171.256C 386.022 171.256 386.096 171.383 386.6 171.6M390 172.4C 390.33 172.613 390.87 172.788 391.2 172.788C 391.733 172.788 391.733 172.745 391.2 172.4C 390.87 172.187 390.33 172.012 390 172.012C 389.467 172.012 389.467 172.055 390 172.4M397.2 174.746C 398.174 175.326 399.858 175.747 399.4 175.297C 399.18 175.08 398.46 174.788 397.8 174.646C 397.017 174.478 396.808 174.513 397.2 174.746M398.758 176.9C 398.673 178.701 398.876 180.209 399.257 180.6C 399.51 180.86 399.615 180.127 399.557 178.5C 399.474 176.162 398.851 174.915 398.758 176.9M313.687 178.6C 313.691 179.04 313.832 179.94 314 180.6C 314.274 181.678 314.306 181.698 314.313 180.8C 314.317 180.25 314.176 179.35 314 178.8C 313.749 178.016 313.681 177.973 313.687 178.6M314.468 182.4C 314.488 183.439 315.118 185.146 315.132 184.2C 315.138 183.76 314.989 183.04 314.8 182.6C 314.589 182.11 314.461 182.032 314.468 182.4M399.544 184.9C 399.465 185.615 399.503 187.55 399.628 189.2C 399.851 192.13 399.858 192.1 399.928 187.9C 399.999 183.676 399.827 182.337 399.544 184.9M315.618 186.854C 315.608 187.214 315.863 188.114 316.184 188.854C 316.94 190.594 316.958 189.873 316.212 187.8C 315.895 186.92 315.627 186.494 315.618 186.854M114.8 194.1C 114.8 194.265 122.72 194.4 132.4 194.4C 142.08 194.4 150 194.265 150 194.1C 150 193.935 142.08 193.8 132.4 193.8C 122.72 193.8 114.8 193.935 114.8 194.1M316.011 198.62C 314.184 199.909 314.813 199.892 316.714 198.6C 317.523 198.05 318.009 197.609 317.793 197.62C 317.577 197.63 316.775 198.08 316.011 198.62M394.894 201.212C 394.175 201.865 393.737 202.4 393.919 202.4C 394.101 202.4 394.768 201.86 395.4 201.2C 396.87 199.665 396.586 199.672 394.894 201.212M309.2 201.218C 308.762 201.515 308.924 201.552 309.8 201.356C 311.271 201.027 311.59 200.798 310.567 200.806C 310.145 200.809 309.53 200.995 309.2 201.218M302.8 202L300.6 202.27L302.4 202.312C 303.39 202.335 304.92 202.205 305.8 202.023C 307.82 201.605 306.128 201.592 302.8 202M42.747 211.3C 42.653 215.535 42.676 220.89 42.797 223.2C 42.934 225.789 43.05 222.837 43.101 215.5C 43.147 208.955 43.124 203.6 43.05 203.6C 42.977 203.6 42.84 207.065 42.747 211.3M385.6 207.636C 384.936 208.179 384.869 208.315 385.4 208.04C 386.705 207.366 387.428 206.812 387 206.815C 386.78 206.817 386.15 207.186 385.6 207.636M364 214.4C 362.656 214.831 364.108 214.831 365.8 214.4C 366.878 214.126 366.898 214.094 366 214.087C 365.45 214.083 364.55 214.224 364 214.4M357.4 215.2C 356.053 215.441 355.99 215.491 357 215.514C 357.66 215.529 359.01 215.397 360 215.22C 361.615 214.933 361.656 214.901 360.4 214.907C 359.63 214.911 358.28 215.042 357.4 215.2M347.829 220.229C 347.681 220.815 347.638 221.372 347.732 221.466C 347.827 221.56 348.024 221.158 348.171 220.571C 348.319 219.985 348.362 219.428 348.268 219.334C 348.173 219.24 347.976 219.642 347.829 220.229M43.724 233.8C 43.726 235.12 43.801 235.612 43.89 234.893C 43.979 234.174 43.977 233.094 43.886 232.493C 43.795 231.892 43.722 232.48 43.724 233.8M44.272 238.6C 44.399 239.7 44.569 240.675 44.651 240.767C 44.932 241.082 44.72 238.599 44.38 237.6C 44.151 236.926 44.116 237.251 44.272 238.6M340 240.8C 339.551 241.68 339.274 242.4 339.384 242.4C 339.494 242.4 339.951 241.68 340.4 240.8C 340.849 239.92 341.126 239.2 341.016 239.2C 340.906 239.2 340.449 239.92 340 240.8M45.072 243.4C 45.199 244.5 45.369 245.475 45.451 245.567C 45.732 245.882 45.52 243.399 45.18 242.4C 44.951 241.726 44.916 242.051 45.072 243.4M336.553 247.3C 335.176 249.636 335.086 249.835 335.787 249C 336.6 248.032 337.3 246.8 337.038 246.8C 336.933 246.8 336.715 247.025 336.553 247.3M333.4 252.4C 333.059 253.06 332.869 253.6 332.979 253.6C 333.089 253.6 333.459 253.06 333.8 252.4C 334.141 251.74 334.331 251.2 334.221 251.2C 334.111 251.2 333.741 251.74 333.4 252.4M331.929 254.7C 330.888 255.924 329.428 258.154 329.83 257.905C 330.277 257.629 332.932 254 332.687 254C 332.597 254 332.256 254.315 331.929 254.7M49.048 260.2C 49.191 260.86 49.466 261.67 49.659 262C 49.884 262.384 49.918 262.168 49.752 261.4C 49.609 260.74 49.334 259.93 49.141 259.6C 48.916 259.216 48.882 259.432 49.048 260.2M325.2 263.714C 323.99 265.268 322.018 267.634 320.818 268.97C 319.523 270.412 319.25 270.831 320.146 270C 321.871 268.401 327.78 261.241 327.551 261.028C 327.468 260.95 326.41 262.159 325.2 263.714M314.294 275.811C 312.366 277.675 310.93 279.2 311.103 279.2C 311.276 279.2 312.94 277.67 314.8 275.8C 319.161 271.416 318.834 271.423 314.294 275.811M306.8 282.844L304.2 285.274L306.9 282.988C 309.273 280.979 309.874 280.382 309.5 280.407C 309.445 280.41 308.23 281.507 306.8 282.844M301.8 286.844C 298.755 289.303 298.266 289.986 301.125 287.786C 303.334 286.086 304.334 285.167 303.924 285.214C 303.856 285.222 302.9 285.955 301.8 286.844M63.95 291.4C 64.82 292.72 66.098 294.43 66.79 295.2C 67.482 295.97 67.182 295.416 66.124 293.969C 63.045 289.757 62.249 288.817 63.95 291.4M285.3 298.626C 284.365 299.187 283.6 299.74 283.6 299.855C 283.6 300.071 286.299 298.538 286.98 297.936C 287.667 297.328 287.027 297.591 285.3 298.626M74.393 303.7C 76.699 306.065 78.737 308 78.921 308C 79.106 308 79.005 307.775 78.697 307.5C 78.389 307.225 76.351 305.29 74.168 303.2L74.168 303.2L70.2 299.4L74.393 303.7zM278.4 302.836C 277.736 303.379 277.669 303.515 278.2 303.24C 279.505 302.566 280.228 302.012 279.8 302.015C 279.58 302.017 278.95 302.386 278.4 302.836M274.061 305.203C 272.884 305.831 271.809 306.457 271.673 306.594C 270.981 307.286 275.418 305.089 276.18 304.362C 276.757 303.812 276.393 303.956 274.061 305.203M89.6 315.779C 89.6 315.889 90.14 316.259 90.8 316.6C 91.46 316.941 92 317.131 92 317.021C 92 316.911 91.46 316.541 90.8 316.2C 90.14 315.859 89.6 315.669 89.6 315.779M93.2 317.964C 93.75 318.414 94.38 318.783 94.6 318.785C 95.028 318.788 94.305 318.234 93 317.56C 92.469 317.285 92.536 317.421 93.2 317.964M241.2 319.669C 239.99 320.108 238.91 320.557 238.801 320.666C 238.446 321.02 240.954 320.293 242.6 319.564C 244.743 318.616 243.931 318.677 241.2 319.669M236.4 321.218C 235.962 321.515 236.124 321.552 237 321.356C 238.471 321.027 238.79 320.798 237.767 320.806C 237.345 320.809 236.73 320.995 236.4 321.218M100.854 321.787C 101.19 322.123 104 323.216 104 323.011C 104 322.901 103.348 322.538 102.551 322.205C 101.075 321.589 100.518 321.451 100.854 321.787M226 324.418C 225.562 324.715 225.724 324.752 226.6 324.556C 228.071 324.227 228.39 323.998 227.367 324.006C 226.945 324.009 226.33 324.195 226 324.418M111.8 326C 112.901 326.473 113.292 326.473 113 326C 112.864 325.78 112.358 325.613 111.876 325.628C 111.031 325.655 111.029 325.669 111.8 326M220 326.018C 219.562 326.315 219.724 326.352 220.6 326.156C 222.071 325.827 222.39 325.598 221.367 325.606C 220.945 325.609 220.33 325.795 220 326.018M216.4 326.818C 215.962 327.115 216.124 327.152 217 326.956C 218.471 326.627 218.79 326.398 217.767 326.406C 217.345 326.409 216.73 326.595 216.4 326.818M212.8 327.618C 212.362 327.915 212.524 327.952 213.4 327.756C 214.871 327.427 215.19 327.198 214.167 327.206C 213.745 327.209 213.13 327.395 212.8 327.618M120.033 328.144C 120.125 328.223 120.74 328.408 121.4 328.556C 122.276 328.752 122.438 328.715 122 328.418C 121.46 328.053 119.632 327.798 120.033 328.144M209.2 328.418C 208.762 328.715 208.924 328.752 209.8 328.556C 211.271 328.227 211.59 327.998 210.567 328.006C 210.145 328.009 209.53 328.195 209.2 328.418M123.633 328.944C 123.725 329.023 124.34 329.208 125 329.356C 125.876 329.552 126.038 329.515 125.6 329.218C 125.06 328.853 123.232 328.598 123.633 328.944M205.4 329.2C 204.381 329.638 205.432 329.638 206.8 329.2C 207.604 328.943 207.643 328.877 207 328.868C 206.56 328.862 205.84 329.011 205.4 329.2M128.4 330C 129.768 330.438 130.819 330.438 129.8 330C 129.36 329.811 128.64 329.662 128.2 329.668C 127.557 329.677 127.596 329.743 128.4 330M200 330C 198.656 330.431 200.108 330.431 201.8 330C 202.878 329.726 202.898 329.694 202 329.687C 201.45 329.683 200.55 329.824 200 330M132.8 330.8C 133.35 330.976 134.16 331.12 134.6 331.12C 135.233 331.12 135.192 331.054 134.4 330.8C 133.85 330.624 133.04 330.48 132.6 330.48C 131.967 330.48 132.008 330.546 132.8 330.8M194.6 330.8L193.8 331.144L194.6 331.132C 195.04 331.126 195.85 330.976 196.4 330.8L196.4 330.8L197.4 330.48L196.4 330.468C 195.85 330.462 195.04 330.611 194.6 330.8M138.6 331.6C 139.26 331.768 140.25 331.905 140.8 331.905C 141.692 331.905 141.67 331.872 140.6 331.6C 139.94 331.432 138.95 331.295 138.4 331.295C 137.508 331.295 137.53 331.328 138.6 331.6M188.8 331.6C 187.456 332.031 188.908 332.031 190.6 331.6C 191.678 331.326 191.698 331.294 190.8 331.287C 190.25 331.283 189.35 331.424 188.8 331.6M145.8 332.418C 148.547 332.846 150.831 332.812 148.4 332.38C 147.41 332.203 145.97 332.07 145.2 332.083C 144.055 332.103 144.165 332.164 145.8 332.418M178.4 332.4L176.6 332.68L178.2 332.697C 179.08 332.706 180.88 332.579 182.2 332.415L182.2 332.415L184.6 332.118L182.4 332.119C 181.19 332.12 179.39 332.246 178.4 332.4M163.119 333.098C 164.944 333.172 167.824 333.172 169.519 333.097C 171.214 333.022 169.72 332.961 166.2 332.962C 162.68 332.962 161.294 333.024 163.119 333.098" stroke="none" fill="#87B4DC" fill-rule="nonzero" />
        <path d="M203.382 95.6C 203.382 104.29 203.435 107.845 203.5 103.5C 203.564 99.155 203.564 92.045 203.5 87.7C 203.435 83.355 203.382 86.91 203.382 95.6M150.182 137C 150.182 145.8 150.235 149.343 150.3 144.873C 150.364 140.404 150.364 133.204 150.299 128.873C 150.235 124.543 150.182 128.2 150.182 137M203.382 137C 203.382 145.58 203.435 149.033 203.5 144.674C 203.564 140.314 203.564 133.294 203.499 129.074C 203.435 124.853 203.382 128.42 203.382 137M150.182 178.2C 150.182 187 150.235 190.543 150.3 186.073C 150.364 181.604 150.364 174.404 150.299 170.073C 150.235 165.743 150.182 169.4 150.182 178.2M203.382 178.2C 203.382 186.78 203.435 190.233 203.5 185.874C 203.564 181.514 203.564 174.494 203.499 170.274C 203.435 166.053 203.382 169.62 203.382 178.2M42.158 215.8C 42.158 218.88 42.221 220.087 42.297 218.482C 42.373 216.878 42.373 214.358 42.296 212.882C 42.219 211.407 42.157 212.72 42.158 215.8M356.5 215.876C 356.885 215.976 357.515 215.976 357.9 215.876C 358.285 215.775 357.97 215.693 357.2 215.693C 356.43 215.693 356.115 215.775 356.5 215.876M148.1 333.076C 148.485 333.176 149.115 333.176 149.5 333.076C 149.885 332.975 149.57 332.893 148.8 332.893C 148.03 332.893 147.715 332.975 148.1 333.076M177.505 333.083C 178.002 333.179 178.722 333.175 179.105 333.075C 179.487 332.975 179.08 332.896 178.2 332.901C 177.32 332.905 177.007 332.987 177.505 333.083M159.507 333.49C 160.226 333.579 161.306 333.577 161.907 333.486C 162.508 333.395 161.92 333.322 160.6 333.324C 159.28 333.326 158.788 333.401 159.507 333.49" stroke="none" fill="#3B8CCC" fill-rule="nonzero" />
        <path d="M203.793 96L203.8 111.8L221.4 111.806L239 111.813L221.505 111.702L204.009 111.592L203.898 95.896L203.786 80.2L203.793 96zM203.782 137C 203.782 145.8 203.835 149.343 203.9 144.873C 203.964 140.404 203.964 133.204 203.899 128.873C 203.835 124.543 203.782 128.2 203.782 137M114.582 137C 114.582 145.58 114.635 149.033 114.7 144.674C 114.764 140.314 114.764 133.294 114.699 129.074C 114.635 124.853 114.582 128.42 114.582 137M194.582 137C 194.582 145.58 194.635 149.033 194.7 144.674C 194.764 140.314 194.764 133.294 194.699 129.074C 194.635 124.853 194.582 128.42 194.582 137M114.582 178.2C 114.582 186.78 114.635 190.233 114.7 185.874C 114.764 181.514 114.764 174.494 114.699 170.274C 114.635 166.053 114.582 169.62 114.582 178.2M194.582 178.2C 194.582 186.78 194.635 190.233 194.7 185.874C 194.764 181.514 194.764 174.494 194.699 170.274C 194.635 166.053 194.582 169.62 194.582 178.2M203.782 178.2C 203.782 186.78 203.835 190.233 203.9 185.874C 203.964 181.514 203.964 174.494 203.899 170.274C 203.835 166.053 203.782 169.62 203.782 178.2M312.493 164C 312.493 164.77 312.575 165.085 312.676 164.7C 312.776 164.315 312.776 163.685 312.676 163.3C 312.575 162.915 312.493 163.23 312.493 164M312.501 170.6C 312.505 171.48 312.587 171.793 312.683 171.295C 312.779 170.798 312.775 170.078 312.675 169.695C 312.575 169.313 312.496 169.72 312.501 170.6M368.691 169.489C 369.401 169.577 370.661 169.579 371.491 169.492C 372.321 169.405 371.74 169.333 370.2 169.331C 368.66 169.329 367.981 169.4 368.691 169.489M396.581 200.1L395 201.8L396.7 200.219C 398.281 198.748 398.584 198.4 398.281 198.4C 398.216 198.4 397.451 199.165 396.581 200.1M298.705 202.283C 299.202 202.379 299.922 202.375 300.305 202.275C 300.687 202.175 300.28 202.096 299.4 202.101C 298.52 202.105 298.207 202.187 298.705 202.283M42.531 213C 42.533 214.54 42.605 215.121 42.692 214.291C 42.779 213.461 42.777 212.201 42.689 211.491C 42.6 210.781 42.529 211.46 42.531 213M155.511 333.093C 156.451 333.178 157.891 333.177 158.711 333.091C 159.53 333.005 158.76 332.936 157 332.937C 155.24 332.939 154.57 333.009 155.511 333.093" stroke="none" fill="#7CB4DC" fill-rule="nonzero" />
        <path d="M239.382 95.6C 239.382 104.51 239.435 108.155 239.5 103.7C 239.564 99.245 239.564 91.955 239.5 87.5C 239.435 83.045 239.382 86.69 239.382 95.6M158.667 121.067C 158.297 121.437 158.329 152.709 158.7 152.938C 158.865 153.04 159 145.851 159 136.962C 159 128.073 158.985 120.8 158.967 120.8C 158.948 120.8 158.813 120.92 158.667 121.067M114.182 137C 114.182 145.8 114.235 149.343 114.3 144.873C 114.364 140.404 114.364 133.204 114.299 128.873C 114.235 124.543 114.182 128.2 114.182 137M239.382 137C 239.382 145.8 239.435 149.343 239.5 144.873C 239.564 140.404 239.564 133.204 239.499 128.873C 239.435 124.543 239.382 128.2 239.382 137M123.7 153.5C 128.485 153.563 136.315 153.563 141.1 153.5C 145.885 153.436 141.97 153.384 132.4 153.384C 122.83 153.384 118.915 153.436 123.7 153.5M168.327 153.5C 173.237 153.563 181.157 153.563 185.927 153.5C 190.697 153.436 186.68 153.384 177 153.384C 167.32 153.384 163.417 153.436 168.327 153.5M212.727 153.5C 217.637 153.563 225.557 153.563 230.327 153.5C 235.097 153.436 231.08 153.384 221.4 153.384C 211.72 153.384 207.817 153.436 212.727 153.5M158.844 162.147C 158.519 162.539 158.422 167.144 158.5 178.447L158.5 178.447L158.61 194.2L158.705 178.38C 158.775 166.719 158.926 162.434 159.28 162.08C 159.544 161.816 159.656 161.6 159.529 161.6C 159.402 161.6 159.094 161.846 158.844 162.147M114.088 178.276C 114.04 187.118 114.135 194.436 114.3 194.539C 114.573 194.708 114.567 182.787 114.287 168C 114.226 164.81 114.137 169.434 114.088 178.276M239.2 178.48C 239.09 187.434 239.137 194.623 239.305 194.456C 239.472 194.288 239.562 186.962 239.504 178.175L239.504 178.175L239.4 162.2L239.2 178.48zM247.782 178.2C 247.782 186.78 247.835 190.233 247.9 185.874C 247.964 181.514 247.964 174.494 247.899 170.274C 247.835 166.053 247.782 169.62 247.782 178.2M42.124 208.2C 42.126 209.52 42.201 210.012 42.29 209.293C 42.379 208.574 42.377 207.494 42.286 206.893C 42.195 206.292 42.122 206.88 42.124 208.2M358.9 215.876C 359.285 215.976 359.915 215.976 360.3 215.876C 360.685 215.775 360.37 215.693 359.6 215.693C 358.83 215.693 358.515 215.775 358.9 215.876M42.093 222.4C 42.093 223.17 42.175 223.485 42.276 223.1C 42.376 222.715 42.376 222.085 42.276 221.7C 42.175 221.315 42.093 221.63 42.093 222.4M145.7 333.076C 146.085 333.176 146.715 333.176 147.1 333.076C 147.485 332.975 147.17 332.893 146.4 332.893C 145.63 332.893 145.315 332.975 145.7 333.076M180.3 333.082C 180.795 333.178 181.605 333.178 182.1 333.082C 182.595 332.987 182.19 332.909 181.2 332.909C 180.21 332.909 179.805 332.987 180.3 333.082M155.3 333.487C 155.905 333.578 156.895 333.578 157.5 333.487C 158.105 333.395 157.61 333.32 156.4 333.32C 155.19 333.32 154.695 333.395 155.3 333.487" stroke="none" fill="#2F84CC" fill-rule="nonzero" />
        <path d="M203.28 79.28C 202.737 79.823 202.562 111.405 203.1 111.738C 203.265 111.84 203.4 104.606 203.4 95.662L203.4 95.662L203.4 79.4L221.462 79.4C 231.396 79.4 239.44 79.265 239.338 79.1C 239.005 78.561 203.823 78.737 203.28 79.28M221.6 112L203.8 112.213L221.476 112.306C 232.931 112.367 239.24 112.259 239.4 112C 239.536 111.78 239.592 111.642 239.524 111.694C 239.456 111.745 231.39 111.883 221.6 112M114.267 120.267C 114.12 120.413 114.003 120.728 114.006 120.967C 114.01 121.218 114.148 121.187 114.335 120.892C 114.589 120.491 118.412 120.406 132.491 120.492C 142.299 120.551 150.24 120.465 150.138 120.3C 149.909 119.929 114.637 119.897 114.267 120.267M158.749 120.7C 158.263 121.319 158.273 121.343 158.836 120.904C 159.315 120.531 163.853 120.382 177.236 120.3L177.236 120.3L195 120.191L177.149 120.096C 160.557 120.007 159.259 120.049 158.749 120.7M203.216 120.77C 202.404 122.288 202.669 152.603 203.5 153.232C 204.096 153.682 204.125 153.678 203.7 153.201C 203.174 152.61 202.932 122.364 203.443 121.033C 203.737 120.265 238.958 120.046 239.337 120.81C 239.449 121.036 239.494 120.99 239.437 120.71C 239.238 119.727 203.743 119.786 203.216 120.77M194.982 136.8C 194.982 145.27 195.035 148.735 195.099 144.5C 195.164 140.265 195.164 133.335 195.099 129.1C 195.035 124.865 194.982 128.33 194.982 136.8M312.901 157C 312.905 157.88 312.987 158.193 313.083 157.695C 313.179 157.198 313.175 156.478 313.075 156.095C 312.975 155.713 312.896 156.12 312.901 157M69.467 161.867C 69.097 162.237 69.129 194.309 69.5 194.538C 69.665 194.64 69.8 187.271 69.8 178.162C 69.8 169.053 69.785 161.6 69.767 161.6C 69.748 161.6 69.613 161.72 69.467 161.867M203.043 162.233C 202.689 163.154 202.744 194.319 203.1 194.538C 203.265 194.64 203.4 187.271 203.4 178.162C 203.4 169.053 203.374 161.6 203.343 161.6C 203.311 161.6 203.176 161.885 203.043 162.233M105.783 178.2C 105.783 187.22 105.835 190.967 105.899 186.527C 105.964 182.087 105.964 174.707 105.9 170.127C 105.835 165.547 105.783 169.18 105.783 178.2M284 178.48C 283.89 187.434 283.937 194.623 284.105 194.456C 284.272 194.288 284.362 186.962 284.304 178.175L284.304 178.175L284.2 162.2L284 178.48zM194.982 178.2C 194.982 186.78 195.035 190.233 195.1 185.874C 195.164 181.514 195.164 174.494 195.099 170.274C 195.035 166.053 194.982 169.62 194.982 178.2M312.093 167.2C 312.093 167.97 312.175 168.285 312.276 167.9C 312.376 167.515 312.376 166.885 312.276 166.5C 312.175 166.115 312.093 166.43 312.093 167.2M369.1 168.682C 369.595 168.778 370.405 168.778 370.9 168.682C 371.395 168.587 370.99 168.509 370 168.509C 369.01 168.509 368.605 168.587 369.1 168.682M373.3 169.076C 373.685 169.176 374.315 169.176 374.7 169.076C 375.085 168.975 374.77 168.893 374 168.893C 373.23 168.893 372.915 168.975 373.3 169.076M358.8 169.618C 358.362 169.915 358.524 169.952 359.4 169.756C 360.871 169.427 361.19 169.198 360.167 169.206C 359.745 169.209 359.13 169.395 358.8 169.618M312.901 178.2C 312.905 179.08 312.987 179.393 313.083 178.895C 313.179 178.398 313.175 177.678 313.075 177.295C 312.975 176.913 312.896 177.32 312.901 178.2M397.586 199.9L395.4 202.2L397.7 200.014C 398.965 198.811 400 197.776 400 197.714C 400 197.417 399.618 197.763 397.586 199.9M300.3 201.489C 301.015 201.578 302.185 201.578 302.9 201.489C 303.615 201.401 303.03 201.328 301.6 201.328C 300.17 201.328 299.585 201.401 300.3 201.489M106.9 201.9C 142.045 201.956 199.555 201.956 234.7 201.9C 269.845 201.844 241.09 201.798 170.8 201.798C 100.51 201.798 71.755 201.844 106.9 201.9M42.267 203.867C 42.12 204.013 42.015 204.598 42.034 205.167C 42.068 206.181 42.075 206.179 42.421 205.02C 42.785 203.803 42.731 203.402 42.267 203.867M350.096 216.332C 349.82 216.508 350.72 216.582 352.096 216.497C 355.49 216.287 355.92 216.069 353 216.038C 351.68 216.024 350.373 216.156 350.096 216.332M42.006 224.833C 42.009 225.585 42.192 226.47 42.412 226.8C 42.691 227.219 42.733 226.858 42.55 225.6C 42.225 223.359 41.998 223.04 42.006 224.833M42.828 233.876C 42.813 234.358 42.98 234.864 43.2 235C 43.673 235.292 43.673 234.901 43.2 233.8C 42.869 233.029 42.855 233.031 42.828 233.876M319.178 271.9L317.8 273.4L319.3 272.022C 320.696 270.738 320.984 270.4 320.678 270.4C 320.612 270.4 319.937 271.075 319.178 271.9M311.935 279.008C 310.69 280.214 309.796 281.2 309.949 281.2C 310.102 281.2 311.205 280.21 312.4 279C 315.209 276.156 314.876 276.162 311.935 279.008M279.8 302.8C 279.14 303.237 278.78 303.592 279 303.588C 279.401 303.582 281.576 302.023 281.2 302.012C 281.09 302.008 280.46 302.363 279.8 302.8M75.638 306.1C 75.732 306.155 76.527 306.83 77.404 307.6L77.404 307.6L79 309L77.622 307.5C 76.863 306.675 76.068 306 75.855 306C 75.641 306 75.544 306.045 75.638 306.1M202.6 330.4C 201.829 330.731 201.831 330.745 202.676 330.772C 203.158 330.787 203.664 330.62 203.8 330.4C 204.092 329.927 203.701 329.927 202.6 330.4M136.4 331.982C 136.73 332.205 137.345 332.391 137.767 332.394C 138.79 332.402 138.471 332.173 137 331.844C 136.124 331.648 135.962 331.685 136.4 331.982M142.4 332.805C 142.73 333.016 143.525 333.191 144.167 333.194C 145.714 333.202 145.377 332.971 143.4 332.668C 142.31 332.501 141.991 332.545 142.4 332.805M184.4 332.8L182.6 333.08L184.2 333.112C 185.08 333.129 186.16 332.989 186.6 332.8C 187.527 332.402 186.961 332.402 184.4 332.8M151.9 333.482C 152.395 333.578 153.205 333.578 153.7 333.482C 154.195 333.387 153.79 333.309 152.8 333.309C 151.81 333.309 151.405 333.387 151.9 333.482M160.3 333.899C 162.775 333.969 166.825 333.969 169.3 333.899C 171.775 333.828 169.75 333.771 164.8 333.771C 159.85 333.771 157.825 333.828 160.3 333.899" stroke="none" fill="#147BC4" fill-rule="nonzero" />
	</g>
</g>
</svg>