<?xml version="1.0" standalone="no"?>
<!DOCTYPE svg PUBLIC "-//W3C//DTD SVG 1.0//EN" "http://www.w3.org/TR/2001/REC-SVG-20010904/DTD/svg10.dtd">
<svg xmlns="http://www.w3.org/2000/svg" xmlns:xlink="http://www.w3.org/1999/xlink" id="body_1" width="614" height="461">

<g transform="matrix(1.8007812 0 0 1.8007812 40.484386 18.007812)">
    <path d="M94.92 42.186L77.963 44.94L62.492996 51.723L49.353996 59.988L36.85 75.246L29.786999 82.728004L22.954998 85.246L21.148998 80.83L24.307999 76.271L25.017998 69.841L27.132998 69.927L29.444998 72.036L28.820997 65.486L26.257998 63.766L26.337997 61.27L20.266998 64.704L14.769999 71.19L13.622998 76.986L15.974998 81.628L18.166998 89.513L22.625998 91.624L27.315998 91.394L31.763998 88.81L28.796997 103.856995L31.763996 120.599L28.497995 128.329L17.8 139.856L19.702 146.742L24.77 154.72101L34.325 161.44402L39.393 162.13902L45.028 162.32903L41.512 176.76202L54.440002 182.05902L70.546005 184.17902L76.05601 180.57701L76.48001 170.82701L82.627014 160.654L83.05102 152.60101L97.88602 153.66101L111.66102 152.39001L97.88602 160.65402L100.21802 170.61603L108.90602 184.17903L117.38302 187.78104L124.165016 185.02603L126.919014 179.51604L141.11902 168.70804L143.87402 171.03804L166.12703 171.88704L170.57703 168.28503L171.00003 161.92503L169.51804 159.17203L168.45703 142.00504L161.04004 127.17004L162.31204 120.60004L166.76204 122.93204L179.26604 134.58704L185.41203 135.01204L192.19304 132.25604L198.97604 127.170044L202.36604 116.15004L222.28804 117.42104L234.36804 112.76004L244.11604 103.64604L251.11005 90.50604L252.80405 75.03604L251.32104 57.02104L247.50705 40.916042L243.69205 35.830044L238.39505 34.134045L229.06905 44.306046L220.59204 47.273045L213.17404 34.981045L205.75705 28.200045L201.73006 25.657045L185.62306 12.305045L172.69606 5.311045L159.76807 4.252045L144.72206 6.795045L131.58206 11.668045L122.46906 19.086044L115.26406 27.776043L107.84706 29.896042L94.91806 42.187042" stroke="none" fill="#FFFF00" fill-rule="nonzero" />
    <path d="M45.747 80.435C 31.225002 97.37399 34.451004 117.916 38.476 138.045C 38.476562 138.04688 32.03125 121.765625 32.032 121.765L32.032 121.765L29.657001 106.838C 29.883001 101.75 30.108002 96.661995 30.336002 91.575L30.336002 91.575L36.44 76.99L45.598 63.421997L59.844 51.552L75.446 45.107L93.763 42.732998L76.803 62.065998C 63.185 66.481995 55.156002 69.458 45.746002 80.435" stroke="none" fill="#FFFFCC" fill-rule="nonzero" />
    <path d="M114.114 28.825C 104.019 38.675003 98.504 46.105003 92.078 57.638C 87.483 65.888 82.328 73.835 77.495 81.97C 75.052 86.088 74.821 89.54 74.090004 94.289L74.090004 94.289L66.967 85.809006C 68.099 82.41701 69.229004 79.02501 70.359 75.634L70.359 75.634L81.892 54.944L106.313995 30.861C 108.913994 30.182 111.51399 29.505001 114.114 28.825M163.975 4.405C 155.888 7.436 142.46 8.435 141.528 17.715C 140.865 24.307 142.025 27.619 145.998 34.593002C 136.185 24.438004 133.758 26.009003 114.793 29.165003L114.793 29.165003L122.933 17.633003L137.179 8.813004L155.496 4.7430034L163.976 4.4050035" stroke="none" fill="#FFFFCC" fill-rule="nonzero" />
    <path d="M186.288 129.945C 188.98 131.60701 188.922 132.811 188.472 133.95001C 190.595 133.1 192.719 132.25002 194.842 131.40302L194.842 131.40302L198.97 125.860016L202.033 117.96402L198.11801 115.02102L181.00801 117.20502C 180.58601 118.35702 180.16 119.51002 179.73502 120.66402C 179.85602 122.30102 179.97902 123.94002 180.09901 125.57702C 180.64502 126.54902 181.19202 127.51902 181.73901 128.49002C 182.58801 128.91402 183.43602 129.34003 184.28601 129.76402C 184.95502 129.82402 185.62102 129.88602 186.28801 129.94502M184.696 100.686C 176.119 103.160995 176.186 103.842995 173.65399 112.352C 176.997 106.988 179.47198 104.281 184.69598 100.686M241.72 37.015C 240.196 37.72 238.71 38.058 237.758 39.453C 235.706 42.454998 233.948 44.98 230.555 47.086998C 228.846 48.149 227.079 48.836998 225.267 49.401997C 223.76399 49.868996 222.86 49.450996 221.581 50.371998C 222.34099 50.502 223.09999 50.635998 223.859 50.768997L223.859 50.768997L228.879 50.768997L235.068 46.947998L238.708 43.125L241.71999 37.015zM105.108 56.047C 101.735 65.28 98.786 73.194 93.676 81.552C 100.224 74.496 104.195 68.498 107.946 60.521004C 109.404 57.421005 109.679 53.785004 113.738 55.137005C 113.92 58.233006 114.574 61.325005 114.756 64.41901C 116.949 48.701004 123.132996 42.126007 137.508 36.02501L137.508 36.02501L125.312996 37.48201L113.84499 40.03001L108.202995 48.22001L105.107994 56.04701zM132.957 55.683C 136.057 70.272995 140.521 84.277 142.46 99.099C 143.71901 108.729996 143.856 113.357 139.011 121.667C 133.715 121.324 130.427 121.921 125.304 123.6C 104.911 130.285 93.214005 140.11499 79.474 120.309L79.474 120.309L92.634 126.511C 95.761 125.896 98.888 125.283005 102.014 124.666C 107.536 121.452 113.057 118.236 118.579 115.020996L118.579 115.020996L131.501 112.47099L135.688 95L132.593 71.882996C 132.473 68.243 132.351 64.603 132.229 60.962997C 132.473 59.203 132.716 57.442997 132.957 55.684M168.086 145.963C 166.373 157.817 172.031 164.189 169.688 167.463C 169.02501 168.38899 168.126 170.007 167.123 170.451C 163.538 172.034 158.60901 170.154 158.258 171.08101L158.258 171.08101L146.427 171.08101L141.695 169.07901L148.975 160.52402C 151.341 155.36801 153.70801 150.21002 156.07301 145.05202L156.07301 145.05202L160.62302 129.40002L162.99002 129.40002L168.08601 145.96303" stroke="none" fill="#CCCC00" fill-rule="nonzero" />
    <path d="M148.201 111.502C 149.162 116.884 150.83101 118.163 153.363 123.373C 151.67801 131.873 148.97101 141.98 145.71301 149.48C 144.33902 152.64299 143.23102 154.387 140.807 156.831C 136.71701 160.961 132.58401 164.55699 127.94701 168.137C 124.60701 170.70999 122.27701 169.42 118.158005 168.83699C 116.406006 172.012 115.923004 173.777 112.698006 175.38899C 107.740005 177.86699 103.30301 172.52599 99.411 169.38199C 102.221 173.77199 105.031006 178.159 107.839005 182.54799C 109.781006 184.368 111.72301 186.18698 113.664 188.008L113.664 188.008L118.579 188.737L125.130005 184.731C 126.284004 182.548 127.436005 180.363 128.589 178.18001C 131.016 176.36 133.444 174.54001 135.869 172.718C 138.843 170.171 141.81601 167.62201 144.789 165.074L144.789 165.074L150.431 157.065L155.526 147.601C 157.712 141.049 159.896 134.496 162.081 127.944C 162.262 125.456 162.443 122.969 162.62599 120.48C 159.896 119.268005 157.16599 118.053 154.435 116.840004C 152.433 114.96001 150.203 113.383 148.201 111.50201M82.903 149.421C 92.089 149.421 101.791 148.91101 110.206 145.052C 112.586 141.482 114.937004 138.564 117.85 135.407C 115.199 140.415 114.367 143.245 113.664 148.875L113.664 148.875L110.934 152.88C 104.017 153.061 97.101 153.24301 90.184 153.42601C 87.937996 153.182 85.694 152.94002 83.449 152.69801C 83.206 152.45302 82.964 152.21101 82.721 151.96901C 82.783 151.119 82.843 150.27 82.903 149.421M81.63 143.051L80.916 136.58699C 79.347 146.03499 79.724 152.36699 75.376 160.82999C 72.128 164.59198 68.129 168.01599 63.549 169.84898C 63.936 172.16899 64.052 173.61899 63.827 175.31998C 63.02 181.43997 50.78 178.73598 45.744 178.49197L45.744 178.49197L69.979996 184.73198L75.439995 182.54797C 76.048 179.02997 76.65499 175.50897 77.260994 171.99097L77.260994 171.99097L82.356995 162.52696L83.267 156.70197L81.629 143.05197zM67.977 89.72C 67.724 94.315 67.426994 96.23 69.452995 100.286C 72.02799 105.442 75.189995 110.288 77.98799 115.384L77.98799 115.384L78.897995 105.191C 75.258995 100.033005 71.618 94.877 67.978 89.721M30.614 124.421C 29.825 126.097 29.039 127.774994 28.25 129.452C 30.418 136.75699 32.347 141.384 36.475998 147.765C 35.755997 150.35 35.218 151.481 33.564 153.588C 29.929998 153.03 26.703 152.868 23.02 152.88C 27.085001 156.033 31.150002 159.19 35.215 162.345C 37.217 161.979 39.22 161.615 41.222 161.252L41.222 161.252L47.229 155.246L38.674 141.95801C 35.986 136.113 33.3 130.266 30.613998 124.421005M241.746 34.599C 244.222 45.736 247.416 56.015 247.119 67.423004C 246.755 81.41801 244.028 99.097 231.06 107.536C 216.538 116.98801 199.48999 112.517006 183.557 108.467L183.557 108.467L203.033 116.476006C 209.1 116.78001 215.168 117.08401 221.235 117.38601C 225.36101 116.17301 229.487 114.96001 233.61101 113.74601C 236.82701 111.07601 240.04301 108.40801 243.259 105.73701L243.259 105.73701L250.539 90.449005L253.269 72.79301C 252.54199 67.02801 251.812 61.265007 251.08499 55.501007L251.08499 55.501007L247.081 38.392006C 245.303 37.127007 243.525 35.862007 241.74599 34.599007M25.028 67.795C 18.436 72.086 15.846 73.97 16.569 81.923L16.569 81.923L18.539 89.06799L21.331999 90.95799L24.782 92.107994L31.024 90.629C 32.093 87.315994 33.16 84.004 34.227 80.690994L34.227 80.690994L25.357002 85.045L23.304003 85.045C 22.043945 83.109375 22.265137 83.44824 21.004004 81.513L21.004004 81.513L23.797003 77.406L25.275003 69.603C 25.905003 69.794 26.535004 69.987 27.164003 70.176994C 27.931004 70.78099 28.697002 71.382996 29.464003 71.98399L29.464003 71.98399L29.135002 67.87799L27.575003 65.24999C 27.055002 64.80999 26.535004 64.37399 26.015003 63.934994L26.015003 63.934994L25.028004 67.79499zM172.938 5.13C 178.79001 10.564 185.97101 15.286 190.651 21.925999C 192.462 24.495998 194.474 25.810999 190.621 29.441998C 194.692 28.278997 196.20601 28.404997 199.466 28.799997C 205.396 29.517998 210.95401 37.947998 211.308 43.988C 211.23799 44.552998 209.661 45.836 205.076 47.101997C 204.98601 47.277996 202.488 46.76 202.55 46.929996C 203.02701 48.232998 203.66301 48.432995 204.636 49.041996C 204.84601 50.491997 204.982 52.728996 205.97 54.314995C 208.855 54.262997 211.675 54.577995 214.5 55.136993C 215.45 56.713993 215.308 58.290993 215.228 59.86899L215.228 59.86899L218.504 59.323994C 218.202 56.835995 217.898 54.348995 217.595 51.860992C 218.565 50.222992 219.535 48.583992 220.507 46.94799L220.507 46.94799L216.32 37.48199C 213.651 34.93399 210.98201 32.38499 208.311 29.83699L208.311 29.83699L207.541 29.79899C 207.54297 29.800781 198.53906 24.269531 198.534 24.27099L198.534 24.27099L183.844 12.252991L172.93799 5.1299906zM182.795 49.977C 182.486 50.517002 182.02 51.379 181.423 51.977C 183.86 54.282 185.063 55.826 185.932 59.087C 183.17601 60.454002 180.42201 61.823 177.667 63.189003L177.667 63.189003L170.673 69.894005C 167.604 68.242004 166.84001 66.97401 165.35501 63.824005C 163.62502 64.283005 161.988 64.72401 160.56001 64.199005C 161.46602 64.20601 162.02202 63.980003 162.92801 63.420006L162.92801 63.420006L167.378 58.797005C 169.998 56.813004 172.61801 54.827003 175.238 52.844006L175.238 52.844006L180.38301 51.167007C 181.03801 50.898006 182.14001 50.24701 182.79501 49.97701" stroke="none" fill="#CCCC00" fill-rule="nonzero" />
    <path d="M190.4 58.199C 181.63399 62.919003 173.23999 67.665 168.758 76.628006C 168.758 65.25101 180.181 60.243004 190.399 58.198006M167.018 35.818C 160.509 40.256 155.90701 49.212 156.485 57.940002C 154.365 50.382004 155.116 43.241 161.625 38.021004C 162.725 37.488003 163.822 36.953003 164.921 36.420002C 165.62001 36.22 166.31801 36.02 167.018 35.818" stroke="none" fill="#CCCC00" fill-rule="nonzero" />
    <path d="M254.605 56.424C 253.425 48.981 251.468 41.756 248.752 36.560997C 248.422 35.926 247.92 35.281998 247.298 34.667995C 245.949 33.337994 243.95201 32.077995 241.889 31.368996C 239.703 30.616995 237.39801 30.463995 235.56801 31.419996C 235.093 31.669996 234.651 31.989996 234.25801 32.389996C 233.07301 33.589996 232.07301 35.049995 231.072 36.510994C 229.959 38.138992 228.839 39.774994 227.49901 40.917995C 225.94601 42.245995 224.003 43.051994 222.17001 43.787994C 221.39838 41.91649 220.47076 40.113102 219.39702 38.396996C 218.14401 36.398994 216.71703 34.527996 215.14702 32.656998C 213.99858 31.278917 212.69646 30.036516 211.26602 28.953999C 209.91202 27.920998 208.52602 27.050999 206.91202 26.040998C 202.58502 23.330997 198.90002 20.098999 195.14201 16.800999C 193.43402 15.302999 191.70901 13.790998 190.02202 12.399999C 181.07202 5.0199986 172.72401 1.440999 163.79602 0.8799982C 154.92902 0.32199818 145.56602 2.7579982 134.51102 7.4119983C 129.17502 9.656998 125.21301 12.310999 121.76102 15.501999C 118.46402 18.551998 115.665016 22.064 112.58801 26.164999C 110.79801 26.292 109.21201 26.557 107.59301 27.204998C 105.80901 27.918999 104.01301 29.074999 101.86101 30.973999C 100.36317 32.2956 98.89615 33.65159 97.461006 35.041C 96.14608 36.316727 94.85491 37.615555 93.587006 38.938C 83.523 40.555 75.323006 42.34 67.979004 45.184C 60.469 48.093998 53.849003 52.095997 47.050003 58.123997C 44.372894 60.489014 41.93238 63.109047 39.763004 65.947C 37.695004 68.656 35.925003 71.504 34.372005 74.506996C 33.012005 76.01199 31.649006 77.531 30.174006 78.85999C 28.736006 80.15499 27.203005 81.245995 25.485004 81.90699L25.485004 81.90699L25.486004 81.90799C 24.487003 82.29299 24.074003 82.51799 24.029003 82.50299C 23.979004 82.47499 23.951004 82.32499 23.881002 82.04899C 26.348003 79.69499 26.736002 76.235985 26.964003 72.80199C 27.260002 73.15598 27.544003 73.59199 27.839003 74.04799C 28.165003 74.55099 28.499002 75.06999 28.899002 75.57499L28.899002 75.57499L30.574001 77.68799L31.162 75.05199C 31.656 72.84299 32.026 69.901985 31.45 67.35199C 31.078001 65.69699 30.310001 64.22199 28.972 63.17699C 29.1 62.84299 29.221 62.534992 29.34 62.23099C 29.76 61.15599 30.193 60.05299 30.56 59.01099L30.56 59.01099L31.286 56.94599L29.126 57.319992C 26.251999 57.819992 20.076 61.213993 15.726 65.72699C 14.111 67.40399 12.722 69.25699 11.811 71.20099C 10.863 73.22399 10.438 75.34099 10.806 77.45899C 11.125999 79.31099 12.0529995 81.12899 13.736 82.842995C 14.043 84.079994 14.326 85.15299 14.629 86.120995C 14.976 87.22199 15.349 88.20699 15.816 89.176994C 17.082 91.80899 19.1 93.41699 21.436 94.16699C 23.313002 94.76999 25.389 94.799995 27.425001 94.35399C 27.01162 96.77939 26.762386 99.23001 26.679 101.68899C 26.550001 105.123985 26.676 108.91899 27.054 113.32299C 27.137001 114.28999 27.262001 115.35299 27.423 116.50899C 27.563 117.49499 27.729 118.46299 27.908 119.42399C 27.528002 120.46199 27.145 121.50199 26.763 122.539986L26.763 122.539986L24.986 127.37698L21.076 131.25198C 19.859001 132.45499 18.642 133.66098 17.426 134.86598C 17.326 134.96599 16.915 135.35999 16.543001 135.71898C 14.078001 138.09097 13.590001 138.56198 14.290001 142.73598C 14.738434 145.40718 15.610405 147.98967 16.873001 150.38597C 18.083 152.69096 19.707 154.93497 21.791 157.02496C 24.391 159.63097 28.653 162.86896 33.115 164.56496C 35.665 165.53296 38.293003 166.00696 40.760002 165.61096C 40.634003 165.99097 40.512 166.36896 40.373 166.75096C 39.982567 167.83386 39.548866 168.90077 39.073 169.94896C 36.046 176.58395 39.153004 180.04897 43.989002 182.25397C 46.404003 183.35397 49.275 184.10197 51.942 184.79797C 52.488003 184.93797 53.034 185.08197 53.722 185.26797C 56.882 186.12198 62.343002 187.69098 67.331 188.00598C 72.775 188.34998 77.685 187.22598 79.001 182.33998C 79.520996 180.40298 79.824 178.91998 79.947 177.46698C 80.06 176.11897 80.017 174.75697 79.859 173.07098C 81.411 169.63098 82.069 168.66399 83.204 167.00499C 83.426 166.67699 83.695 166.28499 83.776 166.161C 84.993004 164.358 85.563 163.078 85.770004 161.637C 85.97 160.24599 85.8 158.86 85.549 156.74199C 85.525 156.54099 85.489006 156.247 85.436005 155.85799C 88.57065 156.26498 91.727135 156.48137 94.888 156.50598C 96.474 156.51598 98.059 156.46898 99.644 156.38599C 99.239 156.59299 98.841995 156.79898 98.408 157.02199L98.408 157.02199L97.818 157.32498C 93.614 159.48698 93.439 163.58199 94.755 167.79498C 95.940994 171.59398 98.382996 175.47298 99.91499 177.83199C 103.134995 182.79498 106.20799 186.99599 109.93399 189.27899C 113.83899 191.672 118.30099 191.954 124.05999 188.83699C 126.98999 187.25099 127.91399 185.63399 129.15799 183.454C 129.53899 182.789 129.95898 182.064 130.42699 181.349C 131.637 180.547 134.65 178.062 137.60698 175.617C 138.61398 174.785 139.61998 173.957 140.75497 173.032C 141.53697 173.607 142.48097 174.006 143.62198 174.278C 145.10397 174.633 146.86897 174.793 148.98398 174.945C 150.56697 175.061 155.72897 175.057 159.06398 175.056C 160.09398 175.056 160.94897 175.056 161.46198 175.059C 164.90497 175.08 167.68398 174.899 169.78398 173.709C 172.02199 172.44 173.34898 170.193 173.63898 166.163C 173.76498 164.373 173.78897 163.269 173.53998 162.142C 173.30798 161.086 172.85498 160.129 172.07698 158.729C 172.01953 156.62477 171.99219 155.60826 171.93698 153.504C 171.88898 151.657 171.83698 149.808 171.78899 147.961C 171.72998 145.783 171.48999 144.013 171.04799 142.272C 170.60999 140.543 169.984 138.88 169.146 136.884C 168.62476 135.62643 168.13211 134.35776 167.668 133.078L167.668 133.078L166.46 133.52L166.64601 133.45201L167.66801 133.07802L167.66801 133.07301C 166.94801 131.13101 166.23802 129.24002 165.24402 127.21701C 165.30801 126.82701 165.37302 126.40701 165.43602 125.95901L165.43602 125.95901L167.35602 127.809006L170.18602 130.53601C 172.34402 132.615 174.31702 134.50601 176.63503 135.87201C 179.03203 137.287 181.72702 138.108 185.21703 137.94202C 188.87103 137.77002 192.78102 136.23102 196.00003 133.85602C 199.11403 131.55702 201.61304 128.45702 202.65604 125.02602L202.65604 125.02602L203.56004 122.05002L204.28204 119.67502C 209.40604 120.543015 214.90604 120.82302 220.21805 120.26702C 225.34406 119.72802 230.29605 118.42302 234.56705 116.14502C 240.84505 112.79502 245.55205 107.86102 248.93504 102.00202L248.93504 102.00202L248.93704 102.00202C 252.71704 95.454025 254.83405 87.73802 255.63805 79.79802C 256.28305 73.43002 255.93105 64.77302 254.60504 56.42402L254.60504 56.42402L254.605 56.424zM188.21799 109.942C 185.26498 108.948 183.21199 107.498 180.61798 105.863C 181.32397 109.046 181.64497 112.412 180.70499 115.589C 179.21298 120.631 176.803 128.879 183.64798 130.401C 186.25298 130.979 187.43498 130.896 191.11198 128.998C 188.13599 129.672 186.63498 129.508 184.58899 129.128C 182.73499 128.787 181.75198 127.61001 181.234 126.22101C 181.88199 126.68801 182.93799 126.94201 184.74399 127.37701C 189.818 128.60101 194.65298 126.157005 195.59898 122.63901C 196.14899 120.58301 196.05598 119.503006 197.22499 116.701004C 198.275 117.026 199.35999 117.32101 200.47398 117.591L200.47398 117.591L198.58798 123.740005C 196.95798 129.06001 190.60298 133.35 184.99298 133.251C 179.80698 133.16 176.51797 129.91101 172.93698 126.726006C 170.47098 124.53001 168.09698 122.43101 165.74498 120.351006C 159.28998 118.314 154.11598 115.934006 148.12498 111.49901C 152.38898 116.50901 155.27998 119.283005 161.22598 121.77601C 160.36198 130.59601 157.29599 137.02802 154.68298 145.46901C 153.49898 149.285 144.16199 164.58002 141.57399 166.07101C 139.72899 167.13402 128.17099 176.86801 125.997986 178.15302C 124.37798 180.30301 122.956985 183.27501 120.52199 184.56102C 113.10399 188.48402 108.33699 180.97302 104.344986 174.63002C 102.527985 171.74002 97.47999 163.41602 101.87999 161.08401C 106.03999 158.88101 108.36999 157.30702 112.61499 154.51901C 113.23899 155.656 114.30799 156.75401 115.00499 157.889L115.00499 157.889L114.54299 154.16301C 114.26299 151.91301 114.274994 150.08601 114.452995 147.822C 114.627 145.63 114.798996 143.438 114.97099 141.24501C 114.33199 143.47401 113.05599 145.70201 112.41899 147.92902C 112.163994 148.82101 111.95299 149.54102 111.83099 150.20901C 102.30699 152.15501 92.85199 152.27602 83.326 150.57701C 82.717995 147.05002 81.978 143.37502 81.356995 140.74C 81.16899 143.69 81.28999 151.848 81.274994 156.416C 81.26299 159.954 81.11499 161.166 79.288994 164.176C 77.58099 166.99399 76.857994 167.63399 74.465 172.396C 74.66499 175.401 74.668 177.386 73.869995 180.23799C 72.54299 184.97899 59.149994 181.30598 55.617996 180.338C 51.267 179.148 42.272995 177.37799 44.534996 171.578C 46.524998 166.474 47.786995 161.09201 48.759995 153.95C 40.788994 142.467 33.376995 126.731995 31.953995 112.78999C 30.848995 101.965 31.511995 95.301994 33.853996 88.67999C 37.565994 78.187996 42.759995 69.105995 51.091995 61.79299C 62.332 51.93 72.838 47.97 89.29 45.465C 85.334 49.895 81.42 54.577 77.154 59.598C 72.835 64.681 70.27 69.815 67.527 75.376C 63.739 83.055 63.821 85.977 68.842 92.719C 73.16901 98.529 75.505005 101.144005 77.395004 106.829C 75.83501 110.045006 75.267006 112.764 74.743004 117.155C 80.041 122.948 83.979004 126.916 89.123 128.138C 94.17 129.338 98.383 129.106 102.899 126.798004C 112.926 121.672005 122.204 115.052 133.515 114.778C 138.748 101.914 138.219 91.164 135.707 78.716995C 133.991 70.215996 133.302 62.166996 132.769 53.500996C 130.648 62.425995 130.249 70.273994 131.823 79.16499C 133.721 89.87799 135.196 101.715 129.918 111.131C 119.688995 111.913994 110.923996 118.13699 101.706 122.910995C 98 124.83099 94.142 125.018 90.041 123.892C 86.234 122.846 83.665 120.326996 79.564 115.597C 79.499 110.848 80.571 108.657 82.75201 104.355C 86.256004 97.448006 90.12301 91.019005 94.367004 84.224C 89.171005 90.496 84.247 95.737 80.157005 102.044C 78.593 97.59 76.357 95.327995 72.65401 90.312C 69.03701 85.412994 68.659004 83.269 71.364006 77.599C 74.08301 71.902 76.38901 66.895 81.018005 61.897C 89.01501 53.26 96.342 43.648 105.088005 35.142C 109.837006 30.523998 111.76501 30.682999 118.064 29.728998C 123.758 28.864998 129.31601 27.776 135.12201 26.427998C 129.507 26.950998 124.07901 27.142998 118.61201 27.277998L118.61201 27.277998L118.44201 27.282997C 123.82201 20.413998 126.94301 16.585999 135.67801 12.789997C 157.186 3.449997 170.852 2.4399967 187.74701 16.640997C 192.126 20.322996 195.95001 23.895996 200.389 27.070997C 198.779 27.208998 197.39201 27.497997 195.557 28.217997C 197.79001 27.791996 200.369 28.213997 202.68701 28.637997C 203.337 29.059998 204.00702 29.471996 204.69002 29.874996C 207.82501 31.721996 209.60402 32.741997 211.72401 35.694996C 213.96402 38.815994 215.83202 41.934998 217.47702 45.372997C 216.39902 44.986996 215.49402 44.662 214.68802 44.422997C 212.86252 43.58609 210.73944 43.717445 209.03102 44.772995L209.03102 44.772995L208.90102 44.832996C 207.16702 45.677998 204.48102 46.639996 202.68402 46.931995C 203.60103 47.247997 205.62903 47.366997 206.58502 46.987995C 206.71303 46.937996 206.84302 46.897995 206.97702 46.866997C 206.53352 47.62146 206.26047 48.463825 206.17702 49.334995C 206.06506 50.485195 206.28766 51.643253 206.81802 52.669994L206.81802 52.669994L206.82303 52.680996C 206.98503 53.062996 207.21103 53.413998 207.45903 53.667995C 206.63803 53.970997 205.79903 54.316994 204.93404 54.691994C 208.94304 54.081993 212.55704 53.976994 216.46803 54.491993C 216.72603 55.724995 216.98604 57.031994 217.22803 58.360992L217.22803 58.360992L215.77403 58.47499C 215.735 58.47788 215.69598 58.481213 215.65703 58.48499C 213.80603 57.00599 211.74403 57.25499 208.92703 57.897987C 200.35904 59.850986 202.37204 64.65799 198.43204 71.901985C 202.52403 66.89999 202.22003 61.665985 208.88904 60.085983C 210.44304 59.718983 211.50104 59.257984 212.55304 59.415985C 210.66003 60.367985 209.02304 61.946983 208.37305 63.779984C 206.54305 68.94898 207.67905 73.303986 205.66805 78.13198C 208.15805 73.81598 208.30905 69.60398 210.53705 65.06198C 211.33705 63.43198 214.30505 60.821983 216.12704 60.781982L216.12704 60.781982L217.62704 60.74898C 218.06705 63.620983 218.33405 66.47398 218.16405 68.83998C 217.85304 73.15798 216.73105 79.56698 216.06004 82.01998C 218.31604 79.11898 219.34404 72.97598 220.33504 68.64998C 221.36703 64.14798 221.10603 58.74498 220.20303 53.90698C 218.96303 47.269978 225.79903 48.34998 229.76703 45.221977C 232.68404 42.921978 234.69302 39.250977 237.36703 36.64898C 240.02003 34.068977 244.19704 37.859978 245.24004 40.380978C 249.76404 51.327976 251.82504 68.54898 250.63104 79.58398C 249.28905 91.96597 243.30904 105.48298 232.38805 111.57898C 218.46605 119.348976 202.05104 114.60198 188.21805 109.94198zM168.43599 164.936C 167.982 170.045 166.27899 170.382 161.79298 170.304C 159.75499 170.268 151.63898 170.231 149.57898 170.054C 146.66898 169.803 145.03497 169.543 144.14598 168.879C 148.71799 165.523 156.48598 151.66699 158.00098 146.896C 159.60298 141.856 161.35597 137.458 162.65997 132.8C 163.25998 134.74701 163.73297 136.67601 164.60597 138.744C 166.06297 142.2 166.77597 144.335 166.87997 148.042L166.87997 148.042L167.20998 159.77501C 168.46298 161.96701 168.65797 162.43501 168.43597 164.93501zM30.843 126.234C 33.746002 136.27701 38.692 146.146 44.175 154.443L44.175 154.443L44.175 154.588C 43.829998 156.015 43.433 157.403 42.6 158.51799C 38.68 163.762 28.711998 156.06499 25.825998 153.12099C 22.671999 149.89899 20.560999 146.08598 20.057999 142.50798C 19.692 139.89998 20.047998 139.83598 21.867998 137.98997L21.867998 137.98997L29.229998 130.53697L30.842999 126.23397zM25.298 63.074C 24.554 64.671 24.026001 65.882 23.667 67.128C 22.104 72.526 24.374 77.343994 19.473 81.256996C 21.776 85.903 21.67 87.756996 27.027 85.60999C 29.093 84.77999 30.797 83.619995 32.319 82.245995C 31.582237 84.15993 30.904922 86.09616 30.288 88.051994C 30.182 88.381996 30.081 88.715 29.984 89.04499C 26.153 90.67099 21.113998 91.70399 19.185999 87.67799C 18.249998 85.72299 17.720999 83.80499 17.037998 81.33499C 10.728998 74.79899 20.159998 66.16899 25.297998 63.07399zM28.399 69.998C 27.62 69.218 26.997 68.691 25.99 68.805C 26.074999 68.145 26.188 67.508 26.347 66.91C 26.427 66.602005 26.513 66.3 26.605 65.997C 27.911 66.758 28.255 68.137 28.399 69.997zM217.577 45.584C 217.815 46.086 218.049 46.597 218.27899 47.114C 218.08899 47.253998 217.90799 47.400997 217.739 47.556C 217.42825 46.83058 216.97961 46.1724 216.418 45.618C 216.794 45.604 217.18 45.592 217.578 45.584zM35.433 75.253L35.432 75.252L35.432 75.253zM83.93201 154.361L83.934006 154.361L83.93201 154.361zM140.79501 171.33699L140.794 171.33699L140.79501 171.33699zM163.90501 127.40999L163.90701 127.40999L163.906 127.41099zM25.95 83.11L25.949001 83.11L25.906 83L25.949 83.111zM247.804 101.348L247.834 101.366L247.804 101.348zM3.688 81.538C 4.692 70.171005 6.902 65.263 14.978 56.708C 4.848 63.846 2.32 67.09 3.688 81.537" stroke="none" fill="#000000" fill-rule="nonzero" />
    <path d="M1.075 72.253C 2.19 67.137 3.23 65.206 6.385 61.006996C 1.266 64.582 0.6 66.05 1.074 72.253M119.925 0.934C 113.856 2.397 112.699005 3.519 110.879005 9.468C 113.783005 5.1120005 115.455 3.6950006 119.925 0.934" stroke="none" fill="#000000" fill-rule="nonzero" />
    <path d="M129.495 0.068C 117.45799 3.0180001 113.921 5.1159997 109.923 19.067001C 115.005 8.849001 118.853 5.087002 129.495 0.06700134M155.419 50.924C 156.70201 45.239998 158.98201 39.763 167.809 35.525C 156.10901 38.455 153.91501 43.370003 155.419 50.925003M229.867 51.317C 236.796 48.847 240.136 43.276 241.795 36.722C 239.083 42.215 234.898 46.809 229.213 49.623C 226.162 51.133 224.213 50.606003 220.806 50.283C 224.271 51.278 226.466 52.529 229.867 51.317M182.665 56.887C 181.77643 55.02382 180.19168 53.58414 178.252 52.878002C 179.952 51.971 181.621 51.018 182.923 49.833C 179.108 51.599 174.667 51.168 171.393 53.379C 168.51001 55.327003 164.53 61.499 161.6 64.116005C 163.722 63.292004 165.767 61.867004 167.65001 60.366005C 167.67116 63.27137 169.29593 65.92725 171.87302 67.269005C 170.78976 68.68779 169.92734 70.26226 169.31502 71.939C 174.89401 65.327 182.98302 60.333004 190.58902 58.198C 188.46301 58.168003 185.94601 58.565002 183.38202 59.408C 183.28633 58.53336 183.04393 57.68109 182.66502 56.887C 174.367 108.561 173.995 110.688995 173.724 112.402C 174.449 110.464 175.321 108.212 176.164 106.364C 177.058 104.408 177.561 104.224 179.45801 103.192C 180.80301 102.46 183.24501 101.454 184.59001 100.722C 183.20601 100.955 180.72601 101.464 179.34201 101.697C 175.64601 102.321 175.21101 103.209 174.63802 106.849M111.5 40.746C 107.21 44.986 103.043 59.536 101.712 65.358C 103.809 60.522003 109.057 46.994003 113.083 43.553C 114.195 42.602 114.972 42.018 115.807 41.593002C 112.925 46.426003 113.137 47.628002 114.148 54.103004C 115.007 47.520004 117.283005 44.977005 121.018005 40.066006C 125.11201 39.039005 128.944 37.808006 133.14401 36.170006C 128.41167 36.705017 123.680374 37.195984 118.93901 37.644005C 114.96101 38.021004 114.32001 37.957005 111.49901 40.746006" stroke="none" fill="#000000" fill-rule="nonzero" />
    <path d="M169.94 65.514C 169.15985 63.873093 169.85616 61.910378 171.496 61.128C 172.36496 60.716194 173.37018 60.703262 174.24944 61.09257C 175.1287 61.48188 175.79482 62.23483 176.074 63.155C 174.50801 64.318 173.073 65.686 171.869 67.271996C 171.059 66.946 170.341 66.354 169.93901 65.51399M206.573 51.342C 206.705 49.987 207.86 48.988 209.215 49.119C 210.57217 49.25285 211.56612 50.458176 211.439 51.815998C 211.41092 52.09569 211.33551 52.36858 211.21599 52.622997C 209.97598 52.836 208.736 53.197998 207.458 53.667995C 206.924 53.120995 206.49799 52.122997 206.573 51.341995" stroke="none" fill="#FFFFCC" fill-rule="nonzero" />
</g>
</svg>