<?xml version="1.0" standalone="no"?>
<!DOCTYPE svg PUBLIC "-//W3C//DTD SVG 1.0//EN" "http://www.w3.org/TR/2001/REC-SVG-20010904/DTD/svg10.dtd">
<svg xmlns="http://www.w3.org/2000/svg" xmlns:xlink="http://www.w3.org/1999/xlink" id="body_1" width="614" height="461">

<g transform="matrix(0.9003906 0 0 0.9003906 76.500015 9.003906)">
	<g>
        <path d="M45.6 200L45.6 240.4L52.8 240.4C 56.76 240.4 60.04 240.355 60.089 240.3C 60.138 240.245 60.273 232.37 60.389 222.8L60.389 222.8L60.6 205.4L79.6 205.4L98.6 205.4L98.8 222.8L99 240.2L106.3 240.309L113.6 240.418L113.6 200L113.6 159.582L106.3 159.691L99 159.8L98.8 176.2L98.6 192.6L79.6 192.6L60.6 192.6L60.389 176.2C 60.273 167.18 60.138 159.755 60.089 159.7C 60.04 159.645 56.76 159.6 52.8 159.6L52.8 159.6L45.6 159.6L45.6 200zM122.09 166.298L122.2 173L133.8 173.2L145.4 173.4L145.502 206.9L145.605 240.4L152.8 240.4L159.995 240.4L160.098 206.9L160.2 173.4L172.2 173.2L184.2 173L184.2 166.4L184.2 159.8L153.09 159.698L121.981 159.595L122.09 166.298zM192.987 160.094C 192.881 160.372 192.84 178.51 192.897 200.4L192.897 200.4L193 240.2L200.334 240.309L207.668 240.418L207.424 211.509C 207.289 195.609 207.084 180.395 206.966 177.7C 206.731 172.3 207.331 170.996 208.346 174.7C 208.633 175.745 209.02 176.96 209.207 177.4C 209.394 177.84 209.761 178.92 210.023 179.8C 210.284 180.68 210.656 181.713 210.849 182.095C 211.042 182.477 211.2 183.064 211.2 183.4C 211.2 183.736 211.375 184.323 211.588 184.705C 211.801 185.087 212.772 187.75 213.746 190.622C 214.719 193.495 216.255 197.647 217.158 199.85C 218.061 202.052 218.8 203.979 218.8 204.132C 218.8 204.284 219.139 205.172 219.554 206.104C 219.969 207.037 220.717 208.88 221.216 210.2C 221.716 211.52 222.277 212.771 222.462 212.98C 222.648 213.189 222.8 213.596 222.8 213.884C 222.8 214.173 223.178 215.262 223.64 216.304C 224.675 218.641 224.312 217.74 229.205 230.1L229.205 230.1L233.284 240.4L239.998 240.4L246.712 240.4L248.322 236.3C 249.208 234.045 251.851 227.25 254.197 221.2C 256.543 215.15 258.628 209.795 258.831 209.3C 259.034 208.805 259.356 207.995 259.546 207.5C 259.737 207.005 260.121 206.06 260.4 205.4C 260.679 204.74 261.046 203.84 261.216 203.4C 264.858 193.968 267.448 186.69 269.403 180.4C 269.915 178.75 270.668 176.334 271.074 175.031C 272.425 170.706 272.89 171.607 272.636 178.056C 272.512 181.215 272.302 196.535 272.169 212.1L272.169 212.1L271.928 240.4L279.366 240.4L286.804 240.4L286.702 200.1L286.6 159.8L274.371 159.694L262.141 159.589L261.671 160.594C 261.412 161.147 261.02 162.05 260.8 162.6C 260.58 163.15 260.238 164.005 260.04 164.5C 259.843 164.995 259.464 166.03 259.2 166.8C 258.936 167.57 258.533 168.65 258.306 169.2C 258.079 169.75 257.737 170.605 257.546 171.1C 257.356 171.595 257.038 172.405 256.84 172.9C 256.643 173.395 256.264 174.43 256 175.2C 255.736 175.97 255.333 177.05 255.106 177.6C 254.56 178.922 254.236 179.769 253.271 182.4C 252.827 183.61 251.718 186.551 250.806 188.936C 248.468 195.052 246.19 201.471 244.538 206.6C 243.759 209.02 242.959 211.313 242.761 211.695C 242.562 212.077 242.4 212.664 242.4 213C 242.4 213.336 242.235 213.923 242.033 214.305C 241.832 214.687 241.365 216.035 240.996 217.3C 239.954 220.874 239.613 220.341 236.005 209.5C 232.652 199.429 231.962 197.484 230.038 192.7C 229.839 192.205 229.102 190.27 228.4 188.4C 227.698 186.53 226.961 184.595 226.762 184.1C 226.563 183.605 226.237 182.795 226.037 182.3C 225.376 180.662 220.899 169.077 219.119 164.4L219.119 164.4L217.369 159.8L205.274 159.694C 195.814 159.611 193.137 159.698 192.987 160.094M301.843 160.233C 301.525 161.06 301.525 238.94 301.843 239.767C 302.061 240.335 304.76 240.4 328.243 240.4L328.243 240.4L354.4 240.4L354.4 233.604L354.4 226.808L335.5 226.704L316.6 226.6L316.498 193.1L316.395 159.6L309.241 159.6C 303.085 159.6 302.052 159.688 301.843 160.233" stroke="none" fill="#FCF9FA" fill-rule="nonzero" />
        <path d="M179.003 0.275C 177.025 0.362 175.234 0.606 175.023 0.817C 174.812 1.028 173.427 1.2 171.944 1.2C 170.461 1.2 169.136 1.38 169 1.6C 168.864 1.82 167.773 2 166.576 2C 165.379 2 164.4 2.18 164.4 2.4C 164.4 2.62 163.511 2.8 162.424 2.8C 161.337 2.8 160.336 2.98 160.2 3.2C 160.064 3.42 159.243 3.6 158.376 3.6C 157.509 3.6 156.8 3.78 156.8 4C 156.8 4.22 156.001 4.4 155.024 4.4C 154.047 4.4 153.136 4.58 153 4.8C 152.864 5.02 152.144 5.2 151.4 5.2C 150.656 5.2 149.936 5.38 149.8 5.6C 149.664 5.82 149.034 6 148.4 6C 147.766 6 147.136 6.18 147 6.4C 146.864 6.62 146.234 6.8 145.6 6.8C 144.966 6.8 144.336 6.98 144.2 7.2C 144.064 7.42 143.434 7.6 142.8 7.6C 142.166 7.6 141.536 7.78 141.4 8C 141.264 8.22 140.623 8.4 139.976 8.4C 139.329 8.4 138.8 8.58 138.8 8.8C 138.8 9.02 138.26 9.2 137.6 9.2C 136.94 9.2 136.4 9.356 136.4 9.546C 136.4 9.736 135.594 10.002 134.609 10.137C 133.624 10.272 132.454 10.566 132.009 10.791C 131.564 11.016 130.842 11.38 130.405 11.6C 129.968 11.82 129.42 12 129.186 12C 128.952 12 128.016 12.36 127.106 12.8C 126.195 13.24 125.124 13.6 124.725 13.6C 124.326 13.6 124 13.747 124 13.928C 124 14.108 123.1 14.5 122 14.8C 120.9 15.1 120 15.492 120 15.672C 120 15.853 119.64 16 119.2 16C 118.76 16 118.4 16.18 118.4 16.4C 118.4 16.62 118.04 16.8 117.6 16.8C 117.16 16.8 116.8 16.98 116.8 17.2C 116.8 17.42 116.528 17.6 116.195 17.6C 115.862 17.6 115.277 17.768 114.895 17.974C 114.513 18.179 113.615 18.583 112.9 18.871C 112.185 19.16 111.6 19.531 111.6 19.698C 111.6 19.864 111.24 20 110.8 20C 110.36 20 110 20.18 110 20.4C 110 20.62 109.655 20.8 109.233 20.8C 108.812 20.8 108.407 20.935 108.333 21.1C 108.213 21.37 106.111 22.578 103.703 23.76C 103.21 24.002 102.805 24.335 102.803 24.5C 102.801 24.665 102.44 24.8 102 24.8C 101.56 24.8 101.2 24.98 101.2 25.2C 101.2 25.42 100.906 25.6 100.547 25.6C 100.188 25.6 99.603 25.936 99.247 26.346C 98.891 26.757 98.033 27.217 97.341 27.369C 96.649 27.521 95.766 27.995 95.379 28.423C 94.993 28.85 94.434 29.2 94.138 29.2C 93.842 29.2 93.6 29.38 93.6 29.6C 93.6 29.82 93.364 30 93.075 30C 92.787 30 92.164 30.36 91.692 30.8C 91.22 31.24 90.596 31.6 90.305 31.6C 90.014 31.6 89.517 31.96 89.2 32.4C 88.883 32.84 88.343 33.2 88 33.2C 87.657 33.2 87.117 33.56 86.8 34C 86.483 34.44 86.038 34.8 85.812 34.801C 85.585 34.801 84.77 35.341 84 36C 83.23 36.659 82.415 37.199 82.188 37.199C 81.962 37.2 81.517 37.56 81.2 38C 80.883 38.44 80.42 38.8 80.171 38.8C 79.59 38.8 77.2 41.074 77.2 41.627C 77.2 41.858 77.038 41.947 76.841 41.825C 76.643 41.703 75.902 42.12 75.195 42.752C 73.177 44.555 72.896 44.763 72.721 44.587C 72.63 44.497 71.363 45.57 69.905 46.972C 68.447 48.374 67.177 49.443 67.082 49.349C 66.988 49.255 65.401 50.708 63.556 52.579C 59.327 56.865 56.865 59.327 52.579 63.556C 50.708 65.401 49.255 66.988 49.349 67.082C 49.443 67.177 48.374 68.447 46.972 69.905C 45.57 71.363 44.497 72.63 44.587 72.721C 44.759 72.892 44.532 73.196 42.702 75.249C 42.097 75.927 41.703 76.643 41.825 76.841C 41.947 77.038 41.858 77.2 41.627 77.2C 41.074 77.2 38.8 79.59 38.8 80.171C 38.8 80.42 38.44 80.883 38 81.2C 37.56 81.517 37.2 81.962 37.199 82.188C 37.199 82.415 36.659 83.23 36 84C 35.341 84.77 34.801 85.585 34.801 85.812C 34.8 86.038 34.44 86.483 34 86.8C 33.56 87.117 33.2 87.657 33.2 88C 33.2 88.343 32.84 88.883 32.4 89.2C 31.96 89.517 31.6 90.014 31.6 90.305C 31.6 90.596 31.24 91.22 30.8 91.692C 30.36 92.164 30 92.787 30 93.075C 30 93.364 29.82 93.6 29.6 93.6C 29.38 93.6 29.2 93.842 29.2 94.138C 29.2 94.434 28.85 94.993 28.423 95.379C 27.995 95.766 27.521 96.649 27.369 97.341C 27.217 98.033 26.757 98.891 26.346 99.247C 25.936 99.603 25.6 100.188 25.6 100.547C 25.6 100.906 25.42 101.2 25.2 101.2C 24.98 101.2 24.8 101.56 24.8 102C 24.8 102.44 24.665 102.801 24.5 102.803C 24.335 102.805 24.002 103.21 23.76 103.703C 22.578 106.111 21.37 108.213 21.1 108.333C 20.935 108.407 20.8 108.812 20.8 109.233C 20.8 109.655 20.62 110 20.4 110C 20.18 110 20 110.36 20 110.8C 20 111.24 19.864 111.6 19.698 111.6C 19.531 111.6 19.16 112.185 18.871 112.9C 18.583 113.615 18.179 114.513 17.974 114.895C 17.768 115.277 17.6 115.862 17.6 116.195C 17.6 116.528 17.42 116.8 17.2 116.8C 16.98 116.8 16.8 117.16 16.8 117.6C 16.8 118.04 16.62 118.4 16.4 118.4C 16.18 118.4 16 118.76 16 119.2C 16 119.64 15.853 120 15.672 120C 15.492 120 15.1 120.9 14.8 122C 14.5 123.1 14.108 124 13.928 124C 13.747 124 13.6 124.326 13.6 124.725C 13.6 125.124 13.24 126.195 12.8 127.106C 12.36 128.016 12 128.952 12 129.186C 12 129.42 11.82 129.968 11.6 130.405C 11.38 130.842 11.016 131.564 10.791 132.009C 10.566 132.454 10.272 133.624 10.137 134.609C 10.002 135.594 9.736 136.4 9.546 136.4C 9.356 136.4 9.2 136.94 9.2 137.6C 9.2 138.26 9.02 138.8 8.8 138.8C 8.58 138.8 8.4 139.329 8.4 139.976C 8.4 140.623 8.22 141.264 8 141.4C 7.78 141.536 7.6 142.166 7.6 142.8C 7.6 143.434 7.42 144.064 7.2 144.2C 6.98 144.336 6.8 144.966 6.8 145.6C 6.8 146.234 6.62 146.864 6.4 147C 6.18 147.136 6 147.766 6 148.4C 6 149.034 5.82 149.664 5.6 149.8C 5.38 149.936 5.2 150.656 5.2 151.4C 5.2 152.144 5.02 152.864 4.8 153C 4.58 153.136 4.4 154.047 4.4 155.024C 4.4 156.001 4.22 156.8 4 156.8C 3.78 156.8 3.6 157.509 3.6 158.376C 3.6 159.243 3.42 160.064 3.2 160.2C 2.98 160.336 2.8 161.337 2.8 162.424C 2.8 163.511 2.62 164.4 2.4 164.4C 2.18 164.4 2 165.379 2 166.576C 2 167.773 1.82 168.864 1.6 169C 1.38 169.136 1.2 170.461 1.2 171.944C 1.2 173.567 1.001 174.839 0.7 175.14C -0.029 175.869 -0.029 224.131 0.7 224.86C 1.001 225.161 1.2 226.433 1.2 228.056C 1.2 229.539 1.38 230.864 1.6 231C 1.82 231.136 2 232.227 2 233.424C 2 234.621 2.18 235.6 2.4 235.6C 2.62 235.6 2.8 236.59 2.8 237.8C 2.8 239.01 2.98 240 3.2 240C 3.42 240 3.6 240.72 3.6 241.6C 3.6 242.48 3.78 243.2 4 243.2C 4.22 243.2 4.4 243.999 4.4 244.976C 4.4 245.953 4.58 246.864 4.8 247C 5.02 247.136 5.2 247.957 5.2 248.824C 5.2 249.691 5.38 250.4 5.6 250.4C 5.82 250.4 6 250.929 6 251.576C 6 252.223 6.18 252.864 6.4 253C 6.62 253.136 6.8 253.867 6.8 254.624C 6.8 255.381 6.98 256 7.2 256C 7.42 256 7.6 256.529 7.6 257.176C 7.6 257.823 7.78 258.464 8 258.6C 8.22 258.736 8.4 259.377 8.4 260.024C 8.4 260.671 8.58 261.2 8.8 261.2C 9.02 261.2 9.2 261.74 9.2 262.4C 9.2 263.06 9.356 263.6 9.546 263.6C 9.736 263.6 10.003 264.412 10.139 265.405C 10.275 266.398 10.749 267.961 11.193 268.88C 11.637 269.799 12 270.753 12 271C 12 271.247 12.36 272.195 12.8 273.106C 13.24 274.016 13.6 275.04 13.6 275.381C 13.6 275.721 13.747 276 13.928 276C 14.108 276 14.5 276.9 14.8 278C 15.1 279.1 15.492 280 15.672 280C 15.853 280 16 280.36 16 280.8C 16 281.24 16.18 281.6 16.4 281.6C 16.62 281.6 16.8 281.96 16.8 282.4C 16.8 282.84 16.98 283.2 17.2 283.2C 17.42 283.2 17.6 283.472 17.6 283.805C 17.6 284.138 17.76 284.723 17.956 285.105C 18.152 285.487 18.737 286.7 19.256 287.8C 19.775 288.9 20.335 289.86 20.5 289.933C 20.665 290.007 20.8 290.412 20.8 290.833C 20.8 291.255 20.98 291.6 21.2 291.6C 21.42 291.6 21.6 291.945 21.6 292.367C 21.6 292.788 21.735 293.193 21.9 293.267C 22.276 293.434 23.575 295.564 23.871 296.5C 23.993 296.885 24.252 297.2 24.447 297.2C 24.641 297.2 24.8 297.56 24.8 298C 24.8 298.44 24.98 298.8 25.2 298.8C 25.42 298.8 25.6 299.094 25.6 299.453C 25.6 299.812 25.931 300.397 26.336 300.753C 26.741 301.109 27.2 301.919 27.357 302.553C 27.645 303.717 30.666 308.487 31.272 308.733C 31.453 308.807 31.6 309.172 31.6 309.545C 31.6 309.918 31.96 310.483 32.4 310.8C 32.84 311.117 33.2 311.657 33.2 312C 33.2 312.343 33.56 312.883 34 313.2C 34.44 313.517 34.8 313.962 34.801 314.188C 34.801 314.415 35.341 315.23 36 316C 36.659 316.77 37.199 317.585 37.199 317.812C 37.2 318.038 37.56 318.483 38 318.8C 38.44 319.117 38.8 319.572 38.8 319.81C 38.8 320.049 39.385 320.902 40.1 321.706C 40.815 322.51 41.94 323.823 42.6 324.624C 43.26 325.425 44.016 326.311 44.281 326.593C 44.545 326.874 44.678 327.189 44.575 327.292C 44.472 327.394 45.544 328.663 46.956 330.11C 48.369 331.558 49.445 332.822 49.347 332.919C 49.25 333.016 51.062 334.964 53.373 337.248C 58.027 341.846 58.639 342.457 63.758 347.615C 65.715 349.587 67.482 351.2 67.684 351.2C 67.886 351.2 68.923 352.094 69.988 353.187C 71.052 354.28 72.151 355.225 72.43 355.287C 72.708 355.349 73.647 356.075 74.516 356.9C 75.385 357.725 76.232 358.4 76.398 358.4C 76.564 358.4 77.387 359.03 78.228 359.8C 79.069 360.57 79.951 361.2 80.19 361.2C 80.428 361.2 80.883 361.56 81.2 362C 81.517 362.44 81.962 362.8 82.188 362.801C 82.415 362.801 83.23 363.341 84 364C 84.77 364.659 85.585 365.199 85.812 365.199C 86.038 365.2 86.483 365.56 86.8 366C 87.117 366.44 87.657 366.8 88 366.8C 88.343 366.8 88.883 367.16 89.2 367.6C 89.517 368.04 90.097 368.4 90.488 368.4C 90.88 368.4 91.2 368.55 91.2 368.732C 91.2 368.915 91.695 369.32 92.3 369.632C 92.905 369.945 93.723 370.491 94.118 370.846C 94.512 371.202 95.682 371.919 96.718 372.441C 97.753 372.962 98.69 373.502 98.8 373.639C 99.159 374.087 101.546 375.2 102.147 375.2C 102.469 375.2 102.793 375.335 102.867 375.5C 103.034 375.876 105.164 377.175 106.1 377.471C 106.485 377.593 106.8 377.852 106.8 378.047C 106.8 378.241 107.16 378.4 107.6 378.4C 108.04 378.4 108.4 378.58 108.4 378.8C 108.4 379.02 108.76 379.2 109.2 379.2C 109.64 379.2 110 379.38 110 379.6C 110 379.82 110.36 380 110.8 380C 111.24 380 111.6 380.136 111.6 380.302C 111.6 380.469 112.185 380.84 112.9 381.129C 113.615 381.417 114.513 381.821 114.895 382.026C 115.277 382.232 115.862 382.4 116.195 382.4C 116.528 382.4 116.8 382.58 116.8 382.8C 116.8 383.02 117.16 383.2 117.6 383.2C 118.04 383.2 118.4 383.38 118.4 383.6C 118.4 383.82 118.76 384 119.2 384C 119.64 384 120 384.18 120 384.4C 120 384.62 120.349 384.8 120.776 384.8C 121.203 384.8 121.664 384.98 121.8 385.2C 121.936 385.42 122.487 385.6 123.024 385.6C 123.561 385.6 124 385.78 124 386C 124 386.22 124.279 386.4 124.619 386.4C 124.96 386.4 125.984 386.76 126.894 387.2C 127.805 387.64 128.861 388 129.242 388C 129.622 388 129.993 388.14 130.067 388.312C 130.254 388.75 139.033 391.6 140.196 391.6C 140.722 391.6 141.264 391.78 141.4 392C 141.536 392.22 142.166 392.4 142.8 392.4C 143.434 392.4 144.064 392.58 144.2 392.8C 144.336 393.02 144.966 393.2 145.6 393.2C 146.234 393.2 146.864 393.38 147 393.6C 147.136 393.82 147.777 394 148.424 394C 149.071 394 149.6 394.18 149.6 394.4C 149.6 394.62 150.309 394.8 151.176 394.8C 152.043 394.8 152.864 394.98 153 395.2C 153.136 395.42 154.047 395.6 155.024 395.6C 156.001 395.6 156.8 395.78 156.8 396C 156.8 396.22 157.52 396.4 158.4 396.4C 159.28 396.4 160 396.58 160 396.8C 160 397.02 160.99 397.2 162.2 397.2C 163.41 397.2 164.4 397.38 164.4 397.6C 164.4 397.82 165.379 398 166.576 398C 167.773 398 168.864 398.18 169 398.4C 169.136 398.62 170.461 398.8 171.944 398.8C 173.567 398.8 174.839 398.999 175.14 399.3C 175.871 400.031 224.857 400.031 225.1 399.3C 225.212 398.965 226.171 398.8 228.01 398.8C 229.518 398.8 230.864 398.62 231 398.4C 231.136 398.18 232.227 398 233.424 398C 234.621 398 235.6 397.82 235.6 397.6C 235.6 397.38 236.59 397.2 237.8 397.2C 239.01 397.2 240 397.02 240 396.8C 240 396.58 240.72 396.4 241.6 396.4C 242.48 396.4 243.2 396.22 243.2 396C 243.2 395.78 243.999 395.6 244.976 395.6C 245.953 395.6 246.864 395.42 247 395.2C 247.136 394.98 247.957 394.8 248.824 394.8C 249.691 394.8 250.4 394.62 250.4 394.4C 250.4 394.18 250.929 394 251.576 394C 252.223 394 252.864 393.82 253 393.6C 253.136 393.38 253.867 393.2 254.624 393.2C 255.381 393.2 256 393.02 256 392.8C 256 392.58 256.63 392.4 257.4 392.4C 258.17 392.4 258.8 392.22 258.8 392C 258.8 391.78 259.241 391.6 259.78 391.6C 260.96 391.6 269.744 388.755 269.933 388.312C 270.007 388.14 270.414 388 270.839 388C 271.263 388 271.968 387.82 272.405 387.6C 272.842 387.38 273.558 387.02 273.995 386.8C 274.432 386.58 275.062 386.4 275.395 386.4C 275.728 386.4 276 386.22 276 386C 276 385.78 276.439 385.6 276.976 385.6C 277.513 385.6 278.064 385.42 278.2 385.2C 278.336 384.98 278.797 384.8 279.224 384.8C 279.651 384.8 280 384.62 280 384.4C 280 384.18 280.36 384 280.8 384C 281.24 384 281.6 383.82 281.6 383.6C 281.6 383.38 281.96 383.2 282.4 383.2C 282.84 383.2 283.2 383.02 283.2 382.8C 283.2 382.58 283.472 382.4 283.805 382.4C 284.138 382.4 284.723 382.24 285.105 382.044C 285.487 381.848 286.7 381.263 287.8 380.744C 288.9 380.225 289.86 379.665 289.933 379.5C 290.007 379.335 290.412 379.2 290.833 379.2C 291.255 379.2 291.6 379.02 291.6 378.8C 291.6 378.58 291.945 378.4 292.367 378.4C 292.788 378.4 293.193 378.265 293.267 378.1C 293.434 377.724 295.564 376.425 296.5 376.129C 296.885 376.007 297.2 375.748 297.2 375.553C 297.2 375.359 297.479 375.2 297.82 375.2C 298.442 375.2 300.825 374.102 301.2 373.644C 301.31 373.509 301.94 373.134 302.6 372.81C 304.261 371.995 308.571 369.127 308.733 368.728C 308.807 368.547 309.172 368.4 309.545 368.4C 309.918 368.4 310.483 368.04 310.8 367.6C 311.117 367.16 311.657 366.8 312 366.8C 312.343 366.8 312.883 366.44 313.2 366C 313.517 365.56 313.962 365.2 314.188 365.199C 314.415 365.199 315.23 364.659 316 364C 316.77 363.341 317.585 362.801 317.812 362.801C 318.038 362.8 318.483 362.44 318.8 362C 319.117 361.56 319.572 361.2 319.81 361.2C 320.049 361.2 320.931 360.57 321.772 359.8C 322.613 359.03 323.436 358.4 323.602 358.4C 323.768 358.4 324.615 357.725 325.484 356.9C 326.353 356.075 327.292 355.349 327.57 355.287C 327.849 355.225 328.948 354.28 330.012 353.187C 331.077 352.094 332.13 351.2 332.353 351.2C 332.576 351.2 334.703 349.23 337.079 346.821C 342.316 341.514 341.514 342.316 346.821 337.079C 349.23 334.703 351.2 332.576 351.2 332.353C 351.2 332.13 352.094 331.077 353.187 330.012C 354.28 328.948 355.225 327.849 355.287 327.57C 355.349 327.292 356.075 326.353 356.9 325.484C 357.725 324.615 358.4 323.768 358.4 323.602C 358.4 323.436 359.03 322.613 359.8 321.772C 360.57 320.931 361.2 320.049 361.2 319.81C 361.2 319.572 361.56 319.117 362 318.8C 362.44 318.483 362.8 318.038 362.801 317.812C 362.801 317.585 363.341 316.77 364 316C 364.659 315.23 365.199 314.415 365.199 314.188C 365.2 313.962 365.56 313.517 366 313.2C 366.44 312.883 366.8 312.343 366.8 312C 366.8 311.657 367.16 311.117 367.6 310.8C 368.04 310.483 368.4 309.918 368.4 309.545C 368.4 309.172 368.547 308.807 368.728 308.733C 369.127 308.571 371.995 304.261 372.81 302.6C 373.134 301.94 373.509 301.31 373.644 301.2C 374.091 300.835 375.2 298.449 375.2 297.853C 375.2 297.531 375.335 297.207 375.5 297.133C 375.876 296.966 377.175 294.836 377.471 293.9C 377.593 293.515 377.852 293.2 378.047 293.2C 378.241 293.2 378.4 292.84 378.4 292.4C 378.4 291.96 378.58 291.6 378.8 291.6C 379.02 291.6 379.2 291.255 379.2 290.833C 379.2 290.412 379.335 290.007 379.5 289.933C 379.665 289.86 380.225 288.9 380.744 287.8C 381.263 286.7 381.848 285.487 382.044 285.105C 382.24 284.723 382.4 284.138 382.4 283.805C 382.4 283.472 382.58 283.2 382.8 283.2C 383.02 283.2 383.2 282.84 383.2 282.4C 383.2 281.96 383.38 281.6 383.6 281.6C 383.82 281.6 384 281.24 384 280.8C 384 280.36 384.18 280 384.4 280C 384.62 280 384.8 279.651 384.8 279.224C 384.8 278.797 384.98 278.336 385.2 278.2C 385.42 278.064 385.6 277.513 385.6 276.976C 385.6 276.439 385.78 276 386 276C 386.22 276 386.4 275.728 386.4 275.395C 386.4 275.062 386.58 274.432 386.8 273.995C 387.02 273.558 387.38 272.842 387.6 272.405C 387.82 271.968 388 271.263 388 270.839C 388 270.414 388.14 270.007 388.312 269.933C 388.755 269.744 391.6 260.96 391.6 259.78C 391.6 259.241 391.78 258.8 392 258.8C 392.22 258.8 392.4 258.17 392.4 257.4C 392.4 256.63 392.58 256 392.8 256C 393.02 256 393.2 255.381 393.2 254.624C 393.2 253.867 393.38 253.136 393.6 253C 393.82 252.864 394 252.223 394 251.576C 394 250.929 394.18 250.4 394.4 250.4C 394.62 250.4 394.8 249.691 394.8 248.824C 394.8 247.957 394.98 247.136 395.2 247C 395.42 246.864 395.6 245.953 395.6 244.976C 395.6 243.999 395.78 243.2 396 243.2C 396.22 243.2 396.4 242.48 396.4 241.6C 396.4 240.72 396.58 240 396.8 240C 397.02 240 397.2 239.01 397.2 237.8C 397.2 236.59 397.38 235.6 397.6 235.6C 397.82 235.6 398 234.621 398 233.424C 398 232.227 398.18 231.136 398.4 231C 398.62 230.864 398.8 229.539 398.8 228.056C 398.8 226.433 398.999 225.161 399.3 224.86C 400.029 224.131 400.029 175.869 399.3 175.14C 398.999 174.839 398.8 173.567 398.8 171.944C 398.8 170.461 398.62 169.136 398.4 169C 398.18 168.864 398 167.773 398 166.576C 398 165.379 397.82 164.4 397.6 164.4C 397.38 164.4 397.2 163.41 397.2 162.2C 397.2 160.99 397.02 160 396.8 160C 396.58 160 396.4 159.28 396.4 158.4C 396.4 157.52 396.22 156.8 396 156.8C 395.78 156.8 395.6 156.001 395.6 155.024C 395.6 154.047 395.42 153.136 395.2 153C 394.98 152.864 394.8 152.043 394.8 151.176C 394.8 150.309 394.62 149.6 394.4 149.6C 394.18 149.6 394 149.071 394 148.424C 394 147.777 393.82 147.136 393.6 147C 393.38 146.864 393.2 146.234 393.2 145.6C 393.2 144.966 393.02 144.336 392.8 144.2C 392.58 144.064 392.4 143.434 392.4 142.8C 392.4 142.166 392.22 141.536 392 141.4C 391.78 141.264 391.6 140.722 391.6 140.196C 391.6 139.033 388.75 130.254 388.312 130.067C 388.14 129.993 388 129.622 388 129.242C 388 128.861 387.64 127.805 387.2 126.894C 386.76 125.984 386.4 124.96 386.4 124.619C 386.4 124.279 386.22 124 386 124C 385.78 124 385.6 123.561 385.6 123.024C 385.6 122.487 385.42 121.936 385.2 121.8C 384.98 121.664 384.8 121.203 384.8 120.776C 384.8 120.349 384.62 120 384.4 120C 384.18 120 384 119.64 384 119.2C 384 118.76 383.82 118.4 383.6 118.4C 383.38 118.4 383.2 118.04 383.2 117.6C 383.2 117.16 383.02 116.8 382.8 116.8C 382.58 116.8 382.4 116.528 382.4 116.195C 382.4 115.862 382.232 115.277 382.026 114.895C 381.821 114.513 381.417 113.615 381.129 112.9C 380.84 112.185 380.469 111.6 380.302 111.6C 380.136 111.6 380 111.24 380 110.8C 380 110.36 379.82 110 379.6 110C 379.38 110 379.2 109.64 379.2 109.2C 379.2 108.76 379.02 108.4 378.8 108.4C 378.58 108.4 378.4 108.055 378.4 107.633C 378.4 107.212 378.265 106.807 378.1 106.733C 377.724 106.566 376.425 104.436 376.129 103.5C 376.007 103.115 375.748 102.8 375.553 102.8C 375.359 102.8 375.2 102.521 375.2 102.18C 375.2 101.553 374.099 99.168 373.639 98.8C 373.502 98.69 372.962 97.753 372.441 96.718C 371.919 95.682 371.202 94.512 370.846 94.118C 370.491 93.723 369.945 92.905 369.632 92.3C 369.32 91.695 368.915 91.2 368.732 91.2C 368.55 91.2 368.4 90.88 368.4 90.488C 368.4 90.097 368.04 89.517 367.6 89.2C 367.16 88.883 366.8 88.343 366.8 88C 366.8 87.657 366.44 87.117 366 86.8C 365.56 86.483 365.2 86.038 365.199 85.812C 365.199 85.585 364.659 84.77 364 84C 363.341 83.23 362.801 82.415 362.801 82.188C 362.8 81.962 362.44 81.517 362 81.2C 361.56 80.883 361.2 80.428 361.2 80.19C 361.2 79.951 360.57 79.069 359.8 78.228C 359.03 77.387 358.4 76.564 358.4 76.398C 358.4 76.232 357.725 75.385 356.9 74.516C 356.075 73.647 355.349 72.708 355.287 72.43C 355.225 72.151 354.28 71.052 353.187 69.988C 352.094 68.923 351.2 67.886 351.2 67.684C 351.2 67.482 349.587 65.715 347.615 63.758C 342.457 58.639 341.846 58.027 337.248 53.373C 334.964 51.062 333.016 49.25 332.919 49.347C 332.822 49.445 331.558 48.369 330.11 46.956C 328.663 45.544 327.394 44.472 327.292 44.575C 327.189 44.678 326.874 44.545 326.593 44.281C 326.311 44.016 325.425 43.26 324.624 42.6C 323.823 41.94 322.51 40.815 321.706 40.1C 320.902 39.385 320.049 38.8 319.81 38.8C 319.572 38.8 319.117 38.44 318.8 38C 318.483 37.56 318.038 37.2 317.812 37.199C 317.585 37.199 316.77 36.659 316 36C 315.23 35.341 314.415 34.801 314.188 34.801C 313.962 34.8 313.517 34.44 313.2 34C 312.883 33.56 312.343 33.2 312 33.2C 311.657 33.2 311.117 32.84 310.8 32.4C 310.483 31.96 309.918 31.6 309.545 31.6C 309.172 31.6 308.807 31.453 308.733 31.272C 308.487 30.666 303.717 27.645 302.553 27.357C 301.919 27.2 301.109 26.741 300.753 26.336C 300.397 25.931 299.812 25.6 299.453 25.6C 299.094 25.6 298.8 25.42 298.8 25.2C 298.8 24.98 298.455 24.8 298.033 24.8C 297.612 24.8 297.207 24.665 297.133 24.5C 296.966 24.124 294.836 22.825 293.9 22.529C 293.515 22.407 293.2 22.148 293.2 21.953C 293.2 21.759 292.84 21.6 292.4 21.6C 291.96 21.6 291.6 21.42 291.6 21.2C 291.6 20.98 291.255 20.8 290.833 20.8C 290.412 20.8 290.007 20.665 289.933 20.5C 289.86 20.335 288.9 19.775 287.8 19.256C 286.7 18.737 285.487 18.152 285.105 17.956C 284.723 17.76 284.138 17.6 283.805 17.6C 283.472 17.6 283.2 17.42 283.2 17.2C 283.2 16.98 282.84 16.8 282.4 16.8C 281.96 16.8 281.6 16.62 281.6 16.4C 281.6 16.18 281.24 16 280.8 16C 280.36 16 280 15.853 280 15.672C 280 15.492 279.1 15.1 278 14.8C 276.9 14.5 276 14.108 276 13.928C 276 13.747 275.721 13.6 275.381 13.6C 275.04 13.6 274.016 13.24 273.106 12.8C 272.195 12.36 271.247 12 271 12C 270.753 12 269.799 11.637 268.88 11.193C 267.961 10.749 266.398 10.275 265.405 10.139C 264.412 10.003 263.6 9.736 263.6 9.546C 263.6 9.356 263.06 9.2 262.4 9.2C 261.74 9.2 261.2 9.02 261.2 8.8C 261.2 8.58 260.671 8.4 260.024 8.4C 259.377 8.4 258.736 8.22 258.6 8C 258.464 7.78 257.823 7.6 257.176 7.6C 256.529 7.6 256 7.42 256 7.2C 256 6.98 255.381 6.8 254.624 6.8C 253.867 6.8 253.136 6.62 253 6.4C 252.864 6.18 252.223 6 251.576 6C 250.929 6 250.4 5.82 250.4 5.6C 250.4 5.38 249.691 5.2 248.824 5.2C 247.957 5.2 247.136 5.02 247 4.8C 246.864 4.58 245.953 4.4 244.976 4.4C 243.999 4.4 243.2 4.22 243.2 4C 243.2 3.78 242.48 3.6 241.6 3.6C 240.72 3.6 240 3.42 240 3.2C 240 2.98 239.01 2.8 237.8 2.8C 236.59 2.8 235.6 2.62 235.6 2.4C 235.6 2.18 234.621 2 233.424 2C 232.227 2 231.136 1.82 231 1.6C 230.864 1.38 229.539 1.2 228.056 1.2C 226.478 1.2 225.159 0.999 224.875 0.715C 224.394 0.234 187.86 -0.116 179.003 0.275M61.104 175.7L61.209 192L79.6 192L97.991 192L98.096 175.7L98.2 159.4L106.3 159.292L114.4 159.183L114.4 200L114.4 240.817L106.3 240.708L98.2 240.6L98.096 223.3L97.992 206L79.596 206L61.2 206L61.2 223.408L61.2 240.817L53.1 240.708L45 240.6L44.897 200.4C 44.84 178.29 44.881 159.971 44.988 159.692C 45.137 159.299 46.981 159.208 53.091 159.292L53.091 159.292L61 159.4L61.104 175.7zM185.348 160.1C 185.662 161.27 185.662 171.53 185.348 172.7L185.348 172.7L185.107 173.6L173.156 173.6L161.205 173.6L161.102 207.1L161 240.6L152.8 240.6L144.6 240.6L144.498 207.106L144.395 173.612L132.898 173.506L121.4 173.4L121.29 166.815C 121.229 163.194 121.268 159.999 121.377 159.715C 121.536 159.301 127.792 159.2 153.341 159.2L153.341 159.2L185.107 159.2L185.348 160.1zM219.021 161.8C 219.536 163.12 220.607 166 221.401 168.2C 222.195 170.4 223.038 172.65 223.276 173.2C 223.513 173.75 223.839 174.56 224 175C 224.437 176.194 225.247 178.108 225.647 178.895C 225.841 179.277 226 179.952 226 180.395C 226 180.838 226.18 181.2 226.4 181.2C 226.62 181.2 226.8 181.65 226.8 182.2C 226.8 182.75 226.98 183.2 227.2 183.2C 227.42 183.2 227.6 183.562 227.6 184.005C 227.6 184.448 227.759 185.123 227.953 185.505C 228.148 185.887 228.508 186.695 228.753 187.3C 228.999 187.905 229.404 188.895 229.654 189.5C 229.903 190.105 230.263 191.005 230.454 191.5C 230.644 191.995 231.004 192.895 231.254 193.5C 232.176 195.738 232.365 196.255 233.193 198.8C 233.657 200.23 234.174 201.67 234.342 202C 234.509 202.33 235.338 204.76 236.185 207.4C 237.032 210.04 238.128 213.454 238.621 214.986C 239.584 217.983 240.4 218.84 240.4 216.857C 240.4 216.192 240.58 215.536 240.8 215.4C 241.02 215.264 241.2 214.724 241.2 214.2C 241.2 213.676 241.38 213.136 241.6 213C 241.82 212.864 242 212.324 242 211.8C 242 211.276 242.18 210.736 242.4 210.6C 242.62 210.464 242.8 210.001 242.8 209.571C 242.8 209.141 242.962 208.477 243.161 208.095C 243.36 207.713 243.751 206.59 244.031 205.6C 244.31 204.61 244.688 203.629 244.87 203.42C 245.051 203.211 245.2 202.714 245.2 202.315C 245.2 201.916 245.362 201.277 245.561 200.895C 245.76 200.513 246.582 198.31 247.388 196C 249.286 190.562 250.604 186.979 251.507 184.8C 251.735 184.25 252.317 182.72 252.8 181.4C 253.283 180.08 253.865 178.55 254.093 178C 254.321 177.45 254.639 176.64 254.8 176.2C 254.961 175.76 255.279 174.95 255.506 174.4C 255.733 173.85 256.136 172.77 256.4 172C 256.664 171.23 257.043 170.195 257.24 169.7C 257.438 169.205 257.756 168.395 257.946 167.9C 258.524 166.399 259.273 164.64 259.647 163.905C 259.841 163.523 260 162.936 260 162.6C 260 162.264 260.167 161.677 260.371 161.295C 260.575 160.913 260.839 160.285 260.958 159.9C 261.159 159.252 262.153 159.2 274.387 159.2L274.387 159.2L287.6 159.2L287.6 200L287.6 240.8L279.589 240.8L271.577 240.8L271.689 208.438C 271.75 190.639 271.665 176.16 271.5 176.262C 271.335 176.364 271.2 176.68 271.2 176.965C 271.2 177.644 266.912 190.796 266.398 191.695C 266.179 192.077 266 192.664 266 193C 266 193.336 265.841 193.923 265.647 194.305C 265.254 195.077 264.269 197.463 263.254 200.1C 262.676 201.601 261.927 203.36 261.553 204.095C 261.359 204.477 261.2 205.152 261.2 205.595C 261.2 206.038 261.02 206.4 260.8 206.4C 260.58 206.4 260.4 206.839 260.4 207.376C 260.4 207.913 260.22 208.464 260 208.6C 259.78 208.736 259.6 209.197 259.6 209.624C 259.6 210.051 259.42 210.4 259.2 210.4C 258.98 210.4 258.8 210.762 258.8 211.205C 258.8 211.648 258.641 212.323 258.447 212.705C 258.252 213.087 257.892 213.895 257.647 214.5C 257.401 215.105 257.034 216.005 256.83 216.5C 256.627 216.995 255.442 220.1 254.196 223.4C 252.951 226.7 251.768 229.805 251.566 230.3C 251.365 230.795 251.044 231.605 250.854 232.1C 250.663 232.595 250.303 233.495 250.054 234.1C 249.804 234.705 249.42 235.65 249.2 236.2C 248.98 236.75 248.631 237.605 248.425 238.1C 248.219 238.595 247.937 239.405 247.798 239.9C 247.549 240.791 247.476 240.8 240.222 240.8C 231.715 240.8 232.668 241.325 230.414 235.4C 229.493 232.98 228.549 230.55 228.317 230C 228.084 229.45 227.713 228.55 227.493 228C 227.273 227.45 226.913 226.55 226.693 226C 226.473 225.45 226.113 224.55 225.893 224C 225.673 223.45 225.313 222.55 225.093 222C 224.873 221.45 224.561 220.64 224.4 220.2C 224.239 219.76 223.927 218.95 223.707 218.4C 223.487 217.85 223.127 216.95 222.907 216.4C 222.687 215.85 222.327 214.95 222.107 214.4C 221.887 213.85 221.503 212.905 221.254 212.3C 221.004 211.695 220.644 210.795 220.454 210.3C 220.263 209.805 219.879 208.86 219.6 208.2C 219.321 207.54 218.937 206.595 218.746 206.1C 218.556 205.605 218.244 204.795 218.054 204.3C 217.863 203.805 217.516 202.95 217.283 202.4C 216.231 199.914 213.563 192.707 212.62 189.8C 212.049 188.04 211.406 186.287 211.191 185.905C 210.976 185.523 210.8 184.859 210.8 184.429C 210.8 183.999 210.62 183.536 210.4 183.4C 210.18 183.264 210 182.724 210 182.2C 210 181.676 209.82 181.136 209.6 181C 209.38 180.864 209.2 180.223 209.2 179.576C 209.2 178.929 209.02 178.4 208.8 178.4C 208.58 178.4 208.4 177.86 208.4 177.2C 208.4 176.54 208.233 176 208.028 176C 207.823 176 207.578 175.685 207.483 175.3C 207.388 174.915 207.388 175.05 207.483 175.6C 207.912 178.086 208.398 205.741 208.304 222.321L208.304 222.321L208.2 240.6L200.1 240.708L192 240.817L192 200.003L192 159.189L205.042 159.295L218.084 159.4L219.021 161.8zM317.502 192.9L317.605 226.4L336.402 226.4L355.2 226.4L355.2 233.603L355.2 240.806L328.1 240.703L301 240.6L300.897 200.4C 300.84 178.29 300.881 159.971 300.988 159.692C 301.137 159.299 303.021 159.208 309.291 159.292L309.291 159.292L317.4 159.4L317.502 192.9" stroke="none" fill="#F43454" fill-rule="nonzero" />
        <path d="M45.393 200C 45.393 222.33 45.441 231.465 45.5 220.3C 45.559 209.135 45.559 190.865 45.5 179.7C 45.441 168.535 45.393 177.67 45.393 200M60.305 175.738C 60.363 184.572 60.493 192.027 60.594 192.304C 60.739 192.701 64.77 192.786 79.689 192.704L79.689 192.704L98.6 192.6L98.8 176.138C 98.91 167.084 98.865 159.759 98.7 159.862C 98.535 159.964 98.4 167.327 98.4 176.224L98.4 176.224L98.4 192.4L79.6 192.4L60.8 192.4L60.794 176.5C 60.791 167.755 60.656 160.392 60.494 160.138C 60.332 159.883 60.247 166.903 60.305 175.738M113.793 200C 113.793 222.33 113.841 231.465 113.9 220.3C 113.959 209.135 113.959 190.865 113.9 179.7C 113.841 168.535 113.793 177.67 113.793 200M184.2 166.4C 184.2 170.098 184.335 173.04 184.5 172.938C 184.665 172.836 184.8 169.894 184.8 166.4C 184.8 162.906 184.665 159.964 184.5 159.862C 184.335 159.76 184.2 162.702 184.2 166.4M192.4 200C 192.4 222.22 192.535 240.4 192.7 240.4C 192.865 240.4 193 222.22 193 200C 193 177.78 192.865 159.6 192.7 159.6C 192.535 159.6 192.4 177.78 192.4 200M286.7 185.7C 286.756 200.055 286.848 218.28 286.906 226.2C 286.963 234.12 287.053 222.375 287.105 200.1C 287.157 177.825 287.065 159.6 286.9 159.6C 286.735 159.6 286.645 171.345 286.7 185.7M316.494 192.876C 316.442 211.288 316.535 226.436 316.7 226.538C 316.972 226.706 316.969 202.747 316.693 171.4C 316.635 164.8 316.546 174.464 316.494 192.876M121.761 166.4C 121.761 169.81 121.822 171.205 121.897 169.5C 121.972 167.795 121.972 165.005 121.897 163.3C 121.822 161.595 121.761 162.99 121.761 166.4M220.821 168.59C 220.791 169.151 222.899 174.435 223.08 174.253C 223.163 174.17 222.694 172.774 222.036 171.151C 221.379 169.528 220.832 168.376 220.821 168.59M271.579 173.455C 271.358 174.036 271.256 174.59 271.352 174.686C 271.448 174.782 271.658 174.442 271.817 173.93C 271.977 173.419 272.309 172.868 272.554 172.706C 272.865 172.501 272.846 172.41 272.49 172.406C 272.21 172.403 271.8 172.875 271.579 173.455M206.886 177.5L206.971 182.2L207.099 177.685C 207.177 174.911 207.376 173.261 207.613 173.408C 207.826 173.54 208 173.457 208 173.224C 208 172.991 207.73 172.8 207.4 172.8C 206.896 172.8 206.814 173.551 206.886 177.5M144.698 173.492C 145.086 173.767 145.219 181.156 145.301 207.222L145.301 207.222L145.407 240.6L145.403 207.033C 145.4 177.538 145.327 173.447 144.8 173.303C 144.358 173.182 144.331 173.232 144.698 173.492M160.184 173.7C 160.079 173.975 160.041 189.14 160.099 207.4L160.099 207.4L160.205 240.6L160.302 207.133C 160.379 180.808 160.507 173.624 160.9 173.465C 161.292 173.307 161.289 173.256 160.887 173.232C 160.606 173.214 160.289 173.425 160.184 173.7M272.197 182.537C 272.037 185.938 271.99 188.963 272.093 189.26C 272.195 189.557 272.414 186.863 272.579 183.273C 272.745 179.684 272.792 176.658 272.683 176.55C 272.575 176.442 272.356 179.136 272.197 182.537M207.334 185.2C 207.334 186.85 207.405 187.525 207.491 186.7C 207.578 185.875 207.578 184.525 207.491 183.7C 207.405 182.875 207.334 183.55 207.334 185.2M207.788 216.2C 207.788 229.62 207.838 235.052 207.9 228.271C 207.961 221.49 207.961 210.51 207.9 203.871C 207.838 197.232 207.788 202.78 207.788 216.2M247.425 197.091C 247.046 198.141 246.545 199.501 246.314 200.113C 246.082 200.725 245.971 201.305 246.068 201.401C 246.164 201.497 246.725 200.198 247.314 198.514C 247.904 196.83 248.325 195.392 248.251 195.317C 248.176 195.243 247.805 196.041 247.425 197.091M60.594 205.696C 60.28 206.553 60.182 240.354 60.494 239.862C 60.656 239.608 60.791 231.795 60.794 222.5L60.794 222.5L60.8 205.6L79.6 205.6L98.4 205.6L98.4 222.776C 98.4 232.223 98.535 240.036 98.7 240.138C 98.865 240.241 98.91 232.466 98.8 222.862L98.8 222.862L98.6 205.4L79.689 205.296C 64.77 205.214 60.739 205.299 60.594 205.696M255.08 218.88C 254.476 220.439 254.046 221.78 254.126 221.86C 254.206 221.94 254.77 220.734 255.38 219.18C 255.99 217.626 256.419 216.285 256.334 216.2C 256.249 216.115 255.684 217.321 255.08 218.88M238.846 217.867C 238.765 218.686 239.268 219.6 239.8 219.6C 240.344 219.6 240.965 218.432 240.609 218.076C 240.494 217.961 240.4 218.077 240.4 218.333C 240.4 219.073 239.278 218.875 239.076 218.1C 238.975 217.715 238.872 217.61 238.846 217.867M354.565 233.6C 354.565 237.45 354.625 239.025 354.698 237.1C 354.771 235.175 354.771 232.025 354.698 230.1C 354.625 228.175 354.565 229.75 354.565 233.6M229.418 231.7C 229.568 232.195 229.855 232.776 230.056 232.991C 230.257 233.206 230.219 232.801 229.972 232.091C 229.465 230.638 228.997 230.308 229.418 231.7M230.415 233.8C 230.388 234.355 232.869 240.465 233.048 240.285C 233.128 240.205 232.573 238.623 231.814 236.77C 231.056 234.916 230.426 233.58 230.415 233.8" stroke="none" fill="#FC9CAC" fill-rule="nonzero" />
        <path d="M48 159.474C 54.363 159.762 60.71 159.775 60.539 159.5C 60.437 159.335 56.988 159.235 52.876 159.278C 48.764 159.321 46.57 159.41 48 159.474M102.5 159.498C 104.645 159.57 108.155 159.57 110.3 159.498C 112.445 159.426 110.69 159.367 106.4 159.367C 102.11 159.367 100.355 159.426 102.5 159.498M137.5 159.5C 146.135 159.56 160.265 159.56 168.9 159.5C 177.535 159.44 170.47 159.39 153.2 159.39C 135.93 159.39 128.865 159.44 137.5 159.5M198.925 159.499C 202.404 159.566 207.984 159.566 211.325 159.499C 214.666 159.432 211.82 159.378 205 159.378C 198.18 159.378 195.446 159.433 198.925 159.499M268.1 159.499C 271.565 159.566 277.235 159.566 280.7 159.499C 284.165 159.433 281.33 159.378 274.4 159.378C 267.47 159.378 264.635 159.433 268.1 159.499M301.467 159.467C 301.096 159.837 301.129 240.309 301.5 240.538C 301.665 240.64 301.753 222.475 301.696 200.171L301.696 200.171L301.592 159.618L309.096 159.499L316.6 159.381L309.167 159.291C 305.078 159.241 301.613 159.32 301.467 159.467M316.991 193C 316.991 211.48 317.04 218.982 317.1 209.67C 317.16 200.359 317.16 185.239 317.1 176.07C 317.04 166.902 316.991 174.52 316.991 193M114.192 200C 114.192 221.89 114.241 230.845 114.3 219.9C 114.359 208.955 114.359 191.045 114.3 180.1C 114.241 169.155 114.192 178.11 114.192 200M184.961 166.4C 184.961 169.81 185.022 171.205 185.097 169.5C 185.172 167.795 185.172 165.005 185.097 163.3C 185.022 161.595 184.961 162.99 184.961 166.4M192.192 200C 192.192 221.89 192.241 230.845 192.3 219.9C 192.359 208.955 192.359 191.045 192.3 180.1C 192.241 169.155 192.192 178.11 192.192 200M144.991 206.6C 144.991 224.86 145.04 232.388 145.1 223.33C 145.16 214.271 145.16 199.331 145.1 190.13C 145.04 180.928 144.991 188.34 144.991 206.6M160.4 207.08C 160.29 225.604 160.336 240.624 160.502 240.458C 160.669 240.291 160.759 225.135 160.702 206.778L160.702 206.778L160.6 173.4L160.4 207.08zM272.093 180C 272.093 180.77 272.175 181.085 272.276 180.7C 272.376 180.315 272.376 179.685 272.276 179.3C 272.175 178.915 272.093 179.23 272.093 180M207.731 186.2C 207.733 187.74 207.805 188.321 207.892 187.491C 207.979 186.661 207.977 185.401 207.889 184.691C 207.8 183.981 207.729 184.66 207.731 186.2M271.692 214.276C 271.642 228.618 271.735 240.436 271.9 240.538C 272.172 240.707 272.169 221.989 271.892 197.6C 271.833 192.43 271.743 199.934 271.692 214.276M326.7 226.7C 331.815 226.763 340.185 226.763 345.3 226.7C 350.415 226.636 346.23 226.585 336 226.585C 325.77 226.585 321.585 226.636 326.7 226.7" stroke="none" fill="#F87E94" fill-rule="nonzero" />
        <path d="M287.392 200C 287.392 221.89 287.441 230.845 287.5 219.9C 287.559 208.955 287.559 191.045 287.5 180.1C 287.441 169.155 287.392 178.11 287.392 200M127.924 173.499C 131.073 173.567 136.113 173.567 139.124 173.499C 142.136 173.431 139.56 173.376 133.4 173.376C 127.24 173.376 124.776 173.432 127.924 173.499M166.924 173.499C 170.183 173.567 175.403 173.566 178.524 173.499C 181.646 173.431 178.98 173.376 172.6 173.377C 166.22 173.377 163.666 173.432 166.924 173.499M207.709 190.4C 207.709 191.39 207.787 191.795 207.882 191.3C 207.978 190.805 207.978 189.995 207.882 189.5C 207.787 189.005 207.709 189.41 207.709 190.4M240 240.4L233 240.629L239.876 240.714C 244.124 240.767 246.847 240.647 247 240.4C 247.136 240.18 247.192 240.039 247.124 240.086C 247.056 240.133 243.85 240.274 240 240.4M49.1 240.698C 51.135 240.771 54.465 240.771 56.5 240.698C 58.535 240.625 56.87 240.566 52.8 240.566C 48.73 240.566 47.065 240.625 49.1 240.698M102.48 240.698C 104.394 240.771 107.634 240.771 109.68 240.698C 111.726 240.626 110.16 240.566 106.2 240.565C 102.24 240.565 100.566 240.624 102.48 240.698M149.1 240.698C 151.135 240.771 154.465 240.771 156.5 240.698C 158.535 240.625 156.87 240.566 152.8 240.566C 148.73 240.566 147.065 240.625 149.1 240.698M196.7 240.698C 198.735 240.771 202.065 240.771 204.1 240.698C 206.135 240.625 204.47 240.566 200.4 240.566C 196.33 240.566 194.665 240.625 196.7 240.698M275.68 240.698C 277.594 240.771 280.834 240.771 282.88 240.698C 284.926 240.626 283.36 240.566 279.4 240.565C 275.44 240.565 273.766 240.624 275.68 240.698M315.129 240.7C 322.46 240.761 334.34 240.761 341.529 240.7C 348.718 240.639 342.72 240.589 328.2 240.589C 313.68 240.589 307.798 240.639 315.129 240.7" stroke="none" fill="#FC92A4" fill-rule="nonzero" />
        <path d="M301.067 159.467C 300.696 159.837 300.729 240.309 301.1 240.538C 301.265 240.64 301.4 222.381 301.4 199.962C 301.4 177.543 301.385 159.2 301.367 159.2C 301.348 159.2 301.213 159.32 301.067 159.467M317.2 192.92L317.4 226.6L317.502 193.222C 317.559 174.865 317.469 159.709 317.302 159.542C 317.136 159.376 317.09 174.396 317.2 192.92M98.183 175.8C 98.183 184.82 98.235 188.567 98.299 184.127C 98.364 179.687 98.364 172.307 98.3 167.727C 98.235 163.147 98.183 166.78 98.183 175.8M121.365 166.4C 121.365 170.25 121.425 171.825 121.498 169.9C 121.571 167.975 121.571 164.825 121.498 162.9C 121.425 160.975 121.365 162.55 121.365 166.4M185.361 166.4C 185.361 169.81 185.422 171.205 185.497 169.5C 185.572 167.795 185.572 165.005 185.497 163.3C 185.422 161.595 185.361 162.99 185.361 166.4M144.494 206.876C 144.442 225.288 144.535 240.436 144.7 240.538C 144.972 240.706 144.969 216.747 144.693 185.4C 144.635 178.8 144.546 188.464 144.494 206.876M272 174.376C 272 174.803 271.82 175.264 271.6 175.4C 271.38 175.536 271.2 175.827 271.2 176.047C 271.2 176.267 271.366 176.344 271.57 176.219C 271.773 176.093 272.022 176.307 272.123 176.695C 272.224 177.083 272.328 176.545 272.354 175.5C 272.379 174.455 272.31 173.6 272.2 173.6C 272.09 173.6 272 173.949 272 174.376M160.8 207.28C 160.69 225.694 160.736 240.624 160.902 240.458C 161.069 240.291 161.159 225.225 161.102 206.978L161.102 206.978L161 173.8L160.8 207.28zM207.449 175.815C 207.312 176.173 207.215 176.766 207.234 177.133C 207.253 177.5 207.427 177.269 207.621 176.62C 207.998 175.358 207.865 174.733 207.449 175.815M271.724 179.8C 271.726 181.12 271.801 181.612 271.89 180.893C 271.979 180.174 271.977 179.094 271.886 178.493C 271.795 177.892 271.722 178.48 271.724 179.8M207.709 179.6C 207.709 180.59 207.787 180.995 207.882 180.5C 207.978 180.005 207.978 179.195 207.882 178.7C 207.787 178.205 207.709 178.61 207.709 179.6M208.187 218.2C 208.187 230.52 208.238 235.618 208.3 229.528C 208.362 223.439 208.362 213.359 208.3 207.128C 208.238 200.898 208.187 205.88 208.187 218.2M79.596 205.898L97.992 206.008L98.102 223.204L98.213 240.4L98.206 223.1L98.2 205.8L79.7 205.794L61.2 205.788L79.596 205.898" stroke="none" fill="#F4576F" fill-rule="nonzero" />
        <path d="M60.993 176L61 192.2L79.4 192.206L97.8 192.212L79.505 192.102L61.209 191.992L61.098 175.896L60.986 159.8L60.993 176zM44.992 200C 44.992 221.89 45.041 230.845 45.1 219.9C 45.159 208.955 45.159 191.045 45.1 180.1C 45.041 169.155 44.992 178.11 44.992 200M207.693 182.4C 207.693 183.17 207.775 183.485 207.876 183.1C 207.976 182.715 207.976 182.085 207.876 181.7C 207.775 181.315 207.693 181.63 207.693 182.4M271.74 185.2C 271.74 187.07 271.809 187.835 271.893 186.9C 271.977 185.965 271.977 184.435 271.893 183.5C 271.809 182.565 271.74 183.33 271.74 185.2M60.983 223C 60.983 232.46 61.036 236.273 61.1 231.473C 61.164 226.673 61.163 218.933 61.099 214.273C 61.036 209.613 60.983 213.54 60.983 223M354.964 233.8C 354.963 237.54 355.023 239.124 355.097 237.32C 355.171 235.515 355.172 232.455 355.098 230.52C 355.025 228.584 354.964 230.06 354.964 233.8" stroke="none" fill="#F45C7C" fill-rule="nonzero" />
	</g>
</g>
</svg>