<?xml version="1.0" standalone="no"?>
<!DOCTYPE svg PUBLIC "-//W3C//DTD SVG 1.0//EN" "http://www.w3.org/TR/2001/REC-SVG-20010904/DTD/svg10.dtd">
<svg xmlns="http://www.w3.org/2000/svg" xmlns:xlink="http://www.w3.org/1999/xlink" id="body_1" width="614" height="461">

<g transform="matrix(0.9003906 0 0 0.9003906 76.500015 9.003906)">
	<g>
        <path d="M179.4 0.44C 177.42 0.633 174.45 0.897 172.8 1.027C 171.15 1.156 169.629 1.428 169.42 1.631C 169.211 1.834 168.086 2 166.92 2C 165.754 2 164.8 2.18 164.8 2.4C 164.8 2.62 163.9 2.8 162.8 2.8C 161.7 2.8 160.8 2.98 160.8 3.2C 160.8 3.42 159.9 3.6 158.8 3.6C 157.7 3.6 156.8 3.78 156.8 4C 156.8 4.22 156.08 4.4 155.2 4.4C 154.32 4.4 153.6 4.58 153.6 4.8C 153.6 5.02 152.891 5.2 152.024 5.2C 151.157 5.2 150.336 5.38 150.2 5.6C 150.064 5.82 149.434 6 148.8 6C 148.166 6 147.536 6.18 147.4 6.4C 147.264 6.62 146.634 6.8 146 6.8C 145.366 6.8 144.736 6.98 144.6 7.2C 144.464 7.42 143.834 7.6 143.2 7.6C 142.566 7.6 141.936 7.78 141.8 8C 141.664 8.22 141.034 8.4 140.4 8.4C 139.766 8.4 139.136 8.58 139 8.8C 138.864 9.02 138.324 9.2 137.8 9.2C 137.276 9.2 136.751 9.356 136.632 9.547C 136.514 9.739 135.739 10.009 134.909 10.148C 133.452 10.393 127.017 12.849 126.514 13.353C 126.378 13.489 125.934 13.6 125.528 13.6C 125.122 13.6 124.477 13.765 124.095 13.966C 123.713 14.168 122.68 14.638 121.8 15.01C 120.92 15.382 119.677 15.938 119.039 16.244C 118.4 16.55 117.635 16.8 117.339 16.8C 117.042 16.8 116.8 16.98 116.8 17.2C 116.8 17.42 116.44 17.6 116 17.6C 115.56 17.6 115.2 17.736 115.2 17.902C 115.2 18.069 114.615 18.444 113.9 18.736C 111.453 19.737 107.6 21.791 107.6 22.096C 107.6 22.263 107.366 22.4 107.08 22.4C 106.344 22.4 104.407 23.341 104.403 23.7C 104.401 23.865 104.04 24 103.6 24C 103.16 24 102.8 24.18 102.8 24.4C 102.8 24.62 102.44 24.8 102 24.8C 101.56 24.8 101.2 24.98 101.2 25.2C 101.2 25.42 100.93 25.6 100.6 25.6C 100.27 25.6 100 25.78 100 26C 100 26.22 99.73 26.4 99.4 26.4C 99.07 26.4 98.8 26.58 98.8 26.8C 98.8 27.02 98.545 27.2 98.232 27.2C 97.519 27.2 95.206 28.498 95.203 28.9C 95.201 29.065 94.975 29.2 94.7 29.2C 94.425 29.201 93.682 29.647 93.048 30.192C 92.414 30.737 91.739 31.086 91.548 30.968C 91.357 30.85 91.2 30.922 91.2 31.128C 91.2 31.334 90.66 31.727 90 32C 89.34 32.273 88.8 32.643 88.8 32.822C 88.8 33 88.434 33.262 87.987 33.404C 87.54 33.546 86.738 34.098 86.205 34.631C 85.672 35.164 84.998 35.6 84.706 35.6C 84.415 35.6 83.917 35.96 83.6 36.4C 83.283 36.84 82.838 37.203 82.612 37.207C 82.145 37.216 80.137 38.771 78.102 40.7C 77.348 41.415 76.543 42 76.313 42C 76.082 42 75.603 42.329 75.247 42.732C 74.891 43.135 74.306 43.63 73.947 43.832C 73.178 44.266 70.211 46.659 69.027 47.8C 68.571 48.24 67.295 49.346 66.193 50.258C 64.179 51.924 60.372 55.6 60.659 55.6C 60.744 55.6 59.686 56.742 58.307 58.138C 56.928 59.533 55.752 60.64 55.693 60.597C 55.514 60.467 52.019 64.065 50.258 66.193C 49.346 67.295 48.24 68.571 47.8 69.027C 46.659 70.211 44.266 73.178 43.832 73.947C 43.63 74.306 43.135 74.891 42.732 75.247C 42.329 75.603 42 76.082 42 76.313C 42 76.543 41.415 77.348 40.7 78.102C 38.771 80.137 37.216 82.145 37.207 82.612C 37.203 82.838 36.84 83.283 36.4 83.6C 35.96 83.917 35.6 84.415 35.6 84.706C 35.6 84.998 35.164 85.672 34.631 86.205C 34.098 86.738 33.546 87.54 33.404 87.987C 33.262 88.434 33 88.8 32.822 88.8C 32.643 88.8 32.273 89.34 32 90C 31.727 90.66 31.334 91.2 31.128 91.2C 30.922 91.2 30.85 91.357 30.968 91.548C 31.086 91.739 30.737 92.414 30.192 93.048C 29.647 93.682 29.201 94.425 29.2 94.7C 29.2 94.975 29.065 95.201 28.9 95.203C 28.498 95.206 27.2 97.519 27.2 98.232C 27.2 98.545 27.02 98.8 26.8 98.8C 26.58 98.8 26.4 99.07 26.4 99.4C 26.4 99.73 26.22 100 26 100C 25.78 100 25.6 100.27 25.6 100.6C 25.6 100.93 25.42 101.2 25.2 101.2C 24.98 101.2 24.8 101.56 24.8 102C 24.8 102.44 24.62 102.8 24.4 102.8C 24.18 102.8 24 103.16 24 103.6C 24 104.04 23.865 104.401 23.7 104.403C 23.341 104.407 22.4 106.344 22.4 107.08C 22.4 107.366 22.263 107.6 22.096 107.6C 21.791 107.6 19.737 111.453 18.736 113.9C 18.444 114.615 18.069 115.2 17.902 115.2C 17.736 115.2 17.6 115.56 17.6 116C 17.6 116.44 17.42 116.8 17.2 116.8C 16.98 116.8 16.8 117.042 16.8 117.339C 16.8 117.635 16.55 118.4 16.244 119.039C 15.938 119.677 15.382 120.92 15.01 121.8C 14.638 122.68 14.168 123.713 13.966 124.095C 13.765 124.477 13.6 125.122 13.6 125.528C 13.6 125.934 13.489 126.378 13.353 126.514C 12.849 127.017 10.393 133.452 10.148 134.909C 10.009 135.739 9.739 136.514 9.547 136.632C 9.356 136.751 9.2 137.276 9.2 137.8C 9.2 138.324 9.02 138.864 8.8 139C 8.58 139.136 8.4 139.766 8.4 140.4C 8.4 141.034 8.22 141.664 8 141.8C 7.78 141.936 7.6 142.566 7.6 143.2C 7.6 143.834 7.42 144.464 7.2 144.6C 6.98 144.736 6.8 145.366 6.8 146C 6.8 146.634 6.62 147.264 6.4 147.4C 6.18 147.536 6 148.166 6 148.8C 6 149.434 5.82 150.064 5.6 150.2C 5.38 150.336 5.2 151.157 5.2 152.024C 5.2 152.891 5.02 153.6 4.8 153.6C 4.58 153.6 4.4 154.32 4.4 155.2C 4.4 156.08 4.22 156.8 4 156.8C 3.78 156.8 3.6 157.7 3.6 158.8C 3.6 159.9 3.42 160.8 3.2 160.8C 2.98 160.8 2.8 161.7 2.8 162.8C 2.8 163.9 2.62 164.8 2.4 164.8C 2.18 164.8 2 165.754 2 166.92C 2 168.086 1.834 169.211 1.631 169.42C 1.428 169.629 1.167 171.06 1.05 172.6C 0.933 174.14 0.637 177.74 0.392 180.6C -0.217 187.693 0.066 224.089 0.731 224.31C 1.033 224.411 1.2 225.513 1.2 227.41C 1.2 229.028 1.38 230.464 1.6 230.6C 1.82 230.736 2 231.816 2 233C 2 234.184 2.18 235.264 2.4 235.4C 2.62 235.536 2.8 236.537 2.8 237.624C 2.8 238.711 2.98 239.6 3.2 239.6C 3.42 239.6 3.6 240.41 3.6 241.4C 3.6 242.39 3.78 243.2 4 243.2C 4.22 243.2 4.4 243.909 4.4 244.776C 4.4 245.643 4.58 246.464 4.8 246.6C 5.02 246.736 5.2 247.557 5.2 248.424C 5.2 249.291 5.38 250 5.6 250C 5.82 250 6 250.63 6 251.4C 6 252.17 6.18 252.8 6.4 252.8C 6.62 252.8 6.8 253.43 6.8 254.2C 6.8 254.97 6.98 255.6 7.2 255.6C 7.42 255.6 7.6 256.23 7.6 257C 7.6 257.77 7.78 258.4 8 258.4C 8.22 258.4 8.4 258.929 8.4 259.576C 8.4 260.223 8.58 260.864 8.8 261C 9.02 261.136 9.2 261.676 9.2 262.2C 9.2 262.724 9.38 263.264 9.6 263.4C 9.82 263.536 10 264.004 10 264.441C 10 265.142 12.107 271.292 13.276 274C 13.513 274.55 13.84 275.36 14.003 275.8C 14.347 276.732 15.925 280.283 16.444 281.295C 16.64 281.677 16.8 282.262 16.8 282.595C 16.8 282.928 16.936 283.2 17.102 283.2C 17.269 283.2 17.645 283.785 17.939 284.5C 19.126 287.392 21.737 292.4 22.058 292.4C 22.246 292.4 22.4 292.634 22.4 292.92C 22.4 293.656 23.341 295.593 23.7 295.597C 23.865 295.599 24 295.96 24 296.4C 24 296.84 24.18 297.2 24.4 297.2C 24.62 297.2 24.8 297.56 24.8 298C 24.8 298.44 24.98 298.8 25.2 298.8C 25.42 298.8 25.6 299.07 25.6 299.4C 25.6 299.73 25.78 300 26 300C 26.22 300 26.4 300.27 26.4 300.6C 26.4 300.93 26.58 301.2 26.8 301.2C 27.02 301.2 27.2 301.474 27.2 301.808C 27.2 302.142 27.65 303.129 28.2 304C 28.75 304.871 29.2 305.768 29.2 305.992C 29.2 306.216 29.342 306.4 29.515 306.4C 29.689 306.4 30.452 307.435 31.212 308.7C 31.971 309.965 32.729 311.06 32.896 311.133C 33.063 311.207 33.2 311.477 33.201 311.733C 33.201 311.99 33.741 312.83 34.4 313.6C 35.059 314.37 35.599 315.185 35.599 315.412C 35.6 315.638 35.96 316.083 36.4 316.4C 36.84 316.717 37.2 317.115 37.2 317.285C 37.2 317.727 41.201 322.987 43.026 324.943C 43.26 325.195 43.62 325.694 43.826 326.053C 44.272 326.831 46.675 329.806 47.8 330.973C 48.24 331.429 49.41 332.782 50.4 333.979C 51.39 335.175 53.43 337.335 54.933 338.777C 56.435 340.22 59.594 343.29 61.951 345.6C 67.346 350.887 70.161 353.365 74.2 356.381C 75.96 357.695 77.98 359.317 78.689 359.985C 79.397 360.653 80.162 361.2 80.389 361.2C 80.615 361.2 80.8 361.35 80.8 361.532C 80.8 361.715 81.295 362.119 81.9 362.43C 82.505 362.74 83.291 363.311 83.647 363.697C 84.003 364.084 84.453 364.4 84.647 364.401C 84.841 364.401 85.63 364.941 86.4 365.6C 87.17 366.259 88.025 366.799 88.3 366.799C 88.575 366.8 88.8 366.98 88.8 367.2C 88.8 367.42 89.07 367.6 89.4 367.6C 89.73 367.6 90 367.78 90 368C 90 368.22 90.174 368.4 90.386 368.4C 90.599 368.4 92.264 369.371 94.086 370.557C 95.909 371.743 98.166 373.112 99.102 373.598C 100.038 374.085 100.904 374.644 101.026 374.841C 101.147 375.039 101.597 375.2 102.024 375.2C 102.451 375.2 102.8 375.38 102.8 375.6C 102.8 375.82 103.16 376 103.6 376C 104.04 376 104.401 376.135 104.403 376.3C 104.407 376.659 106.344 377.6 107.08 377.6C 107.366 377.6 107.6 377.754 107.6 377.942C 107.6 378.335 113.947 381.608 114.7 381.603C 114.975 381.601 115.2 381.78 115.2 382C 115.2 382.22 115.56 382.4 116 382.4C 116.44 382.4 116.8 382.58 116.8 382.8C 116.8 383.02 117.25 383.2 117.8 383.2C 118.35 383.2 118.8 383.336 118.8 383.502C 118.8 383.669 119.385 384.044 120.1 384.336C 122.85 385.459 123.422 385.704 124.095 386.047C 124.477 386.241 125.152 386.4 125.595 386.4C 126.038 386.4 126.4 386.58 126.4 386.8C 126.4 387.02 126.672 387.2 127.005 387.2C 127.593 387.2 128.018 387.367 129.895 388.338C 130.387 388.592 131.122 388.8 131.528 388.8C 131.934 388.8 132.386 388.919 132.532 389.065C 132.994 389.528 136.735 390.731 136.973 390.494C 137.098 390.369 137.2 390.477 137.2 390.733C 137.2 390.99 137.335 391.17 137.5 391.133C 138.041 391.011 140.984 391.635 141.695 392.022C 142.077 392.23 142.842 392.4 143.395 392.4C 143.948 392.4 144.4 392.58 144.4 392.8C 144.4 393.02 145.019 393.2 145.776 393.2C 146.533 393.2 147.264 393.38 147.4 393.6C 147.536 393.82 148.177 394 148.824 394C 149.471 394 150 394.18 150 394.4C 150 394.62 150.709 394.8 151.576 394.8C 152.443 394.8 153.264 394.98 153.4 395.2C 153.536 395.42 154.357 395.6 155.224 395.6C 156.091 395.6 156.8 395.78 156.8 396C 156.8 396.22 157.711 396.4 158.824 396.4C 160.071 396.4 160.752 396.553 160.6 396.8C 160.447 397.048 161.188 397.2 162.553 397.2C 163.763 397.2 164.864 397.38 165 397.6C 165.136 397.82 166.137 398 167.224 398C 168.311 398 169.2 398.18 169.2 398.4C 169.2 398.633 170.522 398.8 172.367 398.8C 174.544 398.8 175.585 398.956 175.7 399.3C 175.943 400.03 223.33 400.03 224.06 399.3C 224.375 398.985 225.717 398.8 227.68 398.8C 229.493 398.8 230.8 398.632 230.8 398.4C 230.8 398.18 231.779 398 232.976 398C 234.173 398 235.264 397.82 235.4 397.6C 235.536 397.38 236.537 397.2 237.624 397.2C 238.711 397.2 239.6 397.02 239.6 396.8C 239.6 396.58 240.41 396.4 241.4 396.4C 242.39 396.4 243.2 396.22 243.2 396C 243.2 395.78 243.909 395.6 244.776 395.6C 245.643 395.6 246.464 395.42 246.6 395.2C 246.736 394.98 247.557 394.8 248.424 394.8C 249.291 394.8 250 394.62 250 394.4C 250 394.18 250.63 394 251.4 394C 252.17 394 252.8 393.82 252.8 393.6C 252.8 393.38 253.43 393.2 254.2 393.2C 254.97 393.2 255.6 393.02 255.6 392.8C 255.6 392.58 256.23 392.4 257 392.4C 257.77 392.4 258.4 392.22 258.4 392C 258.4 391.78 258.942 391.6 259.605 391.6C 260.268 391.6 261.123 391.436 261.505 391.235C 261.887 391.034 263.73 390.388 265.6 389.799C 267.47 389.21 269.763 388.385 270.696 387.964C 271.628 387.544 272.576 387.2 272.801 387.2C 273.026 387.2 273.523 387.041 273.905 386.847C 274.605 386.491 276.034 385.892 277.7 385.257C 278.195 385.068 279.382 384.528 280.338 384.057C 281.294 383.586 282.329 383.2 282.638 383.2C 282.947 383.2 283.2 383.02 283.2 382.8C 283.2 382.58 283.56 382.4 284 382.4C 284.44 382.4 284.8 382.22 284.8 382C 284.8 381.78 285.16 381.6 285.6 381.6C 286.04 381.6 286.4 381.42 286.4 381.2C 286.4 380.98 286.645 380.8 286.944 380.8C 287.711 380.8 292.4 378.336 292.4 377.933C 292.4 377.75 292.634 377.6 292.92 377.6C 293.656 377.6 295.593 376.659 295.597 376.3C 295.599 376.135 295.945 376 296.367 376C 296.788 376 297.193 375.865 297.267 375.7C 297.34 375.535 298.12 375.046 299 374.612C 299.88 374.179 301.743 373.144 303.141 372.312C 304.538 371.481 305.761 370.8 305.858 370.8C 305.954 370.8 306.42 370.44 306.892 370C 307.364 369.56 307.987 369.2 308.275 369.2C 308.564 369.2 308.8 369.02 308.8 368.8C 308.8 368.58 309.036 368.4 309.325 368.4C 309.613 368.4 310.236 368.04 310.708 367.6C 311.18 367.16 311.709 366.8 311.883 366.8C 312.057 366.799 312.74 366.334 313.4 365.765C 314.06 365.196 315.095 364.437 315.7 364.079C 316.305 363.721 316.8 363.286 316.8 363.114C 316.8 362.941 317.036 362.8 317.325 362.8C 317.613 362.8 318.236 362.44 318.708 362C 319.18 361.56 319.739 361.2 319.95 361.2C 320.161 361.2 320.393 361.048 320.467 360.863C 320.54 360.677 321.68 359.698 323 358.687C 324.32 357.676 325.923 356.388 326.562 355.824C 327.201 355.261 327.848 354.8 328 354.8C 328.152 354.8 329.261 353.845 330.466 352.678C 331.671 351.511 333.274 350.12 334.029 349.588C 334.783 349.055 336.788 347.175 338.484 345.41C 342.21 341.531 341.531 342.21 345.41 338.484C 347.175 336.788 349.055 334.783 349.588 334.029C 350.12 333.274 351.511 331.671 352.678 330.466C 353.845 329.261 354.8 328.152 354.8 328C 354.8 327.848 355.261 327.201 355.824 326.562C 356.388 325.923 357.676 324.32 358.687 323C 359.698 321.68 360.677 320.54 360.863 320.467C 361.048 320.393 361.2 320.161 361.2 319.95C 361.2 319.739 361.56 319.18 362 318.708C 362.44 318.236 362.8 317.613 362.8 317.325C 362.8 317.036 362.941 316.8 363.114 316.8C 363.286 316.8 363.721 316.305 364.079 315.7C 364.437 315.095 365.196 314.06 365.765 313.4C 366.334 312.74 366.799 312.057 366.8 311.883C 366.8 311.709 367.16 311.18 367.6 310.708C 368.04 310.236 368.4 309.613 368.4 309.325C 368.4 309.036 368.58 308.8 368.8 308.8C 369.02 308.8 369.2 308.564 369.2 308.275C 369.2 307.987 369.56 307.364 370 306.892C 370.44 306.42 370.8 305.954 370.8 305.858C 370.8 305.761 371.52 304.497 372.4 303.048C 373.28 301.6 374 300.253 374 300.056C 374 299.859 374.27 299.474 374.6 299.2C 374.93 298.926 375.2 298.364 375.2 297.951C 375.2 297.538 375.38 297.2 375.6 297.2C 375.82 297.2 376 296.84 376 296.4C 376 295.96 376.135 295.599 376.3 295.597C 376.659 295.593 377.6 293.656 377.6 292.92C 377.6 292.634 377.75 292.4 377.933 292.4C 378.336 292.4 380.8 287.711 380.8 286.944C 380.8 286.645 380.98 286.4 381.2 286.4C 381.42 286.4 381.6 286.04 381.6 285.6C 381.6 285.16 381.78 284.8 382 284.8C 382.22 284.8 382.4 284.44 382.4 284C 382.4 283.56 382.58 283.2 382.8 283.2C 383.02 283.2 383.2 282.947 383.2 282.638C 383.2 282.329 383.586 281.294 384.057 280.338C 384.528 279.382 385.092 278.15 385.31 277.6C 385.529 277.05 385.884 276.15 386.1 275.6C 386.316 275.05 386.652 274.287 386.847 273.905C 387.041 273.523 387.2 273.026 387.2 272.801C 387.2 272.576 387.544 271.628 387.964 270.696C 388.385 269.763 389.21 267.47 389.799 265.6C 390.388 263.73 391.034 261.887 391.235 261.505C 391.436 261.123 391.6 260.268 391.6 259.605C 391.6 258.942 391.78 258.4 392 258.4C 392.22 258.4 392.4 257.77 392.4 257C 392.4 256.23 392.58 255.6 392.8 255.6C 393.02 255.6 393.2 254.97 393.2 254.2C 393.2 253.43 393.38 252.8 393.6 252.8C 393.82 252.8 394 252.17 394 251.4C 394 250.63 394.18 250 394.4 250C 394.62 250 394.8 249.291 394.8 248.424C 394.8 247.557 394.98 246.736 395.2 246.6C 395.42 246.464 395.6 245.643 395.6 244.776C 395.6 243.909 395.78 243.2 396 243.2C 396.22 243.2 396.4 242.39 396.4 241.4C 396.4 240.41 396.58 239.6 396.8 239.6C 397.02 239.6 397.2 238.711 397.2 237.624C 397.2 236.537 397.38 235.536 397.6 235.4C 397.82 235.264 398 234.173 398 232.976C 398 231.779 398.18 230.8 398.4 230.8C 398.632 230.8 398.8 229.493 398.8 227.68C 398.8 225.717 398.985 224.375 399.3 224.06C 400.03 223.33 400.03 175.943 399.3 175.7C 398.956 175.585 398.8 174.544 398.8 172.367C 398.8 170.522 398.633 169.2 398.4 169.2C 398.18 169.2 398 168.311 398 167.224C 398 166.137 397.82 165.136 397.6 165C 397.38 164.864 397.2 163.763 397.2 162.553C 397.2 161.188 397.048 160.447 396.8 160.6C 396.553 160.752 396.4 160.071 396.4 158.824C 396.4 157.711 396.22 156.8 396 156.8C 395.78 156.8 395.6 156.091 395.6 155.224C 395.6 154.357 395.42 153.536 395.2 153.4C 394.98 153.264 394.8 152.443 394.8 151.576C 394.8 150.709 394.62 150 394.4 150C 394.18 150 394 149.471 394 148.824C 394 148.177 393.82 147.536 393.6 147.4C 393.38 147.264 393.2 146.533 393.2 145.776C 393.2 145.019 393.02 144.4 392.8 144.4C 392.58 144.4 392.4 143.948 392.4 143.395C 392.4 142.842 392.23 142.077 392.022 141.695C 391.635 140.984 391.011 138.041 391.133 137.5C 391.17 137.335 390.99 137.2 390.733 137.2C 390.477 137.2 390.369 137.098 390.494 136.973C 390.731 136.735 389.528 132.994 389.065 132.532C 388.919 132.386 388.8 131.934 388.8 131.528C 388.8 131.122 388.62 130.432 388.4 129.995C 388.18 129.558 387.82 128.842 387.6 128.405C 387.38 127.968 387.2 127.338 387.2 127.005C 387.2 126.672 387.02 126.4 386.8 126.4C 386.58 126.4 386.4 126.038 386.4 125.595C 386.4 125.152 386.241 124.477 386.047 124.095C 385.704 123.422 385.459 122.85 384.336 120.1C 384.044 119.385 383.669 118.8 383.502 118.8C 383.336 118.8 383.2 118.35 383.2 117.8C 383.2 117.25 383.02 116.8 382.8 116.8C 382.58 116.8 382.4 116.44 382.4 116C 382.4 115.56 382.22 115.2 382 115.2C 381.78 115.2 381.601 114.975 381.603 114.7C 381.608 113.947 378.335 107.6 377.942 107.6C 377.754 107.6 377.6 107.366 377.6 107.08C 377.6 106.344 376.659 104.407 376.3 104.403C 376.135 104.401 376 104.04 376 103.6C 376 103.16 375.82 102.8 375.6 102.8C 375.38 102.8 375.2 102.451 375.2 102.024C 375.2 101.597 375.039 101.147 374.841 101.026C 374.644 100.904 374.085 100.038 373.598 99.102C 373.112 98.166 371.743 95.909 370.557 94.086C 369.371 92.264 368.4 90.599 368.4 90.386C 368.4 90.174 368.22 90 368 90C 367.78 90 367.6 89.73 367.6 89.4C 367.6 89.07 367.42 88.8 367.2 88.8C 366.98 88.8 366.8 88.575 366.799 88.3C 366.799 88.025 366.259 87.17 365.6 86.4C 364.941 85.63 364.401 84.841 364.401 84.647C 364.4 84.453 364.084 84.003 363.697 83.647C 363.311 83.291 362.74 82.505 362.43 81.9C 362.119 81.295 361.715 80.8 361.532 80.8C 361.35 80.8 361.2 80.615 361.2 80.389C 361.2 80.162 360.653 79.397 359.985 78.689C 359.317 77.98 357.695 75.96 356.381 74.2C 353.365 70.161 350.887 67.346 345.6 61.951C 343.29 59.594 340.22 56.435 338.777 54.933C 337.335 53.43 335.175 51.39 333.979 50.4C 332.782 49.41 331.429 48.24 330.973 47.8C 329.806 46.675 326.831 44.272 326.053 43.826C 325.694 43.62 325.195 43.26 324.943 43.026C 322.987 41.201 317.727 37.2 317.285 37.2C 317.115 37.2 316.717 36.84 316.4 36.4C 316.083 35.96 315.638 35.6 315.412 35.599C 315.185 35.599 314.37 35.059 313.6 34.4C 312.83 33.741 311.99 33.201 311.733 33.201C 311.477 33.2 311.207 33.063 311.133 32.896C 311.06 32.729 309.965 31.971 308.7 31.212C 307.435 30.452 306.4 29.689 306.4 29.515C 306.4 29.342 306.216 29.2 305.992 29.2C 305.768 29.2 304.871 28.75 304 28.2C 303.129 27.65 302.142 27.2 301.808 27.2C 301.474 27.2 301.2 27.02 301.2 26.8C 301.2 26.58 300.93 26.4 300.6 26.4C 300.27 26.4 300 26.254 300 26.075C 300 25.896 299.37 25.502 298.6 25.2C 297.83 24.898 297.2 24.504 297.2 24.325C 297.2 24.146 296.84 24 296.4 24C 295.96 24 295.599 23.865 295.597 23.7C 295.593 23.341 293.656 22.4 292.92 22.4C 292.634 22.4 292.4 22.246 292.4 22.058C 292.4 21.737 287.392 19.126 284.5 17.939C 283.785 17.645 283.2 17.269 283.2 17.102C 283.2 16.936 282.928 16.8 282.595 16.8C 282.262 16.8 281.677 16.64 281.295 16.444C 280.345 15.957 276.802 14.377 275.7 13.949C 275.205 13.757 274.395 13.43 273.9 13.222C 270.995 12.002 265.117 10 264.441 10C 264.004 10 263.536 9.82 263.4 9.6C 263.264 9.38 262.724 9.2 262.2 9.2C 261.676 9.2 261.136 9.02 261 8.8C 260.864 8.58 260.223 8.4 259.576 8.4C 258.929 8.4 258.4 8.22 258.4 8C 258.4 7.78 257.77 7.6 257 7.6C 256.23 7.6 255.6 7.42 255.6 7.2C 255.6 6.98 254.97 6.8 254.2 6.8C 253.43 6.8 252.8 6.62 252.8 6.4C 252.8 6.18 252.17 6 251.4 6C 250.63 6 250 5.82 250 5.6C 250 5.38 249.291 5.2 248.424 5.2C 247.557 5.2 246.736 5.02 246.6 4.8C 246.464 4.58 245.643 4.4 244.776 4.4C 243.909 4.4 243.2 4.22 243.2 4C 243.2 3.78 242.39 3.6 241.4 3.6C 240.41 3.6 239.6 3.42 239.6 3.2C 239.6 2.98 238.711 2.8 237.624 2.8C 236.537 2.8 235.536 2.62 235.4 2.4C 235.264 2.18 234.184 2 233 2C 231.816 2 230.736 1.82 230.6 1.6C 230.464 1.38 229.028 1.2 227.41 1.2C 225.488 1.2 224.412 1.035 224.308 0.723C 224.112 0.137 185.045 -0.109 179.4 0.44M230.841 83.5C 233.551 86.085 237.591 90 239.818 92.2C 242.046 94.4 246.013 98.202 248.634 100.649C 251.255 103.095 255.485 107.145 258.034 109.649C 260.583 112.152 265.159 116.54 268.203 119.4C 271.247 122.26 275.294 126.13 277.197 128C 279.099 129.87 282.938 133.589 285.728 136.265L285.728 136.265L290.8 141.13L290.8 226.541C 290.8 283.051 290.665 312.036 290.4 312.2C 290.18 312.336 290 312.809 290 313.252C 290 315.36 286.28 319.429 282.8 321.127L282.8 321.127L280.6 322.2L199.4 322.2L118.2 322.2L116.296 321.313C 113.91 320.2 110.832 317.342 109.856 315.332C 109.446 314.49 108.906 313.44 108.656 313C 108.328 312.424 108.167 302.886 108.083 278.915L108.083 278.915L107.966 245.631L99.683 245.466C 91.417 245.301 88.588 245.028 88.173 244.356C 88.052 244.16 87.603 244 87.176 244C 86.749 244 86.4 243.864 86.4 243.698C 86.4 243.531 85.855 243.154 85.19 242.86C 82.732 241.772 80.336 238.735 78.231 234.039C 77.604 232.642 77.631 178.474 78.259 177.161C 78.512 176.632 78.996 175.57 79.336 174.8C 81.021 170.984 84.69 167.917 89.4 166.391C 90.38 166.073 94.254 165.781 99.4 165.636L99.4 165.636L107.8 165.4L108 127.2C 108.143 99.81 108.328 88.774 108.653 88.2C 108.903 87.76 109.353 86.876 109.653 86.235C 110.993 83.377 113.778 81.056 118 79.276C 118.683 78.988 135.949 78.846 172.457 78.827L172.457 78.827L225.913 78.8L230.841 83.5zM132.1 191.476C 132.485 191.576 133.115 191.576 133.5 191.476C 133.885 191.375 133.57 191.293 132.8 191.293C 132.03 191.293 131.715 191.375 132.1 191.476M189.7 191.476C 190.085 191.576 190.715 191.576 191.1 191.476C 191.485 191.375 191.17 191.293 190.4 191.293C 189.63 191.293 189.315 191.375 189.7 191.476M152.828 191.8C 152.828 192.02 153.086 192.65 153.4 193.2C 153.714 193.75 153.972 194.02 153.972 193.8C 153.972 193.58 153.714 192.95 153.4 192.4C 153.086 191.85 152.828 191.58 152.828 191.8M135.999 193.1C 136.522 193.815 137.013 194.4 137.089 194.4C 137.393 194.4 136.401 192.9 135.745 192.367C 135.313 192.016 135.41 192.296 135.999 193.1M108.573 203C 108.573 208.5 108.63 210.805 108.699 208.123C 108.768 205.441 108.768 200.941 108.699 198.123C 108.63 195.305 108.574 197.5 108.573 203M114.175 203.8C 114.175 209.74 114.231 212.226 114.299 209.324C 114.367 206.422 114.367 201.562 114.299 198.524C 114.231 195.486 114.175 197.86 114.175 203.8M182.313 203.781C 181.942 204.781 181.717 205.6 181.814 205.6C 182.093 205.6 183.231 202.694 183.103 202.309C 183.039 202.118 182.684 202.78 182.313 203.781M137.07 209.486L137.295 210.773L132.747 210.901L128.2 211.029L132.713 211.114C 137.602 211.207 138.186 210.946 137.274 209.078C 136.899 208.312 136.873 208.364 137.07 209.486M185.734 210C 185.801 211.022 194.317 211.84 195.248 210.914C 195.421 210.741 193.425 210.655 190.812 210.723C 186.129 210.844 186.059 210.833 185.865 209.923C 185.684 209.069 185.674 209.074 185.734 210M160.812 214.651C 160.795 215.303 161.892 216.114 162.382 215.811C 162.612 215.669 162.779 215.248 162.754 214.876C 162.712 214.267 162.689 214.269 162.524 214.9C 162.424 215.285 162.183 215.6 161.991 215.6C 161.798 215.6 161.456 215.285 161.232 214.9C 161.008 214.515 160.819 214.403 160.812 214.651M132.572 215.5C 136.817 215.581 139.153 215.784 139.572 216.111C 140.126 216.542 140.135 216.517 139.651 215.9C 139.163 215.278 138.384 215.21 132.651 215.289L132.651 215.289L126.2 215.378L132.572 215.5zM187.1 215.498C 188.915 215.572 191.885 215.572 193.7 215.498C 195.515 215.423 194.03 215.363 190.4 215.363C 186.77 215.363 185.285 215.423 187.1 215.498M105.8 218.027C 105.14 218.45 104.805 218.797 105.056 218.798C 105.306 218.799 105.936 218.446 106.456 218.013C 107.645 217.023 107.359 217.029 105.8 218.027M176.243 219.433C 175.908 220.305 175.938 221.515 176.3 221.737C 176.465 221.838 176.609 221.218 176.619 220.36C 176.641 218.626 176.595 218.514 176.243 219.433" stroke="none" fill="#D4DBBB" fill-rule="nonzero" />
        <path d="M171.6 79.6L118.2 79.8L116.276 80.755C 114.015 81.878 111.05 84.717 110.25 86.524C 109.94 87.226 109.531 88.16 109.343 88.6C 109.154 89.04 108.91 106.68 108.8 127.8L108.8 127.8L108.6 166.2L99.6 166.45C 94.65 166.588 90.055 166.879 89.389 167.097C 84.306 168.761 80.481 172.569 79.005 177.434C 78.091 180.446 78.12 231.36 79.037 234C 80.724 238.857 83.753 241.935 88.8 243.918C 89.77 244.299 92.963 244.535 99.2 244.684C 105.201 244.828 108.298 245.05 108.494 245.35C 108.656 245.598 108.791 260.507 108.794 278.481C 108.798 301.738 108.93 311.485 109.25 312.281C 110.22 314.695 110.632 315.454 111.747 316.881C 113.122 318.642 115.333 320.172 117.688 320.992C 120.813 322.08 278.815 321.883 281.744 320.787C 285.948 319.214 288.951 315.588 289.95 310.88C 290.275 309.35 290.4 285.552 290.4 225.222L290.4 225.222L290.4 141.683L281.506 133.141C 276.614 128.444 270.179 122.234 267.206 119.343C 264.233 116.452 260.013 112.402 257.828 110.343C 255.643 108.284 250.873 103.695 247.228 100.144C 243.583 96.594 239.97 93.105 239.2 92.392C 238.43 91.68 235.041 88.465 231.669 85.248C 228.298 82.032 225.418 79.4 225.269 79.4C 225.121 79.4 200.97 79.49 171.6 79.6M113.32 191.302C 115.189 192.8 115.915 203.899 114.788 213.736C 114.245 218.48 111.569 222.8 109.174 222.8C 108.774 222.8 108.336 222.98 108.2 223.2C 107.698 224.013 100.17 223.68 98.512 222.772C 96.714 221.787 94.4 219.286 94.4 218.328C 94.4 217.954 94.22 217.536 94 217.4C 93.78 217.264 93.6 215.916 93.6 214.404C 93.6 208.318 98.855 208.53 100.177 214.668C 100.892 217.991 104.243 219.109 106.44 216.758L106.44 216.758L107.6 215.515L107.6 205.007C 107.6 193.713 107.797 192.395 109.679 191.084C 110.961 190.191 112.012 190.254 113.32 191.302M134.518 190.991C 135.95 191.59 137.6 193.458 137.6 194.482C 137.6 194.789 137.753 195.211 137.94 195.42C 138.128 195.629 138.773 197.06 139.374 198.6C 139.975 200.14 140.741 202.03 141.074 202.8C 141.892 204.684 142.447 206.037 142.8 207C 142.961 207.44 143.273 208.25 143.493 208.8C 143.713 209.35 144.121 210.34 144.4 211C 144.679 211.66 145.039 212.56 145.2 213C 145.361 213.44 145.721 214.34 146 215C 148.665 221.308 148.272 223.6 144.523 223.6C 142.421 223.6 141.564 222.636 139.9 218.4C 138.991 216.085 139.372 216.2 132.605 216.2L132.605 216.2L126.296 216.2L125.671 218.2C 124.434 222.155 123.493 223.385 121.595 223.525C 117.127 223.857 117.076 220.394 121.404 210.6C 121.696 209.94 122.236 208.59 122.604 207.6C 123.278 205.791 123.615 204.933 124.454 202.9C 124.703 202.295 125.087 201.35 125.307 200.8C 125.527 200.25 125.887 199.35 126.107 198.8C 126.327 198.25 126.663 197.395 126.854 196.9C 129.006 191.308 131.21 189.609 134.518 190.991M152.838 191.227C 153.477 191.682 154 192.278 154 192.552C 154 192.826 154.36 193.795 154.8 194.706C 155.24 195.616 155.6 196.629 155.6 196.957C 155.6 197.285 155.78 197.664 156 197.8C 156.22 197.936 156.4 198.476 156.4 199C 156.4 199.524 156.58 200.064 156.8 200.2C 157.02 200.336 157.2 200.876 157.2 201.4C 157.2 201.924 157.38 202.464 157.6 202.6C 157.82 202.736 158 203.276 158 203.8C 158 204.324 158.18 204.864 158.4 205C 158.62 205.136 158.8 205.676 158.8 206.2C 158.8 206.724 158.98 207.264 159.2 207.4C 159.42 207.536 159.6 208.076 159.6 208.6C 159.6 209.124 159.744 209.642 159.921 209.751C 160.097 209.86 160.492 210.867 160.797 211.989C 161.448 214.379 162.4 215.498 162.4 213.873C 162.4 213.309 162.58 212.736 162.8 212.6C 163.02 212.464 163.2 212.001 163.2 211.571C 163.2 211.141 163.36 210.477 163.556 210.095C 163.751 209.713 165.128 205.71 166.615 201.2C 170.139 190.515 170.745 189.617 173.622 190.809C 175.511 191.592 176.826 194.643 175.6 195.4C 175.38 195.536 175.2 195.999 175.2 196.429C 175.2 197.184 175.056 197.574 174.062 199.495C 173.808 199.987 173.6 200.664 173.6 201C 173.6 201.336 173.441 201.923 173.247 202.305C 172.771 203.24 172.182 204.707 171.6 206.4C 171.336 207.17 170.975 208.16 170.799 208.6C 170.622 209.04 170.115 210.39 169.671 211.6C 165.494 222.99 165.09 223.6 161.718 223.6C 159.606 223.6 156.8 221.634 156.8 220.155C 156.8 219.844 156.634 219.277 156.432 218.895C 156.23 218.513 155.69 217.165 155.232 215.9C 154.774 214.635 154.051 212.655 153.625 211.5C 153.199 210.345 152.097 207.33 151.177 204.8C 150.258 202.27 149.076 199.031 148.552 197.602C 146.635 192.371 149.164 188.611 152.838 191.227M192.127 190.995C 193.524 191.579 195.6 193.819 195.6 194.743C 195.6 195 195.759 195.523 195.953 195.905C 196.323 196.632 197.091 198.435 197.613 199.8C 197.781 200.24 198.188 201.23 198.518 202C 198.847 202.77 199.962 205.56 200.996 208.2C 202.029 210.84 203.113 213.54 203.404 214.2C 206.305 220.769 205.974 223.6 202.304 223.6C 200.139 223.6 199.516 222.961 197.986 219.166L197.986 219.166L196.71 216L190.428 216L184.146 216L183.472 218.1C 182.172 222.15 181.211 223.383 179.243 223.525C 176.351 223.734 174.628 221.099 175.953 218.495C 176.148 218.113 176.484 217.35 176.7 216.8C 177.389 215.046 178.083 213.421 178.447 212.705C 178.641 212.323 178.8 211.826 178.8 211.601C 178.8 211.376 179.178 210.338 179.64 209.296C 180.7 206.902 180.672 206.973 183.441 199.8C 186.071 192.986 186.761 191.797 188.537 191.019C 190.192 190.294 190.444 190.292 192.127 190.995M189.611 200.731C 189.311 201.759 188.925 202.87 188.754 203.2C 188.016 204.621 186.432 209.729 186.63 210.049C 187.13 210.858 194.4 210.46 194.4 209.624C 194.4 209.197 194.22 208.736 194 208.6C 193.78 208.464 193.6 208.001 193.6 207.571C 193.6 206.816 193.456 206.426 192.462 204.505C 192.208 204.013 192 203.259 192 202.829C 192 202.399 191.82 201.936 191.6 201.8C 191.38 201.664 191.194 201.248 191.187 200.876C 191.151 198.939 190.161 198.848 189.611 200.731M131.634 201.681C 131.146 203.066 130.401 205.1 129.978 206.2C 128.456 210.155 128.474 210.183 132.564 210.316C 137.134 210.466 137.052 210.656 134.934 204.8C 132.692 198.598 132.713 198.618 131.634 201.681" stroke="none" fill="#DB6F26" fill-rule="nonzero" />
        <path d="M109.3 192.198C 108.93 192.619 108.8 195.246 108.8 202.316C 108.8 215.939 107.979 218.8 104.07 218.8C 101.726 218.8 100.409 217.51 99.248 214.076C 97.82 209.853 94.346 209.566 94.08 213.647C 93.427 223.697 108.813 227.137 113.116 217.904C 114.242 215.489 114.512 193.255 113.429 192.171C 112.696 191.439 109.953 191.457 109.3 192.198M129.941 192.3C 129.212 193.176 127.491 196.821 126.4 199.8C 125.963 200.994 125.153 202.908 124.753 203.695C 124.559 204.077 124.4 204.574 124.4 204.799C 124.4 205.024 124.06 205.972 123.644 206.904C 118.274 218.953 117.664 223.2 121.304 223.2C 122.319 223.2 124 221.475 124 220.433C 124 220.189 124.18 219.632 124.4 219.195C 124.62 218.758 124.98 218.042 125.2 217.605C 125.42 217.168 125.6 216.542 125.6 216.213C 125.6 215.31 126.851 215.16 133.357 215.285C 139.773 215.409 139.357 215.26 140.4 217.8C 140.671 218.46 141.052 219.313 141.247 219.695C 141.441 220.077 141.6 220.57 141.6 220.792C 141.6 221.663 143.378 223.2 144.372 223.187C 146.702 223.158 147.549 220.941 146.4 217.879C 145.611 215.778 145.33 215.056 144.854 213.9C 144.604 213.295 144.196 212.305 143.946 211.7C 143.697 211.095 143.355 210.24 143.186 209.8C 143.018 209.36 142.502 208.147 142.04 207.104C 141.578 206.062 141.2 205.115 141.2 205C 141.2 204.885 140.822 203.938 140.36 202.896C 139.069 199.981 138.601 198.826 137.57 196C 136.078 191.914 131.936 189.905 129.941 192.3M148.771 192.455C 148.015 193.866 148.659 196.065 154.02 210.4C 154.719 212.27 155.382 214.208 155.493 214.706C 155.605 215.204 155.854 215.71 156.048 215.83C 156.241 215.949 156.4 216.399 156.4 216.829C 156.4 217.259 156.559 217.923 156.753 218.305C 156.948 218.687 157.353 219.54 157.653 220.2C 158.965 223.08 161.356 223.956 163.813 222.458C 165.126 221.656 165.618 220.69 167.809 214.6C 169.452 210.036 170.731 206.565 171.2 205.4C 171.377 204.96 171.917 203.52 172.4 202.2C 173.278 199.799 173.671 198.787 174.377 197.1C 175.771 193.77 175.025 191.6 172.487 191.6C 170.502 191.6 170.658 191.278 166.353 204.254C 161.896 217.691 161.73 217.947 160.463 213.331C 160.172 212.269 159.78 211.04 159.593 210.6C 159.406 210.16 158.869 208.63 158.4 207.2C 157.931 205.77 157.4 204.24 157.219 203.8C 157.039 203.36 156.659 202.19 156.376 201.2C 156.093 200.21 155.712 199.229 155.53 199.02C 155.349 198.811 155.2 198.314 155.2 197.915C 155.2 197.516 155.041 196.877 154.846 196.495C 154.651 196.113 154.08 194.855 153.577 193.7C 152.515 191.26 149.788 190.553 148.771 192.455M187.653 192.543C 186.909 193.336 183.215 201.591 183.204 202.488C 183.202 202.647 182.75 203.76 182.2 204.963C 181.65 206.165 181.2 207.268 181.2 207.414C 181.2 207.56 180.912 208.336 180.559 209.14C 179.749 210.985 179.174 212.379 178.8 213.4C 178.404 214.481 177.575 216.462 177.203 217.215C 175.775 220.107 176.62 223.2 178.838 223.2C 180.458 223.2 180.848 222.737 182.201 219.2C 183.847 214.899 183.231 215.2 190.387 215.2C 197.45 215.2 197.413 215.186 198.383 218.268C 199.746 222.605 201.721 224.18 203.793 222.586C 205.36 221.38 203.073 213.947 196.752 199.704C 196.339 198.772 196 197.824 196 197.599C 196 197.374 195.841 196.877 195.647 196.495C 195.452 196.113 195.047 195.26 194.747 194.6C 193.331 191.493 189.644 190.424 187.653 192.543M191.6 199.85C 191.6 200.158 191.78 200.768 192 201.205C 192.22 201.642 192.58 202.358 192.8 202.795C 193.02 203.232 193.2 203.864 193.2 204.2C 193.2 204.536 193.359 205.123 193.553 205.505C 194.669 207.699 195.614 210.652 195.301 210.966C 195.172 211.095 193.021 211.2 190.521 211.2C 185.094 211.2 185.101 211.207 186.589 207.117C 187.173 205.513 187.918 203.39 188.245 202.4C 188.573 201.41 188.995 200.24 189.184 199.8C 189.373 199.36 189.647 198.64 189.793 198.2C 190.095 197.292 191.6 198.666 191.6 199.85M135.306 203.6C 136.404 206.57 137.324 209.45 137.351 210L137.351 210L137.4 211L132.805 211C 127.823 211 127.319 210.735 128.332 208.647C 128.742 207.803 130.287 203.522 131.496 199.883C 132.47 196.949 133.058 197.523 135.306 203.6" stroke="none" fill="#FCFBFB" fill-rule="nonzero" />
        <path d="M119.8 79.254C 115.477 80.042 111.65 82.886 109.728 86.739L109.728 86.739L108.6 89L108.494 127.166C 108.412 156.734 108.277 165.467 107.894 165.931C 107.491 166.42 107.51 166.494 108 166.332C 108.526 166.158 108.625 161.397 108.8 127.767C 108.91 106.665 109.154 89.04 109.343 88.6C 110.808 85.18 111.947 83.671 114.4 81.895C 117.727 79.487 114.628 79.61 172.66 79.596L172.66 79.596L225.718 79.583L231.759 85.339C 235.081 88.506 238.43 91.68 239.2 92.392C 239.97 93.105 243.583 96.594 247.228 100.144C 250.873 103.695 255.643 108.284 257.828 110.343C 260.013 112.402 264.233 116.452 267.206 119.343C 270.179 122.234 276.614 128.444 281.506 133.141L281.506 133.141L290.4 141.683L290.4 225.222C 290.4 285.552 290.275 309.35 289.95 310.88C 288.951 315.588 285.948 319.214 281.744 320.787C 278.815 321.883 120.813 322.08 117.688 320.992C 115.333 320.172 113.122 318.642 111.747 316.881C 110.632 315.454 110.22 314.695 109.25 312.281C 108.93 311.485 108.798 301.738 108.794 278.481C 108.791 260.507 108.656 245.598 108.494 245.35C 108.298 245.05 105.201 244.828 99.2 244.684C 92.963 244.535 89.77 244.299 88.8 243.918C 83.753 241.935 80.724 238.857 79.037 234C 78.12 231.36 78.091 180.446 79.005 177.434C 80.192 173.521 82.701 170.466 86.403 168.425C 87.611 167.759 88.385 167.211 88.123 167.207C 85.409 167.166 80.208 172.698 78.587 177.347C 77.708 179.872 77.734 231.404 78.617 233.937C 80.456 239.218 83.501 242.23 89.4 244.604C 89.84 244.781 94.25 245.033 99.2 245.163L99.2 245.163L108.2 245.4L108.4 278.6C 108.51 296.86 108.754 312.16 108.943 312.6C 110.15 315.417 110.581 316.178 111.673 317.422C 113.332 319.311 114.856 320.343 117.315 321.242C 119.934 322.199 278.51 322.443 281.2 321.494C 284.888 320.193 288.563 316.633 289.827 313.138C 290.581 311.054 290.603 308.873 290.704 226.358L290.704 226.358L290.807 141.716L284.504 135.545C 281.037 132.151 276.31 127.58 274 125.387C 271.691 123.194 267.101 118.78 263.8 115.578C 260.5 112.376 255.73 107.793 253.2 105.393C 250.67 102.994 246.08 98.586 243 95.598C 239.92 92.611 235.69 88.539 233.6 86.55C 231.51 84.561 228.826 82.004 227.635 80.867L227.635 80.867L225.47 78.8L173.635 78.845C 144.397 78.87 120.928 79.048 119.8 79.254M89.2 166.803C 88.79 167.07 89.235 167.114 90.6 166.941C 91.7 166.801 92.675 166.623 92.767 166.544C 93.164 166.201 89.741 166.45 89.2 166.803M110.263 190.7C 110.162 190.865 110.683 191.013 111.42 191.029C 112.157 191.045 112.668 190.91 112.556 190.729C 112.302 190.317 110.512 190.295 110.263 190.7M131.726 190.714C 131.465 190.88 131.977 191.034 132.869 191.057C 133.911 191.085 134.292 190.978 133.942 190.756C 133.273 190.332 132.354 190.314 131.726 190.714M149.862 190.7C 149.76 190.865 150.272 191 151 191C 151.728 191 152.24 190.865 152.138 190.7C 152.036 190.535 151.524 190.4 151 190.4C 150.476 190.4 149.964 190.535 149.862 190.7M170.952 191.164C 169.864 191.827 168.503 194.236 168.958 194.692C 169.047 194.781 169.336 194.2 169.599 193.402C 170.283 191.33 172.161 190.449 173.936 191.367C 174.631 191.726 175.2 191.931 175.2 191.821C 175.2 191.579 172.972 190.399 172.52 190.401C 172.344 190.402 171.639 190.745 170.952 191.164M189.323 190.715C 189.061 190.882 189.543 191.018 190.4 191.018C 191.257 191.018 191.739 190.882 191.477 190.715C 191.214 190.549 190.73 190.412 190.4 190.412C 190.07 190.412 189.586 190.549 189.323 190.715M113.728 191.856C 113.908 192.127 114.208 192.855 114.393 193.474C 114.667 194.387 114.738 194.438 114.766 193.744C 114.785 193.274 114.485 192.545 114.1 192.125C 113.715 191.706 113.547 191.584 113.728 191.856M148.223 192.089C 147.535 193.071 147.409 195.079 147.979 195.979C 148.217 196.356 148.267 195.976 148.121 194.888C 147.962 193.704 148.089 192.923 148.558 192.208C 149.372 190.965 149.082 190.862 148.223 192.089M186.667 192.5C 186.131 193.215 185.576 194.25 185.432 194.8C 185.286 195.362 185.529 195.1 185.988 194.2C 186.438 193.32 187.184 192.285 187.647 191.9C 188.11 191.515 188.298 191.2 188.065 191.2C 187.831 191.2 187.202 191.785 186.667 192.5M193.673 192.177C 194.044 192.63 194.628 193.54 194.971 194.2C 195.314 194.86 195.596 195.115 195.598 194.767C 195.599 194.418 195.015 193.508 194.3 192.743C 193.585 191.979 193.303 191.724 193.673 192.177M175.4 194C 175.4 194.838 175.535 195.44 175.7 195.338C 175.865 195.236 176 194.634 176 194C 176 193.366 175.865 192.764 175.7 192.662C 175.535 192.56 175.4 193.162 175.4 194M107.849 193.815C 107.712 194.173 107.638 199.176 107.685 204.933L107.685 204.933L107.769 215.4L107.985 204.4C 108.216 192.57 108.22 192.85 107.849 193.815M114.97 203.2C 114.97 207.93 115.028 209.865 115.098 207.5C 115.169 205.135 115.169 201.265 115.098 198.9C 115.028 196.535 114.97 198.47 114.97 203.2M183.45 199.591C 182.547 201.847 182.687 202.183 183.637 200.042C 184.066 199.075 184.345 198.212 184.258 198.125C 184.171 198.038 183.808 198.698 183.45 199.591M132.289 198.644C 132.13 198.803 132.003 199.218 132.006 199.567C 132.011 200.114 132.063 200.12 132.386 199.61C 132.69 199.128 132.831 199.201 133.154 200.01C 133.375 200.564 133.56 200.726 133.575 200.376C 133.608 199.555 132.658 198.275 132.289 198.644M198.839 203.7C 199.715 205.923 200.302 206.858 199.802 205.235C 199.325 203.687 198.406 201.6 198.2 201.6C 198.097 201.6 198.384 202.545 198.839 203.7M165.8 203.2C 165.65 203.673 165.617 204.15 165.727 204.26C 165.837 204.37 166.05 204.073 166.2 203.6C 166.35 203.127 166.383 202.65 166.273 202.54C 166.163 202.43 165.95 202.727 165.8 203.2M129.877 205.477C 129.5 206.493 129.258 207.391 129.338 207.472C 129.419 207.552 129.8 206.793 130.185 205.785C 130.57 204.776 130.812 203.879 130.723 203.79C 130.635 203.701 130.254 204.46 129.877 205.477M136.25 208.4C 136.383 208.95 136.516 209.58 136.546 209.8C 136.579 210.042 135.103 210.2 132.8 210.2L132.8 210.2L129 210.2L129.088 209C 129.161 207.995 129.117 207.93 128.816 208.6C 127.881 210.681 128.085 210.8 132.576 210.8C 137.188 210.8 137.494 210.642 136.614 208.722C 136.194 207.804 136.082 207.706 136.25 208.4M186.187 209.24C 185.754 210.604 186.455 210.837 190.631 210.715C 193.809 210.623 194.599 210.482 194.634 210C 194.661 209.626 194.613 209.593 194.506 209.914C 194.154 210.976 186.581 210.381 186.695 209.3C 186.815 208.167 186.538 208.135 186.187 209.24M200.846 208.6C 200.853 208.82 201.206 209.72 201.629 210.6C 202.052 211.48 202.286 211.75 202.149 211.2C 201.867 210.067 200.825 207.988 200.846 208.6M152.816 209.054C 152.807 209.304 153.063 210.114 153.384 210.854C 153.706 211.594 153.976 211.996 153.984 211.746C 153.993 211.496 153.737 210.686 153.416 209.946C 153.094 209.206 152.824 208.804 152.816 209.054M95.462 210.3C 95.36 210.465 95.872 210.6 96.6 210.6C 97.328 210.6 97.84 210.465 97.738 210.3C 97.636 210.135 97.124 210 96.6 210C 96.076 210 95.564 210.135 95.462 210.3M114.238 215.143C 114.06 216.723 113.584 218.1 112.776 219.373C 112.118 220.411 111.762 221.147 111.985 221.009C 113.343 220.17 115.787 212.8 114.707 212.8C 114.595 212.8 114.384 213.854 114.238 215.143M119.65 215.05C 119.173 216.296 118.85 217.384 118.933 217.466C 119.015 217.549 119.473 216.596 119.95 215.35C 120.427 214.104 120.75 213.016 120.667 212.934C 120.585 212.851 120.127 213.804 119.65 215.05M154.55 213.8C 154.82 215.001 156.233 218.766 156.522 219.056C 156.661 219.195 156.621 218.789 156.433 218.154C 155.973 216.605 154.322 212.787 154.55 213.8M100.002 215.258C 99.99 218.577 105.624 219.371 107.259 216.279C 107.569 215.694 107.315 215.834 106.502 216.7C 104.5 218.828 101.973 218.441 100.62 215.8C 100.267 215.111 100.004 214.88 100.002 215.258M126.261 215.9C 126.159 216.065 128.864 216.146 132.272 216.08C 136.637 215.996 138.64 216.101 139.044 216.437C 139.51 216.824 139.571 216.79 139.366 216.257C 139.098 215.558 126.683 215.22 126.261 215.9M183.738 216.217C 183.608 216.557 183.613 216.947 183.751 217.084C 183.888 217.221 184 217.033 184 216.667C 184 215.514 196.642 215.673 197.01 216.83C 197.154 217.287 197.361 217.572 197.469 217.464C 197.577 217.357 197.464 216.893 197.218 216.434C 196.621 215.319 184.16 215.118 183.738 216.217M182 220.61C 181.23 222.218 180.802 223.366 181.048 223.161C 181.547 222.746 183.75 218.011 183.536 217.813C 183.461 217.744 182.77 219.002 182 220.61M94.425 218.6C 94.425 218.82 94.69 219.349 95.013 219.776C 95.336 220.204 95.6 220.373 95.6 220.153C 95.6 219.933 95.336 219.404 95.013 218.976C 94.69 218.549 94.425 218.38 94.425 218.6M175.867 218.667C 175.152 219.381 175.632 221.89 176.663 222.83L176.663 222.83L177.727 223.8L176.807 222.525C 176.098 221.543 175.94 220.924 176.118 219.825C 176.357 218.358 176.324 218.209 175.867 218.667M204.981 220.367C 204.991 221.221 205.135 221.838 205.3 221.737C 205.691 221.497 205.675 219.938 205.275 219.307C 205.094 219.023 204.97 219.473 204.981 220.367M147.455 220.105C 147.59 220.741 147.476 221.467 147.188 221.815C 146.912 222.147 146.771 222.505 146.876 222.609C 147.407 223.141 148.108 220.772 147.675 219.907C 147.245 219.048 147.234 219.058 147.455 220.105M156.827 220C 156.826 220.33 157.09 220.949 157.413 221.376C 158.16 222.364 158.152 221.715 157.4 220.4C 157.068 219.82 156.828 219.652 156.827 220M165.246 221.624C 164.748 222.297 163.949 223.006 163.47 223.198C 162.849 223.449 162.788 223.557 163.259 223.575C 163.818 223.596 166.4 221.14 166.4 220.586C 166.4 220.191 166.118 220.444 165.246 221.624M110.056 222.034C 109.536 222.455 109.266 222.794 109.456 222.787C 109.944 222.769 111.376 221.643 111.171 221.439C 111.077 221.345 110.575 221.613 110.056 222.034M123.26 222.405C 122.774 223.062 122.541 223.6 122.742 223.6C 123.159 223.6 124.549 221.615 124.304 221.37C 124.215 221.282 123.746 221.748 123.26 222.405M141.2 221.464C 141.2 221.682 141.695 222.297 142.3 222.83L142.3 222.83L143.4 223.8L142.4 222.6C 141.85 221.94 141.355 221.325 141.3 221.233C 141.245 221.142 141.2 221.245 141.2 221.464" stroke="none" fill="#D9A17A" fill-rule="nonzero" />
        <path d="M118.4 79.212C 117.981 79.491 118.342 79.533 119.6 79.35C 121.841 79.025 122.16 78.798 120.367 78.806C 119.615 78.809 118.73 78.992 118.4 79.212M231.6 84.679C 234.35 87.342 236.654 89.47 236.72 89.407C 236.886 89.25 228.631 81.235 227.508 80.462C 227.009 80.118 228.85 82.016 231.6 84.679M112.174 82.907L110.6 84.599L112.196 83.199C 113.073 82.43 113.868 81.755 113.962 81.7C 114.056 81.645 114.047 81.513 113.941 81.407C 113.835 81.301 113.04 81.976 112.174 82.907M107.999 128.4L107.8 165.4L99.085 165.648C 87.709 165.972 87.481 166.4 98.684 166.4C 105.627 166.4 107.598 166.284 107.953 165.856C 108.282 165.46 108.376 155.332 108.301 128.356L108.301 128.356L108.198 91.4L107.999 128.4zM245.486 97.999C 246.633 99.189 247.631 100.08 247.703 99.981C 247.776 99.881 246.837 98.908 245.618 97.818L245.618 97.818L243.4 95.836L245.486 97.999zM252.455 104.716C 254.955 107.143 257.06 109.07 257.133 108.998C 257.303 108.832 248.865 100.649 248.32 100.452C 248.095 100.37 249.956 102.289 252.455 104.716M269.977 121.46C 274.06 125.453 277.466 128.656 277.547 128.579C 277.696 128.438 276.103 126.854 270.753 121.824C 263.334 114.85 263.113 114.746 269.977 121.46M284.38 135.287C 286.679 137.645 288.644 139.49 288.746 139.387C 288.849 139.284 288.853 139.155 288.754 139.1C 288.655 139.045 286.69 137.2 284.387 135L284.387 135L280.2 131L284.38 135.287zM289.2 139.755C 289.2 139.908 289.56 140.42 290 140.892C 290.44 141.364 290.8 141.565 290.8 141.337C 290.8 141.11 290.44 140.598 290 140.2C 289.56 139.802 289.2 139.601 289.2 139.755M85.745 167.917C 84.267 168.721 81.887 170.747 81.416 171.6C 81.233 171.93 81.875 171.455 82.842 170.543C 83.809 169.632 85.185 168.593 85.9 168.233C 86.615 167.874 87.2 167.494 87.2 167.39C 87.2 167.13 87.169 167.142 85.745 167.917M77.788 205.6C 77.788 219.13 77.838 224.665 77.9 217.9C 77.961 211.135 77.961 200.065 77.9 193.3C 77.838 186.535 77.788 192.07 77.788 205.6M110 191.218C 109.562 191.515 109.724 191.552 110.6 191.356C 112.071 191.027 112.39 190.798 111.367 190.806C 110.945 190.809 110.33 190.995 110 191.218M149.738 191.106C 149.484 191.268 150.052 191.4 151 191.4C 151.948 191.4 152.516 191.268 152.262 191.106C 152.008 190.944 151.44 190.812 151 190.812C 150.56 190.812 149.992 190.944 149.738 191.106M192 191.482C 192.33 191.603 193.05 192.084 193.6 192.551L193.6 192.551L194.6 193.4L193.63 192.3C 193.097 191.695 192.377 191.214 192.03 191.232C 191.491 191.259 191.486 191.295 192 191.482M108.173 203.8C 108.173 209.08 108.23 211.185 108.299 208.477C 108.368 205.769 108.368 201.449 108.299 198.877C 108.229 196.305 108.172 198.52 108.173 203.8M114.572 203.6C 114.572 208.77 114.629 210.885 114.699 208.3C 114.768 205.715 114.768 201.485 114.699 198.9C 114.629 196.315 114.572 198.43 114.572 203.6M180.577 222.838C 180.428 223.078 179.623 223.21 178.787 223.13C 177.951 223.05 177.353 223.124 177.457 223.293C 177.794 223.837 180.286 223.619 180.8 223C 181.074 222.67 181.197 222.4 181.073 222.4C 180.949 222.4 180.726 222.597 180.577 222.838M102.1 223.491C 102.925 223.578 104.275 223.578 105.1 223.491C 105.925 223.405 105.25 223.334 103.6 223.334C 101.95 223.334 101.275 223.405 102.1 223.491M120.5 223.476C 120.885 223.576 121.515 223.576 121.9 223.476C 122.285 223.375 121.97 223.293 121.2 223.293C 120.43 223.293 120.115 223.375 120.5 223.476M143.7 223.476C 144.085 223.576 144.715 223.576 145.1 223.476C 145.485 223.375 145.17 223.293 144.4 223.293C 143.63 223.293 143.315 223.375 143.7 223.476M160.9 223.476C 161.285 223.576 161.915 223.576 162.3 223.476C 162.685 223.375 162.37 223.293 161.6 223.293C 160.83 223.293 160.515 223.375 160.9 223.476M78.8 235.353C 78.8 235.782 79.99 238 80.221 238C 80.331 238 80.123 237.415 79.759 236.7C 79.017 235.24 78.8 234.936 78.8 235.353M81.23 239.482C 82.7 241.122 82.937 241.352 83.802 241.979C 84.241 242.297 83.707 241.622 82.615 240.479C 80.556 238.323 79.527 237.582 81.23 239.482M91.337 245.294C 91.592 245.456 95.444 245.591 99.898 245.594L99.898 245.594L107.995 245.6L108.1 277.7L108.205 309.8L108.302 277.687C 108.38 252.285 108.296 245.539 107.9 245.405C 107.002 245.1 90.861 244.992 91.337 245.294M290.454 310.467C 290.425 310.834 290.284 311.464 290.141 311.867C 289.941 312.433 289.995 312.496 290.375 312.146C 290.646 311.897 290.787 311.267 290.688 310.746C 290.59 310.226 290.484 310.1 290.454 310.467M110.319 316.2C 111.091 317.679 115.209 321.2 116.167 321.2C 116.381 321.2 115.749 320.688 114.763 320.063C 113.776 319.437 112.279 318.132 111.436 317.163C 110.592 316.193 110.09 315.76 110.319 316.2M286.4 318.113C 285.41 319.044 284.15 320.125 283.6 320.515L283.6 320.515L282.6 321.223L283.6 320.746C 285.025 320.066 287.123 318.354 287.822 317.3C 288.64 316.066 288.474 316.161 286.4 318.113M117.2 321.6C 117.53 321.813 118.07 321.988 118.4 321.988C 118.933 321.988 118.933 321.945 118.4 321.6C 118.07 321.387 117.53 321.212 117.2 321.212C 116.667 321.212 116.667 321.255 117.2 321.6M159.932 322.3C 181.784 322.357 217.424 322.357 239.132 322.3C 260.839 322.243 242.96 322.196 199.4 322.196C 155.84 322.196 138.079 322.243 159.932 322.3" stroke="none" fill="#DCBC95" fill-rule="nonzero" />
	</g>
</g>
</svg>