<?xml version="1.0" standalone="no"?>
<!DOCTYPE svg PUBLIC "-//W3C//DTD SVG 1.0//EN" "http://www.w3.org/TR/2001/REC-SVG-20010904/DTD/svg10.dtd">
<svg xmlns="http://www.w3.org/2000/svg" xmlns:xlink="http://www.w3.org/1999/xlink" id="body_1" width="42" height="42">

<g transform="matrix(1.4 0 0 1.4 -6.3 -1.4)">
    <path d="M27.295 15.42C 27.295 21.76 22.27 26.9 16.072 26.9C 9.874001 26.9 4.85 21.76 4.85 15.42C 4.85 9.08 9.874 3.94 16.072 3.94C 22.27 3.94 27.295 9.08 27.295 15.42" stroke="none" fill="#D33833" fill-rule="nonzero" />
    <path d="M5.306 18.263C 5.306 18.263 4.494 6.292 15.524 5.95L15.524 5.95L14.754 4.667L8.768 6.667L7.068 8.634L5.5719995 11.499L4.7169995 14.834L4.9739995 17.057" stroke="none" fill="#EF3D3A" fill-rule="nonzero" />
    <path d="M8.385 7.59C 6.415 9.6050005 5.1970005 12.387 5.1970005 15.464001C 5.1970005 18.541 6.417001 21.324001 8.385 23.337002C 10.353 25.350002 13.07 26.594002 16.072 26.594002C 19.074001 26.594002 21.789001 25.351002 23.759 23.337002C 25.729 21.323002 26.947 18.54 26.947 15.464002C 26.947 12.388002 25.727001 9.604002 23.759 7.5900016C 21.791 5.576001 19.074001 4.3330016 16.072 4.3330016C 13.07 4.3330016 10.3550005 5.5760016 8.385 7.5900016L8.385 7.5900016L8.385 7.59zM7.887 23.825C 5.794 21.685001 4.5010004 18.727001 4.5010004 15.465001C 4.5010004 12.203001 5.7950006 9.245001 7.887 7.1050014C 9.979 4.965002 12.875 3.6370015 16.072 3.6380014C 19.269001 3.6390014 22.165 4.9650016 24.257 7.1050014C 26.348999 9.245001 27.644001 12.203001 27.644001 15.465001C 27.644001 18.727001 26.35 21.685001 24.257 23.825C 22.164 25.965 19.269001 27.292 16.071999 27.292C 12.874996 27.292 9.978998 25.965 7.886998 23.825" stroke="none" fill="#231F20" fill-rule="nonzero" />
	<g>
        <path d="M20.796 15.484L19.095999 15.741L16.786 15.998L15.289999 16.041L13.835999 15.998L12.723999 15.656L11.740999 14.586L10.970999 12.406L10.800999 11.936L9.774999 11.594L9.174998 10.611L8.74 9.2L9.21 7.96L10.3220005 7.575L11.22 8.003L11.648001 8.943L12.161001 8.856999L12.331001 8.643L12.161001 7.66L12.118001 6.42L12.375001 4.7200003L12.365001 3.7430003L13.145 2.4970002L14.5130005 1.5140002L16.905 0.477L19.555 0.862L21.865 2.529L22.935 4.229L23.619 5.469L23.789 8.547L23.276 11.1970005L22.335999 13.547001L21.437998 14.787001" stroke="none" fill="#F0D6B7" fill-rule="nonzero" />
        <path d="M19.342 22.88L13.227999 23.137L13.227999 24.162998L13.740999 27.752998L13.483999 28.052998L9.21 26.6L8.91 26.087L8.481999 21.257L7.4989996 18.35L7.2849994 17.666L10.705 15.316L11.775 14.888L12.714999 16.042L13.526999 16.769L14.466999 17.068998L14.893999 17.196999L15.407 19.419998L15.792 19.889997L16.775 19.547997L16.091 20.872997L19.810999 22.625998L19.341 22.882998" stroke="none" fill="#335061" fill-rule="nonzero" />
        <path d="M9.21 7.96L10.3220005 7.575L11.22 8.003L11.648001 8.943L12.161001 8.856999L12.289001 8.344L12.0320015 7.361L12.289001 5.009L12.075002 3.7259998L12.845001 2.8279998L14.512001 1.5029998L14.042001 0.8629998L11.690001 2.0169997L10.707001 2.7869997L10.151001 3.9839997L9.296001 5.1379995L9.039001 6.5059996L9.209002 7.9599996" stroke="none" fill="#6D6B6D" fill-rule="nonzero" />
        <path d="M10.962 3.94C 10.962 3.94 11.602 2.358 14.169 1.5900002C 16.736 0.82200027 14.297 1.0340002 14.297 1.0340002L14.297 1.0340002L11.517 2.104L10.4470005 3.1740003L9.977 4.0290003L10.96 3.9430003zM9.68 7.66C 9.68 7.66 8.782001 4.667 12.203 4.24L12.203 4.24L12.075 3.7269998L9.725 4.283L9.041 6.506L9.211 7.96L9.681001 7.66" stroke="none" fill="#DCD9D8" fill-rule="nonzero" />
        <path d="M11.048 11.636L11.608001 11.094C 11.619544 11.258216 11.741011 11.393682 11.903001 11.423C 11.946001 11.723001 12.073001 14.416 13.903001 15.870001C 14.071001 16.003 12.535001 15.656001 12.535001 15.656001L12.535001 15.656001L11.167001 13.518002zM18.905 10.823002C 18.905 10.823002 19.005001 9.527002 19.355001 9.627002C 19.705002 9.727001 19.705002 10.077002 19.705002 10.077002C 19.705002 10.077002 18.857002 10.625002 18.907001 10.825002" stroke="none" fill="#F7E4CD" fill-rule="nonzero" />
	</g>
    <path d="M22.464 6.077C 22.464 6.077 21.759 6.227 21.694 6.847C 21.629 7.467 22.464 6.975 22.592001 6.933M17.3 6.12C 17.3 6.12 16.359999 6.2479997 16.359999 6.847C 16.359999 7.4460006 17.429998 7.403 17.727999 7.1470003" stroke="none" fill="#F7E4CD" fill-rule="nonzero" />
	<g>
        <path d="M11.475 8.9C 11.475 8.9 9.85 7.916 9.68 8.857C 9.51 9.798 9.124001 10.482 9.937 11.465L9.937 11.465L9.3810005 11.295L8.868 9.97L8.698 8.687L9.681 7.6610003L10.792999 7.747L11.433 8.26L11.476 8.900001zM12.246 6.2060003C 12.246 6.2060003 12.973001 2.4440002 16.65 1.7060003C 19.677 1.1080003 21.267 1.8340003 21.866 2.5180004C 21.866 2.5180004 19.171999 -0.6879997 16.605999 0.2950003C 14.039999 1.2780004 12.159999 3.0950003 12.199999 4.2380004L12.199999 4.2380004L12.242999 6.2050004zM22.162998 2.9550004C 22.162998 2.9550004 20.922998 2.9120004 20.879997 4.0250006C 20.884418 4.143646 20.91336 4.2600904 20.964996 4.3670006C 20.964996 4.3670006 21.948996 3.2550006 22.546997 3.8540006M16.733997 4.4820004C 16.733997 4.4820004 16.520998 2.7760005 15.065997 3.7680004C 14.125998 4.4080005 14.210997 5.3080006 14.381997 5.4680004C 14.552998 5.6280003 14.506997 5.9830003 14.636997 5.7480006C 14.766997 5.513001 14.723997 4.7420006 15.194997 4.528001C 15.665997 4.314001 16.434998 4.075001 16.734997 4.473001" stroke="none" fill="#F7E4CD" fill-rule="nonzero" />
        <path d="M12.715 16.04L8.695 17.836C 8.695 17.836 10.3619995 24.463001 9.507 26.516L9.507 26.516L8.907 26.302L8.863999 23.779L7.756 19L7.2860003 17.675L11.486 14.852999L12.726 16.05zM13.13 19.705L13.7 20.401L13.7 22.966L13.016 22.966L12.931 20.966C 12.931 20.751999 13.016 19.983 13.016 19.983M13.143 23.35L11.219 23.435L11.775 23.82L13.143 24.034" stroke="none" fill="#49728B" fill-rule="nonzero" />
		<g>
            <path d="M19.727 22.923L21.309 22.880001L21.694 26.814001L20.069 27.028002L19.727001 22.924002" stroke="none" fill="#335061" fill-rule="nonzero" />
            <path d="M20.155 22.923L22.549 22.795L23.532 20.187C 23.532 20.059 24.387 16.597 24.387 16.597L24.387 16.597L22.463 14.587L22.078 14.245L21.051998 15.271L21.051998 19.247L20.153997 22.924" stroke="none" fill="#335061" fill-rule="nonzero" />
		</g>
        <path d="M21.224 22.624L19.728 22.924L19.942001 24.121C 20.498001 24.378 21.438002 23.693 21.438002 23.693M21.266 15.143001L24.259 17.366001L24.345001 16.34L22.079 14.245L21.267 15.143" stroke="none" fill="#49728B" fill-rule="nonzero" />
        <path d="M14.627 31.346L13.742 27.754002L13.302 25.104002L13.229 23.137001L17.235 22.924002L19.728 22.924002L19.501001 27.424002L19.886002 30.887001L19.843002 31.527L16.593002 31.784L14.626002 31.356" stroke="none" fill="#FFFFFF" fill-rule="nonzero" />
        <path d="M19.17 22.88C 19.17 22.88 18.956 27.327 19.598 30.48C 19.598 30.48 18.314999 31.292 16.434 31.506L16.434 31.506L20.024 31.378L20.452 31.121L19.939 24.109001L19.810999 22.612001" stroke="none" fill="#DCD9D8" fill-rule="nonzero" />
        <path d="M21.767 26.472L23.434 26.002L26.598 25.832L27.067999 24.378L26.213 21.855L25.23 21.727L23.862 22.154999L22.549 22.794998L21.852 22.666998L21.309 22.879997" stroke="none" fill="#FFFFFF" fill-rule="nonzero" />
        <path d="M21.737 25.616C 21.737 25.616 22.848999 25.102999 23.02 25.146L23.02 25.146L22.550001 22.794L23.106 22.58L23.491001 25.06L26.099 25.188C 26.099 25.188 26.612001 24.205 26.484001 23.188L26.484001 23.188L26.954 24.556L26.997 25.326L26.313 26.352001L25.543 26.522001L24.259998 26.479002L23.831999 25.923002L22.335999 26.137003L21.866 26.307003" stroke="none" fill="#DCD9D8" fill-rule="nonzero" />
	</g>
    <path d="M20.056 22.58L19.116 20.186L18.133 18.776001C 18.133 18.776001 18.347 18.176 18.646 18.176L18.646 18.176L19.629 18.176L20.569 18.518002L20.484001 20.100002L20.056002 22.580002" stroke="none" fill="#FFFFFF" fill-rule="nonzero" />
    <path d="M20.24 21.77C 20.24 21.77 19.043 19.460001 19.043 19.12C 19.043 19.12 19.257 18.607 19.556 18.735C 19.855 18.863 20.496 19.205 20.496 19.205L20.496 19.205L20.496 18.393L19.042 18.093L18.059 18.221L19.726 22.155L20.068 22.198" stroke="none" fill="#DCD9D8" fill-rule="nonzero" />
    <path d="M15.01 16.125L13.826 15.995L12.714001 15.653L12.714001 16.038L13.257001 16.638L14.957001 17.408" stroke="none" fill="#FFFFFF" fill-rule="nonzero" />
	<g>
        <path d="M13.1 16.254C 13.1 16.254 14.425 16.81 14.853001 16.682L14.853001 16.682L14.896001 17.195L13.699001 16.939L12.972001 16.425999L13.100001 16.255999" stroke="none" fill="#DCD9D8" fill-rule="nonzero" />
        <path d="M21.762 18.323C 21.036999 18.303 20.382 18.216 19.807 18.053C 19.847 17.817999 19.772999 17.587 19.831999 17.417C 19.991999 17.302 20.259998 17.303999 20.501999 17.277C 20.292 17.174 19.998999 17.134 19.758 17.193C 19.751999 17.03 19.678 16.929 19.635 16.801C 20.043 16.655 21.005001 15.701 21.547 16.017C 21.805 16.167 21.915 17.027 21.935001 17.443C 21.952002 17.789001 21.905 18.139 21.762001 18.323" stroke="none" fill="#D33833" fill-rule="nonzero" />
	</g>
    <path d="M21.762 18.323C 21.036999 18.303 20.382 18.216 19.807 18.053C 19.847 17.817999 19.772999 17.587 19.831999 17.417C 19.991999 17.302 20.259998 17.303999 20.501999 17.277C 20.292 17.174 19.998999 17.134 19.758 17.193C 19.751999 17.03 19.678 16.929 19.635 16.801C 20.043 16.655 21.005001 15.701 21.547 16.017C 21.805 16.167 21.915 17.027 21.935001 17.443C 21.952002 17.789001 21.905 18.139 21.762001 18.323L21.762001 18.323L21.762 18.323z" stroke="#D33833" stroke-width="0.257" fill="none" />
    <path d="M18.293 17.137L18.286999 17.303C 18.06 17.453 17.695 17.449999 17.446999 17.574999C 17.812998 17.591 18.102 17.678999 18.352 17.804998L18.352 17.804998L18.335999 18.22C 17.920998 18.504 17.541998 18.928 17.052998 19.194C 16.822998 19.32 16.010998 19.644001 15.7649975 19.587C 15.624997 19.555 15.612997 19.382 15.557998 19.219C 15.439998 18.869 15.167997 18.316 15.142998 17.791C 15.112998 17.128 15.045998 16.018 15.759997 16.154001C 16.35044 16.27926 16.920116 16.48767 17.451998 16.773C 17.724998 16.923 17.881998 17.106 18.295998 17.138" stroke="none" fill="#D33833" fill-rule="nonzero" />
    <path d="M18.293 17.137L18.286999 17.303C 18.06 17.453 17.695 17.449999 17.446999 17.574999C 17.812998 17.591 18.102 17.678999 18.352 17.804998L18.352 17.804998L18.335999 18.22C 17.920998 18.504 17.541998 18.928 17.052998 19.194C 16.822998 19.32 16.010998 19.644001 15.7649975 19.587C 15.624997 19.555 15.612997 19.382 15.557998 19.219C 15.439998 18.869 15.167997 18.316 15.142998 17.791C 15.112998 17.128 15.045998 16.018 15.759997 16.154001C 16.35044 16.27926 16.920116 16.48767 17.451998 16.773C 17.724998 16.923 17.881998 17.106 18.295998 17.138L18.295998 17.138L18.293 17.137z" stroke="#D33833" stroke-width="0.257" fill="none" />
    <path d="M18.705 17.928C 18.642 17.567999 18.568 17.463999 18.597 17.147999C 19.56 16.505999 19.74 18.249998 18.705 17.928" stroke="none" fill="#D33833" fill-rule="nonzero" />
    <path d="M18.705 17.928C 18.642 17.567999 18.568 17.463999 18.597 17.147999C 19.56 16.505999 19.74 18.249998 18.705 17.928z" stroke="#D33833" stroke-width="0.257" fill="none" />
    <path d="M20.1 18.22C 20.1 18.22 19.800001 17.792 20.014 17.664C 20.227999 17.536 20.442 17.664 20.57 17.449999C 20.698 17.235998 20.57 17.107998 20.612999 16.849998C 20.655998 16.592 20.869999 16.55 21.082998 16.508C 21.295998 16.466 21.894999 16.38 21.980999 16.594L21.980999 16.594L21.723999 15.823999L21.210999 15.653999L19.585999 16.594L19.499998 17.064L19.499998 18.004zM15.599998 19.63L15.433998 17.63C 15.333998 16.634998 15.673998 16.807999 16.535997 16.807999C 16.667997 16.807999 17.335997 16.964998 17.395998 17.064999C 17.628998 17.540998 16.995998 17.435 17.665998 17.794998C 18.221998 18.097998 19.203999 17.610998 18.978998 16.936998C 18.852999 16.786999 18.323997 16.889997 18.133999 16.791998L18.133999 16.791998L17.131998 16.271997C 16.706999 16.051998 15.724998 15.729998 15.271998 16.037998C 14.123999 16.817999 15.343998 18.769999 15.753999 19.583998" stroke="none" fill="#EF3D3A" fill-rule="nonzero" />
    <path d="M16.735 4.483C 15.570001 4.213 14.991001 4.9709997 14.637001 5.758C 14.322001 5.6819997 14.437001 5.253 14.537001 5.034C 14.737 4.46 15.587001 3.697 16.273 3.8C 16.569 3.845 16.969 4.115 16.745 4.483M22.413 5.8L22.468 5.802C 22.731 6.349 22.968 6.929 23.291 7.402C 23.068 7.92 21.606 8.379 21.628 7.448C 21.944 7.31 22.49 7.42 22.771 7.243C 22.609 6.798 22.375 6.419 22.411 5.79M17.331 5.824C 17.581 6.282 17.661 6.764 18.017 7.1089997C 18.177 7.265 18.487 7.455 18.334 7.889C 18.224792 8.056116 18.068068 8.18672 17.883999 8.264C 17.328999 8.4279995 16.033998 8.298 16.484 7.606C 16.943998 7.626 17.56 7.904 17.904 7.571C 17.64 7.151 17.171 6.316 17.344 5.825M22.214 10.48C 21.378 11.016999 20.446001 11.599999 19.076 11.466C 18.783 11.212 18.672 10.646 18.956 10.271C 19.104 10.525 19.011 10.9939995 19.424 11.064C 20.201 11.1970005 21.105999 10.589 21.664 10.376C 22.011 9.791 21.633999 9.576 21.321999 9.200001C 20.682 8.43 19.824999 7.474001 19.855999 6.3200006C 20.113998 6.133001 20.136 6.606001 20.174 6.692001C 20.508 7.472001 21.348 8.472001 21.961 9.142001C 22.111 9.307001 22.361 9.465001 22.387001 9.574001C 22.467001 9.891002 22.18 10.270001 22.213001 10.481001M11.1830015 9.9140005C 10.921001 9.764001 10.859001 9.106001 10.551002 9.087001C 10.111002 9.06 10.191002 9.942001 10.193002 10.457001C 9.890001 10.182001 9.837002 9.337001 10.059002 8.902C 9.806002 8.778001 9.692002 9.0390005 9.552002 9.132C 9.732002 7.8199997 11.472002 8.532 11.182002 9.915M22.737003 11.015C 22.337004 11.755 21.797003 12.571 20.655003 12.595C 20.632002 12.3550005 20.615002 11.992001 20.656002 11.848001C 21.529001 11.764001 22.068003 11.320001 22.736002 11.015M17.266003 11.495C 17.994003 11.878 19.333002 11.919 20.323002 11.89C 20.376001 12.107 20.375002 12.375 20.377003 12.64C 19.104002 12.703 17.600002 12.39 17.277002 11.495001M17.137003 12.209001C 17.641003 13.474001 19.372004 13.329 20.832003 13.293C 20.768003 13.457 20.628002 13.651 20.455002 13.721001C 19.987001 13.9210005 18.697002 14.056001 18.048002 13.711C 17.636002 13.491 17.372002 12.997001 17.146002 12.707001C 17.046001 12.567 16.494001 12.209001 17.138002 12.207001" stroke="none" fill="#231F20" fill-rule="nonzero" />
    <path d="M22.144 19.196L20.286 22.140999C 20.58 21.276999 20.706 19.831 20.75 18.727C 21.365 18.439 21.892 18.792 22.144001 19.196999" stroke="none" fill="#81B0C4" fill-rule="nonzero" />
    <path d="M25.324 22.834C 24.661999 22.966 24.196999 23.61 23.552 23.567999C 23.907 23.067999 24.528 22.867998 25.324 22.834M25.616 23.869999C 25.075998 23.926998 24.442999 24.013998 23.896 23.97C 24.156 23.574 25.153 23.71 25.616 23.869999M25.803 24.762C 25.196999 24.775 24.442999 24.762999 23.866999 24.714998C 24.206999 24.348999 25.409998 24.578999 25.803 24.762" stroke="none" fill="#231F20" fill-rule="nonzero" />
    <path d="M21.003 27.206C 21.09 27.966 21.393 28.738998 21.353 29.571999C 21.018002 29.685 20.825 29.783998 20.376001 29.781998L20.376001 29.781998L20.278002 27.314999C 20.498001 27.329998 20.825003 27.156998 21.002003 27.214998" stroke="none" fill="#DCD9D8" fill-rule="nonzero" />
    <path d="M20.026 15.986C 19.721998 16.186 19.462 16.433 19.169998 16.646C 18.521997 16.678 18.167997 16.601 17.691998 16.229C 17.699997 16.199 17.747997 16.212 17.748997 16.176C 18.442997 16.486 19.324997 16.050001 20.025997 15.986001" stroke="none" fill="#F0D6B7" fill-rule="nonzero" />
    <path d="M16.383 20.716C 16.573 19.89 17.321 19.462 17.998999 19.006C 18.699 19.896 19.124998 21.036001 19.593998 22.140001C 18.485998 21.806002 17.353998 21.264002 16.383999 20.715002" stroke="none" fill="#81B0C4" fill-rule="nonzero" />
    <path d="M20.28 27.316C 20.252 27.991 20.346 29.076 20.378 29.783C 20.828001 29.784 21.02 29.685001 21.355 29.573002C 21.393 28.739002 21.091 27.968002 21.005 27.207003C 20.828 27.160002 20.501999 27.332003 20.280998 27.307003L20.280998 27.307003L20.28 27.316zM13.288 23.476C 13.584 26.198 14.0130005 28.476 14.8 30.896C 16.546 31.426 18.65 31.472 20.194 30.994C 19.911 29.633999 20.034 27.977 19.869 26.524L19.869 26.524L19.637 23.221C 17.766998 22.831001 15.123999 23.131 13.289 23.473001zM20.088001 23.241C 20.072 24.411 20.140001 25.563 20.230001 26.734L20.230001 26.734L21.400002 26.529999C 21.265001 25.402998 21.28 24.134998 21.005001 23.137999C 20.685001 23.140999 20.405 23.133999 20.087002 23.241zM22.365002 23.053C 22.152002 23.003 21.905003 23.050999 21.7 23.055L21.7 23.055L22.1 26.060001C 22.42 26.070002 22.59 25.920002 22.855 25.868002C 22.869 24.990002 22.778 23.780003 22.355 23.053001zM25.813002 26.203C 26.481 26.040998 26.900002 25.223 26.713001 24.383C 26.588001 23.819 26.365002 22.755999 26.126001 22.394999C 25.95 22.127998 25.471 21.777998 25.089 22.022999C 24.467001 22.421 23.372002 22.536999 22.919 23.018C 23.146 23.775 23.217001 24.814 23.311 25.772999C 24.088001 25.821 25.043001 25.558998 25.689001 25.836998C 25.239 25.982998 24.653002 25.983997 24.264002 26.196999C 24.582003 26.350998 25.328001 26.319998 25.814001 26.201998zM19.605001 22.143C 19.135002 21.039999 18.710001 19.897 18.010002 19.008999C 17.332003 19.463999 16.585003 19.891998 16.394003 20.718998C 17.364002 21.268997 18.497004 21.808998 19.604004 22.143997zM20.761002 18.728C 20.717001 19.831001 20.591002 21.278 20.297 22.142C 20.997002 21.249 21.564001 20.209 22.155 19.197C 21.903 18.793001 21.375 18.44 20.761002 18.727001zM19.461002 18.262001C 19.195002 18.232 18.971003 18.567001 18.624002 18.422L18.624002 18.422L18.392002 18.69C 19.155003 19.61 19.492002 20.914001 20.092003 21.994C 20.408003 20.956 20.372004 19.819 20.442003 18.685999C 20.008003 18.713999 19.767004 18.293 19.462004 18.261zM18.618002 17.150002C 18.590002 17.465002 18.663002 17.568 18.726002 17.930002C 19.761002 18.254002 19.580002 16.510002 18.618002 17.150002zM17.470001 16.773C 16.938122 16.48767 16.368443 16.27926 15.778001 16.154001C 15.064001 16.017002 15.1310005 17.128002 15.161001 17.791C 15.185001 18.316 15.458001 18.871 15.576001 19.219C 15.632001 19.382 15.644001 19.553999 15.783001 19.587C 16.029001 19.644 16.84 19.32 17.071001 19.194C 17.561 18.927 17.939001 18.494 18.354 18.220001L18.354 18.220001L18.37 17.805C 18.12 17.681 17.832 17.592001 17.465 17.575C 17.715 17.45 18.079 17.452002 18.305 17.303001L18.305 17.303001L18.311 17.137001C 17.897001 17.105001 17.741001 16.921001 17.467001 16.772001zM13.210001 15.999001C 12.840001 16.375 14.248001 16.887001 14.6970005 16.915C 14.694 16.677 14.833 16.453001 14.805 16.282001C 14.272 16.188002 13.5720005 16.250002 13.211 15.9990015zM17.77 16.175001C 17.768 16.212002 17.720001 16.198002 17.713001 16.228C 18.189001 16.6 18.543001 16.678001 19.191002 16.645L19.191002 16.645L20.047003 15.985001C 19.347002 16.048 18.464003 16.483 17.770002 16.175001zM21.956001 17.445002C 21.936 17.027002 21.826002 16.169003 21.568 16.019001C 21.026001 15.703001 20.063002 16.657001 19.656 16.803001C 19.7 16.931002 19.774 17.033 19.779 17.195002C 20.019 17.135002 20.314 17.175001 20.522999 17.279001C 20.280998 17.306002 20.022999 17.304 19.852999 17.419C 19.793 17.589 19.866999 17.819 19.828 18.055C 20.401999 18.217001 21.057999 18.303 21.782999 18.325C 21.922998 18.142 21.973 17.792 21.956 17.445002zM12.586001 16.363C 12.470001 16.28 11.6830015 15.257001 11.586001 15.299001C 10.163001 15.859001 8.833001 16.829 7.6440015 17.749C 8.778002 20.181 9.234001 23.162 9.316002 26.034C 10.616002 26.641 11.756002 27.517 13.516002 27.608L13.516002 27.608L13.010002 23.52C 12.567002 23.333 11.932002 23.528 11.5180025 23.462C 11.514003 22.962 12.151003 23.242 12.204002 22.907999C 12.244002 22.654 11.854002 22.634998 11.981003 22.234999C 12.305003 22.352999 12.475003 22.612999 12.821003 22.71C 13.137003 22.019999 12.817003 20.797998 12.861003 20.21C 12.871003 20.102 12.915003 19.609999 13.158003 19.696C 13.373003 19.772 13.146003 21.005999 13.168003 21.550999C 13.188004 22.053999 13.108003 22.550999 13.311003 22.856998C 15.014003 22.624998 16.744003 22.474998 18.586002 22.425C 18.181002 22.251 17.699003 22.085 17.171001 21.789C 16.885002 21.629 15.983002 21.292 15.901001 21.019C 15.769001 20.585999 16.247002 20.355 16.328001 19.984C 15.468001 20.453999 15.301001 19.533998 15.0980015 18.883999C 14.914001 18.293999 14.8080015 17.853998 14.764002 17.513998C 14.024002 17.160997 13.232002 16.813997 12.594002 16.350998zM21.203001 15.423001C 22.389002 14.8480015 22.603 17.573002 22.138 18.449001C 22.210001 18.711 22.458 18.811 22.558 19.046001L22.558 19.046001L20.488 22.509C 20.990002 22.196001 21.708 22.453001 22.288 22.209002C 22.504 22.124002 22.66 21.629002 22.824 21.234001C 23.274 20.146002 23.746 18.774002 23.956 17.734001C 24.003 17.497002 24.133 16.982 24.104 16.771002C 24.052 16.394001 23.541 16.114002 23.28 15.871002L23.28 15.871002L22 14.659002C 21.797 14.9590025 21.362 15.159002 21.196 15.403003zM9.855 4.908C 9.29 5.5299997 9.408 6.6940002 9.476999 7.523C 10.497 6.8809996 11.852999 7.573 11.841 8.665999C 12.3289995 8.653 12.023 8.056 11.934999 7.6729994C 11.646999 6.4189997 12.421 5.056999 11.969999 3.9099994C 11.094999 3.9759994 10.376999 4.333999 9.855999 4.9079995zM13.897 1.3C 12.617001 1.662 10.979 2.592 10.454 3.74C 10.861 3.68 11.144 3.476 11.544001 3.44C 11.696001 3.43 11.894001 3.504 12.069 3.46C 12.416 3.374 12.709001 2.595 12.972 2.305C 13.228 2.022 13.535 1.901 13.745 1.6430001C 13.88 1.5780001 14.08 1.5830002 14.087 1.3800001C 14.026999 1.3170002 13.967 1.2800001 13.887 1.2800001zM20.554 1.64C 19.227 0.893 16.98 0.33 15.568 1.033C 14.4279995 1.6010001 12.888 2.541 12.363 3.733C 12.853 4.883 12.217999 5.936 12.177 7.1029997C 12.155 7.7229996 12.469 8.266 12.493 8.943C 12.325 9.22 11.813 9.253 11.457 9.235C 11.337 8.637 11.127 7.9649997 10.513 7.8969994C 9.643 7.8019996 9.004999 8.523 8.964999 9.276999C 8.917999 10.162999 9.6449995 11.632 10.676999 11.53C 11.074999 11.49 11.172999 11.09 11.606999 11.094999C 11.841999 11.565 11.2439995 11.711999 11.183 12.046999C 11.167 12.133999 11.233 12.472999 11.271 12.631999C 11.458 13.405999 11.875999 14.406999 12.287 14.995999C 12.809 15.742999 13.833 15.855999 14.937 15.928999C 15.134 15.504999 15.859 15.538999 16.332 15.650999C 15.766001 15.426999 15.239 14.882999 14.802001 14.400999C 14.302001 13.848999 13.792001 13.255999 13.767001 12.533999C 14.714001 13.848 15.497002 14.995999 17.219002 15.573999C 18.522001 16.011 20.045002 15.374 21.046001 14.669999C 21.462002 14.377999 21.710001 13.914 22.006 13.489999C 23.111 11.889998 23.626001 9.629999 23.514 7.429999C 23.467 6.522999 23.469 5.619999 23.164 5.009999C 22.845999 4.371999 21.77 3.7999988 21.14 4.377999C 21.022999 3.757999 21.664 3.3739989 22.416 3.5979989C 21.880001 2.905999 21.316 2.073999 20.554 1.6439989zM23.027 22.106998C 24.064001 21.590998 26.002 20.718998 26.653 22.109C 26.893 22.620998 27.175 23.487 27.299 24.015999C 27.475 24.762 27.098999 26.329998 26.342 26.581C 25.664999 26.800999 24.873999 26.789 24.057999 26.625C 23.961998 26.545 23.855 26.405 23.779999 26.261C 23.196999 26.237999 22.651999 26.291 22.192 26.531C 22.236 26.961 21.944 27.031 21.671999 27.121C 21.469 27.924 22.077 28.973 21.932 29.705C 21.828 30.227 21.185999 30.307 20.715 30.405C 20.7 30.705 20.735 30.937 20.768 31.182001C 20.66 31.579 20.175999 31.806002 19.718 31.862001C 18.210001 32.042 15.92 32.125 14.468 31.602001C 14.063001 30.609001 13.744 29.402 13.408001 28.267002C 11.993001 28.417002 10.8480015 27.657001 9.77 27.157001C 9.396001 26.984001 8.870001 26.887001 8.740001 26.591002C 8.6050005 26.303001 8.660001 25.751001 8.627001 25.231C 8.542001 23.901001 8.467001 22.616001 8.127001 21.253C 7.969001 20.641 7.6940007 20.103 7.502001 19.513C 7.325001 18.967001 7.015001 18.293001 6.934001 17.747C 6.814001 16.94 7.574001 16.895 8.060001 16.545C 8.810001 16.005 9.400002 15.705 10.215001 15.217C 10.455001 15.072 11.1830015 14.717 11.265001 14.537C 11.429001 14.203 10.983002 13.731999 10.865002 13.469999C 10.675002 13.056 10.578002 12.7039995 10.551002 12.294999C 9.868002 12.186999 9.351002 11.780999 9.038002 11.322999C 8.521002 10.564999 8.162002 9.162999 8.610002 8.095999C 8.645001 8.011999 8.810001 7.845999 8.846002 7.717999C 8.896002 7.463999 8.750002 7.125999 8.741002 6.855999C 8.694002 5.468999 8.976002 4.275999 9.909002 3.855999C 10.289002 2.355999 11.644002 1.845999 12.922003 1.0939989C 13.4000025 0.81399894 13.9260025 0.6339989 14.470003 0.43399888C 16.420004 -0.2840011 19.414003 -0.14900112 21.033003 1.0759989C 21.719004 1.5959989 22.817003 2.690999 23.209003 3.485999C 24.246004 5.5809994 24.172003 9.082999 23.447004 11.631999C 23.350004 11.973999 23.207005 12.476999 23.011003 12.887999C 22.873003 13.174998 22.446003 13.747998 22.498003 14.002998C 22.551003 14.264998 23.473003 14.964998 23.671003 15.155998C 24.027004 15.498999 24.703003 15.955998 24.758003 16.387999C 24.818003 16.847998 24.555004 17.48 24.422003 17.925L24.422003 17.925L23.042004 22.105" stroke="none" fill="#231F20" fill-rule="nonzero" />
    <path d="M16.107 11.83C 16.163 11.755 16.473 11.64 16.907 11.85C 16.907 11.85 16.394 11.936001 16.437 12.79L16.437 12.79L16.223 12.747C 16.223 12.747 16.003 11.971 16.109 11.8289995" stroke="none" fill="#F7E4CD" fill-rule="nonzero" />
    <path d="M19.856 19.182C 19.856 19.311998 19.751001 19.417 19.621 19.417C 19.491 19.417 19.386 19.312 19.386 19.182C 19.386 19.051998 19.491 18.946999 19.621 18.946999C 19.751001 18.946999 19.856 19.051998 19.856 19.182M20.09 20.282C 20.09 20.411999 19.985 20.517 19.855 20.517C 19.724998 20.517 19.619999 20.412 19.619999 20.282C 19.619999 20.151999 19.724998 20.046999 19.855 20.046999C 19.985 20.046999 20.09 20.151999 20.09 20.282" stroke="none" fill="#1D1919" fill-rule="nonzero" />
</g>
</svg>