<?xml version="1.0" standalone="no"?>
<!DOCTYPE svg PUBLIC "-//W3C//DTD SVG 1.0//EN" "http://www.w3.org/TR/2001/REC-SVG-20010904/DTD/svg10.dtd">
<svg xmlns="http://www.w3.org/2000/svg" xmlns:xlink="http://www.w3.org/1999/xlink" id="body_1" width="60" height="60">

<g transform="matrix(0.070588246 0 0 0.070588246 6.3529415 3.8823533)">
    <path d="M348.987 0.06L86.737 121.341L348.987 0.06L86.737 121.341L26.457 383.591C 26.457005 357.99704 47.37651 337.24902 73.182014 337.24902C 98.98752 337.24905 119.90701 357.99707 119.907 383.59103C 119.90699 409.18503 98.9875 429.93304 73.182 429.933L348.987 0.06L86.737 121.341L26.457 383.591L179.3 664.528L348.987 0.06L86.737 121.341L26.457 383.591L179.3 664.528L450.52002 664.466L348.987 0.06L86.737 121.341L26.457 383.591L179.3 664.528L450.52002 664.466L619.583 454.153L348.987 0.06L86.737 121.341L26.457 383.591L179.3 664.528L450.52002 664.466L619.583 454.153L641.3 152.716L348.987 0.06L86.737 121.341L26.457 383.591L179.3 664.528L450.52002 664.466L619.583 454.153L641.3 152.716L371.643 4.59L348.987 0.06L86.737 121.341L26.457 383.591L179.3 664.528L450.52002 664.466L619.583 454.153L641.3 152.716L371.643 4.59L348.987 0.06z" stroke="none" fill="#326CE5" fill-rule="nonzero" />
    <path d="M351.408 89.307C 343.331 89.308 336.78198 96.583 336.783 105.557C 336.783 105.695 336.811 105.826996 336.814 105.963C 336.802 107.183 336.744 108.652 336.783 109.713C 336.97498 114.889 338.103 118.851 338.783 123.619995C 340.013 133.82599 341.043 142.28699 340.408 150.151C 339.789 153.116 337.60498 155.828 335.658 157.713L335.658 157.713L335.314 163.901L335.658 157.713L335.314 163.901C 297.339 172.524 264.64398 192.085 239.75099 218.495C 237.13998 218.84799 234.50099 219.65399 231.06299 217.651C 224.51799 213.246 218.55699 207.16501 211.344 199.839C 208.039 196.335 205.646 192.998 201.719 189.62001C 200.82799 188.85301 199.467 187.81601 198.469 187.02602C 195.39899 184.57901 191.77899 183.30202 188.282 183.18301C 183.786 183.029 179.458 184.78702 176.62599 188.33902C 171.59 194.65402 173.20299 204.30702 180.219 209.90102C 180.291 209.95802 180.366 210.00201 180.439 210.05801C 181.402 210.83902 182.583 211.84102 183.469 212.49501C 187.63599 215.572 191.443 217.147 195.594 219.589C 204.34099 224.991 211.59299 229.46901 217.344 234.87001C 219.59 237.264 219.983 241.48302 220.282 243.30801L220.282 243.30801L224.969 247.49501C 199.87599 285.259 188.263 331.90503 195.12599 379.433L195.12599 379.433L189.00099 381.21402C 187.38599 383.299 185.105 386.579 182.719 387.558C 175.194 389.928 166.72499 390.798 156.50099 391.87003C 151.70099 392.27002 147.55899 392.03104 142.469 392.99503C 141.349 393.20703 139.789 393.614 138.56299 393.90103L138.56299 393.90103L138.43799 393.93304C 138.37099 393.94806 138.28398 393.98105 138.219 393.99506C 129.599 396.07806 124.062 404.00107 125.843994 411.80804C 127.62799 419.61606 136.04799 424.36404 144.719 422.49506C 144.782 422.48105 144.873 422.47806 144.939 422.46405C 145.036 422.44205 145.122 422.39404 145.219 422.37006C 146.429 422.10504 147.943 421.81006 149.00099 421.52707C 154.004 420.18707 157.62799 418.21906 162.12599 416.49506C 171.803 413.02505 179.81699 410.12506 187.62599 408.99506C 190.88599 408.74005 194.323 411.00705 196.032 411.96405L196.032 411.96405L202.407 410.87006C 217.077 456.35306 247.821 493.11505 286.751 516.18304L286.751 516.18304L284.094 522.55804C 285.052 525.033 286.108 528.382 285.39398 530.82806C 282.55597 538.18805 277.69397 545.95807 272.15698 554.62006C 269.477 558.6221 266.732 561.728 264.313 566.30804C 263.73398 567.40405 262.99698 569.0881 262.438 570.24506C 258.679 578.2881 261.43698 587.55005 268.65698 591.02704C 275.92297 594.52405 284.94098 590.835 288.844 582.77704C 288.85 582.765 288.87 582.757 288.876 582.74506C 288.88 582.7361 288.872 582.7231 288.876 582.715C 289.432 581.572 290.219 580.07 290.68802 578.99506C 292.76 574.24805 293.45 570.18005 294.907 565.58905C 298.777 555.8691 300.903 545.67004 306.229 539.31506C 307.689 537.5751 310.066 536.9051 312.532 536.24506L312.532 536.24506L315.84402 530.24506C 349.78302 543.27203 387.77103 546.76807 425.71902 538.15204C 426.65002 539.80304 428.38004 542.978 428.84402 543.77704C 431.35004 544.59204 434.084 545.01306 436.31302 548.30804C 440.298 555.11804 443.023 563.17303 446.34402 572.90204C 447.80203 577.49304 448.52203 581.562 450.59402 586.30804C 451.066 587.39 451.85004 588.913 452.407 590.05804C 456.30103 598.14307 465.349 601.84503 472.625 598.34C 479.845 594.862 482.605 585.60004 478.845 577.55804C 478.285 576.4 477.517 574.71704 476.938 573.62103C 474.51797 569.041 471.775 565.966 469.094 561.965C 463.557 553.30304 458.964 546.10706 456.125 538.74506C 454.938 534.94904 456.325 532.5881 457.25 530.12103C 456.697 529.486 455.512 525.90106 454.813 524.215C 495.27 500.32602 525.11096 462.19302 539.125 418.15204C 541.018 418.45004 544.307 419.03204 545.375 419.24603C 547.575 417.79602 549.597 415.90204 553.563 416.21503C 561.371 417.34402 569.386 420.24503 579.063 423.71503C 583.561 425.43802 587.185 427.43802 592.188 428.77704C 593.245 429.06003 594.76 429.32404 595.969 429.59003C 596.066 429.61304 596.152 429.66104 596.25 429.683C 596.316 429.69803 596.407 429.7 596.47 429.71503C 605.14197 431.58102 613.563 426.83502 615.344 419.02704C 617.124 411.22003 611.58997 403.29504 602.969 401.21503C 601.71497 400.92902 599.937 400.44504 598.719 400.21503C 593.63 399.25104 589.489 399.48804 584.688 399.09003C 574.463 398.01804 565.994 397.14703 558.469 394.77704C 555.401 393.58704 553.219 389.93604 552.157 388.43304L552.157 388.43304L546.25 386.71506C 549.313 364.56006 548.487 341.50305 543.188 318.43304C 537.839 295.14905 528.388 273.85303 515.782 255.09004C 517.297 253.71204 520.15796 251.17905 520.969 250.43304C 521.206 247.80905 521.003 245.05804 523.719 242.15204C 529.47 236.75204 536.722 232.27304 545.469 226.87103C 549.621 224.42804 553.459 222.85403 557.625 219.77704C 558.568 219.08104 559.855 217.97903 560.845 217.18304C 567.85895 211.58705 569.475 201.93504 564.438 195.62105C 559.401 189.30705 549.641 188.71104 542.625 194.30804C 541.627 195.09904 540.272 196.13104 539.375 196.90204C 535.449 200.28004 533.024 203.61604 529.719 207.12103C 522.507 214.44704 516.545 220.55904 510 224.96503C 507.164 226.61502 503.01 226.04503 501.125 225.93303L501.125 225.93303L495.563 229.90202C 463.844 196.64203 420.658 175.37701 374.15698 171.24603C 374.02698 169.29703 373.857 165.77504 373.813 164.71404C 371.909 162.89304 369.61 161.33803 369.03198 157.40204C 368.396 149.53804 369.45798 141.07704 370.688 130.87103C 371.36798 126.102036 372.495 122.14104 372.688 116.964035C 372.732 115.78803 372.662 114.08003 372.65698 112.80804C 372.65598 103.83404 366.10898 96.55804 358.03198 96.55804L358.03198 96.55804L351.408 89.307zM333.095 202.745L328.752 279.463L328.43903 279.62003C 328.14804 286.48303 322.49902 291.963 315.56403 291.963C 312.72403 291.963 310.101 291.05103 307.97003 289.49503L307.97003 289.49503L307.84503 289.55704L244.93903 244.96304C 264.273 225.95305 289.002 211.90305 317.502 205.43304zM369.752 202.745C 403.02502 206.83699 433.797 221.90399 457.377 244.995L457.377 244.995L394.877 289.307L394.657 289.21402C 389.11002 293.265 381.294 292.26 376.97 286.83902L376.97 286.83902L376.907 286.80902zM222.127 273.62L279.564 324.995L279.50198 325.307C 284.68597 329.814 285.44998 337.635 281.12698 343.057L281.12698 343.057L281.06497 343.307L207.43997 364.557C 203.69197 330.292 211.76797 296.984 228.81497 269.214zM480.28302 273.65C 488.81702 287.483 495.27902 302.93298 499.127 319.682C 502.927 336.23 503.881 352.74902 502.31403 368.713L502.31403 368.713L428.31403 347.401L428.252 347.088C 421.625 345.278 417.552 338.53702 419.095 331.776L419.095 331.776L419.064 331.62L476.189 280.495zM339.627 328.96298L363.157 328.96298L377.78302 347.245L372.53302 370.057L351.40802 380.213L330.22003 370.026L324.97003 347.213zM415.06403 391.52597C 416.06403 391.47598 417.06003 391.56598 418.03302 391.74496L418.03302 391.74496L418.15802 391.58795L494.31403 404.46295C 483.16904 435.77695 461.84103 462.90295 433.34503 481.05695L433.34503 481.05695L403.78302 409.65094L403.876 409.52594C 401.161 403.21594 403.87802 395.81595 410.126 392.80695C 411.726 392.03696 413.397 391.60995 415.064 391.52594zM287.15802 391.83798C 292.96902 391.91998 298.182 395.95398 299.53302 401.87C 300.165 404.63998 299.85703 407.383 298.81403 409.807L298.81403 409.807L299.03302 410.088L269.78302 480.776C 242.43602 463.227 220.65302 436.952 209.00201 404.713L209.00201 404.713L284.502 391.901L284.627 392.057C 285.471 391.902 286.32703 391.827 287.157 391.838zM350.93903 422.80798C 353.49902 424.041 355.476 425.982 356.72104 428.30798L356.72104 428.30798L357.00104 428.30798L394.22104 495.55798L356.72104 428.30798L357.00104 428.30798L394.22104 495.55798C 365.75604 502.021 337.38104 500.06198 311.68903 491.30798L311.68903 491.30798L348.81403 424.18298L348.877 424.18298L311.68903 491.30798L348.81403 424.18298L348.877 424.18298z" stroke="#FFFFFF" stroke-width="0.25" fill="#FFFFFF" fill-rule="nonzero" />
</g>
</svg>