<?xml version="1.0" standalone="no"?>
<!DOCTYPE svg PUBLIC "-//W3C//DTD SVG 1.0//EN" "http://www.w3.org/TR/2001/REC-SVG-20010904/DTD/svg10.dtd">
<svg xmlns="http://www.w3.org/2000/svg" xmlns:xlink="http://www.w3.org/1999/xlink" id="body_1" width="614" height="461">

<g transform="matrix(0.9003906 0 0 0.9003906 76.500015 9.003906)">
	<g>
        <path d="M166.288 48.601C 156.093 51.184 150.8 58.655 150.8 70.462C 150.8 77.56 151.407 78.932 155.02 80C 159.671 81.375 162.4 77.486 162.4 69.484C 162.4 65.162 162.827 63.991 165.183 61.863C 170.704 56.875 180 61.06 180 68.533C 180 73.387 186.139 75.861 189.6 72.4C 191.189 70.811 191.2 70.779 191.2 67.728C 191.2 55.283 178.476 45.514 166.288 48.601M225 48.44C 215.51 50.574 208.8 58.563 208.8 67.728C 208.8 76.569 218.699 76.516 220.236 67.667C 221.38 61.077 227.56 57.713 233.2 60.61C 236.653 62.384 237.568 64.415 237.957 71.166C 238.32 77.466 238.655 78.267 241.48 79.596C 243.87 80.719 246.3 80.133 248.052 78.009L248.052 78.009L249.2 76.618L249.196 70.609C 249.193 66.499 249.007 63.992 248.608 62.676C 245.596 52.751 234.795 46.238 225 48.44M190.2 178.874C 179.721 180.78 173.629 182.906 164.362 187.889C 162.266 189.016 156.717 192.628 155.254 193.818C 154.894 194.111 153.52 195.21 152.2 196.26C 148.048 199.564 142.792 204.629 139.602 208.401C 138.394 209.83 137.298 211.09 137.167 211.2C 136.165 212.043 128.379 222.989 126.869 225.676C 126.433 226.454 125.833 227.52 125.538 228.045C 125.242 228.57 124.91 229.09 124.8 229.2C 122.78 231.22 114.606 249.897 111.583 259.4C 110.883 261.6 110.151 263.713 109.955 264.095C 109.76 264.477 109.6 265.231 109.6 265.771C 109.6 266.311 109.44 266.852 109.244 266.973C 109.049 267.094 108.792 267.779 108.673 268.496C 108.555 269.213 108.254 270.61 108.004 271.6C 107.755 272.59 107.46 273.94 107.348 274.6C 107.237 275.26 106.992 276.16 106.803 276.6C 106.615 277.04 106.358 278.12 106.232 279C 106.107 279.88 105.821 281.5 105.598 282.6C 104.691 287.075 104.168 290.769 103.107 300.2C 102.194 308.318 102.417 333.432 103.4 333.26C 117.224 330.846 131.342 339.015 142.699 356C 145.37 359.994 148.467 365.762 149.572 368.8C 149.852 369.57 150.218 370.56 150.385 371C 151.381 373.62 151.651 375.165 151.66 378.29C 151.671 382.109 152.016 383.2 153.214 383.2C 153.646 383.2 154 383.355 154 383.545C 154 383.734 154.448 383.803 154.995 383.699C 155.668 383.57 156.07 383.717 156.238 384.154C 156.374 384.509 156.916 384.8 157.443 384.8C 157.969 384.8 158.4 384.994 158.4 385.232C 158.4 385.503 158.845 385.566 159.6 385.4C 160.458 385.212 160.863 385.3 161.02 385.709C 161.163 386.081 161.602 386.212 162.272 386.084C 162.968 385.951 163.425 386.102 163.674 386.546C 163.929 387.003 164.341 387.13 165.017 386.96C 165.659 386.799 166.065 386.904 166.204 387.267C 166.35 387.647 166.913 387.772 168.008 387.668C 169.27 387.547 169.6 387.65 169.6 388.163C 169.6 388.693 169.887 388.763 171.193 388.555C 172.4 388.362 172.842 388.443 173.013 388.889C 173.185 389.337 173.716 389.433 175.22 389.289C 176.731 389.143 177.2 389.229 177.2 389.652C 177.2 390.065 177.836 390.205 179.7 390.203C 181.257 390.201 182.171 390.361 182.124 390.628C 182.074 390.912 183.033 390.999 184.976 390.888C 186.846 390.781 188.002 390.88 188.175 391.16C 188.568 391.795 212 391.778 212 391.143C 212 390.82 212.933 390.75 215.172 390.903C 217.795 391.083 218.386 391.014 218.581 390.505C 218.77 390.013 219.262 389.936 221.031 390.118C 222.803 390.301 223.293 390.224 223.482 389.73C 223.671 389.239 224.115 389.165 225.66 389.37C 227.307 389.589 227.6 389.527 227.6 388.961C 227.6 388.414 227.888 388.333 229.2 388.509C 230.466 388.679 230.8 388.595 230.8 388.109C 230.8 387.623 231.134 387.54 232.4 387.709C 233.657 387.878 234 387.794 234 387.317C 234 386.841 234.3 386.767 235.4 386.974C 236.546 387.189 236.8 387.115 236.8 386.568C 236.8 386.044 237.05 385.95 237.964 386.133C 238.804 386.301 239.194 386.192 239.368 385.74C 239.536 385.3 239.902 385.189 240.604 385.365C 241.361 385.555 241.6 385.458 241.6 384.961C 241.6 384.482 241.863 384.357 242.58 384.494C 243.207 384.614 243.641 384.47 243.785 384.095C 243.929 383.721 244.363 383.576 244.985 383.695C 245.574 383.808 246.041 383.67 246.165 383.347C 246.283 383.041 246.649 382.921 247.025 383.065C 248.066 383.464 248.364 382.473 248.365 378.606C 248.37 365.23 264.306 342.958 279.137 335.6C 283.459 333.455 287.179 332.706 292.645 332.879L292.645 332.879L297.49 333.033L297.754 325.616C 298.231 312.266 296.886 294.892 294.418 282.5C 294.188 281.345 293.831 279.545 293.625 278.5C 293.419 277.455 293.067 275.88 292.843 275C 291.843 271.065 291.528 269.715 291.327 268.496C 291.208 267.779 290.951 267.094 290.756 266.973C 290.56 266.852 290.4 266.311 290.4 265.771C 290.4 265.231 290.236 264.477 290.036 264.095C 289.836 263.713 289.178 261.78 288.575 259.8C 285.374 249.296 278.026 232.884 273.953 227.138C 273.539 226.554 273.2 225.963 273.2 225.825C 273.2 225.615 271.552 223.144 266.8 216.226C 256.65 201.451 238.778 187.542 223.2 182.294C 217.413 180.344 216.016 179.994 209.376 178.826C 206.501 178.321 193.057 178.354 190.2 178.874" stroke="none" fill="#FBF3EB" fill-rule="nonzero" />
        <path d="M195.2 86.608C 192.89 86.898 190.55 87.25 190 87.39C 187.245 88.089 185.726 88.521 185 88.808C 184.56 88.983 183.39 89.427 182.4 89.796C 181.41 90.164 179.97 90.739 179.2 91.074C 177.144 91.966 174.853 92.905 173 93.613C 172.56 93.781 171.57 94.193 170.8 94.528C 170.03 94.863 168.41 95.526 167.2 96C 156.355 100.254 155.33 108.571 164.555 117.472C 166.78 119.618 173.82 126.442 180.2 132.636C 199.506 151.377 200.448 151.601 212.109 140.2C 214.81 137.56 222.028 130.54 228.149 124.6C 240.978 112.152 241.388 111.607 241.395 106.976C 241.405 100.822 239.744 98.945 231 95.222C 230.56 95.035 229.57 94.607 228.8 94.272C 228.03 93.937 226.41 93.274 225.2 92.8C 223.99 92.326 222.37 91.663 221.6 91.328C 219.699 90.5 218.844 90.165 217.2 89.6C 216.43 89.336 215.44 88.978 215 88.805C 212.765 87.928 207.888 86.873 204.8 86.598C 203.37 86.471 201.57 86.302 200.8 86.223C 200.03 86.144 197.51 86.317 195.2 86.608M104.619 333.251C 102.471 333.754 97.955 335.403 96.019 336.39C 95.146 336.836 93.885 337.2 93.216 337.2C 92.547 337.2 92 337.38 92 337.6C 92 337.82 91.68 338 91.288 338C 90.897 338 90.317 338.36 90 338.8C 89.683 339.24 89.19 339.6 88.904 339.6C 88.043 339.6 78.449 348.99 77.578 350.685C 77.263 351.298 76.733 352.07 76.4 352.4C 76.067 352.73 75.54 353.495 75.23 354.1C 74.919 354.705 74.515 355.2 74.332 355.2C 74.15 355.2 74 355.436 74 355.725C 74 356.013 73.64 356.636 73.2 357.108C 72.76 357.58 72.4 358.244 72.4 358.583C 72.4 358.922 72.25 359.2 72.068 359.2C 71.885 359.2 71.48 359.695 71.168 360.3C 70.856 360.905 70.51 361.49 70.398 361.6C 69.848 362.142 67.6 367.007 67.6 367.656C 67.6 368.065 67.42 368.4 67.2 368.4C 66.98 368.4 66.8 368.839 66.8 369.376C 66.8 369.913 66.62 370.464 66.4 370.6C 66.18 370.736 66 371.362 66 371.99C 66 372.619 65.81 373.197 65.577 373.274C 64.987 373.471 64.972 382.924 65.562 383.121C 65.803 383.201 66 383.612 66 384.033C 66 384.455 66.18 384.8 66.4 384.8C 66.62 384.8 66.8 385.056 66.8 385.369C 66.8 386.2 72.268 391.6 73.109 391.6C 73.502 391.6 74.083 391.96 74.4 392.4C 74.717 392.84 75.282 393.2 75.655 393.2C 76.028 393.2 76.393 393.335 76.467 393.5C 76.54 393.665 77.5 394.225 78.6 394.744C 79.7 395.263 80.913 395.848 81.295 396.044C 81.677 396.24 82.262 396.4 82.595 396.4C 82.928 396.4 83.2 396.58 83.2 396.8C 83.2 397.02 83.729 397.2 84.376 397.2C 85.023 397.2 85.664 397.38 85.8 397.6C 85.936 397.82 86.667 398 87.424 398C 88.181 398 88.8 398.18 88.8 398.4C 88.8 398.62 89.484 398.8 90.32 398.8C 91.156 398.8 92.065 399.025 92.34 399.3C 92.723 399.683 96.583 399.8 108.887 399.8C 121.369 399.8 124.97 399.689 125.1 399.3C 125.196 399.013 125.936 398.8 126.833 398.8C 127.695 398.8 128.4 398.62 128.4 398.4C 128.4 398.18 129.12 398 130 398C 130.88 398 131.6 397.82 131.6 397.6C 131.6 397.38 132.14 397.2 132.8 397.2C 133.46 397.2 134 397.02 134 396.8C 134 396.58 134.439 396.4 134.976 396.4C 135.513 396.4 136.064 396.22 136.2 396C 136.336 395.78 136.797 395.6 137.224 395.6C 137.651 395.6 138 395.42 138 395.2C 138 394.98 138.36 394.8 138.8 394.8C 139.24 394.8 139.6 394.62 139.6 394.4C 139.6 394.18 139.96 394 140.4 394C 140.84 394 141.2 393.82 141.2 393.6C 141.2 393.38 141.43 393.2 141.712 393.2C 141.993 393.2 142.483 392.84 142.8 392.4C 143.117 391.96 143.688 391.6 144.069 391.6C 144.913 391.6 150.4 386.272 150.4 385.453C 150.4 385.13 150.59 384.803 150.823 384.726C 152.627 384.124 151.449 373.274 148.976 367.71C 138.905 345.055 119.286 329.814 104.619 333.251M287.4 333.2C 286.96 333.389 286.026 333.556 285.324 333.572C 284.622 333.587 283.936 333.78 283.8 334C 283.664 334.22 283.149 334.4 282.656 334.4C 282.163 334.4 281.589 334.551 281.38 334.736C 281.171 334.921 280.37 335.314 279.6 335.611C 271.115 338.88 258.078 352.988 252.405 365.041C 248.941 372.4 248.204 375.121 248.551 379.28C 248.684 380.886 248.789 382.785 248.784 383.5C 248.779 384.215 248.961 384.8 249.187 384.8C 249.414 384.8 249.6 385.056 249.6 385.369C 249.6 386.2 255.068 391.6 255.909 391.6C 256.302 391.6 256.883 391.96 257.2 392.4C 257.517 392.84 258.082 393.2 258.455 393.2C 258.828 393.2 259.193 393.335 259.267 393.5C 259.34 393.665 260.3 394.225 261.4 394.744C 262.5 395.263 263.713 395.848 264.095 396.044C 264.477 396.24 265.062 396.4 265.395 396.4C 265.728 396.4 266 396.58 266 396.8C 266 397.02 266.529 397.2 267.176 397.2C 267.823 397.2 268.464 397.38 268.6 397.6C 268.736 397.82 269.456 398 270.2 398C 270.944 398 271.664 398.18 271.8 398.4C 271.936 398.62 272.631 398.8 273.344 398.8C 274.057 398.8 274.865 399.025 275.14 399.3C 275.523 399.683 279.383 399.8 291.687 399.8C 304.169 399.8 307.77 399.689 307.9 399.3C 307.996 399.013 308.736 398.8 309.633 398.8C 310.495 398.8 311.2 398.62 311.2 398.4C 311.2 398.18 311.92 398 312.8 398C 313.68 398 314.4 397.82 314.4 397.6C 314.4 397.38 314.94 397.2 315.6 397.2C 316.26 397.2 316.8 397.02 316.8 396.8C 316.8 396.58 317.149 396.4 317.576 396.4C 318.003 396.4 318.464 396.22 318.6 396C 318.736 395.78 319.287 395.6 319.824 395.6C 320.361 395.6 320.8 395.42 320.8 395.2C 320.8 394.98 321.16 394.8 321.6 394.8C 322.04 394.8 322.4 394.62 322.4 394.4C 322.4 394.18 322.76 394 323.2 394C 323.64 394 324 393.82 324 393.6C 324 393.38 324.23 393.2 324.512 393.2C 324.793 393.2 325.283 392.84 325.6 392.4C 325.917 391.96 326.488 391.6 326.869 391.6C 327.733 391.6 333.2 386.263 333.2 385.419C 333.2 385.079 333.38 384.8 333.6 384.8C 333.82 384.8 334 384.44 334 384C 334 383.56 334.18 383.2 334.4 383.2C 334.62 383.2 334.8 382.336 334.8 381.28C 334.8 380.224 335.025 379.122 335.3 378.83C 335.7 378.406 335.7 378.263 335.3 378.117C 334.977 377.998 334.8 377.096 334.8 375.567C 334.8 374.256 334.622 373.2 334.4 373.2C 334.18 373.2 334 372.581 334 371.824C 334 371.067 333.82 370.336 333.6 370.2C 333.38 370.064 333.2 369.603 333.2 369.176C 333.2 368.749 333.02 368.4 332.8 368.4C 332.58 368.4 332.4 367.961 332.4 367.424C 332.4 366.887 332.22 366.336 332 366.2C 331.78 366.064 331.6 365.603 331.6 365.176C 331.6 364.749 331.42 364.4 331.2 364.4C 330.98 364.4 330.8 364.04 330.8 363.6C 330.8 363.16 330.62 362.8 330.4 362.8C 330.18 362.8 330 362.53 330 362.2C 330 361.87 329.82 361.6 329.6 361.6C 329.38 361.6 329.2 361.28 329.2 360.888C 329.2 360.497 328.84 359.917 328.4 359.6C 327.96 359.283 327.6 358.703 327.6 358.312C 327.6 357.92 327.42 357.6 327.2 357.6C 326.98 357.6 326.8 357.28 326.8 356.888C 326.8 356.497 326.44 355.917 326 355.6C 325.56 355.283 325.197 354.748 325.194 354.412C 325.19 354.075 324.65 353.191 323.994 352.446C 323.337 351.701 322.8 350.956 322.8 350.79C 322.8 350.505 318.697 346.353 313.818 341.7C 312.607 340.545 311.382 339.6 311.096 339.6C 310.81 339.6 310.317 339.24 310 338.8C 309.683 338.36 309.193 338 308.912 338C 308.63 338 308.4 337.82 308.4 337.6C 308.4 337.38 307.848 337.2 307.174 337.2C 306.5 337.2 305.015 336.775 303.874 336.255C 302.733 335.735 301.35 335.175 300.8 335.011C 300.25 334.846 299.26 334.484 298.6 334.206C 295.38 332.85 289.453 332.318 287.4 333.2" stroke="none" fill="#FB9709" fill-rule="nonzero" />
        <path d="M186.8 0.274C 185.59 0.369 184.429 0.616 184.22 0.823C 184.011 1.03 183.257 1.2 182.544 1.2C 181.831 1.2 181.136 1.38 181 1.6C 180.864 1.82 180.133 2 179.376 2C 178.619 2 178 2.18 178 2.4C 178 2.62 177.46 2.8 176.8 2.8C 176.14 2.8 175.6 2.98 175.6 3.2C 175.6 3.42 175.06 3.6 174.4 3.6C 173.74 3.6 173.2 3.78 173.2 4C 173.2 4.22 172.84 4.4 172.4 4.4C 171.96 4.4 171.6 4.58 171.6 4.8C 171.6 5.02 171.161 5.2 170.624 5.2C 170.087 5.2 169.536 5.38 169.4 5.6C 169.264 5.82 168.803 6 168.376 6C 167.949 6 167.6 6.18 167.6 6.4C 167.6 6.62 167.24 6.8 166.8 6.8C 166.36 6.8 166 6.98 166 7.2C 166 7.42 165.64 7.6 165.2 7.6C 164.76 7.6 164.4 7.78 164.4 8C 164.4 8.22 164.04 8.4 163.6 8.4C 163.16 8.4 162.8 8.58 162.8 8.8C 162.8 9.02 162.519 9.2 162.176 9.2C 161.833 9.2 161.65 9.358 161.77 9.551C 161.889 9.745 161.495 10.002 160.894 10.124C 160.292 10.246 159.403 10.717 158.917 11.173C 158.431 11.628 157.891 12 157.717 12C 157.543 12.001 156.877 12.451 156.238 13C 155.599 13.55 154.93 14 154.751 14C 154.573 14 153.797 14.63 153.027 15.4C 152.257 16.17 151.452 16.8 151.238 16.8C 150.608 16.8 142 25.665 142 26.314C 142 26.502 141.595 27.023 141.1 27.471C 139.837 28.614 138.8 29.938 138.8 30.405C 138.8 30.622 138.65 30.8 138.468 30.8C 138.285 30.8 137.881 31.295 137.57 31.9C 137.26 32.505 136.689 33.291 136.303 33.647C 135.916 34.003 135.6 34.573 135.6 34.914C 135.6 35.254 135.465 35.593 135.3 35.667C 134.924 35.834 133.625 37.964 133.329 38.9C 133.207 39.285 132.948 39.6 132.753 39.6C 132.559 39.6 132.4 39.96 132.4 40.4C 132.4 40.84 132.22 41.2 132 41.2C 131.78 41.2 131.6 41.56 131.6 42C 131.6 42.44 131.42 42.8 131.2 42.8C 130.98 42.8 130.8 43.072 130.8 43.405C 130.8 43.738 130.62 44.368 130.4 44.805C 130.18 45.242 129.82 45.958 129.6 46.395C 129.38 46.832 129.2 47.428 129.2 47.719C 129.2 48.011 128.843 48.988 128.408 49.89C 127.972 50.792 127.497 52.536 127.353 53.765C 127.208 54.994 126.935 56 126.745 56C 126.555 56 126.4 56.799 126.4 57.776C 126.4 58.753 126.22 59.664 126 59.8C 125.78 59.936 125.6 61.027 125.6 62.224C 125.6 63.421 125.42 64.4 125.2 64.4C 124.944 64.4 124.8 68.059 124.8 74.576C 124.8 80.929 124.65 84.846 124.4 85C 124.18 85.136 124 86.767 124 88.624C 124 90.608 123.835 92 123.6 92C 123.38 92 123.2 92.709 123.2 93.576C 123.2 94.443 123.02 95.264 122.8 95.4C 122.58 95.536 122.4 96.166 122.4 96.8C 122.4 97.434 122.22 98.064 122 98.2C 121.78 98.336 121.6 99.077 121.6 99.847C 121.6 100.679 121.438 101.147 121.2 101C 120.974 100.86 120.8 101.188 120.8 101.753C 120.8 102.303 120.62 102.864 120.4 103C 120.18 103.136 120 103.687 120 104.224C 120 104.761 119.82 105.2 119.6 105.2C 119.38 105.2 119.2 105.65 119.2 106.2C 119.2 106.75 119.065 107.201 118.9 107.203C 118.549 107.207 117.6 109.137 117.6 109.846C 117.6 110.114 117.465 110.393 117.3 110.467C 116.924 110.634 115.625 112.764 115.329 113.7C 115.207 114.085 114.948 114.4 114.753 114.4C 114.559 114.4 114.4 114.72 114.4 115.112C 114.4 115.503 114.04 116.083 113.6 116.4C 113.16 116.717 112.8 117.214 112.8 117.505C 112.8 117.796 112.425 118.431 111.966 118.917C 111.507 119.403 110.869 120.303 110.547 120.918C 110.224 121.533 109.07 122.946 107.98 124.058C 106.891 125.171 106 126.333 106 126.641C 106 126.948 105.833 127.2 105.629 127.2C 105.424 127.2 105.019 127.425 104.728 127.7C 104.437 127.975 103.389 128.85 102.399 129.645C 101.41 130.44 99.993 131.658 99.251 132.352C 98.509 133.045 97.384 133.919 96.751 134.293C 96.118 134.667 95.6 135.114 95.6 135.286C 95.6 135.459 95.402 135.6 95.16 135.6C 94.919 135.6 94.217 136.14 93.6 136.8C 92.983 137.46 92.263 138 92 138C 91.737 138 91.017 138.54 90.4 139.2C 89.783 139.86 89.031 140.4 88.728 140.4C 88.425 140.4 87.917 140.76 87.6 141.2C 87.283 141.64 86.838 142 86.612 142C 86.212 142.001 85.783 142.327 82.007 145.495C 77.347 149.406 61.591 165.781 60.467 167.88C 60.175 168.428 59.41 169.425 58.767 170.097C 58.125 170.769 57.6 171.474 57.6 171.663C 57.6 171.852 57.06 172.572 56.4 173.263C 55.74 173.954 55.2 174.722 55.2 174.971C 55.2 175.22 54.84 175.683 54.4 176C 53.96 176.317 53.6 176.807 53.6 177.088C 53.6 177.37 53.45 177.6 53.268 177.6C 53.085 177.6 52.681 178.095 52.37 178.7C 52.06 179.305 51.489 180.091 51.103 180.447C 50.716 180.803 50.4 181.348 50.4 181.659C 50.4 181.969 50.04 182.483 49.6 182.8C 49.16 183.117 48.8 183.697 48.8 184.088C 48.8 184.48 48.65 184.8 48.468 184.8C 48.285 184.8 47.88 185.295 47.568 185.9C 47.256 186.505 46.911 187.09 46.801 187.2C 46.405 187.594 45.146 189.813 44.929 190.5C 44.807 190.885 44.548 191.2 44.353 191.2C 44.159 191.2 44 191.547 44 191.971C 44 192.396 43.73 193.013 43.4 193.343C 43.07 193.673 42.8 194.136 42.8 194.371C 42.8 194.607 42.62 194.8 42.4 194.8C 42.18 194.8 42 195.16 42 195.6C 42 196.04 41.82 196.4 41.6 196.4C 41.38 196.4 41.2 196.76 41.2 197.2C 41.2 197.64 41.02 198 40.8 198C 40.58 198 40.4 198.36 40.4 198.8C 40.4 199.24 40.22 199.6 40 199.6C 39.78 199.6 39.6 199.971 39.6 200.424C 39.6 200.877 39.42 201.136 39.2 201C 38.98 200.864 38.8 201.033 38.8 201.376C 38.8 201.719 38.62 202 38.4 202C 38.18 202 38 202.36 38 202.8C 38 203.24 37.82 203.6 37.6 203.6C 37.38 203.6 37.2 203.96 37.2 204.4C 37.2 204.84 37.02 205.2 36.8 205.2C 36.58 205.2 36.4 205.661 36.4 206.224C 36.4 206.804 36.227 207.14 36 207C 35.78 206.864 35.6 207.028 35.6 207.364C 35.6 207.701 35.24 208.617 34.8 209.4C 34.36 210.183 34 211.089 34 211.412C 34 211.735 33.82 212 33.6 212C 33.38 212 33.2 212.36 33.2 212.8C 33.2 213.24 33.02 213.6 32.8 213.6C 32.58 213.6 32.4 213.836 32.4 214.125C 32.4 214.414 32.04 215.395 31.6 216.306C 31.16 217.216 30.8 218.24 30.8 218.581C 30.8 218.921 30.62 219.2 30.4 219.2C 30.18 219.2 30 219.56 30 220C 30 220.44 29.82 220.8 29.6 220.8C 29.38 220.8 29.2 221.34 29.2 222C 29.2 222.66 29.02 223.2 28.8 223.2C 28.58 223.2 28.4 223.549 28.4 223.976C 28.4 224.403 28.22 224.864 28 225C 27.78 225.136 27.599 225.642 27.598 226.124C 27.596 226.606 27.326 227.516 26.998 228.146C 26.669 228.776 26.4 229.631 26.4 230.046C 26.4 230.461 26.22 230.8 26 230.8C 25.78 230.8 25.6 231.34 25.6 232C 25.6 232.66 25.42 233.2 25.2 233.2C 24.98 233.2 24.8 233.56 24.8 234C 24.8 234.44 24.62 234.8 24.4 234.8C 24.18 234.8 24 235.34 24 236C 24 236.66 23.82 237.2 23.6 237.2C 23.38 237.2 23.2 237.74 23.2 238.4C 23.2 239.06 23.02 239.6 22.8 239.6C 22.58 239.6 22.4 240.14 22.4 240.8C 22.4 241.46 22.22 242 22 242C 21.78 242 21.6 242.54 21.6 243.2C 21.6 243.86 21.42 244.4 21.2 244.4C 20.98 244.4 20.8 245.03 20.8 245.8C 20.8 246.57 20.62 247.2 20.4 247.2C 20.18 247.2 20 247.74 20 248.4C 20 249.06 19.82 249.6 19.6 249.6C 19.38 249.6 19.2 250.32 19.2 251.2C 19.2 252.08 19.02 252.8 18.8 252.8C 18.58 252.8 18.4 253.34 18.4 254C 18.4 254.66 18.22 255.2 18 255.2C 17.474 255.2 17.474 261.075 18 261.4C 18.22 261.536 18.4 262.02 18.4 262.477C 18.4 262.933 18.727 263.597 19.128 263.953C 19.528 264.309 19.972 264.915 20.115 265.3C 20.258 265.685 20.611 266 20.899 266C 21.187 266 21.683 266.36 22 266.8C 22.317 267.24 22.897 267.6 23.288 267.6C 23.68 267.6 24 267.78 24 268C 24 268.237 25.459 268.4 27.576 268.4C 29.543 268.4 31.264 268.22 31.4 268C 31.536 267.78 31.957 267.6 32.335 267.6C 32.714 267.6 33.283 267.24 33.6 266.8C 33.917 266.36 34.38 266 34.629 266C 34.878 266 35.646 265.46 36.337 264.8C 37.028 264.14 37.748 263.6 37.937 263.6C 38.126 263.6 38.846 263.06 39.537 262.4C 40.228 261.74 40.908 261.2 41.049 261.2C 41.191 261.2 41.597 260.885 41.953 260.5C 42.309 260.115 43.23 259.454 44 259.03C 44.77 258.607 45.49 258.155 45.6 258.027C 45.71 257.898 46.474 257.344 47.297 256.796C 48.121 256.248 48.796 255.665 48.797 255.5C 48.799 255.335 49.043 255.2 49.341 255.2C 49.638 255.2 50.446 254.66 51.137 254C 51.828 253.34 52.548 252.8 52.737 252.8C 52.926 252.8 53.646 252.26 54.337 251.6C 55.028 250.94 55.729 250.4 55.896 250.4C 56.199 250.399 57.604 249.292 59.707 247.397C 60.316 246.849 61.008 246.4 61.246 246.4C 61.484 246.4 62.183 245.86 62.8 245.2C 63.417 244.54 64.137 244 64.4 244C 64.663 244 65.383 243.46 66 242.8C 66.617 242.14 67.331 241.6 67.587 241.6C 67.844 241.6 68.671 241.129 69.427 240.553L69.427 240.553L70.8 239.505L70.8 241.953C 70.8 243.318 70.623 244.4 70.4 244.4C 70.16 244.4 70 246.008 70 248.424C 70 250.814 69.848 252.354 69.626 252.216C 69.399 252.076 69.238 255.753 69.214 261.593C 69.189 267.944 69.315 271.2 69.588 271.2C 69.843 271.2 70 272.722 70 275.2C 70 277.6 70.16 279.2 70.4 279.2C 70.626 279.2 70.8 280.341 70.8 281.824C 70.8 283.471 70.949 284.355 71.2 284.2C 71.45 284.046 71.6 284.863 71.6 286.376C 71.6 287.725 71.777 288.8 72 288.8C 72.22 288.8 72.4 289.43 72.4 290.2C 72.4 290.97 72.58 291.6 72.8 291.6C 73.02 291.6 73.2 292.5 73.2 293.6C 73.2 294.7 73.38 295.6 73.6 295.6C 73.82 295.6 74 296.14 74 296.8C 74 297.46 74.18 298 74.4 298C 74.62 298 74.8 298.619 74.8 299.376C 74.8 300.133 74.98 300.864 75.2 301C 75.42 301.136 75.6 301.597 75.6 302.024C 75.6 302.451 75.742 302.8 75.915 302.8C 76.088 302.8 76.274 303.378 76.328 304.084C 76.382 304.791 76.578 305.466 76.764 305.584C 76.95 305.703 77.23 306.564 77.386 307.498C 77.542 308.432 77.834 309.297 78.035 309.422C 78.236 309.546 78.4 309.997 78.4 310.424C 78.4 310.851 78.58 311.2 78.8 311.2C 79.02 311.2 79.2 311.74 79.2 312.4C 79.2 313.06 79.38 313.6 79.6 313.6C 79.82 313.6 80 313.96 80 314.4C 80 314.84 80.18 315.2 80.4 315.2C 80.62 315.2 80.8 315.56 80.8 316C 80.8 316.44 80.98 316.8 81.2 316.8C 81.42 316.8 81.599 317.025 81.597 317.3C 81.593 317.933 84.888 324.554 85.296 324.733C 85.463 324.807 85.6 325.122 85.6 325.433C 85.6 325.745 85.78 326 86 326C 86.22 326 86.4 326.36 86.4 326.8C 86.4 327.24 86.58 327.6 86.8 327.6C 87.02 327.6 87.2 327.836 87.2 328.125C 87.2 328.413 87.56 329.036 88 329.508C 88.44 329.98 88.8 330.604 88.8 330.895C 88.8 331.186 89.16 331.683 89.6 332C 90.04 332.317 90.4 332.897 90.4 333.288C 90.4 333.68 90.55 334 90.732 334C 90.915 334 91.32 334.495 91.632 335.1C 92.606 336.99 93.035 337.049 96 335.699C 96.77 335.349 98.351 334.688 99.513 334.231L99.513 334.231L101.626 333.4L101.773 318C 101.929 301.527 102.055 299.955 104.414 285C 104.845 282.264 105.403 279.414 106.019 276.8C 106.253 275.81 106.6 274.28 106.792 273.4C 106.983 272.52 107.35 271.08 107.607 270.2C 107.864 269.32 108.168 268.013 108.281 267.296C 108.395 266.579 108.649 265.894 108.844 265.773C 109.04 265.652 109.2 265.111 109.2 264.571C 109.2 264.031 109.362 263.277 109.559 262.895C 109.756 262.513 110.329 260.85 110.831 259.2C 111.333 257.55 111.892 256.029 112.072 255.82C 112.252 255.611 112.4 255.114 112.4 254.715C 112.4 254.316 112.559 253.677 112.753 253.295C 113.183 252.45 113.639 251.339 114.843 248.2C 115.349 246.88 115.995 245.35 116.279 244.8C 116.563 244.25 116.796 243.675 116.798 243.522C 116.802 243.052 121.939 232.725 123.225 230.6C 123.891 229.5 124.538 228.285 124.664 227.9C 124.79 227.515 125.031 227.2 125.2 227.2C 125.369 227.2 125.607 226.885 125.729 226.5C 125.985 225.692 127.128 223.788 128 222.716C 128.33 222.31 128.96 221.373 129.4 220.634C 130.402 218.95 134.484 213.271 135.466 212.196C 135.87 211.754 136.893 210.532 137.74 209.48C 141.141 205.257 150.498 196.34 154.4 193.604C 155.17 193.064 156.149 192.302 156.575 191.911C 157.002 191.52 157.587 191.2 157.875 191.2C 158.164 191.2 158.4 191.05 158.4 190.868C 158.4 190.685 158.895 190.28 159.5 189.968C 160.105 189.656 160.69 189.296 160.8 189.166C 161.463 188.388 170.278 183.948 173.978 182.529C 177.569 181.151 178.357 180.897 183.1 179.585C 192.727 176.923 206.088 176.901 217 179.53C 219.224 180.065 225.315 182.038 225.8 182.38C 226.02 182.535 227.039 182.972 228.065 183.351C 232.132 184.852 242.815 190.912 244 192.389C 244.11 192.526 244.83 193.071 245.6 193.6C 246.37 194.129 247.09 194.661 247.2 194.783C 247.31 194.905 248.12 195.535 249 196.184C 251.74 198.204 260.903 207.605 264.287 211.868C 267.645 216.098 272.8 223.315 272.8 223.785C 272.8 223.934 273.31 224.808 273.933 225.728C 274.556 226.648 275.182 227.67 275.324 228C 275.466 228.33 276.121 229.5 276.78 230.6C 280.786 237.286 285.839 248.865 288.823 258.2C 289.527 260.4 290.234 262.56 290.396 263C 291.158 265.077 291.6 266.731 291.6 267.505C 291.6 267.971 291.76 268.452 291.956 268.573C 292.151 268.694 292.412 269.379 292.534 270.096C 292.656 270.813 292.946 272.255 293.178 273.3C 293.41 274.345 293.78 276.01 294 277C 294.824 280.707 295.215 282.672 295.634 285.2C 295.87 286.63 296.238 288.79 296.452 290C 298.149 299.619 299.166 320.915 298.4 330.773L298.4 330.773L298.2 333.346L300.4 334.209C 301.61 334.684 303.468 335.472 304.53 335.96C 306.893 337.046 307.629 336.938 308.359 335.395C 308.67 334.738 309.076 334.14 309.262 334.067C 309.448 333.993 309.6 333.628 309.6 333.255C 309.6 332.882 309.96 332.317 310.4 332C 310.84 331.683 311.2 331.103 311.2 330.712C 311.2 330.32 311.38 330 311.6 330C 311.82 330 312 329.68 312 329.288C 312 328.897 312.36 328.317 312.8 328C 313.24 327.683 313.6 327.103 313.6 326.712C 313.6 326.32 313.78 326 314 326C 314.22 326 314.4 325.73 314.4 325.4C 314.4 325.07 314.58 324.8 314.8 324.8C 315.02 324.8 315.2 324.44 315.2 324C 315.2 323.56 315.38 323.2 315.6 323.2C 315.82 323.2 316 322.84 316 322.4C 316 321.96 316.18 321.6 316.4 321.6C 316.62 321.6 316.8 321.24 316.8 320.8C 316.8 320.36 316.935 319.999 317.1 319.997C 317.459 319.993 318.4 318.056 318.4 317.32C 318.4 317.034 318.58 316.8 318.8 316.8C 319.02 316.8 319.2 316.44 319.2 316C 319.2 315.56 319.38 315.2 319.6 315.2C 319.82 315.2 320 314.84 320 314.4C 320 313.96 320.18 313.6 320.4 313.6C 320.62 313.6 320.8 313.06 320.8 312.4C 320.8 311.74 320.98 311.2 321.2 311.2C 321.42 311.2 321.6 310.84 321.6 310.4C 321.6 309.96 321.78 309.6 322 309.6C 322.22 309.6 322.4 309.161 322.4 308.624C 322.4 308.087 322.58 307.536 322.8 307.4C 323.02 307.264 323.2 306.801 323.2 306.371C 323.2 305.941 323.38 305.232 323.6 304.795C 323.82 304.358 324.178 303.646 324.395 303.214C 324.612 302.781 324.907 301.431 325.05 300.214C 325.193 298.996 325.465 298 325.655 298C 325.845 298 326 297.381 326 296.624C 326 295.867 326.18 295.136 326.4 295C 326.62 294.864 326.8 294.043 326.8 293.176C 326.8 292.309 326.98 291.6 327.2 291.6C 327.42 291.6 327.6 290.97 327.6 290.2C 327.6 289.43 327.78 288.8 328 288.8C 328.22 288.8 328.4 287.821 328.4 286.624C 328.4 285.427 328.58 284.336 328.8 284.2C 329.02 284.064 329.2 282.883 329.2 281.576C 329.2 280.259 329.378 279.2 329.6 279.2C 329.84 279.2 330 277.6 330 275.2C 330 272.8 330.16 271.2 330.4 271.2C 330.656 271.2 330.8 267.733 330.8 261.6C 330.8 255.467 330.656 252 330.4 252C 330.162 252 330 250.475 330 248.224C 330 246.137 329.821 244.337 329.6 244.2C 329.121 243.904 329.056 239.6 329.53 239.6C 329.712 239.6 330.283 240.05 330.8 240.6C 331.317 241.15 331.996 241.6 332.309 241.6C 332.623 241.6 333.383 242.14 334 242.8C 334.617 243.46 335.369 244 335.672 244C 335.975 244 336.483 244.36 336.8 244.8C 337.117 245.24 337.707 245.6 338.112 245.6C 338.516 245.6 338.736 245.78 338.6 246C 338.464 246.22 338.545 246.4 338.78 246.4C 339.015 246.4 339.772 246.94 340.463 247.6C 341.154 248.26 341.922 248.8 342.171 248.8C 342.42 248.8 342.883 249.16 343.2 249.6C 343.517 250.04 343.927 250.4 344.11 250.4C 344.293 250.4 345.019 250.939 345.722 251.598C 346.425 252.257 347.137 252.797 347.304 252.798C 347.471 252.799 348.172 253.34 348.863 254C 349.554 254.66 350.28 255.2 350.478 255.2C 350.675 255.2 351.286 255.65 351.836 256.2C 352.386 256.75 352.981 257.2 353.157 257.2C 353.439 257.2 354.051 257.647 355.883 259.193C 356.149 259.417 356.604 259.6 356.895 259.6C 357.186 259.6 357.683 259.96 358 260.4C 358.317 260.84 358.762 261.2 358.99 261.2C 359.217 261.2 359.912 261.74 360.535 262.4C 361.158 263.06 361.834 263.6 362.038 263.6C 362.241 263.6 362.972 264.14 363.663 264.8C 364.354 265.46 365.122 266 365.371 266C 365.62 266 366.083 266.36 366.4 266.8C 366.717 267.24 367.286 267.6 367.665 267.6C 368.043 267.6 368.464 267.78 368.6 268C 368.736 268.22 370.457 268.4 372.424 268.4C 374.541 268.4 376 268.237 376 268C 376 267.78 376.32 267.6 376.712 267.6C 377.103 267.6 377.683 267.24 378 266.8C 378.317 266.36 378.797 266 379.066 266C 379.335 266 379.874 265.46 380.264 264.8C 380.654 264.14 381.114 263.6 381.286 263.6C 381.459 263.6 381.6 263.15 381.6 262.6C 381.6 262.05 381.78 261.6 382 261.6C 382.233 261.6 382.4 260.267 382.4 258.4C 382.4 256.533 382.233 255.2 382 255.2C 381.78 255.2 381.6 254.671 381.6 254.024C 381.6 253.377 381.42 252.736 381.2 252.6C 380.98 252.464 380.8 251.733 380.8 250.976C 380.8 250.219 380.62 249.6 380.4 249.6C 380.18 249.6 380 249.06 380 248.4C 380 247.74 379.82 247.2 379.6 247.2C 379.38 247.2 379.2 246.57 379.2 245.8C 379.2 245.03 379.02 244.4 378.8 244.4C 378.58 244.4 378.4 243.86 378.4 243.2C 378.4 242.54 378.22 242 378 242C 377.78 242 377.6 241.46 377.6 240.8C 377.6 240.14 377.42 239.6 377.2 239.6C 376.98 239.6 376.8 239.06 376.8 238.4C 376.8 237.74 376.62 237.2 376.4 237.2C 376.18 237.2 376 236.66 376 236C 376 235.34 375.831 234.8 375.625 234.8C 375.418 234.8 375.127 233.988 374.978 232.995C 374.829 232.002 374.548 231.092 374.354 230.971C 374.159 230.851 374 230.437 374 230.052C 374 229.666 373.64 228.605 373.2 227.694C 372.76 226.784 372.4 225.76 372.4 225.419C 372.4 225.079 372.22 224.8 372 224.8C 371.78 224.8 371.6 224.451 371.6 224.024C 371.6 223.597 371.42 223.136 371.2 223C 370.98 222.864 370.8 222.313 370.8 221.776C 370.8 221.239 370.62 220.8 370.4 220.8C 370.18 220.8 370 220.44 370 220C 370 219.56 369.82 219.2 369.6 219.2C 369.38 219.2 369.2 218.761 369.2 218.224C 369.2 217.687 369.02 217.136 368.8 217C 368.58 216.864 368.4 216.403 368.4 215.976C 368.4 215.549 368.22 215.2 368 215.2C 367.78 215.2 367.6 214.84 367.6 214.4C 367.6 213.96 367.42 213.6 367.2 213.6C 366.98 213.6 366.8 213.24 366.8 212.8C 366.8 212.36 366.62 212 366.4 212C 366.18 212 366 211.64 366 211.2C 366 210.76 365.82 210.4 365.6 210.4C 365.38 210.4 365.2 209.95 365.2 209.4C 365.2 208.85 365.02 208.4 364.8 208.4C 364.58 208.4 364.4 208.04 364.4 207.6C 364.4 207.16 364.22 206.8 364 206.8C 363.78 206.8 363.6 206.44 363.6 206C 363.6 205.56 363.42 205.2 363.2 205.2C 362.98 205.2 362.8 204.84 362.8 204.4C 362.8 203.96 362.62 203.6 362.4 203.6C 362.18 203.6 362 203.24 362 202.8C 362 202.36 361.82 202 361.6 202C 361.38 202 361.2 201.719 361.2 201.376C 361.2 200.991 361.009 200.863 360.7 201.041C 360.425 201.199 360.33 201.184 360.489 201.008C 360.748 200.722 359.772 198.512 359.162 198C 359.03 197.89 358.795 197.277 358.639 196.639C 358.482 196 357.824 194.707 357.177 193.767C 356.53 192.826 356 191.863 356 191.628C 356 191.393 355.82 191.2 355.6 191.2C 355.38 191.2 355.2 190.84 355.2 190.4C 355.2 189.96 355.042 189.6 354.849 189.6C 354.655 189.6 354.273 189.06 354 188.4C 353.727 187.74 353.345 187.2 353.151 187.2C 352.958 187.2 352.8 186.88 352.8 186.488C 352.8 186.097 352.44 185.517 352 185.2C 351.56 184.883 351.2 184.303 351.2 183.912C 351.2 183.52 351.05 183.2 350.868 183.2C 350.685 183.2 350.28 182.705 349.968 182.1C 349.655 181.495 349.085 180.651 348.7 180.225C 348.315 179.798 348 179.253 348 179.013C 348 178.773 347.64 178.317 347.2 178C 346.76 177.683 346.4 177.233 346.4 177C 346.4 176.767 346.04 176.317 345.6 176C 345.16 175.683 344.8 175.175 344.8 174.872C 344.8 174.569 344.26 173.817 343.6 173.2C 342.94 172.583 342.4 171.874 342.4 171.623C 342.4 171.149 342.022 170.627 340.5 168.999C 340.005 168.47 339.6 167.866 339.6 167.659C 339.6 167.451 338.7 166.362 337.6 165.239C 336.5 164.115 335.6 163.086 335.6 162.952C 335.6 162.818 333.215 160.307 330.3 157.372C 327.385 154.437 324.01 150.985 322.8 149.7C 321.59 148.416 319.978 146.923 319.217 146.382C 317.868 145.424 317.042 144.739 315.019 142.9C 314.474 142.405 313.824 142 313.575 142C 313.325 142 312.617 141.46 312 140.8C 311.383 140.14 310.663 139.6 310.4 139.6C 310.137 139.6 309.417 139.06 308.8 138.4C 308.183 137.74 307.481 137.2 307.24 137.2C 306.998 137.2 306.8 137.05 306.8 136.868C 306.8 136.685 306.305 136.281 305.7 135.97C 305.095 135.66 304.309 135.089 303.953 134.703C 303.597 134.316 303.124 134 302.901 134C 302.679 134 301.8 133.324 300.948 132.498C 300.097 131.672 298.77 130.551 298 130.007C 297.23 129.463 296.22 128.653 295.755 128.209C 295.291 127.764 294.526 127.135 294.055 126.812C 293.585 126.488 293.2 126.038 293.2 125.812C 293.199 125.415 292.071 123.909 290.465 122.162C 290.041 121.702 289.465 120.892 289.185 120.362C 288.904 119.833 288.343 119.109 287.937 118.753C 287.532 118.397 287.2 117.852 287.2 117.541C 287.2 117.231 286.84 116.717 286.4 116.4C 285.96 116.083 285.6 115.503 285.6 115.112C 285.6 114.72 285.42 114.4 285.2 114.4C 284.98 114.4 284.8 114.164 284.8 113.875C 284.8 113.587 284.44 112.964 284 112.492C 283.56 112.02 283.2 111.356 283.2 111.017C 283.2 110.678 283.02 110.4 282.8 110.4C 282.58 110.4 282.4 110.13 282.4 109.8C 282.4 109.47 282.22 109.2 282 109.2C 281.78 109.2 281.6 108.851 281.6 108.424C 281.6 107.997 281.42 107.536 281.2 107.4C 280.98 107.264 280.8 106.713 280.8 106.176C 280.8 105.639 280.62 105.2 280.4 105.2C 280.18 105.2 280 104.84 280 104.4C 280 103.96 279.82 103.6 279.6 103.6C 279.38 103.6 279.2 103.06 279.2 102.4C 279.2 101.74 279.02 101.2 278.8 101.2C 278.58 101.2 278.4 100.57 278.4 99.8C 278.4 99.03 278.22 98.4 278 98.4C 277.78 98.4 277.6 97.77 277.6 97C 277.6 96.23 277.42 95.6 277.2 95.6C 276.98 95.6 276.8 94.79 276.8 93.8C 276.8 92.81 276.62 92 276.4 92C 276.165 92 276 90.627 276 88.68C 276 86.854 275.838 85.189 275.641 84.98C 275.443 84.771 275.21 79.143 275.121 72.473C 275.015 64.392 274.817 60.256 274.529 60.073C 274.292 59.923 273.992 59.08 273.864 58.2C 273.343 54.627 273.096 53.6 272.756 53.6C 272.56 53.6 272.4 53.06 272.4 52.4C 272.4 51.74 272.22 51.2 272 51.2C 271.78 51.2 271.6 50.66 271.6 50C 271.6 49.34 271.42 48.8 271.2 48.8C 270.98 48.8 270.8 48.361 270.8 47.824C 270.8 47.287 270.62 46.736 270.4 46.6C 270.18 46.464 270 46.003 270 45.576C 270 45.149 269.82 44.8 269.6 44.8C 269.38 44.8 269.2 44.451 269.2 44.024C 269.2 43.597 269.02 43.136 268.8 43C 268.58 42.864 268.4 42.403 268.4 41.976C 268.4 41.549 268.22 41.2 268 41.2C 267.78 41.2 267.6 40.922 267.6 40.583C 267.6 40.244 267.24 39.58 266.8 39.108C 266.36 38.636 266 38.013 266 37.725C 266 37.436 265.82 37.2 265.6 37.2C 265.38 37.2 265.2 36.84 265.2 36.4C 265.2 35.96 265.02 35.6 264.8 35.6C 264.58 35.6 264.4 35.364 264.4 35.075C 264.4 34.787 264.04 34.164 263.6 33.692C 263.16 33.22 262.8 32.673 262.8 32.476C 262.8 32.279 262.26 31.554 261.6 30.863C 260.94 30.172 260.4 29.463 260.4 29.286C 260.4 29.109 259.68 28.192 258.8 27.249C 257.92 26.305 257.2 25.394 257.2 25.225C 257.2 24.742 251.159 18.683 249.6 17.602C 248.83 17.068 247.723 16.129 247.14 15.515C 246.556 14.902 245.873 14.4 245.621 14.4C 245.37 14.4 244.714 13.95 244.164 13.4C 243.614 12.85 243.02 12.4 242.844 12.4C 242.668 12.4 242.001 11.945 241.362 11.39C 240.723 10.834 239.75 10.265 239.2 10.126C 238.65 9.986 237.909 9.541 237.553 9.136C 237.197 8.731 236.612 8.4 236.253 8.4C 235.894 8.4 235.6 8.22 235.6 8C 235.6 7.78 235.24 7.6 234.8 7.6C 234.36 7.6 234 7.42 234 7.2C 234 6.98 233.64 6.8 233.2 6.8C 232.76 6.8 232.4 6.62 232.4 6.4C 232.4 6.18 232.051 6 231.624 6C 231.197 6 230.736 5.82 230.6 5.6C 230.464 5.38 229.913 5.2 229.376 5.2C 228.839 5.2 228.4 5.02 228.4 4.8C 228.4 4.58 228.128 4.4 227.795 4.4C 227.207 4.4 226.782 4.233 224.905 3.262C 224.413 3.008 223.558 2.8 223.005 2.8C 222.452 2.8 222 2.62 222 2.4C 222 2.18 221.37 2 220.6 2C 219.83 2 219.2 1.82 219.2 1.6C 219.2 1.38 218.516 1.2 217.68 1.2C 216.844 1.2 215.939 0.979 215.67 0.71C 215.179 0.219 191.985 -0.131 186.8 0.274M176.847 48.169C 183.505 50.19 188.183 54.753 191.149 62.119C 191.397 62.734 191.6 63.757 191.6 64.393C 191.6 65.028 191.776 66.011 191.991 66.577C 193.021 69.286 190.595 73.593 187.583 74.405C 183.274 75.565 180.126 73.319 179.299 68.494C 178.341 62.906 175.731 60.392 170.905 60.41C 165.351 60.43 162.8 63.81 162.8 71.147C 162.8 73.995 162.605 75.969 162.235 76.851C 160.173 81.773 153.429 82.183 150.819 77.546C 149.886 75.888 149.64 67.046 150.432 63.611C 153.013 52.408 165.932 44.856 176.847 48.169M235.277 48.326C 238.615 49.427 241.129 51.055 244.039 54C 246.433 56.422 247.189 57.62 249.219 62.2C 250.302 64.646 250.233 75.957 249.125 77.59C 246.594 81.319 242.636 81.885 239.265 79C 237.666 77.632 237.2 75.86 237.2 71.147C 237.2 66.292 236.521 64.12 234.451 62.346C 228.989 57.667 222.098 60.702 220.807 68.357C 219.661 75.154 211.448 77.25 208.766 71.43C 208.101 69.984 208.107 63.333 208.774 62.666C 209.009 62.431 209.197 61.961 209.194 61.62C 209.167 59.003 215.281 51.772 219.186 49.802C 223.833 47.458 230.727 46.825 235.277 48.326M207.4 86.194C 212.372 87.093 216.654 88.449 222.6 91.007C 226.239 92.572 227.531 93.107 229.7 93.949C 230.891 94.411 233.954 95.786 236.24 96.884C 239.892 98.637 242.4 102.88 242.4 107.305C 242.4 108.321 242.22 109.264 242 109.4C 241.78 109.536 241.6 109.999 241.6 110.429C 241.6 111.233 241.053 112.355 240 113.714C 239.267 114.659 227.757 125.939 211.659 141.488C 201.881 150.933 197.981 150.755 187.293 140.379C 184.473 137.641 177.336 130.721 171.434 125.002C 158.605 112.57 158.313 112.193 157.723 107.283C 157.263 103.457 160.494 98.252 164.4 96.524C 167.101 95.329 168.348 94.811 170 94.195C 170.99 93.826 172.61 93.158 173.6 92.711C 174.59 92.264 175.76 91.76 176.2 91.59C 176.64 91.42 177.63 91.008 178.4 90.674C 179.17 90.339 180.61 89.764 181.6 89.396C 182.59 89.027 183.76 88.565 184.2 88.368C 189.442 86.024 200.654 84.973 207.4 86.194" stroke="none" fill="#3C5858" fill-rule="nonzero" />
        <path d="M166.2 48C 165.181 48.438 166.232 48.438 167.6 48C 168.404 47.743 168.443 47.677 167.8 47.668C 167.36 47.662 166.64 47.811 166.2 48M174.4 48C 175.768 48.438 176.819 48.438 175.8 48C 175.36 47.811 174.64 47.662 174.2 47.668C 173.557 47.677 173.596 47.743 174.4 48M224.4 48.018C 223.962 48.315 224.124 48.352 225 48.156C 226.471 47.827 226.79 47.598 225.767 47.606C 225.345 47.609 224.73 47.795 224.4 48.018M232.4 48C 233.768 48.438 234.819 48.438 233.8 48C 233.36 47.811 232.64 47.662 232.2 47.668C 231.557 47.677 231.596 47.743 232.4 48M240.8 51.268C 242.462 52.944 245.655 55.621 244.6 54.453C 243.94 53.723 242.68 52.572 241.8 51.894C 240.92 51.217 240.47 50.935 240.8 51.268M156.161 53.7C 154.702 55.245 152.864 57.555 153.853 56.6C 154.918 55.572 158.09 52 157.938 52C 157.844 52 157.044 52.765 156.161 53.7M185.583 53.7C 187.241 55.466 187.6 55.784 187.6 55.483C 187.6 55.419 186.745 54.564 185.7 53.583L185.7 53.583L183.8 51.8L185.583 53.7zM214.378 53.5L213 55L214.5 53.622C 215.896 52.338 216.184 52 215.878 52C 215.812 52 215.137 52.675 214.378 53.5M169.907 60.29C 170.626 60.379 171.706 60.377 172.307 60.286C 172.908 60.195 172.32 60.122 171 60.124C 169.68 60.126 169.188 60.201 169.907 60.29M227.907 60.29C 228.626 60.379 229.706 60.377 230.307 60.286C 230.908 60.195 230.32 60.122 229 60.124C 227.68 60.126 227.188 60.201 227.907 60.29M164.975 62.5L163.8 63.8L165.1 62.625C 166.312 61.53 166.584 61.2 166.275 61.2C 166.206 61.2 165.621 61.785 164.975 62.5M233.6 61.325C 233.6 61.394 234.185 61.979 234.9 62.625L234.9 62.625L236.2 63.8L235.025 62.5C 233.93 61.288 233.6 61.016 233.6 61.325M208.649 63.015C 208.512 63.373 208.415 63.966 208.434 64.333C 208.453 64.7 208.627 64.469 208.821 63.82C 209.198 62.558 209.065 61.933 208.649 63.015M150.269 64.756C 150.121 65.495 150.02 66.483 150.044 66.95C 150.068 67.418 150.247 66.99 150.442 66C 150.637 65.01 150.738 64.023 150.667 63.806C 150.596 63.59 150.417 64.017 150.269 64.756M162.553 71C 162.553 73.64 162.618 74.668 162.697 73.284C 162.775 71.901 162.774 69.741 162.695 68.484C 162.616 67.228 162.552 68.36 162.553 71M191.701 67.8C 191.705 68.68 191.787 68.993 191.883 68.495C 191.979 67.998 191.975 67.278 191.875 66.895C 191.775 66.513 191.696 66.92 191.701 67.8M237.348 70.4C 237.348 72.71 237.414 73.655 237.495 72.5C 237.576 71.345 237.576 69.455 237.495 68.3C 237.414 67.145 237.348 68.09 237.348 70.4M208.093 68C 208.093 68.77 208.175 69.085 208.276 68.7C 208.376 68.315 208.376 67.685 208.276 67.3C 208.175 66.915 208.093 67.23 208.093 68M155.5 80.682C 155.995 80.778 156.805 80.778 157.3 80.682C 157.795 80.587 157.39 80.509 156.4 80.509C 155.41 80.509 155.005 80.587 155.5 80.682M242.705 80.683C 243.202 80.779 243.922 80.775 244.305 80.675C 244.687 80.575 244.28 80.496 243.4 80.501C 242.52 80.505 242.207 80.587 242.705 80.683M197.7 177.896C 198.965 177.975 201.035 177.975 202.3 177.896C 203.565 177.816 202.53 177.751 200 177.751C 197.47 177.751 196.435 177.816 197.7 177.896M189.4 178.41C 188.866 178.647 189.198 178.686 190.4 178.527C 191.39 178.396 192.275 178.224 192.367 178.144C 192.714 177.843 190.164 178.072 189.4 178.41M208.1 178.276C 208.485 178.376 209.115 178.376 209.5 178.276C 209.885 178.175 209.57 178.093 208.8 178.093C 208.03 178.093 207.715 178.175 208.1 178.276M185 179.2C 183.981 179.638 185.032 179.638 186.4 179.2C 187.204 178.943 187.243 178.877 186.6 178.868C 186.16 178.862 185.44 179.011 185 179.2M162.1 188.446C 160.737 189.319 160.295 189.906 161.5 189.243C 162.418 188.739 163.856 187.627 163.6 187.619C 163.49 187.616 162.815 187.988 162.1 188.446M244.4 192.925C 244.4 193.024 245.061 193.609 245.868 194.225C 246.676 194.841 247.211 195.141 247.056 194.891C 246.74 194.379 244.4 192.647 244.4 192.925M147.781 199.3L146.2 201L147.9 199.419C 149.481 197.948 149.784 197.6 149.481 197.6C 149.416 197.6 148.651 198.365 147.781 199.3M250.4 197.725C 250.4 197.794 250.985 198.379 251.7 199.025L251.7 199.025L253 200.2L251.825 198.9C 250.73 197.688 250.4 197.416 250.4 197.725M140.8 206.2C 139.828 207.19 139.123 208 139.233 208C 139.343 208 140.228 207.19 141.2 206.2C 142.172 205.21 142.877 204.4 142.767 204.4C 142.657 204.4 141.772 205.21 140.8 206.2M259.583 206.9C 260.564 207.945 261.419 208.8 261.483 208.8C 261.784 208.8 261.466 208.441 259.7 206.783L259.7 206.783L257.8 205L259.583 206.9zM137.359 210.1C 135.607 212.121 135.087 212.8 135.29 212.8C 135.407 212.8 136.167 211.99 136.979 211C 138.481 209.166 138.779 208.463 137.359 210.1M266.175 214.932C 266.791 215.739 267.376 216.4 267.475 216.4C 267.753 216.4 266.021 214.06 265.509 213.744C 265.259 213.589 265.559 214.124 266.175 214.932M124.705 228.1C 123.844 229.422 122.646 231.865 123.088 231.4C 123.611 230.85 125.674 227.2 125.463 227.2C 125.369 227.2 125.028 227.605 124.705 228.1M292.644 272.6C 292.973 274.071 293.202 274.39 293.194 273.367C 293.191 272.945 293.005 272.33 292.782 272C 292.485 271.562 292.448 271.724 292.644 272.6M102.901 297C 102.905 297.88 102.987 298.193 103.083 297.695C 103.179 297.198 103.175 296.478 103.075 296.095C 102.975 295.713 102.896 296.12 102.901 297M102.493 300.4C 102.493 301.17 102.575 301.485 102.676 301.1C 102.776 300.715 102.776 300.085 102.676 299.7C 102.575 299.315 102.493 299.63 102.493 300.4M102.128 306C 102.128 307.43 102.201 308.015 102.289 307.3C 102.378 306.585 102.378 305.415 102.289 304.7C 102.201 303.985 102.128 304.57 102.128 306M297.693 306.4C 297.693 307.17 297.775 307.485 297.876 307.1C 297.976 306.715 297.976 306.085 297.876 305.7C 297.775 305.315 297.693 305.63 297.693 306.4M298.101 310.2C 298.105 311.08 298.187 311.393 298.283 310.895C 298.379 310.398 298.375 309.678 298.275 309.295C 298.175 308.913 298.096 309.32 298.101 310.2M101.75 314.6C 101.751 317.02 101.816 317.958 101.896 316.685C 101.976 315.412 101.975 313.432 101.894 312.285C 101.814 311.138 101.749 312.18 101.75 314.6M101.751 324.8C 101.751 327.33 101.816 328.365 101.896 327.1C 101.975 325.835 101.975 323.765 101.896 322.5C 101.816 321.235 101.751 322.27 101.751 324.8M298.093 329.2C 298.093 329.97 298.175 330.285 298.276 329.9C 298.376 329.515 298.376 328.885 298.276 328.5C 298.175 328.115 298.093 328.43 298.093 329.2M102.093 332C 102.093 332.77 102.175 333.085 102.276 332.7C 102.376 332.315 102.376 331.685 102.276 331.3C 102.175 330.915 102.093 331.23 102.093 332" stroke="none" fill="#8F9C9A" fill-rule="nonzero" />
        <path d="M170.305 47.883C 170.802 47.979 171.522 47.975 171.905 47.875C 172.287 47.775 171.88 47.696 171 47.701C 170.12 47.705 169.807 47.787 170.305 47.883M228.305 47.883C 228.802 47.979 229.522 47.975 229.905 47.875C 230.287 47.775 229.88 47.696 229 47.701C 228.12 47.705 227.807 47.787 228.305 47.883M164.4 48.818C 163.962 49.115 164.124 49.152 165 48.956C 166.471 48.627 166.79 48.398 165.767 48.406C 165.345 48.409 164.73 48.595 164.4 48.818M175.633 48.544C 175.725 48.623 176.34 48.808 177 48.956C 177.876 49.152 178.038 49.115 177.6 48.818C 177.06 48.453 175.232 48.198 175.633 48.544M222.4 48.818C 221.962 49.115 222.124 49.152 223 48.956C 224.471 48.627 224.79 48.398 223.767 48.406C 223.345 48.409 222.73 48.595 222.4 48.818M233.633 48.544C 233.725 48.623 234.34 48.808 235 48.956C 235.876 49.152 236.038 49.115 235.6 48.818C 235.06 48.453 233.232 48.198 233.633 48.544M156.181 54.1L154.6 55.8L156.3 54.219C 157.881 52.748 158.184 52.4 157.881 52.4C 157.816 52.4 157.051 53.165 156.181 54.1M185.2 53.8C 185.946 54.57 186.647 55.2 186.757 55.2C 186.867 55.2 186.346 54.57 185.6 53.8C 184.854 53.03 184.153 52.4 184.043 52.4C 183.933 52.4 184.454 53.03 185.2 53.8M214.378 53.9L213 55.4L214.5 54.022C 215.896 52.738 216.184 52.4 215.878 52.4C 215.812 52.4 215.137 53.075 214.378 53.9M243.4 54C 244.259 54.88 245.052 55.6 245.162 55.6C 245.272 55.6 244.659 54.88 243.8 54C 242.941 53.12 242.148 52.4 242.038 52.4C 241.928 52.4 242.541 53.12 243.4 54M187.215 55.8C 187.217 56.02 187.586 56.65 188.036 57.2C 188.579 57.864 188.715 57.931 188.44 57.4C 187.766 56.095 187.212 55.372 187.215 55.8M170.105 59.887C 170.714 59.979 171.614 59.977 172.105 59.882C 172.597 59.787 172.1 59.711 171 59.714C 169.9 59.717 169.497 59.795 170.105 59.887M228.3 59.882C 228.795 59.978 229.605 59.978 230.1 59.882C 230.595 59.787 230.19 59.709 229.2 59.709C 228.21 59.709 227.805 59.787 228.3 59.882M164.607 62.393C 163.752 63.269 163.13 64.045 163.226 64.118C 163.322 64.191 164.098 63.474 164.952 62.525C 166.901 60.359 166.677 60.273 164.607 62.393M176.8 62.2C 177.546 62.97 178.247 63.6 178.357 63.6C 178.467 63.6 177.946 62.97 177.2 62.2C 176.454 61.43 175.753 60.8 175.643 60.8C 175.533 60.8 176.054 61.43 176.8 62.2M222.778 62.3L221.4 63.8L222.9 62.422C 224.296 61.138 224.584 60.8 224.278 60.8C 224.212 60.8 223.537 61.475 222.778 62.3M191.334 67.6C 191.334 69.25 191.405 69.925 191.491 69.1C 191.578 68.275 191.578 66.925 191.491 66.1C 191.405 65.275 191.334 65.95 191.334 67.6M150.557 70.8C 150.557 73.77 150.62 74.985 150.697 73.5C 150.774 72.015 150.774 69.585 150.697 68.1C 150.62 66.615 150.557 67.83 150.557 70.8M208.524 67.8C 208.526 69.12 208.601 69.612 208.69 68.893C 208.779 68.174 208.777 67.094 208.686 66.493C 208.595 65.892 208.522 66.48 208.524 67.8M249.357 70.8C 249.357 73.77 249.42 74.985 249.497 73.5C 249.574 72.015 249.574 69.585 249.497 68.1C 249.42 66.615 249.357 67.83 249.357 70.8M179.701 68.2C 179.705 69.08 179.787 69.393 179.883 68.895C 179.979 68.398 179.975 67.678 179.875 67.295C 179.775 66.913 179.696 67.32 179.701 68.2M220.093 68.8C 220.093 69.57 220.175 69.885 220.276 69.5C 220.376 69.115 220.376 68.485 220.276 68.1C 220.175 67.715 220.093 68.03 220.093 68.8M237.675 71.6C 237.664 73.69 237.788 75.734 237.948 76.143C 238.109 76.552 238.177 75.112 238.099 72.943C 237.907 67.618 237.697 66.952 237.675 71.6M189.438 72.495C 187.962 74.035 188.128 74.229 189.737 72.844C 190.373 72.296 191.44 70.738 191.114 70.833C 191.051 70.852 190.297 71.599 189.438 72.495M161.85 75.25C 161.517 76.917 161.84 77.24 162.2 75.6C 162.352 74.909 162.393 74.259 162.291 74.158C 162.189 74.056 161.991 74.547 161.85 75.25M184.7 74.282C 185.195 74.378 186.005 74.378 186.5 74.282C 186.995 74.187 186.59 74.109 185.6 74.109C 184.61 74.109 184.205 74.187 184.7 74.282M213.5 74.282C 213.995 74.378 214.805 74.378 215.3 74.282C 215.795 74.187 215.39 74.109 214.4 74.109C 213.41 74.109 213.005 74.187 213.5 74.282M196.7 178.298C 198.515 178.372 201.485 178.372 203.3 178.298C 205.115 178.223 203.63 178.163 200 178.163C 196.37 178.163 194.885 178.223 196.7 178.298M189.2 178.8C 187.843 179.086 187.837 179.095 189 179.107C 189.66 179.115 190.65 178.976 191.2 178.8C 192.512 178.38 191.196 178.38 189.2 178.8M208.8 178.78C 209.799 179.12 212.282 179.332 211.967 179.051C 211.875 178.969 210.9 178.799 209.8 178.672C 208.451 178.516 208.126 178.551 208.8 178.78M184.6 179.6C 183.511 179.877 183.493 179.907 184.4 179.925C 184.95 179.935 185.76 179.789 186.2 179.6C 187.186 179.176 186.266 179.176 184.6 179.6M213.8 179.581C 214.568 179.929 216.71 180.156 216.367 179.853C 216.275 179.772 215.48 179.596 214.6 179.462C 213.485 179.293 213.242 179.329 213.8 179.581M181.6 180.4C 180.776 180.664 180.741 180.726 181.4 180.754C 181.84 180.773 182.47 180.613 182.8 180.4C 183.501 179.947 183.014 179.947 181.6 180.4M217.2 180.382C 217.53 180.605 218.145 180.791 218.567 180.794C 219.59 180.802 219.271 180.573 217.8 180.244C 216.924 180.048 216.762 180.085 217.2 180.382M176.919 181.762C 176.215 182.018 175.516 182.351 175.365 182.502C 175.063 182.804 176.836 182.316 178.4 181.666C 179.762 181.1 178.515 181.181 176.919 181.762M224.226 182.565C 226.244 183.444 227.526 183.659 225.8 182.829C 224.92 182.406 223.93 182.053 223.6 182.045C 223.27 182.038 223.552 182.272 224.226 182.565M230.4 185.2C 231.17 185.622 231.98 185.966 232.2 185.966C 232.42 185.966 231.97 185.622 231.2 185.2C 230.43 184.778 229.62 184.434 229.4 184.434C 229.18 184.434 229.63 184.778 230.4 185.2M232.8 186.179C 232.8 186.289 233.34 186.659 234 187C 234.66 187.341 235.2 187.531 235.2 187.421C 235.2 187.311 234.66 186.941 234 186.6C 233.34 186.259 232.8 186.069 232.8 186.179M238.4 189.324C 238.4 189.417 239.165 189.998 240.1 190.615C 241.035 191.232 241.589 191.48 241.331 191.168C 240.834 190.567 238.4 189.036 238.4 189.324M244.54 193.503C 244.696 193.756 245.391 194.367 246.084 194.86C 246.777 195.354 247.217 195.55 247.06 195.297C 246.904 195.044 246.209 194.433 245.516 193.94C 244.823 193.446 244.383 193.25 244.54 193.503M151.6 196.434L149.8 198.065L151.7 196.584C 153.366 195.286 153.859 194.797 153.5 194.801C 153.445 194.802 152.59 195.536 151.6 196.434M247.633 196.1C 247.725 196.155 248.34 196.65 249 197.2L249 197.2L250.2 198.2L249.23 197.1C 248.697 196.495 248.082 196 247.864 196C 247.645 196 247.542 196.045 247.633 196.1M147.177 200.31L145 202.6L147.192 200.6C 148.397 199.5 149.462 198.555 149.558 198.5C 149.655 198.445 149.648 198.314 149.543 198.21C 149.439 198.105 148.374 199.05 147.177 200.31M252.4 200.2C 253.595 201.41 254.663 202.4 254.773 202.4C 254.883 202.4 253.995 201.41 252.8 200.2C 251.605 198.99 250.537 198 250.427 198C 250.317 198 251.205 198.99 252.4 200.2M140.368 207.1C 138.009 209.743 137.474 210.4 137.682 210.4C 137.803 210.4 138.749 209.41 139.782 208.2C 141.696 205.96 142.155 205.098 140.368 207.1M260.8 208.925C 260.8 208.994 261.373 209.579 262.074 210.225L262.074 210.225L263.349 211.4L262.374 210.122C 261.547 209.037 260.8 208.469 260.8 208.925M135.126 213.3C 133.571 215.229 131.654 218.005 132.294 217.4C 132.938 216.792 136.845 211.6 136.659 211.6C 136.57 211.6 135.88 212.365 135.126 213.3M264.396 213.194C 265.09 214.071 265.867 214.918 266.123 215.076C 266.378 215.234 265.893 214.516 265.045 213.481C 264.197 212.447 263.42 211.6 263.318 211.6C 263.216 211.6 263.701 212.318 264.396 213.194M268.4 218.12C 268.4 218.504 270.445 221.6 270.699 221.6C 270.878 221.6 270.241 220.519 268.939 218.611C 268.642 218.177 268.4 217.956 268.4 218.12M273.215 225.8C 273.217 226.02 273.586 226.65 274.036 227.2C 274.579 227.864 274.715 227.931 274.44 227.4C 273.766 226.095 273.212 225.372 273.215 225.8M116.438 245.3C 116.249 245.795 115.804 246.897 115.448 247.749C 114.744 249.431 114.609 250.167 115.185 249.185C 115.791 248.149 117.201 244.4 116.984 244.4C 116.872 244.4 116.626 244.805 116.438 245.3M113.858 251.704C 112.928 254.14 113.08 254.604 114.036 252.247C 114.472 251.173 114.758 250.224 114.672 250.138C 114.586 250.052 114.22 250.757 113.858 251.704M285.617 251.032C 285.608 251.27 286.042 252.53 286.583 253.832C 287.124 255.134 287.574 256.006 287.583 255.768C 287.592 255.53 287.158 254.27 286.617 252.968C 286.076 251.666 285.626 250.794 285.617 251.032M287.815 257.3C 288.712 260.305 289.321 262.012 289.451 261.882C 289.642 261.691 287.987 256.4 287.736 256.4C 287.631 256.4 287.667 256.805 287.815 257.3M291.206 268.633C 291.209 269.055 291.395 269.67 291.618 270C 291.915 270.438 291.952 270.276 291.756 269.4C 291.427 267.929 291.198 267.61 291.206 268.633M292.006 271.833C 292.009 272.255 292.195 272.87 292.418 273.2C 292.715 273.638 292.752 273.476 292.556 272.6C 292.227 271.129 291.998 270.81 292.006 271.833M292.806 275.033C 292.809 275.455 292.995 276.07 293.218 276.4C 293.515 276.838 293.552 276.676 293.356 275.8C 293.027 274.329 292.798 274.01 292.806 275.033M106.846 275.067C 106.821 275.324 106.684 275.864 106.541 276.267C 106.34 276.836 106.394 276.897 106.779 276.542C 107.052 276.291 107.189 275.751 107.084 275.342C 106.979 274.934 106.872 274.81 106.846 275.067M105.85 279.65C 105.517 281.317 105.84 281.64 106.2 280C 106.352 279.309 106.393 278.659 106.291 278.558C 106.189 278.456 105.991 278.947 105.85 279.65M293.606 279.033C 293.609 279.455 293.795 280.07 294.018 280.4C 294.315 280.838 294.352 280.676 294.156 279.8C 293.827 278.329 293.598 278.01 293.606 279.033M105.05 283.65C 104.717 285.317 105.04 285.64 105.4 284C 105.552 283.309 105.593 282.659 105.491 282.558C 105.389 282.456 105.191 282.947 105.05 283.65M294.406 283.033C 294.409 283.455 294.595 284.07 294.818 284.4C 295.115 284.838 295.152 284.676 294.956 283.8C 294.627 282.329 294.398 282.01 294.406 283.033M295.246 287.6C 295.227 288.15 295.387 288.87 295.6 289.2C 296.094 289.964 296.094 289.142 295.6 287.6L295.6 287.6L295.28 286.6L295.246 287.6zM104.25 288.45C 103.917 290.117 104.24 290.44 104.6 288.8C 104.752 288.109 104.793 287.459 104.691 287.358C 104.589 287.256 104.391 287.747 104.25 288.45M296.051 292.6C 296.048 293.04 296.195 294.12 296.377 295L296.377 295L296.708 296.6L296.726 295C 296.736 294.12 296.589 293.04 296.4 292.6L296.4 292.6L296.056 291.8L296.051 292.6zM103.418 294.618C 103.265 295.639 103.222 296.555 103.322 296.655C 103.422 296.755 103.629 296.002 103.782 294.982C 103.935 293.961 103.978 293.045 103.878 292.945C 103.778 292.845 103.571 293.598 103.418 294.618M297.081 301.6C 297.203 303.47 297.37 305.075 297.451 305.167C 297.733 305.482 297.505 300.598 297.182 299.4C 296.989 298.684 296.948 299.571 297.081 301.6M102.64 301.84C 102.49 303.303 102.449 304.582 102.548 304.682C 102.648 304.781 102.857 303.671 103.013 302.213C 103.169 300.756 103.211 299.477 103.105 299.372C 102.999 299.266 102.79 300.377 102.64 301.84M297.8 319.6C 297.8 325.87 297.911 329.65 298.048 328C 298.184 326.35 298.295 322.57 298.295 319.6C 298.295 316.63 298.184 312.85 298.048 311.2C 297.911 309.55 297.8 313.33 297.8 319.6M102.173 319.8C 102.173 325.08 102.23 327.185 102.299 324.477C 102.368 321.769 102.368 317.449 102.299 314.877C 102.229 312.305 102.172 314.52 102.173 319.8M286.2 333.2C 285.696 333.417 285.622 333.544 286 333.544C 286.33 333.544 286.96 333.389 287.4 333.2C 287.904 332.983 287.978 332.856 287.6 332.856C 287.27 332.856 286.64 333.011 286.2 333.2M295.4 333.2C 295.84 333.389 296.56 333.538 297 333.532C 297.643 333.523 297.604 333.457 296.8 333.2C 295.432 332.762 294.381 332.762 295.4 333.2M265.387 346.1L263 348.6L265.5 346.213C 266.875 344.899 268 343.774 268 343.713C 268 343.417 267.605 343.778 265.387 346.1M248.276 382.123C 248.048 382.97 247.764 383.216 247.124 383.123C 246.657 383.055 246.198 383.225 246.104 383.5C 245.875 384.17 247.212 384.117 248.132 383.42C 248.576 383.083 248.808 382.498 248.722 381.932C 248.586 381.047 248.564 381.056 248.276 382.123M151.2 382.338C 151.2 382.896 152.615 384 153.331 384C 153.699 384 154 383.82 154 383.6C 154 383.38 153.634 383.2 153.187 383.2C 152.741 383.2 152.271 382.93 152.145 382.6C 151.9 381.963 151.2 381.769 151.2 382.338M154.8 383.892C 155.13 384.017 155.525 384.313 155.678 384.548C 156.038 385.102 156.565 384.591 156.216 384.027C 156.071 383.792 155.558 383.614 155.076 383.632C 154.48 383.653 154.392 383.736 154.8 383.892M243.867 383.867C 243.458 384.275 243.549 384.8 244.029 384.8C 244.264 384.8 244.727 384.53 245.057 384.2C 245.59 383.667 245.572 383.6 244.895 383.6C 244.476 383.6 244.013 383.72 243.867 383.867M241.6 385C 241.6 385.33 241.703 385.6 241.829 385.6C 241.954 385.6 242.327 385.33 242.657 385C 243.19 384.467 243.165 384.4 242.429 384.4C 241.959 384.4 241.6 384.66 241.6 385M156.8 385.2C 156.8 385.42 157.16 385.6 157.6 385.6C 158.04 385.6 158.4 385.42 158.4 385.2C 158.4 384.98 158.04 384.8 157.6 384.8C 157.16 384.8 156.8 384.98 156.8 385.2M159.48 385.453C 158.918 386.015 159.224 386.4 160.233 386.4C 160.882 386.4 161.205 386.214 161.1 385.9C 160.908 385.322 159.892 385.041 159.48 385.453M239.48 385.453C 238.934 386 239.211 386.454 240.016 386.328C 240.465 386.258 240.834 386.02 240.837 385.8C 240.843 385.313 239.869 385.064 239.48 385.453M161.6 386.6C 161.6 386.997 161.997 387.2 162.776 387.2C 163.423 387.2 164.064 387.38 164.2 387.6C 164.568 388.196 166.502 388.104 166.297 387.5C 166.203 387.225 165.619 387 164.998 387C 164.378 387 163.794 386.775 163.702 386.5C 163.458 385.776 161.6 385.865 161.6 386.6M236.8 386.6C 236.8 386.93 236.903 387.2 237.029 387.2C 237.154 387.2 237.527 386.93 237.857 386.6C 238.39 386.067 238.365 386 237.629 386C 237.159 386 236.8 386.26 236.8 386.6M234 387.4C 234 387.733 234.356 388 234.8 388C 235.244 388 235.6 387.733 235.6 387.4C 235.6 387.067 235.244 386.8 234.8 386.8C 234.356 386.8 234 387.067 234 387.4M167.506 387.883C 168.004 387.979 168.309 388.224 168.182 388.429C 168.056 388.633 168.323 388.8 168.776 388.8C 169.242 388.8 169.6 388.539 169.6 388.2C 169.6 387.764 169.191 387.615 168.1 387.654C 167.16 387.689 166.938 387.774 167.506 387.883M230.8 388.2C 230.8 388.539 231.158 388.8 231.624 388.8C 232.077 388.8 232.344 388.634 232.219 388.43C 232.093 388.227 232.307 387.978 232.695 387.877C 233.083 387.776 232.815 387.672 232.1 387.646C 231.19 387.614 230.8 387.78 230.8 388.2M170.498 388.657C 169.598 389.035 170.412 389.6 171.857 389.6C 172.806 389.6 173.213 389.436 173.102 389.1C 172.929 388.571 171.343 388.301 170.498 388.657M227.6 389C 227.6 389.33 227.883 389.6 228.229 389.6C 228.574 389.6 229.127 389.33 229.457 389C 229.99 388.467 229.921 388.4 228.829 388.4C 228.003 388.4 227.6 388.597 227.6 389M174.706 389.483C 175.204 389.579 175.509 389.824 175.382 390.029C 175.256 390.233 175.613 390.4 176.176 390.4C 176.82 390.4 177.2 390.177 177.2 389.8C 177.2 389.352 176.769 389.214 175.5 389.254C 174.565 389.284 174.208 389.387 174.706 389.483M223.455 389.8C 223.297 390.212 223.48 390.4 224.041 390.4C 224.49 390.4 225.127 390.13 225.457 389.8C 225.99 389.267 225.925 389.2 224.871 389.2C 224.186 389.2 223.588 389.453 223.455 389.8M177.846 390.474C 177.961 390.661 178.21 390.717 178.4 390.6C 178.59 390.483 178.842 390.544 178.961 390.736C 179.079 390.928 179.993 391.086 180.99 391.086C 182.5 391.086 182.725 390.992 182.338 390.525C 181.83 389.913 177.469 389.864 177.846 390.474M218.667 390.267C 218.098 390.836 218.449 391.2 219.567 391.2C 220.973 391.2 222 390.844 222 390.357C 222 389.946 219.067 389.866 218.667 390.267M183.8 391.2C 183.936 391.42 185.037 391.6 186.247 391.6C 187.612 391.6 188.353 391.448 188.2 391.2C 188.064 390.98 186.963 390.8 185.753 390.8C 184.388 390.8 183.647 390.952 183.8 391.2M212 391.223C 212 391.487 212.902 391.6 214.399 391.523C 217.515 391.363 217.516 390.8 214.4 390.8C 212.98 390.8 212 390.973 212 391.223M196.4 392C 196.4 392.239 197.933 392.4 200.2 392.4C 202.467 392.4 204 392.239 204 392C 204 391.761 202.467 391.6 200.2 391.6C 197.933 391.6 196.4 391.761 196.4 392" stroke="none" fill="#ACB4B4" fill-rule="nonzero" />
        <path d="M150.144 71.2C 150.144 73.29 150.212 74.145 150.294 73.1C 150.376 72.055 150.376 70.345 150.294 69.3C 150.212 68.255 150.144 69.11 150.144 71.2M249.744 71.2C 249.744 73.29 249.812 74.145 249.894 73.1C 249.976 72.055 249.976 70.345 249.894 69.3C 249.812 68.255 249.744 69.11 249.744 71.2M298.093 326.8C 298.093 327.57 298.175 327.885 298.276 327.5C 298.376 327.115 298.376 326.485 298.276 326.1C 298.175 325.715 298.093 326.03 298.093 326.8M192.8 392C 192.8 392.22 193.61 392.4 194.6 392.4C 195.59 392.4 196.4 392.22 196.4 392C 196.4 391.78 195.59 391.6 194.6 391.6C 193.61 391.6 192.8 391.78 192.8 392M204 392C 204 392.22 204.709 392.4 205.576 392.4C 206.443 392.4 207.264 392.22 207.4 392C 207.551 391.756 206.937 391.6 205.824 391.6C 204.821 391.6 204 391.78 204 392" stroke="none" fill="#9CACA8" fill-rule="nonzero" />
        <path d="M197.3 85.897C 198.785 85.974 201.215 85.974 202.7 85.897C 204.185 85.82 202.97 85.757 200 85.757C 197.03 85.757 195.815 85.82 197.3 85.897M189.6 86.795C 189.191 87.055 189.51 87.099 190.6 86.932C 192.577 86.629 192.914 86.398 191.367 86.406C 190.725 86.409 189.93 86.584 189.6 86.795M208.1 86.676C 208.485 86.776 209.115 86.776 209.5 86.676C 209.885 86.575 209.57 86.493 208.8 86.493C 208.03 86.493 207.715 86.575 208.1 86.676M210.8 87.182C 211.13 87.405 211.745 87.591 212.167 87.594C 213.19 87.602 212.871 87.373 211.4 87.044C 210.524 86.848 210.362 86.885 210.8 87.182M237.6 97.725C 237.6 97.794 238.185 98.379 238.9 99.025L238.9 99.025L240.2 100.2L239.025 98.9C 237.93 97.688 237.6 97.416 237.6 97.725M157.843 104.633C 157.506 105.509 157.549 108.501 157.906 109.062C 158.068 109.316 158.2 108.281 158.2 106.762C 158.2 103.741 158.195 103.714 157.843 104.633M241.8 106.8C 241.8 108.298 241.935 109.44 242.1 109.338C 242.486 109.1 242.481 105.146 242.094 104.538C 241.932 104.284 241.8 105.302 241.8 106.8M164.8 118.6C 167.543 121.35 169.878 123.6 169.988 123.6C 170.098 123.6 167.943 121.35 165.2 118.6C 162.457 115.85 160.122 113.6 160.012 113.6C 159.902 113.6 162.057 115.85 164.8 118.6M230.992 122.5L227.4 126.2L231.1 122.608C 233.135 120.633 234.8 118.968 234.8 118.908C 234.8 118.618 234.328 119.064 230.992 122.5M177 130.4C 179.854 133.26 182.278 135.6 182.388 135.6C 182.498 135.6 180.254 133.26 177.4 130.4C 174.546 127.54 172.122 125.2 172.012 125.2C 171.902 125.2 174.146 127.54 177 130.4M219.993 133.1L215.4 137.8L220.1 133.207C 224.466 128.94 224.982 128.4 224.693 128.4C 224.635 128.4 222.52 130.515 219.993 133.1M189.4 142.4C 191.15 144.16 192.671 145.6 192.781 145.6C 192.891 145.6 191.55 144.16 189.8 142.4C 188.05 140.64 186.529 139.2 186.419 139.2C 186.309 139.2 187.65 140.64 189.4 142.4M208.421 144.078C 207.003 145.425 206.126 146.364 206.473 146.164C 207.647 145.486 211.677 141.565 211.149 141.614C 211.067 141.622 209.84 142.73 208.421 144.078M202.6 147.6L201.4 147.905L202.476 147.953C 203.068 147.979 203.664 147.82 203.8 147.6C 203.936 147.38 203.992 147.221 203.924 147.247C 203.856 147.273 203.26 147.432 202.6 147.6M198.7 177.489C 199.415 177.578 200.585 177.578 201.3 177.489C 202.015 177.401 201.43 177.328 200 177.328C 198.57 177.328 197.985 177.401 198.7 177.489M253.6 200.6C 254.346 201.37 255.047 202 255.157 202C 255.267 202 254.746 201.37 254 200.6C 253.254 199.83 252.553 199.2 252.443 199.2C 252.333 199.2 252.854 199.83 253.6 200.6M296.093 289.2C 296.093 289.97 296.175 290.285 296.276 289.9C 296.376 289.515 296.376 288.885 296.276 288.5C 296.175 288.115 296.093 288.43 296.093 289.2M296.924 294.6C 296.926 295.92 297.001 296.412 297.09 295.693C 297.179 294.974 297.177 293.894 297.086 293.293C 296.995 292.692 296.922 293.28 296.924 294.6M297.737 302.2C 297.739 303.96 297.809 304.63 297.893 303.689C 297.978 302.749 297.977 301.309 297.891 300.489C 297.805 299.67 297.736 300.44 297.737 302.2M102.093 302.4C 102.093 303.17 102.175 303.485 102.276 303.1C 102.376 302.715 102.376 302.085 102.276 301.7C 102.175 301.315 102.093 301.63 102.093 302.4M298.57 319.6C 298.57 324.33 298.628 326.265 298.698 323.9C 298.769 321.535 298.769 317.665 298.698 315.3C 298.628 312.935 298.57 314.87 298.57 319.6" stroke="none" fill="#827D52" fill-rule="nonzero" />
        <path d="M193.4 86.418C 192.684 86.611 193.571 86.652 195.6 86.519C 197.47 86.397 199.075 86.23 199.167 86.149C 199.482 85.867 194.598 86.095 193.4 86.418M200.833 86.149C 200.925 86.23 202.53 86.397 204.4 86.519C 206.429 86.652 207.316 86.611 206.6 86.418C 205.402 86.095 200.518 85.867 200.833 86.149M189.4 87.2L188.6 87.544L189.4 87.544C 189.84 87.544 190.56 87.389 191 87.2L191 87.2L191.8 86.856L191 86.856C 190.56 86.856 189.84 87.011 189.4 87.2M209 87.2C 210.184 87.709 211.587 87.709 210.8 87.2C 210.47 86.987 209.75 86.822 209.2 86.834C 208.284 86.854 208.267 86.885 209 87.2M186.2 88L185.4 88.344L186.2 88.366C 186.64 88.378 187.27 88.213 187.6 88C 188.395 87.486 187.396 87.486 186.2 88M212.4 88C 212.73 88.213 213.36 88.378 213.8 88.366L213.8 88.366L214.6 88.344L213.8 88C 212.604 87.486 211.605 87.486 212.4 88M215.02 88.718C 215.585 89.192 218.43 90.103 218.652 89.882C 218.757 89.776 217.992 89.4 216.95 89.045C 214.819 88.319 214.473 88.26 215.02 88.718M178.2 91.015C 175.78 91.993 173.44 92.951 173 93.144C 172.56 93.336 171.75 93.679 171.2 93.907C 170.65 94.134 169.39 94.674 168.4 95.106C 167.41 95.539 165.88 96.142 165 96.446C 163.203 97.068 159.469 100.526 159.11 101.902C 158.98 102.397 159.038 102.7 159.237 102.577C 159.437 102.454 159.6 102.129 159.6 101.855C 159.6 100.414 163.39 97.495 167.2 96C 168.41 95.526 170.03 94.863 170.8 94.528C 171.57 94.193 172.56 93.781 173 93.613C 173.44 93.445 174.34 93.079 175 92.8C 175.66 92.521 176.56 92.155 177 91.986C 177.933 91.629 180.959 90.349 182.4 89.703C 185.035 88.521 182.099 89.438 178.2 91.015M221.4 91.082C 221.62 91.301 223.06 91.973 224.6 92.574C 226.14 93.175 228.03 93.941 228.8 94.274C 229.57 94.608 230.56 95.035 231 95.222C 239.744 98.945 241.405 100.822 241.395 106.976C 241.388 111.607 240.978 112.152 228.149 124.6C 222.028 130.54 214.81 137.56 212.109 140.2C 208.703 143.53 206.434 145.397 204.7 146.297C 203.325 147.01 202.47 147.594 202.8 147.593C 204.767 147.591 207.548 145.22 221.089 132C 224.131 129.03 229.527 123.775 233.08 120.322C 240.994 112.631 241.788 111.416 241.795 106.976C 241.803 101.886 237.623 96 234 96C 233.793 96 232.673 95.567 231.512 95.038C 229.722 94.223 223.584 91.667 221.6 90.911C 221.2 90.759 221.134 90.816 221.4 91.082M158.179 105C 157.246 111.221 155.845 109.546 188.32 141.019C 192.639 145.205 195.906 147.616 197.2 147.574C 197.53 147.563 196.98 147.159 195.977 146.677C 193.384 145.429 193.124 145.198 180.243 132.685C 173.839 126.464 166.78 119.618 164.555 117.472C 159.398 112.496 158.592 111.008 158.624 106.528C 158.65 102.743 158.563 102.442 158.179 105M199.1 147.882C 199.595 147.978 200.405 147.978 200.9 147.882C 201.395 147.787 200.99 147.709 200 147.709C 199.01 147.709 198.605 147.787 199.1 147.882M100.119 334.162C 99.415 334.418 98.695 334.779 98.519 334.964C 98.155 335.347 99.628 334.948 101.4 334.183C 102.887 333.542 101.87 333.524 100.119 334.162M298.22 333.952C 298.429 334.145 299.32 334.531 300.2 334.81C 301.08 335.088 302.733 335.74 303.874 336.258C 305.015 336.776 306.365 337.182 306.874 337.159C 307.638 337.125 307.59 337.067 306.6 336.829C 305.94 336.669 304.976 336.311 304.458 336.033C 303.558 335.549 298.401 333.6 298.022 333.6C 297.922 333.6 298.011 333.758 298.22 333.952M95.746 335.995C 95.056 336.4 94.066 336.813 93.546 336.912C 92.603 337.091 92.603 337.091 93.6 337.127C 94.15 337.147 95.41 336.73 96.4 336.2C 97.39 335.67 97.93 335.241 97.6 335.246C 97.27 335.252 96.436 335.589 95.746 335.995" stroke="none" fill="#9C7C34" fill-rule="nonzero" />
	</g>
</g>
</svg>