<?xml version="1.0" standalone="no"?>
<!DOCTYPE svg PUBLIC "-//W3C//DTD SVG 1.0//EN" "http://www.w3.org/TR/2001/REC-SVG-20010904/DTD/svg10.dtd">
<svg xmlns="http://www.w3.org/2000/svg" xmlns:xlink="http://www.w3.org/1999/xlink" id="body_1" width="614" height="461">

<g transform="matrix(0.9003906 0 0 0.9003906 76.500015 9.003906)">
	<g>
        <path d="M91.4 116.371C 89.289 117.366 87.997 118.62 86.9 120.738L86.9 120.738L86 122.476L86 189.405C 86 254.786 86.018 256.376 86.777 258.146C 87.781 260.49 89.315 262.028 91.782 263.166L91.782 263.166L93.763 264.081L199.691 264.082C 307.63 264.083 309.2 264.063 309.2 262.713C 309.2 262.541 309.456 262.4 309.769 262.4C 310.5 262.4 313.2 259.259 313.2 258.408C 313.2 258.052 313.425 257.535 313.7 257.26C 314.096 256.864 314.2 242.811 314.2 189.68L314.2 189.68L314.2 122.6L313.243 120.8C 312.106 118.664 310.779 117.398 308.6 116.371C 306.092 115.19 93.908 115.19 91.4 116.371M304.546 123.629L305.6 124.458L305.587 177.529C 305.574 233.739 305.656 231.307 303.726 232.335C 303.069 232.685 277.394 232.8 199.857 232.8L199.857 232.8L96.861 232.8L95.631 231.764L94.4 230.729L94.4 177.593L94.4 124.458L95.454 123.629L96.508 122.8L200 122.8L303.492 122.8L304.546 123.629zM208.2 151.294C 202.662 153.285 198.091 162.4 202.63 162.4C 203.527 162.4 204.24 162.164 207.126 160.912C 208.676 160.241 210.416 158.523 211.165 156.926C 211.456 156.307 211.852 155.487 212.047 155.105C 212.241 154.723 212.4 153.598 212.4 152.605L212.4 152.605L212.4 150.8L210.9 150.832C 210.075 150.849 208.86 151.057 208.2 151.294M187.333 164.357C 179.311 166.437 173.608 178.379 176.355 187.346C 176.6 188.146 176.995 189.475 177.233 190.3C 178.464 194.562 181.216 199.706 184.512 203.906C 188.537 209.035 193.217 209.704 200.12 206.137C 201.297 205.53 201.909 205.622 204.6 206.812C 212.597 210.35 217.202 207.969 222.63 197.49C 224.612 193.662 224.638 192.949 222.83 191.881C 216.851 188.349 215.693 177.792 220.649 171.986C 222.626 169.67 222.713 169.306 221.625 167.923C 218.765 164.287 210.963 163.033 204.457 165.164L204.457 165.164L201.513 166.128L198.857 165.23C 195.973 164.256 189.588 163.772 187.333 164.357M178.4 267.176C 178.4 268.483 178.22 269.664 178 269.8C 177.78 269.936 177.6 271.016 177.6 272.2C 177.6 273.384 177.42 274.464 177.2 274.6C 176.98 274.736 176.8 275.546 176.8 276.4C 176.8 277.254 176.62 278.064 176.4 278.2C 176.18 278.336 176 278.851 176 279.344C 176 279.837 175.841 280.411 175.647 280.62C 175.452 280.829 174.9 282.17 174.42 283.6C 173.101 287.53 169.7 294.892 167.738 298.068L167.738 298.068L166.83 299.536L161.682 299.668C 156.753 299.794 156.472 299.848 155.064 300.923C 150.479 304.424 151.244 311.29 156.451 313.374C 159.196 314.472 241.757 314.308 244.104 313.199C 249.261 310.763 249.197 303.131 243.996 300.342C 242.876 299.741 241.728 299.6 237.959 299.6L237.959 299.6L233.306 299.6L232.338 298.1C 230.319 294.97 226.892 287.496 225.323 282.8C 224.992 281.81 224.559 280.829 224.361 280.62C 224.162 280.411 224 279.837 224 279.344C 224 278.851 223.82 278.336 223.6 278.2C 223.38 278.064 223.2 277.279 223.2 276.456C 223.2 275.633 223.036 274.789 222.835 274.58C 222.635 274.371 222.361 273.12 222.227 271.8C 222.093 270.48 221.882 268.365 221.756 267.1L221.756 267.1L221.529 264.8L199.964 264.8L178.4 264.8L178.4 267.176" stroke="none" fill="#F3F3F5" fill-rule="nonzero" />
        <path d="M95.854 130.429L94.8 131.258L94.8 180.759L94.8 230.261L95.726 231.13L96.652 232L200.11 232L303.569 232L304.384 231.125C 305.196 230.253 305.2 230.011 305.2 180.754L305.2 180.754L305.2 131.258L304.146 130.429L303.092 129.6L200 129.6L96.908 129.6L95.854 130.429zM212.437 150.837C 215.812 154.212 207.082 163.961 201.859 162.65C 197.306 161.508 202.568 152.6 209 150.561C 211.208 149.861 211.483 149.883 212.437 150.837M195.4 163.83C 199.844 164.831 200 164.877 200.23 165.248C 200.508 165.699 202.521 165.707 203.02 165.259C 203.229 165.071 204.21 164.724 205.2 164.487C 206.19 164.25 207.84 163.844 208.867 163.585C 212.776 162.6 218.039 164.032 221.3 166.97C 223.231 168.709 223.19 169.532 221.046 172.165C 217.682 176.295 217.008 182.147 219.347 186.928C 220.327 188.93 221.053 189.744 223.989 192.136C 224.89 192.869 224.97 195.336 224.114 195.968C 223.94 196.095 223.535 196.74 223.213 197.4C 221.187 201.554 217.271 206.437 214.719 207.993C 212.531 209.327 205.262 208.537 203.42 206.766C 202.935 206.299 200.602 206.292 199.695 206.753C 195.773 208.749 190.761 209.454 188.695 208.301C 184.607 206.02 178.805 197.269 176.827 190.4C 176.542 189.41 176.116 188.189 175.879 187.686C 175.236 186.317 175.286 177.691 175.947 176C 179.924 165.826 186.365 161.796 195.4 163.83" stroke="none" fill="#1CABE3" fill-rule="nonzero" />
        <path d="M183.44 12.335C 183.318 12.533 181.549 12.727 179.509 12.768C 177.469 12.808 175.74 13.011 175.667 13.22C 175.593 13.429 174.389 13.6 172.99 13.6C 171.592 13.6 170.336 13.78 170.2 14C 170.064 14.22 168.984 14.4 167.8 14.4C 166.616 14.4 165.536 14.58 165.4 14.8C 165.264 15.02 164.364 15.2 163.4 15.2C 162.436 15.2 161.548 15.361 161.426 15.558C 161.218 15.894 160.189 16.106 156.1 16.653C 155.165 16.778 154.4 17.042 154.4 17.24C 154.4 17.438 153.781 17.6 153.024 17.6C 152.267 17.6 151.536 17.78 151.4 18C 151.264 18.22 150.623 18.4 149.976 18.4C 149.329 18.4 148.8 18.58 148.8 18.8C 148.8 19.02 148.17 19.2 147.4 19.2C 146.63 19.2 146 19.38 146 19.6C 146 19.82 145.46 20 144.8 20C 144.14 20 143.6 20.18 143.6 20.4C 143.6 20.62 143.06 20.8 142.4 20.8C 141.74 20.8 141.2 20.98 141.2 21.2C 141.2 21.42 140.66 21.6 140 21.6C 139.34 21.6 138.8 21.78 138.8 22C 138.8 22.22 138.26 22.4 137.6 22.4C 136.94 22.4 136.4 22.58 136.4 22.8C 136.4 23.02 135.86 23.2 135.2 23.2C 134.54 23.2 134 23.38 134 23.6C 134 23.82 133.64 24 133.2 24C 132.76 24 132.4 24.18 132.4 24.4C 132.4 24.62 131.86 24.8 131.2 24.8C 130.54 24.8 130 24.98 130 25.2C 130 25.42 129.64 25.6 129.2 25.6C 128.76 25.6 128.4 25.78 128.4 26C 128.4 26.22 127.95 26.4 127.4 26.4C 126.85 26.4 126.4 26.564 126.4 26.765C 126.4 26.966 125.68 27.251 124.8 27.4C 123.92 27.549 123.2 27.834 123.2 28.035C 123.2 28.236 122.921 28.4 122.581 28.4C 122.24 28.4 121.216 28.76 120.306 29.2C 119.395 29.64 118.429 30 118.158 30C 117.888 30 117.607 30.136 117.533 30.302C 117.46 30.468 116.14 31.232 114.6 32C 113.06 32.768 111.74 33.532 111.667 33.698C 111.593 33.864 111.228 34 110.855 34C 110.482 34 109.917 34.36 109.6 34.8C 109.283 35.24 108.703 35.6 108.312 35.6C 107.92 35.6 107.6 35.78 107.6 36C 107.6 36.22 107.24 36.4 106.8 36.4C 106.36 36.4 106 36.58 106 36.8C 106 37.02 105.68 37.2 105.288 37.2C 104.897 37.2 104.317 37.56 104 38C 103.683 38.44 103.103 38.8 102.712 38.8C 102.32 38.8 102 38.98 102 39.2C 102 39.42 101.68 39.6 101.288 39.6C 100.897 39.6 100.317 39.96 100 40.4C 99.683 40.84 99.143 41.2 98.8 41.2C 98.457 41.2 97.917 41.56 97.6 42C 97.283 42.44 96.703 42.8 96.312 42.8C 95.92 42.8 95.6 42.98 95.6 43.2C 95.6 43.42 95.349 43.6 95.042 43.6C 94.736 43.6 93.907 44.14 93.2 44.8C 92.493 45.46 91.763 46 91.576 46C 91.389 46 90.786 46.45 90.236 47C 89.686 47.55 88.998 48 88.706 48C 88.415 48 87.917 48.36 87.6 48.8C 87.283 49.24 86.783 49.6 86.488 49.6C 86.194 49.6 86.064 49.78 86.2 50C 86.336 50.22 86.149 50.4 85.784 50.4C 85.419 50.4 84.617 50.94 84 51.6C 83.383 52.26 82.681 52.8 82.44 52.8C 82.198 52.8 82 52.98 82 53.2C 82 53.42 81.806 53.6 81.569 53.6C 81.331 53.6 80.446 54.32 79.6 55.2C 78.754 56.08 77.954 56.8 77.821 56.8C 77.688 56.8 76.788 57.565 75.82 58.5C 74.853 59.435 73.206 60.92 72.16 61.8C 69.673 63.892 63.731 69.599 64.04 69.599C 64.271 69.6 62.165 71.933 58 76.292C 56.9 77.443 56 78.496 56 78.632C 56 78.768 55.46 79.383 54.8 80C 54.14 80.617 53.6 81.319 53.6 81.56C 53.6 81.802 53.42 82 53.2 82C 52.98 82 52.8 82.198 52.8 82.44C 52.8 82.681 52.26 83.383 51.6 84C 50.94 84.617 50.4 85.419 50.4 85.784C 50.4 86.149 50.22 86.336 50 86.2C 49.78 86.064 49.6 86.152 49.6 86.395C 49.6 86.638 49.15 87.286 48.6 87.836C 48.05 88.386 47.6 88.98 47.6 89.156C 47.6 89.332 47.15 89.999 46.6 90.638C 46.051 91.277 45.601 91.943 45.6 92.118C 45.6 92.293 45.15 92.886 44.6 93.436C 44.05 93.986 43.6 94.698 43.6 95.018C 43.6 95.338 43.42 95.6 43.2 95.6C 42.98 95.6 42.8 95.92 42.8 96.312C 42.8 96.703 42.44 97.283 42 97.6C 41.56 97.917 41.2 98.457 41.2 98.8C 41.2 99.143 40.84 99.683 40.4 100C 39.96 100.317 39.6 100.897 39.6 101.288C 39.6 101.68 39.42 102 39.2 102C 38.98 102 38.8 102.32 38.8 102.712C 38.8 103.103 38.44 103.683 38 104C 37.56 104.317 37.2 104.897 37.2 105.288C 37.2 105.68 37.02 106 36.8 106C 36.58 106 36.4 106.36 36.4 106.8C 36.4 107.24 36.242 107.6 36.049 107.6C 35.855 107.6 35.473 108.14 35.2 108.8C 34.927 109.46 34.545 110 34.351 110C 34.158 110 34 110.345 34 110.767C 34 111.188 33.864 111.593 33.698 111.667C 33.532 111.74 32.768 113.06 32 114.6C 31.232 116.14 30.468 117.46 30.302 117.533C 30.136 117.607 30 117.888 30 118.158C 30 118.429 29.64 119.395 29.2 120.306C 28.76 121.216 28.4 122.24 28.4 122.581C 28.4 122.921 28.236 123.2 28.035 123.2C 27.834 123.2 27.549 123.92 27.4 124.8C 27.251 125.68 26.966 126.4 26.765 126.4C 26.564 126.4 26.4 126.85 26.4 127.4C 26.4 127.95 26.22 128.4 26 128.4C 25.78 128.4 25.6 128.76 25.6 129.2C 25.6 129.64 25.42 130 25.2 130C 24.98 130 24.8 130.54 24.8 131.2C 24.8 131.86 24.62 132.4 24.4 132.4C 24.18 132.4 24 132.76 24 133.2C 24 133.64 23.82 134 23.6 134C 23.38 134 23.2 134.54 23.2 135.2C 23.2 135.86 23.02 136.4 22.8 136.4C 22.58 136.4 22.4 136.94 22.4 137.6C 22.4 138.26 22.22 138.8 22 138.8C 21.78 138.8 21.6 139.34 21.6 140C 21.6 140.66 21.42 141.2 21.2 141.2C 20.98 141.2 20.8 141.74 20.8 142.4C 20.8 143.06 20.62 143.6 20.4 143.6C 20.18 143.6 20 144.14 20 144.8C 20 145.46 19.82 146 19.6 146C 19.38 146 19.2 146.63 19.2 147.4C 19.2 148.17 19.02 148.8 18.8 148.8C 18.58 148.8 18.4 149.329 18.4 149.976C 18.4 150.623 18.22 151.264 18 151.4C 17.78 151.536 17.6 152.267 17.6 153.024C 17.6 153.781 17.42 154.4 17.2 154.4C 16.98 154.4 16.8 155.109 16.8 155.976C 16.8 156.843 16.62 157.664 16.4 157.8C 16.18 157.936 16 158.746 16 159.6C 16 160.454 15.82 161.264 15.6 161.4C 15.38 161.536 15.2 162.436 15.2 163.4C 15.2 164.364 15.02 165.264 14.8 165.4C 14.58 165.536 14.4 166.616 14.4 167.8C 14.4 168.984 14.22 170.064 14 170.2C 13.78 170.336 13.6 171.607 13.6 173.024C 13.6 174.441 13.437 175.6 13.239 175.6C 12.591 175.6 12.314 183.087 12.328 200.2C 12.343 217.644 12.594 224.4 13.228 224.4C 13.433 224.4 13.6 225.66 13.6 227.2C 13.6 228.8 13.771 230 14 230C 14.22 230 14.4 230.979 14.4 232.176C 14.4 233.373 14.58 234.464 14.8 234.6C 15.02 234.736 15.2 235.636 15.2 236.6C 15.2 237.564 15.38 238.464 15.6 238.6C 15.82 238.736 16 239.546 16 240.4C 16 241.254 16.18 242.064 16.4 242.2C 16.62 242.336 16.8 243.157 16.8 244.024C 16.8 244.891 16.98 245.6 17.2 245.6C 17.42 245.6 17.6 246.219 17.6 246.976C 17.6 247.733 17.78 248.464 18 248.6C 18.22 248.736 18.4 249.377 18.4 250.024C 18.4 250.671 18.58 251.2 18.8 251.2C 19.02 251.2 19.2 251.819 19.2 252.576C 19.2 253.333 19.38 254.064 19.6 254.2C 19.82 254.336 20 254.876 20 255.4C 20 255.924 20.18 256.464 20.4 256.6C 20.62 256.736 20.8 257.287 20.8 257.824C 20.8 258.361 20.98 258.8 21.2 258.8C 21.42 258.8 21.6 259.34 21.6 260C 21.6 260.66 21.78 261.2 22 261.2C 22.22 261.2 22.4 261.74 22.4 262.4C 22.4 263.06 22.58 263.6 22.8 263.6C 23.02 263.6 23.2 264.14 23.2 264.8C 23.2 265.46 23.38 266 23.6 266C 23.82 266 24 266.36 24 266.8C 24 267.24 24.18 267.6 24.4 267.6C 24.62 267.6 24.8 268.14 24.8 268.8C 24.8 269.46 24.98 270 25.2 270C 25.42 270 25.6 270.36 25.6 270.8C 25.6 271.24 25.78 271.6 26 271.6C 26.22 271.6 26.4 271.939 26.4 272.354C 26.4 272.769 26.669 273.624 26.998 274.254C 27.326 274.884 27.596 275.715 27.598 276.1C 27.599 276.485 27.78 276.8 28 276.8C 28.22 276.8 28.4 277.079 28.4 277.419C 28.4 277.76 28.76 278.784 29.2 279.694C 29.64 280.605 30 281.586 30 281.875C 30 282.164 30.135 282.401 30.3 282.403C 30.659 282.407 31.6 284.344 31.6 285.08C 31.6 285.366 31.735 285.601 31.9 285.601C 32.065 285.602 32.65 286.592 33.2 287.8C 33.75 289.008 34.335 289.998 34.5 289.999C 34.665 289.999 34.8 290.27 34.8 290.6C 34.8 290.93 34.98 291.2 35.2 291.2C 35.42 291.2 35.6 291.47 35.6 291.8C 35.6 292.13 35.78 292.4 36 292.4C 36.22 292.4 36.4 292.76 36.4 293.2C 36.4 293.64 36.58 294 36.8 294C 37.02 294 37.2 294.32 37.2 294.712C 37.2 295.103 37.56 295.683 38 296C 38.44 296.317 38.8 296.897 38.8 297.288C 38.8 297.68 38.98 298 39.2 298C 39.42 298 39.6 298.32 39.6 298.712C 39.6 299.103 39.96 299.683 40.4 300C 40.84 300.317 41.2 300.857 41.2 301.2C 41.2 301.543 41.56 302.083 42 302.4C 42.44 302.717 42.8 303.297 42.8 303.688C 42.8 304.08 42.98 304.4 43.2 304.4C 43.42 304.4 43.6 304.64 43.6 304.934C 43.6 305.446 45.944 308.745 47.2 310C 47.53 310.33 47.856 310.859 47.925 311.175C 47.994 311.491 48.399 312.052 48.825 312.422C 49.251 312.791 49.6 313.276 49.6 313.499C 49.6 313.721 50.32 314.645 51.2 315.552C 52.08 316.459 52.8 317.352 52.8 317.537C 52.8 317.722 53.565 318.685 54.5 319.678C 55.435 320.67 56.65 322.079 57.2 322.808C 57.75 323.538 58.434 324.329 58.719 324.567C 59.915 325.564 63.2 329.327 63.2 329.7C 63.2 329.865 63.481 330 63.824 330C 64.167 330 64.358 330.144 64.249 330.32C 63.99 330.739 68.331 335.255 69.2 335.471C 69.31 335.498 70.781 336.843 72.47 338.46C 74.158 340.077 76.199 341.94 77.005 342.6C 77.811 343.26 79.294 344.565 80.299 345.5C 81.305 346.435 82.278 347.2 82.463 347.2C 82.648 347.2 83.541 347.92 84.448 348.8C 85.355 349.68 86.279 350.4 86.501 350.4C 86.724 350.4 87.209 350.749 87.578 351.175C 87.948 351.601 88.497 352.006 88.798 352.075C 89.098 352.144 89.879 352.695 90.532 353.3C 91.184 353.905 91.922 354.4 92.171 354.4C 92.42 354.4 92.883 354.76 93.2 355.2C 93.517 355.64 93.979 356 94.226 356C 94.474 356 95.002 356.36 95.4 356.8C 95.798 357.24 96.344 357.6 96.613 357.6C 96.882 357.6 97.326 357.87 97.6 358.2C 97.874 358.53 98.396 358.8 98.761 358.8C 99.125 358.8 99.683 359.16 100 359.6C 100.317 360.04 100.897 360.4 101.288 360.4C 101.68 360.4 102 360.58 102 360.8C 102 361.02 102.32 361.2 102.712 361.2C 103.103 361.2 103.683 361.56 104 362C 104.317 362.44 104.897 362.8 105.288 362.8C 105.68 362.8 106 362.98 106 363.2C 106 363.42 106.36 363.6 106.8 363.6C 107.24 363.6 107.6 363.78 107.6 364C 107.6 364.22 107.92 364.4 108.312 364.4C 108.703 364.4 109.283 364.76 109.6 365.2C 109.917 365.64 110.482 366 110.855 366C 111.228 366 111.593 366.136 111.667 366.302C 111.74 366.468 113.06 367.232 114.6 368C 116.14 368.768 117.46 369.532 117.533 369.698C 117.607 369.864 117.901 370 118.188 370C 118.474 370 119.211 370.261 119.826 370.58C 120.44 370.898 121.091 371.068 121.271 370.956C 121.452 370.844 121.6 370.943 121.6 371.176C 121.6 371.409 121.96 371.6 122.4 371.6C 122.84 371.6 123.2 371.78 123.2 372C 123.2 372.22 123.56 372.4 124 372.4C 124.44 372.4 124.8 372.58 124.8 372.8C 124.8 373.02 125.072 373.2 125.405 373.2C 125.738 373.2 126.323 373.365 126.705 373.566C 128.572 374.551 130.421 375.2 131.36 375.2C 131.932 375.2 132.4 375.38 132.4 375.6C 132.4 375.82 132.76 376 133.2 376C 133.64 376 134 376.18 134 376.4C 134 376.62 134.54 376.8 135.2 376.8C 135.86 376.8 136.4 376.98 136.4 377.2C 136.4 377.42 136.94 377.6 137.6 377.6C 138.26 377.6 138.8 377.78 138.8 378C 138.8 378.22 139.34 378.4 140 378.4C 140.66 378.4 141.2 378.58 141.2 378.8C 141.2 379.02 141.74 379.2 142.4 379.2C 143.06 379.2 143.6 379.38 143.6 379.6C 143.6 379.82 144.14 380 144.8 380C 145.46 380 146 380.18 146 380.4C 146 380.62 146.63 380.8 147.4 380.8C 148.17 380.8 148.8 380.98 148.8 381.2C 148.8 381.42 149.329 381.6 149.976 381.6C 150.623 381.6 151.264 381.78 151.4 382C 151.536 382.22 152.252 382.4 152.99 382.4C 153.729 382.4 154.393 382.57 154.467 382.779C 154.54 382.987 155.455 383.2 156.5 383.253C 157.545 383.306 158.4 383.496 158.4 383.675C 158.4 383.854 159.019 384 159.776 384C 160.533 384 161.264 384.18 161.4 384.4C 161.536 384.62 162.436 384.8 163.4 384.8C 164.364 384.8 165.264 384.98 165.4 385.2C 165.536 385.42 166.627 385.6 167.824 385.6C 169.021 385.6 170 385.78 170 386C 170 386.229 171.2 386.4 172.8 386.4C 174.4 386.4 175.6 386.571 175.6 386.8C 175.6 387.036 177.04 387.2 179.12 387.2C 181.056 387.2 182.824 387.384 183.049 387.609C 183.888 388.448 224.4 387.628 224.4 386.772C 224.4 386.567 225.66 386.4 227.2 386.4C 228.8 386.4 230 386.229 230 386C 230 385.78 230.979 385.6 232.176 385.6C 233.373 385.6 234.464 385.42 234.6 385.2C 234.736 384.98 235.636 384.8 236.6 384.8C 237.564 384.8 238.464 384.62 238.6 384.4C 238.736 384.18 239.647 384 240.624 384C 241.601 384 242.4 383.82 242.4 383.6C 242.4 383.38 243.12 383.2 244 383.2C 244.88 383.2 245.6 383.02 245.6 382.8C 245.6 382.58 246.219 382.4 246.976 382.4C 247.733 382.4 248.464 382.22 248.6 382C 248.736 381.78 249.377 381.6 250.024 381.6C 250.671 381.6 251.2 381.42 251.2 381.2C 251.2 380.98 251.819 380.8 252.576 380.8C 253.333 380.8 254.064 380.62 254.2 380.4C 254.336 380.18 254.876 380 255.4 380C 255.924 380 256.464 379.82 256.6 379.6C 256.736 379.38 257.287 379.2 257.824 379.2C 258.361 379.2 258.8 379.02 258.8 378.8C 258.8 378.58 259.34 378.4 260 378.4C 260.66 378.4 261.2 378.22 261.2 378C 261.2 377.78 261.74 377.6 262.4 377.6C 263.06 377.6 263.6 377.42 263.6 377.2C 263.6 376.98 264.14 376.8 264.8 376.8C 265.46 376.8 266 376.62 266 376.4C 266 376.18 266.36 376 266.8 376C 267.24 376 267.6 375.82 267.6 375.6C 267.6 375.38 268.068 375.2 268.64 375.2C 269.579 375.2 271.428 374.551 273.295 373.566C 273.677 373.365 274.262 373.2 274.595 373.2C 274.928 373.2 275.2 373.02 275.2 372.8C 275.2 372.58 275.56 372.4 276 372.4C 276.44 372.4 276.8 372.22 276.8 372C 276.8 371.78 277.239 371.6 277.776 371.6C 278.313 371.6 278.864 371.42 279 371.2C 279.136 370.98 279.597 370.8 280.024 370.8C 280.451 370.8 280.8 370.62 280.8 370.4C 280.8 370.18 281.16 370 281.6 370C 282.04 370 282.4 369.82 282.4 369.6C 282.4 369.38 282.76 369.2 283.2 369.2C 283.64 369.2 284 369.02 284 368.8C 284 368.58 284.36 368.4 284.8 368.4C 285.24 368.4 285.6 368.22 285.6 368C 285.6 367.78 285.96 367.6 286.4 367.6C 286.84 367.6 287.2 367.454 287.2 367.275C 287.2 367.096 287.83 366.702 288.6 366.4C 289.37 366.098 290 365.704 290 365.525C 290 365.346 290.236 365.2 290.525 365.2C 290.813 365.2 291.436 364.84 291.908 364.4C 292.38 363.96 293.044 363.6 293.383 363.6C 293.722 363.6 294 363.42 294 363.2C 294 362.98 294.32 362.8 294.712 362.8C 295.103 362.8 295.683 362.44 296 362C 296.317 361.56 296.897 361.2 297.288 361.2C 297.68 361.2 298 361.02 298 360.8C 298 360.58 298.294 360.4 298.653 360.4C 299.012 360.4 299.597 360.069 299.953 359.664C 300.309 359.259 301.095 358.806 301.7 358.656C 302.305 358.507 302.8 358.208 302.8 357.992C 302.8 357.777 303.025 357.599 303.3 357.598C 303.575 357.597 304.749 356.877 305.908 355.998C 307.068 355.119 308.111 354.4 308.226 354.4C 308.342 354.4 308.886 353.95 309.436 353.4C 309.986 352.85 310.6 352.4 310.8 352.4C 311 352.4 311.614 351.95 312.164 351.4C 312.714 350.85 313.352 350.4 313.582 350.4C 313.812 350.4 314 350.22 314 350C 314 349.78 314.198 349.6 314.44 349.6C 314.681 349.6 315.383 349.06 316 348.4C 316.617 347.74 317.333 347.2 317.592 347.2C 317.851 347.2 318.754 346.48 319.6 345.6C 320.446 344.72 321.342 344 321.592 344C 321.842 344 321.936 343.82 321.8 343.6C 321.664 343.38 321.741 343.2 321.972 343.2C 322.53 343.2 323.674 342.258 326.407 339.547C 327.656 338.307 329.071 337.083 329.55 336.827C 330.03 336.57 330.3 336.161 330.149 335.918C 329.993 335.666 330.058 335.589 330.301 335.739C 330.855 336.081 336.081 330.855 335.739 330.301C 335.594 330.067 335.664 329.992 335.894 330.135C 336.124 330.277 336.599 329.956 336.95 329.421C 337.3 328.886 338.535 327.475 339.693 326.285C 342.328 323.578 343.2 322.506 343.2 321.972C 343.2 321.741 343.38 321.664 343.6 321.8C 343.82 321.936 344 321.842 344 321.592C 344 321.342 344.72 320.446 345.6 319.6C 346.48 318.754 347.2 317.869 347.2 317.632C 347.2 317.395 347.92 316.459 348.8 315.552C 349.68 314.645 350.4 313.737 350.4 313.534C 350.4 313.33 350.85 312.714 351.4 312.164C 351.95 311.614 352.4 311.005 352.4 310.81C 352.4 310.616 352.628 310.219 352.907 309.929C 353.807 308.992 357.29 304.219 357.526 303.6C 357.652 303.27 357.99 302.762 358.278 302.471C 358.565 302.181 358.8 301.635 358.8 301.26C 358.8 300.884 359.16 300.317 359.6 300C 360.04 299.683 360.4 299.103 360.4 298.712C 360.4 298.32 360.58 298 360.8 298C 361.02 298 361.2 297.68 361.2 297.288C 361.2 296.897 361.56 296.317 362 296C 362.44 295.683 362.8 295.103 362.8 294.712C 362.8 294.32 362.98 294 363.2 294C 363.42 294 363.6 293.64 363.6 293.2C 363.6 292.76 363.78 292.4 364 292.4C 364.22 292.4 364.4 292.13 364.4 291.8C 364.4 291.47 364.58 291.2 364.8 291.2C 365.02 291.2 365.2 290.93 365.2 290.6C 365.2 290.27 365.335 289.999 365.5 289.999C 365.665 289.998 366.25 289.008 366.8 287.8C 367.35 286.592 367.935 285.602 368.1 285.601C 368.265 285.601 368.4 285.24 368.4 284.8C 368.4 284.36 368.58 284 368.8 284C 369.02 284 369.2 283.64 369.2 283.2C 369.2 282.76 369.38 282.4 369.6 282.4C 369.82 282.4 370 282.04 370 281.6C 370 281.16 370.147 280.8 370.328 280.8C 370.508 280.8 370.9 279.9 371.2 278.8C 371.5 277.7 371.892 276.8 372.072 276.8C 372.253 276.8 372.4 276.44 372.4 276C 372.4 275.56 372.58 275.2 372.8 275.2C 373.02 275.2 373.2 274.964 373.2 274.675C 373.2 274.386 373.582 273.359 374.049 272.393C 374.516 271.426 374.99 269.952 375.102 269.118C 375.214 268.283 375.462 267.6 375.653 267.6C 375.844 267.6 376 267.24 376 266.8C 376 266.36 376.18 266 376.4 266C 376.62 266 376.8 265.46 376.8 264.8C 376.8 264.14 376.98 263.6 377.2 263.6C 377.42 263.6 377.6 263.06 377.6 262.4C 377.6 261.74 377.78 261.2 378 261.2C 378.22 261.2 378.4 260.66 378.4 260C 378.4 259.34 378.58 258.8 378.8 258.8C 379.02 258.8 379.2 258.361 379.2 257.824C 379.2 257.287 379.38 256.736 379.6 256.6C 379.82 256.464 380 255.924 380 255.4C 380 254.876 380.18 254.336 380.4 254.2C 380.62 254.064 380.8 253.333 380.8 252.576C 380.8 251.819 380.98 251.2 381.2 251.2C 381.42 251.2 381.6 250.671 381.6 250.024C 381.6 249.377 381.78 248.736 382 248.6C 382.22 248.464 382.4 247.733 382.4 246.976C 382.4 246.219 382.58 245.6 382.8 245.6C 383.02 245.6 383.2 244.891 383.2 244.024C 383.2 243.157 383.38 242.336 383.6 242.2C 383.82 242.064 384 241.254 384 240.4C 384 239.546 384.18 238.736 384.4 238.6C 384.62 238.464 384.8 237.564 384.8 236.6C 384.8 235.636 384.98 234.736 385.2 234.6C 385.42 234.464 385.6 233.373 385.6 232.176C 385.6 230.979 385.78 230 386 230C 386.229 230 386.4 228.8 386.4 227.2C 386.4 225.66 386.567 224.4 386.772 224.4C 387.411 224.4 387.658 217.596 387.658 200C 387.658 182.404 387.411 175.6 386.772 175.6C 386.567 175.6 386.4 174.34 386.4 172.8C 386.4 171.2 386.229 170 386 170C 385.78 170 385.6 169.021 385.6 167.824C 385.6 166.627 385.42 165.536 385.2 165.4C 384.98 165.264 384.8 164.364 384.8 163.4C 384.8 162.436 384.62 161.536 384.4 161.4C 384.18 161.264 384 160.454 384 159.6C 384 158.746 383.82 157.936 383.6 157.8C 383.38 157.664 383.2 156.843 383.2 155.976C 383.2 155.109 383.02 154.4 382.8 154.4C 382.58 154.4 382.4 153.781 382.4 153.024C 382.4 152.267 382.22 151.536 382 151.4C 381.78 151.264 381.6 150.623 381.6 149.976C 381.6 149.329 381.42 148.8 381.2 148.8C 380.98 148.8 380.8 148.17 380.8 147.4C 380.8 146.63 380.62 146 380.4 146C 380.18 146 380 145.46 380 144.8C 380 144.14 379.82 143.6 379.6 143.6C 379.38 143.6 379.2 143.06 379.2 142.4C 379.2 141.74 379.02 141.2 378.8 141.2C 378.58 141.2 378.4 140.66 378.4 140C 378.4 139.34 378.22 138.8 378 138.8C 377.78 138.8 377.6 138.26 377.6 137.6C 377.6 136.94 377.42 136.4 377.2 136.4C 376.98 136.4 376.8 135.86 376.8 135.2C 376.8 134.54 376.62 134 376.4 134C 376.18 134 376 133.64 376 133.2C 376 132.76 375.82 132.4 375.6 132.4C 375.38 132.4 375.2 131.932 375.2 131.36C 375.2 130.421 374.551 128.572 373.566 126.705C 373.365 126.323 373.2 125.738 373.2 125.405C 373.2 125.072 373.02 124.8 372.8 124.8C 372.58 124.8 372.4 124.44 372.4 124C 372.4 123.56 372.22 123.2 372 123.2C 371.78 123.2 371.6 122.851 371.6 122.424C 371.6 121.997 371.42 121.536 371.2 121.4C 370.98 121.264 370.8 120.713 370.8 120.176C 370.8 119.639 370.62 119.2 370.4 119.2C 370.18 119.2 370 118.84 370 118.4C 370 117.96 369.865 117.599 369.7 117.597C 369.341 117.593 368.4 115.656 368.4 114.92C 368.4 114.634 368.254 114.4 368.075 114.4C 367.896 114.4 367.502 113.77 367.2 113C 366.898 112.23 366.504 111.6 366.325 111.6C 366.146 111.6 366 111.24 366 110.8C 366 110.36 365.842 110 365.649 110C 365.455 110 365.073 109.46 364.8 108.8C 364.527 108.14 364.145 107.6 363.951 107.6C 363.758 107.6 363.6 107.24 363.6 106.8C 363.6 106.36 363.42 106 363.2 106C 362.98 106 362.8 105.68 362.8 105.288C 362.8 104.897 362.44 104.317 362 104C 361.56 103.683 361.2 103.103 361.2 102.712C 361.2 102.32 361.02 102 360.8 102C 360.58 102 360.4 101.68 360.4 101.288C 360.4 100.897 360.04 100.317 359.6 100C 359.16 99.683 358.8 99.125 358.8 98.761C 358.8 98.396 358.53 97.874 358.2 97.6C 357.87 97.326 357.6 96.937 357.6 96.735C 357.6 96.269 356.02 94.005 355.1 93.154C 354.715 92.798 354.4 92.347 354.4 92.153C 354.399 91.959 353.949 91.277 353.4 90.638C 352.85 89.999 352.4 89.332 352.4 89.156C 352.4 88.98 351.95 88.386 351.4 87.836C 350.85 87.286 350.4 86.67 350.4 86.466C 350.4 86.263 349.68 85.355 348.8 84.448C 347.92 83.541 347.2 82.615 347.2 82.389C 347.2 81.813 343.729 78.404 343.439 78.695C 343.307 78.826 343.2 78.627 343.2 78.252C 343.2 77.541 342.765 76.999 339.291 73.391C 338.132 72.186 337.313 71.2 337.472 71.2C 337.744 71.2 337.225 70.621 333.883 67.2C 331.934 65.204 328.8 62.383 328.8 62.623C 328.8 62.797 326.939 61.128 325.457 59.623C 325.205 59.368 324.662 58.854 324.25 58.48C 323.837 58.106 323.08 57.395 322.568 56.9C 322.056 56.405 321.524 56 321.387 56C 321.25 56 320.446 55.28 319.6 54.4C 318.754 53.52 317.869 52.8 317.632 52.8C 317.395 52.8 316.459 52.08 315.552 51.2C 314.645 50.32 313.695 49.6 313.44 49.6C 313.185 49.6 312.717 49.24 312.4 48.8C 312.083 48.36 311.569 48 311.259 48C 310.948 48 310.403 47.685 310.047 47.3C 308.923 46.084 305.491 43.6 304.934 43.6C 304.64 43.6 304.4 43.42 304.4 43.2C 304.4 42.98 304.08 42.8 303.688 42.8C 303.297 42.8 302.717 42.44 302.4 42C 302.083 41.56 301.543 41.2 301.2 41.2C 300.857 41.2 300.317 40.84 300 40.4C 299.683 39.96 299.103 39.6 298.712 39.6C 298.32 39.6 298 39.42 298 39.2C 298 38.98 297.764 38.8 297.475 38.8C 297.187 38.8 296.564 38.44 296.092 38C 295.62 37.56 294.956 37.2 294.617 37.2C 294.278 37.2 294 37.02 294 36.8C 294 36.58 293.722 36.4 293.383 36.4C 293.044 36.4 292.38 36.04 291.908 35.6C 291.436 35.16 290.813 34.8 290.525 34.8C 290.236 34.8 289.999 34.665 289.999 34.5C 289.998 34.335 289.008 33.75 287.8 33.2C 286.592 32.65 285.602 32.065 285.601 31.9C 285.601 31.735 285.24 31.6 284.8 31.6C 284.36 31.6 284 31.42 284 31.2C 284 30.98 283.64 30.8 283.2 30.8C 282.76 30.8 282.4 30.62 282.4 30.4C 282.4 30.18 282.164 30 281.875 30C 281.402 30 278.753 28.891 277.187 28.036C 276.85 27.852 275.997 27.575 275.291 27.42C 274.586 27.265 273.906 26.972 273.781 26.769C 273.655 26.566 273.103 26.4 272.553 26.4C 271.988 26.4 271.66 26.226 271.8 26C 271.94 25.773 271.604 25.6 271.024 25.6C 270.461 25.6 270 25.42 270 25.2C 270 24.98 269.561 24.8 269.024 24.8C 268.487 24.8 267.936 24.62 267.8 24.4C 267.664 24.18 267.203 24 266.776 24C 266.349 24 266 23.82 266 23.6C 266 23.38 265.46 23.2 264.8 23.2C 264.14 23.2 263.6 23.02 263.6 22.8C 263.6 22.58 263.06 22.4 262.4 22.4C 261.74 22.4 261.2 22.22 261.2 22C 261.2 21.78 260.66 21.6 260 21.6C 259.34 21.6 258.8 21.42 258.8 21.2C 258.8 20.98 258.361 20.8 257.824 20.8C 257.287 20.8 256.736 20.62 256.6 20.4C 256.464 20.18 255.924 20 255.4 20C 254.876 20 254.336 19.82 254.2 19.6C 254.064 19.38 253.333 19.2 252.576 19.2C 251.819 19.2 251.2 19.02 251.2 18.8C 251.2 18.58 250.671 18.4 250.024 18.4C 249.377 18.4 248.736 18.22 248.6 18C 248.464 17.78 247.733 17.6 246.976 17.6C 246.219 17.6 245.6 17.42 245.6 17.2C 245.6 16.98 244.689 16.8 243.576 16.8C 242.329 16.8 241.648 16.647 241.8 16.4C 241.949 16.159 241.412 16 240.447 16C 239.567 16 238.736 15.82 238.6 15.6C 238.464 15.38 237.564 15.2 236.6 15.2C 235.636 15.2 234.736 15.02 234.6 14.8C 234.464 14.58 233.384 14.4 232.2 14.4C 231.016 14.4 229.936 14.22 229.8 14C 229.664 13.78 228.393 13.6 226.976 13.6C 225.559 13.6 224.4 13.433 224.4 13.228C 224.4 12.426 183.93 11.543 183.44 12.335M307.376 115.008C 311.458 116.246 313.405 118.352 314.764 123C 315.826 126.632 315.04 258.8 313.956 258.8C 313.76 258.8 313.6 259.035 313.6 259.322C 313.6 260.103 311.179 262.594 309.382 263.661L309.382 263.661L307.8 264.6L265.26 264.714L222.719 264.828L222.946 268.114C 223.254 272.557 223.61 274.924 224.041 275.38C 224.238 275.589 224.4 276.343 224.4 277.056C 224.4 277.769 224.58 278.464 224.8 278.6C 225.02 278.736 225.2 279.377 225.2 280.024C 225.2 280.671 225.38 281.2 225.6 281.2C 225.82 281.2 226 281.652 226 282.205C 226 282.758 226.18 283.568 226.4 284.005C 226.62 284.442 226.98 285.158 227.2 285.595C 227.42 286.032 227.6 286.752 227.6 287.195C 227.6 287.638 227.78 288 228 288C 228.22 288 228.4 288.36 228.4 288.8C 228.4 289.24 228.58 289.6 228.8 289.6C 229.02 289.6 229.2 289.853 229.2 290.162C 229.2 290.828 230.868 294.141 231.3 294.333C 231.465 294.407 231.6 294.812 231.6 295.233C 231.6 295.655 231.736 296 231.902 296C 232.069 296 232.432 296.514 232.71 297.142L232.71 297.142L233.216 298.284L238.113 298.496C 245.883 298.831 248.8 301.071 248.8 306.7C 248.8 310.852 247.359 312.872 243.081 314.717C 241.463 315.415 158.537 315.415 156.919 314.717C 152.641 312.872 151.2 310.852 151.2 306.7C 151.2 301.079 154.12 298.831 161.857 298.497C 166.608 298.292 166.738 298.262 167.262 297.243C 167.557 296.67 167.89 296.11 168.002 296C 168.457 295.552 170.8 290.648 170.8 290.144C 170.8 289.845 170.98 289.6 171.2 289.6C 171.42 289.6 171.6 289.24 171.6 288.8C 171.6 288.36 171.78 288 172 288C 172.22 288 172.4 287.638 172.4 287.195C 172.4 286.752 172.58 286.032 172.8 285.595C 173.02 285.158 173.38 284.442 173.6 284.005C 173.82 283.568 174 282.859 174 282.429C 174 281.999 174.18 281.536 174.4 281.4C 174.62 281.264 174.8 280.724 174.8 280.2C 174.8 279.676 174.98 279.136 175.2 279C 175.42 278.864 175.6 278.043 175.6 277.176C 175.6 276.309 175.763 275.6 175.961 275.6C 176.364 275.6 176.734 273.052 177.049 268.114L177.049 268.114L177.258 264.828L134.729 264.714C 87.244 264.587 91.501 264.859 88.293 261.745C 86.711 260.21 86.005 258.912 85.25 256.154C 84.61 253.811 84.61 125.389 85.25 123.046C 86.455 118.641 88.364 116.445 92.09 115.175C 95.073 114.159 304.042 113.997 307.376 115.008" stroke="none" fill="#40307C" fill-rule="nonzero" />
        <path d="M95.672 124.603C 94.988 125.389 94.8 126.115 94.8 127.96L94.8 127.96L94.8 130.314L96.285 129.557C 97.729 128.82 100.5 128.8 200 128.8C 299.5 128.8 302.271 128.82 303.715 129.557L303.715 129.557L305.2 130.314L305.2 127.827C 305.2 125.744 305.049 125.198 304.274 124.47L304.274 124.47L303.348 123.6L199.946 123.6L96.544 123.6L95.672 124.603" stroke="none" fill="#146CA4" fill-rule="nonzero" />
        <path d="M95.454 123.629C 94.874 124.085 94.4 124.755 94.4 125.118C 94.4 125.602 94.581 125.514 95.077 124.789C 95.449 124.245 95.944 123.668 96.177 123.506C 96.41 123.344 143.184 123.209 200.119 123.206L200.119 123.206L303.638 123.2L304.619 124.258C 305.159 124.841 305.6 125.124 305.6 124.887C 305.6 124.651 305.126 124.085 304.546 123.629L304.546 123.629L303.492 122.8L200 122.8L96.508 122.8L95.454 123.629zM94.498 180.464L94.4 230.729L95.631 231.764L96.861 232.8L199.857 232.8C 277.394 232.8 303.069 232.685 303.726 232.335C 305.657 231.306 305.58 233.599 305.49 180.4L305.49 180.4L305.405 130.2L305.202 180.287C 305.013 227.132 304.955 230.427 304.304 231.187L304.304 231.187L303.608 232L200.074 232L96.539 232L95.671 231.076L94.803 230.152L94.7 180.176L94.597 130.2L94.498 180.464zM209 150.561C 203.633 152.263 199.581 157.483 200.57 161.422C 201.411 164.776 209.394 161.455 211.681 156.8C 214.243 151.583 213.228 149.22 209 150.561M212.4 152.605C 212.4 153.598 212.241 154.723 212.047 155.105C 211.852 155.487 211.456 156.307 211.165 156.926C 210.416 158.523 208.676 160.241 207.126 160.912C 204.24 162.164 203.527 162.4 202.63 162.4C 200.955 162.4 200.61 161.476 201.334 158.932C 202.73 154.023 206.387 150.927 210.9 150.832L210.9 150.832L212.4 150.8L212.4 152.605zM187.587 163.797C 182.169 165.285 178.723 168.897 175.947 176C 175.286 177.691 175.236 186.317 175.879 187.686C 176.116 188.189 176.542 189.41 176.827 190.4C 178.805 197.269 184.607 206.02 188.695 208.301C 190.761 209.454 195.773 208.749 199.695 206.753C 200.602 206.292 202.935 206.299 203.42 206.766C 205.262 208.537 212.531 209.327 214.719 207.993C 217.271 206.437 221.187 201.554 223.213 197.4C 223.535 196.74 223.94 196.095 224.114 195.968C 224.97 195.336 224.89 192.869 223.989 192.136C 221.053 189.744 220.327 188.93 219.347 186.928C 217.008 182.147 217.682 176.295 221.046 172.165C 223.19 169.532 223.231 168.709 221.3 166.97C 218.039 164.032 212.776 162.6 208.867 163.585C 207.84 163.844 206.19 164.25 205.2 164.487C 204.21 164.724 203.229 165.071 203.02 165.259C 202.521 165.707 200.508 165.699 200.23 165.248C 200.11 165.054 199.604 164.798 199.106 164.678C 192.365 163.06 190.726 162.935 187.587 163.797M198.857 165.23L201.513 166.128L204.457 165.164C 210.963 163.033 218.765 164.287 221.625 167.923C 222.713 169.306 222.626 169.67 220.649 171.986C 215.693 177.792 216.851 188.349 222.83 191.881C 224.638 192.949 224.612 193.662 222.63 197.49C 217.202 207.969 212.597 210.35 204.6 206.812C 201.909 205.622 201.297 205.53 200.12 206.137C 195.599 208.473 190.855 208.977 188.175 207.406C 184.607 205.315 179.069 196.657 177.233 190.3C 176.995 189.475 176.6 188.146 176.355 187.346C 175.039 183.051 176.087 175.789 178.675 171.275C 182.446 164.694 190.305 162.341 198.857 165.23" stroke="none" fill="#84D1F1" fill-rule="nonzero" />
        <path d="M93.119 115.338C 89.918 116.124 84.996 120.73 86.138 121.871C 86.244 121.978 86.653 121.375 87.046 120.532C 87.912 118.673 89.271 117.374 91.4 116.371C 93.908 115.19 306.092 115.19 308.6 116.371C 310.779 117.398 312.106 118.664 313.243 120.8L313.243 120.8L314.2 122.6L314.2 189.68C 314.2 242.811 314.096 256.864 313.7 257.26C 313.425 257.535 313.2 258.052 313.2 258.408C 313.2 259.259 310.5 262.4 309.769 262.4C 309.456 262.4 309.2 262.558 309.2 262.75C 309.2 262.943 308.615 263.236 307.9 263.402C 307.061 263.597 306.839 263.766 307.273 263.876C 308.919 264.297 312.393 261.368 313.765 258.404C 314.676 256.436 315.319 139.887 314.492 126.697C 314.024 119.232 312.001 116.353 306.438 115.236C 303.259 114.598 95.732 114.697 93.119 115.338M85.502 127.4C 84.509 144.7 85.307 256.806 86.437 258.804C 87.831 261.269 91.285 264.042 92.884 263.98C 93.168 263.969 92.59 263.576 91.6 263.106C 89.426 262.073 87.763 260.445 86.866 258.469C 86.256 257.122 86.183 251.379 86 189.6C 85.89 152.53 85.666 124.54 85.502 127.4M305.331 127.8C 305.333 129.34 305.405 129.921 305.492 129.091C 305.579 128.261 305.577 127.001 305.489 126.291C 305.4 125.581 305.329 126.26 305.331 127.8M94.528 128C 94.528 129.43 94.601 130.015 94.689 129.3C 94.778 128.585 94.778 127.415 94.689 126.7C 94.601 125.985 94.528 126.57 94.528 128M135.731 264.302L178.063 264.404L177.848 265.502C 177.73 266.106 177.518 267.86 177.376 269.4C 177.068 272.761 175.412 280.093 174.59 281.741C 174.265 282.391 174 283.168 174 283.467C 174 283.766 173.842 284.323 173.648 284.705C 172.825 286.33 169.67 294 169.826 294C 169.919 294 170.644 292.605 171.436 290.9C 173.3 286.891 173.388 286.676 174.42 283.6C 174.9 282.17 175.452 280.829 175.647 280.62C 175.841 280.411 176 279.837 176 279.344C 176 278.851 176.18 278.336 176.4 278.2C 176.62 278.064 176.8 277.254 176.8 276.4C 176.8 275.546 176.98 274.736 177.2 274.6C 177.42 274.464 177.6 273.384 177.6 272.2C 177.6 271.016 177.78 269.936 178 269.8C 178.22 269.664 178.4 268.483 178.4 267.176L178.4 267.176L178.4 264.8L199.964 264.8L221.529 264.8L221.756 267.1C 221.882 268.365 222.093 270.48 222.227 271.8C 222.361 273.12 222.635 274.371 222.835 274.58C 223.036 274.789 223.2 275.633 223.2 276.456C 223.2 277.279 223.38 278.064 223.6 278.2C 223.82 278.336 224 278.851 224 279.344C 224 279.837 224.162 280.411 224.361 280.62C 224.559 280.829 224.992 281.81 225.323 282.8C 226.892 287.496 230.319 294.97 232.338 298.1L232.338 298.1L233.306 299.6L237.959 299.6C 241.728 299.6 242.876 299.741 243.996 300.342C 249.197 303.131 249.261 310.763 244.104 313.199C 241.757 314.308 159.196 314.472 156.451 313.374C 151.244 311.29 150.479 304.424 155.064 300.923C 156.472 299.848 156.753 299.794 161.682 299.668L161.682 299.668L166.83 299.536L167.844 297.93C 169.178 295.817 168.828 295.514 167.453 297.592L167.453 297.592L166.389 299.2L161.843 299.2C 156.938 299.2 155.207 299.643 153.774 301.265C 149.766 305.8 151.142 311.894 156.697 314.215C 158.802 315.094 241.198 315.094 243.303 314.215C 249.928 311.447 250.383 303.209 244.105 299.7C 243.529 299.378 241.511 299.2 238.433 299.2L238.433 299.2L233.654 299.2L232.837 298.052C 231.748 296.522 227.832 288.615 227.166 286.6C 226.875 285.72 226.493 284.829 226.318 284.62C 226.143 284.411 226 283.862 226 283.4C 226 282.938 225.857 282.389 225.682 282.18C 224.701 281.01 222.907 273.008 222.57 268.302L222.57 268.302L222.291 264.404L264.445 264.302C 287.63 264.246 258.63 264.2 200 264.2C 141.37 264.2 112.449 264.246 135.731 264.302" stroke="none" fill="#968EB7" fill-rule="nonzero" />
        <path d="M148.468 123.5C 176.775 123.557 223.215 123.557 251.668 123.5C 280.121 123.443 256.96 123.397 200.2 123.397C 143.44 123.397 120.161 123.443 148.468 123.5M96.424 129.501C 95.667 129.885 94.966 130.459 94.866 130.775C 94.747 131.149 95.073 131.044 95.796 130.475L95.796 130.475L96.908 129.6L200 129.6L303.092 129.6L304.204 130.475C 304.927 131.044 305.253 131.149 305.134 130.775C 305.034 130.459 304.333 129.885 303.576 129.501C 301.439 128.414 98.561 128.414 96.424 129.501" stroke="none" fill="#148CBC" fill-rule="nonzero" />
        <path d="M92.09 115.175C 88.798 116.297 85.59 119.645 85.604 121.946C 85.606 122.306 86.042 121.667 86.573 120.526C 87.802 117.887 90.484 115.854 93.548 115.239C 96.704 114.605 303.514 114.618 306.472 115.253C 308.99 115.793 311.118 117.061 312.546 118.874C 313.121 119.603 313.592 120.02 313.594 119.8C 313.602 118.513 310.144 115.848 307.376 115.008C 304.042 113.997 95.073 114.159 92.09 115.175M85.052 123.7C 84.717 124.949 84.792 254.839 85.128 255.685C 85.278 256.062 85.4 226.317 85.4 189.585C 85.4 152.853 85.376 122.8 85.347 122.8C 85.317 122.8 85.185 123.205 85.052 123.7M314.6 189.6C 314.6 226.298 314.732 256.116 314.894 255.862C 315.056 255.608 315.188 225.79 315.188 189.6C 315.188 153.41 315.056 123.592 314.894 123.338C 314.732 123.084 314.6 152.902 314.6 189.6M85.632 257.254C 85.515 259.678 90.452 264.468 92.961 264.366C 93.679 264.336 93.652 264.286 92.777 264.021C 89.454 263.013 87.032 260.622 85.867 257.2C 85.699 256.704 85.658 256.714 85.632 257.254M312.681 260.239C 312.286 260.768 312.108 261.2 312.285 261.2C 312.634 261.2 313.738 259.601 313.528 259.4C 313.457 259.333 313.077 259.711 312.681 260.239M310.056 262.834C 309.536 263.255 309.266 263.594 309.456 263.587C 309.944 263.569 311.376 262.443 311.171 262.239C 311.077 262.145 310.575 262.413 310.056 262.834M307.4 264L306.2 264.305L307.276 264.353C 307.868 264.379 308.464 264.22 308.6 264C 308.736 263.78 308.792 263.621 308.724 263.647C 308.656 263.673 308.06 263.832 307.4 264M135.9 264.7L177.2 264.804L177.2 267.069C 177.2 269.882 177.418 269.726 177.716 266.7L177.716 266.7L177.942 264.4L136.271 264.498L94.6 264.596L135.9 264.7zM222.474 266.7L222.548 269L222.695 266.902L222.842 264.804L264.121 264.7L305.4 264.596L263.9 264.498L222.4 264.4L222.474 266.7zM222.868 271.6C 222.887 273.25 223.517 274.956 223.532 273.4C 223.538 272.74 223.389 271.84 223.2 271.4C 222.887 270.673 222.857 270.691 222.868 271.6M176.673 271.753C 176.523 272.145 176.416 272.946 176.436 273.533C 176.47 274.528 176.498 274.509 176.857 273.263C 177.273 271.819 177.123 270.582 176.673 271.753M223.628 275.676C 223.696 276.944 224.342 277.854 224.372 276.724C 224.387 276.132 224.22 275.536 224 275.4C 223.78 275.264 223.613 275.388 223.628 275.676M175.6 276.867C 175.6 278.323 175.775 278.27 176.151 276.7C 176.308 276.047 176.25 275.6 176.008 275.6C 175.783 275.6 175.6 276.17 175.6 276.867M224.406 278.876C 224.418 279.881 225.187 280.708 225.194 279.724C 225.197 279.242 225.02 278.736 224.8 278.6C 224.58 278.464 224.403 278.588 224.406 278.876M175.067 279.067C 174.92 279.213 174.811 279.708 174.825 280.167C 174.849 280.933 174.882 280.923 175.234 280.042C 175.626 279.063 175.544 278.589 175.067 279.067M169.361 293.475C 168.743 294.754 168.139 295.89 168.018 296C 167.897 296.11 167.557 296.67 167.262 297.243C 166.738 298.262 166.608 298.292 161.857 298.497C 156.997 298.707 155.033 299.272 153.437 300.921C 149.978 304.495 150.324 310.575 154.13 313.119C 157.403 315.306 155.07 315.2 200 315.2C 244.93 315.2 242.597 315.306 245.87 313.119C 249.676 310.575 250.022 304.495 246.563 300.921C 244.964 299.27 243.005 298.707 238.113 298.496L238.113 298.496L233.216 298.284L232.71 297.142C 232.432 296.514 232.058 296 231.879 296C 231.525 296 231.723 296.41 232.893 298.1C 233.652 299.196 233.671 299.2 238.433 299.2C 241.511 299.2 243.529 299.378 244.105 299.7C 250.383 303.209 249.928 311.447 243.303 314.215C 241.198 315.094 158.802 315.094 156.697 314.215C 151.142 311.894 149.766 305.8 153.774 301.265C 155.206 299.644 156.938 299.2 161.83 299.2L161.83 299.2L166.362 299.2L167.495 297.5C 169.094 295.1 170.916 291.583 170.681 291.348C 170.572 291.239 169.978 292.196 169.361 293.475" stroke="none" fill="#5C548C" fill-rule="nonzero" />
	</g>
</g>
</svg>