<?xml version="1.0" standalone="no"?>
<!DOCTYPE svg PUBLIC "-//W3C//DTD SVG 1.0//EN" "http://www.w3.org/TR/2001/REC-SVG-20010904/DTD/svg10.dtd">
<svg xmlns="http://www.w3.org/2000/svg" xmlns:xlink="http://www.w3.org/1999/xlink" id="body_1" width="614" height="461">

<g transform="matrix(14.40625 0 0 14.40625 76.500015 -0)">
    <path d="M15.9 0.087L16.754 1.691C 16.946 1.987 17.154 2.249 17.399 2.493C 18.114 3.208 18.793 3.957 19.403 4.759C 20.85 6.659 21.826 8.769 22.522999 11.051C 22.940998 12.445 23.168 13.875 23.185 15.320999C 23.255 19.644 21.772999 23.355999 18.785 26.440998C 18.296999 26.928999 17.775 27.380999 17.215 27.782997C 16.919 27.782997 16.779 27.555998 16.657 27.346996C 16.43 26.963997 16.291 26.526997 16.220999 26.091997C 16.116 25.568996 16.046999 25.045998 16.081 24.505997L16.081 24.505997L16.081 24.261997C 16.057 24.21 15.796 0.21 15.9 0.087z" stroke="none" fill="#599636" fill-rule="nonzero" />
    <path d="M15.9 0.034C 15.865 -0.036 15.83 0.017 15.795 0.051000003C 15.812 0.401 15.690001 0.713 15.499001 1.011C 15.2890005 1.307 15.011001 1.534 14.732 1.7780001C 13.182 3.1200001 11.962 4.741 10.985001 6.554C 9.685 8.9939995 9.015 11.608999 8.825001 14.3619995C 8.738001 15.355 9.139001 18.859 9.452001 19.869999C 10.306001 22.553999 11.84 24.803 13.827001 26.755C 14.315001 27.224998 14.837001 27.661 15.377001 28.08C 15.534 28.08 15.551001 27.94 15.587001 27.836C 15.655834 27.61346 15.708306 27.38619 15.744 27.156L15.744 27.156L16.094 24.542L15.9 0.034z" stroke="none" fill="#6CAC48" fill-rule="nonzero" />
    <path d="M16.754 28.845C 16.789 28.445 16.980999 28.112999 17.19 27.782C 16.980001 27.695 16.824001 27.522 16.702 27.329C 16.597 27.155 16.51 26.946001 16.442 26.754C 16.198 26.022 16.146 25.254 16.076 24.506L16.076 24.506L16.076 24.053001C 15.989 24.123001 15.971001 24.715002 15.971001 24.803001C 15.9201145 25.593584 15.815205 26.379742 15.657001 27.156002C 15.6050005 27.470001 15.570001 27.783003 15.377001 28.062002C 15.377001 28.097002 15.377001 28.132002 15.394001 28.184002C 15.708001 29.108002 15.794001 30.049002 15.847001 31.008001L15.847001 31.008001L15.847001 31.358002C 15.847001 31.776001 15.830001 31.688002 16.177002 31.828001C 16.317001 31.880001 16.473001 31.898 16.613003 32.002003C 16.718002 32.002003 16.735003 31.915003 16.735003 31.845003L16.735003 31.845003L16.683002 31.270002L16.683002 29.666002C 16.666002 29.386002 16.718002 29.108002 16.753002 28.846003L16.753002 28.846003L16.754 28.845z" stroke="none" fill="#C2BFBF" fill-rule="nonzero" />
</g>
</svg>