<?xml version="1.0" standalone="no"?>
<!DOCTYPE svg PUBLIC "-//W3C//DTD SVG 1.0//EN" "http://www.w3.org/TR/2001/REC-SVG-20010904/DTD/svg10.dtd">
<svg xmlns="http://www.w3.org/2000/svg" xmlns:xlink="http://www.w3.org/1999/xlink" id="body_1" width="614" height="461">

<g transform="matrix(6.5857143 0 0 6.5857143 76.49999 -0)">
	<g>
        <path d="M17.424 27.158L7.8 30.664C 7.9230003 32.209 8.2 33.734 8.564 35.23L8.564 35.23L17.714 31.897C 17.417 30.349998 17.311 28.755 17.434 27.157L17.434 27.157L17.424 27.158zM60 16.504C 59.328 15.118 58.55 13.778 57.65 12.516L57.65 12.516L48.018 16.022C 49.138 17.168999 50.078003 18.456999 50.848 19.835z" stroke="none" fill="#DB212F" fill-rule="nonzero" />
        <path d="M38.802 13.776C 40.806 14.711 42.542 15.986 44.005997 17.483L44.005997 17.483L53.638996 13.976999C 50.889366 10.11241 47.183 7.028364 42.882996 5.0269995C 29.112995 -1.3930006 12.684996 4.5849996 6.2629967 18.353C 4.254799 22.650326 3.3974628 27.395645 3.7749968 32.124L3.7749968 32.124L13.408997 28.619C 13.568996 26.532 14.078997 24.439 15.011996 22.435C 19.184996 13.488 29.855995 9.605 38.802 13.776999" stroke="none" fill="#DB212F" fill-rule="nonzero" />
	</g>
    <path d="M9.153 35.01L0 38.342C 0.84 41.679 2.3 44.85 4.304 47.671997L4.304 47.671997L13.916 44.171997C 11.466785 41.648514 9.810869 38.462536 9.153 35.007996" stroke="none" fill="#EA2227" fill-rule="nonzero" />
    <path d="M49.074 31.38C 48.916634 33.523224 48.368973 35.619648 47.458 37.565998C 43.285 46.512997 32.614998 50.395996 23.668 46.223C 21.719574 45.3163 19.952438 44.06253 18.453 42.523L18.453 42.523L8.840999 46.023C 11.502998 49.767 15.133999 52.897 19.588999 54.975998C 33.359 61.395996 49.784996 55.415997 56.207 41.648C 58.2155 37.353058 59.069912 32.6088 58.686 27.883L58.686 27.883L49.076 31.380999L49.074 31.38z" stroke="none" fill="#DB212F" fill-rule="nonzero" />
    <path d="M51.445 19.618L42.292 22.95C 43.992 25.996 44.795 29.503 44.532 33.03L44.532 33.03L54.144 29.532999C 53.869 26.082998 52.949 22.716 51.444 19.618" stroke="none" fill="#EA2227" fill-rule="nonzero" />
</g>
</svg>