<?xml version="1.0" standalone="no"?>
<!DOCTYPE svg PUBLIC "-//W3C//DTD SVG 1.0//EN" "http://www.w3.org/TR/2001/REC-SVG-20010904/DTD/svg10.dtd">
<svg xmlns="http://www.w3.org/2000/svg" xmlns:xlink="http://www.w3.org/1999/xlink" id="body_1" width="614" height="461">

<g transform="matrix(6.5857143 0 0 6.5857143 76.49999 -32.928574)">
    <path d="M37.65 48.2C 37.65 37.882 29.142002 29.375 18.825 29.375C 8.507999 29.375 0 37.883 0 48.2C 0 49.83 0.18 51.64 0.724 53.268C 0.904 53.811 1.086 54.535 1.267 55.068C 1.447 55.43 1.629 55.611 1.9909999 55.611L1.9909999 55.611L7.06 55.611C 7.448123 55.584003 7.7570047 55.275124 7.784 54.887C 7.784 54.707 7.784 54.707 7.604 54.525L7.604 54.525L7.06 53.45C 4.3450003 47.115 7.24 39.693 13.576 36.797C 19.911 34.082 27.333 36.977 30.229 43.313C 30.953 44.943 31.315 46.571 31.315 48.381C 31.315 50.011 30.953001 51.821 30.229 53.449C 30.049 53.811 29.867 54.173 29.686 54.716C 29.506 55.078 29.686 55.44 30.048 55.621C 30.228 55.621 30.228 55.801 30.41 55.801L30.41 55.801L35.66 55.801C 36.022 55.801 36.203 55.621 36.384 55.258C 36.564 54.715 36.746 53.991 36.927 53.458C 37.288998 51.658 37.650997 49.838 37.650997 48.208L37.650997 48.208L37.65 48.2z" stroke="none" fill="#008774" fill-rule="nonzero" />
    <path d="M40.185 23.22C 26.97 23.22 16.3 33.9 16.3 47.114C 16.3 49.114 16.48 51.277 17.023998 53.267998C 17.203999 53.810997 17.385998 54.534996 17.566998 55.067997C 17.746998 55.429996 17.928997 55.610996 18.290997 55.610996L18.290997 55.610996L23.358997 55.610996C 23.74712 55.584 24.056002 55.275116 24.082996 54.886997L24.082996 54.886997L24.082996 54.524998C 23.902996 54.163 23.720997 53.62 23.539997 53.258C 20.281998 44.026 24.987997 33.89 34.039997 30.630999C 43.091995 27.371998 53.4 32.1 56.657 41.14C 58.10527 45.052956 58.10527 49.35504 56.657 53.267998C 56.477 53.629997 56.295002 54.172997 56.114002 54.534996C 55.933002 54.896996 56.114002 55.258995 56.476 55.439995L56.476 55.439995L61.906002 55.439995C 62.268 55.439995 62.449 55.259995 62.63 54.896996C 62.81 54.353996 62.992 53.629997 63.173 53.096996C 66.613 40.426994 59.010002 27.211996 46.158 23.953997C 44.358 23.410997 42.358 23.229996 40.185 23.229996L40.185 23.229996L40.185 23.22z" stroke="none" fill="#00AE9E" fill-rule="nonzero" />
    <path d="M53.4 29.375C 53.423523 23.750721 51.19955 18.350033 47.222363 14.37322C 43.245174 10.396408 37.844276 8.172947 32.22 8.197C 26.59607 8.173485 21.195688 10.397179 17.218933 14.373934C 13.24218 18.350689 11.018482 23.751072 11.042002 29.375C 11.042002 30.098999 11.042002 30.642 11.222002 31.375L11.222002 31.375L17.376001 31.375C 16.471 23.229 22.626001 15.808 30.771002 14.903C 38.916 13.998 46.338 20.153 47.243004 28.298L47.243004 28.298L47.243004 30.098C 47.063004 32.994 45.976006 35.89 44.166004 38.244C 43.986004 38.606 43.986004 39.149 44.346004 39.329998C 44.526005 39.51 44.708004 39.51 44.889004 39.51L44.889004 39.51L50.319004 39.51C 50.681004 39.51 50.862003 39.329998 51.043003 39.148C 52.491005 36.433 53.396004 33.175 53.396004 30.098L53.396004 30.098L53.396004 29.374L53.4 29.375z" stroke="none" fill="#008774" fill-rule="nonzero" />
</g>
</svg>