<?xml version="1.0" standalone="no"?>
<!DOCTYPE svg PUBLIC "-//W3C//DTD SVG 1.0//EN" "http://www.w3.org/TR/2001/REC-SVG-20010904/DTD/svg10.dtd">
<svg xmlns="http://www.w3.org/2000/svg" xmlns:xlink="http://www.w3.org/1999/xlink" id="body_1" width="614" height="461">

<g transform="matrix(15.366667 0 0 15.366667 122.6 15.366667)">
	<g>
        <path d="M18.983 18.636C 19.146 17.279 19.097 17.081 20.107 17.3L20.107 17.3L20.364 17.323C 21.141 17.358 22.157 17.198 22.764 16.921C 24.049 16.324999 24.811 15.3289995 23.544 15.591C 20.654001 16.187 20.444 15.207999 20.444 15.207999C 23.497 10.6779995 24.774 4.9279995 23.671 3.520999C 20.667 -0.31900096 15.466 1.496999 15.379 1.544999L15.379 1.544999L15.351 1.549999C 14.781 1.429999 14.151 1.359999 13.421 1.349999C 12.113 1.329999 11.120999 1.6929989 10.367 2.263999C 10.367 2.263999 1.0899992 -1.558001 1.5209999 7.070999C 1.6129999 8.907 4.151 20.970999 7.1809998 17.321C 8.29 15.987 9.36 14.86 9.36 14.86C 9.889999 15.212999 10.526999 15.393 11.193999 15.328L11.193999 15.328L11.245999 15.284C 11.23061 15.45685 11.237668 15.630964 11.266999 15.802C 10.4869995 16.674 10.716999 16.827 9.157 17.148C 7.5789995 17.473001 8.507 18.052 9.111 18.204C 9.845 18.388 11.543 18.648 12.691 17.042L12.691 17.042L12.645 17.225C 12.951 17.470001 12.93 18.985 12.975 20.067001C 13.02 21.149002 13.091001 22.160002 13.312 22.755001C 13.533 23.35 13.792 24.885002 15.842 24.455002C 17.555 24.088001 18.865 23.559002 18.985 18.645002" stroke="#000000" stroke-width="2.149" fill="#000000" fill-rule="nonzero" />
        <path d="M23.535 15.6C 20.645 16.196001 20.435 15.217 20.435 15.217C 23.487999 10.687 24.765 4.9370003 23.663 3.5299997C 20.659 -0.31000018 15.458 1.5069997 15.371 1.5539998L15.371 1.5539998L15.343 1.5589998C 14.707743 1.4315357 14.06189 1.3642387 13.4140005 1.3579998C 12.106001 1.3379998 11.114 1.7009997 10.360001 2.2719998C 10.360001 2.2719998 1.0820007 -1.5500002 1.5140009 7.079C 1.6060009 8.915 4.144001 20.979 7.1740007 17.329C 8.29 15.987 9.36 14.86 9.36 14.86C 9.889999 15.212999 10.526999 15.393 11.193999 15.328L11.193999 15.328L11.245999 15.284C 11.230721 15.456852 11.23778 15.630952 11.266999 15.802C 10.4869995 16.674 10.716999 16.827 9.157 17.148C 7.5789995 17.473001 8.507 18.052 9.111 18.204C 9.845 18.388 11.543 18.648 12.691 17.042L12.691 17.042L12.645 17.225C 12.951 17.470001 13.165001 18.818 13.129001 20.04C 13.093 21.262001 13.069 22.1 13.309001 22.756C 13.549002 23.412 13.7890005 24.886002 15.839001 24.456001C 17.552 24.089 18.439001 23.136002 18.564001 21.550001C 18.652 20.422 18.85 20.588001 18.864 19.580002L18.864 19.580002L19.024 19.102001C 19.207 17.572 19.054 17.079 20.109001 17.309002L20.109001 17.309002L20.366001 17.332003C 21.143002 17.367002 22.160002 17.207003 22.756 16.930002C 24.041 16.334002 24.803001 15.338002 23.536001 15.600002L23.536001 15.600002L23.535 15.6z" stroke="none" fill="#336791" fill-rule="nonzero" />
		<g>
			<g>
                <path d="M12.814 16.467C 12.734 19.313 12.834001 22.178999 13.112 22.866999C 13.39 23.554998 13.987 24.916998 16.038 24.478998C 17.751 24.111998 18.375 23.401 18.645 21.831999L18.645 21.831999L19.278 16.814999zM10.356 2.2C 10.356 2.2 1.072 -1.596 1.504 7.033C 1.596 8.8689995 4.134 20.932999 7.1639996 17.283C 8.27 15.95 9.27 14.907 9.27 14.907M15.370001 1.507C 15.050001 1.607 20.534 -0.49800014 23.652 3.4850001C 24.752 4.892 23.477001 10.642 20.424 15.172001" stroke="#FFFFFF" stroke-width="0.716" fill="none" />
                <path d="M20.425 15.17C 20.425 15.17 20.625 16.15 23.525 15.552C 24.792 15.29 24.029 16.286 22.744999 16.882C 21.690998 17.372 19.327 17.497 19.287998 16.822C 19.187998 15.077001 20.531998 15.607 20.434998 15.17C 20.346998 14.776 19.744997 14.39 19.348997 13.426001C 19.001997 12.586 14.588997 6.1360006 20.572998 7.0930004C 20.792997 7.0480003 19.012999 1.3930006 13.412998 1.3110003C 7.812998 1.2290001 7.99 8.196 7.99 8.196" stroke="#FFFFFF" stroke-width="0.716" fill="none" />
			</g>
			<g>
                <path d="M11.247 15.768C 10.467 16.64 10.697 16.793 9.137 17.114C 7.559 17.439001 8.487 18.018 9.091001 18.17C 9.825001 18.354 11.523001 18.614 12.6710005 17.007C 13.021001 16.517 12.669001 15.7369995 12.189 15.539C 11.957 15.443 11.647 15.323 11.249001 15.768999L11.249001 15.768999L11.247 15.768z" stroke="#FFFFFF" stroke-width="0.716" fill="none" />
                <path d="M11.196 15.753C 11.116 15.24 11.364 14.6310005 11.629 13.917C 12.026999 12.847 12.945 11.776999 12.2109995 8.379999C 11.664 5.8499994 7.9909997 7.852999 7.9909997 8.195999C 7.9909997 8.539 8.157 9.935999 7.9309998 11.560999C 7.634 13.682999 9.281 15.476999 11.177 15.293999" stroke="#FFFFFF" stroke-width="0.716" stroke-linecap="square" fill="none" />
			</g>
		</g>
		<g>
            <path d="M10.322 8.145C 10.304999 8.262 10.537 8.575001 10.837999 8.617001C 11.138999 8.659 11.395999 8.415001 11.412999 8.297001C 11.429999 8.179001 11.197999 8.051001 10.896999 8.009001C 10.596 7.967001 10.336999 8.029001 10.322 8.145z" stroke="#FFFFFF" stroke-width="0.239" fill="#FFFFFF" fill-rule="nonzero" />
            <path d="M19.486 7.906C 19.502 8.023 19.271 8.336 18.97 8.378C 18.668999 8.42 18.41 8.176001 18.394999 8.058001C 18.379997 7.9400005 18.609999 7.8120008 18.911 7.7700005C 19.212 7.728 19.470999 7.7900004 19.486 7.9060006L19.486 7.9060006L19.486 7.906z" stroke="#FFFFFF" stroke-width="0.119" fill="#FFFFFF" fill-rule="nonzero" />
		</g>
        <path d="M20.562 7.095C 20.612 8.014999 20.364 8.639999 20.332 9.6189995C 20.286001 11.040999 21.01 12.669 19.919 14.299" stroke="#FFFFFF" stroke-width="0.716" stroke-linecap="square" fill="none" />
	</g>
</g>
</svg>