<?xml version="1.0" standalone="no"?>
<!DOCTYPE svg PUBLIC "-//W3C//DTD SVG 1.0//EN" "http://www.w3.org/TR/2001/REC-SVG-20010904/DTD/svg10.dtd">
<svg xmlns="http://www.w3.org/2000/svg" xmlns:xlink="http://www.w3.org/1999/xlink" id="body_1" width="614" height="461">

<g transform="matrix(0.9003906 0 0 0.9003906 76.500015 9.003906)">
	<g>
        <path d="M0 247L0 400L100 400L200 400L200 247L200 94L100 94L0 94L0 247zM148.4 170.586C 171.974 175.065 187.6 193.695 187.6 217.323C 187.6 224.124 187.343 225.828 185.298 232.6C 183.019 240.144 175.198 250.726 168.6 255.193C 167.5 255.938 166.51 256.649 166.4 256.774C 165.65 257.622 159.037 260.817 155.8 261.894C 148.733 264.246 147.255 264.4 131.772 264.4L131.772 264.4L117.605 264.4L117.503 293.9L117.4 323.4L105.5 323.506L93.6 323.612L93.6 246.806L93.6 170L119.5 170.008C 140.22 170.014 146 170.13 148.4 170.586M117.6 217.2L117.6 240.431L130.5 240.266C 142.936 240.106 145.679 239.936 147.4 239.216C 147.84 239.031 148.801 238.654 149.536 238.377C 161.688 233.794 167.133 218.731 161.024 206.6C 158.779 202.143 153.867 197.599 149.6 196.033C 148.83 195.751 147.84 195.37 147.4 195.187C 145.575 194.429 143.184 194.277 130.7 194.127L130.7 194.127L117.6 193.969L117.6 217.2" stroke="none" fill="#0444A4" fill-rule="nonzero" />
        <path d="M0 46.796L0 93.6L200 93.6L400 93.6L400 58.4L400 23.2L300.2 23.2C 233.933 23.2 200.4 23.066 200.4 22.8C 200.4 22.58 200.04 22.4 199.6 22.4C 199.16 22.4 198.8 22.22 198.8 22C 198.8 21.78 198.44 21.6 198 21.6C 197.56 21.6 197.2 21.42 197.2 21.2C 197.2 20.98 196.84 20.8 196.4 20.8C 195.96 20.8 195.6 20.62 195.6 20.4C 195.6 20.18 195.24 20 194.8 20C 194.36 20 194 19.82 194 19.6C 194 19.38 193.64 19.2 193.2 19.2C 192.76 19.2 192.4 19.054 192.4 18.875C 192.4 18.696 191.77 18.302 191 18C 190.23 17.698 189.6 17.304 189.6 17.125C 189.6 16.946 189.366 16.8 189.08 16.8C 188.344 16.8 186.407 15.859 186.403 15.5C 186.401 15.335 186.04 15.2 185.6 15.2C 185.16 15.2 184.8 15.02 184.8 14.8C 184.8 14.58 184.575 14.399 184.3 14.398C 184.025 14.397 181.775 13.407 179.299 12.198C 176.824 10.989 174.544 10 174.233 10C 173.921 10 173.607 9.861 173.533 9.691C 173.46 9.521 171.42 8.427 169 7.26C 166.58 6.092 163.575 4.611 162.322 3.969C 161.069 3.326 159.764 2.8 159.422 2.8C 159.08 2.8 158.8 2.62 158.8 2.4C 158.8 2.18 158.53 2 158.2 2C 157.87 2 157.6 1.82 157.6 1.6C 157.6 1.38 157.255 1.2 156.833 1.2C 156.412 1.2 155.992 0.975 155.9 0.7C 155.768 0.303 139.73 0.179 77.867 0.096L77.867 0.096L0 -0.008L0 46.796zM117 58.6L117 70.2L105.5 70.306L94 70.412L94 58.6L94 46.788L105.5 46.894L117 47L117 58.6zM70 58.6L70 70L58.6 70L47.2 70L47.2 58.6L47.2 47.2L58.6 47.2L70 47.2L70 58.6zM164 58.6L164 70L152.4 70L140.8 70L140.8 58.6L140.8 47.2L152.4 47.2L164 47.2L164 58.6" stroke="none" fill="#D1E5EA" fill-rule="nonzero" />
        <path d="M94 58.6L94 70.412L105.5 70.306L117 70.2L117 58.6L117 47L105.5 46.894L94 46.788L94 58.6zM47.2 58.6L47.2 70L58.6 70L70 70L70 58.6L70 47.2L58.6 47.2L47.2 47.2L47.2 58.6zM287.6 204.803L287.6 240.006L264.1 239.903L240.6 239.8L240.498 205.5L240.396 171.2L228.798 171.2L217.2 171.2L217.2 217.2L217.2 263.2L234.8 263.2L252.4 263.2L252.4 293.6L252.4 324L263.997 324L275.595 324L275.697 293.7L275.8 263.4L293.3 263.296L310.8 263.192L310.8 216.396L310.8 169.6L299.2 169.6L287.6 169.6L287.6 204.803zM94 246.8L94 323.2L105.6 323.2L117.2 323.2L117.2 293.623L117.2 264.047L131.3 263.861C 147.17 263.653 150.101 263.337 155.8 261.221C 157.12 260.731 158.56 260.224 159 260.094C 162.05 259.195 169.154 254.35 173.189 250.418C 196.056 228.132 189.878 189.46 161.2 175.378C 151.911 170.817 148.68 170.444 118.3 170.419L118.3 170.419L94 170.4L94 246.8zM145.754 194.044C 161.46 198.28 169.564 216.627 161.132 228.862C 160.729 229.446 160.4 230.029 160.4 230.157C 160.4 230.825 156.855 234.547 154.6 236.246C 149.205 240.311 146.627 240.8 130.58 240.8L130.58 240.8L117.2 240.8L117.2 217.2L117.2 193.6L130.654 193.6C 139.257 193.6 144.701 193.76 145.754 194.044" stroke="none" fill="#F7D830" fill-rule="nonzero" />
        <path d="M200 247L200 400L300 400L400 400L400 247L400 94L300 94L200 94L200 247zM311.102 216.5L311.203 263.6L293.602 263.6L276 263.6L276 294L276 324.4L264 324.4L252 324.4L252 294.004L252 263.608L234.5 263.504L217 263.4L216.89 217.8C 216.83 192.72 216.879 171.792 216.999 171.294L216.999 171.294L217.218 170.388L228.909 170.494L240.6 170.6L240.702 205.1L240.804 239.6L264.002 239.6L287.2 239.6L287.2 204.667C 287.2 185.453 287.323 169.611 287.473 169.461C 287.623 169.311 292.978 169.236 299.373 169.294L299.373 169.294L311 169.4L311.102 216.5" stroke="none" fill="#042C5C" fill-rule="nonzero" />
        <path d="M140.8 58.6L140.8 70L152.4 70L164 70L164 58.6L164 47.2L152.4 47.2L140.8 47.2L140.8 58.6zM93.798 246.8L93.8 323.4L105.4 323.409L117 323.418L105.501 323.303L94.002 323.188L93.899 246.694L93.797 170.2L93.798 246.8zM145.2 170.82C 147.75 171.274 150.021 171.236 147.8 170.777C 146.92 170.595 145.57 170.458 144.8 170.473C 143.495 170.498 143.522 170.522 145.2 170.82M150.4 171.6C 150.73 171.813 151.36 171.978 151.8 171.966L151.8 171.966L152.6 171.944L151.8 171.6C 150.604 171.086 149.605 171.086 150.4 171.6M153.4 172.4C 153.84 172.589 154.47 172.744 154.8 172.744C 155.178 172.744 155.104 172.617 154.6 172.4C 154.16 172.211 153.53 172.056 153.2 172.056C 152.822 172.056 152.896 172.183 153.4 172.4M158 173.789C 158 174.106 160.9 175.233 161.128 175.005C 161.241 174.892 161.235 174.8 161.116 174.8C 160.996 174.8 160.246 174.528 159.449 174.195C 158.652 173.862 158 173.679 158 173.789M162.4 175.967C 162.95 176.415 163.551 176.786 163.735 176.791C 167.256 176.885 178.255 188.567 182.287 196.496C 183.435 198.753 184.38 200.412 184.387 200.182C 184.416 199.265 180.825 192.724 178.584 189.612C 174.803 184.36 167.868 178.307 162.8 175.835L162.8 175.835L161.4 175.152L162.4 175.967zM131.2 194.004C 140.528 194.157 145.871 194.4 146.774 194.712C 147.529 194.973 148.23 195.104 148.331 195.003C 148.432 194.902 148.264 194.745 147.957 194.655C 144.682 193.693 143.129 193.606 130.554 193.686L130.554 193.686L117 193.771L131.2 194.004zM152.6 197.254C 153.7 197.936 155.005 198.864 155.5 199.316C 155.995 199.769 156.396 199.973 156.391 199.77C 156.378 199.189 151.661 195.983 150.854 196.008C 150.714 196.012 151.5 196.573 152.6 197.254M156.8 200.121C 156.8 200.293 157.178 200.831 157.64 201.317C 160.017 203.817 163.159 209.686 163.228 211.753C 163.244 212.219 163.426 212.96 163.632 213.4C 164.372 214.973 163.587 211.054 162.711 208.8C 161.562 205.844 156.8 198.852 156.8 200.121M184.412 201.2C 184.412 201.53 184.587 202.07 184.8 202.4C 185.145 202.933 185.188 202.933 185.188 202.4C 185.188 202.07 185.013 201.53 184.8 201.2C 184.455 200.667 184.412 200.667 184.412 201.2M185.209 203.433C 185.229 204.247 186.73 209.351 186.764 208.72C 186.805 207.944 185.719 203.585 185.406 203.273C 185.293 203.159 185.204 203.232 185.209 203.433M187 217.2C 187 221.465 187.114 224.425 187.253 223.777C 187.392 223.13 187.505 220.17 187.505 217.2C 187.505 214.23 187.392 211.27 187.253 210.623C 187.114 209.975 187 212.935 187 217.2M164.134 217.2C 164.134 218.85 164.205 219.525 164.291 218.7C 164.378 217.875 164.378 216.525 164.291 215.7C 164.205 214.875 164.134 215.55 164.134 217.2M163.393 221.9C 163.259 222.725 162.981 223.813 162.775 224.319C 162.188 225.757 162.367 226.348 162.97 224.963C 163.573 223.577 164.188 220.4 163.853 220.4C 163.734 220.4 163.527 221.075 163.393 221.9M186.096 227.248C 185.818 228.431 185.477 229.85 185.337 230.4C 185.197 230.95 185.201 231.292 185.347 231.161C 185.736 230.809 186.849 226.345 186.715 225.672C 186.652 225.355 186.373 226.064 186.096 227.248M161.719 227.1C 160.802 229.605 156.749 234.367 153.892 236.298C 153.062 236.859 152.469 237.402 152.573 237.507C 153.116 238.049 160.4 231.209 160.4 230.157C 160.4 230.029 160.731 229.446 161.135 228.862C 161.941 227.696 162.489 226.4 162.175 226.4C 162.065 226.4 161.86 226.715 161.719 227.1M184.6 232.4C 184.45 232.873 184.417 233.35 184.527 233.46C 184.637 233.57 184.85 233.273 185 232.8C 185.15 232.327 185.183 231.85 185.073 231.74C 184.963 231.63 184.75 231.927 184.6 232.4M182.272 237.933C 178.737 245.139 173.14 251.484 166.422 255.904C 164.502 257.167 162.587 258.428 162.166 258.706C 161.745 258.984 162.03 258.912 162.8 258.547C 170.401 254.939 179.406 245.431 183.248 236.957C 185.092 232.891 184.414 233.57 182.272 237.933M147.8 239.328C 145.583 240.112 144.315 240.194 131.2 240.403L131.2 240.403L117 240.629L130.48 240.714C 141 240.781 144.427 240.677 146.08 240.238C 148.632 239.562 150.4 238.896 150.4 238.61C 150.4 238.494 150.355 238.418 150.3 238.44C 150.245 238.462 149.12 238.862 147.8 239.328M158 260.374C 157.67 260.566 156.418 261.043 155.218 261.434C 154.018 261.825 153.23 262.21 153.466 262.289C 153.703 262.368 155.225 261.894 156.848 261.237C 158.472 260.579 159.53 260.038 159.2 260.033C 158.87 260.028 158.33 260.181 158 260.374M150.4 262.8C 149.605 263.314 150.604 263.314 151.8 262.8L151.8 262.8L152.6 262.456L151.8 262.434C 151.36 262.422 150.73 262.587 150.4 262.8M145 263.6L143.8 263.905L145 263.93C 145.66 263.943 146.92 263.805 147.8 263.623L147.8 263.623L149.4 263.292L147.8 263.293C 146.92 263.294 145.66 263.432 145 263.6" stroke="none" fill="#6C8480" fill-rule="nonzero" />
        <path d="M99.9 93.9C 154.955 93.956 245.045 93.956 300.1 93.9C 355.155 93.844 310.11 93.798 200 93.798C 89.89 93.798 44.845 93.844 99.9 93.9M106.7 170.3C 114.015 170.361 125.985 170.361 133.3 170.3C 140.615 170.239 134.63 170.189 120 170.189C 105.37 170.189 99.385 170.239 106.7 170.3M149.233 170.943C 149.325 171.021 150.03 171.201 150.8 171.342C 151.785 171.523 152.022 171.482 151.6 171.206C 151.058 170.85 148.837 170.603 149.233 170.943M152.433 171.744C 152.525 171.823 153.14 172.008 153.8 172.156C 154.676 172.352 154.838 172.315 154.4 172.018C 153.86 171.653 152.032 171.398 152.433 171.744M165.6 177.354C 165.6 177.439 166.095 177.827 166.7 178.216L166.7 178.216L167.8 178.924L167.038 178.062C 166.364 177.299 165.6 176.923 165.6 177.354M171.241 181.7C 171.337 181.755 172.312 182.61 173.407 183.6L173.407 183.6L175.4 185.4L173.617 183.5C 172.636 182.455 171.661 181.6 171.45 181.6C 171.239 181.6 171.145 181.645 171.241 181.7M177.775 188.532C 178.391 189.339 178.976 190 179.075 190C 179.353 190 177.621 187.66 177.109 187.344C 176.859 187.189 177.159 187.724 177.775 188.532M117.387 217.2C 117.387 230.07 117.438 235.335 117.5 228.9C 117.562 222.465 117.562 211.935 117.5 205.5C 117.438 199.065 117.387 204.33 117.387 217.2M143.8 194.4C 144.24 194.589 144.96 194.738 145.4 194.732C 146.043 194.723 146.004 194.657 145.2 194.4C 143.832 193.962 142.781 193.962 143.8 194.4M152.4 197.302C 152.906 197.833 156.435 200.4 156.658 200.4C 157 200.4 153.999 198.028 153 197.508C 152.56 197.279 152.29 197.186 152.4 197.302M163.275 213.4C 163.286 213.84 163.432 214.74 163.6 215.4L163.6 215.4L163.905 216.6L163.925 215.4C 163.935 214.74 163.789 213.84 163.6 213.4L163.6 213.4L163.256 212.6L163.275 213.4zM163.454 219.554C 163.3 220.518 163.258 221.391 163.361 221.494C 163.63 221.763 164.115 218.945 163.907 218.322C 163.812 218.036 163.608 218.59 163.454 219.554M184.267 234.467C 183.905 235.388 183.674 236.207 183.754 236.288C 183.834 236.368 184.2 235.683 184.567 234.767C 184.933 233.85 185.164 233.031 185.079 232.946C 184.994 232.861 184.629 233.545 184.267 234.467M154.859 235.18C 154.121 235.811 152.501 236.879 151.259 237.553C 150.016 238.227 149.191 238.783 149.424 238.789C 150.067 238.806 154.468 236.086 155.591 234.978C 156.934 233.652 156.507 233.77 154.859 235.18M143.4 240L142.6 240.344L143.4 240.332C 143.84 240.326 144.65 240.176 145.2 240L145.2 240L146.2 239.68L145.2 239.668C 144.65 239.662 143.84 239.811 143.4 240M173.123 251.009C 172.091 251.994 171.379 252.8 171.54 252.8C 171.701 252.8 172.628 251.99 173.6 251C 175.877 248.68 175.558 248.686 173.123 251.009M150.2 263.2C 149.093 263.482 149.077 263.509 150 263.547C 150.55 263.569 151.27 263.413 151.6 263.2C 152.281 262.76 151.929 262.76 150.2 263.2M132.2 263.993L117.4 264.2L117.396 293.7L117.392 323.2L117.499 293.8L117.605 264.4L132.103 264.36C 140.076 264.338 147.05 264.176 147.6 264C 148.321 263.769 148.377 263.694 147.8 263.732C 147.36 263.761 140.34 263.879 132.2 263.993" stroke="none" fill="#517588" fill-rule="nonzero" />
        <path d="M287.473 169.461C 287.323 169.611 287.2 185.453 287.2 204.667L287.2 204.667L287.2 239.6L264.002 239.6L240.804 239.6L240.702 205.1L240.6 170.6L228.909 170.494L217.218 170.388L216.999 171.294C 216.879 171.792 216.83 192.72 216.89 217.8L216.89 217.8L217 263.4L234.5 263.504L252 263.608L252 294.004L252 324.4L264 324.4L276 324.4L276 294L276 263.6L293.602 263.6L311.203 263.6L311.102 216.5L311 169.4L299.373 169.294C 292.978 169.236 287.623 169.311 287.473 169.461M310.8 216.396L310.8 263.192L293.3 263.296L275.8 263.4L275.697 293.7L275.595 324L263.997 324L252.4 324L252.4 293.6L252.4 263.2L234.8 263.2L217.2 263.2L217.2 217.2L217.2 171.2L228.798 171.2L240.396 171.2L240.498 205.5L240.6 239.8L264.1 239.903L287.6 240.006L287.6 204.803L287.6 169.6L299.2 169.6L310.8 169.6L310.8 216.396" stroke="none" fill="#4C5C3C" fill-rule="nonzero" />
	</g>
</g>
</svg>