<?xml version="1.0" standalone="no"?>
<!DOCTYPE svg PUBLIC "-//W3C//DTD SVG 1.0//EN" "http://www.w3.org/TR/2001/REC-SVG-20010904/DTD/svg10.dtd">
<svg xmlns="http://www.w3.org/2000/svg" xmlns:xlink="http://www.w3.org/1999/xlink" id="body_1" width="614" height="461">

<g transform="matrix(0.9003906 0 0 0.9003906 99.00978 9.003906)">
	<g>
        <path d="M71.2 199.999L71.2 297.6L134 297.6C 168.54 297.6 196.8 297.493 196.8 297.362C 196.8 297.231 196.473 296.646 196.073 296.062C 193.813 292.761 190.279 284.114 189.14 279.1L189.14 279.1L188.618 276.8L181.896 276.8C 176.86 276.8 175.14 276.675 175.035 276.3C 173.315 270.136 173.685 249.627 175.544 248.1C 175.974 247.747 177.997 247.6 182.415 247.6L182.415 247.6L188.677 247.6L189.301 244.9C 190.436 239.982 193.225 233.205 196.009 228.6C 196.674 227.5 197.33 226.358 197.466 226.063C 197.623 225.723 195.975 223.783 192.981 220.781L192.981 220.781L188.247 216.035L189.224 214.67C 194.169 207.756 206.299 196.016 208.508 196.004C 208.898 196.002 210.451 197.215 211.959 198.7C 213.467 200.185 215.525 202.194 216.532 203.165L216.532 203.165L218.363 204.931L219.913 203.905C 222.466 202.216 228.749 199.35 232.8 198.027C 238.856 196.049 239.023 196 239.719 196C 240.305 196 240.394 195.211 240.491 189.101L240.491 189.101L240.6 182.203L243 181.801C 246.39 181.234 267.098 181.325 268.49 181.913L268.49 181.913L269.581 182.373L269.69 189.024L269.8 195.675L271.4 196.232C 272.28 196.538 273.369 196.791 273.82 196.794C 274.271 196.797 274.811 196.95 275.02 197.133C 275.229 197.315 276.21 197.689 277.2 197.962C 279.437 198.58 287.352 202.039 287.533 202.477C 287.607 202.655 287.877 202.804 288.133 202.809C 288.39 202.814 289.05 203.17 289.6 203.6C 291.175 204.832 291.497 204.657 296.218 200C 298.67 197.58 300.858 195.6 301.079 195.6C 302.949 195.6 312.63 204.459 318.685 211.711C 322.355 216.107 322.454 215.662 316.521 221.4L316.521 221.4L312.385 225.4L313.19 226.8C 313.633 227.57 314.309 228.875 314.692 229.7C 315.075 230.525 315.526 231.2 315.694 231.2C 315.862 231.2 316 231.465 316 231.788C 316 232.111 316.342 232.985 316.76 233.729C 317.79 235.563 319.515 240.314 320.562 244.2L320.562 244.2L321.424 247.4L325.012 247.4L328.6 247.4L328.701 175.1C 328.768 126.969 328.668 102.8 328.401 102.8C 328.142 102.8 328 107.111 328 115L328 115L328 127.2L264.206 127.2L200.412 127.2L200.306 114.9L200.2 102.6L135.7 102.499L71.2 102.398L71.2 199.999zM89.633 108.66C 93.45 110.187 94.857 115.101 92.514 118.715C 90.622 121.633 87.21 122.657 84.215 121.207C 76.009 117.235 81.173 105.275 89.633 108.66M111.845 109.407C 115.869 112.476 115.369 118.865 110.936 121.022C 105.166 123.83 98.953 118.091 101.508 112.316C 103.327 108.203 108.396 106.776 111.845 109.407M132.398 109.199C 137.939 113.144 135.515 121.695 128.836 121.763C 122.233 121.831 119.263 113.407 124.5 109.461C 126.743 107.771 130.23 107.655 132.398 109.199M107.102 141.034C 109.59 141.743 113.784 143.589 114.883 144.459C 115.515 144.959 115.429 145.272 113.744 148.6C 111.351 153.329 111.71 153.143 108.117 151.51C 101.349 148.436 95.781 148.546 94.972 151.771C 94.491 153.687 98.374 156.8 101.244 156.8C 103.783 156.8 111.764 160.545 114.011 162.79C 117.928 166.705 117.895 174.48 113.943 178.97C 108.678 184.951 95.296 185.232 84.468 179.589C 82.361 178.49 82.372 178.14 84.655 173.759C 86.934 169.388 87.001 169.311 87.891 170.042C 92.734 174.024 103.165 175.606 105.342 172.69C 106.897 170.607 105.091 168.804 99.87 167.224C 87.645 163.526 84.398 160.665 84.408 153.6C 84.423 143.411 94.965 137.574 107.102 141.034M147.2 141.291C 150.924 142.73 154.213 145.275 156.387 148.4C 156.923 149.17 157.46 149.89 157.581 150C 157.701 150.11 158.13 150.912 158.532 151.782C 162.206 159.714 161.621 167.59 156.802 175.076C 156.244 175.941 158.287 178.922 161.325 181.679C 162.636 182.868 161.755 183.2 157.295 183.2C 153.11 183.2 153.017 183.18 151.803 182.003L151.803 182.003L150.569 180.807L147.584 182.062C 133.224 188.104 117.907 174.839 120.299 158.431C 122.223 145.229 135.498 136.77 147.2 141.291M176.704 157.3L176.809 174L186.504 174.006C 198.158 174.013 197.259 173.604 197.115 178.833L197.115 178.833L197 183L181.8 183L166.6 183L166.496 162.2C 166.439 150.76 166.48 141.169 166.588 140.888C 166.736 140.501 167.988 140.403 171.692 140.488L171.692 140.488L176.6 140.6L176.704 157.3zM137.483 149.813C 127.663 153.417 128.563 172.164 138.645 174.048C 140.729 174.437 143.6 174.111 143.6 173.486C 143.6 173.259 142.311 171.646 140.735 169.901C 137.32 166.119 137.377 166.015 142.869 166.006C 146.434 166 146.834 166.08 147.946 167.016L147.946 167.016L149.154 168.033L149.67 167.116C 150.621 165.426 150.299 157.768 149.178 155.415C 146.78 150.382 142.074 148.128 137.483 149.813M246.358 234.148C 241.652 235.695 236.378 238.91 233.864 241.764C 233.459 242.224 232.603 243.181 231.961 243.892C 230.774 245.207 229.701 246.934 228.288 249.8C 227.855 250.68 227.342 251.713 227.15 252.095C 226.957 252.477 226.8 253.231 226.8 253.771C 226.8 254.311 226.642 254.851 226.449 254.97C 225.26 255.705 225.27 265.329 226.464 269.8C 228.765 278.417 238.914 289.6 244.433 289.6C 244.829 289.6 245.264 289.78 245.4 290C 245.536 290.22 246.051 290.4 246.544 290.4C 247.037 290.4 247.652 290.612 247.912 290.872C 248.549 291.509 261.307 291.48 261.519 290.842C 261.6 290.599 262.181 290.4 262.81 290.4C 263.438 290.4 264.064 290.22 264.2 290C 264.336 289.78 264.799 289.6 265.229 289.6C 265.928 289.6 267.469 288.932 268 288.399C 268.11 288.289 268.74 287.931 269.4 287.604C 280.009 282.35 286.296 267.76 283.217 255.543C 282.243 251.678 280.464 247.2 279.902 247.2C 279.736 247.2 279.6 246.973 279.6 246.696C 279.6 245.86 276.122 241.961 272.966 239.259C 271.175 237.726 266.257 235.191 263.6 234.431C 262.61 234.148 261.387 233.755 260.881 233.558C 258.97 232.813 249.215 233.209 246.358 234.148M321.033 278.5C 320.696 280.621 318.625 286.885 317.582 288.938C 317.152 289.784 316.8 290.729 316.8 291.038C 316.8 291.347 316.62 291.6 316.4 291.6C 316.18 291.6 316 291.924 316 292.32C 316 292.716 315.837 293.211 315.638 293.42C 315.092 293.992 313.6 296.769 313.6 297.212C 313.6 297.449 316.559 297.6 321.2 297.6L321.2 297.6L328.8 297.6L328.8 287.2L328.8 276.8L325.051 276.8L321.302 276.8L321.033 278.5" stroke="none" fill="#ECECEC" fill-rule="nonzero" />
        <path d="M94.6 141.302C 86.981 143.949 83.137 151.027 85.523 158.015C 86.058 159.581 88.579 162.4 89.446 162.4C 89.751 162.4 90 162.567 90 162.771C 90 162.975 91.035 163.52 92.3 163.982C 93.565 164.443 94.96 164.977 95.4 165.168C 95.84 165.359 97.754 165.989 99.653 166.567C 104.198 167.951 106.4 169.515 106.4 171.358C 106.4 174.09 103.233 175.714 99.561 174.867C 98.449 174.61 97.023 174.4 96.393 174.4C 95.763 174.4 95.136 174.22 95 174C 94.864 173.78 94.324 173.6 93.8 173.6C 93.276 173.6 92.736 173.42 92.6 173.2C 92.464 172.98 92.101 172.8 91.794 172.8C 91.487 172.8 90.339 172.272 89.245 171.626C 86.926 170.259 87.133 170.117 84.878 174.628C 83.059 178.266 83.058 178.26 85.8 179.556C 96.414 184.573 108.712 184.169 113.437 178.648C 118.445 172.798 116.837 163.595 110.3 160.693C 109.695 160.424 109.2 160.069 109.2 159.902C 109.2 159.736 108.761 159.6 108.224 159.6C 107.687 159.6 107.136 159.42 107 159.2C 106.864 158.98 106.324 158.8 105.8 158.8C 105.276 158.8 104.736 158.62 104.6 158.4C 104.464 158.18 103.834 158 103.2 158C 102.566 158 101.936 157.82 101.8 157.6C 101.664 157.38 101.124 157.2 100.6 157.2C 100.076 157.2 99.536 157.02 99.4 156.8C 99.264 156.58 98.754 156.4 98.268 156.4C 95.322 156.4 93.25 152.005 95.3 150.105C 97.691 147.89 104.363 148.457 109 151.269C 110.743 152.326 111.328 152.181 112.101 150.5C 112.48 149.675 113.242 148.23 113.795 147.289C 115.065 145.127 115.055 144.98 113.6 144.336C 112.94 144.044 112.4 143.669 112.4 143.502C 112.4 143.336 112.128 143.2 111.795 143.2C 111.462 143.2 110.787 142.992 110.295 142.738C 108.318 141.716 107.965 141.6 106.829 141.6C 106.179 141.6 105.536 141.42 105.4 141.2C 105.074 140.673 96.169 140.757 94.6 141.302M135.8 141.2C 135.664 141.42 135.248 141.597 134.876 141.594C 130.967 141.561 124.379 148.17 121.711 154.8C 120.239 158.458 120.232 165.144 121.697 168.77C 124.549 175.83 128.358 179.825 134.241 181.928C 138.687 183.517 146.527 182.881 148.98 180.733C 149.74 180.067 151.076 180.427 152.2 181.6C 153.316 182.765 153.458 182.8 157.075 182.8C 161.357 182.8 161.609 182.533 159.365 180.378C 155.621 176.783 155.049 174.925 157.156 173.2C 157.729 172.73 159.2 169.451 159.2 168.642C 159.2 168.157 159.399 167.561 159.643 167.317C 159.92 167.04 160.086 164.977 160.086 161.8C 160.086 158.623 159.92 156.56 159.643 156.283C 159.399 156.039 159.2 155.534 159.2 155.161C 159.2 152.501 153.396 144.896 150.3 143.501C 149.695 143.228 149.2 142.869 149.2 142.702C 149.2 142.536 148.928 142.4 148.595 142.4C 148.262 142.4 147.632 142.22 147.195 142C 146.758 141.78 146.042 141.42 145.605 141.2C 145.168 140.98 142.839 140.8 140.429 140.8C 137.939 140.8 135.94 140.973 135.8 141.2M167.2 161.792L167.2 182.81L181.9 182.705L196.6 182.6L196.6 178.8L196.6 175L186.504 174.893L176.409 174.786L176.304 157.893L176.2 141L171.7 140.887L167.2 140.774L167.2 161.792zM142.8 149.007C 148.684 150.058 152.561 158.972 150.423 166.536C 149.759 168.885 149.118 169.213 147.913 167.82C 147.023 166.792 146.896 166.768 142.945 166.882L142.945 166.882L138.889 167L141.466 169.8C 144.507 173.104 145.054 173.943 144.317 174.176C 140.955 175.239 140.747 175.261 138.69 174.75C 127.206 171.903 126.881 152.016 138.269 148.977C 139.331 148.693 140.47 148.528 140.8 148.609C 141.13 148.691 142.03 148.87 142.8 149.007M252 181.618C 250.79 181.798 247.938 182.137 245.661 182.373C 243.385 182.608 241.36 182.901 241.161 183.024C 240.963 183.147 240.8 186.193 240.8 189.793L240.8 189.793L240.8 196.338L239.3 196.785C 238.475 197.032 237.08 197.427 236.2 197.663C 232.228 198.732 225.25 201.587 222.244 203.375C 217.614 206.128 218.597 206.383 213.238 201.038L213.238 201.038L208.511 196.323L205.97 198.255C 201.101 201.958 195.589 207.367 192.2 211.767C 191.54 212.624 190.595 213.818 190.1 214.42C 188.849 215.943 188.701 215.687 193.794 220.794C 198.918 225.931 198.639 225.1 196.5 228.845C 195.301 230.947 195.021 231.501 193.6 234.6C 192.894 236.14 192.155 237.713 191.958 238.095C 191.761 238.477 191.6 239.116 191.6 239.515C 191.6 239.914 191.451 240.411 191.27 240.62C 191.088 240.829 190.741 241.72 190.499 242.6C 190.257 243.48 189.8 245.1 189.482 246.2L189.482 246.2L188.905 248.2L182.952 248.297C 174.883 248.428 175.355 248.238 174.993 251.496C 174.244 258.234 174.774 275.457 175.75 276.094C 175.997 276.256 179.086 276.391 182.613 276.394L182.613 276.394L189.025 276.4L189.529 278.3C 190.199 280.822 191.557 285.201 191.98 286.2C 194.175 291.385 194.811 292.738 196.06 294.881C 198.27 298.671 198.222 298.82 193.219 303.793C 190.789 306.209 188.8 308.39 188.8 308.639C 188.8 310.896 206.375 328.4 208.641 328.4C 208.845 328.4 210.938 326.42 213.292 324C 217.852 319.314 218.225 319.128 220.4 320.461C 224.835 323.178 231.134 325.859 236.764 327.424C 240.976 328.595 240.787 328.209 240.794 335.655L240.794 335.655L240.8 341.911L242.1 342.149C 248.543 343.327 261.458 343.408 266.9 342.306L266.9 342.306L269.2 341.84L269.2 335.694C 269.2 328.898 269.432 328 271.19 328C 271.83 328 272.464 327.82 272.6 327.6C 272.736 327.38 273.242 327.199 273.724 327.198C 275.583 327.194 283.341 323.944 288.914 320.834C 291.749 319.252 291.08 318.957 296.34 324.1C 298.76 326.465 300.946 328.4 301.199 328.4C 303.531 328.4 321.207 310.811 321.199 308.498C 321.199 308.334 319.127 306.143 316.595 303.628C 311.437 298.504 311.589 299.017 314.029 295C 314.893 293.578 315.6 292.326 315.6 292.217C 315.6 292.109 316.14 290.841 316.8 289.4C 317.46 287.959 318 286.544 318 286.257C 318 285.969 318.135 285.6 318.3 285.437C 318.465 285.274 319.15 283.219 319.821 280.87L319.821 280.87L321.043 276.6L327.905 276.491L334.767 276.381L334.95 275.091C 336.299 265.579 336.26 255.404 334.853 249.4L334.853 249.4L334.571 248.2L327.818 248L321.065 247.8L320.77 246.8C 318.054 237.606 316.88 234.744 312.879 227.571L312.879 227.571L311.636 225.342L316.218 220.799C 318.738 218.301 320.8 216.037 320.8 215.768C 320.8 213.465 303.545 196.4 301.217 196.4C 300.885 196.4 298.581 198.425 296.098 200.9L296.098 200.9L291.583 205.4L290.291 204.647C 284.521 201.282 276.936 198.124 270.8 196.534L270.8 196.534L269.4 196.171L269.29 189.726C 269.212 185.108 269.036 183.162 268.671 182.859C 267.618 181.985 255.564 181.087 252 181.618M257.159 232.629C 279.625 234.172 291.911 259.208 279.749 278.66C 278.141 281.232 273.047 286.322 270.964 287.438C 270.104 287.9 268.77 288.628 268 289.057C 267.23 289.486 265.79 290.074 264.8 290.364C 263.81 290.654 262.64 291.037 262.2 291.214C 259.254 292.403 247.312 292.352 246.567 291.147C 246.449 290.956 245.958 290.794 245.476 290.787C 244.682 290.776 241.773 289.475 239.202 287.98C 233.999 284.956 226.431 275.442 226.405 271.895C 226.402 271.507 226.232 270.877 226.027 270.495C 224.438 267.54 224.496 255.371 226.106 253.76C 226.268 253.599 226.4 253.134 226.4 252.728C 226.4 252.322 226.58 251.632 226.8 251.195C 227.02 250.758 227.348 250.085 227.529 249.7C 231.115 242.077 238.12 235.926 245.8 233.658C 249.023 232.706 252.745 232.037 253.559 232.264C 253.866 232.35 255.486 232.514 257.159 232.629" stroke="none" fill="#054465" fill-rule="nonzero" />
        <path d="M329.102 176.2L329 248L331.676 248C 334.826 248 334.81 247.982 335.268 251.957C 336.202 260.065 336.104 267.338 334.956 275.1L334.956 275.1L334.764 276.4L331.882 276.4L329 276.399L329.113 287.222L329.225 298.045L320.817 297.923C 312.634 297.803 312 297.878 312 298.965C 312 299.019 314.07 301.119 316.599 303.632C 319.129 306.144 321.199 308.334 321.199 308.498C 321.207 310.811 303.531 328.4 301.199 328.4C 300.946 328.4 298.76 326.465 296.34 324.1C 291.08 318.957 291.749 319.252 288.914 320.834C 283.341 323.944 275.583 327.194 273.724 327.198C 273.242 327.199 272.736 327.38 272.6 327.6C 272.464 327.82 271.83 328 271.19 328C 269.432 328 269.2 328.898 269.2 335.694L269.2 335.694L269.2 341.84L266.9 342.306C 261.458 343.408 248.543 343.327 242.1 342.149L242.1 342.149L240.8 341.911L240.794 335.655C 240.787 328.209 240.976 328.595 236.764 327.424C 231.134 325.859 224.835 323.178 220.4 320.461C 218.225 319.128 217.852 319.314 213.292 324C 210.938 326.42 208.845 328.4 208.641 328.4C 206.375 328.4 188.8 310.896 188.8 308.639C 188.8 308.39 190.785 306.209 193.212 303.793C 197.132 299.89 198.455 297.913 197.1 297.984C 196.935 297.993 168.865 298 134.722 298L134.722 298L72.643 298L122.222 347.559C 178.252 403.567 171.414 397.508 179 397.87C 181.103 397.971 182.766 398.241 183 398.521C 183.286 398.863 185.658 399 191.314 399C 197.689 399 199.297 399.11 199.577 399.563C 199.872 400.04 200.156 400.017 201.423 399.416C 202.733 398.794 203.834 398.726 210.194 398.869C 216.048 399.001 217.568 398.924 217.987 398.476C 218.37 398.066 219.333 397.958 221.652 398.063C 223.401 398.142 224.854 398.039 224.924 397.829C 224.993 397.622 226.208 397.426 227.625 397.394C 229.041 397.362 230.617 397.112 231.128 396.839C 231.638 396.566 232.659 396.423 233.396 396.523C 234.133 396.622 234.905 396.535 235.111 396.329C 235.317 396.123 236.411 395.948 237.542 395.939C 238.674 395.93 239.6 395.76 239.6 395.562C 239.6 395.363 240.32 395.2 241.2 395.2C 242.08 395.2 242.8 395.02 242.8 394.8C 242.8 394.58 243.509 394.4 244.376 394.4C 245.243 394.4 246.064 394.22 246.2 394C 246.336 393.78 247.146 393.6 248 393.6C 248.854 393.6 249.664 393.42 249.8 393.2C 249.936 392.98 250.476 392.8 251 392.8C 251.524 392.8 252.064 392.62 252.2 392.4C 252.336 392.18 253.067 392 253.824 392C 254.581 392 255.2 391.82 255.2 391.6C 255.2 391.38 255.729 391.2 256.376 391.2C 257.023 391.2 257.664 391.02 257.8 390.8C 257.936 390.58 258.566 390.4 259.2 390.4C 259.834 390.4 260.464 390.22 260.6 390C 260.736 389.78 261.276 389.6 261.8 389.6C 262.324 389.6 262.864 389.42 263 389.2C 263.136 388.98 263.599 388.8 264.029 388.8C 264.459 388.8 265.123 388.641 265.505 388.447C 265.887 388.252 266.74 387.871 267.4 387.6C 268.06 387.329 268.913 386.948 269.295 386.753C 269.677 386.559 270.352 386.4 270.795 386.4C 271.238 386.4 271.6 386.22 271.6 386C 271.6 385.78 271.949 385.6 272.376 385.6C 272.803 385.6 273.264 385.42 273.4 385.2C 273.536 384.98 274.087 384.8 274.624 384.8C 275.161 384.8 275.6 384.62 275.6 384.4C 275.6 384.18 275.881 384 276.225 384C 276.569 384 278.054 383.447 279.525 382.772C 280.996 382.097 282.74 381.309 283.4 381.022C 286.255 379.78 288.61 378.578 288.733 378.3C 288.807 378.135 289.212 378 289.633 378C 290.055 378 290.4 377.82 290.4 377.6C 290.4 377.38 290.76 377.2 291.2 377.2C 291.64 377.2 292 377.02 292 376.8C 292 376.58 292.36 376.4 292.8 376.4C 293.24 376.4 293.6 376.22 293.6 376C 293.6 375.78 293.96 375.6 294.4 375.6C 294.84 375.6 295.2 375.454 295.2 375.275C 295.2 375.096 295.83 374.702 296.6 374.4C 297.37 374.098 298 373.733 298 373.588C 298 373.444 298.855 372.892 299.9 372.363C 300.945 371.833 301.86 371.265 301.933 371.1C 302.007 370.935 302.412 370.8 302.833 370.8C 303.255 370.8 303.6 370.65 303.6 370.468C 303.6 370.285 304.095 369.88 304.7 369.568C 305.305 369.255 306.149 368.685 306.575 368.3C 307.002 367.915 307.587 367.6 307.875 367.6C 308.164 367.6 308.4 367.45 308.4 367.268C 308.4 367.085 308.895 366.68 309.5 366.368C 310.105 366.056 310.69 365.704 310.8 365.585C 310.974 365.396 315.781 362.125 317.538 361C 317.881 360.78 318.711 360.106 319.381 359.502C 320.052 358.898 320.753 358.403 320.94 358.402C 321.126 358.401 321.783 357.86 322.4 357.2C 323.017 356.54 323.723 356 323.971 356C 324.219 356 325.213 355.208 326.181 354.24C 327.149 353.272 328.494 352.153 329.17 351.754C 329.847 351.354 330.4 350.906 330.4 350.757C 330.4 350.608 331.973 349.162 333.894 347.543C 338.353 343.789 343.789 338.353 347.543 333.894C 349.162 331.973 350.608 330.4 350.757 330.4C 350.906 330.4 351.354 329.847 351.754 329.17C 352.153 328.494 353.272 327.149 354.24 326.181C 355.208 325.213 356 324.219 356 323.971C 356 323.723 356.54 323.017 357.2 322.4C 357.86 321.783 358.401 321.126 358.402 320.94C 358.403 320.753 358.898 320.052 359.502 319.381C 360.106 318.711 360.78 317.881 361 317.538C 362.125 315.781 365.396 310.974 365.585 310.8C 365.704 310.69 366.056 310.105 366.368 309.5C 366.68 308.895 367.085 308.4 367.268 308.4C 367.45 308.4 367.6 308.164 367.6 307.875C 367.6 307.587 367.915 307.002 368.3 306.575C 368.685 306.149 369.255 305.305 369.568 304.7C 369.88 304.095 370.285 303.6 370.468 303.6C 370.65 303.6 370.8 303.255 370.8 302.833C 370.8 302.412 370.935 302.007 371.1 301.933C 371.265 301.86 371.833 300.945 372.363 299.9C 372.892 298.855 373.444 298 373.588 298C 373.733 298 374.098 297.37 374.4 296.6C 374.702 295.83 375.096 295.2 375.275 295.2C 375.454 295.2 375.6 294.84 375.6 294.4C 375.6 293.96 375.78 293.6 376 293.6C 376.22 293.6 376.4 293.24 376.4 292.8C 376.4 292.36 376.58 292 376.8 292C 377.02 292 377.2 291.64 377.2 291.2C 377.2 290.76 377.38 290.4 377.6 290.4C 377.82 290.4 378 290.055 378 289.633C 378 289.212 378.135 288.807 378.3 288.733C 378.578 288.61 379.78 286.255 381.022 283.4C 381.309 282.74 382.097 280.996 382.772 279.525C 383.447 278.054 384 276.569 384 276.225C 384 275.881 384.18 275.6 384.4 275.6C 384.62 275.6 384.8 275.161 384.8 274.624C 384.8 274.087 384.98 273.536 385.2 273.4C 385.42 273.264 385.6 272.803 385.6 272.376C 385.6 271.949 385.78 271.6 386 271.6C 386.22 271.6 386.4 271.238 386.4 270.795C 386.4 270.352 386.559 269.677 386.753 269.295C 386.948 268.913 387.329 268.06 387.6 267.4C 387.871 266.74 388.252 265.887 388.447 265.505C 388.641 265.123 388.8 264.459 388.8 264.029C 388.8 263.599 388.98 263.136 389.2 263C 389.42 262.864 389.6 262.324 389.6 261.8C 389.6 261.276 389.78 260.736 390 260.6C 390.22 260.464 390.4 259.834 390.4 259.2C 390.4 258.566 390.58 257.936 390.8 257.8C 391.02 257.664 391.2 257.023 391.2 256.376C 391.2 255.729 391.38 255.2 391.6 255.2C 391.82 255.2 392 254.581 392 253.824C 392 253.067 392.18 252.336 392.4 252.2C 392.62 252.064 392.8 251.524 392.8 251C 392.8 250.476 392.98 249.936 393.2 249.8C 393.42 249.664 393.6 248.854 393.6 248C 393.6 247.146 393.78 246.336 394 246.2C 394.22 246.064 394.4 245.243 394.4 244.376C 394.4 243.509 394.58 242.8 394.8 242.8C 395.02 242.8 395.2 242.08 395.2 241.2C 395.2 240.32 395.363 239.6 395.562 239.6C 395.76 239.6 395.93 238.674 395.939 237.542C 395.948 236.411 396.123 235.317 396.329 235.111C 396.535 234.905 396.622 234.133 396.523 233.396C 396.423 232.659 396.566 231.638 396.839 231.128C 397.112 230.617 397.362 229.041 397.394 227.625C 397.426 226.208 397.622 224.993 397.829 224.924C 398.039 224.854 398.142 223.401 398.063 221.652C 397.958 219.333 398.066 218.37 398.476 217.987C 398.924 217.568 399.001 216.048 398.869 210.194C 398.726 203.834 398.794 202.733 399.416 201.423C 400.017 200.156 400.04 199.872 399.563 199.577C 399.11 199.297 399 197.689 399 191.314C 399 185.658 398.863 183.286 398.521 183C 398.241 182.766 397.971 181.103 397.87 179C 397.51 171.444 401.482 176.164 363.461 138.108C 344.947 119.578 329.666 104.413 329.502 104.408C 329.338 104.404 329.158 136.71 329.102 176.2" stroke="none" fill="#AB4C34" fill-rule="nonzero" />
        <path d="M179.003 0.275C 177.025 0.362 175.234 0.606 175.023 0.817C 174.812 1.028 173.427 1.2 171.944 1.2C 170.461 1.2 169.136 1.38 169 1.6C 168.864 1.82 167.773 2 166.576 2C 165.379 2 164.4 2.18 164.4 2.4C 164.4 2.62 163.511 2.8 162.424 2.8C 161.337 2.8 160.336 2.98 160.2 3.2C 160.064 3.42 159.243 3.6 158.376 3.6C 157.509 3.6 156.8 3.78 156.8 4C 156.8 4.22 156.001 4.4 155.024 4.4C 154.047 4.4 153.136 4.58 153 4.8C 152.864 5.02 152.144 5.2 151.4 5.2C 150.656 5.2 149.936 5.38 149.8 5.6C 149.664 5.82 149.034 6 148.4 6C 147.766 6 147.136 6.18 147 6.4C 146.864 6.62 146.234 6.8 145.6 6.8C 144.966 6.8 144.336 6.98 144.2 7.2C 144.064 7.42 143.434 7.6 142.8 7.6C 142.166 7.6 141.536 7.78 141.4 8C 141.264 8.22 140.623 8.4 139.976 8.4C 139.329 8.4 138.8 8.58 138.8 8.8C 138.8 9.02 138.26 9.2 137.6 9.2C 136.94 9.2 136.4 9.356 136.4 9.546C 136.4 9.736 135.594 10.002 134.609 10.137C 133.624 10.272 132.454 10.566 132.009 10.791C 131.564 11.016 130.842 11.38 130.405 11.6C 129.968 11.82 129.42 12 129.186 12C 128.952 12 128.016 12.36 127.106 12.8C 126.195 13.24 125.124 13.6 124.725 13.6C 124.326 13.6 124 13.747 124 13.928C 124 14.108 123.1 14.5 122 14.8C 120.9 15.1 120 15.492 120 15.672C 120 15.853 119.64 16 119.2 16C 118.76 16 118.4 16.18 118.4 16.4C 118.4 16.62 118.04 16.8 117.6 16.8C 117.16 16.8 116.8 16.98 116.8 17.2C 116.8 17.42 116.528 17.6 116.195 17.6C 115.862 17.6 115.277 17.768 114.895 17.974C 114.513 18.179 113.615 18.583 112.9 18.871C 112.185 19.16 111.6 19.531 111.6 19.698C 111.6 19.864 111.24 20 110.8 20C 110.36 20 110 20.18 110 20.4C 110 20.62 109.655 20.8 109.233 20.8C 108.812 20.8 108.407 20.935 108.333 21.1C 108.213 21.37 106.111 22.578 103.703 23.76C 103.21 24.002 102.805 24.335 102.803 24.5C 102.801 24.665 102.44 24.8 102 24.8C 101.56 24.8 101.2 24.98 101.2 25.2C 101.2 25.42 100.906 25.6 100.547 25.6C 100.188 25.6 99.603 25.936 99.247 26.346C 98.891 26.757 98.033 27.217 97.341 27.369C 96.649 27.521 95.766 27.995 95.379 28.423C 94.993 28.85 94.434 29.2 94.138 29.2C 93.842 29.2 93.6 29.38 93.6 29.6C 93.6 29.82 93.364 30 93.075 30C 92.787 30 92.164 30.36 91.692 30.8C 91.22 31.24 90.596 31.6 90.305 31.6C 90.014 31.6 89.517 31.96 89.2 32.4C 88.883 32.84 88.343 33.2 88 33.2C 87.657 33.2 87.117 33.56 86.8 34C 86.483 34.44 86.038 34.8 85.812 34.801C 85.585 34.801 84.77 35.341 84 36C 83.23 36.659 82.415 37.199 82.188 37.199C 81.962 37.2 81.517 37.56 81.2 38C 80.883 38.44 80.422 38.8 80.177 38.8C 79.931 38.8 78.936 39.522 77.965 40.404C 76.994 41.286 75.818 42.349 75.352 42.767C 74.885 43.184 73.985 43.799 73.352 44.133C 72.718 44.467 71.286 45.609 70.169 46.67C 69.052 47.732 67.522 49.043 66.769 49.584C 66.016 50.125 64.23 51.793 62.8 53.291C 60.199 56.016 58.934 57.286 52.59 63.544C 50.726 65.384 49.2 67.028 49.2 67.199C 49.2 67.369 48.199 68.564 46.975 69.854C 45.751 71.144 44.475 72.718 44.138 73.352C 43.801 73.985 43.184 74.885 42.767 75.352C 42.349 75.818 41.286 76.994 40.404 77.965C 39.522 78.936 38.8 79.931 38.8 80.177C 38.8 80.422 38.44 80.883 38 81.2C 37.56 81.517 37.2 81.962 37.199 82.188C 37.199 82.415 36.659 83.23 36 84C 35.341 84.77 34.801 85.585 34.801 85.812C 34.8 86.038 34.44 86.483 34 86.8C 33.56 87.117 33.2 87.657 33.2 88C 33.2 88.343 32.84 88.883 32.4 89.2C 31.96 89.517 31.6 90.014 31.6 90.305C 31.6 90.596 31.24 91.22 30.8 91.692C 30.36 92.164 30 92.787 30 93.075C 30 93.364 29.82 93.6 29.6 93.6C 29.38 93.6 29.2 93.842 29.2 94.138C 29.2 94.434 28.85 94.993 28.423 95.379C 27.995 95.766 27.521 96.649 27.369 97.341C 27.217 98.033 26.757 98.891 26.346 99.247C 25.936 99.603 25.6 100.188 25.6 100.547C 25.6 100.906 25.42 101.2 25.2 101.2C 24.98 101.2 24.8 101.56 24.8 102C 24.8 102.44 24.665 102.801 24.5 102.803C 24.335 102.805 24.002 103.21 23.76 103.703C 22.578 106.111 21.37 108.213 21.1 108.333C 20.935 108.407 20.8 108.812 20.8 109.233C 20.8 109.655 20.62 110 20.4 110C 20.18 110 20 110.36 20 110.8C 20 111.24 19.864 111.6 19.698 111.6C 19.531 111.6 19.16 112.185 18.871 112.9C 18.583 113.615 18.179 114.513 17.974 114.895C 17.768 115.277 17.6 115.862 17.6 116.195C 17.6 116.528 17.42 116.8 17.2 116.8C 16.98 116.8 16.8 117.16 16.8 117.6C 16.8 118.04 16.62 118.4 16.4 118.4C 16.18 118.4 16 118.76 16 119.2C 16 119.64 15.853 120 15.672 120C 15.492 120 15.1 120.9 14.8 122C 14.5 123.1 14.108 124 13.928 124C 13.747 124 13.6 124.326 13.6 124.725C 13.6 125.124 13.24 126.195 12.8 127.106C 12.36 128.016 12 128.952 12 129.186C 12 129.42 11.82 129.968 11.6 130.405C 11.38 130.842 11.016 131.564 10.791 132.009C 10.566 132.454 10.272 133.624 10.137 134.609C 10.002 135.594 9.736 136.4 9.546 136.4C 9.356 136.4 9.2 136.94 9.2 137.6C 9.2 138.26 9.02 138.8 8.8 138.8C 8.58 138.8 8.4 139.329 8.4 139.976C 8.4 140.623 8.22 141.264 8 141.4C 7.78 141.536 7.6 142.166 7.6 142.8C 7.6 143.434 7.42 144.064 7.2 144.2C 6.98 144.336 6.8 144.966 6.8 145.6C 6.8 146.234 6.62 146.864 6.4 147C 6.18 147.136 6 147.766 6 148.4C 6 149.034 5.82 149.664 5.6 149.8C 5.38 149.936 5.2 150.656 5.2 151.4C 5.2 152.144 5.02 152.864 4.8 153C 4.58 153.136 4.4 154.047 4.4 155.024C 4.4 156.001 4.22 156.8 4 156.8C 3.78 156.8 3.6 157.509 3.6 158.376C 3.6 159.243 3.42 160.064 3.2 160.2C 2.98 160.336 2.8 161.337 2.8 162.424C 2.8 163.511 2.62 164.4 2.4 164.4C 2.18 164.4 2 165.379 2 166.576C 2 167.773 1.82 168.864 1.6 169C 1.38 169.136 1.2 170.461 1.2 171.944C 1.2 173.567 1.001 174.839 0.7 175.14C -0.029 175.869 -0.029 224.131 0.7 224.86C 1.001 225.161 1.2 226.433 1.2 228.056C 1.2 229.539 1.38 230.864 1.6 231C 1.82 231.136 2 232.227 2 233.424C 2 234.621 2.18 235.6 2.4 235.6C 2.62 235.6 2.8 236.59 2.8 237.8C 2.8 239.01 2.98 240 3.2 240C 3.42 240 3.6 240.72 3.6 241.6C 3.6 242.48 3.78 243.2 4 243.2C 4.22 243.2 4.4 243.999 4.4 244.976C 4.4 245.953 4.58 246.864 4.8 247C 5.02 247.136 5.2 247.957 5.2 248.824C 5.2 249.691 5.38 250.4 5.6 250.4C 5.82 250.4 6 250.929 6 251.576C 6 252.223 6.18 252.864 6.4 253C 6.62 253.136 6.8 253.867 6.8 254.624C 6.8 255.381 6.98 256 7.2 256C 7.42 256 7.6 256.529 7.6 257.176C 7.6 257.823 7.78 258.464 8 258.6C 8.22 258.736 8.4 259.377 8.4 260.024C 8.4 260.671 8.58 261.2 8.8 261.2C 9.02 261.2 9.2 261.74 9.2 262.4C 9.2 263.06 9.356 263.6 9.546 263.6C 9.736 263.6 10.003 264.412 10.139 265.405C 10.275 266.398 10.749 267.961 11.193 268.88C 11.637 269.799 12 270.753 12 271C 12 271.247 12.36 272.195 12.8 273.106C 13.24 274.016 13.6 275.04 13.6 275.381C 13.6 275.721 13.747 276 13.928 276C 14.108 276 14.5 276.9 14.8 278C 15.1 279.1 15.492 280 15.672 280C 15.853 280 16 280.36 16 280.8C 16 281.24 16.18 281.6 16.4 281.6C 16.62 281.6 16.8 281.96 16.8 282.4C 16.8 282.84 16.98 283.2 17.2 283.2C 17.42 283.2 17.6 283.472 17.6 283.805C 17.6 284.138 17.76 284.723 17.956 285.105C 18.152 285.487 18.737 286.7 19.256 287.8C 19.775 288.9 20.335 289.86 20.5 289.933C 20.665 290.007 20.8 290.412 20.8 290.833C 20.8 291.255 20.98 291.6 21.2 291.6C 21.42 291.6 21.6 291.945 21.6 292.367C 21.6 292.788 21.735 293.193 21.9 293.267C 22.276 293.434 23.575 295.564 23.871 296.5C 23.993 296.885 24.252 297.2 24.447 297.2C 24.641 297.2 24.8 297.56 24.8 298C 24.8 298.44 24.98 298.8 25.2 298.8C 25.42 298.8 25.6 299.094 25.6 299.453C 25.6 299.812 25.931 300.397 26.336 300.753C 26.741 301.109 27.2 301.919 27.357 302.553C 27.645 303.717 30.666 308.487 31.272 308.733C 31.453 308.807 31.6 309.172 31.6 309.545C 31.6 309.918 31.96 310.483 32.4 310.8C 32.84 311.117 33.2 311.657 33.2 312C 33.2 312.343 33.56 312.883 34 313.2C 34.44 313.517 34.8 313.962 34.801 314.188C 34.801 314.415 35.341 315.23 36 316C 36.659 316.77 37.199 317.585 37.199 317.812C 37.2 318.038 37.56 318.483 38 318.8C 38.44 319.117 38.8 319.572 38.8 319.81C 38.8 320.049 39.385 320.902 40.1 321.706C 42.213 324.081 43.513 325.706 44.572 327.295C 45.121 328.118 46.386 329.607 47.385 330.606C 48.383 331.604 49.2 332.58 49.2 332.773C 49.2 332.967 51.085 334.988 53.388 337.263C 58.024 341.843 58.637 342.454 63.758 347.615C 65.715 349.587 67.474 351.2 67.667 351.2C 67.86 351.2 69.007 352.19 70.217 353.4C 71.427 354.61 72.571 355.6 72.758 355.6C 72.946 355.6 73.787 356.23 74.628 357C 75.469 357.77 76.279 358.4 76.428 358.4C 76.577 358.4 77.387 359.03 78.228 359.8C 79.069 360.57 79.951 361.2 80.19 361.2C 80.428 361.2 80.883 361.56 81.2 362C 81.517 362.44 81.962 362.8 82.188 362.801C 82.415 362.801 83.23 363.341 84 364C 84.77 364.659 85.585 365.199 85.812 365.199C 86.038 365.2 86.483 365.56 86.8 366C 87.117 366.44 87.657 366.8 88 366.8C 88.343 366.8 88.883 367.16 89.2 367.6C 89.517 368.04 90.097 368.4 90.488 368.4C 90.88 368.4 91.2 368.55 91.2 368.732C 91.2 368.915 91.695 369.32 92.3 369.632C 92.905 369.945 93.723 370.491 94.118 370.846C 94.512 371.202 95.682 371.919 96.718 372.441C 97.753 372.962 98.69 373.502 98.8 373.639C 99.159 374.087 101.546 375.2 102.147 375.2C 102.469 375.2 102.793 375.335 102.867 375.5C 103.034 375.876 105.164 377.175 106.1 377.471C 106.485 377.593 106.8 377.852 106.8 378.047C 106.8 378.241 107.16 378.4 107.6 378.4C 108.04 378.4 108.4 378.58 108.4 378.8C 108.4 379.02 108.76 379.2 109.2 379.2C 109.64 379.2 110 379.38 110 379.6C 110 379.82 110.36 380 110.8 380C 111.24 380 111.6 380.136 111.6 380.302C 111.6 380.469 112.185 380.84 112.9 381.129C 113.615 381.417 114.513 381.821 114.895 382.026C 115.277 382.232 115.862 382.4 116.195 382.4C 116.528 382.4 116.8 382.58 116.8 382.8C 116.8 383.02 117.16 383.2 117.6 383.2C 118.04 383.2 118.4 383.38 118.4 383.6C 118.4 383.82 118.76 384 119.2 384C 119.64 384 120 384.18 120 384.4C 120 384.62 120.349 384.8 120.776 384.8C 121.203 384.8 121.664 384.98 121.8 385.2C 121.936 385.42 122.487 385.6 123.024 385.6C 123.561 385.6 124 385.78 124 386C 124 386.22 124.279 386.4 124.619 386.4C 124.96 386.4 125.984 386.76 126.894 387.2C 127.805 387.64 128.861 388 129.242 388C 129.622 388 129.993 388.14 130.067 388.312C 130.254 388.75 139.033 391.6 140.196 391.6C 140.722 391.6 141.264 391.78 141.4 392C 141.536 392.22 142.166 392.4 142.8 392.4C 143.434 392.4 144.064 392.58 144.2 392.8C 144.336 393.02 144.966 393.2 145.6 393.2C 146.234 393.2 146.864 393.38 147 393.6C 147.136 393.82 147.777 394 148.424 394C 149.071 394 149.6 394.18 149.6 394.4C 149.6 394.62 150.309 394.8 151.176 394.8C 152.043 394.8 152.864 394.98 153 395.2C 153.136 395.42 154.047 395.6 155.024 395.6C 156.001 395.6 156.8 395.78 156.8 396C 156.8 396.22 157.52 396.4 158.4 396.4C 159.28 396.4 160 396.58 160 396.8C 160 397.02 160.99 397.2 162.2 397.2C 163.41 397.2 164.4 397.38 164.4 397.6C 164.4 397.82 165.379 398 166.576 398C 167.773 398 168.864 398.18 169 398.4C 169.358 398.98 171.6 398.897 171.6 398.304C 171.6 398.031 149.147 375.351 121.703 347.905L121.703 347.905L71.807 298.003L134.203 297.9L196.6 297.797L133.9 297.699L71.2 297.6L71.2 200L71.2 102.4L200 102.4C 319.947 102.4 328.8 102.446 328.8 103.067C 328.8 103.433 328.927 103.607 329.082 103.452C 329.237 103.297 344.764 118.567 363.587 137.385C 382.41 156.203 398.033 171.6 398.305 171.6C 398.897 171.6 398.979 169.358 398.4 169C 398.18 168.864 398 167.773 398 166.576C 398 165.379 397.82 164.4 397.6 164.4C 397.38 164.4 397.2 163.41 397.2 162.2C 397.2 160.99 397.02 160 396.8 160C 396.58 160 396.4 159.28 396.4 158.4C 396.4 157.52 396.22 156.8 396 156.8C 395.78 156.8 395.6 156.001 395.6 155.024C 395.6 154.047 395.42 153.136 395.2 153C 394.98 152.864 394.8 152.043 394.8 151.176C 394.8 150.309 394.62 149.6 394.4 149.6C 394.18 149.6 394 149.071 394 148.424C 394 147.777 393.82 147.136 393.6 147C 393.38 146.864 393.2 146.234 393.2 145.6C 393.2 144.966 393.02 144.336 392.8 144.2C 392.58 144.064 392.4 143.434 392.4 142.8C 392.4 142.166 392.22 141.536 392 141.4C 391.78 141.264 391.6 140.722 391.6 140.196C 391.6 139.033 388.75 130.254 388.312 130.067C 388.14 129.993 388 129.622 388 129.242C 388 128.861 387.64 127.805 387.2 126.894C 386.76 125.984 386.4 124.96 386.4 124.619C 386.4 124.279 386.22 124 386 124C 385.78 124 385.6 123.561 385.6 123.024C 385.6 122.487 385.42 121.936 385.2 121.8C 384.98 121.664 384.8 121.203 384.8 120.776C 384.8 120.349 384.62 120 384.4 120C 384.18 120 384 119.64 384 119.2C 384 118.76 383.82 118.4 383.6 118.4C 383.38 118.4 383.2 118.04 383.2 117.6C 383.2 117.16 383.02 116.8 382.8 116.8C 382.58 116.8 382.4 116.528 382.4 116.195C 382.4 115.862 382.232 115.277 382.026 114.895C 381.821 114.513 381.417 113.615 381.129 112.9C 380.84 112.185 380.469 111.6 380.302 111.6C 380.136 111.6 380 111.24 380 110.8C 380 110.36 379.82 110 379.6 110C 379.38 110 379.2 109.64 379.2 109.2C 379.2 108.76 379.02 108.4 378.8 108.4C 378.58 108.4 378.4 108.055 378.4 107.633C 378.4 107.212 378.265 106.807 378.1 106.733C 377.724 106.566 376.425 104.436 376.129 103.5C 376.007 103.115 375.748 102.8 375.553 102.8C 375.359 102.8 375.2 102.521 375.2 102.18C 375.2 101.553 374.099 99.168 373.639 98.8C 373.502 98.69 372.962 97.753 372.441 96.718C 371.919 95.682 371.202 94.512 370.846 94.118C 370.491 93.723 369.945 92.905 369.632 92.3C 369.32 91.695 368.915 91.2 368.732 91.2C 368.55 91.2 368.4 90.88 368.4 90.488C 368.4 90.097 368.04 89.517 367.6 89.2C 367.16 88.883 366.8 88.343 366.8 88C 366.8 87.657 366.44 87.117 366 86.8C 365.56 86.483 365.2 86.038 365.199 85.812C 365.199 85.585 364.659 84.77 364 84C 363.341 83.23 362.801 82.415 362.801 82.188C 362.8 81.962 362.44 81.517 362 81.2C 361.56 80.883 361.2 80.428 361.2 80.19C 361.2 79.951 360.57 79.069 359.8 78.228C 359.03 77.387 358.4 76.577 358.4 76.428C 358.4 76.279 357.77 75.469 357 74.628C 356.23 73.787 355.6 72.946 355.6 72.758C 355.6 72.571 354.61 71.427 353.4 70.217C 352.19 69.007 351.2 67.86 351.2 67.667C 351.2 67.474 349.587 65.715 347.615 63.758C 342.454 58.637 341.843 58.024 337.263 53.388C 334.988 51.085 332.967 49.2 332.773 49.2C 332.58 49.2 331.604 48.383 330.606 47.385C 329.607 46.386 328.118 45.121 327.295 44.572C 325.706 43.513 324.081 42.213 321.706 40.1C 320.902 39.385 320.049 38.8 319.81 38.8C 319.572 38.8 319.117 38.44 318.8 38C 318.483 37.56 318.038 37.2 317.812 37.199C 317.585 37.199 316.77 36.659 316 36C 315.23 35.341 314.415 34.801 314.188 34.801C 313.962 34.8 313.517 34.44 313.2 34C 312.883 33.56 312.343 33.2 312 33.2C 311.657 33.2 311.117 32.84 310.8 32.4C 310.483 31.96 309.918 31.6 309.545 31.6C 309.172 31.6 308.807 31.453 308.733 31.272C 308.487 30.666 303.717 27.645 302.553 27.357C 301.919 27.2 301.109 26.741 300.753 26.336C 300.397 25.931 299.812 25.6 299.453 25.6C 299.094 25.6 298.8 25.42 298.8 25.2C 298.8 24.98 298.455 24.8 298.033 24.8C 297.612 24.8 297.207 24.665 297.133 24.5C 296.966 24.124 294.836 22.825 293.9 22.529C 293.515 22.407 293.2 22.148 293.2 21.953C 293.2 21.759 292.84 21.6 292.4 21.6C 291.96 21.6 291.6 21.42 291.6 21.2C 291.6 20.98 291.255 20.8 290.833 20.8C 290.412 20.8 290.007 20.665 289.933 20.5C 289.86 20.335 288.9 19.775 287.8 19.256C 286.7 18.737 285.487 18.152 285.105 17.956C 284.723 17.76 284.138 17.6 283.805 17.6C 283.472 17.6 283.2 17.42 283.2 17.2C 283.2 16.98 282.84 16.8 282.4 16.8C 281.96 16.8 281.6 16.62 281.6 16.4C 281.6 16.18 281.24 16 280.8 16C 280.36 16 280 15.853 280 15.672C 280 15.492 279.1 15.1 278 14.8C 276.9 14.5 276 14.108 276 13.928C 276 13.747 275.721 13.6 275.381 13.6C 275.04 13.6 274.016 13.24 273.106 12.8C 272.195 12.36 271.247 12 271 12C 270.753 12 269.799 11.637 268.88 11.193C 267.961 10.749 266.398 10.275 265.405 10.139C 264.412 10.003 263.6 9.736 263.6 9.546C 263.6 9.356 263.06 9.2 262.4 9.2C 261.74 9.2 261.2 9.02 261.2 8.8C 261.2 8.58 260.671 8.4 260.024 8.4C 259.377 8.4 258.736 8.22 258.6 8C 258.464 7.78 257.823 7.6 257.176 7.6C 256.529 7.6 256 7.42 256 7.2C 256 6.98 255.381 6.8 254.624 6.8C 253.867 6.8 253.136 6.62 253 6.4C 252.864 6.18 252.223 6 251.576 6C 250.929 6 250.4 5.82 250.4 5.6C 250.4 5.38 249.691 5.2 248.824 5.2C 247.957 5.2 247.136 5.02 247 4.8C 246.864 4.58 245.953 4.4 244.976 4.4C 243.999 4.4 243.2 4.22 243.2 4C 243.2 3.78 242.48 3.6 241.6 3.6C 240.72 3.6 240 3.42 240 3.2C 240 2.98 239.01 2.8 237.8 2.8C 236.59 2.8 235.6 2.62 235.6 2.4C 235.6 2.18 234.621 2 233.424 2C 232.227 2 231.136 1.82 231 1.6C 230.864 1.38 229.539 1.2 228.056 1.2C 226.478 1.2 225.159 0.999 224.875 0.715C 224.394 0.234 187.86 -0.116 179.003 0.275M84.6 108.441C 80.532 109.69 78.695 115.489 81.289 118.89C 85.484 124.39 93.6 121.681 93.6 114.78C 93.6 110.036 89.29 107 84.6 108.441M105.8 108.265C 103.025 109.015 100.534 112.804 100.921 115.687C 101.766 121.988 110.035 123.957 113.521 118.688C 116.945 113.515 111.846 106.631 105.8 108.265M126.6 108.265C 120.974 109.786 120.25 118.465 125.534 121.061C 133.231 124.843 139.399 114.184 132.398 109.199C 131.22 108.36 128.105 107.858 126.6 108.265M328.995 187.4C 328.995 220.4 329.042 233.841 329.1 217.269C 329.158 200.696 329.158 173.696 329.1 157.269C 329.042 140.841 328.995 154.4 328.995 187.4M398.8 176.376C 398.8 177.269 398.98 178 399.2 178C 399.42 178 399.6 177.381 399.6 176.624C 399.6 175.867 399.42 175.136 399.2 175C 398.958 174.851 398.8 175.396 398.8 176.376M399.067 223.867C 398.669 224.265 398.745 225.2 399.175 225.2C 399.381 225.2 399.523 224.84 399.49 224.4C 399.422 223.496 399.429 223.505 399.067 223.867M328.974 287C 328.975 292.72 329.031 295.004 329.099 292.076C 329.168 289.148 329.167 284.468 329.099 281.676C 329.03 278.884 328.974 281.28 328.974 287M175 399.2C 175.136 399.42 175.867 399.6 176.624 399.6C 177.381 399.6 178 399.42 178 399.2C 178 398.98 177.269 398.8 176.376 398.8C 175.396 398.8 174.851 398.958 175 399.2" stroke="none" fill="#FB6B3B" fill-rule="nonzero" />
        <path d="M200.311 114.8L200.422 127.2L264.211 127.2L328 127.2L328 115.033C 328 105.674 328.115 102.82 328.5 102.665C 328.775 102.554 300.02 102.449 264.6 102.431L264.6 102.431L200.2 102.4L200.311 114.8zM139.5 140.282C 139.995 140.378 140.805 140.378 141.3 140.282C 141.795 140.187 141.39 140.109 140.4 140.109C 139.41 140.109 139.005 140.187 139.5 140.282M143.633 140.543C 143.725 140.621 144.43 140.801 145.2 140.942C 146.185 141.123 146.422 141.082 146 140.806C 145.458 140.45 143.237 140.203 143.633 140.543M175.895 140.69C 176.273 140.958 176.416 144.992 176.495 157.621L176.495 157.621L176.6 174.2L186.5 174.211L196.4 174.221L186.605 174.104L176.809 173.986L176.704 157.326C 176.614 142.917 176.519 140.644 176 140.503C 175.56 140.383 175.532 140.433 175.895 140.69M92.9 141.212C 91.561 141.751 91.811 142.024 93.2 141.54C 93.86 141.31 94.4 141.049 94.4 140.961C 94.4 140.724 93.913 140.805 92.9 141.212M88.832 143.847C 87.702 144.863 86.584 146.078 86.347 146.547C 86.111 147.016 86.506 146.704 87.226 145.854C 87.945 145.003 89.251 143.788 90.127 143.154C 91.003 142.519 91.532 142 91.303 142C 91.074 142 89.962 142.831 88.832 143.847M149.2 142.42C 150.587 143.361 151.378 143.635 150.4 142.836C 149.85 142.386 149.22 142.017 149 142.015C 148.78 142.013 148.87 142.196 149.2 142.42M127.775 144.9L126.6 146.2L127.9 145.025C 128.615 144.379 129.2 143.794 129.2 143.725C 129.2 143.416 128.87 143.688 127.775 144.9M101.633 149.343C 101.725 149.421 102.43 149.601 103.2 149.742C 104.185 149.923 104.422 149.882 104 149.606C 103.458 149.25 101.237 149.003 101.633 149.343M111.72 151.741C 111.544 152.039 111.13 152.385 110.8 152.51C 110.316 152.693 110.332 152.743 110.886 152.768C 111.263 152.786 111.765 152.44 112 152C 112.475 151.113 112.227 150.884 111.72 151.741M84.468 156C 84.488 157.039 85.118 158.746 85.132 157.8C 85.138 157.36 84.989 156.64 84.8 156.2C 84.589 155.71 84.461 155.632 84.468 156M100.833 156.944C 100.925 157.023 101.54 157.208 102.2 157.356C 103.076 157.552 103.238 157.515 102.8 157.218C 102.26 156.853 100.432 156.598 100.833 156.944M130.501 159.4C 130.505 160.28 130.587 160.593 130.683 160.095C 130.779 159.598 130.775 158.878 130.675 158.495C 130.575 158.113 130.496 158.52 130.501 159.4M150.299 161C 150.416 162.54 150.577 163.875 150.656 163.967C 150.934 164.288 150.717 160.189 150.403 159.2C 150.219 158.619 150.175 159.373 150.299 161M120.134 161.6C 120.134 163.25 120.205 163.925 120.291 163.1C 120.378 162.275 120.378 160.925 120.291 160.1C 120.205 159.275 120.134 159.95 120.134 161.6M114.837 164C 115.996 165.796 116 165.801 115.998 165.367C 115.997 165.165 115.532 164.46 114.965 163.8L114.965 163.8L113.934 162.6L114.837 164zM130.501 164.2C 130.505 165.08 130.587 165.393 130.683 164.895C 130.779 164.398 130.775 163.678 130.675 163.295C 130.575 162.913 130.496 163.32 130.501 164.2M140.7 166.295C 141.855 166.376 143.745 166.376 144.9 166.295C 146.055 166.214 145.11 166.148 142.8 166.148C 140.49 166.148 139.545 166.214 140.7 166.295M138 166.652C 138 166.864 138.765 167.749 139.7 168.619L139.7 168.619L141.4 170.2L139.8 168.406C 138.92 167.42 138.155 166.535 138.1 166.439C 138.045 166.344 138 166.44 138 166.652M147.965 167.295C 148.92 168.379 150.02 168.246 149.988 167.051C 149.981 166.803 149.784 166.93 149.549 167.333C 149.144 168.031 149.071 168.021 148.061 167.133L148.061 167.133L147 166.2L147.965 167.295zM86.392 170.5C 85.985 171.341 85.995 171.351 86.551 170.66C 86.899 170.228 87.35 170.046 87.635 170.222C 87.947 170.415 88.021 170.357 87.838 170.062C 87.399 169.351 86.872 169.51 86.392 170.5M142.308 171.619C 143.888 173.354 143.929 173.897 142.5 174.113L142.5 174.113L141.4 174.28L142.513 174.34C 144.315 174.437 144.336 173.337 142.564 171.663L142.564 171.663L141.015 170.2L142.308 171.619zM157.499 173.232C 156.895 174.314 156.483 175.2 156.583 175.2C 156.857 175.2 158.921 171.588 158.747 171.414C 158.665 171.332 158.103 172.15 157.499 173.232M116.493 172.8C 116.493 173.57 116.575 173.885 116.676 173.5C 116.776 173.115 116.776 172.485 116.676 172.1C 116.575 171.715 116.493 172.03 116.493 172.8M123.16 173.4C 123.834 174.705 124.388 175.428 124.385 175C 124.383 174.78 124.014 174.15 123.564 173.6C 123.021 172.936 122.885 172.869 123.16 173.4M97.505 174.283C 98.002 174.379 98.722 174.375 99.105 174.275C 99.487 174.175 99.08 174.096 98.2 174.101C 97.32 174.105 97.007 174.187 97.505 174.283M156 175.864C 156 176.082 156.495 176.697 157.1 177.23L157.1 177.23L158.2 178.2L157.2 177C 156.65 176.34 156.155 175.725 156.1 175.633C 156.045 175.542 156 175.645 156 175.864M113.178 179.5L111.8 181L113.3 179.622C 114.696 178.338 114.984 178 114.678 178C 114.612 178 113.937 178.675 113.178 179.5M158 178.525C 158 178.594 158.585 179.179 159.3 179.825L159.3 179.825L160.6 181L159.425 179.7C 158.33 178.488 158 178.216 158 178.525M128.269 179.232C 128.766 179.833 131.2 181.364 131.2 181.076C 131.2 180.983 130.435 180.402 129.5 179.785C 128.565 179.168 128.011 178.92 128.269 179.232M245 181.622C 244.264 181.822 245.038 181.863 247 181.726C 248.76 181.603 250.275 181.435 250.367 181.351C 250.679 181.068 246.205 181.293 245 181.622M263.2 181.589C 264.178 181.913 268.296 182.142 267.967 181.855C 267.875 181.775 266.54 181.608 265 181.484C 263.296 181.347 262.591 181.388 263.2 181.589M91.4 182.4C 91.84 182.589 92.47 182.744 92.8 182.744C 93.178 182.744 93.104 182.617 92.6 182.4C 92.16 182.211 91.53 182.056 91.2 182.056C 90.822 182.056 90.896 182.183 91.4 182.4M240.667 182.267C 240.52 182.413 240.438 185.518 240.485 189.167L240.485 189.167L240.57 195.8L240.785 189.217L241 182.635L242 182.357L243 182.08L241.967 182.04C 241.398 182.018 240.813 182.12 240.667 182.267M268.7 182.43C 269.058 182.809 269.2 184.813 269.2 189.48C 269.2 193.066 269.335 196 269.5 196.001C 270.135 196.002 269.445 182.279 268.8 182.082C 268.316 181.935 268.296 182.002 268.7 182.43M94.8 183.187C 95.791 183.517 98.687 183.735 98.367 183.454C 98.275 183.374 97.21 183.206 96 183.081C 94.58 182.934 94.154 182.971 94.8 183.187M105.3 183.076C 105.685 183.176 106.315 183.176 106.7 183.076C 107.085 182.975 106.77 182.893 106 182.893C 105.23 182.893 104.915 182.975 105.3 183.076M140.8 183.2L137.8 183.456L140.6 183.488C 142.14 183.506 143.85 183.376 144.4 183.2C 145.578 182.823 145.225 182.823 140.8 183.2M296.218 200C 291.497 204.657 291.175 204.832 289.6 203.6C 289.05 203.17 288.39 202.814 288.133 202.809C 287.877 202.804 287.607 202.665 287.533 202.5C 287.344 202.075 282.744 199.922 282.515 200.152C 282.41 200.257 283.287 200.783 284.462 201.321C 285.638 201.86 287.553 202.863 288.718 203.55C 291.602 205.253 291.413 205.327 296.209 200.6C 298.553 198.29 300.77 196.226 301.135 196.012C 301.627 195.726 301.654 195.621 301.239 195.612C 300.93 195.605 298.67 197.58 296.218 200M205.2 197.973C 203.77 199.054 201.7 200.892 200.6 202.057L200.6 202.057L198.6 204.176L201 201.967C 202.32 200.752 204.435 198.981 205.7 198.031C 207.703 196.527 208.287 195.989 207.9 196.004C 207.845 196.006 206.63 196.892 205.2 197.973M209.796 197.196C 210.426 197.854 211.019 198.314 211.113 198.22C 211.322 198.012 209.356 196 208.943 196C 208.782 196 209.166 196.538 209.796 197.196M238 196.4C 237.467 196.745 237.467 196.788 238 196.788C 238.33 196.788 238.87 196.613 239.2 196.4C 239.733 196.055 239.733 196.012 239.2 196.012C 238.87 196.012 238.33 196.187 238 196.4M302 196.124C 302 196.244 303.125 197.197 304.5 198.242C 308.326 201.148 311.911 204.523 316.4 209.446C 317.61 210.773 318.331 211.486 318.003 211.03C 316.299 208.663 311.224 203.37 308.307 200.92C 304.444 197.674 302 195.815 302 196.124M279.958 199.237C 280.925 199.666 281.788 199.945 281.875 199.858C 282.048 199.686 278.965 198.382 278.492 198.428C 278.331 198.444 278.991 198.808 279.958 199.237M213.213 200.156C 213.2 200.518 217.88 205.2 218.256 205.2C 218.368 205.2 219.662 204.502 221.13 203.649C 222.599 202.795 224.655 201.711 225.7 201.239C 226.745 200.766 227.6 200.292 227.6 200.185C 227.6 199.741 222.163 202.426 219.418 204.225C 218.312 204.95 217.123 204.163 213.941 200.6C 213.548 200.16 213.221 199.96 213.213 200.156M194.378 208.3L193 209.8L194.5 208.422C 195.896 207.138 196.184 206.8 195.878 206.8C 195.812 206.8 195.137 207.475 194.378 208.3M319.591 213.588C 320.828 215.324 321.425 215.534 320.332 213.848C 319.819 213.057 319.253 212.408 319.073 212.405C 318.893 212.402 319.126 212.935 319.591 213.588M188.943 215.031L188.267 216.063L193.231 220.931L198.196 225.8L193.433 220.929L188.67 216.058L189.344 215.029C 189.715 214.463 189.928 214 189.818 214C 189.708 214 189.314 214.464 188.943 215.031M316.706 220.567L312.012 225.422L313.201 227.611C 315.427 231.709 318 237.145 318 237.75C 318 238.081 318.199 238.476 318.443 238.626C 319.046 238.999 318.599 237.605 317.154 234.606C 316.519 233.289 316 231.984 316 231.706C 316 231.428 315.862 231.2 315.694 231.2C 315.526 231.2 315.075 230.525 314.692 229.7C 314.309 228.875 313.638 227.576 313.201 226.813L313.201 226.813L312.407 225.425L317.003 220.972C 319.532 218.522 321.6 216.311 321.6 216.059C 321.6 215.457 322.033 215.059 316.706 220.567M248.536 233.106C 248.281 233.268 250.62 233.341 253.733 233.268C 257.425 233.182 259.952 233.307 260.997 233.626C 265.173 234.901 266.176 235.277 268.406 236.403C 271.213 237.82 271.609 237.721 268.99 236.257C 267.397 235.366 265.378 234.595 260.972 233.191C 259.551 232.739 249.227 232.668 248.536 233.106M245.2 234.081C 242.236 235.348 241.6 235.653 241.6 235.806C 241.6 235.988 242.749 235.626 243.4 235.238C 243.62 235.107 244.7 234.704 245.8 234.341C 246.9 233.979 247.44 233.676 247 233.668C 246.56 233.66 245.75 233.846 245.2 234.081M239.6 236.833L238.6 237.648L239.9 237.014C 240.615 236.665 241.2 236.294 241.2 236.19C 241.2 235.792 240.563 236.048 239.6 236.833M237.279 238.12C 233.607 241.506 230.347 245.148 229.448 246.868C 228.619 248.454 228.545 248.744 229.158 248C 229.611 247.45 229.986 246.816 229.991 246.592C 230.01 245.741 233.607 241.884 237.4 238.649C 238.06 238.086 238.42 237.629 238.2 237.633C 237.98 237.637 237.566 237.856 237.279 238.12M273.2 239.487C 273.2 239.674 273.731 240.141 274.381 240.525C 275.03 240.909 275.969 241.802 276.468 242.511C 277.555 244.057 278.249 244.8 278.609 244.8C 278.755 244.8 278.122 243.901 277.201 242.802C 275.503 240.773 273.2 238.865 273.2 239.487M318.816 239.325C 318.792 239.811 320.067 243.6 320.254 243.6C 320.343 243.6 320.293 243.105 320.143 242.5C 319.822 241.208 318.838 238.854 318.816 239.325M189.849 242.215C 189.712 242.573 189.615 243.166 189.634 243.533C 189.653 243.9 189.827 243.669 190.021 243.02C 190.398 241.758 190.265 241.133 189.849 242.215M320.406 244.833C 320.409 245.365 320.589 246.07 320.806 246.4C 321.082 246.822 321.123 246.585 320.942 245.6C 320.625 243.875 320.398 243.549 320.406 244.833M321.462 247.7C 321.564 247.865 323.257 248 325.224 248C 327.191 248 328.8 247.865 328.8 247.7C 328.8 247.535 327.107 247.4 325.038 247.4C 322.969 247.4 321.36 247.535 321.462 247.7M179.1 247.898C 180.915 247.972 183.885 247.972 185.7 247.898C 187.515 247.823 186.03 247.763 182.4 247.763C 178.77 247.763 177.285 247.823 179.1 247.898M227.704 250.101C 226.984 251.601 226.78 252.459 227.205 252.197C 227.422 252.063 227.6 251.639 227.6 251.256C 227.6 250.873 227.813 250.347 228.073 250.087C 228.334 249.826 228.454 249.521 228.341 249.407C 228.227 249.294 227.941 249.606 227.704 250.101M281.217 249.2C 281.208 249.31 281.552 250.3 281.982 251.4C 282.411 252.5 282.763 253.04 282.765 252.6C 282.766 251.922 281.265 248.623 281.217 249.2M174.131 255.8C 174.133 257.34 174.205 257.921 174.292 257.091C 174.379 256.261 174.377 255.001 174.289 254.291C 174.2 253.581 174.129 254.26 174.131 255.8M226.446 253.467C 226.421 253.724 226.284 254.264 226.141 254.667C 225.94 255.236 225.994 255.297 226.379 254.942C 226.652 254.691 226.789 254.151 226.684 253.742C 226.579 253.334 226.472 253.21 226.446 253.467M283.023 254.666C 283.163 255.29 283.439 256.43 283.637 257.2C 284.6 260.957 283.92 267.731 282.053 272.977C 281.587 274.284 281.364 275.184 281.557 274.977C 281.945 274.559 283.246 270.806 283.99 267.958C 284.748 265.059 284.106 254.36 283.14 253.763C 282.923 253.629 282.874 254.005 283.023 254.666M225.665 256.4C 225.625 256.95 225.499 258.12 225.385 259C 225.206 260.394 225.234 260.473 225.608 259.614C 225.845 259.072 225.971 257.902 225.889 257.014C 225.807 256.126 225.706 255.85 225.665 256.4M225.251 264.8C 225.248 265.35 225.395 266.52 225.577 267.4L225.577 267.4L225.908 269L225.926 267.2C 225.936 266.21 225.789 265.04 225.6 264.6C 225.286 263.87 225.256 263.887 225.251 264.8M174.128 268.8C 174.128 270.23 174.201 270.815 174.289 270.1C 174.378 269.385 174.378 268.215 174.289 267.5C 174.201 266.785 174.128 267.37 174.128 268.8M227.003 272.85C 227.374 274.071 228.897 276.837 229.091 276.643C 229.172 276.561 228.87 275.837 228.42 275.035C 227.969 274.232 227.6 273.322 227.6 273.011C 227.6 272.701 227.401 272.324 227.157 272.174C 226.854 271.986 226.805 272.199 227.003 272.85M174.961 275.6L175 276.6L181.7 276.615L188.401 276.63L181.826 276.505C 175.39 276.384 175.248 276.362 175.087 275.49C 174.947 274.733 174.929 274.75 174.961 275.6M229.883 278.381C 230.277 279.141 232.139 281.301 234.019 283.181C 235.899 285.061 238.059 286.923 238.819 287.317C 240.147 288.007 240.162 288.007 239.218 287.317C 235.923 284.909 232.293 281.279 229.883 277.981C 229.193 277.038 229.193 277.053 229.883 278.381M279.378 278.29C 278.985 278.889 278.336 279.731 277.936 280.161C 277.536 280.59 277.292 281.025 277.394 281.128C 277.632 281.365 279.038 279.726 279.818 278.3C 280.594 276.883 280.304 276.876 279.378 278.29M320.6 278.8C 320.448 279.491 320.407 280.141 320.509 280.242C 320.611 280.344 320.809 279.853 320.95 279.15C 321.091 278.447 321.131 277.798 321.041 277.708C 320.95 277.617 320.752 278.109 320.6 278.8M319.429 282.829C 319.058 283.961 318.837 284.97 318.937 285.07C 319.037 285.17 319.425 284.329 319.8 283.2C 320.175 282.071 320.396 281.063 320.292 280.959C 320.188 280.854 319.799 281.696 319.429 282.829M275.393 283.104C 273.023 285.312 270.769 286.984 269.3 287.627C 268.585 287.939 268 288.332 268 288.499C 268 289.194 272.213 286.454 274.711 284.135C 276.19 282.762 277.31 281.631 277.2 281.623C 277.09 281.615 276.277 282.282 275.393 283.104M318.267 285.867C 318.12 286.013 318 286.44 318 286.814C 318 287.189 316.845 289.769 315.434 292.548C 314.023 295.326 312.989 297.6 313.137 297.6C 313.284 297.6 313.657 297.015 313.965 296.3C 314.273 295.585 314.857 294.522 315.263 293.938C 315.668 293.354 316 292.589 316 292.238C 316 291.887 316.18 291.6 316.4 291.6C 316.62 291.6 316.8 291.335 316.8 291.012C 316.8 290.689 317.13 289.834 317.534 289.112C 318.606 287.196 319.092 285.041 318.267 285.867M241.8 289.01C 242.68 289.552 243.61 289.997 243.867 289.998C 244.124 289.999 244.649 290.121 245.033 290.268C 245.509 290.451 245.639 290.387 245.442 290.068C 245.283 289.811 244.809 289.6 244.389 289.6C 243.968 289.6 242.983 289.24 242.2 288.8C 240.185 287.668 239.88 287.828 241.8 289.01M246.6 290.8C 247.701 291.273 248.092 291.273 247.8 290.8C 247.664 290.58 247.158 290.413 246.676 290.428C 245.831 290.455 245.829 290.469 246.6 290.8M261.6 290.745C 261.6 290.934 262.05 291.003 262.6 290.898C 263.15 290.793 263.6 290.638 263.6 290.553C 263.6 290.469 263.15 290.4 262.6 290.4C 262.05 290.4 261.6 290.555 261.6 290.745M251.089 291.701C 252.678 291.882 255.558 291.878 257.489 291.692C 260.752 291.38 260.548 291.356 254.6 291.365C 249.159 291.372 248.633 291.422 251.089 291.701" stroke="none" fill="#89AAB6" fill-rule="nonzero" />
        <path d="M329.082 103.452C 328.927 103.607 328.842 109.148 328.894 115.767L328.894 115.767L328.987 127.8L329.1 116.1C 329.162 109.665 329.344 104.404 329.506 104.408C 329.668 104.413 344.947 119.578 363.461 138.108C 401.517 176.2 397.511 171.426 397.878 179.123C 397.99 181.467 398.231 182.914 398.528 183.027C 398.873 183.159 398.963 185.054 398.864 190.051C 398.723 197.179 398.93 199.6 399.68 199.6C 400.291 199.6 399.844 178.281 399.229 178.076C 398.972 177.991 398.8 176.665 398.8 174.767C 398.8 172.519 398.657 171.6 398.305 171.6C 398.033 171.6 382.41 156.203 363.587 137.385C 344.764 118.567 329.237 103.297 329.082 103.452M399.152 201.9C 398.882 202.594 398.781 205.672 398.878 210.233C 399.002 216.045 398.923 217.569 398.476 217.987C 398.066 218.37 397.958 219.333 398.063 221.652C 398.142 223.401 398.039 224.854 397.829 224.924C 397.622 224.993 397.426 226.208 397.394 227.625C 397.362 229.041 397.112 230.617 396.839 231.128C 396.566 231.638 396.423 232.659 396.523 233.396C 396.622 234.133 396.535 234.905 396.329 235.111C 396.123 235.317 395.948 236.411 395.939 237.542C 395.93 238.674 395.76 239.6 395.562 239.6C 395.363 239.6 395.2 240.32 395.2 241.2C 395.2 242.08 395.02 242.8 394.8 242.8C 394.58 242.8 394.4 243.509 394.4 244.376C 394.4 245.243 394.22 246.064 394 246.2C 393.78 246.336 393.6 247.146 393.6 248C 393.6 248.854 393.42 249.664 393.2 249.8C 392.98 249.936 392.8 250.476 392.8 251C 392.8 251.524 392.62 252.064 392.4 252.2C 392.18 252.336 392 253.067 392 253.824C 392 254.581 391.82 255.2 391.6 255.2C 391.38 255.2 391.2 255.729 391.2 256.376C 391.2 257.023 391.02 257.664 390.8 257.8C 390.58 257.936 390.4 258.566 390.4 259.2C 390.4 259.834 390.22 260.464 390 260.6C 389.78 260.736 389.6 261.276 389.6 261.8C 389.6 262.324 389.42 262.864 389.2 263C 388.98 263.136 388.8 263.599 388.8 264.029C 388.8 264.459 388.641 265.123 388.447 265.505C 388.252 265.887 387.871 266.74 387.6 267.4C 387.329 268.06 386.948 268.913 386.753 269.295C 386.559 269.677 386.4 270.352 386.4 270.795C 386.4 271.238 386.22 271.6 386 271.6C 385.78 271.6 385.6 271.949 385.6 272.376C 385.6 272.803 385.42 273.264 385.2 273.4C 384.98 273.536 384.8 274.087 384.8 274.624C 384.8 275.161 384.62 275.6 384.4 275.6C 384.18 275.6 384 275.881 384 276.225C 384 276.569 383.447 278.054 382.772 279.525C 382.097 280.996 381.309 282.74 381.022 283.4C 379.78 286.255 378.578 288.61 378.3 288.733C 378.135 288.807 378 289.212 378 289.633C 378 290.055 377.82 290.4 377.6 290.4C 377.38 290.4 377.2 290.76 377.2 291.2C 377.2 291.64 377.02 292 376.8 292C 376.58 292 376.4 292.36 376.4 292.8C 376.4 293.24 376.22 293.6 376 293.6C 375.78 293.6 375.6 293.96 375.6 294.4C 375.6 294.84 375.454 295.2 375.275 295.2C 375.096 295.2 374.702 295.83 374.4 296.6C 374.098 297.37 373.733 298 373.588 298C 373.444 298 372.892 298.855 372.363 299.9C 371.833 300.945 371.265 301.86 371.1 301.933C 370.935 302.007 370.8 302.412 370.8 302.833C 370.8 303.255 370.65 303.6 370.468 303.6C 370.285 303.6 369.88 304.095 369.568 304.7C 369.255 305.305 368.685 306.149 368.3 306.575C 367.915 307.002 367.6 307.587 367.6 307.875C 367.6 308.164 367.45 308.4 367.268 308.4C 367.085 308.4 366.68 308.895 366.368 309.5C 366.056 310.105 365.704 310.69 365.585 310.8C 365.396 310.974 362.125 315.781 361 317.538C 360.78 317.881 360.106 318.711 359.502 319.381C 358.898 320.052 358.403 320.753 358.402 320.94C 358.401 321.126 357.86 321.783 357.2 322.4C 356.54 323.017 356 323.723 356 323.971C 356 324.219 355.208 325.213 354.24 326.181C 353.272 327.149 352.153 328.494 351.754 329.17C 351.354 329.847 350.906 330.4 350.757 330.4C 350.608 330.4 349.162 331.973 347.543 333.894C 343.789 338.353 338.353 343.789 333.894 347.543C 331.973 349.162 330.4 350.608 330.4 350.757C 330.4 350.906 329.847 351.354 329.17 351.754C 328.494 352.153 327.149 353.272 326.181 354.24C 325.213 355.208 324.219 356 323.971 356C 323.723 356 323.017 356.54 322.4 357.2C 321.783 357.86 321.126 358.401 320.94 358.402C 320.753 358.403 320.052 358.898 319.381 359.502C 318.711 360.106 317.881 360.78 317.538 361C 315.781 362.125 310.974 365.396 310.8 365.585C 310.69 365.704 310.105 366.056 309.5 366.368C 308.895 366.68 308.4 367.085 308.4 367.268C 308.4 367.45 308.164 367.6 307.875 367.6C 307.587 367.6 307.002 367.915 306.575 368.3C 306.149 368.685 305.305 369.255 304.7 369.568C 304.095 369.88 303.6 370.285 303.6 370.468C 303.6 370.65 303.255 370.8 302.833 370.8C 302.412 370.8 302.007 370.935 301.933 371.1C 301.86 371.265 300.945 371.833 299.9 372.363C 298.855 372.892 298 373.444 298 373.588C 298 373.733 297.37 374.098 296.6 374.4C 295.83 374.702 295.2 375.096 295.2 375.275C 295.2 375.454 294.84 375.6 294.4 375.6C 293.96 375.6 293.6 375.78 293.6 376C 293.6 376.22 293.24 376.4 292.8 376.4C 292.36 376.4 292 376.58 292 376.8C 292 377.02 291.64 377.2 291.2 377.2C 290.76 377.2 290.4 377.38 290.4 377.6C 290.4 377.82 290.055 378 289.633 378C 289.212 378 288.807 378.135 288.733 378.3C 288.61 378.578 286.255 379.78 283.4 381.022C 282.74 381.309 280.996 382.097 279.525 382.772C 278.054 383.447 276.569 384 276.225 384C 275.881 384 275.6 384.18 275.6 384.4C 275.6 384.62 275.161 384.8 274.624 384.8C 274.087 384.8 273.536 384.98 273.4 385.2C 273.264 385.42 272.803 385.6 272.376 385.6C 271.949 385.6 271.6 385.78 271.6 386C 271.6 386.22 271.238 386.4 270.795 386.4C 270.352 386.4 269.677 386.559 269.295 386.753C 268.913 386.948 268.06 387.329 267.4 387.6C 266.74 387.871 265.887 388.252 265.505 388.447C 265.123 388.641 264.459 388.8 264.029 388.8C 263.599 388.8 263.136 388.98 263 389.2C 262.864 389.42 262.324 389.6 261.8 389.6C 261.276 389.6 260.736 389.78 260.6 390C 260.464 390.22 259.834 390.4 259.2 390.4C 258.566 390.4 257.936 390.58 257.8 390.8C 257.664 391.02 257.023 391.2 256.376 391.2C 255.729 391.2 255.2 391.38 255.2 391.6C 255.2 391.82 254.581 392 253.824 392C 253.067 392 252.336 392.18 252.2 392.4C 252.064 392.62 251.524 392.8 251 392.8C 250.476 392.8 249.936 392.98 249.8 393.2C 249.664 393.42 248.854 393.6 248 393.6C 247.146 393.6 246.336 393.78 246.2 394C 246.064 394.22 245.243 394.4 244.376 394.4C 243.509 394.4 242.8 394.58 242.8 394.8C 242.8 395.02 242.08 395.2 241.2 395.2C 240.32 395.2 239.6 395.363 239.6 395.562C 239.6 395.76 238.674 395.93 237.542 395.939C 236.411 395.948 235.317 396.123 235.111 396.329C 234.905 396.535 234.133 396.622 233.396 396.523C 232.659 396.423 231.638 396.566 231.128 396.839C 230.617 397.112 229.041 397.362 227.625 397.394C 226.208 397.426 224.993 397.622 224.924 397.829C 224.854 398.038 223.406 398.143 221.667 398.064C 219.425 397.962 218.374 398.075 217.968 398.461C 217.531 398.876 215.583 399 209.521 399C 203.35 399 201.53 399.119 201.121 399.551C 200.679 400.018 202.326 400.059 212 399.823C 225.399 399.496 224.417 399.551 224.159 399.133C 224.045 398.95 225.504 398.8 227.4 398.8C 229.596 398.8 230.758 398.655 230.6 398.4C 230.447 398.152 231.196 398 232.576 398C 233.799 398 234.8 397.82 234.8 397.6C 234.8 397.38 235.79 397.2 237 397.2C 238.21 397.2 239.2 397.02 239.2 396.8C 239.2 396.58 239.999 396.4 240.976 396.4C 241.953 396.4 242.864 396.22 243 396C 243.136 395.78 243.946 395.6 244.8 395.6C 245.654 395.6 246.464 395.42 246.6 395.2C 246.736 394.98 247.467 394.8 248.224 394.8C 248.981 394.8 249.6 394.658 249.6 394.485C 249.6 394.312 250.182 394.126 250.893 394.072C 251.605 394.017 252.361 393.799 252.573 393.587C 252.786 393.374 253.464 393.2 254.08 393.2C 254.696 393.2 255.2 393.057 255.2 392.882C 255.2 392.707 255.866 392.519 256.681 392.464C 257.495 392.409 258.35 392.209 258.581 392.02C 258.955 391.712 260.953 391.223 262.3 391.109C 262.575 391.086 262.8 390.887 262.8 390.667C 262.8 390.447 262.913 390.38 263.051 390.517C 263.189 390.655 263.931 390.505 264.7 390.184C 265.469 389.863 266.436 389.6 266.849 389.6C 267.262 389.6 267.6 389.42 267.6 389.2C 267.6 388.98 267.955 388.8 268.388 388.8C 268.821 388.8 269.825 388.436 270.618 387.99C 271.411 387.545 271.956 387.348 271.829 387.553C 271.703 387.758 272.048 387.717 272.596 387.463C 273.145 387.208 273.595 386.865 273.597 386.7C 273.599 386.535 274.14 386.4 274.8 386.4C 275.46 386.4 276 386.22 276 386C 276 385.78 276.234 385.6 276.52 385.6C 277.256 385.6 279.193 384.659 279.197 384.3C 279.199 384.135 279.663 384 280.229 384C 280.794 384 281.529 383.728 281.861 383.396C 282.193 383.064 282.658 382.912 282.894 383.058C 283.149 383.215 283.207 383.136 283.038 382.862C 282.869 382.588 283.008 382.4 283.382 382.4C 283.728 382.4 284.368 382.22 284.805 382C 285.242 381.78 285.958 381.42 286.395 381.2C 286.832 380.98 287.492 380.8 287.861 380.8C 288.231 380.8 288.416 380.683 288.273 380.539C 287.973 380.24 289.816 379.2 290.646 379.2C 290.951 379.2 291.2 379.02 291.2 378.8C 291.2 378.58 291.571 378.4 292.024 378.4C 292.477 378.4 292.736 378.22 292.6 378C 292.464 377.78 292.598 377.6 292.897 377.6C 293.651 377.6 295.593 376.665 295.597 376.3C 295.599 376.135 295.96 376 296.4 376C 296.84 376 297.2 375.834 297.2 375.632C 297.2 375.429 297.74 375.145 298.4 375C 299.06 374.855 299.6 374.615 299.6 374.466C 299.6 374.317 300.185 373.941 300.9 373.63C 301.615 373.319 302.29 372.956 302.4 372.824C 302.51 372.692 303.126 372.317 303.769 371.992C 306.016 370.854 306.4 370.608 306.4 370.305C 306.4 370.137 306.625 370 306.9 370C 307.175 369.999 307.917 369.554 308.549 369.011C 309.181 368.467 310.036 367.916 310.449 367.784C 310.862 367.653 311.2 367.378 311.2 367.173C 311.2 366.968 311.52 366.8 311.912 366.8C 312.303 366.8 312.883 366.44 313.2 366C 313.517 365.56 313.969 365.2 314.204 365.2C 314.44 365.2 315.428 364.48 316.4 363.6C 317.372 362.72 318.36 362 318.596 362C 318.831 362 319.276 361.65 319.585 361.221C 319.893 360.793 320.281 360.527 320.447 360.629C 320.613 360.731 321.166 360.407 321.677 359.908C 322.188 359.408 323.324 358.469 324.203 357.821C 325.081 357.172 326.091 356.317 326.447 355.921C 326.803 355.524 327.278 355.2 327.504 355.2C 327.73 355.2 328.028 354.904 328.167 354.543C 328.305 354.181 328.525 353.992 328.655 354.122C 328.786 354.252 329.76 353.468 330.82 352.379C 331.88 351.291 332.933 350.4 333.16 350.4C 333.386 350.4 333.765 350.04 334 349.6C 334.235 349.16 334.609 348.8 334.83 348.8C 335.051 348.8 336.664 347.315 338.415 345.5C 342.258 341.518 341.518 342.258 345.5 338.415C 347.315 336.664 348.8 335.051 348.8 334.83C 348.8 334.609 349.16 334.235 349.6 334C 350.04 333.765 350.4 333.386 350.4 333.16C 350.4 332.933 351.291 331.88 352.379 330.82C 353.468 329.76 354.252 328.786 354.122 328.655C 353.992 328.525 354.181 328.305 354.543 328.167C 354.904 328.028 355.2 327.73 355.2 327.504C 355.2 327.278 355.524 326.803 355.921 326.447C 356.317 326.091 357.172 325.081 357.821 324.203C 358.469 323.324 359.408 322.188 359.908 321.677C 360.407 321.166 360.731 320.613 360.629 320.447C 360.527 320.281 360.793 319.893 361.221 319.585C 361.65 319.276 362 318.831 362 318.596C 362 318.36 362.72 317.372 363.6 316.4C 364.48 315.428 365.2 314.44 365.2 314.204C 365.2 313.969 365.56 313.517 366 313.2C 366.44 312.883 366.8 312.303 366.8 311.912C 366.8 311.52 366.968 311.2 367.173 311.2C 367.378 311.2 367.653 310.862 367.784 310.449C 367.916 310.036 368.467 309.181 369.011 308.549C 369.554 307.917 369.999 307.175 370 306.9C 370 306.625 370.137 306.4 370.305 306.4C 370.608 306.4 370.854 306.016 371.992 303.769C 372.317 303.126 372.692 302.51 372.824 302.4C 372.956 302.29 373.319 301.615 373.63 300.9C 373.941 300.185 374.317 299.6 374.466 299.6C 374.615 299.6 374.855 299.06 375 298.4C 375.145 297.74 375.429 297.2 375.632 297.2C 375.834 297.2 376 296.84 376 296.4C 376 295.96 376.135 295.599 376.3 295.597C 376.665 295.593 377.6 293.651 377.6 292.897C 377.6 292.598 377.78 292.464 378 292.6C 378.22 292.736 378.4 292.477 378.4 292.024C 378.4 291.571 378.58 291.2 378.8 291.2C 379.02 291.2 379.2 290.951 379.2 290.646C 379.2 289.816 380.24 287.973 380.539 288.273C 380.683 288.416 380.8 288.231 380.8 287.861C 380.8 287.492 381.008 286.787 381.262 286.295C 382.236 284.41 382.4 283.992 382.4 283.382C 382.4 283.008 382.588 282.869 382.862 283.038C 383.136 283.207 383.215 283.149 383.058 282.894C 382.912 282.658 383.064 282.193 383.396 281.861C 383.728 281.529 384 280.794 384 280.229C 384 279.663 384.135 279.199 384.3 279.197C 384.659 279.193 385.6 277.256 385.6 276.52C 385.6 276.234 385.78 276 386 276C 386.22 276 386.4 275.46 386.4 274.8C 386.4 274.14 386.535 273.599 386.7 273.597C 386.865 273.595 387.208 273.145 387.463 272.596C 387.717 272.048 387.758 271.703 387.553 271.829C 387.348 271.956 387.545 271.411 387.99 270.618C 388.436 269.825 388.8 268.821 388.8 268.388C 388.8 267.955 388.98 267.6 389.2 267.6C 389.42 267.6 389.6 267.262 389.6 266.849C 389.6 266.436 389.863 265.469 390.184 264.7C 390.505 263.931 390.655 263.189 390.517 263.051C 390.38 262.913 390.447 262.8 390.667 262.8C 390.887 262.8 391.086 262.575 391.109 262.3C 391.223 260.953 391.712 258.955 392.02 258.581C 392.209 258.35 392.409 257.495 392.464 256.681C 392.519 255.866 392.707 255.2 392.882 255.2C 393.057 255.2 393.2 254.696 393.2 254.08C 393.2 253.464 393.374 252.786 393.587 252.573C 393.799 252.361 394.017 251.605 394.072 250.893C 394.126 250.182 394.312 249.6 394.485 249.6C 394.658 249.6 394.8 248.981 394.8 248.224C 394.8 247.467 394.98 246.736 395.2 246.6C 395.42 246.464 395.6 245.654 395.6 244.8C 395.6 243.946 395.78 243.136 396 243C 396.22 242.864 396.4 241.953 396.4 240.976C 396.4 239.999 396.58 239.2 396.8 239.2C 397.02 239.2 397.2 238.21 397.2 237C 397.2 235.79 397.38 234.8 397.6 234.8C 397.82 234.8 398 233.799 398 232.576C 398 231.196 398.152 230.447 398.4 230.6C 398.655 230.758 398.8 229.596 398.8 227.4C 398.8 225.504 398.95 224.045 399.133 224.159C 399.55 224.417 399.493 225.404 399.836 212.1C 400.121 201.062 400.027 199.653 399.152 201.9M321 297.6L313 297.826L321.1 297.913C 326.291 297.969 329.2 297.856 329.2 297.6C 329.2 297.38 329.155 297.239 329.1 297.287C 329.045 297.335 325.4 297.476 321 297.6M121.7 347.86C 149.145 375.331 171.6 398.031 171.6 398.304C 171.6 398.657 172.513 398.8 174.767 398.8C 176.665 398.8 177.991 398.972 178.076 399.229C 178.281 399.844 199.6 400.291 199.6 399.68C 199.6 398.93 197.179 398.723 190.051 398.864C 185.054 398.963 183.159 398.873 183.027 398.528C 182.914 398.231 181.467 397.99 179.123 397.878C 171.396 397.51 178.286 403.601 122.332 347.669C 95.124 320.473 72.624 298.152 72.332 298.067C 72.039 297.982 94.255 320.389 121.7 347.86" stroke="none" fill="#B44C34" fill-rule="nonzero" />
        <path d="M97.8 140.405C 96.621 140.612 97.244 140.701 100.167 140.743C 102.348 140.774 104.058 140.735 103.967 140.656C 103.58 140.32 99.274 140.145 97.8 140.405M139.111 140.693C 140.051 140.778 141.491 140.777 142.311 140.691C 143.13 140.605 142.36 140.536 140.6 140.537C 138.84 140.539 138.17 140.609 139.111 140.693M169.5 140.695C 170.655 140.776 172.545 140.776 173.7 140.695C 174.855 140.614 173.91 140.548 171.6 140.548C 169.29 140.548 168.345 140.614 169.5 140.695M94 141.2C 93.467 141.545 93.467 141.588 94 141.588C 94.33 141.588 94.87 141.413 95.2 141.2C 95.733 140.855 95.733 140.812 95.2 140.812C 94.87 140.812 94.33 140.987 94 141.2M105.4 141.2C 105.536 141.42 106.042 141.587 106.524 141.572C 107.369 141.545 107.371 141.531 106.6 141.2C 105.499 140.727 105.108 140.727 105.4 141.2M166.667 141.067C 166.219 141.514 166.35 182.322 166.8 182.6C 167.065 182.764 167.2 175.737 167.2 161.824C 167.2 150.261 167.14 140.8 167.067 140.8C 166.993 140.8 166.813 140.92 166.667 141.067M130.99 142.79C 128.993 143.955 124.187 148.321 124.528 148.661C 124.626 148.759 125.702 147.795 126.919 146.52C 128.136 145.244 130.137 143.691 131.366 143.07C 133.453 142.013 134.017 141.588 133.3 141.609C 133.135 141.614 132.096 142.145 130.99 142.79M88.181 144.9L86.6 146.6L88.3 145.019C 89.881 143.548 90.184 143.2 89.881 143.2C 89.816 143.2 89.051 143.965 88.181 144.9M112.4 143.563C 112.4 143.803 112.636 144 112.925 144C 113.213 144 113.868 144.39 114.38 144.868C 114.904 145.356 115.229 145.488 115.124 145.171C 114.881 144.444 112.4 142.979 112.4 143.563M151.431 144.134C 154.704 146.835 156.653 149.267 158.161 152.532C 158.55 153.375 158.956 153.978 159.062 153.871C 159.708 153.225 155.262 146.738 152.929 144.924C 150.986 143.412 149.794 142.784 151.431 144.134M85.786 148.027C 85.437 148.702 85.207 149.414 85.276 149.609C 85.344 149.804 85.702 149.251 86.07 148.382C 86.865 146.506 86.687 146.284 85.786 148.027M113.014 148.635C 112.641 149.204 112.427 149.761 112.539 149.872C 112.65 149.983 113.029 149.518 113.381 148.837C 114.159 147.333 113.944 147.215 113.014 148.635M98 148.8C 97.3 149.024 97.841 149.118 99.8 149.113C 101.88 149.107 102.291 149.027 101.4 148.8C 99.856 148.407 99.227 148.407 98 148.8M139 148.816C 138.082 149.037 138.402 149.116 140.367 149.153C 141.778 149.179 142.858 149.136 142.767 149.057C 142.348 148.699 140.085 148.554 139 148.816M95.27 150.126C 93.435 152.079 95.34 156.459 97.991 156.382C 98.326 156.373 97.931 156.011 97.112 155.579C 94.562 154.233 94.017 151.887 95.858 150.181C 96.441 149.641 96.742 149.2 96.528 149.2C 96.314 149.2 95.748 149.617 95.27 150.126M104 149.6C 104.33 149.813 104.87 149.988 105.2 149.988C 105.733 149.988 105.733 149.945 105.2 149.6C 104.87 149.387 104.33 149.212 104 149.212C 103.467 149.212 103.467 149.255 104 149.6M107.371 150.786C 108.236 151.234 109.041 151.6 109.16 151.6C 109.654 151.6 107.724 150.487 106.8 150.24C 106.225 150.085 106.468 150.318 107.371 150.786M146.253 151.08C 146.942 151.696 148.067 153.09 148.753 154.178C 150.154 156.401 150.476 156.291 149.135 154.047C 148.013 152.17 146.8 150.822 145.8 150.344C 145.343 150.125 145.537 150.441 146.253 151.08M84.652 151.3C 84.336 152.479 84.382 155.214 84.733 156.1C 84.886 156.485 85.011 155.36 85.011 153.6C 85.011 150.074 85 150.004 84.652 151.3M132.985 152.185C 132.382 152.975 131.989 153.722 132.112 153.845C 132.235 153.968 132.529 153.707 132.765 153.265C 133.001 152.824 133.487 152.17 133.845 151.812C 134.203 151.455 134.402 151.069 134.288 150.955C 134.174 150.841 133.588 151.394 132.985 152.185M121.4 154.4C 121.25 154.873 121.217 155.35 121.327 155.46C 121.437 155.57 121.65 155.273 121.8 154.8C 121.95 154.327 121.983 153.85 121.873 153.74C 121.763 153.63 121.55 153.927 121.4 154.4M159.228 155.076C 159.213 155.558 159.38 156.064 159.6 156.2C 160.073 156.492 160.073 156.101 159.6 155C 159.269 154.229 159.255 154.231 159.228 155.076M120.676 156.81C 120.53 157.355 120.427 158.25 120.446 158.8C 120.471 159.518 120.584 159.357 120.849 158.227C 121.255 156.495 121.1 155.225 120.676 156.81M150.08 157.2C 150.08 157.75 150.224 158.65 150.4 159.2L150.4 159.2L150.72 160.2L150.72 159.2C 150.72 158.65 150.576 157.75 150.4 157.2L150.4 157.2L150.08 156.2L150.08 157.2zM101.8 157.6C 101.936 157.82 102.442 157.987 102.924 157.972C 103.769 157.945 103.771 157.931 103 157.6C 101.899 157.127 101.508 157.127 101.8 157.6M160.144 162C 160.139 166.419 160.178 166.71 160.477 164.5C 160.663 163.125 160.666 160.875 160.482 159.5C 160.188 157.292 160.148 157.585 160.144 162M85.225 157.978C 85.195 158.674 87.23 161.703 87.528 161.406C 87.643 161.291 87.357 160.792 86.892 160.298C 86.428 159.804 85.869 158.95 85.649 158.4C 85.43 157.85 85.239 157.66 85.225 157.978M104.6 158.4C 104.736 158.62 105.242 158.787 105.724 158.772C 106.569 158.745 106.571 158.731 105.8 158.4C 104.699 157.927 104.308 157.927 104.6 158.4M129.817 161.124C 129.681 161.743 129.745 162.688 129.96 163.224C 130.289 164.05 130.353 163.878 130.375 162.1C 130.403 159.775 130.193 159.409 129.817 161.124M111.191 161.083C 111.735 161.477 112.815 162.34 113.591 163C 114.366 163.66 114.73 163.84 114.4 163.4C 113.66 162.413 112.949 161.847 111.4 161.012C 110.207 160.369 110.206 160.369 111.191 161.083M150.893 162C 150.893 162.77 150.975 163.085 151.076 162.7C 151.176 162.315 151.176 161.685 151.076 161.3C 150.975 160.915 150.893 161.23 150.893 162M120.406 164.833C 120.409 165.585 120.592 166.47 120.812 166.8C 121.091 167.219 121.133 166.858 120.95 165.6C 120.625 163.359 120.398 163.04 120.406 164.833M93.558 164.808C 94.525 165.253 95.405 165.528 95.514 165.42C 95.721 165.212 94.486 164.681 92.8 164.253C 92.25 164.113 92.591 164.363 93.558 164.808M150.222 165.422C 150.072 166.225 150.038 166.972 150.148 167.082C 150.258 167.192 150.472 166.625 150.622 165.822C 150.773 165.019 150.806 164.273 150.696 164.163C 150.586 164.053 150.373 164.619 150.222 165.422M115.514 166.054C 115.872 166.964 116.228 167.516 116.306 167.281C 116.444 166.869 115.343 164.4 115.022 164.4C 114.935 164.4 115.157 165.144 115.514 166.054M96.8 166C 97.13 166.213 97.67 166.388 98 166.388C 98.533 166.388 98.533 166.345 98 166C 97.67 165.787 97.13 165.612 96.8 165.612C 96.267 165.612 96.267 165.655 96.8 166M130.428 166.276C 130.413 166.758 130.58 167.264 130.8 167.4C 131.273 167.692 131.273 167.301 130.8 166.2C 130.469 165.429 130.455 165.431 130.428 166.276M99.4 166.8C 99.84 166.989 100.47 167.144 100.8 167.144C 101.178 167.144 101.104 167.017 100.6 166.8C 100.16 166.611 99.53 166.456 99.2 166.456C 98.822 166.456 98.896 166.583 99.4 166.8M138.4 166.647C 138.4 166.783 139.679 168.313 141.243 170.047C 143.047 172.049 144.001 173.42 143.855 173.8C 143.605 174.452 144.207 174.636 144.585 174.024C 144.82 173.645 143.619 172.103 140.516 168.8L140.516 168.8L138.825 167L142.912 166.882C 146.899 166.767 147.023 166.791 147.913 167.82C 148.802 168.848 150 168.93 150 167.964C 150 167.624 149.859 167.619 149.465 167.946C 149.056 168.285 148.71 168.156 147.995 167.395C 147.098 166.44 138.4 165.762 138.4 166.647M101.82 167.524C 102.338 167.965 104.4 168.827 104.4 168.602C 104.4 168.381 102.159 167.2 101.74 167.2C 101.575 167.2 101.611 167.346 101.82 167.524M159.467 167.467C 159.32 167.613 159.215 168.198 159.234 168.767C 159.268 169.781 159.275 169.779 159.621 168.62C 159.985 167.403 159.931 167.002 159.467 167.467M121.212 168.4C 121.212 168.73 121.387 169.27 121.6 169.6C 121.945 170.133 121.988 170.133 121.988 169.6C 121.988 169.27 121.813 168.73 121.6 168.4C 121.255 167.867 121.212 167.867 121.212 168.4M105.472 169.891C 105.873 170.601 106.266 170.987 106.347 170.749C 106.428 170.511 106.101 169.93 105.619 169.458L105.619 169.458L104.745 168.6L105.472 169.891zM116.493 170.4C 116.493 171.17 116.575 171.485 116.676 171.1C 116.776 170.715 116.776 170.085 116.676 169.7C 116.575 169.315 116.493 169.63 116.493 170.4M132.013 169.716C 131.968 170.839 136.025 174.426 137.291 174.382C 137.571 174.373 137.154 174.023 136.365 173.606C 134.957 172.862 133.778 171.792 132.612 170.2C 132.289 169.76 132.02 169.542 132.013 169.716M84.798 174.041C 83.182 177.189 82.831 178.184 83.211 178.541C 83.585 178.892 83.654 178.858 83.507 178.4C 83.333 177.861 85.928 172.101 86.873 170.926C 87.157 170.574 87.772 170.758 89.276 171.645C 90.387 172.3 91.373 172.76 91.467 172.667C 91.619 172.514 87.449 170 87.043 170C 86.95 170 85.94 171.819 84.798 174.041M106.032 172.071C 106.014 172.44 105.526 173.115 104.946 173.571C 104.192 174.164 104.076 174.4 104.537 174.4C 105.32 174.4 106.556 172.626 106.269 171.913C 106.135 171.58 106.052 171.635 106.032 172.071M116.046 173.467C 116.021 173.724 115.884 174.264 115.741 174.667C 115.54 175.236 115.594 175.297 115.979 174.942C 116.252 174.691 116.389 174.151 116.284 173.742C 116.179 173.334 116.072 173.21 116.046 173.467M156.265 174.632C 155.502 176.232 155.99 177.138 159.365 180.378C 161.566 182.493 161.335 182.751 157.1 182.902L157.1 182.902L153.4 183.034L157 183.111C 161.928 183.216 162.265 182.924 159.993 180.515C 158.999 179.462 157.671 178.025 157.04 177.323L157.04 177.323L155.894 176.046L156.734 174.623C 157.195 173.84 157.432 173.2 157.261 173.2C 157.089 173.2 156.641 173.844 156.265 174.632M95 174C 95.136 174.22 95.642 174.387 96.124 174.372C 96.969 174.345 96.971 174.331 96.2 174C 95.099 173.527 94.708 173.527 95 174M176.4 174.493C 176.4 174.654 180.945 174.834 186.5 174.893L186.5 174.893L196.6 175L196.6 178.8L196.6 182.6L182 182.808L167.4 183.015L181.82 183.108C 192.608 183.177 196.361 183.079 196.72 182.72C 197.257 182.183 197.389 175.716 196.879 174.914C 196.534 174.372 176.399 173.958 176.4 174.493M99.2 174.825C 100.576 175.231 102.498 175.253 103.103 174.869C 103.382 174.691 102.406 174.545 100.903 174.54C 99.118 174.534 98.54 174.63 99.2 174.825M139.46 174.909C 140.284 175.16 141.116 175.152 141.86 174.885C 142.854 174.53 142.693 174.481 140.6 174.502C 138.441 174.523 138.327 174.564 139.46 174.909M124.832 175.5C 126.023 177.073 127.063 178.121 128.2 178.894C 128.906 179.373 128.535 178.857 127.3 177.64C 126.145 176.502 125.2 175.397 125.2 175.185C 125.2 174.973 124.998 174.8 124.751 174.8C 124.45 174.8 124.477 175.031 124.832 175.5M114.605 177.042C 114.178 177.835 113.102 179.117 112.214 179.891C 111.326 180.665 110.987 181.099 111.459 180.857C 112.58 180.281 115.6 176.844 115.6 176.144C 115.6 175.331 115.457 175.461 114.605 177.042M148.99 180.816C 148.825 181.083 149.085 181.144 149.717 180.985C 150.451 180.801 150.964 181.001 151.733 181.769C 153.179 183.215 153.601 183.062 152.2 181.6C 151.057 180.407 149.481 180.022 148.99 180.816M248.6 181.6L246.6 181.874L248.8 181.914C 250.01 181.936 251.72 181.805 252.6 181.623L252.6 181.623L254.2 181.292L252.4 181.309C 251.41 181.318 249.7 181.449 248.6 181.6M258.1 181.491C 258.925 181.578 260.275 181.578 261.1 181.491C 261.925 181.405 261.25 181.334 259.6 181.334C 257.95 181.334 257.275 181.405 258.1 181.491M92.6 182.4C 93.04 182.589 93.76 182.744 94.2 182.744L94.2 182.744L95 182.744L94.2 182.4C 93.76 182.211 93.04 182.056 92.6 182.056L92.6 182.056L91.8 182.056L92.6 182.4zM242.2 182.285C 241.76 182.391 241.22 182.651 241 182.863C 240.739 183.114 240.809 183.169 241.2 183.021C 241.53 182.896 242.88 182.637 244.2 182.446C 246.438 182.121 246.478 182.097 244.8 182.095C 243.81 182.094 242.64 182.179 242.2 182.285M267.2 182.293C 267.75 182.394 268.47 182.684 268.8 182.938C 269.322 183.34 269.329 183.309 268.851 182.7C 268.548 182.314 267.83 182.024 267.251 182.054L267.251 182.054L266.2 182.109L267.2 182.293zM97.937 183.321C 99.403 183.528 101.43 183.532 102.737 183.33C 104.725 183.024 104.416 182.98 100.2 182.972C 95.77 182.964 95.596 182.991 97.937 183.321M138.7 183.093C 139.635 183.177 141.165 183.177 142.1 183.093C 143.035 183.009 142.27 182.94 140.4 182.94C 138.53 182.94 137.765 183.009 138.7 183.093M239.599 196.219C 239.05 196.523 238.315 196.778 237.966 196.786C 237.318 196.8 232.842 198.157 231.4 198.776C 230.96 198.965 229.97 199.346 229.2 199.624C 228.43 199.901 227.62 200.306 227.4 200.523C 227.136 200.783 227.272 200.813 227.8 200.61C 232.191 198.92 233.98 198.27 235 197.993C 239.475 196.781 240.45 196.483 240.678 196.256C 241.219 195.714 240.553 195.691 239.599 196.219M205.567 198.117C 202.326 200.681 197.6 204.992 197.6 205.383C 197.6 205.542 198.635 204.69 199.9 203.489C 202.297 201.212 203.811 199.92 206.742 197.646L206.742 197.646L208.483 196.295L213.148 200.948C 217.662 205.45 218.478 206.044 218.997 205.205C 219.133 204.985 218.987 204.907 218.668 205.029C 218.305 205.169 216.357 203.551 213.365 200.625C 210.764 198.081 208.538 196.008 208.418 196.017C 208.298 196.026 207.015 196.971 205.567 198.117M307.6 200.925C 307.6 200.994 308.185 201.579 308.9 202.225L308.9 202.225L310.2 203.4L309.025 202.1C 307.93 200.888 307.6 200.616 307.6 200.925M223.5 202.229C 221.949 203.07 222.125 203.361 223.7 202.559C 225.208 201.793 225.475 201.594 224.967 201.616C 224.765 201.625 224.105 201.901 223.5 202.229M220.7 203.829C 220.095 204.157 219.6 204.51 219.6 204.613C 219.6 204.999 220.232 204.757 221.2 204C 222.389 203.07 222.211 203.009 220.7 203.829M193.927 209.152C 192.676 210.601 191.736 211.869 191.836 211.969C 191.936 212.07 192.324 211.713 192.698 211.176C 193.072 210.639 194.084 209.431 194.947 208.492C 195.811 207.552 196.446 206.724 196.358 206.65C 196.271 206.577 195.177 207.703 193.927 209.152M314 207.325C 314 207.394 314.585 207.979 315.3 208.625L315.3 208.625L316.6 209.8L315.425 208.5C 314.33 207.288 314 207.016 314 207.325M190.744 213.1C 189.475 214.632 189.019 215.342 189.481 215.065C 189.993 214.758 191.769 212.4 191.489 212.4C 191.398 212.4 191.063 212.715 190.744 213.1M320.657 215.403C 320.81 215.804 320.468 216.531 319.752 217.324L319.752 217.324L318.6 218.6L319.9 217.425C 321.222 216.23 321.516 215.443 320.805 215.003C 320.575 214.861 320.513 215.028 320.657 215.403M188.8 215.957C 188.8 216.084 190.867 218.261 193.394 220.794C 198.562 225.975 198.267 224.934 195.835 229.4C 195.057 230.828 194.98 231.114 195.564 230.4C 196.014 229.85 196.386 229.248 196.391 229.062C 196.396 228.876 196.743 228.242 197.161 227.655C 198.536 225.724 198.4 225.458 193.5 220.491C 190.915 217.87 188.8 215.83 188.8 215.957M314.903 222.1C 312.297 224.723 311.71 225.523 312.042 226C 312.414 226.533 312.44 226.533 312.276 226C 312.164 225.636 313.366 224.104 315.337 222.1C 317.122 220.285 318.492 218.8 318.382 218.8C 318.272 218.8 316.707 220.285 314.903 222.1M193.855 233.055C 193.476 233.849 193.248 234.581 193.349 234.682C 193.449 234.783 193.841 234.214 194.218 233.418C 194.596 232.622 194.823 231.89 194.724 231.791C 194.625 231.691 194.233 232.26 193.855 233.055M251.8 232.421C 250.921 232.629 251.34 232.718 253.367 232.753C 254.888 232.779 256.058 232.735 255.967 232.657C 255.567 232.313 252.897 232.162 251.8 232.421M247 233.2L246.2 233.544L247 233.566C 247.44 233.578 248.07 233.413 248.4 233.2C 249.195 232.686 248.196 232.686 247 233.2M240.321 235.922C 237.234 237.656 233.405 240.89 231.56 243.32C 230.635 244.54 230.987 244.285 232.843 242.392C 236.622 238.537 237.774 237.665 241.7 235.686C 243.493 234.783 243.985 234.389 243.3 234.408C 243.135 234.413 241.794 235.094 240.321 235.922M189.429 245.029C 189.281 245.615 189.251 246.184 189.361 246.294C 189.471 246.404 189.681 246.015 189.829 245.429C 189.976 244.842 190.006 244.273 189.896 244.163C 189.786 244.053 189.576 244.442 189.429 245.029M228.228 248.261C 227.656 249.284 227.269 250.202 227.367 250.301C 227.466 250.399 228.011 249.562 228.58 248.44C 229.873 245.888 229.625 245.762 228.228 248.261M188.8 247.533C 188.8 247.87 186.968 248 182.224 248C 178.607 248 175.563 248.135 175.461 248.3C 175.192 248.734 188.528 248.42 188.973 247.981C 189.179 247.779 189.224 247.49 189.073 247.34C 188.923 247.19 188.8 247.277 188.8 247.533M174.867 250.85C 174.83 251.428 174.705 252.507 174.589 253.25C 174.396 254.486 174.415 254.517 174.808 253.614C 175.045 253.071 175.17 251.991 175.086 251.214C 174.977 250.192 174.916 250.091 174.867 250.85M226.667 251.467C 226.52 251.613 226.411 252.108 226.425 252.567C 226.449 253.333 226.482 253.323 226.834 252.442C 227.226 251.463 227.144 250.989 226.667 251.467M225.867 253.867C 225.72 254.013 225.611 254.508 225.625 254.967C 225.649 255.733 225.682 255.723 226.034 254.842C 226.426 253.863 226.344 253.389 225.867 253.867M283.656 255.6C 283.656 255.93 283.811 256.56 284 257C 284.217 257.504 284.344 257.578 284.344 257.2C 284.344 256.87 284.189 256.24 284 255.8C 283.783 255.296 283.656 255.222 283.656 255.6M225.05 257.65C 224.732 259.24 224.796 266.304 225.14 267.524C 225.283 268.032 225.4 265.737 225.4 262.424C 225.4 255.796 225.406 255.872 225.05 257.65M174.148 262.4C 174.148 264.71 174.214 265.655 174.295 264.5C 174.376 263.345 174.376 261.455 174.295 260.3C 174.214 259.145 174.148 260.09 174.148 262.4M225.628 269.476C 225.613 269.958 225.78 270.464 226 270.6C 226.473 270.892 226.473 270.501 226 269.4C 225.669 268.629 225.655 268.631 225.628 269.476M174.451 270.6C 174.448 271.04 174.595 272.12 174.777 273L174.777 273L175.108 274.6L175.126 273C 175.136 272.12 174.989 271.04 174.8 270.6L174.8 270.6L174.456 269.8L174.451 270.6zM226.406 271.833C 226.409 272.255 226.595 272.87 226.818 273.2C 227.115 273.638 227.152 273.476 226.956 272.6C 226.627 271.129 226.398 270.81 226.406 271.833M228 275.777C 228 277.577 237.741 288.393 238.594 287.54C 238.681 287.452 237.69 286.531 236.392 285.492C 233.704 283.341 230.368 279.489 229.186 277.172C 228.481 275.792 228 275.225 228 275.777M321.067 276.667C 320.92 276.813 320.803 277.128 320.806 277.367C 320.81 277.636 320.929 277.616 321.12 277.316C 321.314 277.01 322.821 276.783 325.214 276.699L325.214 276.699L329 276.566L325.167 276.483C 323.058 276.437 321.213 276.52 321.067 276.667M189.234 278.4C 189.246 278.73 189.411 279.36 189.6 279.8L189.6 279.8L189.944 280.6L189.966 279.8C 189.978 279.36 189.813 278.73 189.6 278.4C 189.255 277.867 189.215 277.867 189.234 278.4M190.012 281.6C 190.012 281.93 190.187 282.47 190.4 282.8C 190.745 283.333 190.788 283.333 190.788 282.8C 190.788 282.47 190.613 281.93 190.4 281.6C 190.055 281.067 190.012 281.067 190.012 281.6M240 288.367C 240.963 289.152 241.6 289.408 241.6 289.01C 241.6 288.906 241.015 288.535 240.3 288.186L240.3 288.186L239 287.552L240 288.367zM192.417 288.3C 192.439 288.701 193.962 291.47 193.983 291.149C 194.011 290.735 192.805 288 192.595 288C 192.488 288 192.408 288.135 192.417 288.3M244 290.4C 244.33 290.613 244.96 290.778 245.4 290.766L245.4 290.766L246.2 290.744L245.4 290.4C 244.204 289.886 243.205 289.886 244 290.4M246.6 291.2C 246.736 291.42 247.242 291.587 247.724 291.572C 248.569 291.545 248.571 291.531 247.8 291.2C 246.699 290.727 246.308 290.727 246.6 291.2M194.305 292.281C 194.87 293.665 196.93 297.203 197.083 297.05C 197.167 296.966 196.688 295.967 196.018 294.831C 195.348 293.695 194.8 292.603 194.8 292.406C 194.8 292.209 194.622 291.937 194.405 291.803C 194.165 291.655 194.126 291.841 194.305 292.281M250.2 291.982C 250.951 292.322 255.927 292.572 255.567 292.252C 255.475 292.171 254.05 291.995 252.4 291.862C 250.482 291.708 249.689 291.751 250.2 291.982" stroke="none" fill="#6CA4BC" fill-rule="nonzero" />
	</g>
</g>
</svg>