<?xml version="1.0" standalone="no"?>
<!DOCTYPE svg PUBLIC "-//W3C//DTD SVG 1.0//EN" "http://www.w3.org/TR/2001/REC-SVG-20010904/DTD/svg10.dtd">
<svg xmlns="http://www.w3.org/2000/svg" xmlns:xlink="http://www.w3.org/1999/xlink" id="body_1" width="1500" height="1480">

<g transform="matrix(21.337126 0 0 21.337126 -0 -1.4651041)">
    <path d="M28.5 40.2L31.8 40.2L31.8 31.2L40.1 31.2L40.1 28L31.8 28L31.8 19L28.5 19L28.5 28L20.3 28L20.3 31.2L28.5 31.2L28.5 40.2z" stroke="none" fill="#E8762D" fill-rule="nonzero" />
    <path d="M13.2 53.2L16 53.2L16 45.2L23.4 45.2L23.4 42.7L16 42.7L16 34.6L13.2 34.6L13.2 42.699997L5.8 42.699997L5.8 45.199997L13.200001 45.199997L13.2 53.2z" stroke="none" fill="#C72037" fill-rule="nonzero" />
    <path d="M44.3 24.3L47.1 24.3L47.1 16.3L54.6 16.3L54.6 13.9L47.1 13.9L47.1 5.8L44.3 5.8L44.3 13.900001L36.899998 13.900001L36.899998 16.300001L44.3 16.300001L44.3 24.3z" stroke="none" fill="#5B879B" fill-rule="nonzero" />
    <path d="M29 59.5L31.4 59.5L31.4 53.8L36.5 53.8L36.5 51.7L31.4 51.7L31.4 46L29 46L29 51.7L24 51.7L24 53.8L29 53.8L29 59.5z" stroke="none" fill="#5C6692" fill-rule="nonzero" />
    <path d="M13.3 24.3L15.9 24.3L15.9 16.199999L23.4 16.199999L23.4 13.899999L15.9 13.899999L15.9 5.8L13.299999 5.8L13.299999 13.900001L5.8 13.900001L5.8 16.2L13.3 16.2L13.3 24.3z" stroke="none" fill="#EB9129" fill-rule="nonzero" />
    <path d="M52.8 36.3L55.2 36.3L55.2 30.699999L60.3 30.699999L60.3 28.499998L55.2 28.499998L55.2 22.899998L52.8 22.899998L52.8 28.499998L47.8 28.499998L47.8 30.699999L52.8 30.699999L52.8 36.3z" stroke="none" fill="#5C6692" fill-rule="nonzero" />
    <path d="M44.3 53.2L47.1 53.2L47.1 45.2L54.6 45.2L54.6 42.7L47.1 42.7L47.1 34.6L44.3 34.6L44.3 42.699997L36.899998 42.699997L36.899998 45.199997L44.3 45.199997L44.3 53.2z" stroke="none" fill="#1F457E" fill-rule="nonzero" />
    <path d="M36.1 7.2L36.1 5.5L31.099998 5.5L31.099998 0L29.3 0L29.3 5.5L24.3 5.5L24.3 7.2L29.3 7.2L29.3 12.7L31.099998 12.7L31.099998 7.2L36.1 7.2zM5 35.9L6.8 35.9L6.8 30.400002L11.8 30.400002L11.8 28.7L6.8 28.7L6.8 23.300001L5 23.300001L5 28.7L0 28.7L0 30.5L5 30.4z" stroke="none" fill="#7199A6" fill-rule="nonzero" />
</g>
</svg>