<?xml version="1.0" standalone="no"?>
<!DOCTYPE svg PUBLIC "-//W3C//DTD SVG 1.0//EN" "http://www.w3.org/TR/2001/REC-SVG-20010904/DTD/svg10.dtd">
<svg xmlns="http://www.w3.org/2000/svg" xmlns:xlink="http://www.w3.org/1999/xlink" id="body_1" width="614" height="461">

<g transform="matrix(0.6585714 0 0 0.6585714 362.9786 46.1)">
    <path d="M26.1 300.7L26.1 264.30002L14.4 264.30002L14.4 248.20001L26 248.20001L26 229L44.4 229L44.4 248.2L58.600002 248.2L58.600002 264.3L44.5 264.3L44.5 295.8C 44.5 300.3 46.8 303.59998 50.9 303.59998C 53.2 303.69998 55.5 302.89996 57.300003 301.39996L57.300003 301.39996L61.200005 315.49997C 58.400005 317.99997 53.500004 319.99997 45.800003 319.99997C 32.9 320 26.1 313.3 26.1 300.7zM62.9 283.1C 62.9 262.80002 78 246.3 99.2 246.3C 120.399994 246.3 134.29999 262 134.29999 284.8L134.29999 284.8L134.29999 289.19998L82.2 289.19998C 83.5 297.8 90.5 304.9 102.5 304.9C 108.4 304.9 116.6 302.4 121.1 298.1L121.1 298.1L129.4 310.30002C 122.399994 316.7 111.399994 320.00003 100.49999 320.00003C 79.1 320 62.9 305.6 62.9 283.1zM99.2 261.5C 87.7 261.5 82.799995 269.5 82.1 276.5L82.1 276.5L116.6 276.5C 116.1 269.8 111.4 261.5 99.2 261.5zM188.6 318.2L188.6 275.90002C 188.6 266.2 183.5 262.80002 175.70001 262.80002C 169.40001 262.90002 163.50002 265.90002 159.70001 270.90002L159.70001 270.90002L159.70001 318.2L141.30002 318.2L141.30002 248.1L159.70001 248.1L159.70001 257.1C 166.00002 250.20001 174.90001 246.3 184.20001 246.3C 199.70001 246.3 207.1 255 207.1 268.7L207.1 268.7L207.1 318.2L188.6 318.2zM259.7 318.2L259.7 310.80002C 254.90001 316.6 246.6 320.00003 237.50002 320.00003C 226.30002 320.00003 213.30002 312.50003 213.30002 296.80002C 213.30002 280.2 226.40002 274.2 237.50002 274.2C 246.90001 274.2 255.10002 277.30002 259.7 282.80002L259.7 282.80002L259.7 273.90002C 259.7 266.80002 253.6 262.2 244.30002 262.2C 236.70001 262.30002 229.50002 265.2 224.00002 270.5L224.00002 270.5L216.70001 257.6C 225.20001 250.3 236.1 246.3 247.30002 246.6C 263.40002 246.6 278.1 253 278.1 273.2L278.1 273.2L278.1 318.5L259.7 318.5zM259.7 301.4L259.7 292.69998C 256.7 288.59998 250.90001 286.49997 245.00002 286.49997C 237.70001 286.49997 231.80002 290.39996 231.80002 297.09998C 231.80002 303.8 237.70001 307.49997 245.00002 307.49997C 250.8 307.5 256.6 305.5 259.7 301.4zM286.1 318.2L286.1 221.40001L304.5 221.40001L304.5 257.1C 309.6 250.3 317.6 246.3 326.1 246.3C 344 246.3 357.2 260.2 357.2 283.1C 357.2 306.6 343.90002 319.9 326.1 319.9C 317.6 319.9 309.6 315.9 304.5 309.19998L304.5 309.19998L304.5 318.19998L286.1 318.2zM320.6 303.5C 331.2 303.5 338.30002 295.2 338.30002 283C 338.30002 270.8 331.2 262.7 320.6 262.7C 314.30002 262.80002 308.4 265.80002 304.6 270.80002L304.6 270.80002L304.6 295.6C 308.5 300.6 314.3 303.5 320.6 303.5zM363.5 318.2L363.5 221.40001L381.9 221.40001L381.9 318.2L363.5 318.2zM388.9 283.1C 388.9 262.80002 404 246.3 425.19998 246.3C 446.39996 246.3 460.3 262 460.3 284.8L460.3 284.8L460.3 289.19998L408.19998 289.19998C 409.49997 297.8 416.49997 304.9 428.49997 304.9C 434.39996 304.9 442.59998 302.4 447.09998 298.1L447.09998 298.1L455.39996 310.30002C 448.39996 316.7 437.39996 320.00003 426.49997 320.00003C 405 320 388.9 305.6 388.9 283.1zM425.1 261.5C 413.6 261.5 408.7 269.5 408 276.5L408 276.5L442.5 276.5C 442 269.8 437.3 261.5 425.1 261.5zM465.9 239.3C 466.8 239.8 467.6 240.6 468.1 241.5C 468.6 242.4 468.9 243.5 468.9 244.6C 468.9 245.70001 468.6 246.70001 468.1 247.70001C 467.6 248.6 466.80002 249.40001 465.9 249.90001C 465 250.40001 463.9 250.70001 462.8 250.70001C 460.59998 250.70001 458.59998 249.6 457.59998 247.70001C 457.09998 246.80002 456.8 245.70001 456.8 244.6C 456.8 243.5 457.09998 242.40001 457.59998 241.5C 458.09998 240.6 458.89996 239.8 459.8 239.3C 460.69998 238.7 461.8 238.5 462.8 238.5C 463.9 238.5 465 238.8 465.9 239.3zM465.3 248.9C 466 248.5 466.59998 247.79999 467 247.09999C 467.8 245.49998 467.8 243.59999 467 241.99998C 466.6 241.19998 466 240.59999 465.3 240.19998C 464.59998 239.79999 463.69998 239.49998 462.8 239.59998C 461.9 239.59998 461.09998 239.79997 460.4 240.19998C 459.69998 240.59998 459.1 241.29999 458.69998 241.99998C 457.9 243.59999 457.9 245.49998 458.69998 247.09999C 459.09998 247.9 459.69998 248.49998 460.4 248.9C 461.1 249.29999 462 249.59999 462.8 249.5C 463.7 249.6 464.6 249.3 465.3 248.9zM465 244.4C 464.7 244.7 464.3 245 463.9 245.09999L463.9 245.09999L465.69998 247.79999L464.09998 247.79999L462.59998 245.29999L462 245.29999L462 247.79999L460.6 247.79999L460.6 241.09999L462.4 241.09999C 464.4 241.09999 465.3 241.79999 465.3 243.09999C 465.4 243.7 465.3 244.1 465 244.4zM462 244.2L462.7 244.2C 463.6 244.2 464 243.9 464 243.2C 464 242.9 463.9 242.59999 463.7 242.5C 463.40002 242.3 463 242.3 462.7 242.3L462.7 242.3L462 242.3L462 244.2z" stroke="none" fill="#445464" fill-rule="nonzero" />
    <path d="M-14.1 229.2C -13.700001 230.59999 -12.400001 235.7 -11.1 240.5L-11.1 240.5L-0.9000006 278.6C 0.39999938 283.4 1.7999995 288.5 2.0999994 289.9C 2.5999994 292 1.9999994 294.19998 0.4999994 295.69998L0.4999994 295.69998L-7.8000007 303.99997L-35.6 331.79996C -39.1 335.49997 -42.699997 339.19995 -43.899998 340.09995C -45.499996 341.49994 -47.699997 342.09995 -49.699997 341.69995L-49.699997 341.69995L-60.999996 338.69995L-99.09999 328.49994L-110.399994 325.49994C -111.399994 325.19995 -112.299995 324.69995 -113.09999 323.89993C -113.899994 323.19992 -114.399994 322.19992 -114.69999 321.19992C -115.09999 319.79993 -116.39999 314.69992 -117.69999 309.89993L-117.69999 309.89993L-127.89999 271.79993L-130.9 260.49994L-129.4 259.99994L-127.899994 259.59995C -127.49999 260.99994 -126.2 266.09995 -124.899994 270.89993L-124.899994 270.89993L-114.7 309.09995C -113.399994 313.89993 -112 318.99994 -111.7 320.39993C -111.5 320.89993 -111.2 321.29993 -110.899994 321.69992C -110.49999 322.0999 -110.09999 322.39993 -109.59999 322.4999L-109.59999 322.4999L-98.29999 325.4999L-60.19999 335.69992L-48.89999 338.69992C -47.89999 338.89993 -46.79999 338.5999 -45.99999 337.89993L-45.99999 337.89993L-37.69999 329.59995L-9.79999 301.69995L-1.4999895 293.39996C -0.7999895 292.59998 -0.59998953 291.49997 -0.6999895 290.49997C -1.0999895 289.09998 -2.3999896 283.99997 -3.6999896 279.19998L-3.6999896 279.19998L-14 241.3C -15.3 236.5 -16.7 231.40001 -17 230C -17.2 229.5 -17.5 229.1 -17.8 228.7C -18.199999 228.3 -18.599998 228 -19.099998 227.9L-19.099998 227.9L-30.399998 224.79999L-68.399994 214.59999L-79.799995 211.59999C -80.799995 211.4 -81.899994 211.7 -82.7 212.4L-82.7 212.4L-91 220.7L-118.9 248.59999L-127.200005 256.9C -127.9 257.69998 -128.20001 258.8 -128 259.8L-128 259.8L-129.5 260.09998L-131 260.49997C -131.5 258.39996 -130.9 256.19998 -129.4 254.69997L-129.4 254.69997L-121.09999 246.39996L-93.19999 218.59996L-84.89999 210.29996C -83.29999 208.79996 -81.09998 208.29996 -79.09998 208.69995L-79.09998 208.69995L-67.79998 211.69995L-29.699982 221.89995L-18.399982 224.89995C -17.399982 225.19995 -16.499983 225.79994 -15.699983 226.49995C -14.9 227.3 -14.4 228.2 -14.1 229.2z" stroke="none" fill="#00A6B4" fill-rule="nonzero" />
    <path d="M-61.9 219.1L-53.600002 223.90001L-25.400002 240.20001L-17.000002 245.00002C -15.500002 245.90001 -14.600002 247.50002 -14.500002 249.30002L-14.500002 249.30002L-14.500002 258.90002L-14.500002 301.10004C -14.600002 302.90002 -15.500002 304.50003 -17.000002 305.40002L-17.000002 305.40002L-25.300003 310.2L-53.600002 326.5L-61.9 331.3C -62.7 331.69998 -63.5 331.9 -64.4 331.9C -65.3 331.9 -66.1 331.69998 -66.9 331.3L-66.9 331.3L-75.200005 326.5L-103.5 310.2L-111.8 305.40002L-111.200005 304.30002L-110.600006 303.2L-102.3 308L-74.100006 324.3L-65.700005 329.09998C -65.3 329.3 -64.9 329.39996 -64.50001 329.39996C -64.100006 329.39996 -63.600006 329.29996 -63.20001 329.09998L-63.20001 329.09998L-54.90001 324.3L-26.700008 308L-18.40001 303.2C -17.700008 302.7 -17.200008 301.90002 -17.00001 301L-17.00001 301L-17.00001 291.4L-17.00001 249.2C -17.10001 248.3 -17.60001 247.5 -18.300009 247.09999L-18.300009 247.09999L-26.60001 242.29999L-54.80001 225.99998L-63.10001 221.19998C -63.50001 220.99998 -63.90001 220.89998 -64.40001 220.89998C -64.80001 220.89998 -65.30001 220.99998 -65.600006 221.19998L-65.600006 221.19998L-74.00001 225.99998L-102.20001 242.29999L-110.500015 247.09999C -111.20001 247.59999 -111.70001 248.4 -111.80002 249.29999L-111.80002 249.29999L-111.80002 258.9L-111.80002 301.1C -111.70002 302 -111.30002 302.7 -110.500015 303.30002L-110.500015 303.30002L-111.10001 304.40002L-111.70001 305.50003C -113.20001 304.60004 -114.10001 303.00003 -114.20001 301.20004C -114.20001 300.00003 -114.20001 295.70004 -114.20001 291.60004L-114.20001 291.60004L-114.20001 249.40004C -114.10001 247.60004 -113.20001 246.00005 -111.70001 245.10004L-111.70001 245.10004L-103.40001 240.30003L-75.100006 224.00003L-66.8 219.20003C -66 218.80003 -65.200005 218.60002 -64.3 218.60002C -63.5 218.5 -62.6 218.7 -61.9 219.1z" stroke="none" fill="#00A6B4" fill-rule="nonzero" />
    <path d="M-98.1 238L-89.799995 235.8L-61.799995 228.3L-53.499996 226.1C -51.999996 225.8 -50.399998 226.20001 -49.199997 227.3L-49.199997 227.3L-43.1 233.40001L-22.599998 253.90001L-16.499998 260C -15.399998 261.1 -14.999998 262.8 -15.399998 264.3C -15.699998 265.3 -16.699997 269.09998 -17.599998 272.59998L-17.599998 272.59998L-25.099998 300.59998C -26.099998 304.09998 -27.099998 307.99997 -27.3 308.89996C -27.5 309.59998 -27.9 310.29996 -28.5 310.89996C -29 311.49997 -29.7 311.89996 -30.5 312.09998L-30.5 312.09998L-38.8 314.3L-66.8 321.8L-75.100006 324L-75.40001 323L-75.70001 321.9L-67.40001 319.69998L-39.40001 312.19998L-31.10001 309.99997C -30.70001 309.89996 -30.40001 309.69998 -30.10001 309.39996C -29.80001 309.09998 -29.60001 308.79996 -29.50001 308.39996L-29.50001 308.39996L-27.300009 300.09998L-19.800009 272.09998C -18.800009 268.59998 -17.800009 264.8 -17.600008 263.8C -17.500008 263 -17.700008 262.3 -18.200008 261.69998L-18.200008 261.69998L-24.200008 255.59998L-44.70001 235.09998L-50.800007 228.99997C -51.400005 228.49997 -52.20001 228.29997 -52.900005 228.39996L-52.900005 228.39996L-61.200005 230.59996L-89.200005 238.19997L-97.50001 240.39996C -97.90001 240.49997 -98.200005 240.69997 -98.50001 240.99997C -98.80001 241.29997 -99.00001 241.59998 -99.100006 241.99997C -99.40001 242.99997 -100.40001 246.79997 -101.3 250.29997L-101.3 250.29997L-108.8 278.19998C -109.700005 281.69998 -110.700005 285.49997 -111 286.49997C -111.1 287.29996 -110.9 287.99997 -110.4 288.59998L-110.4 288.59998L-104.3 294.69998L-83.8 315.19998L-77.700005 321.3C -77.100006 321.8 -76.3 322 -75.600006 321.9L-75.600006 321.9L-75.3 323L-75 324.1C -76.5 324.4 -78.1 324 -79.3 322.9L-79.3 322.9L-85.4 316.8L-106 296L-112.1 289.9C -113.2 288.8 -113.6 287.19998 -113.299995 285.6C -112.99999 284.6 -111.99999 280.80002 -111.1 277.30002L-111.1 277.30002L-103.6 249.30002L-101.4 241.00002C -101.200005 240.30002 -100.8 239.60002 -100.200005 239.00002C -99.5 238.6 -98.8 238.2 -98.1 238z" stroke="none" fill="#00A6B4" fill-rule="nonzero" />
    <path d="M-105.5 316.4C -128.2 293.69998 -128.2 256.9 -105.5 234.09999C -82.8 211.29999 -46 211.4 -23.199997 234.09999C -0.3999939 256.8 -0.4999962 293.59998 -23.199997 316.4C -23.199997 316.4 -23.199997 316.4 -23.199997 316.4C -45.9 339.1 -82.7 339.1 -105.5 316.4C -105.5 316.4 -105.5 316.4 -105.5 316.4zM-25.1 314.5C -3.5 292.8 -3.6000004 257.7 -25.300001 236.2C -47 214.59999 -82.1 214.7 -103.600006 236.4C -125.100006 258 -125.100006 293 -103.50001 314.59998C -81.9 336.3 -46.8 336.2 -25.1 314.5C -25.1 314.6 -25.1 314.6 -25.1 314.5z" stroke="none" fill="#00A6B4" fill-rule="nonzero" />
    <path d="M-62.5 233.1L-56.3 236.70001L-35.4 248.70001L-29.2 252.30002C -28.1 253.00002 -27.400002 254.20001 -27.400002 255.50002L-27.400002 255.50002L-27.400002 262.6L-27.400002 293.9C -27.500002 295.19998 -28.100002 296.4 -29.2 297.1L-29.2 297.1L-35.4 300.6L-56.300003 312.7L-62.500004 316.30002C -63.100002 316.6 -63.700005 316.80002 -64.3 316.80002C -64.9 316.80002 -65.600006 316.6 -66.100006 316.30002L-66.100006 316.30002L-72.3 312.7L-93.200005 300.6L-99.4 297L-98.9 296.2L-98.4 295.40002L-92.3 299.00003L-71.4 311.10004L-65.200005 314.70004C -64.9 314.90005 -64.600006 314.90005 -64.3 314.90005C -64 314.90005 -63.700005 314.90005 -63.4 314.70004L-63.4 314.70004L-57.2 311.10004L-36.300003 299.00003L-30.100002 295.40002C -29.600002 295.00003 -29.200003 294.50003 -29.200003 293.80002L-29.200003 293.80002L-29.200003 286.7L-29.200003 255.40001C -29.300003 254.8 -29.600002 254.20001 -30.100002 253.8L-30.100002 253.8L-36.300003 250.2L-57.100002 238.2L-63.300003 234.59999C -63.600002 234.49998 -63.9 234.4 -64.200005 234.4C -64.50001 234.4 -64.8 234.5 -65.100006 234.59999L-65.100006 234.59999L-71.3 238.2L-92.200005 250.2L-98.4 253.8C -98.9 254.2 -99.3 254.8 -99.3 255.40001L-99.3 255.40001L-99.3 262.5L-99.3 293.8C -99.200005 294.4 -98.9 295 -98.4 295.4L-98.4 295.4L-98.9 296.19998L-99.4 296.99997C -100.5 296.29996 -101.200005 295.09998 -101.200005 293.79996L-101.200005 293.79996L-101.200005 286.59995L-101.200005 255.29994C -101.200005 253.99994 -100.50001 252.79994 -99.4 252.09995L-99.4 252.09995L-93.200005 248.49994L-72.3 236.49994L-66.100006 232.89993C -65.50001 232.59993 -64.90001 232.39993 -64.3 232.39993C -63.7 232.7 -63.1 232.8 -62.5 233.1z" stroke="none" fill="#00A6B4" fill-rule="nonzero" />
    <path d="M-94.8 305.1C -111.600006 288.30002 -111.600006 261 -94.8 244.20001C -78 227.40002 -50.700005 227.40001 -33.9 244.20001C -17.100002 261 -17.100002 288.30002 -33.9 305.1C -50.7 322 -78 322 -94.8 305.1zM-35.3 303.8C -19.3 287.8 -19.4 261.8 -35.399998 245.79999C -51.399994 229.79999 -77.399994 229.9 -93.399994 245.9C -109.299995 261.9 -109.299995 287.8 -93.399994 303.8C -77.4 319.8 -51.4 319.9 -35.3 303.8C -35.4 303.8 -35.3 303.8 -35.3 303.8z" stroke="none" fill="#00A6B4" fill-rule="nonzero" />
</g>
</svg>