<?xml version="1.0" standalone="no"?>
<!DOCTYPE svg PUBLIC "-//W3C//DTD SVG 1.0//EN" "http://www.w3.org/TR/2001/REC-SVG-20010904/DTD/svg10.dtd">
<svg xmlns="http://www.w3.org/2000/svg" xmlns:xlink="http://www.w3.org/1999/xlink" id="body_1" width="614" height="461">

<g transform="matrix(0.9003906 0 0 0.9003906 76.500015 -0)">
	<g>
        <path d="M389.712 8.122C 389.769 8.411 389.089 8.552 387.804 8.517C 386.663 8.487 385.678 8.664 385.504 8.932C 385.282 9.274 385.094 9.238 384.806 8.8C 384.469 8.286 384.411 8.301 384.406 8.9C 384.403 9.285 384.229 9.6 384.02 9.6C 383.811 9.6 383.462 9.285 383.246 8.9C 382.891 8.27 382.812 8.299 382.451 9.2C 382.231 9.75 382.039 10.001 382.025 9.758C 381.984 9.029 377.607 9.266 377.572 10C 377.553 10.413 377.451 10.364 377.246 9.842C 376.97 9.138 376.889 9.16 376.111 10.15C 375.571 10.837 375.212 11.036 375.103 10.709C 374.917 10.152 371.6 9.927 371.6 10.471C 371.6 10.652 371.409 10.8 371.176 10.8C 370.943 10.8 370.864 10.62 371 10.4C 371.442 9.685 370.852 9.977 369.991 10.9C 369.437 11.494 369.236 11.575 369.403 11.14C 369.727 10.292 368.418 10.338 367.699 11.2C 367.255 11.731 367.222 11.73 367.409 11.186C 367.553 10.766 367.363 10.571 366.81 10.571C 366.33 10.571 366 10.835 366 11.219C 366 11.575 365.73 11.867 365.4 11.867C 365.07 11.867 364.8 11.717 364.8 11.533C 364.8 11.35 364.519 11.2 364.176 11.2C 363.833 11.2 363.664 11.38 363.8 11.6C 363.936 11.82 363.867 12 363.647 12C 363.427 12 363.138 11.823 363.003 11.606C 362.707 11.126 360.971 11.363 361.072 11.87C 361.111 12.068 360.661 12.248 360.072 12.27C 359.482 12.293 359.315 12.228 359.7 12.126C 360.085 12.024 360.4 11.79 360.4 11.606C 360.4 11.118 359.187 11.373 358.84 11.935C 358.659 12.228 357.973 12.34 357.072 12.225C 355.896 12.075 355.6 12.169 355.6 12.695C 355.6 13.253 355.509 13.235 354.999 12.576C 354.407 11.812 354.402 11.812 354.674 12.6C 354.928 13.336 354.89 13.352 354.198 12.8C 353.785 12.47 353.57 12.406 353.721 12.658C 354.035 13.183 352.785 13.8 352.432 13.294C 352.017 12.7 350.272 12.822 349.791 13.48C 349.418 13.991 349.256 14.015 348.999 13.599C 348.768 13.224 348.836 13.169 349.238 13.402C 349.547 13.582 349.66 13.574 349.488 13.386C 349.085 12.942 347.934 12.77 348.195 13.192C 348.484 13.659 346.807 13.996 345.345 13.765C 344.51 13.633 343.875 13.782 343.445 14.212C 342.866 14.791 342.8 14.793 342.8 14.229C 342.8 13.883 342.62 13.6 342.4 13.6C 342.18 13.6 342.045 13.803 342.1 14.05C 342.155 14.298 341.95 14.591 341.644 14.702C 341.304 14.826 341.197 14.729 341.368 14.452C 341.522 14.203 341.457 14 341.224 14C 340.991 14 340.8 14.21 340.8 14.467C 340.8 14.723 340.683 14.816 340.54 14.673C 340.396 14.53 340.042 14.725 339.752 15.106C 339.255 15.761 339.225 15.76 339.213 15.076C 339.204 14.599 339.03 14.459 338.7 14.665C 337.966 15.124 337.161 15.187 337.422 14.765C 337.872 14.037 336.811 14.422 336.016 15.275C 335.242 16.105 335.2 16.11 335.194 15.375C 335.19 14.911 335.07 14.777 334.894 15.04C 334.48 15.661 332.401 15.997 332.394 15.445C 332.39 15.194 332.237 15.237 332.042 15.545C 331.751 16.006 331.668 16.006 331.513 15.545C 331.36 15.089 331.217 15.093 330.643 15.568C 330.179 15.951 328.799 16.156 326.401 16.199C 324.413 16.235 322.602 16.466 322.293 16.722C 321.989 16.975 321.359 17.108 320.893 17.018C 320.285 16.901 320.108 17.016 320.266 17.427C 320.387 17.742 320.306 18 320.086 18C 319.866 18 319.563 17.685 319.414 17.3C 319.171 16.672 319.094 16.665 318.671 17.225C 318.196 17.854 316.596 18.653 316.947 18.086C 317.051 17.918 316.258 17.771 315.186 17.759C 313.894 17.744 313.324 17.882 313.495 18.168C 313.637 18.406 313.449 18.353 313.077 18.051C 312.705 17.749 312.4 17.666 312.4 17.866C 312.4 18.066 312.085 18.265 311.7 18.309C 310.419 18.453 309.805 18.619 309.238 18.973C 308.866 19.205 308.767 19.177 308.945 18.89C 309.12 18.606 308.74 18.481 307.847 18.528C 307.095 18.568 306.563 18.735 306.664 18.9C 306.765 19.065 306.466 19.2 306 19.2C 305.534 19.2 305.264 19.02 305.4 18.8C 305.536 18.58 305.472 18.4 305.257 18.4C 305.042 18.4 304.798 18.607 304.713 18.861C 304.628 19.115 304.118 19.361 303.58 19.409C 303.041 19.457 302.645 19.7 302.7 19.948C 302.835 20.557 302.314 20.517 301.4 19.85C 300.741 19.367 300.555 19.404 299.893 20.15C 299.479 20.617 299.253 20.775 299.393 20.5C 299.557 20.177 299.347 20 298.8 20C 298.334 20 298.045 20.15 298.159 20.333C 298.272 20.517 298.111 20.667 297.8 20.667C 297.489 20.667 297.328 20.517 297.441 20.333C 297.775 19.793 297.048 19.951 296.079 20.63C 295.421 21.09 295.21 21.12 295.29 20.739C 295.351 20.453 294.996 20.157 294.502 20.082C 293.823 19.978 293.663 20.098 293.845 20.572C 294.004 20.988 293.86 21.2 293.419 21.2C 293.053 21.2 292.857 21.032 292.984 20.826C 293.125 20.597 292.757 20.583 292.038 20.789C 291.39 20.975 290.761 21.028 290.64 20.906C 290.519 20.785 290.145 20.914 289.81 21.192C 289.328 21.592 289.2 21.594 289.2 21.2C 289.2 20.804 289.078 20.804 288.604 21.196C 288.277 21.468 288.125 21.878 288.266 22.107C 288.417 22.351 288.33 22.404 288.055 22.234C 287.798 22.075 287.672 21.807 287.776 21.639C 287.88 21.471 287.695 21.333 287.365 21.333C 287.001 21.333 286.854 21.565 286.992 21.923C 287.164 22.371 287.092 22.409 286.696 22.079C 286.044 21.539 284.698 21.706 284.482 22.355C 284.362 22.713 284.069 22.675 283.36 22.211C 282.477 21.632 282.4 21.636 282.4 22.257C 282.4 22.629 282.282 22.815 282.137 22.67C 281.992 22.525 281.632 22.607 281.337 22.852C 280.942 23.18 280.8 23.179 280.8 22.849C 280.8 22.237 279.716 22.278 279.465 22.9C 279.304 23.3 279.257 23.3 279.232 22.9C 279.214 22.625 278.829 22.4 278.376 22.4C 277.923 22.4 277.664 22.58 277.8 22.8C 277.936 23.02 277.857 23.2 277.624 23.2C 277.391 23.2 277.2 23.02 277.2 22.8C 277.2 22.159 276.335 22.338 275.757 23.1C 275.465 23.485 275.22 23.62 275.213 23.4C 275.197 22.899 271.2 23.136 271.2 23.639C 271.2 23.837 270.919 24 270.576 24C 270.233 24 270.045 23.85 270.159 23.667C 270.272 23.483 270.12 23.333 269.821 23.333C 269.502 23.333 269.371 23.581 269.506 23.932C 269.674 24.371 269.584 24.437 269.168 24.178C 268.367 23.68 266.663 23.967 266.265 24.667C 265.976 25.173 265.859 25.16 265.429 24.572C 264.973 23.949 264.907 23.945 264.679 24.537C 264.524 24.941 264.183 25.091 263.775 24.935C 263.406 24.794 262.964 24.928 262.766 25.242C 262.571 25.549 262.409 25.607 262.406 25.372C 262.403 25.119 261.5 24.948 260.2 24.955C 258.853 24.963 258 25.141 258 25.414C 258 25.684 257.523 25.791 256.8 25.685C 256.049 25.575 255.6 25.685 255.6 25.978C 255.6 26.254 255.394 26.318 255.1 26.134C 254.426 25.712 253.553 25.708 252.664 26.123C 252.259 26.312 251.133 26.467 250.161 26.467C 249.189 26.467 248.496 26.632 248.621 26.833C 248.745 27.035 248.567 27.2 248.224 27.2C 247.881 27.2 247.6 27.02 247.6 26.8C 247.6 26.58 247.33 26.4 247 26.4C 246.67 26.4 246.4 26.578 246.4 26.796C 246.4 27.013 245.995 27.19 245.5 27.19C 243.746 27.187 243.279 27.339 243.475 27.851C 243.685 28.398 242.444 28.325 241.498 27.734C 240.729 27.253 240.015 27.229 240.112 27.687C 240.161 27.914 239.946 28.192 239.636 28.305C 239.246 28.446 239.15 28.308 239.324 27.855C 239.462 27.495 239.401 27.2 239.187 27.2C 238.974 27.2 238.8 27.387 238.8 27.615C 238.8 27.863 238.17 27.954 237.233 27.841C 236.09 27.704 235.604 27.813 235.439 28.243C 235.277 28.665 235.01 28.731 234.506 28.471C 233.69 28.052 232.688 28.295 233.02 28.833C 233.144 29.033 232.746 29.008 232.135 28.775C 231.22 28.427 230.933 28.476 230.512 29.053C 230.069 29.658 229.854 29.56 229.925 28.783C 229.936 28.664 229.601 28.54 229.181 28.509C 228.761 28.477 228.458 28.665 228.508 28.925C 228.563 29.206 228.11 29.4 227.4 29.4C 226.74 29.4 225.976 29.699 225.703 30.063C 225.176 30.767 223.645 30.633 223.106 29.835C 222.917 29.555 222.806 29.614 222.793 30C 222.779 30.456 222.62 30.408 222.133 29.8C 221.554 29.076 221.517 29.071 221.751 29.746C 221.974 30.388 221.841 30.468 220.805 30.315C 219.982 30.195 219.6 30.307 219.6 30.669C 219.6 30.961 219.42 31.2 219.2 31.2C 218.98 31.2 218.845 30.987 218.9 30.728C 218.964 30.425 218.318 30.227 217.1 30.177C 215.69 30.12 215.2 30.246 215.2 30.667C 215.2 30.98 214.975 31.189 214.7 31.134C 214.425 31.078 213.791 31.259 213.291 31.535C 212.534 31.954 212.277 31.934 211.762 31.419C 211.421 31.079 210.841 30.803 210.471 30.806C 210.038 30.81 209.961 30.916 210.256 31.106C 210.587 31.319 210.561 31.539 210.164 31.908C 209.445 32.575 209.16 32.58 208.751 31.934C 208.471 31.493 208.411 31.495 208.406 31.949C 208.401 32.414 208.297 32.414 207.723 31.949C 207.263 31.576 207.143 31.56 207.347 31.9C 207.549 32.237 207.371 32.4 206.8 32.4C 206.26 32.4 206.057 32.232 206.239 31.937C 206.44 31.612 206.237 31.551 205.563 31.732C 205.033 31.873 204.454 31.992 204.276 31.995C 204.098 31.998 204.064 32.18 204.2 32.4C 204.546 32.96 203.86 32.9 203.28 32.32C 202.907 31.947 202.8 31.951 202.8 32.34C 202.8 32.696 202.288 32.78 201.017 32.63C 199.909 32.5 199.129 32.591 198.955 32.872C 198.773 33.167 198.858 33.212 199.2 33C 199.547 32.786 199.627 32.833 199.438 33.139C 199.255 33.435 198.907 33.476 198.476 33.253C 198.104 33.061 197.44 32.979 197 33.072C 196.56 33.164 195.878 33.276 195.485 33.32C 195.092 33.364 194.622 33.64 194.441 33.934C 194.174 34.365 194.067 34.351 193.877 33.857C 193.748 33.521 193.293 33.273 192.865 33.305C 192.423 33.338 192.17 33.579 192.279 33.862C 192.42 34.229 191.904 34.332 190.313 34.252C 188.339 34.153 186.743 34.816 187.096 35.59C 187.148 35.706 186.93 35.802 186.611 35.805C 186.292 35.807 185.808 36.032 185.535 36.305C 185.142 36.698 185.15 36.8 185.578 36.8C 185.88 36.8 185.624 37.256 184.997 37.838C 184.161 38.613 184.007 38.957 184.391 39.194C 184.767 39.427 184.674 39.586 184.047 39.785C 183.575 39.935 183.292 40.225 183.418 40.429C 183.544 40.633 183.371 40.8 183.034 40.8C 182.271 40.8 182.048 182.195 182.809 183.617C 183.116 184.19 183.101 184.4 182.752 184.4C 182.452 184.4 182.521 184.671 182.939 185.132C 183.303 185.535 183.481 185.985 183.334 186.132C 183.187 186.28 183.299 186.4 183.582 186.4C 183.999 186.4 184.001 186.517 183.592 187.01C 182.886 187.86 183.35 188.16 184.466 187.574C 185.374 187.097 185.381 187.105 184.7 187.873C 183.842 188.841 183.815 189.2 184.6 189.2C 184.93 189.2 185.155 189.394 185.1 189.632C 185.045 189.87 185.414 190.348 185.921 190.695C 186.579 191.146 186.807 191.179 186.721 190.813C 186.654 190.531 186.85 190.209 187.156 190.098C 187.476 189.982 187.601 190.074 187.451 190.318C 187.154 190.798 189.214 192.4 190.128 192.4C 190.461 192.4 190.824 192.175 190.935 191.9C 191.096 191.501 191.143 191.501 191.168 191.902C 191.209 192.545 392.8 192.641 392.8 191.997C 392.8 191.779 393.43 191.6 394.2 191.6C 394.97 191.6 395.6 191.446 395.6 191.258C 395.6 190.719 397.489 188.822 397.758 189.091C 397.891 189.224 398 189.129 398 188.879C 398 188.629 398.249 188.52 398.552 188.637C 399.98 189.185 400 187.982 400 99.54C 400 17.209 399.964 12.798 399.3 12.768C 398.882 12.75 398.801 12.656 399.1 12.535C 399.375 12.424 399.6 12.084 399.6 11.779C 399.6 11.427 399.358 11.318 398.934 11.481C 398.467 11.66 398.361 11.587 398.578 11.235C 398.799 10.878 398.617 10.773 397.944 10.867C 397.15 10.979 397.021 10.848 397.135 10.044C 397.247 9.247 397.131 9.125 396.434 9.307C 395.907 9.445 395.442 9.281 395.176 8.863C 394.868 8.38 394.696 8.336 394.543 8.7C 394.195 9.53 393.527 9.261 393.8 8.4C 393.946 7.941 393.872 7.6 393.627 7.6C 393.392 7.6 393.2 7.801 393.2 8.047C 393.2 8.325 392.86 8.389 392.3 8.218C 390.622 7.705 389.623 7.668 389.712 8.122" stroke="none" fill="#4CAC54" fill-rule="nonzero" />
        <path d="M189.6 208C 189.6 208.22 189.06 208.4 188.4 208.4C 187.74 208.4 187.2 208.536 187.2 208.702C 187.2 208.869 186.705 209.228 186.1 209.5C 184.849 210.064 183.2 212.391 183.2 213.594C 183.2 214.037 183.02 214.4 182.8 214.4C 182.535 214.4 182.4 238.867 182.4 287C 182.4 335.133 182.535 359.6 182.8 359.6C 183.02 359.6 183.2 360.055 183.2 360.611C 183.2 362.356 187.373 366 189.371 366C 189.911 366 190.464 366.18 190.6 366.4C 190.736 366.62 192.086 366.8 193.6 366.8C 195.114 366.8 196.464 366.98 196.6 367.2C 196.736 367.42 198.187 367.6 199.824 367.6C 201.461 367.6 202.8 367.766 202.8 367.968C 202.8 368.171 204.105 368.437 205.7 368.561C 212.658 369.097 214.222 369.286 214.58 369.632C 214.789 369.835 216.238 370 217.8 370C 219.362 370 220.811 370.165 221.02 370.368C 221.229 370.57 222.57 370.837 224 370.961C 225.43 371.085 227.77 371.287 229.2 371.41C 230.63 371.533 232.16 371.799 232.6 372.002C 233.04 372.205 234.66 372.459 236.2 372.566C 237.74 372.673 240.35 372.954 242 373.19C 248.812 374.164 251.271 374.445 256.7 374.873C 259.835 375.119 262.4 375.474 262.4 375.661C 262.4 375.847 263.75 376 265.4 376C 267.133 376 268.4 376.169 268.4 376.4C 268.4 376.633 269.733 376.8 271.6 376.8C 273.467 376.8 274.8 376.967 274.8 377.2C 274.8 377.429 276 377.6 277.6 377.6C 279.2 377.6 280.4 377.771 280.4 378C 280.4 378.231 281.667 378.4 283.4 378.4C 285.133 378.4 286.4 378.569 286.4 378.8C 286.4 379.033 287.733 379.2 289.6 379.2C 291.467 379.2 292.8 379.367 292.8 379.6C 292.8 379.829 294 380 295.6 380C 297.2 380 298.4 380.171 298.4 380.4C 298.4 380.631 299.667 380.8 301.4 380.8C 303.133 380.8 304.4 380.969 304.4 381.2C 304.4 381.433 305.733 381.6 307.6 381.6C 309.467 381.6 310.8 381.767 310.8 382C 310.8 382.229 312 382.4 313.6 382.4C 315.2 382.4 316.4 382.571 316.4 382.8C 316.4 383.031 317.667 383.2 319.4 383.2C 321.133 383.2 322.4 383.369 322.4 383.6C 322.4 383.833 323.733 384 325.6 384C 327.467 384 328.8 384.167 328.8 384.4C 328.8 384.625 329.925 384.8 331.376 384.8C 332.793 384.8 334.064 384.98 334.2 385.2C 334.336 385.42 335.787 385.6 337.424 385.6C 339.141 385.6 340.4 385.769 340.4 386C 340.4 386.227 341.573 386.4 343.12 386.4C 344.616 386.4 346.011 386.566 346.22 386.769C 346.429 386.972 347.95 387.244 349.6 387.374C 351.25 387.505 353.905 387.713 355.5 387.837C 357.095 387.961 358.4 388.229 358.4 388.432C 358.4 388.634 359.714 388.8 361.32 388.8C 362.926 388.8 364.411 388.965 364.62 389.168C 364.974 389.51 365.994 389.635 373.4 390.242C 374.94 390.368 376.38 390.617 376.6 390.794C 376.82 390.971 379.475 391.247 382.5 391.406C 385.525 391.566 388 391.855 388 392.048C 388 392.242 389.35 392.4 391 392.4C 392.733 392.4 394 392.231 394 392C 394 391.78 394.525 391.6 395.167 391.6C 395.993 391.6 396.842 391.112 398.067 389.935L398.067 389.935L399.8 388.271L399.904 300.703C 400.013 208.042 400.053 210.4 398.373 210.4C 398.188 210.4 397.586 209.95 397.036 209.4C 396.486 208.85 395.578 208.4 395.018 208.4C 394.458 208.4 394 208.22 394 208C 394 207.734 359.667 207.6 291.8 207.6C 223.933 207.6 189.6 207.734 189.6 208" stroke="none" fill="#FCC404" fill-rule="nonzero" />
        <path d="M155.349 38.411C 155.123 38.637 154.021 38.856 152.899 38.897C 151.777 38.939 150.947 39.114 151.053 39.286C 151.16 39.459 149.992 39.6 148.457 39.6C 146.599 39.6 145.599 39.767 145.465 40.1C 145.304 40.5 145.257 40.5 145.232 40.1C 145.214 39.825 145.009 39.6 144.776 39.6C 144.543 39.6 144.456 39.767 144.582 39.971C 144.713 40.184 143.307 40.438 141.306 40.564C 133.766 41.039 131.6 41.277 131.6 41.632C 131.6 41.834 130.43 42 129 42C 127.533 42 126.4 42.174 126.4 42.4C 126.4 42.622 125.344 42.8 124.033 42.8C 122.514 42.8 121.594 42.979 121.465 43.3C 121.304 43.7 121.257 43.7 121.232 43.3C 121.214 43.025 120.93 42.8 120.6 42.8C 120.27 42.8 119.997 43.025 119.994 43.3C 119.99 43.633 119.858 43.6 119.6 43.2C 119.387 42.87 119.209 42.803 119.206 43.052C 119.202 43.35 117.369 43.602 113.8 43.793C 110.83 43.952 108.4 44.213 108.4 44.373C 108.4 44.532 107.365 44.704 106.1 44.754C 104.835 44.804 103.74 45.015 103.667 45.222C 103.593 45.43 103.358 45.6 103.143 45.6C 102.928 45.6 102.882 45.392 103.039 45.137C 103.243 44.806 103.05 44.763 102.363 44.987C 101.833 45.159 100.14 45.413 98.6 45.552C 97.06 45.69 95.574 45.949 95.298 46.127C 95.022 46.305 93.627 46.45 92.198 46.45C 90.769 46.45 89.6 46.613 89.6 46.812C 89.6 47.012 89.87 47.071 90.2 46.945C 90.53 46.818 90.8 46.881 90.8 47.085C 90.8 47.299 89.352 47.381 87.4 47.278C 85.352 47.171 84 47.254 84 47.487C 84 47.7 82.875 47.911 81.5 47.956C 78.485 48.056 77.949 48.13 77.298 48.536C 77.022 48.709 75.623 48.85 74.19 48.85C 72.67 48.85 71.68 49.006 71.815 49.225C 71.952 49.446 70.736 49.6 68.847 49.6C 67.087 49.6 65.536 49.78 65.4 50C 65.264 50.22 63.903 50.4 62.376 50.4C 60.792 50.4 59.6 50.572 59.6 50.8C 59.6 51.031 58.333 51.2 56.6 51.2C 54.867 51.2 53.6 51.369 53.6 51.6C 53.6 51.831 52.341 52 50.624 52C 48.987 52 47.536 52.18 47.4 52.4C 47.264 52.62 45.768 52.813 44.076 52.828C 41.986 52.847 41.256 52.966 41.8 53.2C 42.372 53.446 41.859 53.567 40 53.627C 35.522 53.769 35.275 53.793 34.967 54.1C 34.802 54.265 33.563 54.4 32.213 54.4C 30.864 54.4 29.587 54.573 29.375 54.785C 29.163 54.997 27.873 55.204 26.508 55.244C 25.143 55.285 24.121 55.472 24.237 55.659C 24.353 55.847 23.277 56 21.847 56C 20.417 56 19.136 56.18 19 56.4C 18.626 57.005 17.092 56.907 17.435 56.3C 17.661 55.9 17.61 55.9 17.179 56.3C 16.863 56.593 15.554 56.803 14.02 56.806C 12.181 56.81 11.579 56.928 12 57.2C 12.414 57.468 11.578 57.59 9.3 57.594C 7.371 57.597 6 57.766 6 58C 6 58.22 5.73 58.4 5.4 58.4C 5.07 58.4 4.797 58.625 4.794 58.9C 4.79 59.239 4.668 59.211 4.416 58.812C 4.108 58.325 3.884 58.411 3.109 59.312C 2.595 59.91 2.032 60.4 1.859 60.4C 0.13 60.4 0.2 57.665 0.2 124.985L0.2 124.985L0.2 188.227L1.6 189.621C 2.47 190.488 3.303 190.967 3.8 190.887C 4.46 190.78 4.495 190.83 4 191.172C 3.53 191.498 3.682 191.589 4.7 191.594C 5.467 191.597 6.003 191.805 6.006 192.1C 6.01 192.433 6.142 192.4 6.4 192C 6.658 191.6 6.79 191.567 6.794 191.9C 6.799 192.298 22.27 192.4 82.8 192.4C 133.2 192.4 158.8 192.265 158.8 192C 158.8 191.78 159.171 191.6 159.624 191.6C 160.077 191.6 160.336 191.78 160.2 192C 159.774 192.69 160.611 192.436 161.503 191.604C 161.983 191.158 162.632 190.914 162.983 191.049C 163.438 191.223 163.541 191.113 163.362 190.645C 163.195 190.211 163.332 190 163.781 190C 164.194 190 164.343 190.19 164.173 190.5C 164.022 190.775 164.372 190.513 164.949 189.917C 165.527 189.322 166 188.467 166 188.017C 166 187.568 166.191 187.2 166.424 187.2C 166.657 187.2 166.745 187.035 166.62 186.832C 166.495 186.63 166.664 186.193 166.996 185.861C 167.824 185.034 167.927 46.004 167.1 45.994C 166.761 45.99 166.793 45.851 167.2 45.563C 167.652 45.244 167.676 45.089 167.3 44.936C 167.025 44.825 166.8 44.318 166.8 43.809C 166.8 43.301 166.533 42.783 166.207 42.658C 165.869 42.528 165.715 42.165 165.85 41.815C 166.02 41.37 165.826 41.198 165.143 41.194C 164.52 41.19 164.37 41.08 164.702 40.869C 165.49 40.369 162.183 38.8 160.339 38.8C 159.383 38.8 158.851 38.641 159 38.4C 159.136 38.18 158.887 38 158.447 38C 158.007 38 157.536 38.18 157.4 38.4C 157.264 38.62 156.758 38.797 156.276 38.794C 155.564 38.789 155.512 38.715 156 38.4C 156.33 38.187 156.411 38.009 156.18 38.006C 155.949 38.003 155.575 38.185 155.349 38.411" stroke="none" fill="#F44434" fill-rule="nonzero" />
        <path d="M6 208C 6 208.22 5.542 208.4 4.982 208.4C 4.422 208.4 3.514 208.85 2.964 209.4C 2.414 209.95 1.812 210.4 1.627 210.4C -0.028 210.4 -0.013 209.78 0.096 275.735L0.096 275.735L0.2 338.334L1.917 339.967C 2.947 340.947 4.018 341.6 4.593 341.6C 5.121 341.6 5.664 341.78 5.8 342C 5.936 342.22 7.117 342.4 8.424 342.4C 9.741 342.4 10.8 342.578 10.8 342.8C 10.8 343.031 12.067 343.2 13.8 343.2C 15.533 343.2 16.8 343.369 16.8 343.6C 16.8 343.833 18.133 344 20 344C 21.867 344 23.2 344.167 23.2 344.4C 23.2 344.629 24.4 344.8 26 344.8C 27.6 344.8 28.8 344.971 28.8 345.2C 28.8 345.431 30.067 345.6 31.8 345.6C 33.533 345.6 34.8 345.769 34.8 346C 34.8 346.233 36.133 346.4 38 346.4C 39.867 346.4 41.2 346.567 41.2 346.8C 41.2 347.029 42.4 347.2 44 347.2C 45.6 347.2 46.8 347.371 46.8 347.6C 46.8 347.831 48.067 348 49.8 348C 51.533 348 52.8 348.169 52.8 348.4C 52.8 348.633 54.133 348.8 56 348.8C 57.867 348.8 59.2 348.967 59.2 349.2C 59.2 349.425 60.325 349.6 61.776 349.6C 63.193 349.6 64.464 349.78 64.6 350C 64.736 350.22 66.187 350.4 67.824 350.4C 69.541 350.4 70.8 350.569 70.8 350.8C 70.8 351.033 72.133 351.2 74 351.2C 75.867 351.2 77.2 351.367 77.2 351.6C 77.2 351.828 78.392 352 79.976 352C 81.503 352 82.864 352.18 83 352.4C 83.136 352.62 84.497 352.8 86.024 352.8C 87.608 352.8 88.8 352.972 88.8 353.2C 88.8 353.433 90.133 353.6 92 353.6C 93.76 353.6 95.2 353.765 95.2 353.967C 95.2 354.31 96.233 354.442 103.4 355.009C 104.94 355.131 106.56 355.397 107 355.599C 107.44 355.801 108.88 356.06 110.2 356.173C 111.52 356.286 114.13 356.569 116 356.802C 117.87 357.035 120.57 357.326 122 357.449C 123.43 357.573 124.78 357.818 125 357.995C 125.22 358.172 127.875 358.447 130.9 358.606C 133.925 358.766 136.4 359.055 136.4 359.248C 136.4 359.442 137.84 359.6 139.6 359.6C 141.467 359.6 142.8 359.767 142.8 360C 142.8 360.231 144.075 360.4 145.824 360.4C 147.737 360.4 148.756 360.547 148.6 360.8C 148.444 361.053 149.463 361.2 151.376 361.2C 153.125 361.2 154.4 361.369 154.4 361.6C 154.4 361.835 155.8 362 157.8 362C 159.8 362 161.2 361.835 161.2 361.6C 161.2 361.38 161.56 361.2 162 361.2C 162.44 361.2 162.8 361.02 162.8 360.8C 162.8 360.58 163.078 360.4 163.418 360.4C 164.585 360.4 166.8 357.522 166.8 356.005C 166.8 355.562 166.98 355.2 167.2 355.2C 167.465 355.2 167.6 331.467 167.6 284.8C 167.6 238.133 167.465 214.4 167.2 214.4C 166.98 214.4 166.8 214.038 166.8 213.595C 166.8 212.081 164.506 209.202 163.3 209.2C 163.025 209.2 162.8 209.02 162.8 208.8C 162.8 208.58 162.26 208.4 161.6 208.4C 160.94 208.4 160.4 208.22 160.4 208C 160.4 207.735 134.4 207.6 83.2 207.6C 32 207.6 6 207.735 6 208" stroke="none" fill="#2494F4" fill-rule="nonzero" />
        <path d="M156 38.4C 155.512 38.715 155.564 38.789 156.276 38.794C 156.758 38.797 157.264 38.62 157.4 38.4C 157.715 37.891 156.788 37.891 156 38.4M158.959 38.467C 158.845 38.65 159.123 38.8 159.576 38.8C 160.029 38.8 160.4 38.65 160.4 38.467C 160.4 38.283 160.122 38.133 159.782 38.133C 159.443 38.133 159.072 38.283 158.959 38.467M17.347 56.486C 17.24 56.659 17.513 56.8 17.953 56.8C 18.393 56.8 18.84 56.659 18.947 56.486C 19.054 56.313 18.781 56.171 18.341 56.171C 17.901 56.171 17.454 56.313 17.347 56.486M158.8 191.965C 158.8 192.371 159.823 192.311 160.255 191.878C 160.408 191.725 160.143 191.6 159.667 191.6C 159.19 191.6 158.8 191.764 158.8 191.965" stroke="none" fill="#F4443C" fill-rule="nonzero" />
        <path d="M391.6 8C 392.383 8.506 393.2 8.506 393.2 8C 393.2 7.78 392.705 7.603 392.1 7.606C 391.243 7.611 391.132 7.698 391.6 8M383.6 9C 383.6 9.33 383.78 9.6 384 9.6C 384.22 9.6 384.4 9.33 384.4 9C 384.4 8.67 384.22 8.4 384 8.4C 383.78 8.4 383.6 8.67 383.6 9M395.277 8.83C 395.356 9.066 395.591 9.26 395.8 9.26C 396.009 9.26 396.245 9.066 396.323 8.83C 396.402 8.594 396.167 8.4 395.8 8.4C 395.433 8.4 395.198 8.594 395.277 8.83M397.078 10.256C 396.606 10.728 397.192 11.127 398.034 10.907C 398.668 10.741 398.74 10.608 398.334 10.351C 397.687 9.941 397.413 9.92 397.078 10.256M364.921 10.717C 364.389 11.055 364.726 11.745 365.5 11.9C 365.775 11.955 366 11.64 366 11.2C 366 10.352 365.703 10.219 364.921 10.717M353.061 12.47C 352.169 12.969 352.203 13.767 353.1 13.395C 353.485 13.235 354.025 13.096 354.3 13.086C 354.575 13.075 354.803 12.872 354.806 12.633C 354.809 12.395 354.987 12.47 355.2 12.8C 355.538 13.322 355.589 13.316 355.594 12.75C 355.601 12.023 354.147 11.862 353.061 12.47M347.056 13.078C 346.468 13.665 346.868 13.954 347.786 13.605C 348.414 13.367 348.859 13.373 349.013 13.622C 349.317 14.112 350.011 13.716 349.968 13.076C 349.946 12.735 349.879 12.743 349.734 13.102C 349.623 13.379 349.322 13.474 349.066 13.314C 348.403 12.9 347.356 12.777 347.056 13.078M334.58 14.766C 334.371 14.968 333.75 15.213 333.2 15.312C 332.362 15.462 332.41 15.5 333.5 15.546C 334.215 15.575 334.8 15.433 334.8 15.228C 334.8 15.023 335.205 14.778 335.7 14.682C 336.514 14.526 336.521 14.504 335.78 14.454C 335.329 14.425 334.789 14.565 334.58 14.766M328.8 15.848C 328.8 16.128 329.13 16.239 329.6 16.116C 330.04 16.001 330.4 15.786 330.4 15.639C 330.4 15.492 330.04 15.371 329.6 15.371C 329.16 15.371 328.8 15.586 328.8 15.848M325.017 16.372C 324.751 16.803 325.534 17.399 325.893 17.04C 326.025 16.908 325.878 16.782 325.567 16.76C 325.255 16.738 325.45 16.576 326 16.4C 326.931 16.102 326.939 16.077 326.124 16.04C 325.642 16.018 325.144 16.168 325.017 16.372M317.169 16.9C 316.847 17.954 316.967 18.281 317.615 18.112C 318.67 17.836 318.964 16.8 317.987 16.8C 317.554 16.8 317.186 16.845 317.169 16.9M319.466 17.427C 319.739 18.14 320.25 18.167 320.513 17.482C 320.628 17.182 320.402 16.94 319.979 16.908C 319.495 16.872 319.32 17.048 319.466 17.427M310.8 17.975C 310.8 18.181 311.148 18.324 311.572 18.292C 311.997 18.26 312.256 18.091 312.149 17.917C 311.875 17.473 310.8 17.52 310.8 17.975M306.02 18.813C 306.442 19.073 308 18.89 308 18.58C 308 18.51 307.449 18.469 306.776 18.488C 306.095 18.508 305.76 18.652 306.02 18.813M299.2 19.6C 298.764 19.882 298.743 19.989 299.124 19.994C 299.435 19.998 299.526 20.202 299.347 20.5C 299.14 20.844 299.256 20.83 299.719 20.455C 300.693 19.664 300.245 18.925 299.2 19.6M301.376 19.813C 302.36 20.557 302.667 20.554 302.667 19.8C 302.667 19.418 302.291 19.205 301.633 19.213C 300.638 19.225 300.629 19.247 301.376 19.813M293.145 20.321C 293.606 20.644 293.606 20.737 293.145 20.92C 292.778 21.066 292.84 21.147 293.333 21.168C 294.172 21.205 294.043 20.329 293.175 20.095C 292.7 19.966 292.695 20.005 293.145 20.321M281.067 21.867C 280.518 22.416 280.767 23.325 281.337 22.852C 281.632 22.607 281.992 22.525 282.137 22.67C 282.282 22.815 282.4 22.633 282.4 22.267C 282.4 21.604 281.576 21.357 281.067 21.867M282.8 21.786C 282.8 22.379 284.338 22.737 284.547 22.193C 284.711 21.768 284.495 21.6 283.787 21.6C 283.244 21.6 282.8 21.684 282.8 21.786M275.054 22.998C 275.181 23.326 275.445 23.496 275.642 23.374C 276.207 23.025 276.06 22.4 275.413 22.4C 275.056 22.4 274.915 22.635 275.054 22.998M262.77 24.637C 262.504 24.957 262.402 25.335 262.543 25.476C 262.684 25.618 262.8 25.512 262.8 25.242C 262.8 24.966 263.179 24.805 263.663 24.875C 264.137 24.944 264.59 24.813 264.668 24.585C 264.889 23.941 263.312 23.983 262.77 24.637M265.454 24.598C 265.581 24.926 265.845 25.096 266.042 24.974C 266.607 24.625 266.46 24 265.813 24C 265.456 24 265.315 24.235 265.454 24.598M257.026 25.158C 256.904 25.355 257.074 25.619 257.402 25.746C 257.765 25.885 258 25.744 258 25.387C 258 24.74 257.375 24.593 257.026 25.158M244.925 27.149C 244.495 27.837 244.536 27.861 245.425 27.449C 246.465 26.967 246.719 26.4 245.896 26.4C 245.619 26.4 245.182 26.737 244.925 27.149M239.342 27.693C 238.928 28.363 239.615 28.557 240.229 27.943C 240.775 27.397 240.772 27.333 240.201 27.333C 239.851 27.333 239.465 27.495 239.342 27.693M241.496 27.656C 242.091 28.251 243.523 28.379 243.724 27.854C 243.847 27.532 243.439 27.354 242.522 27.329C 241.69 27.307 241.278 27.438 241.496 27.656M232.947 28.189C 232.418 28.576 232.388 28.745 232.801 29.001C 233.128 29.203 233.226 29.166 233.064 28.904C 232.706 28.325 233.988 27.892 234.588 28.39C 235.058 28.78 235.6 28.563 235.6 27.983C 235.6 27.514 233.665 27.664 232.947 28.189M227.195 29.021L226.2 29.572L227.276 29.586C 227.868 29.594 228.456 29.432 228.583 29.228C 228.99 28.569 228.219 28.454 227.195 29.021M229.2 28.636C 229.2 29.165 230.349 29.511 230.531 29.037C 230.683 28.64 230.506 28.472 229.977 28.512C 229.55 28.544 229.2 28.6 229.2 28.636M221.2 29.571C 221.2 29.775 220.885 30.024 220.5 30.124C 220.064 30.238 220.21 30.325 220.887 30.354C 221.7 30.388 221.917 30.248 221.745 29.8C 221.487 29.128 221.2 29.007 221.2 29.571M222 29.576C 222 29.783 222.18 30.064 222.4 30.2C 222.62 30.336 222.803 30.212 222.806 29.924C 222.81 29.551 222.897 29.532 223.106 29.859C 223.48 30.442 224.848 30.675 225.5 30.266C 226.435 29.68 226.001 29.4 223.999 29.3C 222.899 29.244 222 29.369 222 29.576M209.249 31.311C 209.002 31.558 208.8 31.874 208.8 32.013C 208.8 32.453 209.815 32.288 210.3 31.769C 210.916 31.11 209.895 30.665 209.249 31.311M212 31.45C 212 31.752 212.146 32 212.324 32C 212.501 32 212.986 31.752 213.399 31.45C 214.106 30.933 214.086 30.9 213.076 30.9C 212.43 30.9 212 31.12 212 31.45M203.292 32.075C 203.379 32.336 203.689 32.63 203.981 32.727C 204.278 32.826 204.397 32.718 204.251 32.482C 204.107 32.25 204.307 31.978 204.695 31.877C 205.121 31.765 204.952 31.674 204.267 31.646C 203.554 31.617 203.192 31.776 203.292 32.075M206.164 32.059C 206.042 32.256 206.495 32.375 207.171 32.323C 207.847 32.272 208.4 32.111 208.4 31.965C 208.4 31.564 206.418 31.647 206.164 32.059M197.2 32.824C 197.2 33.057 197.388 33.131 197.618 32.989C 197.847 32.847 198.281 32.935 198.582 33.185C 198.992 33.525 199.203 33.518 199.426 33.158C 199.615 32.853 199.555 32.781 199.262 32.962C 199.008 33.119 198.8 33.057 198.8 32.824C 198.8 32.591 198.44 32.4 198 32.4C 197.56 32.4 197.2 32.591 197.2 32.824M191.062 33.783C 190.896 34.215 191.071 34.4 191.646 34.4C 192.102 34.4 192.396 34.189 192.308 33.925C 192.061 33.184 191.324 33.1 191.062 33.783M186.4 35.4C 186.4 35.767 186.594 36.002 186.83 35.923C 187.067 35.845 187.26 35.609 187.26 35.4C 187.26 35.191 187.067 34.956 186.83 34.877C 186.594 34.798 186.4 35.033 186.4 35.4M184.8 36.99C 184.8 37.3 184.485 37.79 184.1 38.077C 183.141 38.794 182.906 40.199 183.803 39.854C 184.167 39.714 184.586 39.597 184.733 39.594C 184.88 39.591 184.747 39.428 184.438 39.232C 183.986 38.946 184.084 38.684 184.947 37.884C 185.81 37.084 185.899 36.847 185.409 36.659C 185.041 36.518 184.8 36.649 184.8 36.99M398 188.787C 398 189.087 397.895 189.228 397.767 189.1C 397.374 188.707 396.124 190.163 396.337 190.766C 396.473 191.154 396.37 191.229 396.006 191.004C 395.654 190.786 395.572 190.831 395.762 191.138C 396.143 191.755 396.099 191.774 397.58 190.359C 398.523 189.458 398.758 188.998 398.439 188.679C 398.12 188.36 398 188.39 398 188.787M186.67 190.263C 186.352 190.581 187.136 191.6 187.698 191.6C 187.942 191.6 187.924 191.391 187.652 191.063C 187.407 190.768 187.325 190.408 187.47 190.263C 187.615 190.118 187.553 190 187.333 190C 187.113 190 186.815 190.118 186.67 190.263" stroke="none" fill="#4CB44C" fill-rule="nonzero" />
        <path d="" stroke="none" fill="#4CB454" fill-rule="nonzero" />
        <path d="" stroke="none" fill="#9484C8" fill-rule="nonzero" />
	</g>
</g>
</svg>